<?xml version="1.0" standalone="no"?>
<!DOCTYPE svg PUBLIC "-//W3C//DTD SVG 1.1//EN" "http://www.w3.org/Graphics/SVG/1.1/DTD/svg11.dtd" >
<svg xmlns="http://www.w3.org/2000/svg" xmlns:xlink="http://www.w3.org/1999/xlink" version="1.1">
<metadata>
Created by FontForge 20170731 at Tue Dec  7 20:00:03 2021
 By Aleksey,,,
Copyright (c) 2008 by TypeTogether. All rights reserved.
</metadata>
<defs>
<font id="Bree-LightOblique" horiz-adv-x="1095" >
  <font-face 
    font-family="Bree Lt"
    font-weight="300"
    font-style="oblique"
    font-stretch="normal"
    units-per-em="2048"
    panose-1="2 0 5 3 0 0 0 9 0 4"
    ascent="1475"
    descent="-573"
    x-height="1018"
    cap-height="1362"
    bbox="-297 -563 2165 1827"
    underline-thickness="102"
    underline-position="-307"
    slope="-10"
    unicode-range="U+000D-FB04"
  />
<missing-glyph horiz-adv-x="1024" 
 />
    <glyph glyph-name="ff" unicode="ff" horiz-adv-x="1230" 
d="M469 891l-233 -1321h-160l272 1544q11 60 26.5 106t46 93t73.5 77t111 49t157 19q81 0 167.5 -22t145.5 -52q94 74 248 74q62 0 131.5 -17.5t110.5 -45.5l-64 -111q-85 47 -180 47q-97 0 -150.5 -54t-72.5 -159l-17 -100h320l-21 -127h-321l-234 -1321h-159l233 1321
h-430zM510 1118l-18 -100h428l16 96q21 104 55 162q-107 55 -239 55q-112 0 -167.5 -51t-74.5 -162z" />
    <glyph glyph-name="fi" unicode="fi" horiz-adv-x="1044" 
d="M469 891l-233 -1321h-160l272 1544q11 59 26.5 104.5t46 92.5t73.5 77.5t111.5 50t156.5 19.5q92 0 185.5 -25t156.5 -57l-66 -114q-141 69 -282 69q-113 0 -170 -51.5t-76 -161.5l-18 -100h585l-180 -1018h-160l158 891h-426z" />
    <glyph glyph-name="fl" unicode="fl" horiz-adv-x="1204" 
d="M469 891l-233 -1321h-160l272 1544q11 61 26.5 107t46 93t74 76.5t112.5 48.5t159 19q126 0 260 -51q23 -4 63 -14t54 -13l-193 -1077q-10 -68 -10 -102q0 -59 22.5 -83t77.5 -24q60 0 148 37l26 -108q-37 -23 -100 -38.5t-121 -15.5q-122 0 -169.5 48.5t-47.5 140.5
q0 26 3.5 59.5t7.5 56.5t11.5 66t10.5 61l86 490h-426zM510 1118l-18 -100h426l47 272q-103 41 -213 41q-112 0 -167.5 -51t-74.5 -162z" />
    <glyph glyph-name="ffi" unicode="ffi" horiz-adv-x="1632" 
d="M1057 891l-234 -1321h-159l233 1321h-428l-233 -1321h-160l272 1544q11 60 26.5 105.5t46 92.5t73 77.5t110.5 49.5t156 19q81 0 169 -23t150 -53q99 76 277 76q89 0 180.5 -27t153.5 -61l-64 -108q-141 69 -270 69q-117 0 -177.5 -48.5t-80.5 -164.5l-19 -100h586
l-180 -1018h-160l158 891h-426zM510 1118l-18 -100h428l16 96q22 110 53 162q-130 55 -237 55q-112 0 -167.5 -51t-74.5 -162z" />
    <glyph glyph-name="ffl" unicode="ffl" horiz-adv-x="1796" 
d="M1577 -29q-209 0 -209 199q0 48 10 100l109 621h-430l-234 -1321h-157l233 1321h-430l-233 -1321h-160l272 1544q11 63 26.5 109.5t46 93t74.5 76t113 47.5t160 18q80 0 167.5 -22.5t143.5 -53.5q100 76 279 76q177 0 373 -78l-191 -1093q-10 -58 -10 -88q0 -55 22 -79
t78 -24q65 0 148 37l26 -113q-35 -22 -99 -35.5t-128 -13.5zM922 1018l16 96q20 103 53 156q-126 63 -239 63q-115 0 -169 -53t-75 -170l-16 -92h430zM1098 1118l-19 -100h428l47 266q-127 49 -215 49q-112 0 -167 -51.5t-74 -163.5z" />
    <glyph glyph-name="tt" unicode="tt" horiz-adv-x="1296" 
d="M1018 1423h160l-72 -405h293l-25 -137h-293l-106 -607q-8 -50 -8 -77q1 -61 29 -81t91 -20q72 0 166 51l41 -108q-46 -31 -117 -49.5t-135 -18.5q-233 0 -237 183q0 56 12 127l105 600h-455l-107 -607q-8 -50 -8 -77q1 -61 29 -81t92 -20q72 0 166 51l41 -108
q-46 -31 -117 -49.5t-135 -18.5q-234 0 -238 183q0 51 13 127l200 1142h160l-71 -405h454z" />
    <glyph glyph-name=".notdef" horiz-adv-x="1024" 
 />
    <glyph glyph-name=".null" horiz-adv-x="0" 
 />
    <glyph glyph-name=".null" horiz-adv-x="0" 
 />
    <glyph glyph-name="nonmarkingreturn" horiz-adv-x="682" 
 />
    <glyph glyph-name="CR" unicode="&#xd;" horiz-adv-x="450" 
 />
    <glyph glyph-name="space" unicode=" " horiz-adv-x="438" 
 />
    <glyph glyph-name="exclam" unicode="!" horiz-adv-x="536" 
d="M381 1085l47 265q15 73 96 73q50 0 64.5 -20t7.5 -57l-47 -261l-162 -735h-100zM170 63q0 53 41.5 92.5t93.5 39.5q45 0 73 -26.5t28 -68.5q0 -53 -40.5 -93t-95.5 -40q-46 0 -73 27t-27 69z" />
    <glyph glyph-name="quotedbl" unicode="&#x22;" horiz-adv-x="716" 
d="M375 1362h155l-98 -459h-119zM664 1362h157l-98 -459h-121z" />
    <glyph glyph-name="numbersign" unicode="#" horiz-adv-x="1103" 
d="M606 0l86 330h-252l-86 -330h-127l88 330h-229l18 114h240l92 347h-229l18 110h240l90 338h127l-90 -338h252l90 338h127l-90 -338h223l-20 -110h-232l-94 -347h225l-18 -114h-236l-86 -330h-127zM563 791l-94 -347h252l94 347h-252z" />
    <glyph glyph-name="dollar" unicode="$" 
d="M143 145l80 121q130 -102 287 -119l86 490q-43 17 -72 30.5t-66 34.5t-61 45t-46 55.5t-33 72t-11 88.5q0 166 111 266.5t301 111.5l35 189h125l-35 -193q103 -16 188 -64t137 -108l-100 -98q-119 115 -248 137l-82 -463q53 -23 86.5 -39.5t77 -46.5t68.5 -62.5t43 -82
t18 -109.5q0 -168 -111 -271.5t-311 -115.5l-41 -235h-125l41 235q-112 11 -207 51t-135 80zM868 387q0 74 -39.5 120.5t-115.5 82.5l-78 -440q101 12 167 68t66 169zM473 991q0 -72 39 -117.5t111 -80.5l73 413q-96 -12 -159.5 -63.5t-63.5 -151.5z" />
    <glyph glyph-name="percent" unicode="%" horiz-adv-x="1609" 
d="M1364 725q121 0 190.5 -73.5t69.5 -209.5q0 -207 -103 -336t-282 -129q-130 0 -197 75.5t-67 211.5q0 211 107 336t282 125zM1251 84q97 0 167.5 85.5t70.5 256.5q0 96 -36.5 145.5t-104.5 49.5q-102 0 -171 -94.5t-69 -256.5q0 -93 38.5 -139.5t104.5 -46.5zM614 1346
q121 0 190.5 -73.5t69.5 -209.5q0 -207 -103 -336t-282 -129q-130 0 -197 75.5t-67 211.5q0 211 107 336t282 125zM502 705q97 0 167 85.5t70 256.5q0 96 -36.5 145t-104.5 49q-102 0 -171 -94t-69 -256q0 -93 39 -139.5t105 -46.5zM563 -8l-110 57l825 1284l115 -53z" />
    <glyph glyph-name="ampersand" unicode="&#x26;" horiz-adv-x="1624" 
d="M735 109q195 0 347.5 110.5t226.5 329.5h315l-22 -123h-195q-39 -94 -99 -172.5t-144.5 -143t-200 -101t-250.5 -36.5q-107 0 -192.5 27.5t-139.5 73t-89.5 107t-50 125.5t-14.5 134q0 131 43 251t119.5 212.5t192 147.5t252.5 55q122 0 197 -58.5t75 -156.5
q0 -126 -141 -238q99 35 186 96.5t153 139t115 156t90 167.5l150 -47q-52 -107 -107 -192t-125 -161t-157.5 -134.5t-192.5 -99.5q-238 -92 -688 -95q-7 -96 16.5 -169t71.5 -117t113 -66t145 -22zM807 979q-125 0 -236.5 -96t-164.5 -279q45 2 80.5 4t92.5 9.5t100.5 18.5
t92.5 31t81 46.5t53.5 66t21.5 88.5q0 111 -121 111z" />
    <glyph glyph-name="quotesingle" unicode="'" horiz-adv-x="428" 
d="M375 1362h155l-98 -459h-119z" />
    <glyph glyph-name="parenleft" unicode="(" horiz-adv-x="632" 
d="M252 346q0 275 109.5 548t322.5 568l127 -71q-208 -300 -303.5 -536t-95.5 -501q0 -310 98 -626l-141 -56q-56 150 -86.5 331.5t-30.5 342.5z" />
    <glyph glyph-name="parenright" unicode=")" horiz-adv-x="632" 
d="M578 780q0 -282 -107.5 -550t-320.5 -560l-123 76q100 150 166 265.5t121 244t80.5 256.5t25.5 266q0 301 -107 617l146 59q57 -153 88 -332.5t31 -341.5z" />
    <glyph glyph-name="asterisk" unicode="*" horiz-adv-x="821" 
d="M618 1139q62 -11 119.5 -62t57.5 -108q0 -29 -20.5 -47.5t-51.5 -18.5q-37 0 -62 31t-34 68t-11 81q0 36 2 56zM659 1212q45 58 103 97t119 39q67 0 67 -54q0 -37 -27.5 -61.5t-62 -32.5t-74.5 -8q-75 0 -125 20zM545 1139q-8 -57 -30.5 -105t-45.5 -73q-56 -56 -98 -56
q-27 0 -44.5 17.5t-17.5 42.5q0 45 51 96q62 57 185 78zM528 1212q-51 -20 -114 -20q-52 0 -100 22t-48 66q0 31 20.5 51.5t55.5 20.5q62 0 111.5 -40.5t74.5 -99.5zM602 1262q-43 61 -43 151q0 54 23.5 94.5t62.5 40.5q62 0 62 -78q0 -107 -105 -208z" />
    <glyph glyph-name="plus" unicode="+" 
d="M602 723l62 354h145l-61 -354h350l-25 -137h-350l-61 -355h-146l62 355h-349l23 137h350z" />
    <glyph glyph-name="comma" unicode="," horiz-adv-x="450" 
d="M381 150l-266 -426l-82 26q65 221 119 359q21 56 44.5 81t57.5 25q38 0 73 -20.5t54 -44.5z" />
    <glyph glyph-name="hyphen" unicode="-" horiz-adv-x="659" 
d="M162 530l24 136h537l-25 -136h-536z" />
    <glyph glyph-name="period" unicode="." horiz-adv-x="425" 
d="M109 70q0 61 40.5 101t98.5 40q49 0 76.5 -26.5t27.5 -69.5q0 -59 -40 -100.5t-99 -41.5q-51 0 -77.5 26.5t-26.5 70.5z" />
    <glyph glyph-name="slash" unicode="/" horiz-adv-x="819" 
d="M98 -221l-127 69l959 1668l133 -66z" />
    <glyph glyph-name="zero" unicode="0" 
d="M784 1346q174 0 268.5 -109.5t94.5 -327.5q0 -118 -21 -247q-57 -359 -204 -520.5t-383 -161.5q-359 0 -359 436q0 138 23 266q123 664 581 664zM567 111q55 0 100.5 13.5t92.5 50.5t84 97t69 157.5t52 227.5q20 125 20 265q0 159 -57 224.5t-164 65.5q-72 0 -129 -26
t-108.5 -87.5t-91.5 -171.5t-68 -270q-23 -135 -23 -256q0 -157 57 -223.5t166 -66.5z" />
    <glyph glyph-name="one" unicode="1" horiz-adv-x="866" 
d="M193 129h258l178 1018l-346 -168l-41 102l430 238h157l-36 -143l-185 -1047h250l-22 -129h-666z" />
    <glyph glyph-name="two" unicode="2" horiz-adv-x="1036" 
d="M379 1057l-76 108q98 83 216 132t237 49q146 0 228.5 -81t82.5 -210q0 -128 -60.5 -231t-187.5 -222l-502 -469h666l-25 -133h-870l23 117l557 528q124 117 177.5 199t53.5 184q0 84 -49.5 130t-126.5 46q-155 0 -344 -147z" />
    <glyph glyph-name="three" unicode="3" horiz-adv-x="1052" 
d="M352 1049l-71 104q100 80 229.5 136.5t255.5 56.5q153 0 231 -80.5t78 -194.5q0 -112 -50.5 -195t-178.5 -155q133 -147 133 -309q0 -89 -30 -166t-89 -138.5t-156 -97t-221 -35.5q-111 0 -218 32.5t-159 70.5l70 125q61 -39 147.5 -65.5t176.5 -26.5q140 0 228.5 78
t88.5 208q0 139 -106 248q-104 -47 -248 -76l-29 123q95 24 162 46t130 53t100.5 66.5t60 84.5t22.5 109q0 73 -46.5 115t-131.5 42q-153 0 -379 -159z" />
    <glyph glyph-name="four" unicode="4" horiz-adv-x="1062" 
d="M891 903h98l-78 -430h197l-21 -131h-196l-62 -342h-163l61 342h-580l21 127l569 874l125 -65l-526 -805h422l39 164z" />
    <glyph glyph-name="five" unicode="5" horiz-adv-x="1011" 
d="M272 657l201 662h643l-24 -135h-514l-127 -410q510 -19 510 -371q0 -65 -15 -123.5t-52.5 -114.5t-93.5 -97t-144 -66t-199 -25q-114 0 -229 35.5t-158 73.5l75 125q153 -100 322 -100q87 0 152.5 23t102 63.5t54 89t17.5 104.5q0 41 -10 74.5t-26 58.5t-44 45t-54.5 33
t-66.5 23t-72.5 15t-80.5 9t-81.5 5t-83.5 3h-2z" />
    <glyph glyph-name="six" unicode="6" 
d="M999 1368l17 -131q-232 -36 -388.5 -172.5t-207.5 -331.5q169 98 346 98q142 0 221.5 -86.5t79.5 -226.5q0 -48 -10 -106q-34 -193 -166 -315t-344 -122q-90 0 -156.5 32t-105 90t-56.5 130t-18 160q0 124 14 203q27 154 82.5 278.5t147 227t228.5 171.5t316 101z
M897 418q8 50 8 86q0 89 -49 147t-145 58q-73 0 -172.5 -36.5t-151.5 -78.5q-20 -92 -20 -209q0 -130 49.5 -205.5t156.5 -75.5q122 0 209.5 82.5t114.5 231.5z" />
    <glyph glyph-name="seven" unicode="7" horiz-adv-x="915" 
d="M260 1184l27 135h833l-22 -123q-569 -400 -672 -1112l-12 -84h-162l14 90q22 139 60 266t105.5 271t179.5 287t261 270h-612z" />
    <glyph glyph-name="eight" unicode="8" horiz-adv-x="1089" 
d="M182 266q0 69 23.5 131t56.5 105.5t84 85.5t90.5 66t91.5 51q-178 111 -178 274q0 155 121 261t313 106q83 0 146.5 -21.5t100.5 -58.5t55 -81.5t18 -94.5q0 -212 -285 -385q209 -118 209 -306q0 -64 -17 -124t-55 -114.5t-93 -95t-137 -64.5t-181 -24q-96 0 -169 25
t-114 67t-60.5 91.5t-19.5 105.5zM858 373q0 166 -213 264q-61 -30 -108.5 -61t-95 -73.5t-73.5 -96t-26 -113.5q0 -82 54.5 -136.5t170.5 -54.5q132 0 211.5 78.5t79.5 192.5zM764 1225q-115 0 -182.5 -65t-67.5 -156q0 -142 188 -238q244 135 244 301q0 68 -47.5 113
t-134.5 45z" />
    <glyph glyph-name="nine" unicode="9" 
d="M319 -43l-14 127q243 44 399.5 174.5t202.5 329.5q-133 -105 -323 -105q-159 0 -246.5 90t-87.5 240q0 107 34 203.5t96.5 170t158 116.5t211.5 43q95 0 166 -32.5t113 -92.5t62.5 -138t20.5 -174q0 -130 -23.5 -248t-81 -235.5t-145.5 -209t-227 -161t-316 -98.5z
M414 829q0 -102 53.5 -161.5t161.5 -59.5q75 0 157.5 34t145.5 89q18 94 18 193q0 293 -219 293q-134 0 -225.5 -107.5t-91.5 -280.5z" />
    <glyph glyph-name="colon" unicode=":" horiz-adv-x="425" 
d="M109 70q0 61 40.5 101t98.5 40q49 0 76.5 -26.5t27.5 -69.5q0 -59 -40 -100.5t-99 -41.5q-51 0 -77.5 26.5t-26.5 70.5zM248 860q0 59 40.5 99t98.5 40q49 0 77 -26.5t28 -69.5q0 -59 -40.5 -100t-101.5 -41q-50 0 -76 26.5t-26 71.5z" />
    <glyph glyph-name="semicolon" unicode=";" horiz-adv-x="450" 
d="M379 150l-266 -426l-82 26q78 255 119 359q22 56 45.5 81t56.5 25q38 0 73 -20.5t54 -44.5zM279 860q0 59 41 99t98 40q50 0 77 -26t27 -70q0 -59 -39 -100t-100 -41q-50 0 -77 26.5t-27 71.5z" />
    <glyph glyph-name="less" unicode="&#x3c;" 
d="M1069 1067l43 -125l-674 -289l566 -288l-74 -121l-670 350l23 125z" />
    <glyph glyph-name="equal" unicode="=" 
d="M1071 526l-24 -133h-830l25 133h829zM1104 881l-25 -133h-829l24 133h830z" />
    <glyph glyph-name="greater" unicode="&#x3e;" 
d="M887 668l-561 284l71 117l670 -346l-23 -129l-780 -342l-45 125z" />
    <glyph glyph-name="question" unicode="?" horiz-adv-x="741" 
d="M467 864q43 28 65 43.5t57 45.5t53 55t32 60t14 73q0 72 -39 105.5t-125 33.5q-96 0 -217 -43l-8 137q139 49 272 49q147 0 214 -71t67 -181q0 -67 -20 -124t-61 -106t-89 -89t-119 -86q-45 -29 -65 -44t-43.5 -38.5t-34.5 -49t-17 -61.5l-38 -221h-136q5 87 25 211
q19 110 65 171.5t148 129.5zM137 63q0 53 41.5 92.5t93.5 39.5q45 0 73 -26.5t28 -68.5q0 -53 -40 -93t-95 -40q-46 0 -73.5 27t-27.5 69z" />
    <glyph glyph-name="at" unicode="@" horiz-adv-x="1955" 
d="M1792 713q0 110 -32.5 199.5t-98 157.5t-172.5 105t-248 37q-166 0 -309.5 -47t-249.5 -131.5t-182 -199.5t-114 -252t-38 -287q0 -266 142 -418.5t421 -152.5q203 0 367 71l20 -112q-183 -76 -413 -76q-142 0 -256.5 35t-192.5 95.5t-131 145t-76.5 181.5t-23.5 208
q0 200 52.5 371t147.5 297.5t226 216t290.5 134t338.5 44.5q308 0 488.5 -162.5t180.5 -445.5q0 -180 -46.5 -319.5t-132 -228t-201.5 -134t-259 -45.5h-76l9 119l-9 2q-109 -131 -286 -131q-77 0 -133.5 24.5t-88.5 69t-47.5 100t-15.5 123.5q0 274 147.5 440t397.5 166
q52 0 130.5 -14t151.5 -41l-127 -749q449 36 449 604zM1235 307l82 469q-62 25 -160 25q-75 0 -138 -28t-105.5 -75t-71.5 -109t-42.5 -128t-13.5 -135q0 -58 15.5 -105.5t57.5 -82t108 -34.5q97 0 173 53.5t95 149.5z" />
    <glyph glyph-name="A" unicode="A" horiz-adv-x="1243" 
d="M213 0h-172l715 1362h196l252 -1362h-166l-75 418h-531zM834 1217l-342 -666h452z" />
    <glyph glyph-name="B" unicode="B" horiz-adv-x="1165" 
d="M408 1362h411q375 0 375 -272q0 -251 -276 -355q109 -19 172 -90.5t63 -185.5q0 -218 -148.5 -338.5t-426.5 -120.5h-410zM446 659l-92 -528h246q108 0 185.5 26t118 72t58 98t17.5 115q0 103 -72.5 160t-204.5 57h-256zM549 1233l-80 -447h199q182 0 270 74.5t88 200.5
q0 99 -68.5 135.5t-195.5 36.5h-213z" />
    <glyph glyph-name="C" unicode="C" horiz-adv-x="1204" 
d="M727 113q178 0 373 151l74 -114q-213 -175 -480 -175q-230 0 -356.5 136.5t-126.5 400.5q0 188 44.5 340t115 249.5t164.5 163.5t188 93.5t190 27.5q286 0 428 -237l-122 -78q-58 86 -129.5 131t-182.5 45q-230 0 -378 -196.5t-148 -515.5q0 -211 84.5 -316.5
t261.5 -105.5z" />
    <glyph glyph-name="D" unicode="D" horiz-adv-x="1314" 
d="M168 0l240 1362h415q250 0 387.5 -131t137.5 -383q0 -175 -40.5 -318t-110.5 -240.5t-166 -163.5t-205 -96t-230 -30h-428zM547 1229l-193 -1096h262q256 0 410 188t154 510q0 398 -392 398h-241z" />
    <glyph glyph-name="E" unicode="E" horiz-adv-x="1009" 
d="M168 0l240 1362h761l-22 -141h-602l-80 -455h516l-25 -141h-516l-84 -484h615l-27 -141h-776z" />
    <glyph glyph-name="F" unicode="F" horiz-adv-x="1021" 
d="M408 1362h817l-25 -141h-655l-80 -457h543l-25 -139h-545l-108 -625h-162z" />
    <glyph glyph-name="G" unicode="G" horiz-adv-x="1267" 
d="M1270 723l-111 -629q-93 -56 -217 -87.5t-256 -31.5q-229 0 -353 135t-124 398q0 188 43 340.5t113 250.5t164.5 164.5t192 94.5t200.5 28q122 0 233.5 -57.5t183.5 -181.5l-120 -74q-117 172 -312 172q-234 0 -381 -198.5t-147 -522.5q0 -199 85.5 -306t258.5 -107
q75 0 162 23t127 50l73 402h-313l29 137h469z" />
    <glyph glyph-name="H" unicode="H" horiz-adv-x="1370" 
d="M1278 1362h164l-240 -1362h-164l113 639h-709l-112 -639h-162l240 1362h161l-100 -582h709z" />
    <glyph glyph-name="I" unicode="I" horiz-adv-x="501" 
d="M332 0h-162l240 1362h161z" />
    <glyph glyph-name="J" unicode="J" horiz-adv-x="856" 
d="M41 92l82 117q45 -42 109 -69t133 -27q105 0 154.5 54.5t66.5 154.5l182 1040h162l-191 -1077q-29 -157 -118.5 -233.5t-266.5 -76.5q-187 0 -313 117z" />
    <glyph glyph-name="K" unicode="K" horiz-adv-x="1159" 
d="M1333 1362l-485 -535l287 -827h-181l-239 694l-326 -346l-61 -348h-160l240 1362h159l-139 -782l721 782h184z" />
    <glyph glyph-name="L" unicode="L" horiz-adv-x="997" 
d="M170 0l240 1362h163l-215 -1223h607l-25 -139h-770z" />
    <glyph glyph-name="M" unicode="M" horiz-adv-x="1681" 
d="M895 348l586 1014h205l-166 -1362h-156l139 1130l-571 -964h-137l-215 971l-263 -1137h-155l319 1362h197z" />
    <glyph glyph-name="N" unicode="N" horiz-adv-x="1368" 
d="M1280 1362h160l-240 -1362h-176l-496 1143l-198 -1143h-162l240 1362h190l485 -1129z" />
    <glyph glyph-name="O" unicode="O" horiz-adv-x="1353" 
d="M1364 651q-29 -176 -92 -307.5t-154 -211.5t-201 -118.5t-241 -38.5q-226 0 -346.5 129.5t-120.5 372.5q0 112 20 223q27 153 80.5 273t121 196.5t152.5 126t169 70t176 20.5q98 0 180 -31.5t143.5 -93t96 -159.5t34.5 -225q0 -103 -18 -226zM395 694q-18 -119 -18 -207
q0 -58 9.5 -109.5t33 -101t60.5 -85t95 -57t132 -21.5q108 0 194.5 43t144.5 120t95 173t55 213q14 100 14 192q0 59 -8.5 112.5t-30.5 106t-55.5 90t-87.5 61t-123 23.5q-108 0 -198 -45t-151.5 -123.5t-101.5 -175.5t-59 -209z" />
    <glyph glyph-name="P" unicode="P" horiz-adv-x="1157" 
d="M418 500l-88 -500h-162l240 1362h430q191 0 300 -88.5t109 -251.5q0 -250 -160 -386t-425 -136h-244zM442 633h205q95 0 171 20.5t134.5 63.5t90.5 115.5t32 171.5q0 60 -18.5 102t-46 65.5t-74 37t-88.5 17t-103 3.5h-198z" />
    <glyph glyph-name="Q" unicode="Q" horiz-adv-x="1329" 
d="M408 868q0 -113 52.5 -179.5t180.5 -113.5l-49 -98q-51 11 -96.5 28t-92 47.5t-79 70t-53.5 99.5t-21 132q0 226 171.5 379t434.5 153q104 0 190 -31t151 -91.5t101.5 -159t36.5 -225.5q0 -207 -79.5 -402t-215.5 -336q91 -100 158 -155t157.5 -95t215.5 -61l-60 -129
q-183 27 -315 103.5t-272 224.5q-112 -101 -218.5 -143t-236.5 -42q-145 0 -218 68t-73 164q0 144 93.5 219.5t252.5 75.5q197 0 391 -142q110 117 179 285.5t69 343.5q0 391 -332 391q-186 0 -304.5 -110t-118.5 -271zM815 125q-149 113 -289 113q-83 0 -135.5 -37.5
t-52.5 -108.5q0 -53 38.5 -86t112.5 -33q91 0 165.5 37t160.5 115z" />
    <glyph glyph-name="R" unicode="R" horiz-adv-x="1198" 
d="M430 561l-100 -561h-162l240 1362h432q405 0 405 -313q0 -97 -29.5 -174.5t-80.5 -127t-106 -79.5t-118 -47q46 -17 68 -46.5t41 -97.5l137 -477h-172l-125 430q-19 67 -47.5 99t-87.5 32h-295zM451 688h266q162 0 261 90t99 244q0 54 -16.5 92t-43.5 60.5t-74.5 34.5
t-96 16t-121.5 4h-178z" />
    <glyph glyph-name="S" unicode="S" horiz-adv-x="1089" 
d="M123 117l86 129q61 -47 153.5 -88t200.5 -41q48 0 90.5 6t87.5 23.5t77 45t52.5 74t20.5 107.5q0 32 -8.5 59.5t-19.5 48t-35 40.5t-42 32.5t-54.5 29.5t-57.5 26t-66 26q-48 19 -79 33t-73.5 37t-69.5 48t-52.5 58.5t-38 77.5t-12.5 96q0 186 131 293.5t352 107.5
q138 0 251 -55t179 -133l-106 -104q-148 151 -332 151q-54 0 -103 -11t-95 -35t-73.5 -71t-27.5 -112q0 -43 14.5 -78t38 -59.5t59 -46.5t69.5 -37.5t78 -33.5q9 -3 13 -5q45 -19 69 -29.5t65.5 -32t64.5 -39.5t52.5 -47t45 -59t26.5 -71.5t11 -88.5q0 -190 -133 -302
t-371 -112q-141 0 -264 46.5t-174 95.5z" />
    <glyph glyph-name="T" unicode="T" horiz-adv-x="1058" 
d="M279 1362h983l-25 -141h-414l-217 -1221h-162l218 1221h-408z" />
    <glyph glyph-name="U" unicode="U" horiz-adv-x="1288" 
d="M397 1362h162l-166 -938q-8 -66 -8 -90q0 -120 72.5 -170.5t212.5 -50.5q158 0 250.5 72t119.5 229l168 948h162l-172 -977q-36 -206 -175.5 -308t-365.5 -102q-217 0 -326.5 80t-109.5 250q0 66 10 117z" />
    <glyph glyph-name="V" unicode="V" horiz-adv-x="1161" 
d="M670 0h-176l-222 1362h164l176 -1169h2l584 1169h170z" />
    <glyph glyph-name="W" unicode="W" horiz-adv-x="1660" 
d="M1090 0l-82 1014l-435 -1014h-206l-68 1362h158l49 -1172l450 1059h185l78 -1052l458 1165h164l-549 -1362h-202z" />
    <glyph glyph-name="X" unicode="X" horiz-adv-x="1179" 
d="M1157 1362h199l-541 -645l361 -717h-183l-299 586l-487 -586h-203l606 725l-307 637h191l239 -520z" />
    <glyph glyph-name="Y" unicode="Y" horiz-adv-x="1077" 
d="M1118 1362h185l-590 -844l-92 -518h-162l90 518l-297 844h174l227 -682z" />
    <glyph glyph-name="Z" unicode="Z" horiz-adv-x="999" 
d="M1139 1229l-869 -1098h699l-25 -131h-878l22 131l868 1100h-659l20 131h844z" />
    <glyph glyph-name="bracketleft" unicode="[" horiz-adv-x="608" 
d="M143 -317l312 1757h383l-23 -123h-231l-267 -1512h232l-21 -122h-385z" />
    <glyph glyph-name="backslash" unicode="\" horiz-adv-x="819" 
d="M254 1477l154 41l376 -1668l-151 -36z" />
    <glyph glyph-name="bracketright" unicode="]" horiz-adv-x="608" 
d="M664 1440l-312 -1757h-383l21 122h231l266 1512h-231l23 123h385z" />
    <glyph glyph-name="asciicircum" unicode="^" 
d="M1108 627l-139 -23l-199 604l-414 -606l-143 27l506 731h145z" />
    <glyph glyph-name="underscore" unicode="_" horiz-adv-x="1024" 
d="M-49 -270l22 118h1024l-22 -118h-1024z" />
    <glyph glyph-name="grave" unicode="`" horiz-adv-x="1024" 
d="M739 1569l166 -371l-63 -41q-166 193 -203 242q-31 50 -31 80q0 21 10.5 36.5t33 26t40 15.5t47.5 12z" />
    <glyph glyph-name="a" unicode="a" 
d="M1120 981l-141 -803l-14 -178h-144l10 121q-1 0 -4 1t-4 1q-64 -74 -136.5 -112t-174.5 -38q-164 0 -255 93t-91 274q0 207 69.5 365t209 250t331.5 92q72 0 166.5 -16t177.5 -50zM850 340l96 549q-64 33 -194 33q-96 0 -172.5 -37.5t-123 -96t-77 -136t-42 -150
t-11.5 -146.5q0 -53 10.5 -98t34 -83.5t67 -60.5t103.5 -22q123 0 205 72.5t104 175.5z" />
    <glyph glyph-name="b" unicode="b" horiz-adv-x="1091" 
d="M160 61l243 1362h160l-90 -497q130 121 303 121q160 0 246 -101t86 -284q0 -324 -149.5 -507.5t-421.5 -183.5q-102 0 -211 26t-166 64zM438 721l-102 -578q105 -51 217 -51q56 0 110 18t105.5 60t90 103.5t62 155t23.5 208.5q0 41 -6 79t-22.5 76.5t-41 67t-66 46.5
t-93.5 18q-98 0 -180 -58t-97 -145z" />
    <glyph glyph-name="c" unicode="c" horiz-adv-x="923" 
d="M584 102q136 0 266 93l57 -111q-60 -48 -158 -81.5t-200 -33.5q-183 0 -279 111t-96 309q0 147 35.5 264.5t91 189t129 119.5t144 66.5t141.5 18.5q103 0 194 -45.5t140 -143.5l-117 -76q-41 69 -95.5 101t-129.5 32q-160 0 -264.5 -133t-104.5 -374q0 -142 60.5 -224
t185.5 -82z" />
    <glyph glyph-name="d" unicode="d" horiz-adv-x="1097" 
d="M756 1047q102 0 211 -37l75 413h158l-219 -1239l-16 -184h-144l8 123l-8 2q-135 -156 -325 -156q-87 0 -152 30t-102.5 83.5t-55.5 121t-18 148.5q0 202 68.5 358t203 246.5t316.5 90.5zM850 332l94 547q-73 39 -174 39q-109 0 -194.5 -43t-138.5 -118t-80 -172.5
t-27 -211.5q0 -125 50 -202t161 -77q120 0 206.5 72.5t102.5 165.5z" />
    <glyph glyph-name="e" unicode="e" horiz-adv-x="946" 
d="M862 801q0 59 -35.5 92t-101.5 33q-77 0 -143.5 -35t-110.5 -92t-73 -118.5t-42 -125.5h37q51 0 104.5 5t121.5 21t119.5 41.5t87.5 72t36 106.5zM750 1047q127 0 197.5 -59.5t70.5 -160.5q0 -69 -24 -127t-62.5 -97t-93 -69t-110 -47.5t-119.5 -28.5t-115 -14.5
t-103 -3.5q-11 0 -29 1t-26 1q-4 -50 -4 -69q0 -57 12.5 -104t40 -86.5t77 -62t116.5 -22.5q129 0 270 90q5 3 8 5l53 -109q-59 -44 -153 -78.5t-205 -34.5q-192 0 -284.5 108t-92.5 296q0 134 41 256t114.5 214.5t182.5 147t238 54.5z" />
    <glyph glyph-name="f" unicode="f" horiz-adv-x="641" 
d="M467 881l-231 -1311h-160l272 1544q11 59 24 102t41 91.5t66.5 79t102 51t145.5 20.5q66 0 136.5 -19t109.5 -44l-60 -111q-85 47 -192 47q-98 0 -144 -49t-67 -164l-18 -100h321l-25 -137h-321z" />
    <glyph glyph-name="g" unicode="g" horiz-adv-x="1097" 
d="M426 -539q-137 0 -209 64.5t-72 175.5q0 74 24 133.5t72.5 105.5t106 80t139.5 68q-64 5 -116 25t-96.5 59.5t-69.5 109t-25 164.5q0 142 43.5 256.5t120 189.5t180.5 115t226 40q91 0 195.5 -18.5t178.5 -51.5l-135 -768q-29 -180 -55 -281q-58 -235 -182 -351
t-326 -116zM870 432l80 461q-85 33 -221 33q-55 0 -108 -16t-104.5 -53.5t-90.5 -92.5t-62.5 -140t-23.5 -188q0 -50 10.5 -91.5t34.5 -80t70.5 -60.5t111.5 -22q110 0 196 68.5t107 181.5zM299 -279q0 -137 156 -137q61 0 111 21.5t86 58.5t64 91.5t45.5 113t31.5 131.5
l30 164q-39 -45 -99 -82t-149 -78q-52 -25 -84.5 -42t-72.5 -44.5t-63 -54t-39 -63.5t-17 -79z" />
    <glyph glyph-name="h" unicode="h" horiz-adv-x="1101" 
d="M309 0h-159l251 1423h160l-94 -530q70 78 159 116t181 38q134 0 203 -62.5t69 -185.5q0 -53 -10 -121l-121 -678h-160l115 651q10 58 10 109q0 79 -34.5 119.5t-122.5 40.5q-119 0 -215.5 -78t-114.5 -174z" />
    <glyph glyph-name="i" unicode="i" horiz-adv-x="460" 
d="M313 0h-159l180 1018h160zM356 1290q0 52 37 88.5t90 36.5q39 0 63.5 -25.5t24.5 -64.5q0 -53 -37.5 -89t-89.5 -36q-41 0 -64.5 25t-23.5 65z" />
    <glyph glyph-name="j" unicode="j" horiz-adv-x="460" 
d="M133 -123l201 1141h160l-197 -1106q-9 -52 -15 -83t-19 -75.5t-27.5 -70.5t-39 -56t-55.5 -46t-75 -27t-99 -11q-57 0 -128 19t-109 47l65 115q79 -50 164 -50q73 0 113 44.5t61 158.5zM360 1290q0 52 37 88.5t90 36.5q39 0 63.5 -25.5t24.5 -64.5q0 -53 -37 -89t-89 -36
q-41 0 -65 25t-24 65z" />
    <glyph glyph-name="k" unicode="k" horiz-adv-x="1013" 
d="M1069 819q0 -133 -74 -243.5t-235 -178.5l151 -397h-166l-137 356q-105 -24 -241 -30l-56 -326h-159l249 1423h160l-117 -663q60 124 164 205.5t234 81.5q104 0 165.5 -62t61.5 -166zM389 453q249 17 382.5 108t133.5 238q0 53 -25.5 83.5t-72.5 30.5q-75 0 -162.5 -72.5
t-156 -178.5t-99.5 -209z" />
    <glyph glyph-name="l" unicode="l" horiz-adv-x="618" 
d="M403 1421h160l-196 -1112q-2 -15 -6 -41.5t-6.5 -44t-2.5 -30.5q0 -56 24.5 -76.5t82.5 -20.5q51 0 143 37l25 -113q-37 -22 -97.5 -35.5t-123.5 -13.5q-118 0 -167 49.5t-49 147.5q0 45 15 133z" />
    <glyph glyph-name="m" unicode="m" horiz-adv-x="1697" 
d="M315 0h-159l151 864l12 154h136l-9 -146q70 84 160.5 129.5t184.5 45.5q213 0 260 -189q63 91 156.5 140t193.5 49q134 0 203 -67t69 -194q0 -52 -10 -110l-119 -676h-160l113 643q12 74 12 107q0 80 -35.5 125t-121.5 45q-110 0 -198.5 -79t-106.5 -177l-117 -664h-160
l115 641q10 52 10 117q0 162 -160 162q-113 0 -201 -80.5t-106 -182.5z" />
    <glyph glyph-name="n" unicode="n" horiz-adv-x="1105" 
d="M311 0h-159l153 864l14 154h140l-8 -148q73 86 166.5 131.5t193.5 45.5q271 0 274 -250q0 -49 -12 -123l-121 -674h-159l112 645q10 65 10 115q0 160 -153 160q-122 0 -219 -78t-113 -174z" />
    <glyph glyph-name="o" unicode="o" horiz-adv-x="1071" 
d="M545 94q142 0 233 106t121 289q12 68 12 166q0 125 -52 196t-161 71q-142 0 -233.5 -104t-120.5 -281q-14 -80 -14 -177q0 -266 215 -266zM184 535q21 122 65.5 215.5t97.5 148.5t120 89.5t126.5 46.5t123.5 12q45 0 88 -8t94 -32.5t88.5 -63.5t62.5 -108t25 -159
q0 -99 -10 -158q-86 -547 -541 -547q-169 0 -262.5 98t-93.5 283q0 99 16 183z" />
    <glyph glyph-name="p" unicode="p" horiz-adv-x="1085" 
d="M322 53l-86 -483h-160l248 1415q227 62 383 62q198 0 292.5 -102t94.5 -306q0 -301 -139.5 -484.5t-374.5 -183.5q-72 0 -142.5 23.5t-115.5 58.5zM467 887l-123 -694q35 -36 102.5 -65.5t131.5 -29.5q70 0 132 32.5t112.5 95.5t80 169t29.5 242q0 283 -246 283
q-122 0 -219 -33z" />
    <glyph glyph-name="q" unicode="q" horiz-adv-x="1083" 
d="M1108 975l-248 -1405h-160l95 532h-7q-67 -65 -139.5 -98t-173.5 -33q-150 0 -228.5 98t-78.5 285q0 322 158 507.5t432 185.5q183 0 350 -72zM829 301l103 590q-73 29 -160 29q-114 0 -200 -42.5t-139 -120t-79 -179.5t-26 -226q0 -51 9 -94t29.5 -82t61.5 -61.5
t98 -22.5q117 0 204 69.5t99 139.5z" />
    <glyph glyph-name="r" unicode="r" horiz-adv-x="710" 
d="M428 655l-115 -655h-159l155 879l10 139h140l-10 -154q41 84 114.5 133.5t165.5 49.5q100 0 162 -43l-62 -127q-56 32 -129 32q-96 0 -172 -74t-100 -180z" />
    <glyph glyph-name="s" unicode="s" horiz-adv-x="829" 
d="M76 74l71 112q130 -92 273 -92q104 0 170.5 46.5t66.5 138.5q0 70 -44 106.5t-140 67.5q-35 11 -55.5 18.5t-53 21.5t-52 27.5t-42.5 35t-36 46t-22 58t-9 73.5q0 147 107.5 230.5t269.5 83.5q106 0 194.5 -43t136.5 -105l-92 -86q-99 111 -244 111q-94 0 -154.5 -42
t-60.5 -124q0 -42 13 -71.5t49.5 -52.5t59 -33t83.5 -32q7 -3 10 -4q55 -20 91.5 -38.5t74 -48.5t56 -74t18.5 -101q0 -161 -105 -246.5t-292 -85.5q-116 0 -210 33t-132 70z" />
    <glyph glyph-name="t" unicode="t" horiz-adv-x="681" 
d="M403 1423h160l-71 -405h292l-24 -137h-293l-107 -607q-8 -50 -8 -77q1 -60 28 -79.5t85 -19.5q76 0 172 52l43 -111q-46 -31 -117 -49.5t-135 -18.5q-234 0 -238 183q0 51 13 127z" />
    <glyph glyph-name="u" unicode="u" horiz-adv-x="1099" 
d="M969 1018h159l-151 -868l-14 -150h-142l6 139q-143 -168 -352 -168q-278 0 -278 250q0 55 10 113l123 684h159l-116 -651q-11 -68 -11 -117q0 -78 38 -115t139 -37q105 0 199.5 78.5t113.5 179.5z" />
    <glyph glyph-name="v" unicode="v" horiz-adv-x="1052" 
d="M899 1018h160q12 -122 12 -238q0 -181 -37 -328.5t-109 -255t-184 -166.5t-256 -59q-284 0 -284 252q0 67 8 119l121 676h159l-112 -633q-17 -100 -17 -135q0 -71 33.5 -110.5t118.5 -39.5q98 0 176 57t125 152t71.5 210.5t24.5 240.5q0 106 -10 258z" />
    <glyph glyph-name="w" unicode="w" horiz-adv-x="1617" 
d="M1462 1018h158q16 -181 16 -256q0 -126 -19.5 -240t-62 -215.5t-105 -175.5t-154.5 -117t-205 -43q-114 0 -178 53t-70 144q-127 -197 -369 -197q-276 0 -276 246q0 51 8 98l125 703h159l-110 -621q-19 -101 -19 -153q0 -70 34 -108t120 -38q110 0 194.5 75.5
t102.5 176.5l117 668h159l-112 -629q-17 -100 -17 -139q0 -72 34 -112t116 -40q88 0 160 55t117.5 147.5t69.5 208t24 241.5q0 119 -17 268z" />
    <glyph glyph-name="x" unicode="x" horiz-adv-x="909" 
d="M885 1018h174l-418 -483l258 -535h-162l-200 416l-351 -416h-176l455 537l-232 481h162l174 -377z" />
    <glyph glyph-name="y" unicode="y" horiz-adv-x="1093" 
d="M1126 1018l-172 -975q-33 -188 -73 -285q-60 -154 -169 -228.5t-276 -74.5q-135 0 -208.5 63t-73.5 171q0 132 74.5 218t222.5 161q-121 14 -180.5 71t-59.5 168q0 48 8 92l111 619h159l-102 -584q-14 -72 -14 -115q0 -74 42.5 -112.5t153.5 -38.5q102 0 187.5 68
t103.5 172l109 610h157zM309 -287q0 -135 152 -135q246 0 319 377l39 211q-47 -50 -100 -83.5t-148 -80.5q-91 -45 -143.5 -81.5t-85.5 -89t-33 -118.5z" />
    <glyph glyph-name="z" unicode="z" horiz-adv-x="811" 
d="M131 -252q0 -75 38 -120.5t120 -45.5q95 0 166 52.5t105 133.5t34 175q0 151 -100 221q-96 -42 -168.5 -94.5t-113.5 -107.5t-61 -108.5t-20 -105.5zM938 1018l-23 -125l-550 -490l127 -65q139 -71 199.5 -160.5t60.5 -214.5q0 -142 -57 -256.5t-167 -182t-256 -67.5
q-148 0 -222.5 73t-74.5 196q0 318 406 510q-91 45 -180 90l20 118l502 445h-520l24 129h711z" />
    <glyph glyph-name="braceleft" unicode="{" horiz-adv-x="604" 
d="M358 575q93 -39 93 -159q0 -74 -52.5 -284.5t-52.5 -244.5q0 -94 86 -94q29 0 84 10l-2 -108q-75 -21 -141 -21q-178 0 -178 170q0 79 46.5 262.5t53.5 264.5q6 71 -14.5 108t-77.5 49l16 99q88 19 123.5 70t48.5 182l27 247q8 85 20 136q40 190 238 190q74 0 145 -22
l-35 -107q-46 12 -81 12q-66 0 -91 -30.5t-36 -116.5q-41 -326 -46 -361q-16 -113 -51.5 -167.5t-122.5 -84.5z" />
    <glyph glyph-name="bar" unicode="|" horiz-adv-x="460" 
d="M123 -180l303 1710h152l-304 -1710h-151z" />
    <glyph glyph-name="braceright" unicode="}" horiz-adv-x="604" 
d="M451 575q-95 50 -95 166q0 81 49.5 275.5t49.5 228.5q0 47 -19 68.5t-67 21.5q-35 0 -84 -12l2 111q77 18 141 18q91 0 135.5 -34t44.5 -111q0 -94 -49 -289t-49 -248q0 -75 18.5 -104t75.5 -39l-16 -101q-86 -18 -121 -72.5t-47 -177.5q-6 -64 -21.5 -185t-17.5 -136
q-8 -60 -16.5 -98.5t-25.5 -76.5t-43 -59t-67.5 -34t-99.5 -13q-74 0 -143 25l32 108q54 -14 86 -14q61 0 86.5 36.5t40.5 121.5q8 51 23 198t22 189q21 114 55.5 162t119.5 75z" />
    <glyph glyph-name="asciitilde" unicode="~" horiz-adv-x="1179" 
d="M868 453q-52 0 -105 25t-88 54.5t-78 54.5t-79 25q-81 0 -180 -131l-92 72q130 188 282 188q45 0 86.5 -16.5t73.5 -40.5t61.5 -47.5t62.5 -40t65 -16.5q92 0 172 127l96 -68q-112 -186 -277 -186z" />
    <glyph glyph-name="uni00A0" unicode="&#xa0;" horiz-adv-x="407" 
 />
    <glyph glyph-name="exclamdown" unicode="&#xa1;" horiz-adv-x="536" 
d="M352 -72l-47 -264q-15 -74 -96 -74q-50 0 -64.5 20.5t-7.5 57.5l47 260l162 736h100zM563 950q0 -53 -41.5 -92t-93.5 -39q-45 0 -72.5 26t-27.5 68q0 53 40 93.5t95 40.5q46 0 73 -27.5t27 -69.5z" />
    <glyph glyph-name="cent" unicode="&#xa2;" 
d="M535 -123l38 229q-146 23 -221.5 130.5t-75.5 283.5q0 136 30.5 246.5t78.5 182t113.5 122t130 74.5t133.5 31l41 227h133l-41 -232q182 -33 256 -182l-117 -76q-64 107 -162 127l-141 -804q115 13 221 90l58 -111q-53 -41 -134 -72.5t-169 -40.5l-39 -225h-133zM440 539
q0 -243 158 -293l139 792q-132 -29 -214.5 -158.5t-82.5 -340.5z" />
    <glyph glyph-name="sterling" unicode="&#xa3;" horiz-adv-x="1085" 
d="M115 319l22 123h232l209 539q43 112 93 186t107 112t113 52.5t129 14.5q152 0 274 -103l-90 -102q-89 73 -190 73q-110 0 -170.5 -59t-118.5 -207l-199 -506h363l-21 -120h-385l-88 -218q-40 -100 -90 -163.5t-125 -108.5v-4q90 22 144 22q63 0 178 -26.5t198 -26.5
q104 0 220 27l-39 -133q-126 -21 -207 -21q-100 0 -238.5 29t-222.5 29q-53 0 -126 -14t-130 -38l23 148q86 39 147 101.5t102 164.5l95 229h-209z" />
    <glyph glyph-name="yen" unicode="&#xa5;" horiz-adv-x="1064" 
d="M520 334h-348l23 117h348l28 176h-346l21 114h282l-217 578h164l199 -559l385 559h174l-416 -578h277l-21 -114h-342l-31 -176h342l-20 -117h-342l-59 -334h-158z" />
    <glyph glyph-name="brokenbar" unicode="&#xa6;" horiz-adv-x="464" 
d="M301 821l125 709h154l-125 -709h-154zM123 -180l135 764h154l-136 -764h-153z" />
    <glyph glyph-name="section" unicode="&#xa7;" horiz-adv-x="1112" 
d="M283 766l137 12q-19 -93 -19 -198q0 -71 21.5 -120t56.5 -79t101 -68q63 -36 102.5 -61t81 -60.5t64 -70.5t37 -82.5t14.5 -104.5q0 -170 -112 -265t-288 -95q-100 0 -180.5 26.5t-128.5 57.5l63 111q40 -27 107.5 -48.5t126.5 -21.5q115 0 186.5 53.5t71.5 171.5
q0 48 -14 85t-46.5 69.5t-73.5 59t-108 61.5q-118 62 -174.5 137.5t-56.5 200.5q0 99 31 229zM993 162l-137 -12q18 88 18 186q0 105 -41 164t-137 114q-78 44 -126 77.5t-91 78t-62.5 98t-19.5 121.5q0 174 118.5 269.5t297.5 95.5q89 0 167.5 -26.5t125.5 -57.5l-64 -111
q-40 27 -108 48.5t-127 21.5q-51 0 -95.5 -12t-81.5 -36.5t-58 -67.5t-21 -101q0 -63 29.5 -110.5t65.5 -75t125 -83.5q14 -9 22 -14q57 -36 92 -64t70.5 -68.5t52 -91t16.5 -114.5q0 -99 -31 -229z" />
    <glyph glyph-name="dieresis" unicode="&#xa8;" horiz-adv-x="1024" 
d="M465 1319q0 51 37 87t90 36q39 0 63.5 -25.5t24.5 -64.5q0 -52 -37.5 -87.5t-89.5 -35.5q-41 0 -64.5 25t-23.5 65zM829 1319q0 51 37 87t90 36q40 0 65.5 -26t25.5 -64q0 -52 -38.5 -87.5t-90.5 -35.5q-40 0 -64.5 25t-24.5 65z" />
    <glyph glyph-name="copyright" unicode="&#xa9;" horiz-adv-x="1665" 
d="M1655 680q0 -203 -91 -367.5t-256 -259t-372 -94.5q-213 0 -373 91t-243.5 251t-83.5 367q0 148 52 280t143 228t222.5 152t282.5 56q156 0 291 -56t228 -151t146.5 -224t53.5 -273zM1528 674q0 169 -77 306.5t-212 215.5t-301 78q-169 0 -301 -80t-203.5 -218
t-71.5 -308q0 -271 160.5 -434.5t415.5 -163.5q168 0 303 78t211 216t76 310zM950 373q116 0 209 80l64 -80q-123 -107 -273 -107q-177 0 -269.5 110t-92.5 302q0 91 23 163.5t59 117t84 74t94.5 41t93.5 11.5q81 0 165 -41t132 -116l-86 -62q-102 113 -209 113
q-108 0 -170.5 -73.5t-62.5 -225.5q0 -307 239 -307z" />
    <glyph glyph-name="ordfeminine" unicode="&#xaa;" horiz-adv-x="823" 
d="M918 1202l-93 -514l-6 -149h-129l2 79h-8q-97 -94 -213 -94q-114 0 -169.5 73t-55.5 189q0 205 112 333t308 128q135 0 252 -45zM696 741l68 381q-48 19 -119 19q-63 0 -114 -30t-81.5 -79t-46.5 -107t-16 -118q0 -81 33 -128.5t100 -47.5t119 37t57 73z" />
    <glyph glyph-name="guillemotleft" unicode="&#xab;" horiz-adv-x="1007" 
d="M707 821l-334 -289l198 -329l-77 -62q-67 68 -151 172t-118 162q-18 30 -18 62q0 38 57 86q105 86 379 276zM1083 821l-333 -289l198 -329l-78 -62q-66 68 -150 171.5t-118 162.5q-18 30 -18 62q0 38 57 86q105 86 379 276z" />
    <glyph glyph-name="logicalnot" unicode="&#xac;" 
d="M918 406l49 284h-738l25 137h879l-74 -421h-141z" />
    <glyph glyph-name="uni00AD" unicode="&#xad;" horiz-adv-x="659" 
d="M197 539l22 135h455l-23 -135h-454z" />
    <glyph glyph-name="registered" unicode="&#xae;" horiz-adv-x="948" 
d="M741 963l78 -170h-88l-65 145q-12 29 -33 29h-68v-174h-76v432h160q64 0 100.5 -30t36.5 -85q0 -88 -71 -117q17 -7 26 -30zM565 1032h64q73 0 73 70q0 59 -86 59h-51v-129zM1024 1008q0 -169 -111 -277t-286 -108q-177 0 -282 106t-105 275q0 165 109 273.5t278 108.5
q173 0 285 -108t112 -270zM934 1004q0 133 -86.5 219t-220.5 86t-214.5 -85t-80.5 -220t83 -219.5t212 -84.5q136 0 221.5 83.5t85.5 220.5z" />
    <glyph glyph-name="macron" unicode="&#xaf;" horiz-adv-x="1024" 
d="M461 1268l24 133h535l-25 -133h-534z" />
    <glyph glyph-name="degree" unicode="&#xb0;" horiz-adv-x="610" 
d="M295 1178q0 112 75 189t189 77q88 0 136 -51t48 -129q0 -112 -75 -189.5t-193 -77.5q-87 0 -133.5 50t-46.5 131zM406 1190q0 -45 23 -71.5t69 -26.5q64 0 100.5 44.5t36.5 112.5q0 45 -23.5 73t-68.5 28q-69 0 -103 -45.5t-34 -114.5z" />
    <glyph glyph-name="plusminus" unicode="&#xb1;" 
d="M596 723l59 340h146l-60 -340h349l-23 -137h-350l-60 -334h349l-23 -137h-829l22 137h336l59 334h-333l22 137h336z" />
    <glyph glyph-name="twosuperior" unicode="&#xb2;" horiz-adv-x="772" 
d="M401 1317l-49 90q79 49 152 75.5t158 26.5q99 0 151.5 -51.5t52.5 -126.5q0 -70 -31 -126.5t-114 -133.5l-283 -262h369l-21 -111h-534l16 97l318 295q76 70 108.5 118t32.5 101q0 43 -27 65.5t-73 22.5q-92 0 -226 -80z" />
    <glyph glyph-name="threesuperior" unicode="&#xb3;" horiz-adv-x="772" 
d="M408 1341l-39 89q163 79 288 79q96 0 148.5 -47.5t52.5 -122.5q0 -122 -127 -200q62 -120 62 -207q0 -104 -74 -174t-230 -70q-67 0 -138 18.5t-107 41.5l51 98q93 -51 194 -51q83 0 129 35t46 102q0 55 -46 153q-74 -26 -174 -49l-22 97q61 14 127 32q46 16 70 26
t52.5 27.5t41 40.5t12.5 54q0 90 -102 90q-67 0 -215 -62z" />
    <glyph glyph-name="acute" unicode="&#xb4;" horiz-adv-x="1024" 
d="M528 1208l279 359q115 -28 115 -82q0 -35 -64 -96q-47 -46 -272 -232z" />
    <glyph glyph-name="mu" unicode="&#xb5;" horiz-adv-x="1204" 
d="M1200 1018l-149 -852q-7 -39 3.5 -54.5t37.5 -15.5q38 0 92 31l24 -100q-84 -50 -176 -50q-143 0 -139 154q-124 -162 -313 -162q-89 0 -150.5 35.5t-87.5 87.5l-92 -534h-150l258 1460h152l-109 -627q-25 -134 22.5 -213.5t174.5 -79.5q125 0 220.5 93t121.5 239
l104 588h156z" />
    <glyph glyph-name="paragraph" unicode="&#xb6;" horiz-adv-x="1011" 
d="M707 106l200 1133h-153l-140 -790q-152 6 -245 97t-93 253q0 266 152.5 414.5t423.5 148.5h233l-206 -1176q-17 -96 -33.5 -161t-45 -129.5t-66.5 -108t-95.5 -83t-134.5 -68t-182 -52.5l-25 133q111 28 183.5 61.5t118.5 81.5t69.5 105t38.5 141z" />
    <glyph glyph-name="periodcentered" unicode="&#xb7;" horiz-adv-x="622" 
d="M301 608q0 59 40.5 99.5t98.5 40.5q50 0 77.5 -26.5t27.5 -70.5q0 -59 -40 -100t-99 -41q-51 0 -78 26.5t-27 71.5z" />
    <glyph glyph-name="cedilla" unicode="&#xb8;" horiz-adv-x="1024" 
d="M436 6h99l-76 -153q69 -5 112 -42t43 -102t-36.5 -109.5t-89 -62.5t-115.5 -18q-105 0 -172 39l43 86q65 -27 129 -27q60 0 89.5 23.5t29.5 60.5q0 44 -39 62t-129 16z" />
    <glyph glyph-name="onesuperior" unicode="&#xb9;" horiz-adv-x="772" 
d="M338 807h158l98 549l-199 -84l-28 90l266 135h131l-33 -121l-100 -569h151l-20 -109h-445z" />
    <glyph glyph-name="ordmasculine" unicode="&#xba;" horiz-adv-x="817" 
d="M516 633q88 0 147 65.5t78 182.5q9 53 9 98q0 166 -146 166q-85 0 -139.5 -68t-71.5 -162q-10 -65 -10 -108q0 -174 133 -174zM250 901q63 350 385 350q111 0 182.5 -66.5t71.5 -195.5q0 -45 -6 -94q-25 -183 -128 -277t-251 -94q-130 0 -196 73.5t-66 197.5q0 62 8 106z
" />
    <glyph glyph-name="guillemotright" unicode="&#xbb;" horiz-adv-x="1007" 
d="M451 549l-224 287l74 65q173 -156 277 -274q3 -3 10 -11.5t9 -12t7 -10.5t7 -12.5t3.5 -13.5t1.5 -16q0 -30 -43 -76q-50 -55 -171 -158.5t-216 -175.5l-61 72zM827 549l-223 287l74 65q169 -152 276 -274q3 -3 11.5 -13.5t11.5 -14.5t8 -12.5t6.5 -17t1.5 -18.5
q0 -30 -43 -76q-50 -55 -171 -158.5t-216 -175.5l-61 72z" />
    <glyph glyph-name="onequarter" unicode="&#xbc;" horiz-adv-x="1638" 
d="M225 643h158l98 549l-198 -84l-29 90l266 135h131l-33 -121l-100 -569h152l-21 -108h-444zM614 -8l-110 57l825 1284l115 -53zM1495 516h80l-41 -231h139l-16 -109h-139l-33 -176h-133l32 180h-342l17 96l346 539l104 -47l-311 -483h211l21 84z" />
    <glyph glyph-name="onehalf" unicode="&#xbd;" horiz-adv-x="1638" 
d="M236 643h157l99 549l-199 -84l-29 90l266 135h132l-33 -121l-101 -569h152l-21 -108h-444zM596 -8l-111 57l826 1284l114 -53zM1221 618l-50 91q79 49 152 75.5t158 26.5q99 0 152 -52t53 -126q0 -70 -31 -126.5t-115 -133.5l-283 -262h369l-20 -111h-535l16 96l318 295
q76 70 108.5 118t32.5 101q0 43 -27 65.5t-73 22.5q-91 0 -225 -80z" />
    <glyph glyph-name="threequarters" unicode="&#xbe;" horiz-adv-x="1638" 
d="M315 1178l-39 88q165 80 289 80q96 0 148.5 -47.5t52.5 -122.5q0 -123 -127 -201q61 -119 61 -207q0 -49 -16.5 -91t-51 -77.5t-94.5 -55.5t-141 -20q-67 0 -138 18.5t-107 41.5l51 98q93 -51 194 -51q83 0 128.5 35t45.5 102q0 59 -45 154q-82 -29 -174 -50l-22 97
q61 14 127 32q46 16 70 26t52.5 27.5t41 40.5t12.5 54q0 90 -103 90q-69 0 -215 -61zM612 -8l-110 57l825 1284l115 -53zM1495 516h80l-41 -231h139l-16 -109h-139l-33 -176h-133l32 180h-342l17 96l346 539l104 -47l-311 -483h211l21 84z" />
    <glyph glyph-name="questiondown" unicode="&#xbf;" horiz-adv-x="739" 
d="M438 150q-43 -28 -65 -43.5t-57 -45.5t-53 -55t-32 -60t-14 -73q0 -72 39 -105.5t125 -33.5q96 0 217 43l8 -137q-141 -50 -272 -50q-147 0 -214 71t-67 181q0 67 20 124t61 106.5t89 89.5t119 86q37 24 53 35.5t39 30.5t33.5 35t20 39t14.5 52l39 222h135
q-5 -87 -25 -211q-19 -110 -65 -171.5t-148 -129.5zM768 950q0 -53 -41.5 -92t-93.5 -39q-45 0 -73 26t-28 68q0 53 40.5 93.5t95.5 40.5q46 0 73 -27.5t27 -69.5z" />
    <glyph glyph-name="Agrave" unicode="&#xc0;" horiz-adv-x="1243" 
d="M213 0h-172l715 1362h196l252 -1362h-166l-75 418h-531zM834 1217l-342 -666h452zM758 1827l264 -307l-53 -54q-37 25 -101 67t-101 67.5t-62 44.5q-52 42 -52 77q0 18 7 32t25.5 28t31 21.5t41.5 23.5z" />
    <glyph glyph-name="Aacute" unicode="&#xc1;" horiz-adv-x="1243" 
d="M213 0h-172l715 1362h196l252 -1362h-166l-75 418h-531zM834 1217l-342 -666h452zM750 1528l346 287q84 -51 84 -93q0 -29 -21 -50t-63 -46q-98 -57 -305 -160z" />
    <glyph glyph-name="Acircumflex" unicode="&#xc2;" horiz-adv-x="1243" 
d="M213 0h-172l715 1362h196l252 -1362h-166l-75 418h-531zM834 1217l-342 -666h452zM627 1468l-60 54q85 87 260 237q31 27 52.5 37t48.5 10t47.5 -12.5t42.5 -40.5q88 -109 170 -235l-64 -48l-213 193z" />
    <glyph glyph-name="Atilde" unicode="&#xc3;" horiz-adv-x="1243" 
d="M213 0h-172l715 1362h196l252 -1362h-166l-75 418h-531zM834 1217l-342 -666h452zM610 1513l4 119q82 56 177 56q52 0 132 -26t124 -26q61 0 129 35l-7 -127q-79 -35 -141 -35q-45 0 -135.5 21.5t-128.5 21.5q-75 0 -154 -39z" />
    <glyph glyph-name="Adieresis" unicode="&#xc4;" horiz-adv-x="1243" 
d="M213 0h-172l715 1362h196l252 -1362h-166l-75 418h-531zM834 1217l-342 -666h452zM594 1583q0 51 37 87t90 36q39 0 63.5 -25.5t24.5 -64.5q0 -52 -37.5 -87.5t-89.5 -35.5q-41 0 -64.5 25t-23.5 65zM958 1583q0 51 37 87t90 36q39 0 65 -26t26 -64q0 -52 -38.5 -87.5
t-90.5 -35.5q-40 0 -64.5 25t-24.5 65z" />
    <glyph glyph-name="Aring" unicode="&#xc5;" horiz-adv-x="1243" 
d="M696 1456q0 91 59 150t148 59q73 0 113.5 -39.5t40.5 -99.5t-28 -108t-75 -75l250 -1343h-166l-75 418h-531l-219 -418h-172l704 1343q-49 40 -49 113zM834 1217l-342 -666h452zM893 1583q-45 0 -70.5 -33t-25.5 -88q0 -65 63 -65q43 0 69.5 34t26.5 80q0 72 -63 72z" />
    <glyph glyph-name="AE" unicode="&#xc6;" horiz-adv-x="1650" 
d="M1014 0l-76 426h-530l-224 -426h-159l714 1362h1073l-24 -141h-815l86 -455h563l-27 -141h-522l90 -484h447l-25 -141h-571zM811 1212l-340 -653h453l-111 653h-2z" />
    <glyph glyph-name="Ccedilla" unicode="&#xc7;" horiz-adv-x="1204" 
d="M727 113q178 0 373 151l71 -114q-185 -151 -415 -170l-62 -127q69 -5 112.5 -42t43.5 -102t-36.5 -109.5t-89.5 -62.5t-116 -18q-105 0 -172 39l43 86q65 -27 129 -27q60 0 89.5 23.5t29.5 60.5q0 44 -39 62t-129 16l96 198q-212 11 -328 146.5t-116 388.5
q0 188 44.5 340t116 249.5t167 163.5t192 93.5t195.5 27.5q273 0 415 -237l-114 -76q-57 84 -132.5 129t-187.5 45q-230 0 -378 -196.5t-148 -515.5q0 -202 86 -312t260 -110z" />
    <glyph glyph-name="Egrave" unicode="&#xc8;" horiz-adv-x="1009" 
d="M168 0l240 1362h761l-22 -141h-602l-80 -455h516l-25 -141h-516l-84 -484h615l-27 -141h-776zM713 1827l264 -307l-53 -54q-39 26 -101.5 67t-100.5 67t-63 45q-51 41 -51 77q0 18 7 32t25.5 28t31 21.5t41.5 23.5z" />
    <glyph glyph-name="Eacute" unicode="&#xc9;" horiz-adv-x="1009" 
d="M168 0l240 1362h761l-22 -141h-602l-80 -455h516l-25 -141h-516l-84 -484h615l-27 -141h-776zM647 1528l346 287q84 -51 84 -93q0 -29 -21 -50t-63 -46q-98 -57 -305 -160z" />
    <glyph glyph-name="Ecircumflex" unicode="&#xca;" horiz-adv-x="1009" 
d="M168 0l240 1362h761l-22 -141h-602l-80 -455h516l-25 -141h-516l-84 -484h615l-27 -141h-776zM559 1468l-59 54q85 87 260 237q32 27 52.5 37t47.5 10t47.5 -12.5t42.5 -40.5q88 -109 170 -235l-63 -48l-213 193z" />
    <glyph glyph-name="Edieresis" unicode="&#xcb;" horiz-adv-x="1009" 
d="M168 0l240 1362h761l-22 -141h-602l-80 -455h516l-25 -141h-516l-84 -484h615l-27 -141h-776zM541 1583q0 51 37 87t90 36q39 0 63.5 -25.5t24.5 -64.5q0 -52 -37.5 -87.5t-89.5 -35.5q-41 0 -64.5 25t-23.5 65zM905 1583q0 51 37 87t90 36q39 0 64.5 -25.5t25.5 -64.5
q0 -52 -38.5 -87.5t-90.5 -35.5q-40 0 -64 25t-24 65z" />
    <glyph glyph-name="Igrave" unicode="&#xcc;" horiz-adv-x="501" 
d="M332 0h-162l240 1362h161zM387 1827l264 -307l-53 -54q-37 25 -101 67t-101 67.5t-62 44.5q-51 41 -51 77q0 18 7 32t25 28t31 22t41 23z" />
    <glyph glyph-name="Iacute" unicode="&#xcd;" horiz-adv-x="501" 
d="M332 0h-162l240 1362h161zM375 1528l346 287q84 -51 84 -93q0 -29 -21 -50t-63 -46q-98 -57 -305 -160z" />
    <glyph glyph-name="Icircumflex" unicode="&#xce;" horiz-adv-x="501" 
d="M332 0h-162l240 1362h161zM270 1468l-59 54q85 87 260 237q32 27 52.5 37t47.5 10q49 0 91 -53q83 -103 169 -235l-63 -48l-213 193z" />
    <glyph glyph-name="Idieresis" unicode="&#xcf;" horiz-adv-x="501" 
d="M332 0h-162l240 1362h161zM205 1583q0 51 37 87t90 36q39 0 63.5 -25.5t24.5 -64.5q0 -52 -37.5 -87.5t-89.5 -35.5q-41 0 -64.5 25t-23.5 65zM569 1583q0 51 37 87t90 36q39 0 64.5 -25.5t25.5 -64.5q0 -52 -38.5 -87.5t-90.5 -35.5q-40 0 -64 25t-24 65z" />
    <glyph glyph-name="Eth" unicode="&#xd0;" horiz-adv-x="1329" 
d="M182 0l109 618h-152l23 136h151l109 608h416q249 0 386.5 -131t137.5 -383q0 -175 -40.5 -318t-110.5 -240.5t-166 -163.5t-205 -96t-230 -30h-428zM561 1229l-84 -475h389l-22 -136h-391l-84 -485h262q255 0 409 188t154 510q0 398 -391 398h-242z" />
    <glyph glyph-name="Ntilde" unicode="&#xd1;" horiz-adv-x="1368" 
d="M1280 1362h160l-240 -1362h-176l-496 1143l-198 -1143h-162l240 1362h190l485 -1129zM664 1513l4 119q82 56 176 56q52 0 132 -26t124 -26q61 0 129 35l-6 -127q-79 -35 -142 -35q-45 0 -135.5 21.5t-128.5 21.5q-74 0 -153 -39z" />
    <glyph glyph-name="Ograve" unicode="&#xd2;" horiz-adv-x="1353" 
d="M1364 651q-29 -176 -92 -307.5t-154 -211.5t-201 -118.5t-241 -38.5q-226 0 -346.5 129.5t-120.5 372.5q0 112 20 223q27 153 80.5 273t121 196.5t152.5 126t169 70t176 20.5q98 0 180 -31.5t143.5 -93t96 -159.5t34.5 -225q0 -103 -18 -226zM395 694q-18 -119 -18 -207
q0 -58 9.5 -109.5t33 -101t60.5 -85t95 -57t132 -21.5q108 0 194.5 43t144.5 120t95 173t55 213q14 100 14 192q0 59 -8.5 112.5t-30.5 106t-55.5 90t-87.5 61t-123 23.5q-108 0 -198 -45t-151.5 -123.5t-101.5 -175.5t-59 -209zM860 1827l264 -307l-53 -54q-37 25 -101 67
t-101 67.5t-62 44.5q-51 41 -51 77q0 18 7 32t25 28t31 22t41 23z" />
    <glyph glyph-name="Oacute" unicode="&#xd3;" horiz-adv-x="1353" 
d="M1364 651q-29 -176 -92 -307.5t-154 -211.5t-201 -118.5t-241 -38.5q-226 0 -346.5 129.5t-120.5 372.5q0 112 20 223q27 153 80.5 273t121 196.5t152.5 126t169 70t176 20.5q98 0 180 -31.5t143.5 -93t96 -159.5t34.5 -225q0 -103 -18 -226zM395 694q-18 -119 -18 -207
q0 -58 9.5 -109.5t33 -101t60.5 -85t95 -57t132 -21.5q108 0 194.5 43t144.5 120t95 173t55 213q14 100 14 192q0 59 -8.5 112.5t-30.5 106t-55.5 90t-87.5 61t-123 23.5q-108 0 -198 -45t-151.5 -123.5t-101.5 -175.5t-59 -209zM778 1528l346 287q84 -51 84 -93
q0 -29 -21 -50t-63 -46q-98 -57 -305 -160z" />
    <glyph glyph-name="Ocircumflex" unicode="&#xd4;" horiz-adv-x="1353" 
d="M1364 651q-29 -176 -92 -307.5t-154 -211.5t-201 -118.5t-241 -38.5q-226 0 -346.5 129.5t-120.5 372.5q0 112 20 223q27 153 80.5 273t121 196.5t152.5 126t169 70t176 20.5q98 0 180 -31.5t143.5 -93t96 -159.5t34.5 -225q0 -103 -18 -226zM395 694q-18 -119 -18 -207
q0 -58 9.5 -109.5t33 -101t60.5 -85t95 -57t132 -21.5q108 0 194.5 43t144.5 120t95 173t55 213q14 100 14 192q0 59 -8.5 112.5t-30.5 106t-55.5 90t-87.5 61t-123 23.5q-108 0 -198 -45t-151.5 -123.5t-101.5 -175.5t-59 -209zM702 1468l-59 54q85 87 260 237
q31 27 52.5 37t48.5 10t47.5 -12.5t42.5 -40.5q88 -109 170 -235l-64 -48l-213 193z" />
    <glyph glyph-name="Otilde" unicode="&#xd5;" horiz-adv-x="1353" 
d="M1364 651q-29 -176 -92 -307.5t-154 -211.5t-201 -118.5t-241 -38.5q-226 0 -346.5 129.5t-120.5 372.5q0 112 20 223q27 153 80.5 273t121 196.5t152.5 126t169 70t176 20.5q98 0 180 -31.5t143.5 -93t96 -159.5t34.5 -225q0 -103 -18 -226zM395 694q-18 -119 -18 -207
q0 -58 9.5 -109.5t33 -101t60.5 -85t95 -57t132 -21.5q108 0 194.5 43t144.5 120t95 173t55 213q14 100 14 192q0 59 -8.5 112.5t-30.5 106t-55.5 90t-87.5 61t-123 23.5q-108 0 -198 -45t-151.5 -123.5t-101.5 -175.5t-59 -209zM684 1513l4 119q82 56 176 56q52 0 132 -26
t124 -26q61 0 129 35l-6 -127q-79 -35 -141 -35q-45 0 -135.5 21.5t-128.5 21.5q-75 0 -154 -39z" />
    <glyph glyph-name="Odieresis" unicode="&#xd6;" horiz-adv-x="1353" 
d="M1364 651q-29 -176 -92 -307.5t-154 -211.5t-201 -118.5t-241 -38.5q-226 0 -346.5 129.5t-120.5 372.5q0 112 20 223q27 153 80.5 273t121 196.5t152.5 126t169 70t176 20.5q98 0 180 -31.5t143.5 -93t96 -159.5t34.5 -225q0 -103 -18 -226zM395 694q-18 -119 -18 -207
q0 -58 9.5 -109.5t33 -101t60.5 -85t95 -57t132 -21.5q108 0 194.5 43t144.5 120t95 173t55 213q14 100 14 192q0 59 -8.5 112.5t-30.5 106t-55.5 90t-87.5 61t-123 23.5q-108 0 -198 -45t-151.5 -123.5t-101.5 -175.5t-59 -209zM668 1583q0 51 37 87t90 36q39 0 63.5 -25.5
t24.5 -64.5q0 -52 -37.5 -87.5t-89.5 -35.5q-41 0 -64.5 25t-23.5 65zM1032 1583q0 51 37 87t90 36q39 0 64.5 -25.5t25.5 -64.5q0 -52 -38.5 -87.5t-90.5 -35.5q-40 0 -64 25t-24 65z" />
    <glyph glyph-name="multiply" unicode="&#xd7;" 
d="M563 651l-209 250l119 100l207 -249l297 254l86 -107l-299 -254l203 -242l-119 -100l-201 244l-295 -252l-86 106z" />
    <glyph glyph-name="Oslash" unicode="&#xd8;" horiz-adv-x="1353" 
d="M1364 651q-29 -176 -92 -307.5t-154 -211.5t-201 -118.5t-241 -38.5q-137 0 -244 52l-141 -213l-103 67l146 219q-125 128 -125 377q0 112 20 223q27 153 80.5 273t121 196.5t152.5 126t169 70t176 20.5q127 0 223 -51l121 183l110 -66l-129 -192q129 -135 129 -383
q0 -103 -18 -226zM1210 854q0 151 -57 254l-633 -948q71 -47 187 -47q108 0 194.5 43t144.5 120t95 173t55 213q14 100 14 192zM395 694q-18 -119 -18 -207q0 -146 55 -237l633 954q-68 43 -160 43q-108 0 -198 -45t-151.5 -123.5t-101.5 -175.5t-59 -209z" />
    <glyph glyph-name="Ugrave" unicode="&#xd9;" horiz-adv-x="1288" 
d="M397 1362h162l-166 -938q-8 -66 -8 -90q0 -120 72.5 -170.5t212.5 -50.5q158 0 250.5 72t119.5 229l168 948h162l-172 -977q-36 -206 -175.5 -308t-365.5 -102q-217 0 -326.5 80t-109.5 250q0 66 10 117zM809 1827l264 -307l-53 -54q-37 25 -101 67t-101 67.5t-62 44.5
q-51 41 -51 77q0 18 7 32t25 28t31 22t41 23z" />
    <glyph glyph-name="Uacute" unicode="&#xda;" horiz-adv-x="1288" 
d="M397 1362h162l-166 -938q-8 -66 -8 -90q0 -120 72.5 -170.5t212.5 -50.5q158 0 250.5 72t119.5 229l168 948h162l-172 -977q-36 -206 -175.5 -308t-365.5 -102q-217 0 -326.5 80t-109.5 250q0 66 10 117zM750 1528l346 287q84 -51 84 -93q0 -29 -21 -50t-63 -46
q-98 -57 -305 -160z" />
    <glyph glyph-name="Ucircumflex" unicode="&#xdb;" horiz-adv-x="1288" 
d="M397 1362h162l-166 -938q-8 -66 -8 -90q0 -120 72.5 -170.5t212.5 -50.5q158 0 250.5 72t119.5 229l168 948h162l-172 -977q-36 -206 -175.5 -308t-365.5 -102q-217 0 -326.5 80t-109.5 250q0 66 10 117zM657 1468l-59 54q85 87 260 237q32 27 52.5 37t47.5 10
q49 0 91 -53q88 -109 170 -235l-64 -48l-213 193z" />
    <glyph glyph-name="Udieresis" unicode="&#xdc;" horiz-adv-x="1288" 
d="M397 1362h162l-166 -938q-8 -66 -8 -90q0 -120 72.5 -170.5t212.5 -50.5q158 0 250.5 72t119.5 229l168 948h162l-172 -977q-36 -206 -175.5 -308t-365.5 -102q-217 0 -326.5 80t-109.5 250q0 66 10 117zM637 1583q0 51 37 87t90 36q39 0 63.5 -25.5t24.5 -64.5
q0 -52 -37.5 -87.5t-89.5 -35.5q-41 0 -64.5 25t-23.5 65zM1001 1583q0 51 37 87t90 36q40 0 65.5 -26t25.5 -64q0 -52 -38.5 -87.5t-90.5 -35.5q-40 0 -64.5 25t-24.5 65z" />
    <glyph glyph-name="Yacute" unicode="&#xdd;" horiz-adv-x="1073" 
d="M1118 1362h185l-590 -844l-92 -518h-162l90 518l-297 844h174l227 -682zM662 1528l346 287q84 -51 84 -93q0 -29 -21 -50t-63 -46q-92 -54 -306 -160z" />
    <glyph glyph-name="Thorn" unicode="&#xde;" horiz-adv-x="1163" 
d="M377 283l-49 -283h-164l239 1362h164l-39 -217h267q192 0 300.5 -91t108.5 -261q0 -247 -159.5 -378.5t-423.5 -131.5h-244zM399 416h205q430 0 430 362q0 59 -18 102t-46 68t-73 40t-89 19.5t-103 4.5h-199z" />
    <glyph glyph-name="germandbls" unicode="&#xdf;" horiz-adv-x="1148" 
d="M758 -29q-83 0 -173.5 26t-135.5 64l67 115q46 -34 110 -57t128 -23q97 0 162 53t65 154q0 46 -21.5 84.5t-53 63.5t-69 54t-69 54t-53 64t-21.5 84q0 49 20 92t51.5 75.5t70 63t77.5 58.5t70.5 56.5t51.5 64t20 73.5q0 66 -61 103.5t-175 37.5q-133 0 -214.5 -65.5
t-104.5 -196.5l-264 -1499h-160l264 1489q16 91 48 159t88.5 124.5t148.5 86t217 29.5q184 0 277 -69t93 -172q0 -72 -37.5 -134.5t-90.5 -106.5t-106 -81.5t-90.5 -76t-37.5 -73.5q0 -36 30 -70.5t72.5 -66t85.5 -68.5t73 -93.5t30 -124.5q0 -116 -54 -197.5t-138.5 -117.5
t-190.5 -36z" />
    <glyph glyph-name="agrave" unicode="&#xe0;" 
d="M1120 981l-141 -803l-14 -178h-144l10 121q-1 0 -4 1t-4 1q-64 -74 -136.5 -112t-174.5 -38q-164 0 -255 93t-91 274q0 207 69.5 365t209 250t331.5 92q72 0 166.5 -16t177.5 -50zM850 340l96 549q-64 33 -194 33q-96 0 -172.5 -37.5t-123 -96t-77 -136t-42 -150
t-11.5 -146.5q0 -53 10.5 -98t34 -83.5t67 -60.5t103.5 -22q123 0 205 72.5t104 175.5zM760 1569l166 -371l-64 -41q-166 193 -203 242q-30 48 -30 80q0 21 10.5 36.5t33 26t40 15.5t47.5 12z" />
    <glyph glyph-name="aacute" unicode="&#xe1;" 
d="M1120 981l-141 -803l-14 -178h-144l10 121q-1 0 -4 1t-4 1q-64 -74 -136.5 -112t-174.5 -38q-164 0 -255 93t-91 274q0 207 69.5 365t209 250t331.5 92q72 0 166.5 -16t177.5 -50zM850 340l96 549q-64 33 -194 33q-96 0 -172.5 -37.5t-123 -96t-77 -136t-42 -150
t-11.5 -146.5q0 -53 10.5 -98t34 -83.5t67 -60.5t103.5 -22q123 0 205 72.5t104 175.5zM653 1208l279 359q115 -28 115 -82q0 -35 -64 -96q-47 -46 -272 -232z" />
    <glyph glyph-name="acircumflex" unicode="&#xe2;" 
d="M1120 981l-141 -803l-14 -178h-144l10 121q-1 0 -4 1t-4 1q-64 -74 -136.5 -112t-174.5 -38q-164 0 -255 93t-91 274q0 207 69.5 365t209 250t331.5 92q72 0 166.5 -16t177.5 -50zM850 340l96 549q-64 33 -194 33q-96 0 -172.5 -37.5t-123 -96t-77 -136t-42 -150
t-11.5 -146.5q0 -53 10.5 -98t34 -83.5t67 -60.5t103.5 -22q123 0 205 72.5t104 175.5zM567 1192l-61 51q146 170 244 264q30 29 52 41.5t50 12.5q29 0 48 -12t38 -42q55 -80 149 -270l-59 -45l-192 215z" />
    <glyph glyph-name="atilde" unicode="&#xe3;" 
d="M1120 981l-141 -803l-14 -178h-144l10 121q-1 0 -4 1t-4 1q-64 -74 -136.5 -112t-174.5 -38q-164 0 -255 93t-91 274q0 207 69.5 365t209 250t331.5 92q72 0 166.5 -16t177.5 -50zM850 340l96 549q-64 33 -194 33q-96 0 -172.5 -37.5t-123 -96t-77 -136t-42 -150
t-11.5 -146.5q0 -53 10.5 -98t34 -83.5t67 -60.5t103.5 -22q123 0 205 72.5t104 175.5zM543 1266l8 118q79 56 172 56q53 0 134 -25.5t126 -25.5q61 0 127 34l-6 -125q-74 -36 -143 -36q-45 0 -135 22.5t-128 22.5q-74 0 -155 -41z" />
    <glyph glyph-name="adieresis" unicode="&#xe4;" 
d="M1120 981l-141 -803l-14 -178h-144l10 121q-1 0 -4 1t-4 1q-64 -74 -136.5 -112t-174.5 -38q-164 0 -255 93t-91 274q0 207 69.5 365t209 250t331.5 92q72 0 166.5 -16t177.5 -50zM850 340l96 549q-64 33 -194 33q-96 0 -172.5 -37.5t-123 -96t-77 -136t-42 -150
t-11.5 -146.5q0 -53 10.5 -98t34 -83.5t67 -60.5t103.5 -22q123 0 205 72.5t104 175.5zM535 1319q0 51 37 87t90 36q39 0 63.5 -25.5t24.5 -64.5q0 -52 -37.5 -87.5t-89.5 -35.5q-41 0 -64.5 25t-23.5 65zM899 1319q0 51 37 87t90 36q39 0 64.5 -25.5t25.5 -64.5
q0 -52 -38.5 -87.5t-90.5 -35.5q-40 0 -64 25t-24 65z" />
    <glyph glyph-name="aring" unicode="&#xe5;" 
d="M1120 981l-141 -803l-14 -178h-144l10 121q-1 0 -4 1t-4 1q-64 -74 -136.5 -112t-174.5 -38q-164 0 -255 93t-91 274q0 207 69.5 365t209 250t331.5 92q72 0 166.5 -16t177.5 -50zM850 340l96 549q-64 33 -194 33q-96 0 -172.5 -37.5t-123 -96t-77 -136t-42 -150
t-11.5 -146.5q0 -53 10.5 -98t34 -83.5t67 -60.5t103.5 -22q123 0 205 72.5t104 175.5zM641 1298q0 91 59 150t148 59q73 0 113 -39.5t40 -99.5q0 -92 -60 -151.5t-150 -59.5q-72 0 -111 39.5t-39 101.5zM838 1421q-44 0 -68.5 -31t-24.5 -83q0 -64 60 -64q41 0 66.5 32.5
t25.5 76.5q0 69 -59 69z" />
    <glyph glyph-name="ae" unicode="&#xe6;" horiz-adv-x="1509" 
d="M1335 1047q126 0 192 -59t66 -165q0 -66 -21.5 -121t-58.5 -92.5t-86.5 -68t-104.5 -47.5t-113 -30.5t-112.5 -16.5t-102.5 -6t-83 1q-18 -158 39.5 -251t204.5 -93q129 0 271 90l4.5 3t3.5 2l51 -109q-63 -46 -161 -79.5t-212 -33.5q-92 0 -163.5 31.5t-110.5 81.5
q-69 -47 -156 -81t-168 -34q-92 0 -160.5 29.5t-108 83.5t-58.5 121.5t-19 150.5q0 204 71 359.5t210 244.5t329 89q68 0 146.5 -21.5t138.5 -56.5q127 78 272 78zM731 924q-79 0 -146.5 -32.5t-113.5 -86t-78.5 -124.5t-47.5 -147t-15 -153q0 -81 20.5 -143t71.5 -103
t129 -41q125 0 233 80q-34 87 -34 201q0 294 190 497q-88 52 -209 52zM1440 801q0 79 -62 108q-26 17 -78 17q-77 -1 -143 -36t-110 -91.5t-73 -118.5t-42 -125q34 -2 78 0t104 9.5t115.5 25t104 43.5t77.5 69.5t29 98.5z" />
    <glyph glyph-name="ccedilla" unicode="&#xe7;" horiz-adv-x="923" 
d="M584 102q136 0 266 93l57 -111q-55 -43 -140.5 -75t-176.5 -38l-58 -118q69 -5 112.5 -42t43.5 -102t-36.5 -109.5t-89.5 -62.5t-116 -18q-105 0 -172 39l43 86q65 -27 129 -27q60 0 89.5 23.5t29.5 60.5q0 44 -39 62t-129 16l97 194q-157 17 -238.5 125.5t-81.5 290.5
q0 147 35.5 264.5t91 189t129 119.5t144 66.5t141.5 18.5q103 0 194 -45.5t140 -143.5l-117 -76q-41 69 -95.5 101t-129.5 32q-160 0 -264.5 -133t-104.5 -374q0 -142 60.5 -224t185.5 -82z" />
    <glyph glyph-name="egrave" unicode="&#xe8;" horiz-adv-x="946" 
d="M862 801q0 59 -35.5 92t-101.5 33q-77 0 -143.5 -35t-110.5 -92t-73 -118.5t-42 -125.5h37q51 0 104.5 5t121.5 21t119.5 41.5t87.5 72t36 106.5zM750 1047q127 0 197.5 -59.5t70.5 -160.5q0 -69 -24 -127t-62.5 -97t-93 -69t-110 -47.5t-119.5 -28.5t-115 -14.5
t-103 -3.5q-11 0 -29 1t-26 1q-4 -50 -4 -69q0 -57 12.5 -104t40 -86.5t77 -62t116.5 -22.5q129 0 270 90q5 3 8 5l53 -109q-59 -44 -153 -78.5t-205 -34.5q-192 0 -284.5 108t-92.5 296q0 134 41 256t114.5 214.5t182.5 147t238 54.5zM717 1569l166 -371l-64 -41
q-166 193 -203 242q-30 48 -30 80q0 21 10.5 36.5t33 26t40 15.5t47.5 12z" />
    <glyph glyph-name="eacute" unicode="&#xe9;" horiz-adv-x="946" 
d="M862 801q0 59 -35.5 92t-101.5 33q-77 0 -143.5 -35t-110.5 -92t-73 -118.5t-42 -125.5h37q51 0 104.5 5t121.5 21t119.5 41.5t87.5 72t36 106.5zM750 1047q127 0 197.5 -59.5t70.5 -160.5q0 -69 -24 -127t-62.5 -97t-93 -69t-110 -47.5t-119.5 -28.5t-115 -14.5
t-103 -3.5q-11 0 -29 1t-26 1q-4 -50 -4 -69q0 -57 12.5 -104t40 -86.5t77 -62t116.5 -22.5q129 0 270 90q5 3 8 5l53 -109q-59 -44 -153 -78.5t-205 -34.5q-192 0 -284.5 108t-92.5 296q0 134 41 256t114.5 214.5t182.5 147t238 54.5zM594 1208l278 359q115 -28 115 -82
q0 -36 -63 -96q-41 -40 -273 -232z" />
    <glyph glyph-name="ecircumflex" unicode="&#xea;" horiz-adv-x="946" 
d="M862 801q0 59 -35.5 92t-101.5 33q-77 0 -143.5 -35t-110.5 -92t-73 -118.5t-42 -125.5h37q51 0 104.5 5t121.5 21t119.5 41.5t87.5 72t36 106.5zM750 1047q127 0 197.5 -59.5t70.5 -160.5q0 -69 -24 -127t-62.5 -97t-93 -69t-110 -47.5t-119.5 -28.5t-115 -14.5
t-103 -3.5q-11 0 -29 1t-26 1q-4 -50 -4 -69q0 -57 12.5 -104t40 -86.5t77 -62t116.5 -22.5q129 0 270 90q5 3 8 5l53 -109q-59 -44 -153 -78.5t-205 -34.5q-192 0 -284.5 108t-92.5 296q0 134 41 256t114.5 214.5t182.5 147t238 54.5zM530 1192l-61 51q146 170 244 264
q30 29 52 41.5t50 12.5q29 0 48 -12t38 -42q59 -86 150 -270l-60 -45l-192 215z" />
    <glyph glyph-name="edieresis" unicode="&#xeb;" horiz-adv-x="946" 
d="M862 801q0 59 -35.5 92t-101.5 33q-77 0 -143.5 -35t-110.5 -92t-73 -118.5t-42 -125.5h37q51 0 104.5 5t121.5 21t119.5 41.5t87.5 72t36 106.5zM750 1047q127 0 197.5 -59.5t70.5 -160.5q0 -69 -24 -127t-62.5 -97t-93 -69t-110 -47.5t-119.5 -28.5t-115 -14.5
t-103 -3.5q-11 0 -29 1t-26 1q-4 -50 -4 -69q0 -57 12.5 -104t40 -86.5t77 -62t116.5 -22.5q129 0 270 90q5 3 8 5l53 -109q-59 -44 -153 -78.5t-205 -34.5q-192 0 -284.5 108t-92.5 296q0 134 41 256t114.5 214.5t182.5 147t238 54.5zM481 1319q0 51 37 87t90 36
q39 0 63.5 -25.5t24.5 -64.5q0 -52 -37.5 -87.5t-89.5 -35.5q-41 0 -64.5 25t-23.5 65zM846 1319q0 51 37 87t90 36q39 0 64.5 -25.5t25.5 -64.5q0 -52 -38.5 -87.5t-90.5 -35.5q-40 0 -64 25t-24 65z" />
    <glyph glyph-name="igrave" unicode="&#xec;" horiz-adv-x="460" 
d="M313 0h-159l180 1018h160zM426 1569l166 -371l-64 -41q-159 184 -202 242q-31 50 -31 80q0 21 10.5 36.5t33 26t40 15.5t47.5 12z" />
    <glyph glyph-name="iacute" unicode="&#xed;" horiz-adv-x="460" 
d="M313 0h-159l180 1018h160zM295 1208l278 359q115 -28 115 -82q0 -36 -63 -96q-41 -40 -273 -232z" />
    <glyph glyph-name="icircumflex" unicode="&#xee;" horiz-adv-x="460" 
d="M313 0h-159l180 1018h160zM221 1192l-61 51q151 175 243 264q30 28 52.5 41t50.5 13q29 0 48 -12t38 -42q55 -80 149 -270l-59 -45l-193 215z" />
    <glyph glyph-name="idieresis" unicode="&#xef;" horiz-adv-x="460" 
d="M313 0h-159l180 1018h160zM180 1319q0 51 37 87t90 36q39 0 63.5 -25.5t24.5 -64.5q0 -52 -37.5 -87.5t-89.5 -35.5q-41 0 -64.5 25t-23.5 65zM545 1319q0 51 37 87t90 36q39 0 64.5 -25.5t25.5 -64.5q0 -52 -38.5 -87.5t-90.5 -35.5q-40 0 -64 25t-24 65z" />
    <glyph glyph-name="eth" unicode="&#xf0;" horiz-adv-x="1024" 
d="M573 1008l-53 88l213 131q-91 78 -239 108l53 123q198 -36 319 -151l242 147l53 -90l-227 -135q121 -170 121 -443q0 -133 -13 -227q-20 -126 -63.5 -231.5t-110.5 -186t-162.5 -125.5t-211.5 -45q-117 0 -197 48t-116 126.5t-36 182.5q0 60 9 121q37 207 169.5 333.5
t321.5 126.5q71 0 140 -23.5t120 -62.5q-3 98 -25.5 176.5t-74.5 149.5zM313 432q-6 -49 -6 -94q0 -110 56 -174t161 -64q131 0 228 122t135 337q4 27 14 121q-44 47 -112 73.5t-138 26.5q-74 0 -135 -29t-102 -78t-66.5 -110.5t-34.5 -130.5z" />
    <glyph glyph-name="ntilde" unicode="&#xf1;" horiz-adv-x="1105" 
d="M311 0h-159l153 864l14 154h140l-8 -148q73 86 166.5 131.5t193.5 45.5q271 0 274 -250q0 -49 -12 -123l-121 -674h-159l112 645q10 65 10 115q0 160 -153 160q-122 0 -219 -78t-113 -174zM524 1266l8 118q79 56 173 56q54 0 135 -25.5t125 -25.5q61 0 127 34l-7 -125
q-74 -36 -143 -36q-45 0 -134.5 22.5t-127.5 22.5q-75 0 -156 -41z" />
    <glyph glyph-name="ograve" unicode="&#xf2;" horiz-adv-x="1064" 
d="M545 94q-215 0 -215 266q0 97 14 177q29 177 120.5 281t233.5 104q109 0 161 -71t52 -196q0 -98 -12 -166q-30 -183 -121 -289t-233 -106zM184 535q-16 -84 -16 -183q0 -185 93.5 -283t262.5 -98q455 0 541 547q10 59 10 158q0 90 -25 159t-62.5 108t-88.5 63.5t-94 32.5
t-88 8q-64 0 -123.5 -12t-126.5 -46.5t-120 -89.5t-97.5 -148.5t-65.5 -215.5zM725 1569l166 -371l-64 -41q-159 184 -202 242q-31 50 -31 80q0 21 10.5 36.5t33 26t40 15.5t47.5 12z" />
    <glyph glyph-name="oacute" unicode="&#xf3;" horiz-adv-x="1064" 
d="M545 94q142 0 233 106t121 289q12 68 12 166q0 125 -52 196t-161 71q-142 0 -233.5 -104t-120.5 -281q-14 -80 -14 -177q0 -266 215 -266zM184 535q21 122 65.5 215.5t97.5 148.5t120 89.5t126.5 46.5t123.5 12q45 0 88 -8t94 -32.5t88.5 -63.5t62.5 -108t25 -159
q0 -99 -10 -158q-86 -547 -541 -547q-169 0 -262.5 98t-93.5 283q0 99 16 183zM612 1208l279 359q115 -28 115 -82q0 -35 -64 -96q-47 -46 -272 -232z" />
    <glyph glyph-name="ocircumflex" unicode="&#xf4;" horiz-adv-x="1064" 
d="M545 94q-215 0 -215 266q0 97 14 177q29 177 120.5 281t233.5 104q109 0 161 -71t52 -196q0 -98 -12 -166q-30 -183 -121 -289t-233 -106zM184 535q-16 -84 -16 -183q0 -185 93.5 -283t262.5 -98q455 0 541 547q10 59 10 158q0 90 -25 159t-62.5 108t-88.5 63.5t-94 32.5
t-88 8q-64 0 -123.5 -12t-126.5 -46.5t-120 -89.5t-97.5 -148.5t-65.5 -215.5zM526 1192l-61 51q146 170 244 264q30 29 52 41.5t50 12.5q29 0 48 -12t38 -42q59 -86 150 -270l-60 -45l-192 215z" />
    <glyph glyph-name="otilde" unicode="&#xf5;" horiz-adv-x="1064" 
d="M545 94q142 0 233 106t121 289q12 68 12 166q0 125 -52 196t-161 71q-142 0 -233.5 -104t-120.5 -281q-14 -80 -14 -177q0 -266 215 -266zM184 535q21 122 65.5 215.5t97.5 148.5t120 89.5t126.5 46.5t123.5 12q45 0 88 -8t94 -32.5t88.5 -63.5t62.5 -108t25 -159
q0 -99 -10 -158q-86 -547 -541 -547q-169 0 -262.5 98t-93.5 283q0 99 16 183zM492 1266l8 118q79 56 172 56q54 0 135 -25.5t125 -25.5q61 0 127 34l-6 -125q-74 -36 -144 -36q-45 0 -134.5 22.5t-127.5 22.5q-74 0 -155 -41z" />
    <glyph glyph-name="odieresis" unicode="&#xf6;" horiz-adv-x="1064" 
d="M545 94q-215 0 -215 266q0 97 14 177q29 177 120.5 281t233.5 104q109 0 161 -71t52 -196q0 -98 -12 -166q-30 -183 -121 -289t-233 -106zM184 535q-16 -84 -16 -183q0 -185 93.5 -283t262.5 -98q455 0 541 547q10 59 10 158q0 90 -25 159t-62.5 108t-88.5 63.5t-94 32.5
t-88 8q-64 0 -123.5 -12t-126.5 -46.5t-120 -89.5t-97.5 -148.5t-65.5 -215.5zM483 1319q0 51 37 87t90 36q39 0 63.5 -25.5t24.5 -64.5q0 -52 -37.5 -87.5t-89.5 -35.5q-41 0 -64.5 25t-23.5 65zM848 1319q0 51 37 87t90 36q39 0 64.5 -25.5t25.5 -64.5q0 -52 -38.5 -87.5
t-90.5 -35.5q-40 0 -64 25t-24 65z" />
    <glyph glyph-name="divide" unicode="&#xf7;" 
d="M586 961q0 60 40 100.5t97 40.5q45 0 71.5 -26.5t26.5 -69.5q0 -59 -39.5 -100.5t-97.5 -41.5q-47 0 -72.5 26t-25.5 71zM483 276q0 60 40.5 102t97.5 42q45 0 72.5 -27.5t27.5 -70.5q0 -59 -40 -100.5t-97 -41.5q-47 0 -74 26.5t-27 69.5zM1087 719l-20 -133h-829
l20 133h829z" />
    <glyph glyph-name="oslash" unicode="&#xf8;" horiz-adv-x="1071" 
d="M184 535q21 122 65.5 215.5t97.5 148.5t120 89.5t126.5 46.5t123.5 12q98 0 176 -37l117 170l94 -64l-119 -172q90 -97 90 -268q0 -99 -10 -158q-86 -547 -541 -547q-106 0 -186 39l-123 -176l-92 66l127 182q-82 97 -82 270q0 99 16 183zM545 94q142 0 233 106t121 289
q12 68 12 166q0 87 -24 148l-469 -676q54 -33 127 -33zM698 922q-142 0 -233.5 -104t-120.5 -281q-14 -80 -14 -177q0 -76 18 -135l463 668q-47 29 -113 29z" />
    <glyph glyph-name="ugrave" unicode="&#xf9;" horiz-adv-x="1099" 
d="M969 1018h159l-151 -868l-14 -150h-142l6 139q-143 -168 -352 -168q-278 0 -278 250q0 55 10 113l123 684h159l-116 -651q-11 -68 -11 -117q0 -78 38 -115t139 -37q105 0 199.5 78.5t113.5 179.5zM715 1569l166 -371l-64 -41q-166 193 -203 242q-30 48 -30 80
q0 21 10.5 36.5t33 26t40 15.5t47.5 12z" />
    <glyph glyph-name="uacute" unicode="&#xfa;" horiz-adv-x="1099" 
d="M969 1018h159l-151 -868l-14 -150h-142l6 139q-143 -168 -352 -168q-278 0 -278 250q0 55 10 113l123 684h159l-116 -651q-11 -68 -11 -117q0 -78 38 -115t139 -37q105 0 199.5 78.5t113.5 179.5zM627 1208l278 359q115 -28 115 -82q0 -35 -64 -96q-47 -46 -272 -232z
" />
    <glyph glyph-name="ucircumflex" unicode="&#xfb;" horiz-adv-x="1099" 
d="M969 1018h159l-151 -868l-14 -150h-142l6 139q-143 -168 -352 -168q-278 0 -278 250q0 55 10 113l123 684h159l-116 -651q-11 -68 -11 -117q0 -78 38 -115t139 -37q105 0 199.5 78.5t113.5 179.5zM532 1192l-61 51q146 170 244 264q30 29 52 41.5t50 12.5q29 0 48 -12
t38 -42q59 -86 150 -270l-60 -45l-192 215z" />
    <glyph glyph-name="udieresis" unicode="&#xfc;" horiz-adv-x="1099" 
d="M969 1018h159l-151 -868l-14 -150h-142l6 139q-143 -168 -352 -168q-278 0 -278 250q0 55 10 113l123 684h159l-116 -651q-11 -68 -11 -117q0 -78 38 -115t139 -37q105 0 199.5 78.5t113.5 179.5zM494 1319q0 51 37 87t90 36q39 0 63.5 -25.5t24.5 -64.5
q0 -52 -37.5 -87.5t-89.5 -35.5q-41 0 -64.5 25t-23.5 65zM858 1319q0 51 37 87t90 36q39 0 64.5 -25.5t25.5 -64.5q0 -52 -38.5 -87.5t-90.5 -35.5q-40 0 -64 25t-24 65z" />
    <glyph glyph-name="yacute" unicode="&#xfd;" horiz-adv-x="1093" 
d="M1126 1018l-172 -975q-33 -188 -73 -285q-60 -154 -169 -228.5t-276 -74.5q-135 0 -208.5 63t-73.5 171q0 132 74.5 218t222.5 161q-121 14 -180.5 71t-59.5 168q0 48 8 92l111 619h159l-102 -584q-14 -72 -14 -115q0 -74 42.5 -112.5t153.5 -38.5q102 0 187.5 68
t103.5 172l109 610h157zM309 -287q0 -135 152 -135q246 0 319 377l39 211q-47 -50 -100 -83.5t-148 -80.5q-91 -45 -143.5 -81.5t-85.5 -89t-33 -118.5zM614 1208l279 359q115 -28 115 -82q0 -35 -64 -96q-47 -46 -272 -232z" />
    <glyph glyph-name="thorn" unicode="&#xfe;" horiz-adv-x="1081" 
d="M317 53l-86 -483h-159l325 1853h160l-72 -399q135 23 217 23q198 0 293 -102t95 -306q0 -301 -140 -484.5t-375 -183.5q-72 0 -142.5 23.5t-115.5 58.5zM463 887l-123 -694q36 -43 101.5 -72t131.5 -29q55 0 106 20.5t96.5 64t79.5 106.5t53.5 154t19.5 200
q0 283 -246 283q-122 0 -219 -33z" />
    <glyph glyph-name="ydieresis" unicode="&#xff;" horiz-adv-x="1093" 
d="M1126 1018l-172 -975q-33 -188 -73 -285q-60 -154 -169 -228.5t-276 -74.5q-135 0 -208.5 63t-73.5 171q0 132 74.5 218t222.5 161q-121 14 -180.5 71t-59.5 168q0 48 8 92l111 619h159l-102 -584q-14 -72 -14 -115q0 -74 42.5 -112.5t153.5 -38.5q102 0 187.5 68
t103.5 172l109 610h157zM309 -287q0 -135 152 -135q246 0 319 377l39 211q-47 -50 -100 -83.5t-148 -80.5q-91 -45 -143.5 -81.5t-85.5 -89t-33 -118.5zM500 1319q0 51 37 87t90 36q39 0 63.5 -25.5t24.5 -64.5q0 -52 -37.5 -87.5t-89.5 -35.5q-41 0 -64.5 25t-23.5 65z
M864 1319q0 51 37 87t90 36q39 0 64.5 -25.5t25.5 -64.5q0 -52 -38.5 -87.5t-90.5 -35.5q-40 0 -64 25t-24 65z" />
    <glyph glyph-name="Amacron" unicode="&#x100;" horiz-adv-x="1243" 
d="M213 0h-172l715 1362h196l252 -1362h-166l-75 418h-531zM834 1217l-342 -666h452zM614 1520l23 133h534l-22 -133h-535z" />
    <glyph glyph-name="amacron" unicode="&#x101;" 
d="M1120 981l-141 -803l-14 -178h-144l10 121q-1 0 -4 1t-4 1q-64 -74 -136.5 -112t-174.5 -38q-164 0 -255 93t-91 274q0 207 69.5 365t209 250t331.5 92q72 0 166.5 -16t177.5 -50zM850 340l96 549q-64 33 -194 33q-96 0 -172.5 -37.5t-123 -96t-77 -136t-42 -150
t-11.5 -146.5q0 -53 10.5 -98t34 -83.5t67 -60.5t103.5 -22q123 0 205 72.5t104 175.5zM537 1268l24 133h535l-25 -133h-534z" />
    <glyph glyph-name="Abreve" unicode="&#x102;" horiz-adv-x="1243" 
d="M213 0h-172l715 1362h196l252 -1362h-166l-75 418h-531zM834 1217l-342 -666h452zM1120 1759l113 -43q-55 -117 -138.5 -178t-220.5 -61q-131 0 -198 64t-78 173l119 41q14 -84 55.5 -123t122.5 -39q79 0 130.5 38.5t94.5 127.5z" />
    <glyph glyph-name="abreve" unicode="&#x103;" 
d="M1120 981l-141 -803l-14 -178h-144l10 121q-1 0 -4 1t-4 1q-64 -74 -136.5 -112t-174.5 -38q-164 0 -255 93t-91 274q0 207 69.5 365t209 250t331.5 92q72 0 166.5 -16t177.5 -50zM850 340l96 549q-64 33 -194 33q-96 0 -172.5 -37.5t-123 -96t-77 -136t-42 -150
t-11.5 -146.5q0 -53 10.5 -98t34 -83.5t67 -60.5t103.5 -22q123 0 205 72.5t104 175.5zM1024 1493l119 -23q-51 -144 -137 -209t-211 -65q-131 0 -201.5 77t-73.5 197l115 21q10 -95 52.5 -135.5t117.5 -40.5q73 0 122.5 37.5t96.5 140.5z" />
    <glyph glyph-name="Aogonek" unicode="&#x104;" horiz-adv-x="1243" 
d="M213 0h-172l715 1362h196l252 -1362q-76 -54 -138 -139.5t-62 -153.5q0 -72 69 -72q46 0 109 23l16 -102q-86 -39 -180 -39q-85 0 -124.5 42t-39.5 105q0 161 184 336l-75 418h-531zM834 1217l-342 -666h452z" />
    <glyph glyph-name="aogonek" unicode="&#x105;" 
d="M1120 981l-141 -803l-14 -178q-73 -55 -134 -140.5t-61 -152.5q0 -72 70 -72q45 0 108 23l17 -102q-86 -39 -181 -39q-85 0 -124 42t-39 105q0 151 200 336l10 121q-1 0 -4 1t-4 1q-64 -74 -136.5 -112t-174.5 -38q-164 0 -255 93t-91 274q0 207 69.5 365t209 250
t331.5 92q72 0 166.5 -16t177.5 -50zM850 340l96 549q-64 33 -194 33q-96 0 -172.5 -37.5t-123 -96t-77 -136t-42 -150t-11.5 -146.5q0 -53 10.5 -98t34 -83.5t67 -60.5t103.5 -22q123 0 205 72.5t104 175.5z" />
    <glyph glyph-name="Cacute" unicode="&#x106;" horiz-adv-x="1204" 
d="M727 113q178 0 373 151l74 -114q-213 -175 -480 -175q-230 0 -356.5 136.5t-126.5 400.5q0 188 44.5 340t115 249.5t164.5 163.5t188 93.5t190 27.5q286 0 428 -237l-122 -78q-58 86 -129.5 131t-182.5 45q-230 0 -378 -196.5t-148 -515.5q0 -211 84.5 -316.5
t261.5 -105.5zM784 1528l346 287q84 -51 84 -93q0 -29 -21 -50t-63 -46q-98 -57 -305 -160z" />
    <glyph glyph-name="cacute" unicode="&#x107;" horiz-adv-x="919" 
d="M584 102q136 0 266 93l57 -111q-60 -48 -158 -81.5t-200 -33.5q-183 0 -279 111t-96 309q0 147 35.5 264.5t91 189t129 119.5t144 66.5t141.5 18.5q103 0 194 -45.5t140 -143.5l-117 -76q-41 69 -95.5 101t-129.5 32q-160 0 -264.5 -133t-104.5 -374q0 -142 60.5 -224
t185.5 -82zM606 1208l279 359q114 -28 114 -82q0 -36 -63 -96q-47 -46 -272 -232z" />
    <glyph glyph-name="Ccircumflex" unicode="&#x108;" horiz-adv-x="1204" 
d="M727 113q178 0 373 151l74 -114q-213 -175 -480 -175q-230 0 -356.5 136.5t-126.5 400.5q0 188 44.5 340t115 249.5t164.5 163.5t188 93.5t190 27.5q286 0 428 -237l-122 -78q-58 86 -129.5 131t-182.5 45q-230 0 -378 -196.5t-148 -515.5q0 -211 84.5 -316.5
t261.5 -105.5zM694 1468l-59 54q85 87 260 237q32 27 52.5 37t47.5 10t47.5 -12.5t42.5 -40.5q88 -109 170 -235l-63 -48l-213 193z" />
    <glyph glyph-name="ccircumflex" unicode="&#x109;" horiz-adv-x="919" 
d="M584 102q136 0 266 93l57 -111q-60 -48 -158 -81.5t-200 -33.5q-183 0 -279 111t-96 309q0 147 35.5 264.5t91 189t129 119.5t144 66.5t141.5 18.5q103 0 194 -45.5t140 -143.5l-117 -76q-41 69 -95.5 101t-129.5 32q-160 0 -264.5 -133t-104.5 -374q0 -142 60.5 -224
t185.5 -82zM530 1192l-61 51q146 170 244 264q30 29 52 41.5t50 12.5q29 0 48 -12t38 -42q59 -86 150 -270l-60 -45l-192 215z" />
    <glyph glyph-name="Cdotaccent" unicode="&#x10a;" horiz-adv-x="1204" 
d="M727 113q178 0 373 151l74 -114q-213 -175 -480 -175q-230 0 -356.5 136.5t-126.5 400.5q0 188 44.5 340t115 249.5t164.5 163.5t188 93.5t190 27.5q286 0 428 -237l-122 -78q-58 86 -129.5 131t-182.5 45q-230 0 -378 -196.5t-148 -515.5q0 -211 84.5 -316.5
t261.5 -105.5zM858 1593q0 52 37 88.5t90 36.5q39 0 64.5 -25.5t25.5 -64.5q0 -53 -38.5 -89t-90.5 -36q-41 0 -64.5 25t-23.5 65z" />
    <glyph glyph-name="cdotaccent" unicode="&#x10b;" horiz-adv-x="919" 
d="M584 102q136 0 266 93l57 -111q-60 -48 -158 -81.5t-200 -33.5q-183 0 -279 111t-96 309q0 147 35.5 264.5t91 189t129 119.5t144 66.5t141.5 18.5q103 0 194 -45.5t140 -143.5l-117 -76q-41 69 -95.5 101t-129.5 32q-160 0 -264.5 -133t-104.5 -374q0 -142 60.5 -224
t185.5 -82zM655 1290q0 52 37 88.5t90 36.5q39 0 63.5 -25.5t24.5 -64.5q0 -53 -37.5 -89t-89.5 -36q-41 0 -64.5 25t-23.5 65z" />
    <glyph glyph-name="Ccaron" unicode="&#x10c;" horiz-adv-x="1204" 
d="M727 113q178 0 373 151l74 -114q-213 -175 -480 -175q-230 0 -356.5 136.5t-126.5 400.5q0 188 44.5 340t115 249.5t164.5 163.5t188 93.5t190 27.5q286 0 428 -237l-122 -78q-58 86 -129.5 131t-182.5 45q-230 0 -378 -196.5t-148 -515.5q0 -211 84.5 -316.5
t261.5 -105.5zM743 1806l215 -194l283 200l57 -53q-121 -130 -254 -241q-24 -20 -35 -28t-29.5 -15t-39.5 -7q-28 0 -47.5 12t-44.5 40q-96 116 -170 237z" />
    <glyph glyph-name="ccaron" unicode="&#x10d;" horiz-adv-x="919" 
d="M584 102q136 0 266 93l57 -111q-60 -48 -158 -81.5t-200 -33.5q-183 0 -279 111t-96 309q0 147 35.5 264.5t91 189t129 119.5t144 66.5t141.5 18.5q103 0 194 -45.5t140 -143.5l-117 -76q-41 69 -95.5 101t-129.5 32q-160 0 -264.5 -133t-104.5 -374q0 -142 60.5 -224
t185.5 -82zM1028 1561l57 -52q-118 -137 -243 -262q-55 -55 -105 -55q-30 0 -47.5 11.5t-38.5 41.5q-59 86 -149 268l65 48l189 -215z" />
    <glyph glyph-name="Dcaron" unicode="&#x10e;" horiz-adv-x="1314" 
d="M168 0l240 1362h415q250 0 387.5 -131t137.5 -383q0 -175 -40.5 -318t-110.5 -240.5t-166 -163.5t-205 -96t-230 -30h-428zM547 1229l-193 -1096h262q256 0 410 188t154 510q0 398 -392 398h-241zM635 1806l215 -194l283 200l57 -53q-121 -130 -254 -241
q-23 -19 -34.5 -27.5t-30.5 -15.5t-40 -7q-28 0 -47.5 12t-44.5 40q-96 116 -170 237z" />
    <glyph glyph-name="dcaron" unicode="&#x10f;" horiz-adv-x="1224" 
d="M756 1047q102 0 211 -37l75 413h158l-219 -1239l-16 -184h-144l8 123l-8 2q-135 -156 -325 -156q-87 0 -152 30t-102.5 83.5t-55.5 121t-18 148.5q0 202 68.5 358t203 246.5t316.5 90.5zM850 332l94 547q-73 39 -174 39q-109 0 -194.5 -43t-138.5 -118t-80 -172.5
t-27 -211.5q0 -125 50 -202t161 -77q120 0 206.5 72.5t102.5 165.5zM1354 1411l-70 -405l74 -15q147 313 147 379q0 23 -15 38t-46 15q-28 0 -90 -12z" />
    <glyph glyph-name="Dcroat" unicode="&#x110;" horiz-adv-x="1329" 
d="M182 0l109 618h-152l23 136h151l109 608h416q249 0 386.5 -131t137.5 -383q0 -175 -40.5 -318t-110.5 -240.5t-166 -163.5t-205 -96t-230 -30h-428zM561 1229l-84 -475h389l-22 -136h-391l-84 -485h262q255 0 409 188t154 510q0 398 -391 398h-242z" />
    <glyph glyph-name="dcroat" unicode="&#x111;" horiz-adv-x="1097" 
d="M752 1026q102 0 211 -37l32 180h-360l20 115h361l26 139h158l-24 -139h124l-20 -115h-125l-174 -985l-16 -184h-144l8 123l-8 2q-135 -156 -325 -156q-87 0 -152 30t-102.5 83.5t-55.5 121t-18 148.5q0 306 154.5 490t429.5 184zM850 332l90 526q-73 39 -174 39
q-145 0 -245 -69.5t-145.5 -185.5t-45.5 -269q0 -125 50 -202t161 -77q120 0 206.5 72.5t102.5 165.5z" />
    <glyph glyph-name="Emacron" unicode="&#x112;" horiz-adv-x="1009" 
d="M168 0l240 1362h761l-22 -141h-602l-80 -455h516l-25 -141h-516l-84 -484h615l-27 -141h-776zM541 1520l22 133h535l-23 -133h-534z" />
    <glyph glyph-name="emacron" unicode="&#x113;" horiz-adv-x="946" 
d="M862 801q0 59 -35.5 92t-101.5 33q-77 0 -143.5 -35t-110.5 -92t-73 -118.5t-42 -125.5h37q51 0 104.5 5t121.5 21t119.5 41.5t87.5 72t36 106.5zM750 1047q127 0 197.5 -59.5t70.5 -160.5q0 -69 -24 -127t-62.5 -97t-93 -69t-110 -47.5t-119.5 -28.5t-115 -14.5
t-103 -3.5q-11 0 -29 1t-26 1q-4 -50 -4 -69q0 -57 12.5 -104t40 -86.5t77 -62t116.5 -22.5q129 0 270 90q5 3 8 5l53 -109q-59 -44 -153 -78.5t-205 -34.5q-192 0 -284.5 108t-92.5 296q0 134 41 256t114.5 214.5t182.5 147t238 54.5zM489 1268l25 133h535l-25 -133h-535z
" />
    <glyph glyph-name="Ebreve" unicode="&#x114;" horiz-adv-x="1009" 
d="M168 0l240 1362h761l-22 -141h-602l-80 -455h516l-25 -141h-516l-84 -484h615l-27 -141h-776zM1049 1759l112 -43q-55 -118 -138 -178.5t-220 -60.5q-131 0 -198.5 64t-78.5 173l119 41q14 -84 55.5 -123t122.5 -39q79 0 131 38.5t95 127.5z" />
    <glyph glyph-name="ebreve" unicode="&#x115;" horiz-adv-x="946" 
d="M862 801q0 59 -35.5 92t-101.5 33q-77 0 -143.5 -35t-110.5 -92t-73 -118.5t-42 -125.5h37q51 0 104.5 5t121.5 21t119.5 41.5t87.5 72t36 106.5zM750 1047q127 0 197.5 -59.5t70.5 -160.5q0 -69 -24 -127t-62.5 -97t-93 -69t-110 -47.5t-119.5 -28.5t-115 -14.5
t-103 -3.5q-11 0 -29 1t-26 1q-4 -50 -4 -69q0 -57 12.5 -104t40 -86.5t77 -62t116.5 -22.5q129 0 270 90q5 3 8 5l53 -109q-59 -44 -153 -78.5t-205 -34.5q-192 0 -284.5 108t-92.5 296q0 134 41 256t114.5 214.5t182.5 147t238 54.5zM985 1493l119 -23q-51 -144 -137 -209
t-211 -65q-131 0 -201.5 77t-73.5 197l115 21q10 -95 52.5 -135.5t117.5 -40.5q73 0 122.5 37.5t96.5 140.5z" />
    <glyph glyph-name="Edotaccent" unicode="&#x116;" horiz-adv-x="1009" 
d="M168 0l240 1362h761l-22 -141h-602l-80 -455h516l-25 -141h-516l-84 -484h615l-27 -141h-776zM727 1593q0 52 37 88.5t90 36.5q39 0 64.5 -25.5t25.5 -64.5q0 -53 -38.5 -89t-90.5 -36q-41 0 -64.5 25t-23.5 65z" />
    <glyph glyph-name="edotaccent" unicode="&#x117;" horiz-adv-x="946" 
d="M862 801q0 59 -35.5 92t-101.5 33q-77 0 -143.5 -35t-110.5 -92t-73 -118.5t-42 -125.5h37q51 0 104.5 5t121.5 21t119.5 41.5t87.5 72t36 106.5zM750 1047q127 0 197.5 -59.5t70.5 -160.5q0 -69 -24 -127t-62.5 -97t-93 -69t-110 -47.5t-119.5 -28.5t-115 -14.5
t-103 -3.5q-11 0 -29 1t-26 1q-4 -50 -4 -69q0 -57 12.5 -104t40 -86.5t77 -62t116.5 -22.5q129 0 270 90q5 3 8 5l53 -109q-59 -44 -153 -78.5t-205 -34.5q-192 0 -284.5 108t-92.5 296q0 134 41 256t114.5 214.5t182.5 147t238 54.5zM662 1290q0 52 36.5 88.5t89.5 36.5
q39 0 64 -25.5t25 -64.5q0 -53 -37.5 -89t-89.5 -36q-41 0 -64.5 25t-23.5 65z" />
    <glyph glyph-name="Eogonek" unicode="&#x118;" horiz-adv-x="1009" 
d="M168 0l240 1362h761l-22 -141h-602l-80 -455h516l-25 -141h-516l-84 -484h615l-27 -141q-90 -51 -156.5 -136.5t-66.5 -156.5q0 -72 70 -72q45 0 108 23l16 -102q-86 -39 -180 -39q-85 0 -124.5 42t-39.5 105q0 153 203 336h-606z" />
    <glyph glyph-name="eogonek" unicode="&#x119;" horiz-adv-x="933" 
d="M750 1047q127 0 197.5 -59.5t70.5 -160.5q0 -69 -24 -127t-62.5 -97t-93 -69t-110 -47.5t-119.5 -28.5t-115 -14.5t-103 -3.5q-11 0 -29 1t-26 1q-4 -50 -4 -69q0 -57 12.5 -104t40 -86.5t77 -62t116.5 -22.5q129 0 270 90q5 3 8 5l53 -109q-19 -14 -67 -44t-66 -42
q-87 -56 -145 -138t-58 -153q0 -72 70 -72q46 0 109 23l16 -102q-86 -39 -180 -39q-85 0 -124.5 42t-39.5 105q0 144 174 309q-7 0 -23 -1t-24 -1q-192 0 -284.5 108t-92.5 296q0 134 41 256t114.5 214.5t182.5 147t238 54.5zM862 801q0 59 -35.5 92t-101.5 33
q-77 0 -143.5 -35t-110.5 -92t-73 -118.5t-42 -125.5h37q51 0 104.5 5t121.5 21t119.5 41.5t87.5 72t36 106.5z" />
    <glyph glyph-name="Ecaron" unicode="&#x11a;" horiz-adv-x="1009" 
d="M168 0l240 1362h761l-22 -141h-602l-80 -455h516l-25 -141h-516l-84 -484h615l-27 -141h-776zM606 1806l215 -194l283 200l57 -53q-121 -130 -254 -241q-24 -20 -35 -28t-29.5 -15t-39.5 -7q-28 0 -47.5 12t-44.5 40q-96 116 -170 237z" />
    <glyph glyph-name="ecaron" unicode="&#x11b;" horiz-adv-x="946" 
d="M862 801q0 59 -35.5 92t-101.5 33q-77 0 -143.5 -35t-110.5 -92t-73 -118.5t-42 -125.5h37q51 0 104.5 5t121.5 21t119.5 41.5t87.5 72t36 106.5zM750 1047q127 0 197.5 -59.5t70.5 -160.5q0 -69 -24 -127t-62.5 -97t-93 -69t-110 -47.5t-119.5 -28.5t-115 -14.5
t-103 -3.5q-11 0 -29 1t-26 1q-4 -50 -4 -69q0 -57 12.5 -104t40 -86.5t77 -62t116.5 -22.5q129 0 270 90q5 3 8 5l53 -109q-59 -44 -153 -78.5t-205 -34.5q-192 0 -284.5 108t-92.5 296q0 134 41 256t114.5 214.5t182.5 147t238 54.5zM1042 1561l58 -52
q-112 -130 -244 -262q-55 -55 -104 -55q-30 0 -47.5 11.5t-38.5 41.5q-62 91 -150 268l66 48l188 -215z" />
    <glyph glyph-name="Gcircumflex" unicode="&#x11c;" horiz-adv-x="1267" 
d="M1270 723l-111 -629q-93 -56 -217 -87.5t-256 -31.5q-229 0 -353 135t-124 398q0 188 43 340.5t113 250.5t164.5 164.5t192 94.5t200.5 28q122 0 233.5 -57.5t183.5 -181.5l-120 -74q-117 172 -312 172q-234 0 -381 -198.5t-147 -522.5q0 -199 85.5 -306t258.5 -107
q75 0 162 23t127 50l73 402h-313l29 137h469zM707 1468l-60 54q85 87 260 237q31 27 52.5 37t48.5 10t47.5 -12.5t42.5 -40.5q88 -109 170 -235l-64 -48l-213 193z" />
    <glyph glyph-name="gcircumflex" unicode="&#x11d;" horiz-adv-x="1097" 
d="M426 -539q-137 0 -209 64.5t-72 175.5q0 74 24 133.5t72.5 105.5t106 80t139.5 68q-64 5 -116 25t-96.5 59.5t-69.5 109t-25 164.5q0 142 43.5 256.5t120 189.5t180.5 115t226 40q91 0 195.5 -18.5t178.5 -51.5l-135 -768q-29 -180 -55 -281q-58 -235 -182 -351
t-326 -116zM870 432l80 461q-85 33 -221 33q-55 0 -108 -16t-104.5 -53.5t-90.5 -92.5t-62.5 -140t-23.5 -188q0 -50 10.5 -91.5t34.5 -80t70.5 -60.5t111.5 -22q110 0 196 68.5t107 181.5zM299 -279q0 -137 156 -137q61 0 111 21.5t86 58.5t64 91.5t45.5 113t31.5 131.5
l30 164q-39 -45 -99 -82t-149 -78q-52 -25 -84.5 -42t-72.5 -44.5t-63 -54t-39 -63.5t-17 -79zM543 1192l-62 51q146 170 244 264q30 29 52 41.5t50 12.5q29 0 48 -12t38 -42q59 -86 150 -270l-59 -45l-193 215z" />
    <glyph glyph-name="Gbreve" unicode="&#x11e;" horiz-adv-x="1267" 
d="M1270 723l-111 -629q-93 -56 -217 -87.5t-256 -31.5q-229 0 -353 135t-124 398q0 188 43 340.5t113 250.5t164.5 164.5t192 94.5t200.5 28q122 0 233.5 -57.5t183.5 -181.5l-120 -74q-117 172 -312 172q-234 0 -381 -198.5t-147 -522.5q0 -199 85.5 -306t258.5 -107
q75 0 162 23t127 50l73 402h-313l29 137h469zM1192 1759l113 -43q-55 -117 -138.5 -178t-220.5 -61q-131 0 -198 64t-78 173l118 41q14 -84 56 -123t123 -39q79 0 130.5 38.5t94.5 127.5z" />
    <glyph glyph-name="gbreve" unicode="&#x11f;" horiz-adv-x="1097" 
d="M426 -539q-137 0 -209 64.5t-72 175.5q0 74 24 133.5t72.5 105.5t106 80t139.5 68q-64 5 -116 25t-96.5 59.5t-69.5 109t-25 164.5q0 142 43.5 256.5t120 189.5t180.5 115t226 40q91 0 195.5 -18.5t178.5 -51.5l-135 -768q-29 -180 -55 -281q-58 -235 -182 -351
t-326 -116zM870 432l80 461q-85 33 -221 33q-55 0 -108 -16t-104.5 -53.5t-90.5 -92.5t-62.5 -140t-23.5 -188q0 -50 10.5 -91.5t34.5 -80t70.5 -60.5t111.5 -22q110 0 196 68.5t107 181.5zM299 -279q0 -137 156 -137q61 0 111 21.5t86 58.5t64 91.5t45.5 113t31.5 131.5
l30 164q-39 -45 -99 -82t-149 -78q-52 -25 -84.5 -42t-72.5 -44.5t-63 -54t-39 -63.5t-17 -79zM1024 1493l119 -23q-51 -144 -137 -209t-211 -65q-131 0 -201.5 77t-73.5 197l115 21q10 -95 52.5 -135.5t117.5 -40.5q73 0 122.5 37.5t96.5 140.5z" />
    <glyph glyph-name="Gdotaccent" unicode="&#x120;" horiz-adv-x="1267" 
d="M1270 723l-111 -629q-93 -56 -217 -87.5t-256 -31.5q-229 0 -353 135t-124 398q0 188 43 340.5t113 250.5t164.5 164.5t192 94.5t200.5 28q122 0 233.5 -57.5t183.5 -181.5l-120 -74q-117 172 -312 172q-234 0 -381 -198.5t-147 -522.5q0 -199 85.5 -306t258.5 -107
q75 0 162 23t127 50l73 402h-313l29 137h469zM858 1593q0 52 37 88.5t90 36.5q39 0 64.5 -25.5t25.5 -64.5q0 -53 -38.5 -89t-90.5 -36q-41 0 -64.5 25t-23.5 65z" />
    <glyph glyph-name="gdotaccent" unicode="&#x121;" horiz-adv-x="1097" 
d="M426 -539q-137 0 -209 64.5t-72 175.5q0 74 24 133.5t72.5 105.5t106 80t139.5 68q-64 5 -116 25t-96.5 59.5t-69.5 109t-25 164.5q0 142 43.5 256.5t120 189.5t180.5 115t226 40q91 0 195.5 -18.5t178.5 -51.5l-135 -768q-29 -180 -55 -281q-58 -235 -182 -351
t-326 -116zM870 432l80 461q-85 33 -221 33q-55 0 -108 -16t-104.5 -53.5t-90.5 -92.5t-62.5 -140t-23.5 -188q0 -50 10.5 -91.5t34.5 -80t70.5 -60.5t111.5 -22q110 0 196 68.5t107 181.5zM299 -279q0 -137 156 -137q61 0 111 21.5t86 58.5t64 91.5t45.5 113t31.5 131.5
l30 164q-39 -45 -99 -82t-149 -78q-52 -25 -84.5 -42t-72.5 -44.5t-63 -54t-39 -63.5t-17 -79zM694 1290q0 52 37 88.5t90 36.5q39 0 63.5 -25.5t24.5 -64.5q0 -53 -37.5 -89t-89.5 -36q-41 0 -64.5 25t-23.5 65z" />
    <glyph glyph-name="Gcommaaccent" unicode="&#x122;" horiz-adv-x="1267" 
d="M1270 723l-111 -629q-93 -56 -217 -87.5t-256 -31.5q-229 0 -353 135t-124 398q0 188 43 340.5t113 250.5t164.5 164.5t192 94.5t200.5 28q122 0 233.5 -57.5t183.5 -181.5l-120 -74q-117 172 -312 172q-234 0 -381 -198.5t-147 -522.5q0 -199 85.5 -306t258.5 -107
q75 0 162 23t127 50l73 402h-313l29 137h469zM606 -143l-188 -387l61 -33q181 223 209 264q43 65 43 92q0 59 -125 64z" />
    <glyph glyph-name="gcommaaccent" unicode="&#x123;" horiz-adv-x="1097" 
d="M426 -539q-137 0 -209 64.5t-72 175.5q0 74 24 133.5t72.5 105.5t106 80t139.5 68q-64 5 -116 25t-96.5 59.5t-69.5 109t-25 164.5q0 142 43.5 256.5t120 189.5t180.5 115t226 40q91 0 195.5 -18.5t178.5 -51.5l-135 -768q-29 -180 -55 -281q-58 -235 -182 -351
t-326 -116zM870 432l80 461q-85 33 -221 33q-55 0 -108 -16t-104.5 -53.5t-90.5 -92.5t-62.5 -140t-23.5 -188q0 -50 10.5 -91.5t34.5 -80t70.5 -60.5t111.5 -22q110 0 196 68.5t107 181.5zM299 -279q0 -137 156 -137q61 0 111 21.5t86 58.5t64 91.5t45.5 113t31.5 131.5
l30 164q-39 -45 -99 -82t-149 -78q-52 -25 -84.5 -42t-72.5 -44.5t-63 -54t-39 -63.5t-17 -79zM991 1579l-188 -387q-27 2 -45 4.5t-39 9t-32 19.5t-11 32q0 29 43 93q28 41 209 264z" />
    <glyph glyph-name="Hcircumflex" unicode="&#x124;" horiz-adv-x="1370" 
d="M1278 1362h164l-240 -1362h-164l113 639h-709l-112 -639h-162l240 1362h161l-100 -582h709zM692 1468l-59 54q85 87 260 237q32 27 52.5 37t47.5 10t47.5 -12.5t42.5 -40.5q88 -109 170 -235l-63 -48l-213 193z" />
    <glyph glyph-name="hcircumflex" unicode="&#x125;" horiz-adv-x="1101" 
d="M309 0h-159l251 1423h160l-94 -530q70 78 159 116t181 38q134 0 203 -62.5t69 -185.5q0 -53 -10 -121l-121 -678h-160l115 651q10 58 10 109q0 79 -34.5 119.5t-122.5 40.5q-119 0 -215.5 -78t-114.5 -174zM485 1468l-59 54q85 87 260 237q32 27 52.5 37t47.5 10
q49 0 91 -53q88 -109 170 -235l-64 -48l-213 193z" />
    <glyph glyph-name="Hbar" unicode="&#x126;" horiz-adv-x="1394" 
d="M1290 1362h162l-43 -242h143l-18 -114h-143l-179 -1006h-161l112 639h-708l-113 -639h-164l178 1006h-145l20 114h146l41 242h164l-43 -242h708zM479 780h709l39 226h-709z" />
    <glyph glyph-name="hbar" unicode="&#x127;" horiz-adv-x="1101" 
d="M309 0h-159l206 1169h-129l23 115h127l24 139h160l-26 -139h362l-20 -115h-363l-53 -297q70 78 159 116t181 38q134 0 203 -62.5t69 -185.5q0 -53 -10 -121l-115 -657h-160l109 631q10 58 10 108q0 79 -34.5 119.5t-122.5 40.5q-119 0 -216.5 -78t-113.5 -174z" />
    <glyph glyph-name="Itilde" unicode="&#x128;" horiz-adv-x="501" 
d="M332 0h-162l240 1362h161zM252 1513l4 119q82 56 176 56q52 0 132 -26t124 -26q61 0 129 35l-6 -127q-79 -35 -141 -35q-45 0 -135.5 21.5t-128.5 21.5q-75 0 -154 -39z" />
    <glyph glyph-name="itilde" unicode="&#x129;" horiz-adv-x="460" 
d="M313 0h-159l180 1018h160zM186 1266l9 118q79 56 172 56q54 0 134.5 -25.5t125.5 -25.5q61 0 127 34l-6 -125q-74 -36 -144 -36q-45 0 -134.5 22.5t-127.5 22.5q-75 0 -156 -41z" />
    <glyph glyph-name="Imacron" unicode="&#x12a;" horiz-adv-x="501" 
d="M332 0h-162l240 1362h161zM254 1520l22 133h535l-23 -133h-534z" />
    <glyph glyph-name="imacron" unicode="&#x12b;" horiz-adv-x="460" 
d="M313 0h-159l180 1018h160zM188 1268l25 133h535l-25 -133h-535z" />
    <glyph glyph-name="Ibreve" unicode="&#x12c;" horiz-adv-x="501" 
d="M332 0h-162l240 1362h161zM758 1759l112 -43q-55 -118 -138 -178.5t-220 -60.5q-131 0 -198 64t-78 173l118 41q14 -84 55.5 -123t122.5 -39q79 0 131 38.5t95 127.5z" />
    <glyph glyph-name="ibreve" unicode="&#x12d;" horiz-adv-x="460" 
d="M313 0h-159l180 1018h160zM688 1493l119 -23q-51 -144 -137 -209t-211 -65q-131 0 -201.5 77t-73.5 197l115 21q10 -95 52.5 -135.5t117.5 -40.5q73 0 122.5 37.5t96.5 140.5z" />
    <glyph glyph-name="Iogonek" unicode="&#x12e;" horiz-adv-x="501" 
d="M332 0q-80 -53 -143.5 -138.5t-63.5 -154.5q0 -72 70 -72q45 0 108 23l16 -102q-86 -39 -180 -39q-85 0 -124.5 42t-39.5 105q0 49 17.5 97.5t50.5 93.5t60.5 76t66.5 69l240 1362h161z" />
    <glyph glyph-name="iogonek" unicode="&#x12f;" horiz-adv-x="460" 
d="M313 0q-75 -54 -136.5 -139.5t-61.5 -153.5q0 -72 69 -72q46 0 109 23l16 -102q-86 -39 -180 -39q-85 0 -124.5 42t-39.5 105q0 160 189 336l180 1018h160zM356 1290q0 52 37 88.5t90 36.5q39 0 63.5 -25.5t24.5 -64.5q0 -53 -37.5 -89t-89.5 -36q-41 0 -64.5 25
t-23.5 65z" />
    <glyph glyph-name="Idotaccent" unicode="&#x130;" horiz-adv-x="501" 
d="M332 0h-162l240 1362h161zM428 1593q0 52 37 88.5t90 36.5q39 0 64.5 -25.5t25.5 -64.5q0 -53 -38.5 -89t-90.5 -36q-41 0 -64.5 25t-23.5 65z" />
    <glyph glyph-name="dotlessi" unicode="&#x131;" horiz-adv-x="460" 
d="M313 0h-159l180 1018h160z" />
    <glyph glyph-name="IJ" unicode="&#x132;" horiz-adv-x="1357" 
d="M332 0h-162l240 1362h161zM543 92l82 117q45 -42 108.5 -69t132.5 -27q105 0 154.5 54.5t66.5 154.5l183 1040h162l-191 -1077q-29 -157 -118.5 -233.5t-266.5 -76.5q-187 0 -313 117z" />
    <glyph glyph-name="ij" unicode="&#x133;" horiz-adv-x="921" 
d="M313 0h-159l180 1018h160zM356 1290q0 52 37 88.5t90 36.5q39 0 63.5 -25.5t24.5 -64.5q0 -53 -37.5 -89t-89.5 -36q-41 0 -64.5 25t-23.5 65zM594 -123l201 1141h159l-196 -1106q-9 -52 -15 -83t-19 -75.5t-27.5 -70.5t-39 -56t-55.5 -46t-75 -27t-99 -11
q-57 0 -128.5 19t-109.5 47l66 115q79 -50 164 -50q73 0 113 44.5t61 158.5zM821 1290q0 52 37 88.5t90 36.5q39 0 63.5 -25.5t24.5 -64.5q0 -53 -37.5 -89t-89.5 -36q-41 0 -64.5 25t-23.5 65z" />
    <glyph glyph-name="Jcircumflex" unicode="&#x134;" horiz-adv-x="856" 
d="M41 92l82 117q45 -42 109 -69t133 -27q105 0 154.5 54.5t66.5 154.5l182 1040h162l-191 -1077q-29 -157 -118.5 -233.5t-266.5 -76.5q-187 0 -313 117zM629 1468l-60 54q85 87 260 237q31 27 52.5 37t48.5 10t47.5 -12.5t42.5 -40.5q88 -109 170 -235l-64 -48l-213 193z
" />
    <glyph glyph-name="jcircumflex" unicode="&#x135;" horiz-adv-x="460" 
d="M133 -123l201 1141h160l-197 -1106q-9 -52 -15 -83t-19 -75.5t-27.5 -70.5t-39 -56t-55.5 -46t-75 -27t-99 -11q-57 0 -128 19t-109 47l65 115q79 -50 164 -50q73 0 113 44.5t61 158.5zM221 1192l-61 51q151 175 243 264q30 28 52.5 41t50.5 13q29 0 48 -12t38 -42
q55 -80 149 -270l-59 -45l-193 215z" />
    <glyph glyph-name="Kcommaaccent" unicode="&#x136;" horiz-adv-x="1159" 
d="M1333 1362l-485 -535l287 -827h-181l-239 694l-326 -346l-61 -348h-160l240 1362h159l-139 -782l721 782h184zM530 -143l-188 -387l61 -33q181 223 209 264q43 65 43 92q0 59 -125 64z" />
    <glyph glyph-name="kcommaaccent" unicode="&#x137;" horiz-adv-x="1013" 
d="M1069 819q0 -133 -74 -243.5t-235 -178.5l151 -397h-166l-137 356q-105 -24 -241 -30l-56 -326h-159l249 1423h160l-117 -663q60 124 164 205.5t234 81.5q104 0 165.5 -62t61.5 -166zM389 453q249 17 382.5 108t133.5 238q0 53 -25.5 83.5t-72.5 30.5q-75 0 -162.5 -72.5
t-156 -178.5t-99.5 -209zM424 -143l-188 -387l61 -33q181 223 209 264q43 65 43 92q0 59 -125 64z" />
    <glyph glyph-name="kgreenlandic" unicode="&#x138;" horiz-adv-x="997" 
d="M1069 819q0 -148 -83 -260t-255 -168l172 -391h-172l-151 358q-95 -15 -209 -12l-60 -346h-159l178 1018h159l-45 -250q61 125 163.5 202t234.5 77q104 0 165.5 -62t61.5 -166zM393 471q237 -6 374.5 80t137.5 248q0 55 -27 81.5t-73 26.5q-116 0 -238 -129t-174 -307z
" />
    <glyph glyph-name="Lacute" unicode="&#x139;" horiz-adv-x="997" 
d="M170 0l240 1362h163l-215 -1223h607l-25 -139h-770zM389 1528l346 287q84 -51 84 -93q0 -29 -21 -50t-63 -46q-98 -57 -305 -160z" />
    <glyph glyph-name="lacute" unicode="&#x13a;" horiz-adv-x="618" 
d="M403 1421h160l-196 -1112q-2 -15 -6 -41.5t-6.5 -44t-2.5 -30.5q0 -56 24.5 -76.5t82.5 -20.5q51 0 143 37l25 -113q-37 -22 -97.5 -35.5t-123.5 -13.5q-118 0 -167 49.5t-49 147.5q0 45 15 133zM369 1538l346 287q84 -51 84 -92q0 -29 -21.5 -50.5t-62.5 -46.5
q-87 -51 -305 -159z" />
    <glyph glyph-name="Lcommaaccent" unicode="&#x13b;" horiz-adv-x="997" 
d="M170 0l240 1362h163l-215 -1223h607l-25 -139h-770zM459 -143l-189 -387l62 -33q181 223 209 264q43 65 43 92q0 59 -125 64z" />
    <glyph glyph-name="lcommaaccent" unicode="&#x13c;" horiz-adv-x="618" 
d="M403 1421h160l-196 -1112q-2 -15 -6 -41.5t-6.5 -44t-2.5 -30.5q0 -56 24.5 -76.5t82.5 -20.5q51 0 143 37l25 -113q-37 -22 -97.5 -35.5t-123.5 -13.5q-118 0 -167 49.5t-49 147.5q0 45 15 133zM297 -143l-188 -387l61 -33q181 223 209 264q43 65 43 92q0 59 -125 64z
" />
    <glyph glyph-name="Lcaron" unicode="&#x13d;" horiz-adv-x="997" 
d="M170 0l240 1362h163l-215 -1223h607l-25 -139h-770zM829 1350l-69 -406l74 -14q147 313 147 379q0 23 -15 38t-46 15q-29 0 -91 -12z" />
    <glyph glyph-name="lcaron" unicode="&#x13e;" horiz-adv-x="618" 
d="M403 1421h160l-196 -1112q-2 -15 -6 -41.5t-6.5 -44t-2.5 -30.5q0 -56 24.5 -76.5t82.5 -20.5q51 0 143 37l25 -113q-37 -22 -97.5 -35.5t-123.5 -13.5q-118 0 -167 49.5t-49 147.5q0 45 15 133zM637 1010l70 405q62 12 90 12q31 0 46 -15t15 -38q0 -66 -147 -379z" />
    <glyph glyph-name="Ldot" unicode="&#x13f;" horiz-adv-x="997" 
d="M170 0l240 1362h163l-215 -1223h607l-25 -139h-770zM752 707q0 52 37 88t90 36q39 0 64.5 -25.5t25.5 -64.5q0 -53 -38.5 -89t-90.5 -36q-41 0 -64.5 25.5t-23.5 65.5z" />
    <glyph glyph-name="ldot" unicode="&#x140;" horiz-adv-x="665" 
d="M403 1421h160l-196 -1112q-2 -15 -6 -41.5t-6.5 -44t-2.5 -30.5q0 -56 24.5 -76.5t82.5 -20.5q51 0 143 37l25 -113q-37 -22 -97.5 -35.5t-123.5 -13.5q-118 0 -167 49.5t-49 147.5q0 45 15 133zM571 709q0 52 37 88.5t90 36.5q39 0 64.5 -26t25.5 -65q0 -53 -38.5 -89
t-90.5 -36q-41 0 -64.5 25.5t-23.5 65.5z" />
    <glyph glyph-name="Lslash" unicode="&#x141;" horiz-adv-x="997" 
d="M115 457l-49 108l225 111l121 686h159l-108 -610l424 200l45 -110l-494 -234l-84 -469h609l-23 -139h-768l92 530z" />
    <glyph glyph-name="lslash" unicode="&#x142;" horiz-adv-x="690" 
d="M475 1423h158l-103 -583l232 161l61 -92l-319 -219l-72 -403q-10 -58 -10 -88q0 -54 24.5 -77.5t81.5 -23.5q65 0 144 35l16 -110q-36 -22 -96 -37t-121 -15q-120 0 -166.5 49t-46.5 132q0 38 12 112l56 316l-164 -119l-66 92l256 178z" />
    <glyph glyph-name="Nacute" unicode="&#x143;" horiz-adv-x="1368" 
d="M1280 1362h160l-240 -1362h-176l-496 1143l-198 -1143h-162l240 1362h190l485 -1129zM786 1528l347 287q84 -51 84 -93q0 -29 -21 -50t-63 -46q-92 -54 -306 -160z" />
    <glyph glyph-name="nacute" unicode="&#x144;" horiz-adv-x="1105" 
d="M311 0h-159l153 864l14 154h140l-8 -148q73 86 166.5 131.5t193.5 45.5q271 0 274 -250q0 -49 -12 -123l-121 -674h-159l112 645q10 65 10 115q0 160 -153 160q-122 0 -219 -78t-113 -174zM629 1208l278 359q115 -28 115 -82q0 -35 -64 -96q-47 -46 -272 -232z" />
    <glyph glyph-name="Ncommaaccent" unicode="&#x145;" horiz-adv-x="1368" 
d="M1280 1362h160l-240 -1362h-176l-496 1143l-198 -1143h-162l240 1362h190l485 -1129zM616 -143l-188 -387l61 -33q181 223 209 264q43 65 43 92q0 59 -125 64z" />
    <glyph glyph-name="ncommaaccent" unicode="&#x146;" horiz-adv-x="1105" 
d="M311 0h-159l153 864l14 154h140l-8 -148q73 86 166.5 131.5t193.5 45.5q271 0 274 -250q0 -49 -12 -123l-121 -674h-159l112 645q10 65 10 115q0 160 -153 160q-122 0 -219 -78t-113 -174zM487 -143l-188 -387l61 -33q181 223 209 264q43 65 43 92q0 59 -125 64z" />
    <glyph glyph-name="Ncaron" unicode="&#x147;" horiz-adv-x="1368" 
d="M1280 1362h160l-240 -1362h-176l-496 1143l-198 -1143h-162l240 1362h190l485 -1129zM741 1806l215 -194l283 200l57 -53q-121 -130 -254 -241q-24 -20 -35 -28t-29.5 -15t-39.5 -7q-28 0 -47.5 12t-44.5 40q-96 116 -170 237z" />
    <glyph glyph-name="ncaron" unicode="&#x148;" horiz-adv-x="1105" 
d="M311 0h-159l153 864l14 154h140l-8 -148q73 86 166.5 131.5t193.5 45.5q271 0 274 -250q0 -49 -12 -123l-121 -674h-159l112 645q10 65 10 115q0 160 -153 160q-122 0 -219 -78t-113 -174zM1063 1561l57 -52q-118 -137 -243 -262q-55 -55 -105 -55q-30 0 -47.5 11.5
t-38.5 41.5q-59 86 -149 268l65 48l189 -215z" />
    <glyph glyph-name="napostrophe" unicode="&#x149;" horiz-adv-x="1105" 
d="M311 0h-159l153 864l14 154h140l-8 -148q73 86 166.5 131.5t193.5 45.5q271 0 274 -250q0 -49 -12 -123l-121 -674h-159l112 645q10 65 10 115q0 160 -153 160q-122 0 -219 -78t-113 -174zM272 1118l144 402q14 2 43 2q86 0 86 -56q0 -49 -51 -131q-34 -55 -160 -239z
" />
    <glyph glyph-name="Eng" unicode="&#x14a;" horiz-adv-x="1361" 
d="M1272 1362h162l-258 -1460q-14 -81 -37.5 -138.5t-65.5 -105t-109.5 -71t-160.5 -23.5q-97 0 -184 35.5t-123 78.5l86 111q94 -90 217 -90q100 0 150 54t67 151l12 69l-506 1164h-2l-198 -1137h-162l239 1362h191l483 -1120h2z" />
    <glyph glyph-name="eng" unicode="&#x14b;" horiz-adv-x="1105" 
d="M311 0h-159l153 864l14 154h140l-8 -148q73 86 166.5 131.5t193.5 45.5q271 0 274 -250q0 -49 -12 -123l-137 -762q-10 -54 -16 -83t-19 -74.5t-27 -70.5t-39 -56t-55.5 -47t-74.5 -27t-99 -11q-57 0 -128 19t-109 47l67 115q79 -50 162 -50q71 0 113 45.5t61 157.5
l133 768q10 65 10 115q0 160 -153 160q-122 0 -219 -78t-113 -174z" />
    <glyph glyph-name="Omacron" unicode="&#x14c;" horiz-adv-x="1353" 
d="M1364 651q-29 -176 -92 -307.5t-154 -211.5t-201 -118.5t-241 -38.5q-226 0 -346.5 129.5t-120.5 372.5q0 112 20 223q27 153 80.5 273t121 196.5t152.5 126t169 70t176 20.5q98 0 180 -31.5t143.5 -93t96 -159.5t34.5 -225q0 -103 -18 -226zM395 694q-18 -119 -18 -207
q0 -58 9.5 -109.5t33 -101t60.5 -85t95 -57t132 -21.5q108 0 194.5 43t144.5 120t95 173t55 213q14 100 14 192q0 59 -8.5 112.5t-30.5 106t-55.5 90t-87.5 61t-123 23.5q-108 0 -198 -45t-151.5 -123.5t-101.5 -175.5t-59 -209zM684 1520l23 133h534l-22 -133h-535z" />
    <glyph glyph-name="omacron" unicode="&#x14d;" horiz-adv-x="1064" 
d="M545 94q-215 0 -215 266q0 97 14 177q29 177 120.5 281t233.5 104q109 0 161 -71t52 -196q0 -98 -12 -166q-30 -183 -121 -289t-233 -106zM184 535q-16 -84 -16 -183q0 -185 93.5 -283t262.5 -98q455 0 541 547q10 59 10 158q0 90 -25 159t-62.5 108t-88.5 63.5t-94 32.5
t-88 8q-64 0 -123.5 -12t-126.5 -46.5t-120 -89.5t-97.5 -148.5t-65.5 -215.5zM494 1268l24 133h535l-25 -133h-534z" />
    <glyph glyph-name="Obreve" unicode="&#x14e;" horiz-adv-x="1353" 
d="M1364 651q-29 -176 -92 -307.5t-154 -211.5t-201 -118.5t-241 -38.5q-226 0 -346.5 129.5t-120.5 372.5q0 112 20 223q27 153 80.5 273t121 196.5t152.5 126t169 70t176 20.5q98 0 180 -31.5t143.5 -93t96 -159.5t34.5 -225q0 -103 -18 -226zM395 694q-18 -119 -18 -207
q0 -58 9.5 -109.5t33 -101t60.5 -85t95 -57t132 -21.5q108 0 194.5 43t144.5 120t95 173t55 213q14 100 14 192q0 59 -8.5 112.5t-30.5 106t-55.5 90t-87.5 61t-123 23.5q-108 0 -198 -45t-151.5 -123.5t-101.5 -175.5t-59 -209zM1192 1759l113 -43q-55 -117 -138.5 -178
t-220.5 -61q-131 0 -198 64t-78 173l118 41q14 -84 56 -123t123 -39q79 0 130.5 38.5t94.5 127.5z" />
    <glyph glyph-name="obreve" unicode="&#x14f;" horiz-adv-x="1064" 
d="M545 94q-215 0 -215 266q0 97 14 177q29 177 120.5 281t233.5 104q109 0 161 -71t52 -196q0 -98 -12 -166q-30 -183 -121 -289t-233 -106zM184 535q-16 -84 -16 -183q0 -185 93.5 -283t262.5 -98q455 0 541 547q10 59 10 158q0 90 -25 159t-62.5 108t-88.5 63.5t-94 32.5
t-88 8q-64 0 -123.5 -12t-126.5 -46.5t-120 -89.5t-97.5 -148.5t-65.5 -215.5zM991 1493l119 -23q-51 -144 -137 -209t-211 -65q-131 0 -201.5 77t-73.5 197l115 21q10 -95 52.5 -135.5t117.5 -40.5q73 0 122.5 37.5t96.5 140.5z" />
    <glyph glyph-name="Ohungarumlaut" unicode="&#x150;" horiz-adv-x="1353" 
d="M1364 651q-29 -176 -92 -307.5t-154 -211.5t-201 -118.5t-241 -38.5q-226 0 -346.5 129.5t-120.5 372.5q0 112 20 223q27 153 80.5 273t121 196.5t152.5 126t169 70t176 20.5q98 0 180 -31.5t143.5 -93t96 -159.5t34.5 -225q0 -103 -18 -226zM395 694q-18 -119 -18 -207
q0 -58 9.5 -109.5t33 -101t60.5 -85t95 -57t132 -21.5q108 0 194.5 43t144.5 120t95 173t55 213q14 100 14 192q0 59 -8.5 112.5t-30.5 106t-55.5 90t-87.5 61t-123 23.5q-108 0 -198 -45t-151.5 -123.5t-101.5 -175.5t-59 -209zM1020 1530l334 285q29 -20 42 -29.5
t28.5 -29t15.5 -36.5q0 -19 -13 -37.5t-27.5 -29.5t-43.5 -29q-60 -38 -295 -158zM643 1526l338 291q84 -57 84 -97q0 -19 -14 -38t-27 -28.5t-43 -29.5q-76 -47 -297 -158z" />
    <glyph glyph-name="ohungarumlaut" unicode="&#x151;" horiz-adv-x="1064" 
d="M545 94q142 0 233 106t121 289q12 68 12 166q0 125 -52 196t-161 71q-142 0 -233.5 -104t-120.5 -281q-14 -80 -14 -177q0 -266 215 -266zM184 535q21 122 65.5 215.5t97.5 148.5t120 89.5t126.5 46.5t123.5 12q45 0 88 -8t94 -32.5t88.5 -63.5t62.5 -108t25 -159
q0 -99 -10 -158q-86 -547 -541 -547q-169 0 -262.5 98t-93.5 283q0 99 16 183zM815 1208l281 359q33 -9 53.5 -17t41.5 -25.5t21 -39.5q0 -38 -61 -96q-47 -46 -272 -232zM485 1208l281 359q117 -29 117 -82q0 -34 -62 -96q-63 -58 -272 -232z" />
    <glyph glyph-name="OE" unicode="&#x152;" horiz-adv-x="1757" 
d="M952 1386q110 0 211 -24h754l-25 -141h-600l-80 -455h514l-24 -141h-516l-84 -484h614l-24 -141h-772q-127 -27 -222 -27q-232 0 -359.5 140.5t-127.5 402.5q0 187 44 337.5t116.5 248t170 163t199.5 93.5t211 28zM381 537q0 -424 364 -424q113 0 193 30l190 1071
q-81 31 -194 31q-110 0 -202.5 -40.5t-156 -109.5t-108.5 -160.5t-65.5 -192t-20.5 -205.5z" />
    <glyph glyph-name="oe" unicode="&#x153;" horiz-adv-x="1638" 
d="M1452 1047q127 0 197.5 -59.5t70.5 -160.5q0 -69 -24 -127t-62.5 -97t-92.5 -69t-109.5 -47.5t-119.5 -28.5t-115 -14.5t-103 -3.5q-10 0 -29 1t-27 1q-4 -50 -4 -69q0 -57 12.5 -104t40 -86.5t77 -62t116.5 -22.5q129 0 271 90l4.5 3t3.5 2l53 -109
q-59 -44 -153.5 -78.5t-205.5 -34.5q-256 0 -325 205q-129 -205 -404 -205q-169 0 -262.5 98t-93.5 283q0 99 16 183q21 122 65.5 215.5t97.5 148.5t120 89.5t126.5 46.5t123.5 12q44 0 86.5 -9.5t88.5 -31.5t84 -67.5t58 -109.5q74 103 179.5 160.5t238.5 57.5zM545 94
q142 0 233 106t121 289q12 68 12 166q0 125 -52 196t-161 71q-142 0 -233.5 -104t-120.5 -281q-14 -80 -14 -177q0 -266 215 -266zM1565 801q0 59 -36 92t-102 33q-62 0 -118 -23.5t-96 -61.5t-72.5 -87.5t-52 -99t-29.5 -99.5h37q51 0 104.5 5t121.5 21t119.5 41.5t87.5 72
t36 106.5z" />
    <glyph glyph-name="Racute" unicode="&#x154;" horiz-adv-x="1198" 
d="M430 561l-100 -561h-162l240 1362h432q405 0 405 -313q0 -97 -29.5 -174.5t-80.5 -127t-106 -79.5t-118 -47q46 -17 68 -46.5t41 -97.5l137 -477h-172l-125 430q-19 67 -47.5 99t-87.5 32h-295zM451 688h266q162 0 261 90t99 244q0 54 -16.5 92t-43.5 60.5t-74.5 34.5
t-96 16t-121.5 4h-178zM684 1528l346 287q84 -51 84 -93q0 -29 -21 -50t-63 -46q-98 -57 -305 -160z" />
    <glyph glyph-name="racute" unicode="&#x155;" horiz-adv-x="708" 
d="M428 655l-115 -655h-159l155 879l10 139h140l-10 -154q41 84 114.5 133.5t165.5 49.5q100 0 162 -43l-62 -127q-56 32 -129 32q-96 0 -172 -74t-100 -180zM510 1208l278 359q115 -28 115 -82q0 -36 -63 -96q-41 -40 -273 -232z" />
    <glyph glyph-name="Rcommaaccent" unicode="&#x156;" horiz-adv-x="1198" 
d="M430 561l-100 -561h-162l240 1362h432q405 0 405 -313q0 -97 -29.5 -174.5t-80.5 -127t-106 -79.5t-118 -47q46 -17 68 -46.5t41 -97.5l137 -477h-172l-125 430q-19 67 -47.5 99t-87.5 32h-295zM451 688h266q162 0 261 90t99 244q0 54 -16.5 92t-43.5 60.5t-74.5 34.5
t-96 16t-121.5 4h-178zM522 -143l-188 -387l61 -33q181 223 209 264q43 65 43 92q0 59 -125 64z" />
    <glyph glyph-name="rcommaaccent" unicode="&#x157;" horiz-adv-x="708" 
d="M428 655l-115 -655h-159l155 879l10 139h140l-10 -154q41 84 114.5 133.5t165.5 49.5q100 0 162 -43l-62 -127q-56 32 -129 32q-96 0 -172 -74t-100 -180zM152 -143l-189 -387l62 -33q174 215 208 264q43 65 43 92q0 59 -124 64z" />
    <glyph glyph-name="Rcaron" unicode="&#x158;" horiz-adv-x="1198" 
d="M430 561l-100 -561h-162l240 1362h432q405 0 405 -313q0 -97 -29.5 -174.5t-80.5 -127t-106 -79.5t-118 -47q46 -17 68 -46.5t41 -97.5l137 -477h-172l-125 430q-19 67 -47.5 99t-87.5 32h-295zM451 688h266q162 0 261 90t99 244q0 54 -16.5 92t-43.5 60.5t-74.5 34.5
t-96 16t-121.5 4h-178zM606 1806l215 -194l283 200l57 -53q-121 -130 -254 -241q-24 -20 -35 -28t-29.5 -15t-39.5 -7q-28 0 -47.5 12t-44.5 40q-96 116 -170 237z" />
    <glyph glyph-name="rcaron" unicode="&#x159;" horiz-adv-x="708" 
d="M428 655l-115 -655h-159l155 879l10 139h140l-10 -154q41 84 114.5 133.5t165.5 49.5q100 0 162 -43l-62 -127q-56 32 -129 32q-96 0 -172 -74t-100 -180zM901 1561l57 -52q-118 -137 -243 -262q-55 -55 -105 -55q-30 0 -47.5 11.5t-38.5 41.5q-59 86 -149 268l65 48
l189 -215z" />
    <glyph glyph-name="Sacute" unicode="&#x15a;" horiz-adv-x="1089" 
d="M123 117l86 129q61 -47 153.5 -88t200.5 -41q48 0 90.5 6t87.5 23.5t77 45t52.5 74t20.5 107.5q0 32 -8.5 59.5t-19.5 48t-35 40.5t-42 32.5t-54.5 29.5t-57.5 26t-66 26q-48 19 -79 33t-73.5 37t-69.5 48t-52.5 58.5t-38 77.5t-12.5 96q0 186 131 293.5t352 107.5
q138 0 251 -55t179 -133l-106 -104q-148 151 -332 151q-54 0 -103 -11t-95 -35t-73.5 -71t-27.5 -112q0 -43 14.5 -78t38 -59.5t59 -46.5t69.5 -37.5t78 -33.5q9 -3 13 -5q45 -19 69 -29.5t65.5 -32t64.5 -39.5t52.5 -47t45 -59t26.5 -71.5t11 -88.5q0 -190 -133 -302
t-371 -112q-141 0 -264 46.5t-174 95.5zM641 1528l346 287q84 -51 84 -93q0 -29 -21 -50t-63 -46q-98 -57 -305 -160z" />
    <glyph glyph-name="sacute" unicode="&#x15b;" horiz-adv-x="829" 
d="M80 74l72 112q130 -92 272 -92q104 0 171 46.5t67 138.5q0 69 -44.5 106t-140.5 68q-35 11 -55.5 18.5t-53 21.5t-52 27.5t-42.5 35t-36 46t-22 58t-9 73.5q0 147 107.5 230.5t269.5 83.5q106 0 194.5 -43t136.5 -105l-92 -86q-99 111 -243 111q-94 0 -154.5 -42
t-60.5 -124q0 -42 13 -71.5t49.5 -52.5t59 -33t83.5 -32q7 -3 10 -4q55 -20 91.5 -38.5t73.5 -48.5t55.5 -74t18.5 -101q0 -161 -105 -246.5t-292 -85.5q-116 0 -210 33t-132 70zM510 1208l278 359q115 -28 115 -82q0 -36 -63 -96q-41 -40 -273 -232z" />
    <glyph glyph-name="Scircumflex" unicode="&#x15c;" horiz-adv-x="1089" 
d="M123 117l86 129q61 -47 153.5 -88t200.5 -41q48 0 90.5 6t87.5 23.5t77 45t52.5 74t20.5 107.5q0 32 -8.5 59.5t-19.5 48t-35 40.5t-42 32.5t-54.5 29.5t-57.5 26t-66 26q-48 19 -79 33t-73.5 37t-69.5 48t-52.5 58.5t-38 77.5t-12.5 96q0 186 131 293.5t352 107.5
q138 0 251 -55t179 -133l-106 -104q-148 151 -332 151q-54 0 -103 -11t-95 -35t-73.5 -71t-27.5 -112q0 -43 14.5 -78t38 -59.5t59 -46.5t69.5 -37.5t78 -33.5q9 -3 13 -5q45 -19 69 -29.5t65.5 -32t64.5 -39.5t52.5 -47t45 -59t26.5 -71.5t11 -88.5q0 -190 -133 -302
t-371 -112q-141 0 -264 46.5t-174 95.5zM580 1468l-60 54q85 87 260 237q31 27 52.5 37t48.5 10t47.5 -12.5t42.5 -40.5q88 -109 170 -235l-64 -48l-213 193z" />
    <glyph glyph-name="scircumflex" unicode="&#x15d;" horiz-adv-x="829" 
d="M80 74l72 112q130 -92 272 -92q104 0 171 46.5t67 138.5q0 69 -44.5 106t-140.5 68q-35 11 -55.5 18.5t-53 21.5t-52 27.5t-42.5 35t-36 46t-22 58t-9 73.5q0 147 107.5 230.5t269.5 83.5q106 0 194.5 -43t136.5 -105l-92 -86q-99 111 -243 111q-94 0 -154.5 -42
t-60.5 -124q0 -42 13 -71.5t49.5 -52.5t59 -33t83.5 -32q7 -3 10 -4q55 -20 91.5 -38.5t73.5 -48.5t55.5 -74t18.5 -101q0 -161 -105 -246.5t-292 -85.5q-116 0 -210 33t-132 70zM426 1192l-61 51q151 175 243 264q30 28 52.5 41t50.5 13q29 0 48 -12t38 -42
q55 -80 149 -270l-59 -45l-193 215z" />
    <glyph glyph-name="Scedilla" unicode="&#x15e;" horiz-adv-x="1089" 
d="M123 117l86 129q61 -47 153.5 -88t200.5 -41q48 0 90.5 6t87.5 23.5t77 45t52.5 74t20.5 107.5q0 32 -8.5 59.5t-19.5 48t-35 40.5t-42 32.5t-54.5 29.5t-57.5 26t-66 26q-48 19 -79 33t-73.5 37t-69.5 48t-52.5 58.5t-38 77.5t-12.5 96q0 186 131 293.5t352 107.5
q138 0 251 -55t179 -133l-106 -104q-148 151 -332 151q-54 0 -103 -11t-95 -35t-73.5 -71t-27.5 -112q0 -43 14.5 -78t38 -59.5t59 -46.5t69.5 -37.5t78 -33.5q9 -3 13 -5q45 -19 69 -29.5t65.5 -32t64.5 -39.5t52.5 -47t45 -59t26.5 -71.5t11 -88.5q0 -180 -119 -290
t-334 -122l-61 -124q69 -5 112.5 -42t43.5 -102t-36.5 -109.5t-89.5 -62.5t-116 -18q-105 0 -172 39l43 86q65 -27 129 -27q60 0 89.5 23.5t29.5 60.5q0 44 -39 62t-129 16l98 198q-128 8 -236.5 52t-154.5 88z" />
    <glyph glyph-name="scedilla" unicode="&#x15f;" horiz-adv-x="829" 
d="M80 74l72 112q130 -92 272 -92q103 0 168 46.5t65 138.5q0 69 -47 108t-133 66q-34 10 -56 18t-53 21.5t-51.5 27.5t-43.5 35.5t-36.5 46t-22.5 58t-9 73.5q0 147 108.5 230.5t270.5 83.5q106 0 194.5 -43t136.5 -105l-92 -86q-99 111 -243 111q-94 0 -156 -42t-62 -124
q0 -41 13 -70.5t49.5 -52.5t59.5 -33t83 -32q9 -3 13 -5q53 -19 89 -37.5t73.5 -48.5t57 -74.5t19.5 -101.5q0 -147 -89.5 -231.5t-248.5 -98.5l-59 -120q69 -5 112.5 -42t43.5 -102t-36.5 -109.5t-89.5 -62.5t-116 -18q-105 0 -172 39l43 86q65 -27 129 -27q60 0 89.5 23.5
t29.5 60.5q0 44 -39 62t-129 16l96 194q-105 5 -187.5 36.5t-115.5 64.5z" />
    <glyph glyph-name="Scaron" unicode="&#x160;" horiz-adv-x="1089" 
d="M123 117l86 129q61 -47 153.5 -88t200.5 -41q48 0 90.5 6t87.5 23.5t77 45t52.5 74t20.5 107.5q0 32 -8.5 59.5t-19.5 48t-35 40.5t-42 32.5t-54.5 29.5t-57.5 26t-66 26q-48 19 -79 33t-73.5 37t-69.5 48t-52.5 58.5t-38 77.5t-12.5 96q0 186 131 293.5t352 107.5
q138 0 251 -55t179 -133l-106 -104q-148 151 -332 151q-54 0 -103 -11t-95 -35t-73.5 -71t-27.5 -112q0 -43 14.5 -78t38 -59.5t59 -46.5t69.5 -37.5t78 -33.5q9 -3 13 -5q45 -19 69 -29.5t65.5 -32t64.5 -39.5t52.5 -47t45 -59t26.5 -71.5t11 -88.5q0 -190 -133 -302
t-371 -112q-141 0 -264 46.5t-174 95.5zM623 1806l215 -194l282 200l58 -53q-121 -130 -254 -241q-23 -19 -34.5 -27.5t-30.5 -15.5t-40 -7q-28 0 -47.5 12t-44.5 40q-96 116 -170 237z" />
    <glyph glyph-name="scaron" unicode="&#x161;" horiz-adv-x="829" 
d="M80 74l72 112q130 -92 272 -92q104 0 171 46.5t67 138.5q0 69 -44.5 106t-140.5 68q-35 11 -55.5 18.5t-53 21.5t-52 27.5t-42.5 35t-36 46t-22 58t-9 73.5q0 147 107.5 230.5t269.5 83.5q106 0 194.5 -43t136.5 -105l-92 -86q-99 111 -243 111q-94 0 -154.5 -42
t-60.5 -124q0 -42 13 -71.5t49.5 -52.5t59 -33t83.5 -32q7 -3 10 -4q55 -20 91.5 -38.5t73.5 -48.5t55.5 -74t18.5 -101q0 -161 -105 -246.5t-292 -85.5q-116 0 -210 33t-132 70zM930 1561l57 -52q-112 -130 -244 -262q-55 -55 -104 -55q-30 0 -47.5 11.5t-38.5 41.5
q-62 91 -150 268l66 48l188 -215z" />
    <glyph glyph-name="uni0162" unicode="&#x162;" horiz-adv-x="1058" 
d="M279 1362h983l-25 -141h-414l-217 -1221h-39l-71 -147q69 -5 112 -42t43 -102t-36.5 -109.5t-89 -62.5t-115.5 -18q-105 0 -172 39l43 86q65 -27 129 -27q59 0 88.5 23.5t29.5 60.5q0 44 -39 62t-129 16l109 221h-25l218 1221h-408z" />
    <glyph glyph-name="uni0163" unicode="&#x163;" horiz-adv-x="681" 
d="M403 1423h160l-71 -405h292l-24 -137h-293l-107 -607q-8 -50 -8 -77q1 -61 29 -81t92 -20q72 0 166 51l41 -108q-41 -28 -104.5 -46.5t-124.5 -21.5l-58 -118q69 -5 112.5 -42t43.5 -102t-36.5 -109.5t-89.5 -62.5t-116 -18q-105 0 -172 39l43 86q65 -27 129 -27
q60 0 89.5 23.5t29.5 60.5q0 44 -39 62t-129 16l98 198q-162 23 -166 177q0 51 13 127z" />
    <glyph glyph-name="Tcaron" unicode="&#x164;" horiz-adv-x="1058" 
d="M279 1362h983l-25 -141h-414l-217 -1221h-162l218 1221h-408zM588 1806l215 -194l282 200l58 -53q-121 -130 -254 -241q-23 -19 -34.5 -27.5t-30.5 -15.5t-40 -7q-28 0 -47.5 12t-44.5 40q-96 116 -170 237z" />
    <glyph glyph-name="tcaron" unicode="&#x165;" horiz-adv-x="681" 
d="M403 1423h160l-71 -405h292l-24 -137h-293l-107 -607q-8 -50 -8 -77q1 -60 28 -79.5t85 -19.5q76 0 172 52l43 -111q-46 -31 -117 -49.5t-135 -18.5q-234 0 -238 183q0 51 13 127zM702 1155l70 406q62 12 90 12q31 0 46.5 -15t15.5 -38q0 -64 -139 -359q-6 -14 -9 -20z
" />
    <glyph glyph-name="Tbar" unicode="&#x166;" horiz-adv-x="1056" 
d="M279 1362h983l-25 -141h-414l-84 -467h277l-19 -115h-278l-113 -639h-162l113 639h-274l18 115h277l84 467h-408z" />
    <glyph glyph-name="tbar" unicode="&#x167;" horiz-adv-x="681" 
d="M403 1423h160l-71 -405h292l-22 -137h-293l-45 -246h289l-25 -137h-289l-39 -224q-8 -50 -8 -77q1 -61 29 -81t92 -20q72 0 166 51l41 -108q-46 -31 -117 -49.5t-135 -18.5q-234 0 -238 183q0 51 13 127z" />
    <glyph glyph-name="Utilde" unicode="&#x168;" horiz-adv-x="1288" 
d="M397 1362h162l-166 -938q-8 -66 -8 -90q0 -120 72.5 -170.5t212.5 -50.5q158 0 250.5 72t119.5 229l168 948h162l-172 -977q-36 -206 -175.5 -308t-365.5 -102q-217 0 -326.5 80t-109.5 250q0 66 10 117zM645 1513l4 119q82 56 176 56q53 0 133 -26t123 -26q61 0 129 35
l-6 -127q-79 -35 -141 -35q-45 0 -135.5 21.5t-128.5 21.5q-75 0 -154 -39z" />
    <glyph glyph-name="utilde" unicode="&#x169;" horiz-adv-x="1099" 
d="M969 1018h159l-151 -868l-14 -150h-142l6 139q-143 -168 -352 -168q-278 0 -278 250q0 55 10 113l123 684h159l-116 -651q-11 -68 -11 -117q0 -78 38 -115t139 -37q105 0 199.5 78.5t113.5 179.5zM489 1266l9 118q79 56 172 56q54 0 135 -25.5t125 -25.5q61 0 127 34
l-6 -125q-74 -36 -144 -36q-45 0 -134.5 22.5t-127.5 22.5q-75 0 -156 -41z" />
    <glyph glyph-name="Umacron" unicode="&#x16a;" horiz-adv-x="1288" 
d="M397 1362h162l-166 -938q-8 -66 -8 -90q0 -120 72.5 -170.5t212.5 -50.5q158 0 250.5 72t119.5 229l168 948h162l-172 -977q-36 -206 -175.5 -308t-365.5 -102q-217 0 -326.5 80t-109.5 250q0 66 10 117zM651 1520l23 133h534l-22 -133h-535z" />
    <glyph glyph-name="umacron" unicode="&#x16b;" horiz-adv-x="1099" 
d="M969 1018h159l-151 -868l-14 -150h-142l6 139q-143 -168 -352 -168q-278 0 -278 250q0 55 10 113l123 684h159l-116 -651q-11 -68 -11 -117q0 -78 38 -115t139 -37q105 0 199.5 78.5t113.5 179.5zM510 1268l25 133h534l-25 -133h-534z" />
    <glyph glyph-name="Ubreve" unicode="&#x16c;" horiz-adv-x="1288" 
d="M397 1362h162l-166 -938q-8 -66 -8 -90q0 -120 72.5 -170.5t212.5 -50.5q158 0 250.5 72t119.5 229l168 948h162l-172 -977q-36 -206 -175.5 -308t-365.5 -102q-217 0 -326.5 80t-109.5 250q0 66 10 117zM1157 1759l113 -43q-55 -117 -138.5 -178t-220.5 -61
q-131 0 -198 64t-78 173l119 41q14 -84 55.5 -123t122.5 -39q79 0 130.5 38.5t94.5 127.5z" />
    <glyph glyph-name="ubreve" unicode="&#x16d;" horiz-adv-x="1099" 
d="M969 1018h159l-151 -868l-14 -150h-142l6 139q-143 -168 -352 -168q-278 0 -278 250q0 55 10 113l123 684h159l-116 -651q-11 -68 -11 -117q0 -78 38 -115t139 -37q105 0 199.5 78.5t113.5 179.5zM997 1493l119 -23q-51 -144 -137 -209t-211 -65q-131 0 -201 76.5
t-73 197.5l114 21q10 -95 52.5 -135.5t117.5 -40.5q73 0 122.5 37.5t96.5 140.5z" />
    <glyph glyph-name="Uring" unicode="&#x16e;" horiz-adv-x="1288" 
d="M397 1362h162l-166 -938q-8 -66 -8 -90q0 -120 72.5 -170.5t212.5 -50.5q158 0 250.5 72t119.5 229l168 948h162l-172 -977q-36 -206 -175.5 -308t-365.5 -102q-217 0 -326.5 80t-109.5 250q0 66 10 117zM745 1573q0 91 59 150t148 59q73 0 113.5 -40t40.5 -100
q0 -91 -60.5 -150.5t-150.5 -59.5q-72 0 -111 40t-39 101zM942 1696q-43 0 -67.5 -31.5t-24.5 -83.5q0 -63 59 -63q41 0 66.5 32.5t25.5 75.5q0 70 -59 70z" />
    <glyph glyph-name="uring" unicode="&#x16f;" horiz-adv-x="1099" 
d="M969 1018h159l-151 -868l-14 -150h-142l6 139q-143 -168 -352 -168q-278 0 -278 250q0 55 10 113l123 684h159l-116 -651q-11 -68 -11 -117q0 -78 38 -115t139 -37q105 0 199.5 78.5t113.5 179.5zM623 1298q0 91 58.5 150t147.5 59q73 0 113.5 -39.5t40.5 -99.5
q0 -92 -60.5 -151.5t-150.5 -59.5q-72 0 -110.5 39.5t-38.5 101.5zM819 1421q-44 0 -68 -31t-24 -83q0 -64 59 -64q41 0 67 33t26 76q0 69 -60 69z" />
    <glyph glyph-name="Uhungarumlaut" unicode="&#x170;" horiz-adv-x="1288" 
d="M397 1362h162l-166 -938q-8 -66 -8 -90q0 -120 72.5 -170.5t212.5 -50.5q158 0 250.5 72t119.5 229l168 948h162l-172 -977q-36 -206 -175.5 -308t-365.5 -102q-217 0 -326.5 80t-109.5 250q0 66 10 117zM883 1530l334 285q29 -20 42 -29.5t28.5 -29t15.5 -36.5
q0 -19 -13 -37.5t-27.5 -29.5t-43.5 -29q-60 -38 -295 -158zM506 1526l338 291q84 -57 84 -97q0 -19 -14 -38t-27 -28.5t-43 -29.5q-76 -47 -297 -158z" />
    <glyph glyph-name="uhungarumlaut" unicode="&#x171;" horiz-adv-x="1099" 
d="M969 1018h159l-151 -868l-14 -150h-142l6 139q-143 -168 -352 -168q-278 0 -278 250q0 55 10 113l123 684h159l-116 -651q-11 -68 -11 -117q0 -78 38 -115t139 -37q105 0 199.5 78.5t113.5 179.5zM834 1208l280 359q33 -9 54 -17t42 -25.5t21 -39.5q0 -37 -62 -96
q-47 -46 -272 -232zM504 1208l280 359q117 -29 117 -82q0 -35 -61 -96q-54 -51 -273 -232z" />
    <glyph glyph-name="Uogonek" unicode="&#x172;" horiz-adv-x="1288" 
d="M397 1362h162l-166 -938q-8 -66 -8 -90q0 -120 72.5 -170.5t212.5 -50.5q158 0 250.5 72t119.5 229l168 948h162l-172 -977q-14 -76 -41 -136t-69 -105.5t-89 -79t-112 -66.5q-73 -38 -141 -129.5t-68 -161.5q0 -72 70 -72q45 0 108 23l16 -102q-86 -39 -180 -39
q-85 0 -124.5 42t-39.5 105q0 139 179 313q-16 -2 -50 -2q-217 0 -326.5 80t-109.5 250q0 66 10 117z" />
    <glyph glyph-name="uogonek" unicode="&#x173;" horiz-adv-x="1099" 
d="M969 1018h159l-151 -868l-10 -150q-73 -57 -135 -142t-62 -151q0 -72 70 -72q45 0 108 23l17 -102q-86 -39 -181 -39q-85 0 -124 42t-39 105q0 151 200 336l6 139q-143 -168 -352 -168q-278 0 -278 250q0 55 10 113l123 684h159l-116 -651q-11 -68 -11 -117
q0 -78 38 -115t139 -37q105 0 199.5 78.5t113.5 179.5z" />
    <glyph glyph-name="Wcircumflex" unicode="&#x174;" horiz-adv-x="1660" 
d="M1090 0l-82 1014l-435 -1014h-206l-68 1362h158l49 -1172l450 1059h185l78 -1052l458 1165h164l-549 -1362h-202zM852 1468l-59 54q85 87 260 237q32 27 52.5 37t47.5 10t47.5 -12.5t42.5 -40.5q88 -109 170 -235l-63 -48l-213 193z" />
    <glyph glyph-name="wcircumflex" unicode="&#x175;" horiz-adv-x="1617" 
d="M1462 1018h158q16 -181 16 -256q0 -126 -19.5 -240t-62 -215.5t-105 -175.5t-154.5 -117t-205 -43q-114 0 -178 53t-70 144q-127 -197 -369 -197q-276 0 -276 246q0 51 8 98l125 703h159l-110 -621q-19 -101 -19 -153q0 -70 34 -108t120 -38q110 0 194.5 75.5
t102.5 176.5l117 668h159l-112 -629q-17 -100 -17 -139q0 -72 34 -112t116 -40q88 0 160 55t117.5 147.5t69.5 208t24 241.5q0 119 -17 268zM821 1192l-61 51q146 170 244 264q30 29 52 41.5t50 12.5q29 0 48 -12t38 -42q55 -80 149 -270l-59 -45l-192 215z" />
    <glyph glyph-name="Ycircumflex" unicode="&#x176;" horiz-adv-x="1073" 
d="M1303 1362h-185l-465 -682l-227 682h-174l297 -844l-90 -518h162l92 518zM551 1468l-59 54q85 87 260 237q32 27 52.5 37t47.5 10t47.5 -12.5t42.5 -40.5q88 -109 170 -235l-63 -48l-213 193z" />
    <glyph glyph-name="ycircumflex" unicode="&#x177;" horiz-adv-x="1093" 
d="M1126 1018l-172 -975q-33 -188 -73 -285q-60 -154 -169 -228.5t-276 -74.5q-135 0 -208.5 63t-73.5 171q0 132 74.5 218t222.5 161q-121 14 -180.5 71t-59.5 168q0 48 8 92l111 619h159l-102 -584q-14 -72 -14 -115q0 -74 42.5 -112.5t153.5 -38.5q102 0 187.5 68
t103.5 172l109 610h157zM309 -287q0 -135 152 -135q246 0 319 377l39 211q-47 -50 -100 -83.5t-148 -80.5q-91 -45 -143.5 -81.5t-85.5 -89t-33 -118.5zM520 1192l-61 51q151 175 243 264q30 28 52.5 41t50.5 13q29 0 48 -12t38 -42q55 -80 149 -270l-59 -45l-193 215z" />
    <glyph glyph-name="Ydieresis" unicode="&#x178;" horiz-adv-x="1073" 
d="M1303 1362h-185l-465 -682l-227 682h-174l297 -844l-90 -518h162l92 518zM500 1583q0 51 37 87t90 36q39 0 63.5 -25.5t24.5 -64.5q0 -52 -37.5 -87.5t-89.5 -35.5q-41 0 -64.5 25t-23.5 65zM864 1583q0 51 37 87t90 36q39 0 64.5 -25.5t25.5 -64.5q0 -52 -38.5 -87.5
t-90.5 -35.5q-40 0 -64 25t-24 65z" />
    <glyph glyph-name="Zacute" unicode="&#x179;" horiz-adv-x="999" 
d="M1139 1229l-869 -1098h699l-25 -131h-878l22 131l868 1100h-659l20 131h844zM645 1538l346 287q84 -51 84 -92q0 -29 -21.5 -50.5t-62.5 -46.5q-87 -51 -305 -159z" />
    <glyph glyph-name="zacute" unicode="&#x17a;" horiz-adv-x="811" 
d="M131 -252q0 -75 38 -120.5t120 -45.5q95 0 166 52.5t105 133.5t34 175q0 151 -100 221q-96 -42 -168.5 -94.5t-113.5 -107.5t-61 -108.5t-20 -105.5zM938 1018l-23 -125l-550 -490l127 -65q139 -71 199.5 -160.5t60.5 -214.5q0 -142 -57 -256.5t-167 -182t-256 -67.5
q-148 0 -222.5 73t-74.5 196q0 318 406 510q-91 45 -180 90l20 118l502 445h-520l24 129h711zM524 1208l279 359q115 -28 115 -82q0 -35 -64 -96q-47 -46 -272 -232z" />
    <glyph glyph-name="Zdotaccent" unicode="&#x17b;" horiz-adv-x="999" 
d="M1139 1229l-869 -1098h699l-25 -131h-878l22 131l868 1100h-659l20 131h844zM668 1593q0 52 37 88.5t90 36.5q39 0 64.5 -25.5t25.5 -64.5q0 -53 -38.5 -89t-90.5 -36q-41 0 -64.5 25t-23.5 65z" />
    <glyph glyph-name="zdotaccent" unicode="&#x17c;" horiz-adv-x="811" 
d="M131 -252q0 52 20 105.5t61 108.5t113.5 107.5t168.5 94.5q100 -70 100 -221q0 -94 -34 -175t-105 -133.5t-166 -52.5q-82 0 -120 45.5t-38 120.5zM915 893l23 125h-711l-24 -129h520l-502 -445l-20 -118q89 -45 180 -90q-406 -192 -406 -510q0 -123 74.5 -196t222.5 -73
q146 0 256 67.5t167 182t57 256.5q0 125 -60.5 214.5t-199.5 160.5l-127 65zM518 1290q0 52 37 88.5t90 36.5q39 0 63.5 -25.5t24.5 -64.5q0 -53 -37.5 -89t-89.5 -36q-41 0 -64.5 25t-23.5 65z" />
    <glyph glyph-name="Zcaron" unicode="&#x17d;" horiz-adv-x="999" 
d="M1139 1229l-869 -1098h699l-25 -131h-878l22 131l868 1100h-659l20 131h844zM561 1806l215 -194l283 200l57 -53q-121 -130 -254 -241q-24 -20 -35 -28t-29.5 -15t-39.5 -7q-28 0 -47.5 12t-44.5 40q-96 116 -170 237z" />
    <glyph glyph-name="zcaron" unicode="&#x17e;" horiz-adv-x="811" 
d="M131 -252q0 52 20 105.5t61 108.5t113.5 107.5t168.5 94.5q100 -70 100 -221q0 -94 -34 -175t-105 -133.5t-166 -52.5q-82 0 -120 45.5t-38 120.5zM915 893l23 125h-711l-24 -129h520l-502 -445l-20 -118q89 -45 180 -90q-406 -192 -406 -510q0 -123 74.5 -196t222.5 -73
q146 0 256 67.5t167 182t57 256.5q0 125 -60.5 214.5t-199.5 160.5l-127 65zM899 1561l57 -52q-118 -137 -243 -262q-55 -55 -105 -55q-30 0 -47.5 11.5t-38.5 41.5q-59 86 -149 268l65 48l189 -215z" />
    <glyph glyph-name="longs" unicode="&#x17f;" horiz-adv-x="641" 
d="M510 1118l-274 -1548h-160l272 1544q9 49 19.5 87t29 80t46 71.5t65.5 55t93 38t124 12.5q67 0 138 -19t110 -44l-60 -111q-85 47 -192 47q-98 0 -144 -49t-67 -164z" />
    <glyph glyph-name="florin" unicode="&#x192;" horiz-adv-x="1050" 
d="M295 668l45 129h209l63 188q26 75 50 127t58 99t74.5 75t97 44t128.5 16q120 0 237 -62l-65 -108q-88 43 -170 43q-93 0 -147.5 -50t-92.5 -159l-75 -213h321l-49 -129h-317l-250 -717q-29 -84 -54.5 -140t-59.5 -105.5t-74.5 -77t-96 -43t-127.5 -15.5q-147 0 -256 68
l57 112q96 -55 193 -55q95 0 151 53t95 164l262 756h-207z" />
    <glyph glyph-name="Scommaaccent" unicode="&#x218;" horiz-adv-x="1089" 
d="M123 117l86 129q61 -47 153.5 -88t200.5 -41q48 0 90.5 6t87.5 23.5t77 45t52.5 74t20.5 107.5q0 32 -8.5 59.5t-19.5 48t-35 40.5t-42 32.5t-54.5 29.5t-57.5 26t-66 26q-48 19 -79 33t-73.5 37t-69.5 48t-52.5 58.5t-38 77.5t-12.5 96q0 186 131 293.5t352 107.5
q138 0 251 -55t179 -133l-106 -104q-148 151 -332 151q-54 0 -103 -11t-95 -35t-73.5 -71t-27.5 -112q0 -43 14.5 -78t38 -59.5t59 -46.5t69.5 -37.5t78 -33.5q9 -3 13 -5q45 -19 69 -29.5t65.5 -32t64.5 -39.5t52.5 -47t45 -59t26.5 -71.5t11 -88.5q0 -190 -133 -302
t-371 -112q-141 0 -264 46.5t-174 95.5zM467 -143l-188 -387l61 -33q181 223 209 264q43 65 43 92q0 59 -125 64z" />
    <glyph glyph-name="scommaaccent" unicode="&#x219;" horiz-adv-x="829" 
d="M80 74l72 112q130 -92 272 -92q104 0 171 46.5t67 138.5q0 69 -44.5 106t-140.5 68q-35 11 -55.5 18.5t-53 21.5t-52 27.5t-42.5 35t-36 46t-22 58t-9 73.5q0 147 107.5 230.5t269.5 83.5q106 0 194.5 -43t136.5 -105l-92 -86q-99 111 -243 111q-94 0 -154.5 -42
t-60.5 -124q0 -42 13 -71.5t49.5 -52.5t59 -33t83.5 -32q7 -3 10 -4q55 -20 91.5 -38.5t73.5 -48.5t55.5 -74t18.5 -101q0 -161 -105 -246.5t-292 -85.5q-116 0 -210 33t-132 70zM371 -143l-189 -387l62 -33q181 223 209 264q43 65 43 92q0 59 -125 64z" />
    <glyph glyph-name="uni021A" unicode="&#x21a;" horiz-adv-x="1058" 
d="M279 1362h983l-25 -141h-414l-217 -1221h-162l218 1221h-408zM428 -143l-188 -387l61 -33q181 223 209 264q43 65 43 92q0 59 -125 64z" />
    <glyph glyph-name="uni021B" unicode="&#x21b;" horiz-adv-x="681" 
d="M403 1423h160l-71 -405h292l-24 -137h-293l-107 -607q-8 -50 -8 -77q1 -60 28 -79.5t85 -19.5q76 0 172 52l43 -111q-46 -31 -117 -49.5t-135 -18.5q-234 0 -238 183q0 51 13 127zM305 -143l-188 -387l61 -33q181 223 209 264q43 65 43 92q0 59 -125 64z" />
    <glyph glyph-name="dotlessj" unicode="&#x237;" horiz-adv-x="460" 
d="M133 -123l201 1141h160l-197 -1106q-9 -52 -15 -83t-19 -75.5t-27.5 -70.5t-39 -56t-55.5 -46t-75 -27t-99 -11q-57 0 -128 19t-109 47l65 115q79 -50 164 -50q73 0 113 44.5t61 158.5z" />
    <glyph glyph-name="apostrophe" unicode="&#x2bc;" horiz-adv-x="516" 
d="M387 1133l143 401q14 2 43 2q86 0 86 -55q0 -49 -51 -131q-48 -79 -159 -240z" />
    <glyph glyph-name="circumflex" unicode="&#x2c6;" horiz-adv-x="1024" 
d="M498 1192l-62 51q146 170 244 264q30 29 52 41.5t50 12.5q29 0 48 -12t38 -42q59 -86 150 -270l-60 -45l-192 215z" />
    <glyph glyph-name="caron" unicode="&#x2c7;" horiz-adv-x="1024" 
d="M1001 1561l58 -52q-112 -130 -244 -262q-55 -55 -104 -55q-30 0 -47.5 11.5t-38.5 41.5q-62 91 -150 268l66 48l188 -215z" />
    <glyph glyph-name="uni02C9" unicode="&#x2c9;" horiz-adv-x="1024" 
d="M461 1268l24 133h535l-25 -133h-534z" />
    <glyph glyph-name="breve" unicode="&#x2d8;" horiz-adv-x="1024" 
d="M973 1493l119 -23q-51 -144 -137.5 -209t-211.5 -65q-131 0 -201 76.5t-73 197.5l115 21q10 -95 52.5 -135.5t117.5 -40.5q73 0 122.5 37.5t96.5 140.5z" />
    <glyph glyph-name="dotaccent" unicode="&#x2d9;" horiz-adv-x="1024" 
d="M641 1290q0 52 37 88.5t90 36.5q39 0 63.5 -25.5t24.5 -64.5q0 -53 -37.5 -89t-89.5 -36q-41 0 -64.5 25t-23.5 65z" />
    <glyph glyph-name="ring" unicode="&#x2da;" horiz-adv-x="1024" 
d="M569 1298q0 91 59 150t148 59q73 0 113.5 -39.5t40.5 -99.5q0 -92 -60.5 -151.5t-150.5 -59.5q-72 0 -111 39.5t-39 101.5zM766 1421q-44 0 -68 -31t-24 -83q0 -64 59 -64q41 0 66.5 32.5t25.5 76.5q0 69 -59 69z" />
    <glyph glyph-name="ogonek" unicode="&#x2db;" horiz-adv-x="1024" 
d="M483 4l135 -2q-72 -56 -133 -142t-61 -153q0 -72 70 -72q45 0 108 23l16 -102q-86 -39 -180 -39q-85 0 -124.5 42t-39.5 105q0 152 209 340z" />
    <glyph glyph-name="tilde" unicode="&#x2dc;" horiz-adv-x="1024" 
d="M459 1266l8 118q79 56 172 56q53 0 134 -25.5t126 -25.5q61 0 127 34l-6 -125q-74 -36 -143 -36q-45 0 -135 22.5t-128 22.5q-74 0 -155 -41z" />
    <glyph glyph-name="hungarumlaut" unicode="&#x2dd;" horiz-adv-x="1024" 
d="M659 1208l281 359q33 -9 54 -17t42 -25.5t21 -39.5q0 -37 -62 -96q-47 -46 -272 -232zM330 1208l280 359q117 -29 117 -82q0 -35 -61 -96q-54 -51 -273 -232z" />
    <glyph glyph-name="uni0394" unicode="&#x394;" horiz-adv-x="1359" 
d="M1311 0h-1262l782 1346h177zM1126 129l-231 1049l-602 -1049h833z" />
    <glyph glyph-name="uni03A9" unicode="&#x3a9;" horiz-adv-x="1624" 
d="M446 596q0 -171 72 -291t178 -184l-20 -121h-547l25 141h350q-86 60 -155.5 191.5t-69.5 275.5q0 168 59 309t160.5 235t237 146t288.5 52q259 0 409 -137t150 -382q0 -156 -57 -292.5t-147 -232t-210 -165.5h353l-27 -141h-543l23 123q39 22 71 42.5t79 57t83.5 74
t75.5 92t65 113t43 135.5t17 160q0 104 -31 184t-85.5 129t-125.5 73.5t-155 24.5q-111 0 -211 -38.5t-180 -111.5t-127.5 -192.5t-47.5 -269.5z" />
    <glyph glyph-name="uni03BC" unicode="&#x3bc;" horiz-adv-x="1204" 
d="M1200 1018l-149 -852q-7 -39 3.5 -54.5t37.5 -15.5q38 0 92 31l24 -100q-84 -50 -176 -50q-143 0 -139 154q-124 -162 -313 -162q-89 0 -150.5 35.5t-87.5 87.5l-92 -534h-150l258 1460h152l-109 -627q-25 -134 22.5 -213.5t174.5 -79.5q125 0 220.5 93t121.5 239
l104 588h156z" />
    <glyph glyph-name="pi" unicode="&#x3c0;" horiz-adv-x="1275" 
d="M1354 889h-166l-123 -688q-12 -57 -3.5 -85t50.5 -28q31 0 100 18l9 -102q-76 -31 -168 -31q-100 0 -132.5 48t-17.5 137l129 731h-454l-158 -889h-154l158 889h-168l23 129h1097z" />
    <glyph glyph-name="Wgrave" unicode="&#x1e80;" horiz-adv-x="1660" 
d="M1090 0l-82 1014l-435 -1014h-206l-68 1362h158l49 -1172l450 1059h185l78 -1052l458 1165h164l-549 -1362h-202zM1001 1827l265 -307l-54 -54q-37 25 -101 67t-101 67.5t-62 44.5q-51 41 -51 77q0 18 7 32t25 28t31 22t41 23z" />
    <glyph glyph-name="wgrave" unicode="&#x1e81;" horiz-adv-x="1617" 
d="M1462 1018h158q16 -181 16 -256q0 -126 -19.5 -240t-62 -215.5t-105 -175.5t-154.5 -117t-205 -43q-114 0 -178 53t-70 144q-127 -197 -369 -197q-276 0 -276 246q0 51 8 98l125 703h159l-110 -621q-19 -101 -19 -153q0 -70 34 -108t120 -38q110 0 194.5 75.5
t102.5 176.5l117 668h159l-112 -629q-17 -100 -17 -139q0 -72 34 -112t116 -40q88 0 160 55t117.5 147.5t69.5 208t24 241.5q0 119 -17 268zM1004 1569l165 -371l-63 -41q-166 193 -203 242q-31 50 -31 80q0 21 11 36.5t33.5 26t40 15.5t47.5 12z" />
    <glyph glyph-name="Wacute" unicode="&#x1e82;" horiz-adv-x="1660" 
d="M1090 0l-82 1014l-435 -1014h-206l-68 1362h158l49 -1172l450 1059h185l78 -1052l458 1165h164l-549 -1362h-202zM942 1528l346 287q84 -51 84 -93q0 -29 -21 -50t-63 -46q-98 -57 -305 -160z" />
    <glyph glyph-name="wacute" unicode="&#x1e83;" horiz-adv-x="1617" 
d="M1462 1018h158q16 -181 16 -256q0 -126 -19.5 -240t-62 -215.5t-105 -175.5t-154.5 -117t-205 -43q-114 0 -178 53t-70 144q-127 -197 -369 -197q-276 0 -276 246q0 51 8 98l125 703h159l-110 -621q-19 -101 -19 -153q0 -70 34 -108t120 -38q110 0 194.5 75.5
t102.5 176.5l117 668h159l-112 -629q-17 -100 -17 -139q0 -72 34 -112t116 -40q88 0 160 55t117.5 147.5t69.5 208t24 241.5q0 119 -17 268zM891 1208l278 359q115 -28 115 -82q0 -36 -63 -96q-41 -40 -273 -232z" />
    <glyph glyph-name="Wdieresis" unicode="&#x1e84;" horiz-adv-x="1660" 
d="M1090 0l-82 1014l-435 -1014h-206l-68 1362h158l49 -1172l450 1059h185l78 -1052l458 1165h164l-549 -1362h-202zM795 1583q0 51 37 87t90 36q39 0 63.5 -25.5t24.5 -64.5q0 -52 -37.5 -87.5t-89.5 -35.5q-41 0 -64.5 25t-23.5 65zM1159 1583q0 51 37 87t90 36
q39 0 64.5 -25.5t25.5 -64.5q0 -52 -38.5 -87.5t-90.5 -35.5q-40 0 -64 25t-24 65z" />
    <glyph glyph-name="wdieresis" unicode="&#x1e85;" horiz-adv-x="1617" 
d="M1462 1018h158q16 -181 16 -256q0 -126 -19.5 -240t-62 -215.5t-105 -175.5t-154.5 -117t-205 -43q-114 0 -178 53t-70 144q-127 -197 -369 -197q-276 0 -276 246q0 51 8 98l125 703h159l-110 -621q-19 -101 -19 -153q0 -70 34 -108t120 -38q110 0 194.5 75.5
t102.5 176.5l117 668h159l-112 -629q-17 -100 -17 -139q0 -72 34 -112t116 -40q88 0 160 55t117.5 147.5t69.5 208t24 241.5q0 119 -17 268zM774 1319q0 51 37 87t90 36q39 0 63.5 -25.5t24.5 -64.5q0 -52 -37.5 -87.5t-89.5 -35.5q-41 0 -64.5 25t-23.5 65zM1139 1319
q0 51 37 87t90 36q39 0 64.5 -25.5t25.5 -64.5q0 -52 -38.5 -87.5t-90.5 -35.5q-40 0 -64 25t-24 65z" />
    <glyph glyph-name="Ygrave" unicode="&#x1ef2;" horiz-adv-x="1073" 
d="M1303 1362h-185l-465 -682l-227 682h-174l297 -844l-90 -518h162l92 518zM698 1827l265 -307l-54 -54q-37 25 -101 67t-101 67.5t-62 44.5q-51 41 -51 77q0 18 7 32t25 28t31 22t41 23z" />
    <glyph glyph-name="ygrave" unicode="&#x1ef3;" horiz-adv-x="1093" 
d="M1126 1018l-172 -975q-33 -188 -73 -285q-60 -154 -169 -228.5t-276 -74.5q-135 0 -208.5 63t-73.5 171q0 132 74.5 218t222.5 161q-121 14 -180.5 71t-59.5 168q0 48 8 92l111 619h159l-102 -584q-14 -72 -14 -115q0 -74 42.5 -112.5t153.5 -38.5q102 0 187.5 68
t103.5 172l109 610h157zM309 -287q0 -135 152 -135q246 0 319 377l39 211q-47 -50 -100 -83.5t-148 -80.5q-91 -45 -143.5 -81.5t-85.5 -89t-33 -118.5zM709 1569l165 -371l-63 -41q-166 193 -203 242q-30 48 -30 80q0 21 10.5 36.5t33 26t40 15.5t47.5 12z" />
    <glyph glyph-name="endash" unicode="&#x2013;" horiz-adv-x="1024" 
d="M96 539l21 127h1024l-21 -127h-1024z" />
    <glyph glyph-name="emdash" unicode="&#x2014;" horiz-adv-x="2048" 
d="M96 539l21 127h2048l-21 -127h-2048z" />
    <glyph glyph-name="quoteleft" unicode="&#x2018;" horiz-adv-x="401" 
d="M420 1008q-12 -2 -39 -2q-111 0 -111 71q0 84 260 412l91 -35z" />
    <glyph glyph-name="quoteright" unicode="&#x2019;" horiz-adv-x="389" 
d="M440 1479q12 2 43 2q111 0 111 -68q0 -49 -64 -148.5t-194 -269.5l-92 29z" />
    <glyph glyph-name="quotesinglbase" unicode="&#x201a;" horiz-adv-x="440" 
d="M387 152l-274 -422l-88 30q62 185 127 336q25 61 50 87t60 26q59 0 125 -57z" />
    <glyph glyph-name="quotedblleft" unicode="&#x201c;" horiz-adv-x="718" 
d="M420 1008q-12 -2 -39 -2q-111 0 -111 71q0 84 260 412l91 -35zM739 1008q-12 -2 -39 -2q-110 0 -110 71q0 84 260 412l90 -35z" />
    <glyph glyph-name="quotedblright" unicode="&#x201d;" horiz-adv-x="704" 
d="M440 1479q12 2 43 2q111 0 111 -68q0 -49 -64 -148.5t-194 -269.5l-92 29zM760 1479q12 2 43 2q110 0 110 -68q0 -49 -64 -148.5t-194 -269.5l-92 29z" />
    <glyph glyph-name="quotedblbase" unicode="&#x201e;" horiz-adv-x="729" 
d="M387 152l-274 -422l-88 30q62 185 127 336q25 61 50 87t60 26q59 0 125 -57zM707 152l-275 -422l-88 30q62 185 127 336q25 60 50.5 86.5t60.5 26.5q59 0 125 -57z" />
    <glyph glyph-name="dagger" unicode="&#x2020;" horiz-adv-x="847" 
d="M580 889q-50 -42 -74 -95.5t-39 -136.5l-133 -757q-8 -54 -8 -93q0 -89 36 -155q88 91 113 237l133 754q14 53 9.5 117t-37.5 129zM606 1032q-43 52 -43 150q0 26 4 52t13.5 53.5t29 45t47.5 17.5q60 0 60 -74q0 -126 -111 -244zM653 954q48 36 109 53t100 17
q109 0 109 -61q0 -43 -40 -61.5t-95 -18.5q-53 0 -102.5 18t-80.5 53zM530 956q-40 -34 -98 -53.5t-113 -19.5t-81.5 15t-26.5 50q0 41 39.5 58.5t95.5 17.5q42 0 94.5 -16t89.5 -52z" />
    <glyph glyph-name="daggerdbl" unicode="&#x2021;" horiz-adv-x="851" 
d="M489 8q48 36 108.5 53t100.5 17q111 0 111 -70q0 -39 -41.5 -56.5t-93.5 -17.5q-53 0 -102.5 19t-82.5 55zM367 8q-106 -74 -211 -74q-52 0 -80.5 17.5t-28.5 48.5q0 78 133 78q41 0 96 -17t91 -53zM416 -70q-53 -44 -84 -106.5t-31 -132.5q0 -78 57 -78q36 0 58 27.5
t29.5 61.5t7.5 75q0 98 -37 153zM580 889q-50 -42 -74 -95.5t-39 -136.5l-57 -327q-9 -61 -9 -92q0 -88 37 -156q88 91 113 237l57 324q10 55 10 94q0 77 -38 152zM606 1032q-43 52 -43 150q0 26 4 52t13.5 53.5t29 45t47.5 17.5q60 0 60 -74q0 -126 -111 -244zM653 954
q48 36 109 53t100 17q109 0 109 -61q0 -43 -40 -61.5t-95 -18.5q-53 0 -102.5 18t-80.5 53zM530 956q-40 -34 -98 -53.5t-113 -19.5t-81.5 15t-26.5 50q0 41 39.5 58.5t95.5 17.5q42 0 94.5 -16t89.5 -52z" />
    <glyph glyph-name="bullet" unicode="&#x2022;" horiz-adv-x="1024" 
d="M401 592q0 117 74 190.5t182 73.5q83 0 135 -51.5t52 -138.5q0 -120 -74 -194.5t-176 -74.5q-92 0 -142.5 53.5t-50.5 141.5z" />
    <glyph glyph-name="ellipsis" unicode="&#x2026;" horiz-adv-x="1472" 
d="M109 70q0 61 40.5 101t98.5 40q49 0 76.5 -26.5t27.5 -69.5q0 -59 -40 -100.5t-99 -41.5q-51 0 -77.5 26.5t-26.5 70.5zM641 70q0 61 40.5 101t98.5 40q49 0 77 -26.5t28 -69.5q0 -59 -40.5 -100.5t-99.5 -41.5q-51 0 -77.5 26.5t-26.5 70.5zM1155 70q0 61 40.5 101
t98.5 40q49 0 77 -26.5t28 -69.5q0 -59 -40 -100.5t-99 -41.5q-51 0 -78 26.5t-27 70.5z" />
    <glyph glyph-name="perthousand" unicode="&#x2030;" horiz-adv-x="1947" 
d="M999 70q37 0 71.5 17t64 50.5t47 89t18.5 125.5q3 164 -125 164q-80 0 -135.5 -78t-56.5 -215q0 -76 30.5 -114.5t85.5 -38.5zM1645 72q79 0 138 72t62 210q0 164 -127 164q-80 0 -135.5 -78.5t-56.5 -214.5q0 -77 31.5 -115t87.5 -38zM1743 616q104 0 164.5 -62.5
t60.5 -184.5q0 -176 -94 -285t-248 -109q-106 0 -163.5 63.5t-57.5 182.5q0 178 94 286.5t244 108.5zM1098 616q105 0 165 -62.5t60 -184.5q0 -176 -93 -285t-249 -109q-106 0 -163.5 63.5t-57.5 182.5q0 178 94 286.5t244 108.5zM573 1346q104 0 166 -64t62 -186
q0 -175 -93 -283t-247 -108q-108 0 -165.5 63t-57.5 182q0 179 92.5 287.5t242.5 108.5zM477 801q79 0 139.5 73t61.5 209q0 164 -127 164q-79 0 -134.5 -78t-56.5 -215q-1 -76 30 -114.5t87 -38.5zM293 242l-62 100l1035 756l65 -99z" />
    <glyph glyph-name="guilsinglleft" unicode="&#x2039;" horiz-adv-x="630" 
d="M707 821l-334 -289l198 -329l-77 -62q-67 68 -151 172t-118 162q-18 30 -18 62q0 38 57 86q105 86 379 276z" />
    <glyph glyph-name="guilsinglright" unicode="&#x203a;" horiz-adv-x="630" 
d="M451 549l-224 287l74 65q173 -156 277 -274q3 -3 10 -11.5t9 -12t7 -10.5t7 -12.5t3.5 -13.5t1.5 -16q0 -30 -43 -76q-50 -55 -171 -158.5t-216 -175.5l-61 72z" />
    <glyph glyph-name="fraction" unicode="&#x2044;" horiz-adv-x="311" 
d="M-23 -8l-110 57l825 1284l115 -53z" />
    <glyph glyph-name="zerosuperior" unicode="&#x2070;" horiz-adv-x="772" 
d="M649 1509q121 0 189.5 -70.5t68.5 -211.5q0 -71 -10 -137q-67 -402 -383 -402q-126 0 -195 72t-69 209q0 77 12 143q69 397 387 397zM526 799q43 0 76.5 12.5t65.5 43.5t55.5 91t38.5 148q12 64 12 131q0 176 -141 176q-93 0 -153.5 -67.5t-90.5 -237.5q-8 -49 -8 -121
q0 -92 37 -134t108 -42z" />
    <glyph glyph-name="foursuperior" unicode="&#x2074;" horiz-adv-x="772" 
d="M686 1214h80l-41 -231h139l-16 -109h-139l-33 -176h-133l32 181h-342l17 96l346 538l104 -47l-311 -483h211l21 84z" />
    <glyph glyph-name="fivesuperior" unicode="&#x2075;" horiz-adv-x="772" 
d="M377 1096l125 403h413l-20 -108h-311l-66 -203q313 6 313 -215q0 -51 -15 -97t-50 -90.5t-104 -71t-164 -26.5q-79 0 -148 22t-100 46l59 98q84 -57 197 -57q98 0 143 46t45 111q0 39 -15 66t-38.5 42t-67 23t-86 10t-110.5 1z" />
    <glyph glyph-name="sixsuperior" unicode="&#x2076;" horiz-adv-x="772" 
d="M780 1534l15 -102q-144 -14 -238.5 -95.5t-122.5 -183.5q100 59 209 59q97 0 148 -57t51 -143q0 -38 -6 -72q-19 -116 -101 -184t-215 -68q-122 0 -181.5 72.5t-59.5 195.5q0 59 8 111q15 86 50.5 160t93.5 138t147 108t202 61zM707 938q4 18 4 55q0 115 -117 115
q-40 0 -91.5 -16t-88.5 -41q-6 -47 -6 -93q0 -163 122 -163q154 0 177 143z" />
    <glyph glyph-name="sevensuperior" unicode="&#x2077;" horiz-adv-x="772" 
d="M362 1393l19 106h551l-17 -94q-182 -138 -273.5 -302.5t-125.5 -361.5l-8 -43h-131l10 54q16 89 37 162t58.5 158.5t100.5 166.5t148 154h-369z" />
    <glyph glyph-name="eightsuperior" unicode="&#x2078;" horiz-adv-x="772" 
d="M258 864q0 52 21.5 97t58 76.5t71 52.5t72.5 36q-48 24 -82 65.5t-34 98.5q0 90 80.5 154.5t207.5 64.5q115 0 169.5 -44.5t54.5 -108.5q0 -74 -47 -126.5t-128 -101.5q132 -71 132 -184q0 -46 -18 -89.5t-55 -82t-102.5 -61.5t-150.5 -23q-130 0 -190 51t-60 125z
M702 924q0 47 -37.5 84.5t-93.5 60.5q-74 -24 -127 -75t-53 -107q0 -41 34 -68.5t107 -27.5q75 0 122.5 40.5t47.5 92.5zM635 1411q-67 0 -104 -31.5t-37 -72.5q0 -34 27 -68.5t83 -60.5q57 27 100.5 72t43.5 87q0 30 -27.5 52t-85.5 22z" />
    <glyph glyph-name="ninesuperior" unicode="&#x2079;" horiz-adv-x="772" 
d="M352 664l-18 102q149 17 242.5 97t121.5 181q-100 -59 -209 -59q-97 0 -147.5 59.5t-50.5 145.5q0 38 6 72q19 115 100 181t215 66q122 0 182 -72.5t60 -195.5q0 -59 -8 -111q-30 -185 -151 -308.5t-343 -157.5zM426 1260q-4 -18 -4 -56q0 -114 117 -114q40 0 91.5 16
t88.5 41q6 47 6 92q0 164 -123 164q-153 0 -176 -143z" />
    <glyph glyph-name="zeroinferior" unicode="&#x2080;" horiz-adv-x="772" 
d="M518 647q121 0 189.5 -70.5t68.5 -211.5q0 -72 -10 -138q-67 -401 -383 -401q-126 0 -195 71.5t-69 208.5q0 78 12 144q69 397 387 397zM395 -63q43 0 76.5 12.5t65.5 43.5t55.5 90.5t38.5 147.5q12 64 12 131q0 177 -141 177q-93 0 -153 -68t-91 -238q-8 -49 -8 -120
q0 -92 37 -134t108 -42z" />
    <glyph glyph-name="oneinferior" unicode="&#x2081;" horiz-adv-x="772" 
d="M215 -55h158l98 549l-199 -84l-28 90l266 135h131l-33 -121l-100 -569h151l-20 -109h-444z" />
    <glyph glyph-name="twoinferior" unicode="&#x2082;" horiz-adv-x="772" 
d="M279 455l-50 90q79 49 152 75.5t158 26.5q99 0 151.5 -51.5t52.5 -126.5q0 -70 -31 -126.5t-114 -133.5l-283 -262h369l-20 -111h-535l16 96l318 295q76 70 108.5 118t32.5 101q0 43 -27 66t-73 23q-91 0 -225 -80z" />
    <glyph glyph-name="threeinferior" unicode="&#x2083;" horiz-adv-x="772" 
d="M305 479l-39 88q165 80 289 80q96 0 148.5 -47.5t52.5 -122.5q0 -123 -127 -201q61 -119 61 -206q0 -49 -16.5 -91t-51 -77.5t-94.5 -55.5t-141 -20q-68 0 -139 18t-107 41l52 99q94 -52 194 -52q83 0 128.5 35.5t45.5 102.5q0 58 -45 153q-74 -26 -174 -49l-23 96
q41 9 127 33q46 16 70 26t53 27.5t41.5 40.5t12.5 54q0 90 -103 90q-67 0 -215 -62z" />
    <glyph glyph-name="fourinferior" unicode="&#x2084;" horiz-adv-x="772" 
d="M563 352h80l-41 -231h139l-16 -109h-139l-33 -176h-133l33 180h-342l16 97l346 538l105 -47l-312 -483h211l21 84z" />
    <glyph glyph-name="fiveinferior" unicode="&#x2085;" horiz-adv-x="772" 
d="M213 233l125 404h414l-21 -109h-311l-66 -202q314 6 314 -215q0 -40 -8.5 -77t-32 -76t-60 -67.5t-96.5 -46.5t-137 -18q-79 0 -148 22t-100 46l59 98q86 -58 197 -58q97 0 142.5 46.5t45.5 111.5q0 39 -15 66t-38.5 42t-67 22.5t-86 9.5t-110.5 1z" />
    <glyph glyph-name="sixinferior" unicode="&#x2086;" horiz-adv-x="772" 
d="M657 672l15 -103q-145 -14 -239 -95.5t-122 -182.5q100 59 209 59q97 0 148 -57t51 -143q0 -38 -6 -72q-19 -116 -101 -184t-215 -68q-122 0 -181.5 72.5t-59.5 195.5q0 59 8 111q15 86 50.5 160t93.5 138t147 108t202 61zM584 76q4 18 4 55q0 115 -117 115
q-39 0 -91 -16t-89 -42q-6 -47 -6 -92q0 -164 123 -164q153 0 176 144z" />
    <glyph glyph-name="seveninferior" unicode="&#x2087;" horiz-adv-x="772" 
d="M240 530l18 107h551l-16 -94q-182 -138 -274 -303t-126 -361l-8 -43h-131l10 53q16 89 37 162t58.5 158.5t100.5 166.5t148 154h-368z" />
    <glyph glyph-name="eightinferior" unicode="&#x2088;" horiz-adv-x="772" 
d="M135 2q0 52 21.5 97t58 76.5t71 52.5t72.5 36q-48 24 -82 65.5t-34 98.5q0 90 80.5 154.5t207.5 64.5q115 0 169.5 -44.5t54.5 -108.5q0 -74 -46.5 -126.5t-127.5 -101.5q131 -70 131 -184q0 -46 -18 -89.5t-55 -82t-102.5 -61.5t-150.5 -23q-130 0 -190 51t-60 125z
M580 61q0 47 -37.5 85t-93.5 61q-74 -25 -127.5 -75.5t-53.5 -106.5q0 -41 34.5 -69t107.5 -28q75 0 122.5 40.5t47.5 92.5zM512 549q-67 0 -104 -32t-37 -73q0 -34 27 -68.5t83 -60.5q57 27 100.5 72.5t43.5 87.5q0 30 -27.5 52t-85.5 22z" />
    <glyph glyph-name="nineinferior" unicode="&#x2089;" horiz-adv-x="772" 
d="M250 -199l-19 103q149 17 243 97t122 181q-100 -59 -209 -59q-97 0 -148 59.5t-51 145.5q0 31 7 71q19 115 100 181.5t215 66.5q122 0 182 -72.5t60 -195.5q0 -53 -9 -111q-30 -185 -150.5 -309t-342.5 -158zM324 397q-5 -22 -5 -55q0 -115 117 -115q39 0 91 16t89 42
q7 54 7 92q0 164 -123 164q-153 0 -176 -144z" />
    <glyph glyph-name="Euro" unicode="&#x20ac;" horiz-adv-x="1116" 
d="M1026 487l23 123h-883l-23 -123h250q-160 -80 -160 -249q0 -52 20 -97.5t62.5 -84.5t119.5 -62t181 -23q289 0 492 162l-74 117q-181 -139 -377 -139q-249 0 -249 165q0 91 73.5 151t196.5 60h348zM1087 825l-22 -123h-883l23 123h250q-39 23 -63.5 71.5t-24.5 98.5
q0 109 63 190t167.5 121t236.5 40q125 0 241.5 -53.5t204.5 -166.5l-113 -94q-68 81 -158 127.5t-188 46.5q-133 0 -209.5 -51t-76.5 -156q0 -86 52 -130t138 -44h362z" />
    <glyph glyph-name="trademark" unicode="&#x2122;" horiz-adv-x="1392" 
d="M199 1362h526v-109h-205v-579h-125v579h-196v109zM1323 1362h125l45 -688h-113l-26 495l-170 -454h-97l-161 448l-31 -489h-111l47 688h132l176 -508z" />
    <glyph glyph-name="Omega" unicode="&#x2126;" horiz-adv-x="1624" 
d="M446 596q0 -171 72 -291t178 -184l-20 -121h-547l25 141h350q-86 60 -155.5 191.5t-69.5 275.5q0 168 59 309t160.5 235t237 146t288.5 52q259 0 409 -137t150 -382q0 -156 -57 -292.5t-147 -232t-210 -165.5h353l-27 -141h-543l23 123q39 22 71 42.5t79 57t83.5 74
t75.5 92t65 113t43 135.5t17 160q0 104 -31 184t-85.5 129t-125.5 73.5t-155 24.5q-111 0 -211 -38.5t-180 -111.5t-127.5 -192.5t-47.5 -269.5z" />
    <glyph glyph-name="onethird" unicode="&#x2153;" horiz-adv-x="1638" 
d="M225 643h158l98 549l-198 -84l-29 90l266 135h131l-33 -121l-100 -569h152l-21 -108h-444zM592 -8l-111 57l826 1284l114 -53zM1237 643l-39 88q165 80 289 80q96 0 148.5 -47.5t52.5 -122.5q0 -123 -127 -201q61 -119 61 -207q0 -104 -73.5 -173.5t-229.5 -69.5
q-68 0 -139 18t-107 41l51 98q93 -51 195 -51q83 0 128.5 35t45.5 102q0 59 -45 154q-74 -26 -174 -49l-23 96q41 9 127 33q37 13 56 20t46.5 21t40.5 27t23 33.5t10 45.5q0 91 -102 91q-67 0 -215 -62z" />
    <glyph glyph-name="twothirds" unicode="&#x2154;" horiz-adv-x="1638" 
d="M289 1153l-49 90q80 50 152 76.5t157 26.5q99 0 152 -52t53 -127q0 -70 -31 -126.5t-115 -133.5l-282 -262h368l-20 -110h-535l17 96l317 295q76 70 108.5 118t32.5 101q0 43 -27 65.5t-73 22.5q-91 0 -225 -80zM604 -8l-110 57l825 1284l115 -53zM1237 643l-39 88
q165 80 289 80q96 0 148.5 -47.5t52.5 -122.5q0 -123 -127 -201q61 -119 61 -207q0 -104 -73.5 -173.5t-229.5 -69.5q-68 0 -139 18t-107 41l51 98q93 -51 195 -51q83 0 128.5 35t45.5 102q0 59 -45 154q-74 -26 -174 -49l-23 96q41 9 127 33q37 13 56 20t46.5 21t40.5 27
t23 33.5t10 45.5q0 91 -102 91q-67 0 -215 -62z" />
    <glyph glyph-name="oneeighth" unicode="&#x215b;" horiz-adv-x="1638" 
d="M225 643h158l98 549l-198 -84l-29 90l266 135h131l-33 -121l-100 -569h152l-21 -108h-444zM592 -8l-111 57l826 1284l114 -53zM1067 166q0 52 21.5 97t58 76.5t71 52.5t72.5 36q-48 24 -82 65.5t-34 98.5q0 90 80.5 154.5t207.5 64.5q115 0 169.5 -44.5t54.5 -109.5
q0 -39 -14 -73t-41.5 -62t-54.5 -48.5t-65 -43.5q131 -70 131 -184q0 -46 -18 -89.5t-54.5 -82t-102 -61.5t-150.5 -23q-130 0 -190 51t-60 125zM1511 225q0 47 -37.5 85t-93.5 61q-74 -24 -127 -75.5t-53 -107.5q0 -41 34 -68.5t107 -27.5q75 0 122.5 40.5t47.5 92.5z
M1444 713q-67 0 -104 -32t-37 -73q0 -34 27 -68.5t83 -60.5q56 27 99.5 72.5t43.5 87.5q0 30 -27 52t-85 22z" />
    <glyph glyph-name="threeeighths" unicode="&#x215c;" horiz-adv-x="1638" 
d="M352 1178l-39 88q165 80 289 80q96 0 148.5 -47.5t52.5 -122.5q0 -123 -127 -201q61 -119 61 -207q0 -49 -16.5 -91t-51 -77.5t-94.5 -55.5t-141 -20q-67 0 -138.5 18.5t-107.5 41.5l52 98q93 -51 194 -51q83 0 128.5 35t45.5 102q0 59 -45 154q-82 -29 -174 -50l-22 97
q61 14 127 32q46 16 70 26t52.5 27.5t41 40.5t12.5 54q0 90 -103 90q-69 0 -215 -61zM584 -8l-111 57l825 1284l115 -53zM1047 166q0 52 21.5 97t58 76.5t71 52.5t72.5 36q-117 60 -117 164q0 90 81 154.5t208 64.5q115 0 169 -44.5t54 -109.5q0 -74 -46.5 -126t-127.5 -101
q131 -70 131 -184q0 -46 -18 -89.5t-55 -82t-102.5 -61.5t-150.5 -23q-130 0 -189.5 51t-59.5 125zM1491 225q0 47 -37.5 85t-93.5 61q-74 -24 -127 -75.5t-53 -107.5q0 -41 34 -68.5t107 -27.5q75 0 122.5 40.5t47.5 92.5zM1423 713q-67 0 -104 -32t-37 -73q0 -76 111 -129
q56 27 99.5 72.5t43.5 87.5q0 30 -27.5 52t-85.5 22z" />
    <glyph glyph-name="fiveeighths" unicode="&#x215d;" horiz-adv-x="1638" 
d="M299 932l125 403h414l-21 -108h-311l-66 -203q314 6 314 -215q0 -40 -8.5 -77t-32 -76t-60 -67.5t-96.5 -46.5t-137 -18q-79 0 -148 22t-100 46l59 98q84 -57 197 -57q97 0 142.5 46.5t45.5 111.5q0 39 -15 66t-38.5 42t-67 22.5t-86 9.5t-110.5 1zM606 -8l-110 57
l825 1284l115 -53zM1067 166q0 52 21.5 97t58 76.5t71 52.5t72.5 36q-48 24 -82 65.5t-34 98.5q0 90 80.5 154.5t207.5 64.5q115 0 169.5 -44.5t54.5 -109.5q0 -39 -14 -73t-41.5 -62t-54.5 -48.5t-65 -43.5q131 -70 131 -184q0 -46 -18 -89.5t-54.5 -82t-102 -61.5
t-150.5 -23q-130 0 -190 51t-60 125zM1511 225q0 47 -37.5 85t-93.5 61q-74 -24 -127 -75.5t-53 -107.5q0 -41 34 -68.5t107 -27.5q75 0 122.5 40.5t47.5 92.5zM1444 713q-67 0 -104 -32t-37 -73q0 -34 27 -68.5t83 -60.5q56 27 99.5 72.5t43.5 87.5q0 30 -27 52t-85 22z
" />
    <glyph glyph-name="seveneighths" unicode="&#x215e;" horiz-adv-x="1638" 
d="M268 1229l19 106h551l-17 -94q-182 -138 -273.5 -302t-125.5 -361l-8 -43h-131l10 53q16 89 37 162t58.5 158.5t100.5 166.5t148 154h-369zM502 -8l-111 57l826 1284l114 -53zM1026 166q0 52 21.5 97t58 76.5t71 52.5t72.5 36q-48 24 -82 65.5t-34 98.5q0 90 80.5 154.5
t207.5 64.5q115 0 169.5 -44.5t54.5 -109.5q0 -39 -14 -73t-41.5 -62t-54.5 -48.5t-65 -43.5q132 -71 132 -184q0 -46 -18 -89.5t-55 -82t-102.5 -61.5t-150.5 -23q-130 0 -190 51t-60 125zM1470 225q0 47 -37.5 85t-93.5 61q-74 -24 -127 -75.5t-53 -107.5q0 -41 34 -68.5
t107 -27.5q75 0 122.5 40.5t47.5 92.5zM1403 713q-67 0 -104 -32t-37 -73q0 -34 27 -68.5t83 -60.5q57 27 100.5 72.5t43.5 87.5q0 30 -27.5 52t-85.5 22z" />
    <glyph glyph-name="partialdiff" unicode="&#x2202;" horiz-adv-x="1124" 
d="M537 1243l51 123q512 -102 512 -629q0 -112 -17 -216.5t-58.5 -206.5t-103 -177t-158.5 -121.5t-218 -46.5q-94 0 -164.5 30.5t-111 84t-60 118t-19.5 140.5q0 229 133 368.5t341 139.5q169 0 288 -109q0 205 -107.5 333.5t-307.5 168.5zM565 94q76 0 138.5 34.5t105 96
t70.5 136.5t45 167q6 32 10 76q-38 51 -112.5 88t-157.5 37q-139 0 -226.5 -104.5t-87.5 -272.5q0 -118 56 -188t159 -70z" />
    <glyph glyph-name="Delta" unicode="&#x2206;" horiz-adv-x="1359" 
d="M1311 0h-1262l782 1346h177zM1126 129l-231 1049l-602 -1049h833z" />
    <glyph glyph-name="product" unicode="&#x220f;" horiz-adv-x="1492" 
d="M1276 -270h-166l266 1484h-823l-264 -1484h-166l285 1616h1153z" />
    <glyph glyph-name="summation" unicode="&#x2211;" horiz-adv-x="1159" 
d="M1077 -270h-1048l22 129l694 690l-438 668l25 129h985l-27 -134h-792l436 -675l-674 -674h840z" />
    <glyph glyph-name="minus" unicode="&#x2212;" 
d="M1087 719l-20 -133h-829l20 133h829z" />
    <glyph glyph-name="uni2215" unicode="&#x2215;" horiz-adv-x="974" 
d="M188 -238l-129 54l891 1665l133 -58z" />
    <glyph glyph-name="uni2219" unicode="&#x2219;" horiz-adv-x="645" 
d="M307 608q0 60 42 101t100 41q50 0 76 -26.5t26 -72.5q0 -58 -39.5 -98.5t-99.5 -40.5q-50 0 -77.5 25.5t-27.5 70.5z" />
    <glyph glyph-name="radical" unicode="&#x221a;" horiz-adv-x="1337" 
d="M1599 1497l-804 -1526h-162l-156 897l-225 -110l-31 112l389 189l144 -877l684 1315h161z" />
    <glyph glyph-name="infinity" unicode="&#x221e;" horiz-adv-x="1564" 
d="M1591 690q0 -151 -86.5 -237t-218.5 -86q-198 0 -377 211q-172 -216 -372 -216q-146 0 -232 82t-86 222q0 135 92.5 226t235.5 91q113 0 196.5 -56t167.5 -175q103 120 189 176.5t198 56.5q139 0 216 -83.5t77 -211.5zM1460 676q0 89 -46 141.5t-134 52.5
q-80 0 -146 -50.5t-147 -151.5q65 -87 142.5 -140t152.5 -53q83 0 130.5 60t47.5 141zM829 664q-69 108 -135.5 157t-144.5 49q-97 0 -150 -57t-53 -143q0 -87 52.5 -142t146.5 -55q151 0 284 191z" />
    <glyph glyph-name="integral" unicode="&#x222b;" horiz-adv-x="798" 
d="M801 1266q-69 26 -137 26q-59 0 -89 -29.5t-30 -113.5q0 -32 6 -131l55 -899q10 -127 10 -176q0 -123 -52 -192.5t-183 -69.5q-109 0 -186 32l26 121q82 -24 133 -24q64 0 90.5 25t26.5 99q0 28 -6 127l-57 908q-9 124 -9 174q0 59 10.5 103.5t35 83t72 59t116.5 20.5
q93 0 188 -31z" />
    <glyph glyph-name="approxequal" unicode="&#x2248;" horiz-adv-x="1167" 
d="M840 352q-59 0 -114.5 21.5t-91.5 47t-81 47t-84 21.5q-86 0 -190 -124l-82 73q143 183 288 183q51 0 104 -22t90.5 -48t85.5 -48t89 -22q52 0 96 28t99 91l81 -80q-138 -168 -290 -168zM893 700q-58 0 -113.5 21.5t-92 47.5t-81.5 47.5t-84 21.5q-51 0 -95.5 -32.5
t-94.5 -92.5l-82 73q143 183 291 183q51 0 103.5 -22t89 -48t84 -48t89.5 -22q51 0 96 28t101 91l80 -80q-143 -168 -291 -168z" />
    <glyph glyph-name="notequal" unicode="&#x2260;" 
d="M1055 526l-25 -133h-426l-121 -266h-143l121 266h-260l24 133h295l103 222h-357l23 133h397l113 254h143l-115 -254h291l-22 -133h-330l-100 -222h389z" />
    <glyph glyph-name="lessequal" unicode="&#x2264;" 
d="M1069 1067l43 -125l-674 -289l566 -288l-74 -121l-670 350l23 125zM1067 197l-20 -134h-830l21 134h829z" />
    <glyph glyph-name="greaterequal" unicode="&#x2265;" 
d="M887 668l-561 284l71 117l670 -346l-23 -129l-780 -342l-45 125zM989 197l-20 -134h-830l21 134h829z" />
    <glyph glyph-name="lozenge" unicode="&#x25ca;" horiz-adv-x="1187" 
d="M1188 680l-395 -680h-152l-395 676l395 670h152zM1042 678l-327 555l-322 -553l330 -574z" />
    <glyph glyph-name="onefifth" unicode="&#xf500;" horiz-adv-x="1638" 
d="M225 643h158l98 549l-198 -84l-29 90l266 135h131l-33 -121l-100 -569h152l-21 -108h-444zM606 -8l-110 57l825 1284l115 -53zM1186 397l125 404h413l-20 -109h-311l-66 -203q313 6 313 -215q0 -51 -15 -97t-50 -90t-104 -70.5t-164 -26.5q-79 0 -148 21.5t-100 45.5
l59 99q86 -58 197 -58q97 0 142.5 46t45.5 112q0 39 -15 66t-38.5 42t-67 22.5t-86 9.5t-110.5 1z" />
    <glyph glyph-name="twofifths" unicode="&#xf501;" horiz-adv-x="1638" 
d="M340 1153l-49 90q80 50 152 76.5t157 26.5q99 0 152 -52t53 -127q0 -70 -31 -126.5t-115 -133.5l-282 -262h368l-20 -110h-535l17 96l317 295q77 70 109.5 118t32.5 101q0 43 -27.5 65.5t-73.5 22.5q-91 0 -225 -80zM623 -8l-111 57l825 1284l115 -53zM1139 397l125 404
h413l-20 -109h-311l-66 -203q313 6 313 -215q0 -51 -15 -97t-50 -90t-104 -70.5t-164 -26.5q-79 0 -148 21.5t-100 45.5l59 99q86 -58 197 -58q97 0 142.5 46t45.5 112q0 39 -15 66t-38.5 42t-67 22.5t-86 9.5t-110.5 1z" />
    <glyph glyph-name="threefifths" unicode="&#xf502;" horiz-adv-x="1638" 
d="M358 1178l-39 88q165 80 289 80q96 0 148.5 -47.5t52.5 -122.5q0 -123 -127 -201q61 -119 61 -207q0 -49 -16.5 -91t-51 -77.5t-94.5 -55.5t-141 -20q-67 0 -138 18.5t-107 41.5l51 98q93 -51 194 -51q83 0 128.5 35t45.5 102q0 59 -45 154q-82 -29 -174 -50l-22 97
q61 14 127 32q46 16 70 26t52.5 27.5t41 40.5t12.5 54q0 90 -103 90q-69 0 -215 -61zM606 -8l-110 57l825 1284l115 -53zM1153 397l125 404h414l-21 -109h-311l-66 -203q314 6 314 -215q0 -40 -8.5 -77t-32 -75.5t-60 -67t-96.5 -46.5t-137 -18q-79 0 -148 21.5t-100 45.5
l59 99q86 -58 197 -58q97 0 142.5 46t45.5 112q0 39 -15 66t-38.5 42t-67 22.5t-86 9.5t-110.5 1z" />
    <glyph glyph-name="fourfifths" unicode="&#xf503;" horiz-adv-x="1638" 
d="M651 1051h80l-41 -232h139l-16 -108h-139l-33 -176h-133l33 180h-342l16 96l346 539l105 -47l-312 -484h211l21 84zM606 -8l-110 57l825 1284l115 -53zM1124 397l125 404h414l-21 -109h-311l-65 -203q313 6 313 -215q0 -40 -8.5 -77t-32 -75.5t-60 -67t-96.5 -46.5
t-137 -18q-79 0 -148 21.5t-100 45.5l60 99q86 -58 196 -58q98 0 143.5 46.5t45.5 111.5q0 33 -9 57t-30 39.5t-45 25t-64 13.5t-77 5.5t-93 0.5z" />
    <glyph glyph-name="onesixth" unicode="&#xf504;" horiz-adv-x="1638" 
d="M225 643h158l98 549l-198 -84l-29 90l266 135h131l-33 -121l-100 -569h152l-21 -108h-444zM598 -8l-111 57l826 1284l114 -53zM1589 836l15 -103q-145 -14 -239 -95.5t-122 -182.5q100 59 209 59q97 0 148 -57.5t51 -143.5q0 -37 -6 -71q-19 -116 -101 -184t-215 -68
q-122 0 -182 72.5t-60 195.5q0 52 9 111q15 86 50.5 160t93.5 138t147 108t202 61zM1516 240q4 18 4 55q0 115 -117 115q-39 0 -91 -16t-89 -42q-6 -46 -6 -92q0 -164 122 -164q154 0 177 144z" />
    <glyph glyph-name="fivesixths" unicode="&#xf505;" horiz-adv-x="1638" 
d="M287 932l125 403h413l-20 -108h-311l-66 -203q313 6 313 -215q0 -51 -15 -97t-50 -90.5t-104 -71t-164 -26.5q-79 0 -148 22t-100 46l59 98q84 -57 197 -57q97 0 142.5 46.5t45.5 111.5q0 39 -15 66t-38.5 42t-67 22.5t-86 9.5t-110.5 1zM586 -8l-111 57l825 1284
l115 -53zM1573 836l14 -103q-144 -14 -238 -95t-122 -183q100 59 209 59q97 0 147.5 -57.5t50.5 -143.5q0 -37 -6 -71q-19 -116 -100.5 -184t-214.5 -68q-122 0 -182 72.5t-60 195.5q0 59 8 111q15 86 50.5 160t94 138t147.5 108t202 61zM1499 240q4 18 4 55q0 115 -117 115
q-39 0 -91 -16t-89 -42q-6 -46 -6 -92q0 -164 123 -164q153 0 176 144z" />
    <glyph glyph-name="oneseventh" unicode="&#xf506;" horiz-adv-x="1638" 
d="M225 643h158l98 549l-198 -84l-29 90l266 135h131l-33 -121l-100 -569h152l-21 -108h-444zM561 -8l-110 57l825 1284l115 -53zM1171 694l19 107h551l-17 -94q-182 -138 -273.5 -302.5t-125.5 -361.5l-8 -43h-131l10 53q16 89 37 162t58.5 158.5t100.5 166.5t148 154h-369
z" />
    <glyph glyph-name="twosevenths" unicode="&#xf507;" horiz-adv-x="1638" 
d="M289 1153l-49 90q80 50 152 76.5t157 26.5q99 0 152 -52t53 -127q0 -70 -31 -126.5t-115 -133.5l-282 -262h368l-20 -110h-535l17 96l317 295q76 70 108.5 118t32.5 101q0 43 -27 65.5t-73 22.5q-91 0 -225 -80zM578 -8l-111 57l825 1284l115 -53zM1171 694l19 107h551
l-17 -94q-182 -138 -273.5 -302.5t-125.5 -361.5l-8 -43h-131l10 53q16 89 37 162t58.5 158.5t100.5 166.5t148 154h-369z" />
    <glyph glyph-name="threesevenths" unicode="&#xf508;" horiz-adv-x="1638" 
d="M340 1178l-39 88q165 80 289 80q96 0 148.5 -47.5t52.5 -122.5q0 -123 -127 -201q61 -119 61 -207q0 -49 -16.5 -91t-51 -77.5t-94.5 -55.5t-141 -20q-67 0 -138.5 18.5t-107.5 41.5l51 98q93 -51 195 -51q83 0 128.5 35t45.5 102q0 59 -45 154q-82 -29 -174 -50l-23 97
q61 14 127 32q46 16 70 26t52.5 27.5t41 40.5t12.5 54q0 90 -102 90q-69 0 -215 -61zM567 -8l-110 57l825 1284l115 -53zM1171 694l19 107h551l-17 -94q-182 -138 -273.5 -302.5t-125.5 -361.5l-8 -43h-131l10 53q16 89 37 162t58.5 158.5t100.5 166.5t148 154h-369z" />
    <glyph glyph-name="foursevenths" unicode="&#xf509;" horiz-adv-x="1638" 
d="M621 1051h79l-41 -232h140l-17 -108h-139l-33 -176h-133l33 180h-342l16 96l346 539l105 -47l-311 -484h211l20 84zM561 -8l-110 57l825 1284l115 -53zM1135 694l18 107h551l-16 -94q-182 -138 -274 -303t-126 -361l-8 -43h-131l10 53q16 89 37 162t58.5 158.5
t100.5 166.5t148 154h-368z" />
    <glyph glyph-name="fivesevenths" unicode="&#xf50a;" horiz-adv-x="1638" 
d="M264 932l125 403h414l-21 -108h-311l-65 -203q313 6 313 -215q0 -40 -8.5 -77t-32 -76t-60 -67.5t-96.5 -46.5t-137 -18q-79 0 -148 22t-100 46l60 98q84 -57 196 -57q98 0 143.5 46.5t45.5 111.5q0 33 -9 57t-30 39.5t-45 25t-64 13.5t-77 5.5t-93 0.5zM557 -8l-111 57
l826 1284l114 -53zM1171 694l19 107h551l-17 -94q-182 -138 -273.5 -302.5t-125.5 -361.5l-8 -43h-131l10 53q16 89 37 162t58.5 158.5t100.5 166.5t148 154h-369z" />
    <glyph glyph-name="sixsevenths" unicode="&#xf50b;" horiz-adv-x="1638" 
d="M713 1370l14 -102q-144 -14 -238 -95.5t-122 -183.5q102 60 208 60q97 0 148 -57.5t51 -143.5q0 -38 -6 -72q-19 -116 -100.5 -184t-214.5 -68q-122 0 -182 73t-60 196q0 58 8 110q15 86 50.5 160t94 138t147.5 108t202 61zM639 774q4 18 4 55q0 115 -117 115
q-40 0 -91.5 -16t-88.5 -41q-6 -47 -6 -92q0 -164 123 -164q153 0 176 143zM547 -8l-111 57l826 1284l114 -53zM1137 694l18 107h551l-16 -94q-182 -138 -274 -303t-126 -361l-8 -43h-131l10 53q16 89 37 162t58.5 158.5t100.5 166.5t148 154h-368z" />
    <glyph glyph-name="oneninth" unicode="&#xf50c;" horiz-adv-x="1638" 
d="M225 643h158l98 549l-198 -84l-29 90l266 135h131l-33 -121l-100 -569h152l-21 -108h-444zM565 -8l-110 57l825 1284l115 -53zM1182 -35l-19 103q149 17 243 97t122 181q-100 -59 -209 -59q-97 0 -148 59.5t-51 145.5q0 36 6 71q19 115 100.5 181.5t215.5 66.5
q122 0 181.5 -72.5t59.5 -195.5q0 -59 -8 -111q-30 -185 -150.5 -309t-342.5 -158zM1255 561q-4 -18 -4 -55q0 -115 117 -115q39 0 91 16t89 42q6 47 6 92q0 164 -122 164q-154 0 -177 -144z" />
    <glyph glyph-name="twoninths" unicode="&#xf50d;" horiz-adv-x="1638" 
d="M303 1153l-49 90q80 50 152 76.5t157 26.5q99 0 152 -52t53 -127q0 -70 -31 -126.5t-114 -133.5l-283 -262h369l-21 -110h-534l16 96l317 295q77 70 109.5 118t32.5 101q0 43 -27.5 65.5t-73.5 22.5q-91 0 -225 -80zM592 -8l-111 57l826 1284l114 -53zM1182 -35l-19 103
q149 17 243 97t122 181q-100 -59 -209 -59q-97 0 -148 59.5t-51 145.5q0 36 6 71q19 115 100.5 181.5t215.5 66.5q122 0 181.5 -72.5t59.5 -195.5q0 -59 -8 -111q-30 -185 -150.5 -309t-342.5 -158zM1255 561q-4 -18 -4 -55q0 -115 117 -115q39 0 91 16t89 42q6 47 6 92
q0 164 -122 164q-154 0 -177 -144z" />
    <glyph glyph-name="fourninths" unicode="&#xf50e;" horiz-adv-x="1638" 
d="M623 1051h79l-40 -232h139l-17 -108h-139l-33 -176h-133l33 180h-342l16 96l346 539l105 -47l-311 -484h211l20 84zM598 -8l-111 57l826 1284l114 -53zM1182 -35l-19 103q149 17 243 97t122 181q-100 -59 -209 -59q-97 0 -148 59.5t-51 145.5q0 36 6 71
q19 115 100.5 181.5t215.5 66.5q122 0 181.5 -72.5t59.5 -195.5q0 -59 -8 -111q-30 -185 -150.5 -309t-342.5 -158zM1255 561q-4 -18 -4 -55q0 -115 117 -115q39 0 91 16t89 42q6 47 6 92q0 164 -122 164q-154 0 -177 -144z" />
    <glyph glyph-name="fiveninths" unicode="&#xf50f;" horiz-adv-x="1638" 
d="M330 932l125 403h413l-20 -108h-311l-66 -203q313 6 313 -215q0 -51 -15 -97t-50 -90.5t-104 -71t-164 -26.5q-79 0 -148 22t-100 46l59 98q84 -57 197 -57q97 0 142.5 46.5t45.5 111.5q0 39 -15 66t-38.5 42t-67 22.5t-86 9.5t-110.5 1zM580 -10l-111 57l825 1284
l115 -53zM1163 -35l-18 103q149 17 242.5 97t121.5 181q-100 -59 -209 -59q-97 0 -147.5 59.5t-50.5 145.5q0 36 6 71q19 115 100 181.5t215 66.5q122 0 182 -72.5t60 -195.5q0 -59 -8 -111q-30 -185 -151 -309t-343 -158zM1237 561q-4 -18 -4 -55q0 -115 117 -115
q39 0 91 16t89 42q6 47 6 92q0 164 -123 164q-153 0 -176 -144z" />
    <glyph glyph-name="sevenninths" unicode="&#xf510;" horiz-adv-x="1638" 
d="M276 1229l19 106h551l-17 -94q-182 -138 -273.5 -302t-125.5 -361l-8 -43h-131l10 53q16 89 37 162t58.5 158.5t100.5 166.5t148 154h-369zM479 -8l-110 57l825 1284l115 -53zM1165 -35l-18 103q149 17 242.5 97t121.5 181q-100 -59 -208 -59q-97 0 -148 59.5t-51 145.5
q0 36 6 71q19 115 100 181.5t215 66.5q122 0 182 -72.5t60 -195.5q0 -59 -8 -111q-30 -185 -151 -309t-343 -158zM1239 561q-4 -18 -4 -55q0 -115 117 -115q39 0 91 16t89 42q6 47 6 92q0 164 -123 164q-153 0 -176 -144z" />
    <glyph glyph-name="eightninths" unicode="&#xf511;" horiz-adv-x="1638" 
d="M195 700q0 52 21.5 97.5t57.5 77t71 52.5t73 36q-117 60 -117 163q0 91 81 155.5t208 64.5q115 0 169 -44.5t54 -109.5q0 -74 -46.5 -126t-127.5 -101q131 -70 131 -185q0 -46 -18 -89.5t-55 -82t-102.5 -61.5t-150.5 -23q-130 0 -189.5 51t-59.5 125zM639 760
q0 47 -37.5 84.5t-93.5 60.5q-74 -24 -127 -75t-53 -107q0 -41 34 -68.5t107 -27.5q75 0 122.5 40.5t47.5 92.5zM571 1247q-67 0 -104 -31.5t-37 -72.5q0 -76 111 -129q56 27 99.5 72.5t43.5 87.5q0 30 -27.5 51.5t-85.5 21.5zM588 -8l-111 57l826 1284l114 -53zM1182 -35
l-19 103q149 17 243 97t122 181q-100 -59 -209 -59q-97 0 -148 59.5t-51 145.5q0 36 6 71q19 115 100.5 181.5t215.5 66.5q122 0 181.5 -72.5t59.5 -195.5q0 -59 -8 -111q-30 -185 -150.5 -309t-342.5 -158zM1255 561q-4 -18 -4 -55q0 -115 117 -115q39 0 91 16t89 42
q6 47 6 92q0 164 -122 164q-154 0 -177 -144z" />
    <glyph glyph-name="zero.tosf" unicode="&#xf81e;" 
d="M733 1047q179 0 283 -105.5t104 -288.5q0 -62 -8 -133q-23 -183 -105 -309t-199.5 -184t-262.5 -58q-187 0 -285 111t-98 295q0 68 12 145q19 134 70.5 236.5t126 165t165.5 94t197 31.5zM563 96q68 0 128 23.5t112.5 71t90.5 130t54 191.5q8 60 8 133q0 135 -65 205
t-178 70q-146 0 -244.5 -99t-136.5 -311q-8 -55 -8 -121q0 -139 60 -216t179 -77z" />
    <glyph glyph-name="one.tosf" unicode="&#xf81f;" 
d="M317 129h256l125 711l-340 -162l-41 102l431 238h157l-37 -146l-131 -743h254l-22 -129h-674z" />
    <glyph glyph-name="two.tosf" unicode="&#xf820;" 
d="M307 745l-80 101q240 201 484 201q148 0 228.5 -76t80.5 -203q0 -131 -66 -220t-227 -194l-346 -225h577l-20 -129h-838l21 106l444 295q122 81 184.5 139t84.5 105t22 109q0 74 -43 115.5t-133 41.5q-162 0 -373 -166z" />
    <glyph glyph-name="three.tosf" unicode="&#xf821;" 
d="M788 440q140 -153 140 -307q0 -97 -40.5 -175t-110.5 -131.5t-173.5 -92.5t-219.5 -61.5t-259 -34.5l-8 129q70 7 128.5 15t127.5 22.5t122.5 32t105.5 44.5t86.5 60t55.5 78.5t21 99.5q0 131 -115 246q-105 -48 -248 -80l-26 123q112 28 191 57.5t143.5 69.5t96.5 93.5
t32 121.5q0 159 -168 159q-152 0 -351 -135l-63 105q97 73 215 120.5t238 47.5q149 0 225 -75t76 -196q0 -104 -51.5 -185t-170.5 -151z" />
    <glyph glyph-name="four.tosf" unicode="&#xf822;" 
d="M819 602h99l-82 -471h194l-22 -131h-197l-57 -313h-162l55 315h-581l18 111l571 913l127 -65l-522 -830h418l41 178z" />
    <glyph glyph-name="five.tosf" unicode="&#xf823;" 
d="M276 393l193 625h614l-22 -131h-486l-112 -369q104 -1 188.5 -18.5t154 -55t108 -104.5t38.5 -158q0 -129 -63 -230.5t-176 -168t-262 -103.5t-328 -45l-8 129q148 10 267 38.5t209.5 77t139.5 122.5t49 168q0 57 -25.5 99.5t-63.5 66t-94.5 37.5t-105.5 18t-110 4
q-74 0 -105 -2z" />
    <glyph glyph-name="six.tosf" unicode="&#xf824;" 
d="M1010 1368l16 -131q-232 -36 -388.5 -172.5t-207.5 -331.5q169 98 346 98q142 0 221.5 -86.5t79.5 -226.5q0 -48 -10 -106q-34 -193 -166 -315t-344 -122q-90 0 -156.5 32t-105 90t-56.5 130t-18 160q0 118 15 203q27 154 82.5 278.5t147 227t228.5 171.5t316 101z
M907 418q8 50 8 86q0 89 -49 147t-145 58q-73 0 -172.5 -36.5t-151.5 -78.5q-20 -92 -20 -209q0 -130 50 -205.5t157 -75.5q122 0 209 82.5t114 231.5z" />
    <glyph glyph-name="seven.tosf" unicode="&#xf825;" 
d="M279 883l24 135h832l-21 -123l-817 -1210h-166l803 1198h-655z" />
    <glyph glyph-name="eight.tosf" unicode="&#xf826;" 
d="M182 266q0 69 23.5 131t56.5 105.5t84 85.5t90.5 66t91.5 51q-178 111 -178 274q0 155 121 261t313 106q83 0 146.5 -21.5t100.5 -58.5t55 -81.5t18 -94.5q0 -212 -285 -385q209 -118 209 -306q0 -64 -17 -124t-55 -114.5t-93 -95t-137 -64.5t-181 -24q-96 0 -169 25
t-114 67t-60.5 91.5t-19.5 105.5zM858 373q0 166 -213 264q-61 -30 -108.5 -61t-95 -73.5t-73.5 -96t-26 -113.5q0 -82 54.5 -136.5t170.5 -54.5q132 0 211.5 78.5t79.5 192.5zM764 1225q-115 0 -182.5 -65t-67.5 -156q0 -142 188 -238q244 135 244 301q0 68 -47.5 113
t-134.5 45z" />
    <glyph glyph-name="nine.tosf" unicode="&#xf827;" 
d="M289 -342l-15 127q243 45 400.5 175.5t202.5 328.5q-68 -54 -154 -79.5t-170 -25.5q-159 0 -246.5 90t-87.5 240q0 107 34 203.5t96.5 170t158 116.5t211.5 43q95 0 166 -32.5t113 -92.5t62.5 -138t20.5 -174q0 -130 -23 -248t-80.5 -235.5t-145.5 -209t-227 -161
t-316 -98.5zM383 530q0 -102 53.5 -161.5t161.5 -59.5q75 0 157.5 34t145.5 89q19 100 19 193q0 293 -220 293q-134 0 -225.5 -107.5t-91.5 -280.5z" />
    <glyph glyph-name="hyphen.case" horiz-adv-x="659" 
d="M166 614l22 136h537l-23 -136h-536z" />
    <glyph glyph-name="zero.num" horiz-adv-x="772" 
d="M618 1346q121 0 190 -71t69 -212q0 -64 -11 -137q-67 -402 -383 -402q-126 0 -195 72t-69 209q0 77 12 143q69 398 387 398zM496 635q43 0 76.5 12.5t65 44t55 91t38.5 147.5q12 64 12 131q0 176 -141 176q-93 0 -153.5 -67.5t-90.5 -237.5q-8 -49 -8 -121
q0 -176 146 -176z" />
    <glyph glyph-name="one.num" horiz-adv-x="772" 
d="M307 643h158l98 549l-198 -84l-29 90l266 135h131l-33 -121l-100 -569h152l-21 -108h-444z" />
    <glyph glyph-name="two.num" horiz-adv-x="772" 
d="M371 1153l-49 90q80 50 152 76.5t157 26.5q99 0 152 -52t53 -127q0 -70 -31 -126.5t-115 -133.5l-282 -262h368l-20 -110h-535l17 96l317 295q76 70 108.5 118t32.5 101q0 43 -27 65.5t-73 22.5q-91 0 -225 -80z" />
    <glyph glyph-name="three.num" horiz-adv-x="772" 
d="M397 1178l-39 88q165 80 289 80q96 0 148.5 -47.5t52.5 -122.5q0 -123 -127 -201q61 -119 61 -207q0 -49 -16.5 -91t-51 -77.5t-94.5 -55.5t-141 -20q-67 0 -138.5 18.5t-107.5 41.5l52 98q93 -51 194 -51q83 0 128.5 35t45.5 102q0 59 -45 154q-82 -29 -174 -50l-22 97
q61 14 127 32q46 16 70 26t52.5 27.5t41 40.5t12.5 54q0 90 -103 90q-69 0 -215 -61z" />
    <glyph glyph-name="four.num" horiz-adv-x="772" 
d="M655 1051h80l-41 -232h140l-17 -108h-139l-33 -176h-133l33 180h-342l16 96l346 539l105 -47l-312 -484h211l21 84z" />
    <glyph glyph-name="five.num" horiz-adv-x="772" 
d="M346 932l125 403h414l-21 -108h-311l-66 -203q314 6 314 -215q0 -40 -8.5 -77t-32 -76t-60 -67.5t-96.5 -46.5t-137 -18q-79 0 -148 22t-100 46l60 98q84 -57 196 -57q98 0 143.5 46.5t45.5 111.5q0 33 -9 57t-30 39.5t-45 25t-64 13.5t-77 5.5t-93 0.5z" />
    <glyph glyph-name="six.num" horiz-adv-x="772" 
d="M750 1370l14 -102q-144 -14 -238.5 -95.5t-122.5 -183.5q102 60 209 60q97 0 148 -57.5t51 -143.5q0 -38 -6 -72q-19 -116 -101 -184t-215 -68q-122 0 -181.5 72.5t-59.5 196.5q0 58 8 110q15 86 50.5 160t94 138t147.5 108t202 61zM676 774q4 18 4 55q0 115 -117 115
q-40 0 -91.5 -16t-88.5 -41q-6 -47 -6 -92q0 -164 123 -164q153 0 176 143z" />
    <glyph glyph-name="seven.num" horiz-adv-x="772" 
d="M332 1229l18 106h551l-16 -94q-182 -138 -274 -302.5t-126 -360.5l-8 -43h-131l10 53q16 89 37 162t58.5 158.5t100.5 166.5t148 154h-368z" />
    <glyph glyph-name="eight.num" horiz-adv-x="772" 
d="M227 700q0 52 22 97.5t58 77t71 52.5t73 36q-117 60 -117 163q0 91 81 155.5t208 64.5q115 0 169 -44.5t54 -109.5q0 -74 -46.5 -126t-127.5 -101q131 -70 131 -185q0 -46 -18 -89.5t-55 -82t-102.5 -61.5t-150.5 -23q-130 0 -190 51t-60 125zM672 760q0 47 -37.5 84.5
t-93.5 60.5q-74 -25 -127.5 -75.5t-53.5 -106.5q0 -41 34.5 -68.5t107.5 -27.5q75 0 122.5 40.5t47.5 92.5zM604 1247q-67 0 -104 -31.5t-37 -72.5q0 -34 27 -68.5t83 -60.5q57 27 100.5 72.5t43.5 87.5q0 30 -27.5 51.5t-85.5 21.5z" />
    <glyph glyph-name="nine.num" horiz-adv-x="772" 
d="M342 500l-18 102q149 17 242.5 97.5t121.5 181.5q-102 -60 -209 -60q-97 0 -147.5 59.5t-50.5 145.5q0 38 6 72q19 115 100 181.5t215 66.5q122 0 182 -73t60 -196q0 -58 -8 -110q-30 -185 -151 -309t-343 -158zM416 1096q-4 -18 -4 -56q0 -114 116 -114q40 0 92 16
t89 41q6 47 6 92q0 164 -123 164q-153 0 -176 -143z" />
    <glyph glyph-name="zero.denom" horiz-adv-x="772" 
d="M526 811q121 0 189.5 -71t68.5 -212q0 -71 -10 -137q-67 -401 -383 -401q-126 0 -195 71.5t-69 208.5q0 78 12 144q69 397 387 397zM403 100q43 0 76.5 12.5t65.5 43.5t55.5 91t38.5 148q12 64 12 131q0 176 -141 176q-93 0 -153.5 -67.5t-90.5 -237.5q-8 -49 -8 -121
q0 -92 37 -134t108 -42z" />
    <glyph glyph-name="one.denom" horiz-adv-x="772" 
d="M215 109h158l98 548l-199 -84l-28 91l266 135h131l-33 -121l-100 -569h151l-20 -109h-444z" />
    <glyph glyph-name="two.denom" horiz-adv-x="772" 
d="M279 618l-50 91q79 49 152 75.5t158 26.5q99 0 151.5 -51.5t52.5 -126.5q0 -70 -31 -126.5t-114 -133.5l-283 -262h369l-20 -111h-535l16 96l318 295q76 70 108.5 118t32.5 101q0 43 -27 65.5t-73 22.5q-91 0 -225 -80z" />
    <glyph glyph-name="three.denom" horiz-adv-x="772" 
d="M305 643l-39 88q165 80 289 80q96 0 148.5 -47.5t52.5 -122.5q0 -123 -127 -201q61 -119 61 -207q0 -104 -73.5 -173.5t-229.5 -69.5q-68 0 -139 18t-107 41l52 98q93 -51 194 -51q83 0 128.5 35t45.5 102q0 59 -45 154q-74 -26 -174 -49l-23 96q41 9 127 33
q38 13 56.5 20t46 21t40.5 27t23.5 33.5t10.5 45.5q0 91 -103 91q-67 0 -215 -62z" />
    <glyph glyph-name="four.denom" horiz-adv-x="772" 
d="M563 516h80l-41 -231h139l-16 -109h-139l-33 -176h-133l33 180h-342l16 96l346 539l105 -47l-312 -483h211l21 84z" />
    <glyph glyph-name="five.denom" horiz-adv-x="772" 
d="M254 397l125 404h414l-21 -109h-311l-66 -203q314 6 314 -215q0 -40 -8.5 -77t-32 -75.5t-60 -67t-96.5 -46.5t-137 -18q-79 0 -148 21.5t-100 45.5l59 99q86 -58 197 -58q97 0 142.5 46t45.5 112q0 39 -15 66t-38.5 42t-67 22.5t-86 9.5t-110.5 1z" />
    <glyph glyph-name="six.denom" horiz-adv-x="772" 
d="M657 836l15 -103q-145 -14 -239 -95.5t-122 -182.5q100 59 209 59q97 0 148 -57.5t51 -143.5q0 -37 -6 -71q-19 -116 -101 -184t-215 -68q-122 0 -181.5 72.5t-59.5 195.5q0 59 8 111q15 86 50.5 160t93.5 138t147 108t202 61zM584 240q4 18 4 55q0 115 -117 115
q-39 0 -91 -16t-89 -42q-6 -46 -6 -92q0 -164 123 -164q153 0 176 144z" />
    <glyph glyph-name="seven.denom" horiz-adv-x="772" 
d="M240 694l18 107h551l-16 -94q-182 -138 -274 -303t-126 -361l-8 -43h-131l10 53q16 89 37 162t58.5 158.5t100.5 166.5t148 154h-368z" />
    <glyph glyph-name="eight.denom" horiz-adv-x="772" 
d="M135 166q0 52 21.5 97t58 76.5t71 52.5t72.5 36q-48 24 -82 65.5t-34 98.5q0 90 80.5 154.5t207.5 64.5q115 0 169.5 -44.5t54.5 -109.5q0 -74 -46.5 -126t-127.5 -101q131 -70 131 -184q0 -46 -18 -89.5t-55 -82t-102.5 -61.5t-150.5 -23q-130 0 -190 51t-60 125z
M580 225q0 47 -37.5 85t-93.5 61q-74 -24 -127.5 -75.5t-53.5 -107.5q0 -41 34.5 -68.5t107.5 -27.5q75 0 122.5 40.5t47.5 92.5zM512 713q-67 0 -104 -32t-37 -73q0 -34 27 -68.5t83 -60.5q57 27 100.5 72.5t43.5 87.5q0 30 -27.5 52t-85.5 22z" />
    <glyph glyph-name="nine.denom" horiz-adv-x="772" 
d="M250 -35l-19 103q149 17 243 97t122 181q-100 -59 -209 -59q-97 0 -148 59.5t-51 145.5q0 31 7 71q19 115 100 181.5t215 66.5q122 0 182 -72.5t60 -195.5q0 -53 -9 -111q-30 -185 -150.5 -309t-342.5 -158zM324 561q-5 -23 -5 -55q0 -115 117 -115q39 0 91 16t89 42
q7 54 7 92q0 164 -123 164q-153 0 -176 -144z" />
    <glyph glyph-name="commaaccent" horiz-adv-x="1024" 
d="M219 -530l189 387q124 -5 124 -64q0 -27 -43 -92q-34 -49 -208 -264z" />
    <glyph glyph-name="revcommaaccent" horiz-adv-x="1024" 
d="M934 1579l-189 -387q-27 2 -45 4.5t-39 9t-32 19.5t-11 32q0 27 44 93q34 49 208 264z" />
    <glyph glyph-name="tilde.cap" horiz-adv-x="1024" 
d="M504 1513l4 119q82 56 176 56q52 0 132 -26t124 -26q61 0 129 35l-6 -127q-79 -35 -141 -35q-45 0 -136 21.5t-129 21.5q-74 0 -153 -39z" />
    <glyph glyph-name="ring.cap" horiz-adv-x="1024" 
d="M610 1538q0 91 59 150t148 59q73 0 113.5 -39.5t40.5 -99.5q0 -92 -60.5 -151.5t-150.5 -59.5q-72 0 -111 39.5t-39 101.5zM807 1661q-43 0 -67.5 -31.5t-24.5 -83.5q0 -63 59 -63q41 0 66.5 32.5t25.5 75.5q0 70 -59 70z" />
    <glyph glyph-name="circumflex.cap" horiz-adv-x="1024" 
d="M526 1468l-59 54q85 87 260 237q32 27 52.5 37t47.5 10q49 0 91 -53q83 -103 169 -235l-63 -48l-213 193z" />
    <glyph glyph-name="acute.cap" horiz-adv-x="1024" 
d="M592 1528l346 287q84 -51 84 -93q0 -29 -21 -50t-63 -46q-98 -57 -305 -160z" />
    <glyph glyph-name="grave.cap" horiz-adv-x="1024" 
d="M735 1827l264 -307l-53 -54q-37 25 -101 67t-101 67.5t-62 44.5q-51 41 -51 77q0 18 7 32t25 28t31 22t41 23z" />
    <glyph glyph-name="dieresis.cap" horiz-adv-x="1024" 
d="M469 1583q0 51 37 87t90 36q39 0 63.5 -25.5t24.5 -64.5q0 -52 -37.5 -87.5t-89.5 -35.5q-41 0 -64.5 25t-23.5 65zM834 1583q0 51 37 87t90 36q39 0 64.5 -25.5t25.5 -64.5q0 -52 -38.5 -87.5t-90.5 -35.5q-40 0 -64 25t-24 65z" />
    <glyph glyph-name="caron.cap" horiz-adv-x="1024" 
d="M575 1806l216 -194l282 200l57 -53q-125 -134 -253 -241q-23 -19 -34.5 -27.5t-30.5 -15.5t-40 -7q-28 0 -47.5 12t-44.5 40q-96 116 -170 237z" />
    <glyph glyph-name="macron.cap" horiz-adv-x="1024" 
d="M508 1520l22 133h535l-23 -133h-534z" />
    <glyph glyph-name="dotaccent.cap" horiz-adv-x="1024" 
d="M694 1593q0 52 37 88.5t90 36.5q39 0 64.5 -25.5t25.5 -64.5q0 -53 -38.5 -89t-90.5 -36q-41 0 -64.5 25t-23.5 65z" />
    <glyph glyph-name="cedilla.cap" horiz-adv-x="1024" 
d="M436 6h99l-76 -153q69 -5 112 -42t43 -102t-36.5 -109.5t-89 -62.5t-115.5 -18q-105 0 -172 39l43 86q65 -27 129 -27q60 0 89.5 23.5t29.5 60.5q0 44 -39 62t-129 16z" />
    <glyph glyph-name="hungarumlaut.cap" horiz-adv-x="1024" 
d="M709 1530l333 285q29 -20 42 -29.5t28.5 -29t15.5 -36.5q0 -19 -13 -37.5t-27.5 -29.5t-43.5 -29q-64 -41 -294 -158zM332 1526l338 291q84 -57 84 -97q0 -19 -14 -38t-27 -28.5t-43 -29.5q-76 -47 -297 -158z" />
    <glyph glyph-name="commaaccent.cap" horiz-adv-x="1024" 
d="M219 -530l189 387q124 -5 124 -64q0 -27 -43 -92q-34 -49 -208 -264z" />
    <glyph glyph-name="breve.cap" horiz-adv-x="1024" 
d="M1028 1759l113 -43q-55 -117 -138.5 -178t-220.5 -61q-131 0 -198 64t-78 173l119 41q14 -84 55.5 -123t122.5 -39q79 0 130.5 38.5t94.5 127.5z" />
    <glyph glyph-name="caron.alt" horiz-adv-x="516" 
d="M373 1006l69 405q62 12 90 12q31 0 46.5 -15t15.5 -38q0 -64 -139 -359q-1 -3 -2 -5l-2.5 -5t-2.5 -5.5t-2 -4.5z" />
    <glyph glyph-name="ogonek.cap" horiz-adv-x="1024" 
d="M483 4l135 -2q-72 -56 -133 -142t-61 -153q0 -72 70 -72q45 0 108 23l16 -102q-86 -39 -180 -39q-85 0 -124.5 42t-39.5 105q0 152 209 340z" />
    <glyph glyph-name="zero.tf" 
d="M784 1346q174 0 268.5 -109.5t94.5 -327.5q0 -118 -21 -247q-57 -359 -204 -520.5t-383 -161.5q-359 0 -359 436q0 138 23 266q123 664 581 664zM567 111q55 0 100.5 13.5t92.5 50.5t84 97t69 157.5t52 227.5q20 125 20 265q0 159 -57 224.5t-164 65.5q-72 0 -129 -26
t-108.5 -87.5t-91.5 -171.5t-68 -270q-23 -135 -23 -256q0 -157 57 -223.5t166 -66.5z" />
    <glyph glyph-name="one.tf" 
d="M299 129h258l178 1018l-346 -168l-41 102l430 238h158l-37 -143l-184 -1047h250l-23 -129h-666z" />
    <glyph glyph-name="two.tf" 
d="M401 1057l-75 108q98 83 215.5 132t236.5 49q146 0 229 -81t83 -210q0 -128 -60.5 -231t-187.5 -222l-502 -469h666l-25 -133h-870l22 117l557 528q124 117 178 199t54 184q0 84 -50 130t-127 46q-155 0 -344 -147z" />
    <glyph glyph-name="three.tf" 
d="M385 1049l-72 104q100 80 230 136.5t256 56.5q153 0 231 -80.5t78 -194.5q0 -112 -50.5 -195t-178.5 -155q133 -147 133 -309q0 -89 -30 -166t-89 -138.5t-156 -97t-221 -35.5q-111 0 -218 32.5t-159 70.5l70 125q62 -39 147.5 -65.5t175.5 -26.5q140 0 229 78t89 208
q0 138 -107 248q-105 -47 -247 -76l-29 123q95 24 162 46t130 53t100.5 66.5t60 84.5t22.5 109q0 73 -46.5 115t-131.5 42q-153 0 -379 -159z" />
    <glyph glyph-name="four.tf" 
d="M915 903h99l-78 -430h197l-21 -131h-197l-61 -342h-164l62 342h-580l21 127l569 874l125 -65l-527 -805h422l39 164z" />
    <glyph glyph-name="five.tf" 
d="M313 657l201 662h643l-24 -135h-515l-126 -410q509 -19 509 -371q0 -65 -15 -123.5t-52 -114.5t-93 -97t-144 -66t-199 -25q-114 0 -229 35.5t-158 73.5l75 125q153 -100 322 -100q87 0 152.5 23t102 63.5t54 89t17.5 104.5q0 41 -10 74.5t-26 58.5t-44 45t-54.5 33
t-66.5 23t-72.5 15t-80.5 9t-81.5 5t-83.5 3h-2z" />
    <glyph glyph-name="six.tf" 
d="M1004 1368l16 -131q-232 -36 -388.5 -172.5t-207.5 -331.5q169 98 346 98q142 0 221.5 -86.5t79.5 -226.5q0 -48 -10 -106q-34 -193 -166 -315t-344 -122q-90 0 -156.5 32t-105 90t-56.5 130t-18 160q0 124 14 203q27 154 83 278.5t147.5 227t228.5 171.5t316 101z
M901 418q8 50 8 86q0 89 -49 147t-145 58q-73 0 -172.5 -36.5t-151.5 -78.5q-20 -92 -20 -209q0 -130 50 -205.5t157 -75.5q122 0 209 82.5t114 231.5z" />
    <glyph glyph-name="seven.tf" 
d="M358 1184l27 135h834l-23 -123q-569 -400 -672 -1112l-12 -84h-162l15 90q22 139 60 266t105.5 271t179.5 287t261 270h-613z" />
    <glyph glyph-name="eight.tf" 
d="M182 266q0 69 23.5 131t56.5 105.5t84 85.5t90.5 66t91.5 51q-178 111 -178 274q0 155 121 261t313 106q83 0 146.5 -21.5t100.5 -58.5t55 -81.5t18 -94.5q0 -212 -285 -385q209 -118 209 -306q0 -64 -17 -124t-55 -114.5t-93 -95t-137 -64.5t-181 -24q-96 0 -169 25
t-114 67t-60.5 91.5t-19.5 105.5zM858 373q0 166 -213 264q-61 -30 -108.5 -61t-95 -73.5t-73.5 -96t-26 -113.5q0 -82 54.5 -136.5t170.5 -54.5q132 0 211.5 78.5t79.5 192.5zM764 1225q-115 0 -182.5 -65t-67.5 -156q0 -142 188 -238q244 135 244 301q0 68 -47.5 113
t-134.5 45z" />
    <glyph glyph-name="nine.tf" 
d="M332 -43l-15 127q243 45 400.5 175.5t202.5 328.5q-68 -54 -154 -79.5t-170 -25.5q-159 0 -246.5 90t-87.5 240q0 107 34 203.5t96.5 170t158 116.5t211.5 43q95 0 166 -32.5t113 -92.5t62.5 -138t20.5 -174q0 -130 -23 -248t-80.5 -235.5t-145.5 -209t-227 -161
t-316 -98.5zM426 829q0 -102 53.5 -161.5t161.5 -59.5q75 0 157.5 34t145.5 89q19 100 19 193q0 293 -220 293q-134 0 -225.5 -107.5t-91.5 -280.5z" />
    <glyph glyph-name="dollar.tf" 
d="M143 145l80 121q130 -102 287 -119l86 490q-43 17 -72 30.5t-66 34.5t-61 45t-46 55.5t-33 72t-11 88.5q0 166 111 266.5t301 111.5l35 189h125l-35 -193q103 -16 188 -64t137 -108l-100 -98q-119 115 -248 137l-82 -463q53 -23 86.5 -39.5t77 -46.5t68.5 -62.5t43 -82
t18 -109.5q0 -168 -111 -271.5t-311 -115.5l-41 -235h-125l41 235q-112 11 -207 51t-135 80zM868 387q0 74 -39.5 120.5t-115.5 82.5l-78 -440q101 12 167 68t66 169zM473 991q0 -72 39 -117.5t111 -80.5l73 413q-96 -12 -159.5 -63.5t-63.5 -151.5z" />
    <glyph glyph-name="Euro.tf" 
d="M1022 487l22 123h-882l-23 -123h250q-160 -80 -160 -249q0 -52 20 -97.5t62.5 -84.5t119.5 -62t181 -23q289 0 492 162l-74 117q-181 -139 -377 -139q-250 0 -250 165q0 91 74 151t197 60h348zM1083 825l-22 -123h-883l23 123h250q-39 23 -64 71.5t-25 98.5q0 109 63 190
t167.5 121t236.5 40q125 0 242 -53.5t205 -166.5l-113 -94q-68 81 -158 127.5t-188 46.5q-133 0 -210 -51t-77 -156q0 -86 52.5 -130t138.5 -44h362z" />
    <glyph glyph-name="cent.tf" 
d="M528 -123l39 229q-146 23 -221.5 130.5t-75.5 283.5q0 136 30.5 246.5t78.5 182t113.5 122t130 74.5t133.5 31l41 227h133l-41 -232q182 -33 256 -182l-117 -76q-64 107 -162 127l-141 -804q115 13 221 90l58 -111q-53 -41 -134.5 -72.5t-169.5 -40.5l-38 -225h-134z
M434 539q0 -243 158 -293l139 792q-132 -29 -214.5 -158.5t-82.5 -340.5z" />
    <glyph glyph-name="sterling.tf" 
d="M121 319l22 123h232l209 539q43 112 93 186t107 112t113 52.5t129 14.5q152 0 274 -103l-90 -102q-89 73 -190 73q-110 0 -170.5 -59t-118.5 -207l-199 -506h363l-21 -120h-385l-88 -218q-40 -100 -90 -163.5t-125 -108.5v-4q90 22 144 22q63 0 178.5 -26.5t198.5 -26.5
q103 0 219 27l-39 -133q-126 -21 -207 -21q-100 0 -238.5 29t-222.5 29q-53 0 -126 -14t-130 -38l23 148q86 39 147.5 102t102.5 164l94 229h-209z" />
    <glyph glyph-name="yen.tf" 
d="M537 334h-349l23 117h348l29 176h-346l20 114h283l-217 578h164l198 -559l385 559h174l-415 -578h276l-20 -114h-342l-31 -176h342l-21 -117h-342l-59 -334h-158z" />
    <glyph glyph-name="florin.tf" horiz-adv-x="989" 
d="M254 668l45 129h209l63 188q26 75 50 127t58 99t74.5 75t97 44t128.5 16q121 0 238 -62l-66 -108q-88 43 -170 43q-93 0 -147.5 -50t-92.5 -159l-75 -213h321l-49 -129h-317l-250 -717q-29 -84 -54.5 -140t-59.5 -105.5t-74.5 -77t-96 -43t-127.5 -15.5q-147 0 -256 68
l57 112q96 -55 193 -55q95 0 151 53t95 164l262 756h-207z" />
    <glyph glyph-name="zero.osf" horiz-adv-x="1040" 
d="M702 1047q179 0 283.5 -105.5t104.5 -288.5q0 -53 -9 -133q-23 -183 -105 -309t-199.5 -184t-262.5 -58q-187 0 -285 111t-98 295q0 68 12 145q19 134 70.5 236.5t126 165t165.5 94t197 31.5zM532 96q68 0 128 23.5t113 71t91 130t54 191.5q8 60 8 133q0 135 -65.5 205
t-178.5 70q-146 0 -244.5 -99t-136.5 -311q-8 -55 -8 -121q0 -139 60 -216t179 -77z" />
    <glyph glyph-name="one.osf" horiz-adv-x="899" 
d="M217 129h256l125 711l-340 -162l-41 102l430 238h158l-37 -146l-131 -743h254l-23 -129h-673z" />
    <glyph glyph-name="two.osf" horiz-adv-x="983" 
d="M279 745l-80 101q240 201 483 201q148 0 228.5 -76t80.5 -203q0 -131 -66 -220t-227 -194l-346 -225h578l-21 -129h-837l20 106l445 295q177 117 233.5 189t56.5 164q0 74 -43 115.5t-133 41.5q-161 0 -372 -166z" />
    <glyph glyph-name="three.osf" horiz-adv-x="956" 
d="M748 440q139 -152 139 -307q0 -97 -40.5 -175t-110.5 -131.5t-173.5 -92.5t-219.5 -61.5t-259 -34.5l-8 129q70 7 128.5 15t127.5 22.5t122.5 32t105.5 44.5t86.5 60t55.5 78.5t21 99.5q0 131 -115 246q-105 -48 -248 -80l-26 123q112 28 191 57.5t143.5 69.5t96.5 93.5
t32 121.5q0 159 -168 159q-151 0 -350 -135l-64 105q97 73 215 120.5t238 47.5q149 0 225 -75t76 -196q0 -104 -51 -185t-170 -151z" />
    <glyph glyph-name="four.osf" horiz-adv-x="1005" 
d="M848 602h98l-82 -471h195l-23 -131h-196l-58 -313h-161l55 315h-582l19 111l571 913l127 -65l-522 -830h418l41 178z" />
    <glyph glyph-name="five.osf" horiz-adv-x="933" 
d="M223 393l193 625h614l-22 -131h-486l-112 -369q104 -1 188.5 -18.5t154 -55t108 -104.5t38.5 -158q0 -129 -63 -230.5t-176 -168t-262 -103.5t-328 -45l-9 129q148 10 267 38.5t209.5 77t140 122.5t49.5 168q0 57 -25.5 99.5t-63.5 66t-94.5 37.5t-105.5 18t-110 4
q-74 0 -105 -2z" />
    <glyph glyph-name="six.osf" horiz-adv-x="1071" 
d="M989 1368l17 -131q-232 -36 -388.5 -172.5t-207.5 -331.5q169 98 346 98q142 0 221.5 -86.5t79.5 -226.5q0 -48 -10 -106q-34 -193 -166 -315t-344 -122q-90 0 -156.5 32t-105 90t-56.5 130t-18 160q0 124 14 203q27 154 82.5 278.5t147 227t228.5 171.5t316 101z
M887 418q8 50 8 86q0 89 -49.5 147t-145.5 58q-73 0 -172 -36.5t-151 -78.5q-21 -97 -21 -209q0 -130 50 -205.5t157 -75.5q122 0 209.5 82.5t114.5 231.5z" />
    <glyph glyph-name="seven.osf" horiz-adv-x="921" 
d="M166 883l24 135h832l-21 -123l-817 -1210h-166l803 1198h-655z" />
    <glyph glyph-name="eight.osf" horiz-adv-x="1069" 
d="M182 266q0 69 23.5 131t56.5 105.5t84 85.5t90.5 66t91.5 51q-178 111 -178 274q0 155 121 261t313 106q83 0 146.5 -21.5t100.5 -58.5t55 -81.5t18 -94.5q0 -212 -285 -385q209 -118 209 -306q0 -64 -17 -124t-55 -114.5t-93 -95t-137 -64.5t-181 -24q-96 0 -169 25
t-114 67t-60.5 91.5t-19.5 105.5zM858 373q0 166 -213 264q-61 -30 -108.5 -61t-95 -73.5t-73.5 -96t-26 -113.5q0 -82 54.5 -136.5t170.5 -54.5q132 0 211.5 78.5t79.5 192.5zM764 1225q-115 0 -182.5 -65t-67.5 -156q0 -142 188 -238q244 135 244 301q0 68 -47.5 113
t-134.5 45z" />
    <glyph glyph-name="nine.osf" horiz-adv-x="1071" 
d="M268 -342l-14 127q243 44 399.5 174.5t202.5 329.5q-68 -54 -154 -79.5t-170 -25.5q-159 0 -246 90t-87 240q0 145 57.5 264.5t173 194t268.5 74.5q95 0 166 -32.5t113.5 -92.5t63 -138t20.5 -174q0 -130 -23.5 -248t-81 -235.5t-145.5 -209t-227 -161t-316 -98.5z
M362 530q0 -101 54 -161t162 -60q75 0 157.5 34t145.5 89q18 94 18 193q0 293 -219 293q-134 0 -226 -107.5t-92 -280.5z" />
    <glyph glyph-name="dollar.osf" 
d="M143 145l80 121q130 -102 287 -119l86 490q-43 17 -72 30.5t-66 34.5t-61 45t-46 55.5t-33 72t-11 88.5q0 166 111 266.5t301 111.5l35 189h125l-35 -193q103 -16 188 -64t137 -108l-100 -98q-119 115 -248 137l-82 -463q53 -23 86.5 -39.5t77 -46.5t68.5 -62.5t43 -82
t18 -109.5q0 -168 -111 -271.5t-311 -115.5l-41 -235h-125l41 235q-112 11 -207 51t-135 80zM868 387q0 74 -39.5 120.5t-115.5 82.5l-78 -440q101 12 167 68t66 169zM473 991q0 -72 39 -117.5t111 -80.5l73 413q-96 -12 -159.5 -63.5t-63.5 -151.5z" />
    <glyph glyph-name="Euro.osf" horiz-adv-x="1112" 
d="M1022 487l22 123h-882l-23 -123h250q-160 -80 -160 -249q0 -52 20 -97.5t62.5 -84.5t119.5 -62t181 -23q289 0 492 162l-74 117q-181 -139 -377 -139q-250 0 -250 165q0 91 74 151t197 60h348zM1083 825l-22 -123h-883l23 123h250q-39 23 -64 71.5t-25 98.5q0 109 63 190
t167.5 121t236.5 40q125 0 242 -53.5t205 -166.5l-113 -94q-68 81 -158 127.5t-188 46.5q-133 0 -210 -51t-77 -156q0 -86 52.5 -130t138.5 -44h362z" />
    <glyph glyph-name="cent.osf" 
d="M537 -266l38 229q-146 23 -221 130.5t-75 283.5q0 136 30 246.5t78 181.5t113.5 121.5t130 74.5t133.5 31l41 228h133l-41 -232q182 -33 256 -182l-117 -76q-64 107 -162 127l-141 -805q115 13 221 90l58 -110q-53 -41 -134 -72.5t-169 -40.5l-39 -225h-133zM442 395
q0 -243 158 -293l139 793q-132 -29 -214.5 -158.5t-82.5 -341.5z" />
    <glyph glyph-name="sterling.osf" horiz-adv-x="1112" 
d="M193 319l22 123h231l209 539q43 112 93 186t107.5 112t113.5 52.5t129 14.5q152 0 274 -103l-90 -102q-89 73 -190 73q-110 0 -170.5 -59t-118.5 -207l-199 -506h363l-21 -120h-385l-88 -218q-40 -100 -90 -163.5t-125 -108.5v-4q90 22 143 22q63 0 178.5 -26.5
t198.5 -26.5q103 0 219 27l-39 -133q-126 -21 -206 -21q-100 0 -238.5 29t-222.5 29q-53 0 -126 -14t-130 -38l22 148q86 39 147.5 102t102.5 164l94 229h-208z" />
    <glyph glyph-name="yen.osf" horiz-adv-x="1056" 
d="M516 334h-348l22 117h349l28 176h-346l21 114h282l-217 578h164l199 -559l385 559h174l-416 -578h277l-21 -114h-342l-31 -176h342l-20 -117h-342l-60 -334h-157z" />
    <glyph glyph-name="florin.osf" horiz-adv-x="1050" 
d="M324 668l45 129h209l63 188q26 75 50 127t58 99t74.5 75t97 44t128.5 16q120 0 237 -62l-65 -108q-88 43 -170 43q-93 0 -147.5 -50t-92.5 -159l-76 -213h322l-49 -129h-318l-250 -717q-37 -106 -69 -170.5t-79 -116t-110 -73t-153 -21.5q-147 0 -256 68l57 112
q96 -55 193 -55q95 0 150.5 53t94.5 164l262 756h-206z" />
    <glyph glyph-name="dollar.tosf" 
d="M123 145l80 121q49 -39 123.5 -74.5t162.5 -44.5l86 490q-42 17 -71.5 30.5t-66 34.5t-60.5 45t-46.5 55.5t-33 72t-10.5 88.5q0 166 110.5 266.5t300.5 111.5l35 189h125l-35 -193q103 -16 188.5 -64t137.5 -108l-100 -98q-119 115 -248 137l-82 -463q53 -23 86.5 -39.5
t77 -46.5t68.5 -62.5t43 -82t18 -109.5q0 -168 -111 -271.5t-311 -115.5l-41 -235h-125l41 235q-112 11 -207 51t-135 80zM848 387q0 74 -40 120.5t-116 82.5l-78 -440q101 12 167.5 68t66.5 169zM453 991q0 -72 39 -117.5t110 -80.5l74 413q-96 -12 -159.5 -63.5
t-63.5 -151.5z" />
    <glyph glyph-name="Euro.tosf" 
d="M1010 487l22 123h-882l-23 -123h250q-160 -80 -160 -249q0 -52 20 -97.5t62.5 -84.5t119.5 -62t181 -23q289 0 492 162l-74 117q-181 -139 -377 -139q-250 0 -250 165q0 91 74 151t197 60h348zM1071 825l-22 -123h-883l22 123h250q-39 23 -63.5 71.5t-24.5 98.5
q0 109 63 190t167.5 121t236.5 40q125 0 242 -53.5t205 -166.5l-113 -94q-68 81 -158 127.5t-188 46.5q-133 0 -210 -51t-77 -156q0 -86 52.5 -130t138.5 -44h362z" />
    <glyph glyph-name="cent.tosf" 
d="M530 -266l39 229q-146 23 -221.5 130.5t-75.5 283.5q0 136 30.5 246.5t78.5 181.5t113.5 121.5t130 74.5t133.5 31l41 228h133l-41 -232q182 -33 256 -182l-117 -76q-64 107 -162 127l-141 -805q115 13 221 90l58 -110q-53 -41 -134.5 -72.5t-169.5 -40.5l-38 -225h-134z
M436 395q0 -243 158 -293l139 793q-132 -29 -214.5 -158.5t-82.5 -341.5z" />
    <glyph glyph-name="sterling.tosf" 
d="M137 319l23 123h231l209 539q43 112 93 186t107 112t113 52.5t129 14.5q153 0 275 -103l-90 -102q-89 73 -191 73q-110 0 -170 -59t-118 -207l-199 -506h362l-20 -120h-385l-88 -218q-40 -100 -90 -163.5t-125 -108.5v-4q90 22 143 22q63 0 178.5 -26.5t198.5 -26.5
q103 0 219 27l-39 -133q-126 -21 -207 -21q-100 0 -238 29t-222 29q-53 0 -126 -14t-130 -38l22 148q86 39 147.5 102t102.5 164l94 229h-209z" />
    <glyph glyph-name="yen.tosf" 
d="M530 334h-348l23 117h348l29 176h-346l20 114h283l-217 578h163l199 -559l385 559h174l-416 -578h277l-21 -114h-342l-30 -176h342l-21 -117h-342l-59 -334h-158z" />
    <glyph glyph-name="florin.tosf" 
d="M348 668l45 129h209l64 188q33 95 64 155.5t77.5 110.5t111 72.5t154.5 22.5q121 0 238 -62l-66 -108q-88 43 -170 43q-93 0 -147 -50t-92 -159l-76 -213h321l-49 -129h-317l-250 -717q-29 -84 -54.5 -140t-59.5 -105.5t-74.5 -77t-96 -43t-127.5 -15.5q-147 0 -256 68
l58 112q96 -55 192 -55q95 0 151 53t95 164l262 756h-207z" />
    <glyph glyph-name="a.alt" horiz-adv-x="1026" 
d="M336 866l-21 119q58 22 168 42t203 20q147 0 213 -58t68 -174q0 -53 -13 -123l-90 -524q-7 -41 4 -56.5t39 -15.5q36 0 103 33l12 -102q-84 -50 -180 -50q-62 0 -94.5 32.5t-26.5 99.5q-148 -138 -338 -138q-118 0 -185 70.5t-67 198.5q0 97 32.5 168.5t93.5 115t142 64
t183 20.5q90 0 200 -14l19 106q8 66 8 91q0 75 -38 102t-122 27q-71 0 -162 -16.5t-151 -37.5zM717 219l45 258q-77 17 -182 17q-65 0 -112.5 -9.5t-88 -34.5t-61.5 -74t-21 -122q0 -84 36 -120t113 -36q66 0 140 36t131 85z" />
    <glyph glyph-name="e.alt" horiz-adv-x="983" 
d="M719 1047q149 0 227 -80t78 -207q0 -144 -74 -295h-616q-6 -47 -6 -88q0 -277 258 -277q138 0 268 95l59 -111q-3 -3 -17 -12.5t-47.5 -27.5t-74 -34t-101.5 -27.5t-124 -11.5q-189 0 -285 112t-96 304q0 106 22.5 203t68 180.5t110.5 145t155 96.5t195 35zM705 922
q-73 0 -135 -29t-105 -78t-71 -108.5t-42 -126.5h494q33 90 33 161q0 181 -174 181z" />
    <glyph glyph-name="g.alt" horiz-adv-x="962" 
d="M946 727q0 -171 -118 -282t-296 -111q-21 0 -41 2.5t-31 5t-22 5.5t-12 3l-72 -139l207 -33l93 -15.5t82.5 -17t76.5 -23t60 -31t50 -42t28.5 -55t11.5 -72.5q0 -78 -33 -145.5t-97 -120.5t-168.5 -83t-238.5 -30q-387 0 -387 238q0 51 18.5 95t56.5 83t72.5 66t89.5 63
q-77 20 -77 68q0 25 30 80l93 151q-45 31 -75 95t-30 141q0 201 119 312.5t301 111.5q145 0 227 -64l269 43l-25 -141l-188 -2q26 -83 26 -156zM573 43l-159 20q-105 -65 -162 -124t-57 -129t56 -107t210 -37q149 0 240.5 65t91.5 169q0 59 -46 91.5t-174 51.5zM539 449
q109 0 183.5 77t74.5 213q0 91 -45 144t-129 53q-104 0 -175 -83.5t-71 -215.5q0 -83 38.5 -135.5t123.5 -52.5z" />
    <glyph glyph-name="k.alt" horiz-adv-x="980" 
d="M559 1423l-209 -1157l596 752h174l-358 -453l176 -565h-166l-135 426l-340 -426h-145l251 1423h156z" />
    <glyph glyph-name="v.alt" horiz-adv-x="952" 
d="M942 1018h170l-526 -1018h-207l-178 1018h172l133 -877z" />
    <glyph glyph-name="w.alt" horiz-adv-x="1441" 
d="M1419 1018h168l-457 -1018h-192l-72 817l-364 -817h-189l-98 1018h162l69 -844h3l364 844h168l74 -846h2z" />
    <glyph glyph-name="y.alt" horiz-adv-x="911" 
d="M901 1018h174l-549 -1041q-107 -203 -153 -269q-82 -115 -181 -147q-53 -18 -122 -18t-136 21.5t-108 50.5l63 121q97 -60 183 -60q71 0 116.5 34.5t108.5 148.5l82 145l-178 1014h164l127 -809h2z" />
    <glyph glyph-name="z.alt" horiz-adv-x="864" 
d="M840 0h-787l19 106l710 785h-528l22 127h728l-19 -96l-719 -795h596z" />
    <glyph glyph-name="ae.alt" horiz-adv-x="1550" 
d="M444 98q80 0 164.5 45t147.5 101q-19 92 4 233q-83 17 -182 17q-65 -1 -111.5 -11t-87 -35.5t-61.5 -74.5t-21 -121q0 -82 36 -118t111 -36zM1286 922q-75 0 -139 -31t-107 -82t-71 -109.5t-39 -119.5h493q35 91 35 161q0 82 -41.5 131.5t-130.5 49.5zM1319 1047
q139 0 211 -80t72 -207q0 -146 -76 -295h-613q-13 -77 -4.5 -144t35 -116.5t82.5 -78t137 -28.5q136 0 269 97l61 -113q-2 -2 -18 -12.5t-51.5 -27.5t-77.5 -32.5t-101.5 -27t-118.5 -11.5q-248 0 -331 170q-201 -170 -416 -170q-116 0 -182 71t-66 200q0 186 119.5 276
t333.5 90q89 0 198 -16l19 108q22 123 -16 171.5t-142 48.5q-69 0 -157.5 -16.5t-147.5 -39.5l-23 121q55 22 160.5 42t194.5 20q72 0 128.5 -17.5t97 -63t46.5 -114.5q139 195 377 195z" />
    <glyph glyph-name="oe.alt" horiz-adv-x="1685" 
d="M1436 1047q148 0 224.5 -80t76.5 -207q0 -148 -72 -295h-618q-7 -54 -7 -88q0 -279 258 -279q129 0 273 95l55 -109q-3 -3 -17.5 -13t-49 -27.5t-75.5 -33.5t-101 -27.5t-121 -11.5q-259 0 -326 226q-129 -226 -412 -226q-169 0 -262.5 98t-93.5 283q0 99 16 183
q21 122 65.5 215.5t97.5 148.5t120 89.5t126.5 46.5t123.5 12q43 0 86 -8.5t90 -29t87.5 -62t63.5 -99.5q145 199 392 199zM545 94q142 0 233 106t121 289q12 68 12 166q0 125 -52 196t-161 71q-142 0 -233.5 -104t-120.5 -281q-14 -80 -14 -177q0 -266 215 -266zM1423 926
q-75 0 -138.5 -30.5t-106.5 -82t-71 -110.5t-42 -123h494q32 68 32 161q0 82 -40 133.5t-128 51.5z" />
    <glyph glyph-name="ampersand.alt" horiz-adv-x="1384" 
d="M643 1010q0 -75 35.5 -160.5t100 -172t129 -158t147.5 -152.5q102 139 125 352h147q-31 -265 -174 -449q138 -129 227 -200l-110 -115q-121 100 -226 203q-189 -189 -473 -189q-102 0 -179.5 29.5t-124 81.5t-70 118.5t-23.5 145.5q0 154 90 275.5t262 201.5
q-39 99 -39 199q1 73 28.5 138.5t78 116t129 80t174.5 29.5q122 0 200 -55.5t117 -134.5l-118 -74q-32 58 -85 96.5t-126 38.5q-112 0 -177 -67.5t-65 -177.5zM598 98q194 0 348 154q-257 253 -364 455q-118 -49 -184 -144t-66 -207q0 -121 66.5 -189.5t199.5 -68.5z" />
    <glyph glyph-name="Q.alt" horiz-adv-x="1353" 
d="M1364 651q-46 -283 -177 -444t-327 -209q61 -15 144 -59.5t163.5 -78.5t157.5 -34q35 0 76 6l-41 -133q-46 -4 -68 -4q-63 0 -131 21t-128.5 51.5t-121 60.5t-131 51t-137.5 21q-53 0 -115 -15l33 99h6q-175 29 -266.5 155t-91.5 338q0 112 20 223q27 153 80.5 273
t121 196.5t152.5 126t169 70t176 20.5q98 0 180 -31.5t143.5 -93t96 -159.5t34.5 -225q0 -103 -18 -226zM395 694q-18 -119 -18 -207q0 -58 9.5 -109.5t33 -101t60.5 -85t95 -57t132 -21.5q108 0 194.5 43t144.5 120t95 173t55 213q14 100 14 192q0 59 -8.5 112.5t-30.5 106
t-55.5 90t-87.5 61t-123 23.5q-108 0 -198 -45t-151.5 -123.5t-101.5 -175.5t-59 -209z" />
    <glyph glyph-name="Euro.alt" horiz-adv-x="1116" 
d="M930 1206q-151 0 -254 -88t-146 -272h506l-20 -123h-832l21 123h168q27 137 98 252q83 132 209.5 190t265.5 58q110 0 203.5 -47.5t157.5 -143.5l-109 -86q-52 69 -116.5 103t-151.5 34zM971 467h-504q-20 -172 48.5 -263t221.5 -91q152 0 307 114l66 -112
q-90 -69 -195.5 -104.5t-209.5 -35.5q-211 0 -315.5 123.5t-80.5 368.5h-170l21 123h831z" />
    <glyph glyph-name="Euro_tf.alt" 
d="M922 1206q-151 0 -254 -88t-146 -272h506l-20 -123h-832l21 123h168q27 137 98 252q83 132 209.5 190t265.5 58q232 0 360 -191l-108 -86q-52 69 -116.5 103t-151.5 34zM963 467h-504q-20 -172 48.5 -263t221.5 -91q152 0 307 114l66 -112q-90 -69 -196 -104.5
t-210 -35.5q-211 0 -315 123.5t-80 368.5h-170l21 123h831z" />
    <glyph glyph-name="amacron.alt" horiz-adv-x="1026" 
d="M336 866l-21 119q58 22 168 42t203 20q147 0 213 -58t68 -174q0 -53 -13 -123l-90 -524q-7 -41 4 -56.5t39 -15.5q36 0 103 33l12 -102q-84 -50 -180 -50q-62 0 -94.5 32.5t-26.5 99.5q-148 -138 -338 -138q-118 0 -185 70.5t-67 198.5q0 97 32.5 168.5t93.5 115t142 64
t183 20.5q90 0 200 -14l19 106q8 66 8 91q0 75 -38 102t-122 27q-71 0 -162 -16.5t-151 -37.5zM717 219l45 258q-77 17 -182 17q-65 0 -112.5 -9.5t-88 -34.5t-61.5 -74t-21 -122q0 -84 36 -120t113 -36q66 0 140 36t131 85zM440 1268l25 133h534l-24 -133h-535z" />
    <glyph glyph-name="abreve.alt" horiz-adv-x="1026" 
d="M336 866l-21 119q58 22 168 42t203 20q147 0 213 -58t68 -174q0 -53 -13 -123l-90 -524q-7 -41 4 -56.5t39 -15.5q36 0 103 33l12 -102q-84 -50 -180 -50q-62 0 -94.5 32.5t-26.5 99.5q-148 -138 -338 -138q-118 0 -185 70.5t-67 198.5q0 97 32.5 168.5t93.5 115t142 64
t183 20.5q90 0 200 -14l19 106q8 66 8 91q0 75 -38 102t-122 27q-71 0 -162 -16.5t-151 -37.5zM717 219l45 258q-77 17 -182 17q-65 0 -112.5 -9.5t-88 -34.5t-61.5 -74t-21 -122q0 -84 36 -120t113 -36q66 0 140 36t131 85zM926 1493l118 -23q-51 -144 -137 -209t-211 -65
q-131 0 -201 76.5t-73 197.5l115 21q10 -95 52.5 -135.5t117.5 -40.5q73 0 122.5 37.5t96.5 140.5z" />
    <glyph glyph-name="aogonek.alt" horiz-adv-x="1026" 
d="M334 854l-19 123q64 25 172.5 47.5t198.5 22.5q147 0 213 -58t68 -174q0 -53 -13 -123l-90 -524q-7 -41 4 -56.5t39 -15.5q36 0 103 33l12 -102q-105 -69 -175.5 -159t-70.5 -161q0 -72 70 -72q45 0 108 23l17 -102q-86 -39 -180 -39q-85 0 -124.5 42t-39.5 105
q0 141 182 318q-99 13 -88 127q-148 -138 -338 -138q-118 0 -185 70.5t-67 198.5q0 189 120 277.5t331 88.5q90 0 200 -14l19 108q8 66 8 91q0 75 -38 102t-122 27q-69 0 -158.5 -20t-156.5 -46zM717 219l45 258q-77 17 -182 17q-65 0 -112.5 -9.5t-88 -34.5t-61.5 -74
t-21 -122q0 -85 36.5 -122.5t112.5 -37.5q68 0 142.5 36.5t128.5 88.5z" />
    <glyph glyph-name="emacron.alt" horiz-adv-x="983" 
d="M719 1047q-105 0 -195 -35t-155 -96.5t-110.5 -145t-68 -180.5t-22.5 -203q0 -192 96 -304t285 -112q63 0 124 11.5t101.5 27.5t74 34t47.5 27.5t17 12.5l-59 111q-130 -95 -268 -95q-258 0 -258 277q0 41 6 88h616q74 151 74 295q0 127 -78 207t-227 80zM705 922
q174 0 174 -181q0 -71 -33 -161h-494q14 67 42 126.5t71 108.5t105 78t135 29zM498 1268l24 133h535l-25 -133h-534z" />
    <glyph glyph-name="ebreve.alt" horiz-adv-x="983" 
d="M719 1047q-105 0 -195 -35t-155 -96.5t-110.5 -145t-68 -180.5t-22.5 -203q0 -192 96 -304t285 -112q63 0 124 11.5t101.5 27.5t74 34t47.5 27.5t17 12.5l-59 111q-130 -95 -268 -95q-258 0 -258 277q0 41 6 88h616q74 151 74 295q0 127 -78 207t-227 80zM705 922
q174 0 174 -181q0 -71 -33 -161h-494q14 67 42 126.5t71 108.5t105 78t135 29zM991 1493l119 -23q-51 -144 -137 -209t-211 -65q-131 0 -201.5 77t-73.5 197l115 21q10 -95 52.5 -135.5t117.5 -40.5q73 0 122.5 37.5t96.5 140.5z" />
    <glyph glyph-name="edotaccent.alt" horiz-adv-x="983" 
d="M719 1047q-105 0 -195 -35t-155 -96.5t-110.5 -145t-68 -180.5t-22.5 -203q0 -192 96 -304t285 -112q63 0 124 11.5t101.5 27.5t74 34t47.5 27.5t17 12.5l-59 111q-130 -95 -268 -95q-258 0 -258 277q0 41 6 88h616q74 151 74 295q0 127 -78 207t-227 80zM705 922
q174 0 174 -181q0 -71 -33 -161h-494q14 67 42 126.5t71 108.5t105 78t135 29zM676 1290q0 52 37 88.5t90 36.5q39 0 63.5 -25.5t24.5 -64.5q0 -53 -37.5 -89t-89.5 -36q-41 0 -64.5 25t-23.5 65z" />
    <glyph glyph-name="eogonek.alt" horiz-adv-x="964" 
d="M784 -2q-82 -52 -146.5 -137t-64.5 -154q0 -72 70 -72q46 0 109 23l16 -102q-86 -39 -180 -39q-85 0 -124.5 42t-39.5 105q0 144 174 309q-7 0 -22 -1t-23 -1q-189 0 -285 112t-96 304q0 177 65 326t193.5 241.5t296.5 92.5q148 0 224.5 -80t76.5 -207q0 -139 -76 -295
h-614q-6 -47 -6 -88q0 -279 258 -279q72 0 144.5 27t129.5 68l54 -109q-5 -5 -134 -86zM715 926q-75 0 -138.5 -32t-107 -84.5t-71.5 -112.5t-42 -124h492q37 78 37 168q0 82 -41 133.5t-129 51.5z" />
    <glyph glyph-name="ecaron.alt" horiz-adv-x="983" 
d="M719 1047q-105 0 -195 -35t-155 -96.5t-110.5 -145t-68 -180.5t-22.5 -203q0 -192 96 -304t285 -112q63 0 124 11.5t101.5 27.5t74 34t47.5 27.5t17 12.5l-59 111q-130 -95 -268 -95q-258 0 -258 277q0 41 6 88h616q74 151 74 295q0 127 -78 207t-227 80zM705 922
q174 0 174 -181q0 -71 -33 -161h-494q14 67 42 126.5t71 108.5t105 78t135 29zM1038 1561l58 -52q-112 -130 -244 -262q-55 -55 -104 -55q-30 0 -47.5 11.5t-38.5 41.5q-62 91 -150 268l66 48l188 -215z" />
    <glyph glyph-name="gcircumflex.alt" horiz-adv-x="962" 
d="M946 727q0 -171 -118 -282t-296 -111q-21 0 -41 2.5t-31 5t-22 5.5t-12 3l-72 -139l207 -33l93 -15.5t82.5 -17t76.5 -23t60 -31t50 -42t28.5 -55t11.5 -72.5q0 -78 -33 -145.5t-97 -120.5t-168.5 -83t-238.5 -30q-387 0 -387 238q0 51 18.5 95t56.5 83t72.5 66t89.5 63
q-77 20 -77 68q0 25 30 80l93 151q-45 31 -75 95t-30 141q0 201 119 312.5t301 111.5q145 0 227 -64l269 43l-25 -141l-188 -2q26 -83 26 -156zM573 43l-159 20q-105 -65 -162 -124t-57 -129t56 -107t210 -37q149 0 240.5 65t91.5 169q0 59 -46 91.5t-174 51.5zM539 449
q109 0 183.5 77t74.5 213q0 91 -45 144t-129 53q-104 0 -175 -83.5t-71 -215.5q0 -83 38.5 -135.5t123.5 -52.5zM469 1192l-61 51q151 175 243 264q30 28 52.5 41t50.5 13q29 0 48 -12t38 -42q55 -80 149 -270l-59 -45l-193 215z" />
    <glyph glyph-name="gbreve.alt" horiz-adv-x="962" 
d="M946 727q0 -171 -118 -282t-296 -111q-21 0 -41 2.5t-31 5t-22 5.5t-12 3l-72 -139l207 -33l93 -15.5t82.5 -17t76.5 -23t60 -31t50 -42t28.5 -55t11.5 -72.5q0 -78 -33 -145.5t-97 -120.5t-168.5 -83t-238.5 -30q-387 0 -387 238q0 51 18.5 95t56.5 83t72.5 66t89.5 63
q-77 20 -77 68q0 25 30 80l93 151q-45 31 -75 95t-30 141q0 201 119 312.5t301 111.5q145 0 227 -64l269 43l-25 -141l-188 -2q26 -83 26 -156zM573 43l-159 20q-105 -65 -162 -124t-57 -129t56 -107t210 -37q149 0 240.5 65t91.5 169q0 59 -46 91.5t-174 51.5zM539 449
q109 0 183.5 77t74.5 213q0 91 -45 144t-129 53q-104 0 -175 -83.5t-71 -215.5q0 -83 38.5 -135.5t123.5 -52.5zM932 1493l119 -23q-51 -144 -137.5 -209t-211.5 -65q-131 0 -201 76.5t-73 197.5l115 21q10 -95 52.5 -135.5t117.5 -40.5q73 0 122.5 37.5t96.5 140.5z" />
    <glyph glyph-name="gdotaccent.alt" horiz-adv-x="962" 
d="M946 727q0 -171 -118 -282t-296 -111q-21 0 -41 2.5t-31 5t-22 5.5t-12 3l-72 -139l207 -33l93 -15.5t82.5 -17t76.5 -23t60 -31t50 -42t28.5 -55t11.5 -72.5q0 -78 -33 -145.5t-97 -120.5t-168.5 -83t-238.5 -30q-387 0 -387 238q0 51 18.5 95t56.5 83t72.5 66t89.5 63
q-77 20 -77 68q0 25 30 80l93 151q-45 31 -75 95t-30 141q0 201 119 312.5t301 111.5q145 0 227 -64l269 43l-25 -141l-188 -2q26 -83 26 -156zM573 43l-159 20q-105 -65 -162 -124t-57 -129t56 -107t210 -37q149 0 240.5 65t91.5 169q0 59 -46 91.5t-174 51.5zM539 449
q109 0 183.5 77t74.5 213q0 91 -45 144t-129 53q-104 0 -175 -83.5t-71 -215.5q0 -83 38.5 -135.5t123.5 -52.5zM596 1290q0 52 37 88.5t90 36.5q39 0 63.5 -25.5t24.5 -64.5q0 -53 -37.5 -89t-89.5 -36q-41 0 -64.5 25t-23.5 65z" />
    <glyph glyph-name="gcommaaccent.alt" horiz-adv-x="962" 
d="M946 727q0 -171 -118 -282t-296 -111q-21 0 -41 2.5t-31 5t-22 5.5t-12 3l-72 -139l207 -33l93 -15.5t82.5 -17t76.5 -23t60 -31t50 -42t28.5 -55t11.5 -72.5q0 -78 -33 -145.5t-97 -120.5t-168.5 -83t-238.5 -30q-387 0 -387 238q0 51 18.5 95t56.5 83t72.5 66t89.5 63
q-77 20 -77 68q0 25 30 80l93 151q-45 31 -75 95t-30 141q0 201 119 312.5t301 111.5q145 0 227 -64l269 43l-25 -141l-188 -2q26 -83 26 -156zM573 43l-159 20q-105 -65 -162 -124t-57 -129t56 -107t210 -37q149 0 240.5 65t91.5 169q0 59 -46 91.5t-174 51.5zM539 449
q109 0 183.5 77t74.5 213q0 91 -45 144t-129 53q-104 0 -175 -83.5t-71 -215.5q0 -83 38.5 -135.5t123.5 -52.5zM918 1579l-189 -387q-27 2 -45 4.5t-39 9t-32 19.5t-11 32q0 29 43 93q28 41 209 264z" />
    <glyph glyph-name="kcommaaccent.alt" horiz-adv-x="980" 
d="M559 1423l-209 -1157l596 752h174l-358 -453l176 -565h-166l-135 426l-340 -426h-145l251 1423h156zM455 -143l-189 -387l62 -33q181 223 209 264q43 65 43 92q0 59 -125 64z" />
    <glyph glyph-name="wcircumflex.alt" horiz-adv-x="1441" 
d="M1419 1018h168l-457 -1018h-192l-72 817l-364 -817h-189l-98 1018h162l69 -844h3l364 844h168l74 -846h2zM702 1192l-61 51q146 170 244 264q30 29 52 41.5t50 12.5q29 0 48 -12t38 -42q59 -86 150 -270l-60 -45l-192 215z" />
    <glyph glyph-name="wgrave.alt" horiz-adv-x="1441" 
d="M1419 1018h168l-457 -1018h-192l-72 817l-364 -817h-189l-98 1018h162l69 -844h3l364 844h168l74 -846h2zM903 1569l166 -371l-63 -41q-166 193 -203 242q-31 50 -31 80q0 21 10.5 36.5t33 26t40 15.5t47.5 12z" />
    <glyph glyph-name="wacute.alt" horiz-adv-x="1441" 
d="M1419 1018h168l-457 -1018h-192l-72 817l-364 -817h-189l-98 1018h162l69 -844h3l364 844h168l74 -846h2zM754 1208l278 359q115 -28 115 -82q0 -35 -64 -96q-47 -46 -272 -232z" />
    <glyph glyph-name="wdieresis.alt" horiz-adv-x="1441" 
d="M1419 1018h168l-457 -1018h-192l-72 817l-364 -817h-189l-98 1018h162l69 -844h3l364 844h168l74 -846h2zM655 1319q0 51 37 87t90 36q39 0 63.5 -25.5t24.5 -64.5q0 -52 -37.5 -87.5t-89.5 -35.5q-41 0 -64.5 25t-23.5 65zM1020 1319q0 51 37 87t90 36q39 0 64.5 -25.5
t25.5 -64.5q0 -52 -38.5 -87.5t-90.5 -35.5q-40 0 -64 25t-24 65z" />
    <glyph glyph-name="ygrave.alt" horiz-adv-x="911" 
d="M901 1018h174l-549 -1041q-107 -203 -153 -269q-82 -115 -181 -147q-53 -18 -122 -18t-136 21.5t-108 50.5l63 121q97 -60 183 -60q71 0 116.5 34.5t108.5 148.5l82 145l-178 1014h164l127 -809h2zM602 1569l166 -371l-63 -41q-166 193 -203 242q-31 50 -31 80
q0 21 10.5 36.5t33 26t40 15.5t47.5 12z" />
    <glyph glyph-name="ycircumflex.alt" horiz-adv-x="911" 
d="M901 1018h174l-549 -1041q-107 -203 -153 -269q-82 -115 -181 -147q-53 -18 -122 -18t-136 21.5t-108 50.5l63 121q97 -60 183 -60q71 0 116.5 34.5t108.5 148.5l82 145l-178 1014h164l127 -809h2zM451 1192l-62 51q146 170 244 264q30 29 52 41.5t50 12.5q29 0 48 -12
t38 -42q59 -86 150 -270l-60 -45l-192 215z" />
    <glyph glyph-name="zacute.alt" horiz-adv-x="864" 
d="M840 0h-787l19 106l710 785h-528l22 127h728l-19 -96l-719 -795h596zM569 1208l279 359q115 -28 115 -82q0 -35 -64 -96q-47 -46 -272 -232z" />
    <glyph glyph-name="zdotaccent.alt" horiz-adv-x="864" 
d="M840 0h-787l19 106l710 785h-528l22 127h728l-19 -96l-719 -795h596zM582 1290q0 52 37 88.5t90 36.5q39 0 63.5 -25.5t24.5 -64.5q0 -53 -37.5 -89t-89.5 -36q-41 0 -64.5 25t-23.5 65z" />
    <glyph glyph-name="zcaron.alt" horiz-adv-x="864" 
d="M840 0h-787l19 106l710 785h-528l22 127h728l-19 -96l-719 -795h596zM958 1561l58 -52q-112 -130 -244 -262q-55 -55 -104 -55q-30 0 -47.5 11.5t-38.5 41.5q-62 91 -150 268l66 48l188 -215z" />
    <glyph glyph-name="yacute.alt" horiz-adv-x="911" 
d="M901 1018h174l-549 -1041q-107 -203 -153 -269q-82 -115 -181 -147q-53 -18 -122 -18t-136 21.5t-108 50.5l63 121q97 -60 183 -60q71 0 116.5 34.5t108.5 148.5l82 145l-178 1014h164l127 -809h2zM555 1208l279 359q114 -28 114 -82q0 -36 -63 -96q-41 -40 -273 -232z
" />
    <glyph glyph-name="ydieresis.alt" horiz-adv-x="911" 
d="M901 1018h174l-549 -1041q-107 -203 -153 -269q-82 -115 -181 -147q-53 -18 -122 -18t-136 21.5t-108 50.5l63 121q97 -60 183 -60q71 0 116.5 34.5t108.5 148.5l82 145l-178 1014h164l127 -809h2zM395 1319q0 51 37 87t90 36q39 0 63.5 -25.5t24.5 -64.5
q0 -52 -37.5 -87.5t-89.5 -35.5q-41 0 -64.5 25t-23.5 65zM760 1319q0 51 37 87t90 36q39 0 64.5 -25.5t25.5 -64.5q0 -52 -38.5 -87.5t-90.5 -35.5q-40 0 -64 25t-24 65z" />
    <glyph glyph-name="agrave.alt" horiz-adv-x="1026" 
d="M336 866l-21 119q58 22 168 42t203 20q147 0 213 -58t68 -174q0 -53 -13 -123l-90 -524q-7 -41 4 -56.5t39 -15.5q36 0 103 33l12 -102q-84 -50 -180 -50q-62 0 -94.5 32.5t-26.5 99.5q-148 -138 -338 -138q-118 0 -185 70.5t-67 198.5q0 97 32.5 168.5t93.5 115t142 64
t183 20.5q90 0 200 -14l19 106q8 66 8 91q0 75 -38 102t-122 27q-71 0 -162 -16.5t-151 -37.5zM717 219l45 258q-77 17 -182 17q-65 0 -112.5 -9.5t-88 -34.5t-61.5 -74t-21 -122q0 -84 36 -120t113 -36q66 0 140 36t131 85zM686 1569l166 -371l-64 -41q-159 184 -202 242
q-31 50 -31 80q0 21 10.5 36.5t33 26t40 15.5t47.5 12z" />
    </font>
</defs>
</svg>
