<?xml version="1.0" standalone="no"?>
<!DOCTYPE svg PUBLIC "-//W3C//DTD SVG 1.1//EN" "http://www.w3.org/Graphics/SVG/1.1/DTD/svg11.dtd" >
<svg xmlns="http://www.w3.org/2000/svg" xmlns:xlink="http://www.w3.org/1999/xlink" version="1.1">
<metadata>
Created by FontForge 20170731 at Tue Dec  7 20:00:00 2021
 By Aleksey,,,
Copyright (c) 2008 by TypeTogether. All rights reserved.
</metadata>
<defs>
<font id="Bree-ExtraBold" horiz-adv-x="1095" >
  <font-face 
    font-family="Bree EB"
    font-weight="800"
    font-stretch="normal"
    units-per-em="2048"
    panose-1="2 0 5 6 0 0 0 2 0 4"
    ascent="1475"
    descent="-573"
    x-height="1059"
    cap-height="1362"
    bbox="-231 -602 2048 1942"
    underline-thickness="102"
    underline-position="-307"
    unicode-range="U+000D-FB04"
  />
<missing-glyph horiz-adv-x="1024" 
 />
    <glyph glyph-name="ff" unicode="ff" horiz-adv-x="1343" 
d="M504 737v-1167h-412v1526q0 50 3 89t13 85.5t27 81.5t47.5 69t72 56t102.5 35.5t137 13.5q64 0 146 -20t153 -52q99 72 278 72q78 0 178.5 -27.5t175.5 -68.5l-90 -261q-52 27 -103 42.5t-79 15.5q-36 0 -55 -17t-19 -67v-84h267v-322h-267v-1167h-413v1167h-162z
M504 1143v-84h162v37q0 36 4 110q-62 21 -95 21q-34 0 -52.5 -18t-18.5 -66z" />
    <glyph glyph-name="fi" unicode="fi" horiz-adv-x="1138" 
d="M504 737v-1167h-412v1526q0 70 7 124t32 114.5t67.5 100t119.5 65.5t182 26q111 0 228.5 -33.5t193.5 -75.5l-88 -260q-50 28 -122.5 49t-109.5 21q-98 0 -98 -84v-84h561v-1059h-416v737h-145z" />
    <glyph glyph-name="fl" unicode="fl" horiz-adv-x="1323" 
d="M504 737v-1167h-412v1526q0 68 9.5 124.5t38.5 115t75.5 99t126 66t184.5 25.5q282 0 549 -94v-1037q0 -104 70 -104q49 0 115 31l88 -271q-58 -42 -147 -63t-171 -21q-72 0 -128.5 13t-95 34t-66 54.5t-42.5 66.5t-23.5 79.5t-10.5 84t-2 88.5v350h-158zM504 1143v-84
h158v151q-52 17 -87 17q-34 0 -52.5 -18t-18.5 -66z" />
    <glyph glyph-name="ffi" unicode="ffi" horiz-adv-x="1708" 
d="M1073 737v-1167h-411v1167h-158v-1167h-412v1526q0 50 3 89t13 85.5t27 81.5t47.5 69t72 56t102.5 35.5t137 13.5q65 0 147 -20t152 -54q97 74 276 74q111 0 228.5 -33.5t193.5 -75.5l-88 -260q-50 28 -122.5 49t-109.5 21q-98 0 -98 -84v-84h561v-1059h-415v737h-146z
M504 1143v-84h158v37q0 18 1 55t1 55q-55 21 -89 21t-52.5 -18t-18.5 -66z" />
    <glyph glyph-name="ffl" unicode="ffl" horiz-adv-x="1898" 
d="M1079 737v-1167h-413v1167h-162v-1167h-412v1526q0 50 3 89t13 85.5t27 81.5t47.5 69t72 56t102.5 35.5t137 13.5q65 0 147 -20t152 -54q118 74 307 74q244 0 549 -94v-1037q0 -104 71 -104q43 0 113 33l88 -273q-58 -42 -146.5 -63t-170.5 -21q-72 0 -128.5 13t-95 33.5
t-66 54t-42.5 66.5t-23.5 79t-11 83.5t-2.5 88.5v352h-156zM666 1059v37q0 73 4 110q-62 21 -95 21q-42 0 -56.5 -25.5t-14.5 -105.5v-37h162zM1079 1143v-84h156v151q-52 17 -86 17q-32 0 -51 -18t-19 -66z" />
    <glyph glyph-name="tt" unicode="tt" horiz-adv-x="1386" 
d="M680 1423h416v-364h243v-320h-243v-327q0 -73 28.5 -104.5t83.5 -31.5q42 0 95 29l86 -262q-53 -33 -134.5 -54.5t-171.5 -21.5q-193 0 -290 74q-134 -74 -312 -74q-77 0 -138.5 13.5t-102 34.5t-70 55.5t-45 67.5t-24.5 80.5t-11 84.5t-2 88v1032h416v-364h176v364z
M610 276q38 0 72 15q-2 33 -2 100v348h-176v-336q0 -73 25 -100t81 -27z" />
    <glyph glyph-name=".notdef" horiz-adv-x="1024" 
 />
    <glyph glyph-name=".null" horiz-adv-x="0" 
 />
    <glyph glyph-name=".null" horiz-adv-x="0" 
 />
    <glyph glyph-name="nonmarkingreturn" horiz-adv-x="682" 
 />
    <glyph glyph-name="CR" unicode="&#xd;" horiz-adv-x="450" 
 />
    <glyph glyph-name="space" unicode=" " horiz-adv-x="389" 
 />
    <glyph glyph-name="exclam" unicode="!" horiz-adv-x="550" 
d="M102 1083v199q0 63 43 102t131 39q89 0 133 -40.5t44 -104.5v-195l-56 -675h-237zM78 147q0 72 53 125.5t139 53.5q92 0 143.5 -51t51.5 -130q0 -73 -51 -126.5t-140 -53.5q-94 0 -145 52t-51 130z" />
    <glyph glyph-name="quotedbl" unicode="&#x22;" horiz-adv-x="710" 
d="M76 1362h256l-23 -494h-213zM377 1362h258l-23 -494h-215z" />
    <glyph glyph-name="numbersign" unicode="#" horiz-adv-x="1075" 
d="M563 0l25 305h-170l-27 -305h-196l26 305h-162v180h177l24 265h-162v182h176l29 307h197l-29 -307h172l29 307h194l-28 -307h172v-182h-187l-22 -265h170v-180h-187l-26 -305h-195zM457 750l-25 -265h172l23 265h-170z" />
    <glyph glyph-name="dollar" unicode="$" 
d="M27 137l129 318q77 -49 189.5 -90t180.5 -41q92 0 92 65q0 41 -30 60t-117 46q-10 3 -16 5q-33 10 -50.5 16t-50.5 18t-52 21.5t-48.5 25.5t-47 32.5t-40 38.5t-35.5 48t-25.5 56.5t-18 68.5t-5.5 80q0 153 85 256t232 142v227h332v-230q96 -23 183 -72t147 -112
l-205 -250q-169 127 -283 127q-35 0 -60.5 -16.5t-25.5 -48.5q0 -21 11 -37.5t37.5 -31.5t50.5 -24.5t71 -25.5l60 -21t57.5 -22.5t58 -27.5t51.5 -32t49 -39.5t39 -47.5t32 -58t18.5 -69.5t7.5 -83.5q0 -148 -80.5 -248.5t-218.5 -143.5v-237h-332v221q-109 16 -210.5 55
t-161.5 82z" />
    <glyph glyph-name="percent" unicode="%" horiz-adv-x="1703" 
d="M1300 709q153 0 242.5 -92t89.5 -277q0 -196 -91 -286.5t-253 -90.5q-163 0 -245 91t-82 282q0 190 92.5 281.5t246.5 91.5zM1290 143q23 0 37.5 14t23.5 58t9 121q0 76 -8 118t-21 56t-35 14q-35 0 -50 -40t-15 -158q0 -103 14 -143t45 -40zM412 1346q153 0 242 -92
t89 -277q0 -196 -91 -286.5t-253 -90.5q-163 0 -245 91t-82 282q0 190 93 281.5t247 91.5zM401 780q23 0 37.5 14t23.5 58t9 121q0 111 -15 149.5t-48 38.5q-35 0 -50.5 -40t-15.5 -158q0 -103 14 -143t45 -40zM676 -39l-246 107l598 1280l250 -103z" />
    <glyph glyph-name="ampersand" unicode="&#x26;" horiz-adv-x="1703" 
d="M1272 1298l348 -100q-58 -192 -164 -339t-248 -236h400v-289h-201q-94 -180 -253.5 -274.5t-403.5 -94.5q-170 0 -298.5 48t-204.5 132t-113.5 189.5t-37.5 230.5q0 94 20.5 180t64.5 163t108 133t157.5 89t206.5 33q157 0 248.5 -73t91.5 -199q0 -65 -24 -117
q99 68 177 209.5t126 314.5zM776 279q50 0 99.5 15.5t94 46.5t75 84.5t36.5 121.5q-122 -61 -251.5 -82t-323.5 -16q52 -170 270 -170zM608 874q-50 0 -85 -53.5t-36 -148.5q83 6 132 45t49 96q0 61 -60 61z" />
    <glyph glyph-name="quotesingle" unicode="'" horiz-adv-x="407" 
d="M76 1362h256l-23 -494h-213z" />
    <glyph glyph-name="parenleft" unicode="(" horiz-adv-x="700" 
d="M70 524q0 256 81.5 523t223.5 497l319 -137q-213 -428 -213 -852q0 -221 53.5 -416.5t165.5 -417.5l-315 -159q-158 234 -236.5 469.5t-78.5 492.5z" />
    <glyph glyph-name="parenright" unicode=")" horiz-adv-x="700" 
d="M631 524q0 -256 -79 -491.5t-237 -470.5l-315 159q112 222 165.5 417.5t53.5 416.5q0 424 -213 852l320 137q142 -230 223.5 -497t81.5 -523z" />
    <glyph glyph-name="asterisk" unicode="*" horiz-adv-x="909" 
d="M512 1137l-6 16q35 70 85 117.5t95 62.5q67 23 110.5 7.5t61.5 -74.5q39 -122 -98 -162q-37 -17 -108.5 -9.5t-139.5 42.5zM481 1085l15 11q77 -11 137.5 -44t89.5 -71q43 -58 41 -104t-53 -82q-103 -73 -185 43q-29 38 -42.5 104t-2.5 143zM418 1096l14 -11
q13 -78 0.5 -145t-39.5 -106q-44 -59 -86 -71t-96 25q-101 73 -14 189q27 39 85.5 72.5t135.5 46.5zM408 1153l-7 -16q-69 -36 -141.5 -45.5t-107.5 4.5q-70 24 -95.5 61.5t-5.5 97.5q39 119 176 72q44 -13 94.5 -59t86.5 -115zM467 1190h-18q-55 55 -85 117t-30 108
q0 146 121 146q123 0 123 -146q0 -47 -28 -108.5t-83 -116.5z" />
    <glyph glyph-name="plus" unicode="+" 
d="M381 793v280h334v-280h248v-330h-248v-273h-334v273h-248v330h248z" />
    <glyph glyph-name="comma" unicode="," horiz-adv-x="520" 
d="M487 156l-258 -555l-217 71q44 398 80 500q33 113 148 113q65 0 136.5 -43t110.5 -86z" />
    <glyph glyph-name="hyphen" unicode="-" horiz-adv-x="659" 
d="M61 424v299h537v-299h-537z" />
    <glyph glyph-name="period" unicode="." horiz-adv-x="493" 
d="M57 143q0 77 49.5 128t137.5 51q94 0 143 -47.5t49 -129.5q0 -79 -48 -130.5t-138 -51.5q-94 0 -143.5 50t-49.5 130z" />
    <glyph glyph-name="slash" unicode="/" horiz-adv-x="993" 
d="M391 -258l-348 125l578 1724l352 -121z" />
    <glyph glyph-name="zero" unicode="0" 
d="M555 1346q244 0 376 -166t132 -508q0 -361 -132.5 -525.5t-387.5 -164.5q-260 0 -385 167.5t-125 518.5q0 175 38 306.5t108.5 212t164.5 120t211 39.5zM547 307q33 0 55 29t36.5 111.5t14.5 220.5q0 129 -13 207t-35 107.5t-54 29.5q-53 0 -79 -81t-26 -286
q0 -338 101 -338z" />
    <glyph glyph-name="one" unicode="1" horiz-adv-x="1060" 
d="M166 309h209v557l-174 -86l-152 273l432 266h336l-26 -293v-717h202v-309h-827v309z" />
    <glyph glyph-name="two" unicode="2" horiz-adv-x="1077" 
d="M246 831l-223 275q112 111 248 175.5t278 64.5q219 0 333.5 -111.5t114.5 -296.5q0 -94 -44 -197.5t-136 -201.5l-192 -207h403v-332h-989v242l410 454q59 64 83.5 104.5t24.5 88.5q0 42 -20.5 62t-53.5 20q-50 0 -106 -35t-131 -105z" />
    <glyph glyph-name="three" unicode="3" horiz-adv-x="1058" 
d="M225 885l-190 262q28 24 72.5 52.5t116 64.5t167.5 59t193 23q180 0 287.5 -92t107.5 -234q0 -84 -41 -158.5t-117 -128.5q83 -81 128.5 -161.5t45.5 -180.5q0 -81 -29 -152.5t-86.5 -130t-155 -92.5t-224.5 -34q-122 0 -245.5 31.5t-215.5 80.5l108 326q71 -38 172 -64
t156 -26q32 0 52 2.5t36.5 15.5t16.5 37q0 10 -2.5 21t-5 19.5t-9 23t-10 21.5l-12.5 25t-13 25q-123 -33 -223 -49l-92 287q61 12 106 22.5t93 25.5t78 31.5t49.5 38.5t19.5 48q0 65 -72 65q-76 0 -262 -104z" />
    <glyph glyph-name="four" unicode="4" horiz-adv-x="1169" 
d="M723 872h235v-286h158v-324h-160v-262h-413v268h-473v258l385 840l327 -162l-282 -618h92z" />
    <glyph glyph-name="five" unicode="5" horiz-adv-x="1093" 
d="M154 569l90 750h743v-338h-414l-18 -164q94 -11 171.5 -38.5t139 -75t95.5 -121.5t34 -168q0 -64 -18.5 -124.5t-59.5 -116.5t-99.5 -98.5t-144 -67.5t-188.5 -25q-117 0 -238 30.5t-218 77.5l114 324q74 -37 165 -66t149 -29q108 0 108 99q0 151 -411 151z" />
    <glyph glyph-name="six" unicode="6" horiz-adv-x="1093" 
d="M805 1389l80 -306q-159 -21 -259.5 -81t-133.5 -181q29 15 87 27t99 12q170 0 260 -104.5t90 -296.5q0 -227 -121 -352t-358 -125q-246 0 -364.5 154.5t-118.5 438.5q0 76 9 148.5t32.5 151.5t59.5 147.5t94.5 133t133.5 112t180 80t230 41.5zM629 438q0 73 -19.5 109.5
t-52.5 36.5q-46 0 -90 -21q2 -149 20 -209.5t62 -60.5q80 0 80 145z" />
    <glyph glyph-name="seven" unicode="7" horiz-adv-x="1042" 
d="M39 981v338h973v-266q-64 -50 -117.5 -108t-91 -112t-68 -118t-49 -114t-32.5 -112t-20 -101t-9.5 -92t-3.5 -73.5v-57.5v-15v-150h-437v166q0 76 3 132t19 150.5t45 173.5t87 176t139 183h-438z" />
    <glyph glyph-name="eight" unicode="8" horiz-adv-x="1107" 
d="M53 350q0 100 55 187t134 153q-66 51 -110 124t-44 157q0 168 126.5 271.5t350.5 103.5q114 0 199.5 -26.5t134.5 -73t72.5 -104t23.5 -126.5q0 -145 -145 -293q103 -78 154 -160.5t51 -185.5q0 -82 -31.5 -152.5t-93 -125.5t-163 -86t-232.5 -31q-112 0 -199 22.5
t-139.5 58t-85.5 85t-45.5 98.5t-12.5 104zM618 358q0 46 -28.5 82t-87.5 84q-66 -85 -66 -153q0 -42 24 -71.5t68 -29.5q43 0 66.5 25t23.5 63zM553 1079q-27 0 -51.5 -19.5t-24.5 -58.5q0 -58 90 -129q68 68 68 129q0 78 -82 78z" />
    <glyph glyph-name="nine" unicode="9" 
d="M283 -29l-82 305q83 11 140 24.5t113.5 39t92.5 68.5t53 104q-88 -43 -192 -43q-170 0 -259.5 103.5t-89.5 295.5q0 226 126 352t364 126q473 0 473 -592q0 -77 -8 -148t-30 -149t-57 -143.5t-92.5 -127.5t-133 -106.5t-182.5 -73.5t-236 -35zM459 889q0 -146 71 -146
q14 0 44 6.5t47 14.5q-2 147 -20 208.5t-62 61.5q-80 0 -80 -145z" />
    <glyph glyph-name="colon" unicode=":" horiz-adv-x="493" 
d="M57 143q0 77 49.5 128t137.5 51q94 0 143 -47.5t49 -129.5q0 -79 -48 -130.5t-138 -51.5q-94 0 -143.5 50t-49.5 130zM57 881q0 77 49.5 127.5t137.5 50.5q94 0 143 -47t49 -129q0 -79 -48 -131t-138 -52q-94 0 -143.5 50.5t-49.5 130.5z" />
    <glyph glyph-name="semicolon" unicode=";" horiz-adv-x="520" 
d="M487 156l-258 -555l-217 71q44 398 80 500q33 113 148 113q65 0 136.5 -43t110.5 -86zM104 881q0 77 49.5 127.5t137.5 50.5q94 0 143 -47t49 -129q0 -79 -48 -131t-138 -52q-94 0 -143.5 50.5t-49.5 130.5z" />
    <glyph glyph-name="less" unicode="&#x3c;" 
d="M891 1165l139 -301l-448 -205l450 -229l-141 -307l-782 412v229z" />
    <glyph glyph-name="equal" unicode="=" 
d="M963 1006v-328h-830v328h830zM963 541v-328h-830v328h830z" />
    <glyph glyph-name="greater" unicode="&#x3e;" 
d="M78 864l139 301l782 -401v-229l-782 -412l-141 307l450 229z" />
    <glyph glyph-name="question" unicode="?" horiz-adv-x="851" 
d="M399 1049q0 84 -100 84q-29 0 -123 -23l-41 -12l-51 272q46 20 132 36.5t163 16.5q101 0 178 -26t118.5 -63.5t67.5 -86.5t33.5 -86t7.5 -71q0 -75 -20 -135t-63 -109t-90 -85.5t-122 -82.5q-43 -28 -59 -62t-16 -100v-123h-295q-21 173 -21 234q0 63 13 108.5t45.5 78.5
t55 48.5t71.5 42.5q9 5 14 8q54 30 78 59t24 77zM78 147q0 72 53 125.5t139 53.5q92 0 143.5 -51t51.5 -130q0 -73 -51 -126.5t-140 -53.5q-94 0 -145 52t-51 130z" />
    <glyph glyph-name="at" unicode="@" horiz-adv-x="1941" 
d="M1550 557q0 251 -132.5 385.5t-401.5 134.5q-156 0 -275.5 -48t-192 -133.5t-109 -196.5t-36.5 -244q0 -102 20 -193.5t61.5 -169.5t101 -135t143.5 -89t184 -32q76 0 132 8.5t131 38.5l71 -223q-145 -59 -340 -59q-162 0 -296 48t-223.5 129.5t-151.5 191t-89.5 229
t-27.5 247.5q0 203 71.5 371t194.5 278t285.5 170t345.5 60q134 0 253.5 -28.5t221.5 -88.5t175.5 -147t115 -209.5t41.5 -269.5q0 -272 -137.5 -427t-356.5 -155h-203l-18 96l-10 2q-31 -47 -73 -71.5t-120 -24.5q-305 0 -305 401q0 216 114.5 346t329.5 130
q55 0 145 -16.5t183 -53.5v-588q75 0 126.5 85.5t51.5 250.5zM1051 334v319q-16 4 -27 4q-54 0 -80 -64.5t-26 -160.5q0 -199 79 -199q32 0 43 25.5t11 75.5z" />
    <glyph glyph-name="A" unicode="A" horiz-adv-x="1355" 
d="M408 0h-414l434 1362h469l465 -1362h-451l-71 242h-359zM653 963l-104 -414h223l-106 414h-13z" />
    <glyph glyph-name="B" unicode="B" horiz-adv-x="1232" 
d="M94 1362h563q104 0 184.5 -16.5t148 -55.5t104 -110.5t36.5 -173.5q0 -151 -129 -273q96 -50 146.5 -124t50.5 -183q0 -206 -149 -316t-428 -110h-527v1362zM520 545v-226h88q74 0 105.5 29.5t31.5 89.5q0 107 -129 107h-96zM520 1055v-215h62q57 0 86.5 32t29.5 78
q0 105 -104 105h-74z" />
    <glyph glyph-name="C" unicode="C" horiz-adv-x="1218" 
d="M725 322q123 0 262 129l213 -275q-120 -107 -236 -154t-264 -47q-300 0 -472.5 179.5t-172.5 511.5q0 132 25.5 241.5t72 187t106.5 135t134 91t149.5 49.5t157.5 16q171 0 305 -75.5t220 -227.5l-297 -213q-116 164 -238 164q-89 0 -143.5 -86.5t-54.5 -257.5
q0 -173 57 -270.5t176 -97.5z" />
    <glyph glyph-name="D" unicode="D" horiz-adv-x="1327" 
d="M94 0v1362h502q323 0 499.5 -157.5t176.5 -479.5q0 -154 -36.5 -277.5t-98.5 -206t-148.5 -138t-182.5 -79.5t-204 -24h-508zM520 1032v-704h86q115 0 177.5 91t62.5 273q0 340 -260 340h-66z" />
    <glyph glyph-name="E" unicode="E" horiz-adv-x="1107" 
d="M94 0v1362h940v-373h-514v-110h441v-369h-441v-137h529v-373h-955z" />
    <glyph glyph-name="F" unicode="F" horiz-adv-x="1134" 
d="M94 1362h987v-373h-561v-131h465v-373h-465v-485h-426v1362z" />
    <glyph glyph-name="G" unicode="G" horiz-adv-x="1308" 
d="M1231 692v-571q-89 -65 -230 -105.5t-299 -40.5q-303 0 -475 178.5t-172 524.5q0 111 20 206t54.5 166.5t83.5 128.5t105 95.5t120.5 64t128.5 36.5t131 11q371 0 539 -290l-307 -219q-65 88 -120.5 121.5t-115.5 33.5q-94 0 -148 -83.5t-54 -248.5q0 -385 225 -385
q56 0 125 17v360h389z" />
    <glyph glyph-name="H" unicode="H" horiz-adv-x="1366" 
d="M842 1362h430v-1362h-430v485h-322v-485h-426v1362h426v-504h322v504z" />
    <glyph glyph-name="I" unicode="I" horiz-adv-x="634" 
d="M530 0h-426v1362h426v-1362z" />
    <glyph glyph-name="J" unicode="J" horiz-adv-x="927" 
d="M-4 70l110 315q100 -53 187 -53q61 0 93 32.5t32 108.5v889h426v-920q0 -123 -19 -188q-35 -126 -156 -202.5t-278 -76.5q-100 0 -209.5 27t-185.5 68z" />
    <glyph glyph-name="K" unicode="K" horiz-adv-x="1245" 
d="M1249 1362l-383 -592l404 -770h-484l-202 432l-66 -98v-334h-424v1362h424v-430h6l262 430h463z" />
    <glyph glyph-name="L" unicode="L" horiz-adv-x="1077" 
d="M94 0v1362h426v-987h518v-375h-944z" />
    <glyph glyph-name="M" unicode="M" horiz-adv-x="1599" 
d="M807 690l235 672h426l70 -1362h-403l-31 547h-10l-148 -420h-291l-151 408h-8l-33 -535h-402l78 1362h430l228 -672h10z" />
    <glyph glyph-name="N" unicode="N" horiz-adv-x="1353" 
d="M838 1362h422v-1362h-363l-375 608h-8v-608h-420v1362h377l360 -594h7v594z" />
    <glyph glyph-name="O" unicode="O" horiz-adv-x="1368" 
d="M1313 678q0 -341 -172 -522t-465 -181q-297 0 -459 179.5t-162 523.5q0 152 39 274.5t102.5 202t149.5 133t176 76t185 22.5q127 0 232.5 -38.5t191 -119.5t134 -221.5t48.5 -328.5zM492 696q0 -372 198 -372q53 0 91 28.5t59 79t30 109.5t9 131q0 63 -8 119.5t-28 114.5
t-61.5 93t-101.5 35q-66 0 -110 -49.5t-61 -122.5t-17 -166z" />
    <glyph glyph-name="P" unicode="P" horiz-adv-x="1177" 
d="M520 432v-432h-426v1362h522q254 0 396.5 -114t142.5 -328q0 -157 -75 -268.5t-204.5 -165.5t-300.5 -54h-55zM520 762h33q83 0 123.5 28.5t40.5 106.5q0 133 -117 133h-80v-268z" />
    <glyph glyph-name="Q" unicode="Q" horiz-adv-x="1388" 
d="M692 772l-63 -211q-52 -8 -113 -8q-192 0 -314 98.5t-122 268.5q0 143 74 250t199 161.5t282 54.5q105 0 197.5 -23t173.5 -73.5t139 -125.5t91.5 -184.5t33.5 -244.5q0 -134 -36 -266.5t-97 -239.5q78 -74 144 -126.5t162 -100.5t189 -61l-80 -316q-161 20 -342.5 125.5
t-294.5 239.5q-186 -148 -407 -148q-112 0 -195.5 27.5t-131 75.5t-70.5 105t-23 124q0 139 105 233.5t301 94.5q73 0 157.5 -21.5t139.5 -52.5q45 130 45 279q0 89 -20.5 161.5t-70 122t-120.5 49.5q-63 0 -101.5 -34t-38.5 -93q0 -71 54.5 -101.5t152.5 -39.5zM668 199
q-24 17 -73 34t-81 17q-36 0 -55 -20t-19 -46q0 -65 80 -65q37 0 81 23.5t67 56.5z" />
    <glyph glyph-name="R" unicode="R" horiz-adv-x="1261" 
d="M520 502v-502h-426v1362h508q128 0 225 -20t172.5 -64t114.5 -122t39 -187q0 -110 -58.5 -202.5t-146.5 -133.5q51 -28 94 -123l226 -510h-459l-178 446q-23 56 -92 56h-19zM520 797h82q56 0 86.5 32.5t30.5 92.5q0 59 -29 84.5t-92 25.5h-78v-235z" />
    <glyph glyph-name="S" unicode="S" horiz-adv-x="1124" 
d="M0 123l139 348q80 -48 201 -88.5t192 -40.5q86 0 86 68q0 16 -8.5 29.5t-19.5 22.5t-36 19.5t-44 16.5l-57 18q-61 18 -107.5 36t-103.5 52.5t-94.5 77t-63 109t-25.5 147.5q0 142 69.5 245t185 153t264.5 50q150 0 288 -55t236 -155l-219 -279q-191 133 -301 133
q-78 0 -78 -59q0 -39 43.5 -63.5t140.5 -55.5q67 -22 112.5 -41t102.5 -54.5t91.5 -76.5t58.5 -106.5t24 -145.5q0 -145 -72 -248.5t-193.5 -154t-279.5 -50.5q-144 0 -297 46t-235 102z" />
    <glyph glyph-name="T" unicode="T" horiz-adv-x="1189" 
d="M29 1362h1132v-373h-360v-989h-426v989h-346v373z" />
    <glyph glyph-name="U" unicode="U" horiz-adv-x="1288" 
d="M84 1362h424v-875q0 -86 37 -121.5t104 -35.5q59 0 95 38t36 109v885h424v-928q0 -210 -155 -334.5t-408 -124.5q-280 0 -418.5 118.5t-138.5 367.5v901z" />
    <glyph glyph-name="V" unicode="V" horiz-adv-x="1314" 
d="M872 0h-438l-438 1362h426l235 -873h9l243 873h410z" />
    <glyph glyph-name="W" unicode="W" horiz-adv-x="1685" 
d="M997 0l-127 627h-12l-135 -627h-442l-281 1362h426l121 -758h6l117 660h403l98 -623h11l80 721h424l-256 -1362h-433z" />
    <glyph glyph-name="X" unicode="X" horiz-adv-x="1392" 
d="M924 1362h473l-443 -649l461 -713h-487l-223 369l-232 -369h-498l480 711l-426 651h487l199 -336z" />
    <glyph glyph-name="Y" unicode="Y" horiz-adv-x="1280" 
d="M858 1362h442l-458 -836v-526h-426v524l-436 838h464l191 -444h8z" />
    <glyph glyph-name="Z" unicode="Z" horiz-adv-x="1103" 
d="M1055 1130l-518 -806h538v-324h-1038v250l504 790h-496v322h1010v-232z" />
    <glyph glyph-name="bracketleft" unicode="[" horiz-adv-x="626" 
d="M90 -387v1896h528v-252h-155v-1392h155v-252h-528z" />
    <glyph glyph-name="backslash" unicode="\" horiz-adv-x="993" 
d="M41 1464l346 125l582 -1728l-351 -121z" />
    <glyph glyph-name="bracketright" unicode="]" horiz-adv-x="626" 
d="M537 1509v-1896h-529v252h156v1392h-156v252h529z" />
    <glyph glyph-name="asciicircum" unicode="^" horiz-adv-x="1208" 
d="M1130 596l-331 -49l-187 428l-184 -426l-330 47l394 825h247z" />
    <glyph glyph-name="underscore" unicode="_" horiz-adv-x="1024" 
d="M0 -360v208h1024v-208h-1024z" />
    <glyph glyph-name="grave" unicode="`" horiz-adv-x="1024" 
d="M481 1690l269 -441l-113 -94q-48 27 -138 94t-153 127q-76 76 -76 131q0 37 21.5 69.5t56.5 54.5t67.5 36t65.5 23z" />
    <glyph glyph-name="a" unicode="a" horiz-adv-x="1118" 
d="M1030 1004v-766l27 -238h-346l-19 86l-12 2q-81 -123 -238 -123q-93 0 -164 29t-115 77t-72 116.5t-39 140t-11 155.5q0 277 148 443t423 166q74 0 187 -20.5t231 -67.5zM623 332v467q-24 8 -52 8q-44 0 -72.5 -44t-39 -106t-10.5 -139q0 -124 22.5 -191t79.5 -67
q31 0 51.5 21.5t20.5 50.5z" />
    <glyph glyph-name="b" unicode="b" horiz-adv-x="1105" 
d="M84 49v1374h414v-364q92 33 178 33q188 0 293.5 -129.5t105.5 -391.5q0 -296 -141 -450t-406 -154q-118 0 -244.5 24t-199.5 58zM498 745v-489q25 -6 53 -6q24 0 42 8t30 20t20.5 34.5t13 41.5t6.5 51.5t2.5 54.5t0.5 60q0 69 -4.5 117t-16.5 87.5t-35 59t-57 19.5
q-24 0 -39.5 -15t-15.5 -43z" />
    <glyph glyph-name="c" unicode="c" horiz-adv-x="978" 
d="M623 287q49 0 91.5 17t108.5 61l142 -279q-161 -121 -406 -121q-239 0 -378.5 140.5t-139.5 406.5q0 117 29.5 214t79.5 164t118 113t144 67.5t157 21.5q282 0 420 -226l-248 -213q-27 38 -43.5 57.5t-46 38.5t-61.5 19q-67 0 -101 -62.5t-34 -175.5q0 -119 44 -181
t124 -62z" />
    <glyph glyph-name="d" unicode="d" horiz-adv-x="1120" 
d="M569 1092q17 0 36 -1t20 -1v333h407v-1185l27 -238h-342l-23 88h-12q-21 -47 -83 -85t-146 -38q-75 0 -136 16.5t-103 44t-74 68.5t-50.5 83.5t-29.5 95t-15 98.5t-4 98q0 181 59 320t179.5 221t289.5 82zM625 332v469q-38 6 -67 -3.5t-47.5 -32.5t-31 -51.5t-18.5 -67.5
t-8 -72.5t-2 -73.5q0 -55 4.5 -96t15 -75t30.5 -51.5t48 -17.5q31 0 53.5 22.5t22.5 49.5z" />
    <glyph glyph-name="e" unicode="e" horiz-adv-x="991" 
d="M588 1092q175 0 278 -87t103 -260q0 -68 -22 -123.5t-62.5 -94t-88.5 -67t-108.5 -46.5t-113 -27.5t-111.5 -15.5q12 -47 54.5 -74t107.5 -27q119 0 249 84l105 -270l-46 -27q-171 -90 -372 -90q-137 0 -238.5 38.5t-162.5 110t-90 166t-29 214.5q0 114 34.5 219
t100.5 190t172.5 136t239.5 51zM616 750q0 25 -14 40t-39 15q-47 0 -82 -48t-39 -143q79 7 126.5 47.5t47.5 88.5z" />
    <glyph glyph-name="f" unicode="f" horiz-adv-x="770" 
d="M504 737v-1167h-412v1526q0 50 3 89.5t13.5 86t28 81t48 69t72.5 56t103 35t138 13.5q78 0 178 -27.5t174 -68.5l-88 -261q-52 27 -103 42.5t-79 15.5q-36 0 -56 -17.5t-20 -66.5v-84h266v-322h-266z" />
    <glyph glyph-name="g" unicode="g" horiz-adv-x="1099" 
d="M514 -543q-189 0 -288 78.5t-99 214.5q0 210 203 367q-128 23 -214.5 138.5t-86.5 291.5q0 173 72 297.5t197.5 186t291.5 61.5q103 0 226.5 -21t209.5 -57v-817q0 -157 -6 -222q-18 -249 -144 -383.5t-362 -134.5zM614 414v387q-50 7 -86 -12.5t-53.5 -59.5t-25 -84
t-7.5 -98q0 -40 2 -70.5t7.5 -63t16 -53t28.5 -34t43 -13.5q32 0 53.5 25t21.5 76zM481 -172q0 -80 68 -80q42 0 58 31.5t16 111.5v189q-53 -41 -97.5 -107.5t-44.5 -144.5z" />
    <glyph glyph-name="h" unicode="h" 
d="M487 0h-413v1423h413v-381q87 50 199 50q165 0 250.5 -93.5t85.5 -281.5v-717h-414v672q0 55 -11 79.5t-38 24.5q-72 0 -72 -102v-674z" />
    <glyph glyph-name="i" unicode="i" horiz-adv-x="579" 
d="M508 0h-416v1059h416v-1059zM88 1362q0 82 57.5 139.5t151.5 57.5t153.5 -57.5t59.5 -139.5q0 -84 -58.5 -139.5t-152.5 -55.5q-96 0 -153.5 55t-57.5 140z" />
    <glyph glyph-name="j" unicode="j" horiz-adv-x="577" 
d="M92 8v1051h412v-1092q0 -50 -2 -87t-10.5 -84.5t-23.5 -81t-43 -68.5t-66.5 -56.5t-95.5 -35t-130 -13.5q-85 0 -181 23.5t-165 62.5l102 281q71 -31 115 -31q88 0 88 131zM94 1362q0 82 58 139.5t153 57.5q93 0 152 -57.5t59 -139.5q0 -84 -58.5 -139.5t-152.5 -55.5
q-96 0 -153.5 55t-57.5 140z" />
    <glyph glyph-name="k" unicode="k" horiz-adv-x="1130" 
d="M680 0l-170 457h-10v-457h-416v1423h416v-555h12q57 110 137.5 167t198.5 57q109 0 183.5 -65t74.5 -193q0 -74 -33.5 -140.5t-74.5 -106.5t-91 -71l250 -516h-477zM696 741q0 26 -16 42t-41 16q-49 0 -87 -55.5t-44 -131.5q73 5 130.5 43t57.5 86z" />
    <glyph glyph-name="l" unicode="l" horiz-adv-x="747" 
d="M84 1423h414v-1028q0 -106 71 -106q31 0 115 33l86 -271q-58 -42 -146.5 -63t-168.5 -21q-73 0 -130 13.5t-95.5 35t-66.5 57t-43 69t-23.5 81.5t-10.5 86t-2 90v1024z" />
    <glyph glyph-name="m" unicode="m" horiz-adv-x="1619" 
d="M502 0h-412v827l-27 232h340l23 -96q50 64 111 96.5t159 32.5q180 0 262 -113q101 113 267 113q154 0 237.5 -89t83.5 -276v-727h-413v664q0 62 -8.5 87t-39.5 25q-38 0 -49.5 -26t-11.5 -88v-662h-414v664q0 62 -8.5 87t-38.5 25q-39 0 -50 -25t-11 -87v-664z" />
    <glyph glyph-name="n" unicode="n" horiz-adv-x="1114" 
d="M502 0h-410v827l-29 232h340l23 -96q98 129 287 129q154 0 240.5 -89.5t86.5 -275.5v-727h-413v664q0 61 -9 86.5t-40 25.5q-76 0 -76 -112v-664z" />
    <glyph glyph-name="o" unicode="o" horiz-adv-x="1093" 
d="M551 264q47 0 66.5 58t19.5 202q0 150 -19 212.5t-69 62.5q-84 0 -84 -238q0 -148 16.5 -222.5t69.5 -74.5zM41 516q0 125 32.5 225.5t84.5 164.5t121.5 107t140 61t143.5 18q42 0 81.5 -4t91.5 -18t95.5 -36.5t87.5 -64t75 -96.5t50 -137t19 -183q0 -139 -41 -251
t-113 -184.5t-167.5 -111.5t-206.5 -39q-233 0 -363.5 138t-130.5 411z" />
    <glyph glyph-name="p" unicode="p" horiz-adv-x="1132" 
d="M506 -20v-410h-414v1438q120 43 256.5 63.5t233.5 20.5q250 0 380 -140.5t130 -416.5q0 -273 -126.5 -420.5t-349.5 -147.5q-47 0 -110 13zM506 782v-520q32 -12 57 -12q23 0 40.5 8t29 20t19.5 34.5t12.5 41.5t6.5 51.5t2.5 54.5t0.5 60q0 73 -3 116t-13 82.5t-31.5 57
t-55.5 17.5q-37 0 -65 -11z" />
    <glyph glyph-name="q" unicode="q" horiz-adv-x="1120" 
d="M1034 1006v-1436h-413v434h-7q-56 -37 -151 -37q-196 0 -309 134t-113 399q0 126 38 234.5t108.5 187.5t175.5 124.5t233 45.5q93 0 215 -23.5t223 -62.5zM623 332v469q-46 7 -78 -4t-50.5 -34t-29 -66.5t-13.5 -87.5t-3 -109q0 -55 4.5 -96t15 -75t30.5 -51.5t48 -17.5
q36 0 56 21.5t20 50.5z" />
    <glyph glyph-name="r" unicode="r" horiz-adv-x="831" 
d="M508 635v-635h-414v838l-31 221h330l33 -141q28 65 71 106t82 54.5t80 13.5q104 0 170 -39l-51 -346q-81 36 -149 36q-121 0 -121 -108z" />
    <glyph glyph-name="s" unicode="s" horiz-adv-x="917" 
d="M4 86l100 289q71 -41 165.5 -76t154.5 -35q53 0 53 41q0 14 -6.5 24.5t-24 20t-30 14.5t-41.5 15q-38 13 -52.5 18t-50 18.5t-51.5 22.5t-45.5 26.5t-44 33t-34 39t-29 48.5t-16.5 58t-7 70q0 114 60 202t158.5 132.5t217.5 44.5q126 0 239.5 -42t197.5 -118l-181 -234
q-147 103 -229 103q-31 0 -45 -13.5t-14 -33.5q0 -27 26.5 -44.5t85.5 -39.5q44 -16 67 -25t63.5 -27.5t63.5 -35t52 -43t44.5 -55t26.5 -67.5t11 -85q0 -176 -119.5 -270.5t-325.5 -94.5q-135 0 -254.5 37t-185.5 82z" />
    <glyph glyph-name="t" unicode="t" horiz-adv-x="794" 
d="M88 1423h416v-364h244v-320h-244v-327q0 -71 31.5 -103.5t80.5 -32.5q42 0 95 29l86 -262q-52 -32 -138.5 -54t-177.5 -22q-77 0 -138.5 13.5t-102 34.5t-70 55.5t-45 67.5t-24.5 80.5t-11 84.5t-2 88v1032z" />
    <glyph glyph-name="u" unicode="u" horiz-adv-x="1122" 
d="M621 1059h413v-842l25 -217h-346l-15 84h-12q-88 -111 -246 -111q-356 0 -356 381v705h414v-660q0 -62 10 -88t45 -26q31 0 49.5 27.5t18.5 70.5v676z" />
    <glyph glyph-name="v" unicode="v" horiz-adv-x="1085" 
d="M565 1059h406q31 -106 50 -241t19 -245q0 -302 -137.5 -451t-402.5 -149q-213 0 -314.5 94t-101.5 285v707h416v-672q0 -57 10 -77.5t37 -20.5t45.5 22t27 64.5t12 87.5t3.5 106q0 102 -20 238t-50 252z" />
    <glyph glyph-name="w" unicode="w" horiz-adv-x="1585" 
d="M1067 1059h408q29 -103 47 -239t18 -247q0 -290 -121.5 -445t-353.5 -155q-103 0 -167.5 31t-115.5 88q-122 -119 -309 -119q-189 0 -289 96t-100 285v705h414v-703q0 -38 9.5 -53.5t35.5 -15.5q53 0 53 84v688h410v-697q0 -29 1.5 -41.5t10.5 -23t29 -10.5q43 0 64.5 77
t21.5 203q0 103 -19 240t-47 252z" />
    <glyph glyph-name="x" unicode="x" horiz-adv-x="1079" 
d="M678 1059h424l-334 -520l348 -539h-454l-125 231l-121 -231h-453l354 535l-323 524h438l119 -221z" />
    <glyph glyph-name="y" unicode="y" horiz-adv-x="1110" 
d="M1036 303q0 -230 -2 -287q-12 -274 -144 -417.5t-382 -143.5q-180 0 -276.5 78t-96.5 215q0 199 193 346q-130 28 -187 108t-57 216v641h414v-633q0 -58 10.5 -82.5t46.5 -24.5q24 0 45 27.5t21 73.5v639h415v-756zM489 -172q0 -80 68 -80q41 0 57.5 29.5t16.5 97.5v205
q-53 -41 -97.5 -107.5t-44.5 -144.5z" />
    <glyph glyph-name="z" unicode="z" horiz-adv-x="923" 
d="M358 -156q0 -86 78 -86q49 0 78 49.5t29 124.5q0 96 -45 138q-140 -108 -140 -226zM911 1059v-215l-395 -383l100 -41q154 -61 231 -179t77 -272q0 -224 -147.5 -368t-373.5 -144q-200 0 -302.5 90t-102.5 250q0 266 287 426q-67 41 -172 74v199l270 247h-354v316h882z
" />
    <glyph glyph-name="braceleft" unicode="{" horiz-adv-x="733" 
d="M401 575q79 -25 113.5 -77.5t34.5 -155.5q0 -57 -14.5 -177.5t-14.5 -160.5q0 -29 1.5 -48t7 -40t16 -33t29 -20t44.5 -8q29 0 78 8l25 -244q-88 -20 -211 -20q-141 0 -227.5 58t-114.5 155q-10 48 -10 84q0 112 22 325q14 123 -16.5 176t-120.5 52v253q89 -1 120.5 54.5
t22.5 173.5q-16 229 -16 291q0 32 12 82q29 98 115.5 154t224.5 56q123 0 211 -20l-26 -240q-55 9 -76 9q-61 0 -80 -37.5t-19 -112.5q0 -41 10.5 -136.5t10.5 -152.5q0 -178 -152 -248z" />
    <glyph glyph-name="bar" unicode="|" horiz-adv-x="763" 
d="M211 -180v1710h344v-1710h-344z" />
    <glyph glyph-name="braceright" unicode="}" horiz-adv-x="733" 
d="M332 575q-152 70 -152 248q0 57 10.5 152.5t10.5 136.5q0 36 -3 59.5t-12.5 46t-30 33.5t-53.5 11q-20 0 -75 -9l-27 240q88 20 211 20q138 0 224.5 -56t115.5 -154q12 -50 12 -82q0 -62 -16 -291q-9 -118 22.5 -173.5t120.5 -54.5v-253q-90 1 -120.5 -52t-16.5 -176
q22 -213 22 -325q0 -36 -10 -84q-28 -97 -114.5 -155t-227.5 -58q-123 0 -211 20l25 244q49 -8 78 -8q61 0 79.5 37t18.5 112q0 40 -14.5 160.5t-14.5 177.5q0 103 34.5 155.5t113.5 77.5z" />
    <glyph glyph-name="asciitilde" unicode="~" horiz-adv-x="1316" 
d="M915 434q-71 0 -145.5 22t-124.5 48.5t-105.5 48.5t-93.5 22q-56 0 -105.5 -36.5t-117.5 -110.5l-231 201q40 52 62.5 79.5t66 71t80 66.5t88 41t106.5 18q59 0 126.5 -23.5t118.5 -52t115.5 -52t116.5 -23.5q57 0 110 37t110 112l233 -201q-69 -122 -172.5 -195
t-237.5 -73z" />
    <glyph glyph-name="uni00A0" unicode="&#xa0;" horiz-adv-x="456" 
 />
    <glyph glyph-name="exclamdown" unicode="&#xa1;" horiz-adv-x="548" 
d="M465 -31v-198q0 -63 -43 -102.5t-131 -39.5q-89 0 -132.5 40.5t-43.5 105.5v194l55 676h238zM489 905q0 -72 -53 -125t-139 -53q-92 0 -143.5 50.5t-51.5 129.5q0 73 51 126.5t140 53.5q94 0 145 -52t51 -130z" />
    <glyph glyph-name="cent" unicode="&#xa2;" 
d="M449 -123v252q-156 42 -252.5 167t-96.5 337q0 222 97.5 354.5t251.5 175.5v240h331v-238q162 -56 258 -207l-245 -206q-40 56 -75.5 87t-80.5 31q-139 0 -139 -221q0 -117 34.5 -171t104.5 -54q45 0 81 31t75 88l245 -207q-106 -163 -258 -207v-252h-331z" />
    <glyph glyph-name="sterling" unicode="&#xa3;" horiz-adv-x="1222" 
d="M86 240v272h158l78 379q49 239 165 347t320 108q80 0 153 -20t126.5 -52.5t89 -62t61.5 -60.5l-203 -233q-53 53 -98 81.5t-94 28.5q-56 0 -82 -34t-45 -126l-74 -356h252v-270h-303l-12 -49q-38 -160 -162 -265l4 -6q109 41 192 41q65 0 178.5 -19.5t167.5 -19.5
q83 0 146 31l-41 -332q-72 -14 -131 -14q-96 0 -310.5 39t-322.5 39q-165 0 -322 -80v315q73 25 119.5 71t69.5 138l29 109h-109z" />
    <glyph glyph-name="yen" unicode="&#xa5;" horiz-adv-x="1214" 
d="M377 225h-248v234h248v108h-248v234h121l-240 518h422l168 -447h10l187 447h407l-264 -518h119v-234h-256v-108h256v-234h-256v-225h-426v225z" />
    <glyph glyph-name="brokenbar" unicode="&#xa6;" horiz-adv-x="763" 
d="M211 -180v758h342v-758h-342zM211 817v713h342v-713h-342z" />
    <glyph glyph-name="section" unicode="&#xa7;" horiz-adv-x="1163" 
d="M1081 203l-268 -82q70 -98 70 -238q0 -40 -11 -83t-39 -89.5t-69.5 -82.5t-109 -59.5t-150.5 -23.5q-187 0 -277 41l49 275q95 -29 162 -29q84 0 84 64q0 67 -123 174q-40 37 -59.5 55t-59.5 60.5t-61.5 75t-51.5 86t-45.5 105t-27.5 121.5t-12 146l254 76
q-76 99 -76 249q0 38 9.5 79t36 89.5t67.5 86t111.5 62.5t160.5 25q61 0 137.5 -12t120.5 -26l-49 -265q-89 25 -141 25q-41 0 -66.5 -22t-25.5 -60q0 -40 30.5 -78.5t93.5 -93.5q40 -36 59 -54t58.5 -60.5t62 -74.5t53.5 -85.5t49 -105.5t33.5 -123t20.5 -148zM752 195
q-43 149 -125.5 268.5t-212.5 241.5q26 -91 63.5 -167.5t88.5 -141.5t87 -103t99 -98z" />
    <glyph glyph-name="dieresis" unicode="&#xa8;" horiz-adv-x="1024" 
d="M559 1376q0 70 48.5 117t129.5 47q80 0 129 -47.5t49 -116.5q0 -71 -49 -117.5t-129 -46.5q-81 0 -129.5 46.5t-48.5 117.5zM102 1376q0 70 49 117t130 47q80 0 129 -47.5t49 -116.5q0 -71 -49 -117.5t-129 -46.5q-81 0 -130 46.5t-49 117.5z" />
    <glyph glyph-name="copyright" unicode="&#xa9;" horiz-adv-x="1669" 
d="M1161 928l-162 -123q-70 88 -147 88q-158 0 -158 -219q0 -223 158 -223q41 0 76.5 13t53.5 27t56 46l125 -156q-132 -135 -321 -135q-87 0 -156 26.5t-112 69t-71.5 99.5t-40 113t-11.5 114q0 206 107.5 320t283.5 114q106 0 191 -49t128 -125zM1567 680
q0 -208 -94.5 -373t-264 -256.5t-383.5 -91.5q-220 0 -385.5 92t-251.5 252t-86 365q0 153 54 285.5t148.5 227.5t229 149t291.5 54q161 0 299.5 -54t235.5 -148t152 -224t55 -278zM1378 668q0 242 -156 397.5t-395 155.5q-242 0 -388 -154t-146 -399q0 -241 149.5 -393
t384.5 -152q244 0 397.5 150t153.5 395z" />
    <glyph glyph-name="ordfeminine" unicode="&#xaa;" horiz-adv-x="899" 
d="M793 1198v-502l16 -149h-246l-10 76h-10q-13 -19 -25 -33t-33 -31t-51 -26t-67 -9q-77 0 -133 27.5t-86.5 76.5t-44 106t-13.5 126q0 177 107.5 285t298.5 108q49 0 132 -13t165 -42zM502 772v279q-12 4 -37 4q-84 0 -84 -176q0 -78 15 -118t57 -40q49 0 49 51z" />
    <glyph glyph-name="guillemotleft" unicode="&#xab;" horiz-adv-x="1267" 
d="M682 840l-209 -305l195 -320l-146 -135q-105 71 -237.5 192.5t-175.5 200.5q-19 36 -19 76q0 37 18.5 67.5t55.5 65.5q188 176 366 305zM1208 840l-209 -305l195 -320l-145 -135q-106 72 -238.5 193t-175.5 200q-19 36 -19 76q0 37 18.5 67.5t55.5 65.5q185 173 367 305z
" />
    <glyph glyph-name="logicalnot" unicode="&#xac;" 
d="M674 240v317h-568v322h879v-639h-311z" />
    <glyph glyph-name="uni00AD" unicode="&#xad;" horiz-adv-x="659" 
d="M57 424v299h547v-299h-547z" />
    <glyph glyph-name="registered" unicode="&#xae;" horiz-adv-x="948" 
d="M588 940l74 -166h-113l-64 144q-12 28 -32 28h-19v-172h-102v432h155q68 0 106 -29t38 -87q0 -87 -70 -119q18 -8 27 -31zM434 1024h12q38 0 56 12.5t18 44.5q0 29 -18 38t-56 9h-12v-104zM887 989q0 -177 -117 -290t-301 -113q-186 0 -297 111.5t-111 287.5
q0 173 114.5 287t293.5 114q183 0 300.5 -113.5t117.5 -283.5zM770 985q0 129 -86 213t-215 84q-131 0 -211 -83.5t-80 -213.5q0 -131 82 -215t209 -84q132 0 216.5 82.5t84.5 216.5z" />
    <glyph glyph-name="macron" unicode="&#xaf;" horiz-adv-x="1024" 
d="M164 1241v266h696v-266h-696z" />
    <glyph glyph-name="degree" unicode="&#xb0;" horiz-adv-x="610" 
d="M43 1231q0 114 75 191t187 77q119 0 190.5 -74.5t71.5 -181.5q0 -122 -75 -202t-193 -80t-187 77t-69 193zM213 1231q0 -48 24.5 -80.5t67.5 -32.5q42 0 67 33t25 80t-24 76.5t-68 29.5q-45 0 -68.5 -29t-23.5 -77z" />
    <glyph glyph-name="plusminus" unicode="&#xb1;" 
d="M381 807v283h336v-283h246v-330h-246v-151h246v-326h-830v326h248v151h-248v330h248z" />
    <glyph glyph-name="twosuperior" unicode="&#xb2;" horiz-adv-x="772" 
d="M201 1192l-148 168q159 149 342 149q144 0 219.5 -62.5t75.5 -170.5q0 -74 -33 -134.5t-100 -127.5l-90 -92h240v-224h-617v164l246 268q30 33 41.5 54t11.5 45q0 23 -12 35t-31 12q-51 0 -145 -84z" />
    <glyph glyph-name="threesuperior" unicode="&#xb3;" horiz-adv-x="772" 
d="M188 1225l-118 157q46 42 141.5 84.5t210.5 42.5q121 0 191.5 -56.5t70.5 -145.5q0 -48 -25 -93.5t-73 -76.5q108 -79 108 -191q0 -110 -81.5 -184t-241.5 -74q-142 0 -293 72l69 190q102 -57 201 -57q68 0 68 43q0 20 -31 80q-41 -13 -152 -29l-51 162q123 25 168 43
q53 21 53 61q0 39 -45 39q-58 0 -170 -67z" />
    <glyph glyph-name="acute" unicode="&#xb4;" horiz-adv-x="1024" 
d="M274 1249l267 441q33 -9 65.5 -23t67.5 -36t56.5 -54.5t21.5 -69.5q0 -55 -76 -131q-63 -60 -153 -127t-138 -94z" />
    <glyph glyph-name="mu" unicode="&#xb5;" horiz-adv-x="1177" 
d="M1069 1059v-758q0 -32 11 -47.5t38 -15.5q19 0 43 6l29 -221q-103 -50 -219 -50q-145 0 -201 129q-18 -66 -62 -101.5t-102 -35.5q-14 0 -26 1.5t-23 5t-19.5 6.5t-17.5 9t-14 9.5t-12 10.5l-9.5 9.5t-8.5 9.5l-7 7v-475h-360v1501h380v-666q0 -73 22.5 -108t74.5 -35
q42 0 70 46.5t28 129.5v633h385z" />
    <glyph glyph-name="paragraph" unicode="&#xb6;" horiz-adv-x="1214" 
d="M725 174v903h-135v-651q-109 -1 -202 23.5t-170 76.5t-121 143.5t-44 215.5q0 122 40.5 215t114.5 149.5t171 84.5t215 28h526v-1155q0 -83 -4.5 -141.5t-19.5 -121.5t-41.5 -107t-71 -88t-108.5 -75t-153.5 -58t-205.5 -46l-82 344q119 20 182 51.5t86 79t23 129.5z" />
    <glyph glyph-name="periodcentered" unicode="&#xb7;" horiz-adv-x="653" 
d="M137 629q0 78 49.5 128t137.5 50q94 0 143 -47t49 -129q0 -79 -48 -129.5t-138 -50.5q-95 0 -144 49t-49 129z" />
    <glyph glyph-name="cedilla" unicode="&#xb8;" horiz-adv-x="1024" 
d="M434 6h158l-31 -112q94 -9 152.5 -60t58.5 -127q0 -57 -20 -100t-50 -67t-71.5 -38.5t-77 -19t-74.5 -4.5q-120 0 -217 37l45 159q75 -26 139 -26q101 0 101 53q0 22 -16 37t-46.5 21t-58.5 8t-68 2z" />
    <glyph glyph-name="onesuperior" unicode="&#xb9;" horiz-adv-x="772" 
d="M135 911h141v303l-135 -51l-84 170l283 164h227l-16 -178v-408h127v-213h-543v213z" />
    <glyph glyph-name="ordmasculine" unicode="&#xba;" horiz-adv-x="858" 
d="M428 727q35 0 48 32.5t13 125.5q0 95 -13.5 131.5t-47.5 36.5q-61 0 -61 -144q0 -47 1.5 -74.5t7.5 -55t18.5 -40t33.5 -12.5zM68 881q0 99 35 174.5t91.5 116t117.5 60t124 19.5q28 0 54 -2t63.5 -10.5t68.5 -22.5t63.5 -40.5t54.5 -62t36.5 -89.5t14.5 -121
q0 -178 -108.5 -278.5t-264.5 -100.5q-161 0 -255.5 89.5t-94.5 267.5z" />
    <glyph glyph-name="guillemotright" unicode="&#xbb;" horiz-adv-x="1267" 
d="M268 535l-209 305l152 147q182 -132 367 -305q73 -70 73 -133q0 -42 -18 -76q-43 -79 -175.5 -200t-238.5 -193l-145 135zM795 535l-209 305l151 147q182 -132 367 -305q37 -35 55.5 -65.5t18.5 -67.5q0 -40 -19 -76q-43 -79 -175.5 -200t-238.5 -193l-145 135z" />
    <glyph glyph-name="onequarter" unicode="&#xbc;" horiz-adv-x="1792" 
d="M96 748h142v303l-136 -52l-84 170l283 164h227l-16 -178v-407h127v-213h-543v213zM748 -39l-246 107l598 1280l250 -103zM1522 539h155v-193h97v-190h-99v-156h-270v160h-311v139l247 532l222 -104l-195 -381h74z" />
    <glyph glyph-name="onehalf" unicode="&#xbd;" horiz-adv-x="1792" 
d="M106 748h142v303l-135 -52l-84 170l282 164h228l-17 -178v-407h127v-213h-543v213zM725 -39l-246 107l598 1280l250 -103zM1257 494l-147 168q159 149 342 149q144 0 219.5 -62.5t75.5 -170.5q0 -74 -33 -135t-100 -128l-90 -92h239v-223h-616v164l246 268
q30 33 41.5 53.5t11.5 44.5q0 23 -12 35.5t-31 12.5q-23 0 -63 -22.5t-83 -61.5z" />
    <glyph glyph-name="threequarters" unicode="&#xbe;" horiz-adv-x="1792" 
d="M143 1061l-118 158q46 42 141.5 84.5t210.5 42.5q121 0 191.5 -56.5t70.5 -146.5q0 -48 -25 -93.5t-73 -76.5q108 -79 108 -191q0 -110 -81.5 -184t-241.5 -74q-142 0 -293 72l69 190q102 -57 201 -57q68 0 68 43q0 20 -31 80q-41 -13 -152 -29l-51 162q123 25 168 43
q53 21 53 62q0 38 -45 38q-58 0 -170 -67zM731 -39l-246 107l598 1280l250 -103zM1516 539h155v-193h96v-190h-98v-156h-270v160h-312v139l248 532l221 -104l-194 -381h74z" />
    <glyph glyph-name="questiondown" unicode="&#xbf;" horiz-adv-x="823" 
d="M432 4q0 48 24 76t79 59q88 49 118 77q80 72 80 210q0 68 -20 233h-295v-122q0 -65 -16.5 -99.5t-59.5 -62.5q-75 -46 -122 -82.5t-90 -85.5t-63 -109t-20 -135q0 -34 7.5 -71t33.5 -86.5t67.5 -86.5t119 -63.5t178.5 -26.5q77 0 162.5 17t132.5 37l-52 272l-41 -12
q-94 -23 -123 -23q-100 0 -100 84zM754 905q0 -72 -53.5 -125t-139.5 -53q-92 0 -143 50.5t-51 129.5q0 73 50.5 126.5t139.5 53.5q94 0 145.5 -52t51.5 -130z" />
    <glyph glyph-name="Agrave" unicode="&#xc0;" horiz-adv-x="1355" 
d="M408 0h-414l434 1362h469l465 -1362h-451l-71 242h-359zM653 963l-104 -414h223l-106 414h-13zM543 1894l372 -356l-86 -117q-58 19 -158 61t-175 83q-64 36 -87.5 67t-23.5 74q0 49 45 99t113 89z" />
    <glyph glyph-name="Aacute" unicode="&#xc1;" horiz-adv-x="1355" 
d="M408 0h-414l434 1362h469l465 -1362h-451l-71 242h-359zM653 963l-104 -414h223l-106 414h-13zM438 1540l373 358q67 -38 112.5 -89.5t45.5 -100.5q0 -43 -23.5 -74t-87.5 -67q-76 -41 -176.5 -83.5t-157.5 -60.5z" />
    <glyph glyph-name="Acircumflex" unicode="&#xc2;" horiz-adv-x="1355" 
d="M408 0h-414l434 1362h469l465 -1362h-451l-71 242h-359zM653 963l-104 -414h223l-106 414h-13zM668 1591l-236 -174l-121 113q93 113 203 225q87 90 154 90q65 0 151 -86q130 -130 209 -227l-119 -115z" />
    <glyph glyph-name="Atilde" unicode="&#xc3;" horiz-adv-x="1355" 
d="M408 0h-414l434 1362h469l465 -1362h-451l-71 242h-359zM653 963l-104 -414h223l-106 414h-13zM375 1477l-29 217q87 65 184 65q59 0 154 -27.5t143 -27.5q65 0 138 39l22 -230q-67 -40 -147 -40q-49 0 -154 24.5t-147 24.5q-84 0 -164 -45z" />
    <glyph glyph-name="Adieresis" unicode="&#xc4;" horiz-adv-x="1355" 
d="M408 0h-414l434 1362h469l465 -1362h-451l-71 242h-359zM653 963l-104 -414h223l-106 414h-13zM729 1608q0 70 48.5 118t129.5 48q80 0 129 -48t49 -118q0 -71 -49 -117.5t-129 -46.5q-81 0 -129.5 46.5t-48.5 117.5zM254 1608q0 70 48.5 118t129.5 48q80 0 129 -48
t49 -118q0 -71 -49 -117.5t-129 -46.5q-81 0 -129.5 46.5t-48.5 117.5z" />
    <glyph glyph-name="Aring" unicode="&#xc5;" horiz-adv-x="1355" 
d="M422 1444q0 102 70.5 170.5t175.5 68.5q114 0 179.5 -65.5t65.5 -163.5q0 -50 -18 -94l467 -1360h-451l-71 242h-359l-73 -242h-414l438 1368q-10 29 -10 76zM653 963l-104 -414h223l-106 414h-13zM596 1444q0 -36 18.5 -57t53.5 -21q34 0 52.5 21.5t18.5 56.5
q0 82 -71 82q-72 0 -72 -82z" />
    <glyph glyph-name="AE" unicode="&#xc6;" horiz-adv-x="1736" 
d="M907 0l-82 287h-333l-86 -287h-410l434 1362h1231v-373h-571l36 -110h463v-369h-391l45 -137h432v-373h-768zM659 946l-96 -352h197l-90 352h-11z" />
    <glyph glyph-name="Ccedilla" unicode="&#xc7;" horiz-adv-x="1216" 
d="M725 322q123 0 262 129l213 -275q-115 -102 -225.5 -149.5t-247.5 -51.5l-22 -81q94 -9 152 -60t58 -127q0 -57 -20 -100t-49.5 -67t-71 -38.5t-77 -19t-74.5 -4.5q-120 0 -217 37l45 159q75 -26 139 -26q100 0 100 53q0 22 -16 37t-46.5 21t-58 8t-67.5 2l67 217
q-242 36 -378 211.5t-136 468.5q0 132 25.5 241.5t72 187t106.5 135t134 91t149.5 49.5t157.5 16q171 0 305 -75.5t220 -227.5l-297 -213q-116 164 -238 164q-89 0 -143.5 -86.5t-54.5 -257.5q0 -173 57 -270.5t176 -97.5z" />
    <glyph glyph-name="Egrave" unicode="&#xc8;" horiz-adv-x="1107" 
d="M94 0v1362h940v-373h-514v-110h441v-369h-441v-137h529v-373h-955zM410 1894l372 -356l-86 -117q-59 19 -159 61t-175 83q-64 35 -87 66.5t-23 74.5q0 49 45 99t113 89z" />
    <glyph glyph-name="Eacute" unicode="&#xc9;" horiz-adv-x="1107" 
d="M94 0v1362h940v-373h-514v-110h441v-369h-441v-137h529v-373h-955zM328 1540l372 358q67 -38 112.5 -89.5t45.5 -100.5q0 -43 -23 -74.5t-87 -66.5q-76 -41 -176.5 -83.5t-157.5 -60.5z" />
    <glyph glyph-name="Ecircumflex" unicode="&#xca;" horiz-adv-x="1107" 
d="M94 0v1362h940v-373h-514v-110h441v-369h-441v-137h529v-373h-955zM553 1591l-236 -174l-120 113q99 119 202 225q87 90 154 90q66 0 152 -86q125 -125 208 -227l-118 -115z" />
    <glyph glyph-name="Edieresis" unicode="&#xcb;" horiz-adv-x="1107" 
d="M94 0v1362h940v-373h-514v-110h441v-369h-441v-137h529v-373h-955zM618 1608q0 70 49 118t130 48q80 0 129 -48t49 -118q0 -71 -49 -117.5t-129 -46.5q-81 0 -130 46.5t-49 117.5zM143 1608q0 70 49 118t130 48q80 0 129 -48t49 -118q0 -71 -49 -117.5t-129 -46.5
q-81 0 -130 46.5t-49 117.5z" />
    <glyph glyph-name="Igrave" unicode="&#xcc;" horiz-adv-x="634" 
d="M530 0h-426v1362h426v-1362zM199 1894l372 -356l-86 -117q-58 19 -158 61t-175 83q-64 36 -87.5 67t-23.5 74q0 49 45 99t113 89z" />
    <glyph glyph-name="Iacute" unicode="&#xcd;" horiz-adv-x="634" 
d="M530 0h-426v1362h426v-1362zM80 1540l373 358q67 -38 112 -89.5t45 -100.5q0 -43 -23 -74.5t-87 -66.5q-76 -41 -176.5 -83.5t-157.5 -60.5z" />
    <glyph glyph-name="Icircumflex" unicode="&#xce;" horiz-adv-x="634" 
d="M530 0h-426v1362h426v-1362zM305 1591l-235 -174l-121 113q93 113 203 225q87 90 153 90t152 -86q130 -130 209 -227l-119 -115z" />
    <glyph glyph-name="Idieresis" unicode="&#xcf;" horiz-adv-x="634" 
d="M530 0h-426v1362h426v-1362zM367 1608q0 70 48.5 118t129.5 48q80 0 129 -48t49 -118q0 -71 -49 -117.5t-129 -46.5q-81 0 -129.5 46.5t-48.5 117.5zM-109 1608q0 70 49 118t130 48q80 0 129 -48t49 -118q0 -71 -49 -117.5t-129 -46.5q-81 0 -130 46.5t-49 117.5z" />
    <glyph glyph-name="Eth" unicode="&#xd0;" horiz-adv-x="1359" 
d="M20 557v252h123v553h492q319 0 494.5 -158.5t175.5 -478.5q0 -154 -36 -277.5t-97 -206t-146.5 -138t-180.5 -79.5t-202 -24h-500v557h-123zM541 1055v-246h200v-252h-200v-252h106q124 0 193 98t69 289q0 105 -22.5 179t-64 112.5t-89 55t-108.5 16.5h-84z" />
    <glyph glyph-name="Ntilde" unicode="&#xd1;" horiz-adv-x="1353" 
d="M838 1362h422v-1362h-363l-375 608h-8v-608h-420v1362h377l360 -594h7v594zM381 1477l-29 217q87 65 185 65q59 0 154 -27.5t143 -27.5q64 0 137 39l22 -230q-67 -40 -147 -40q-49 0 -154 24.5t-147 24.5q-84 0 -164 -45z" />
    <glyph glyph-name="Ograve" unicode="&#xd2;" horiz-adv-x="1368" 
d="M1313 678q0 -341 -172 -522t-465 -181q-297 0 -459 179.5t-162 523.5q0 152 39 274.5t102.5 202t149.5 133t176 76t185 22.5q127 0 232.5 -38.5t191 -119.5t134 -221.5t48.5 -328.5zM492 696q0 -372 198 -372q53 0 91 28.5t59 79t30 109.5t9 131q0 63 -8 119.5t-28 114.5
t-61.5 93t-101.5 35q-66 0 -110 -49.5t-61 -122.5t-17 -166zM592 1894l373 -356l-86 -117q-59 19 -159 61t-175 83q-64 36 -87.5 67t-23.5 74q0 49 45 99t113 89z" />
    <glyph glyph-name="Oacute" unicode="&#xd3;" horiz-adv-x="1368" 
d="M1313 678q0 -341 -172 -522t-465 -181q-297 0 -459 179.5t-162 523.5q0 152 39 274.5t102.5 202t149.5 133t176 76t185 22.5q127 0 232.5 -38.5t191 -119.5t134 -221.5t48.5 -328.5zM492 696q0 -372 198 -372q53 0 91 28.5t59 79t30 109.5t9 131q0 63 -8 119.5t-28 114.5
t-61.5 93t-101.5 35q-66 0 -110 -49.5t-61 -122.5t-17 -166zM434 1540l373 358q67 -38 112.5 -89.5t45.5 -100.5q0 -43 -23.5 -74t-87.5 -67q-76 -41 -176.5 -83.5t-157.5 -60.5z" />
    <glyph glyph-name="Ocircumflex" unicode="&#xd4;" horiz-adv-x="1368" 
d="M1313 678q0 -341 -172 -522t-465 -181q-297 0 -459 179.5t-162 523.5q0 152 39 274.5t102.5 202t149.5 133t176 76t185 22.5q127 0 232.5 -38.5t191 -119.5t134 -221.5t48.5 -328.5zM492 696q0 -372 198 -372q53 0 91 28.5t59 79t30 109.5t9 131q0 63 -8 119.5t-28 114.5
t-61.5 93t-101.5 35q-66 0 -110 -49.5t-61 -122.5t-17 -166zM678 1591l-236 -174l-120 113q99 119 202 225q87 90 154 90q65 0 151 -86q130 -130 209 -227l-118 -115z" />
    <glyph glyph-name="Otilde" unicode="&#xd5;" horiz-adv-x="1368" 
d="M1313 678q0 -341 -172 -522t-465 -181q-297 0 -459 179.5t-162 523.5q0 152 39 274.5t102.5 202t149.5 133t176 76t185 22.5q127 0 232.5 -38.5t191 -119.5t134 -221.5t48.5 -328.5zM492 696q0 -372 198 -372q53 0 91 28.5t59 79t30 109.5t9 131q0 63 -8 119.5t-28 114.5
t-61.5 93t-101.5 35q-66 0 -110 -49.5t-61 -122.5t-17 -166zM385 1477l-29 217q87 65 185 65q59 0 154 -27.5t143 -27.5q64 0 137 39l22 -230q-67 -40 -147 -40q-49 0 -154 24.5t-147 24.5q-84 0 -164 -45z" />
    <glyph glyph-name="Odieresis" unicode="&#xd6;" horiz-adv-x="1368" 
d="M1313 678q0 -341 -172 -522t-465 -181q-297 0 -459 179.5t-162 523.5q0 152 39 274.5t102.5 202t149.5 133t176 76t185 22.5q127 0 232.5 -38.5t191 -119.5t134 -221.5t48.5 -328.5zM492 696q0 -372 198 -372q53 0 91 28.5t59 79t30 109.5t9 131q0 63 -8 119.5t-28 114.5
t-61.5 93t-101.5 35q-66 0 -110 -49.5t-61 -122.5t-17 -166zM750 1608q0 70 48.5 118t129.5 48q80 0 129 -48t49 -118q0 -71 -49 -117.5t-129 -46.5q-81 0 -129.5 46.5t-48.5 117.5zM274 1608q0 70 49 118t130 48q80 0 129 -48t49 -118q0 -71 -49 -117.5t-129 -46.5
q-81 0 -130 46.5t-49 117.5z" />
    <glyph glyph-name="multiply" unicode="&#xd7;" 
d="M315 627l-196 198l235 236l199 -197l188 191l232 -234l-189 -190l193 -193l-236 -237l-194 192l-195 -194l-231 233z" />
    <glyph glyph-name="Oslash" unicode="&#xd8;" horiz-adv-x="1366" 
d="M545 -252l-324 117l76 217q-242 175 -242 596q0 152 39 274.5t102.5 202t149.5 133t176 76t185 22.5h34l70 197l328 -113l-68 -192q242 -174 242 -600q0 -341 -172 -522t-465 -181q-35 0 -51 2zM492 696q0 -372 198 -372q53 0 91 28.5t59 79t30 109.5t9 131
q0 63 -8 119.5t-28 114.5t-61.5 93t-101.5 35q-66 0 -110 -49.5t-61 -122.5t-17 -166z" />
    <glyph glyph-name="Ugrave" unicode="&#xd9;" horiz-adv-x="1288" 
d="M84 1362h424v-875q0 -86 37 -121.5t104 -35.5q59 0 95 38t36 109v885h424v-928q0 -210 -155 -334.5t-408 -124.5q-280 0 -418.5 118.5t-138.5 367.5v901zM553 1894l373 -356l-86 -117q-59 19 -159 61t-175 83q-64 36 -87.5 67t-23.5 74q0 49 45 99t113 89z" />
    <glyph glyph-name="Uacute" unicode="&#xda;" horiz-adv-x="1288" 
d="M84 1362h424v-875q0 -86 37 -121.5t104 -35.5q59 0 95 38t36 109v885h424v-928q0 -210 -155 -334.5t-408 -124.5q-280 0 -418.5 118.5t-138.5 367.5v901zM395 1540l373 358q67 -38 112.5 -89.5t45.5 -100.5q0 -43 -23.5 -74t-87.5 -67q-76 -41 -176.5 -83.5t-157.5 -60.5
z" />
    <glyph glyph-name="Ucircumflex" unicode="&#xdb;" horiz-adv-x="1288" 
d="M84 1362h424v-875q0 -86 37 -121.5t104 -35.5q59 0 95 38t36 109v885h424v-928q0 -210 -155 -334.5t-408 -124.5q-280 0 -418.5 118.5t-138.5 367.5v901zM639 1591l-236 -174l-120 113q99 119 202 225q87 90 154 90q66 0 152 -86q125 -125 208 -227l-118 -115z" />
    <glyph glyph-name="Udieresis" unicode="&#xdc;" horiz-adv-x="1288" 
d="M84 1362h424v-875q0 -86 37 -121.5t104 -35.5q59 0 95 38t36 109v885h424v-928q0 -210 -155 -334.5t-408 -124.5q-280 0 -418.5 118.5t-138.5 367.5v901zM700 1608q0 70 49 118t130 48q80 0 129 -48t49 -118q0 -71 -49 -117.5t-129 -46.5q-81 0 -130 46.5t-49 117.5z
M225 1608q0 70 48.5 118t129.5 48q80 0 129.5 -48.5t49.5 -117.5q0 -70 -49.5 -117t-129.5 -47q-81 0 -129.5 46.5t-48.5 117.5z" />
    <glyph glyph-name="Yacute" unicode="&#xdd;" horiz-adv-x="1280" 
d="M858 1362h442l-458 -836v-526h-426v524l-436 838h464l191 -444h8zM381 1540l373 358q67 -38 112 -89.5t45 -100.5q0 -43 -23 -74.5t-87 -66.5q-76 -41 -176.5 -83.5t-157.5 -60.5z" />
    <glyph glyph-name="Thorn" unicode="&#xde;" horiz-adv-x="1177" 
d="M522 233v-233h-428v1362h428v-199h96q253 0 395 -114t142 -328q0 -157 -75 -268.5t-204.5 -165.5t-300.5 -54h-53zM522 563h31q83 0 123.5 28.5t40.5 106.5q0 133 -117 133h-78v-268z" />
    <glyph glyph-name="germandbls" unicode="&#xdf;" horiz-adv-x="1294" 
d="M834 -33q-113 0 -265 35l78 299q98 -37 160 -37q32 0 46.5 11t14.5 36t-21.5 46t-54.5 36.5t-70.5 39.5t-70.5 52t-54.5 78.5t-21.5 114.5q0 63 24.5 122t59 102t69 81.5t59 77.5t24.5 74q0 31 -12.5 50.5t-37 28t-46 11t-53.5 2.5q-158 0 -158 -142v-1515h-412v1509
q0 46 5.5 87t21.5 87.5t42 84.5t70 74t102.5 60.5t143 39t187.5 14.5q260 0 397 -92t137 -248q0 -64 -25 -121t-60.5 -98.5t-71 -78t-60.5 -73.5t-25 -70q0 -31 24 -57.5t59.5 -45.5t77.5 -47.5t77.5 -59.5t59.5 -84.5t24 -120.5q0 -169 -119.5 -266t-324.5 -97z" />
    <glyph glyph-name="agrave" unicode="&#xe0;" horiz-adv-x="1118" 
d="M1030 1004v-766l27 -238h-346l-19 86l-12 2q-81 -123 -238 -123q-93 0 -164 29t-115 77t-72 116.5t-39 140t-11 155.5q0 277 148 443t423 166q74 0 187 -20.5t231 -67.5zM623 332v467q-24 8 -52 8q-44 0 -72.5 -44t-39 -106t-10.5 -139q0 -124 22.5 -191t79.5 -67
q31 0 51.5 21.5t20.5 50.5zM532 1690l269 -441l-113 -94q-48 27 -138 94t-153 127q-75 75 -75 131q0 37 21.5 69.5t56 54.5t67 36t65.5 23z" />
    <glyph glyph-name="aacute" unicode="&#xe1;" horiz-adv-x="1118" 
d="M1030 1004v-766l27 -238h-346l-19 86l-12 2q-81 -123 -238 -123q-93 0 -164 29t-115 77t-72 116.5t-39 140t-11 155.5q0 277 148 443t423 166q74 0 187 -20.5t231 -67.5zM623 332v467q-24 8 -52 8q-44 0 -72.5 -44t-39 -106t-10.5 -139q0 -124 22.5 -191t79.5 -67
q31 0 51.5 21.5t20.5 50.5zM393 1249l266 441q33 -9 65.5 -23t67.5 -36t56.5 -54.5t21.5 -69.5q0 -56 -75 -131q-63 -60 -153 -127t-138 -94z" />
    <glyph glyph-name="acircumflex" unicode="&#xe2;" horiz-adv-x="1118" 
d="M1030 1004v-766l27 -238h-346l-19 86l-12 2q-81 -123 -238 -123q-93 0 -164 29t-115 77t-72 116.5t-39 140t-11 155.5q0 277 148 443t423 166q74 0 187 -20.5t231 -67.5zM623 332v467q-24 8 -52 8q-44 0 -72.5 -44t-39 -106t-10.5 -139q0 -124 22.5 -191t79.5 -67
q31 0 51.5 21.5t20.5 50.5zM332 1153l-127 102q40 61 110 154.5t125 155.5q50 56 77.5 73t74.5 17q50 0 75 -16.5t76 -73.5q114 -128 242 -308l-127 -104l-266 219z" />
    <glyph glyph-name="atilde" unicode="&#xe3;" horiz-adv-x="1118" 
d="M1030 1004v-766l27 -238h-346l-19 86l-12 2q-81 -123 -238 -123q-93 0 -164 29t-115 77t-72 116.5t-39 140t-11 155.5q0 277 148 443t423 166q74 0 187 -20.5t231 -67.5zM623 332v467q-24 8 -52 8q-44 0 -72.5 -44t-39 -106t-10.5 -139q0 -124 22.5 -191t79.5 -67
q31 0 51.5 21.5t20.5 50.5zM315 1249l-26 217q91 68 184 68q59 0 154 -28.5t143 -28.5q66 0 137 41l21 -232q-68 -41 -148 -41q-49 0 -154 24.5t-147 24.5q-84 0 -164 -45z" />
    <glyph glyph-name="adieresis" unicode="&#xe4;" horiz-adv-x="1118" 
d="M1030 1004v-766l27 -238h-346l-19 86l-12 2q-81 -123 -238 -123q-93 0 -164 29t-115 77t-72 116.5t-39 140t-11 155.5q0 277 148 443t423 166q74 0 187 -20.5t231 -67.5zM623 332v467q-24 8 -52 8q-44 0 -72.5 -44t-39 -106t-10.5 -139q0 -124 22.5 -191t79.5 -67
q31 0 51.5 21.5t20.5 50.5zM655 1376q0 70 49 117t130 47q80 0 129 -47.5t49 -116.5q0 -71 -49 -117.5t-129 -46.5q-81 0 -130 46.5t-49 117.5zM199 1376q0 70 48.5 117t129.5 47q80 0 129 -47.5t49 -116.5q0 -71 -49 -117.5t-129 -46.5q-81 0 -129.5 46.5t-48.5 117.5z" />
    <glyph glyph-name="aring" unicode="&#xe5;" horiz-adv-x="1118" 
d="M1030 1004v-766l27 -238h-346l-19 86l-12 2q-81 -123 -238 -123q-93 0 -164 29t-115 77t-72 116.5t-39 140t-11 155.5q0 277 148 443t423 166q74 0 187 -20.5t231 -67.5zM623 332v467q-24 8 -52 8q-44 0 -72.5 -44t-39 -106t-10.5 -139q0 -124 22.5 -191t79.5 -67
q31 0 51.5 21.5t20.5 50.5zM377 1391q0 93 63.5 154t159.5 61q104 0 163.5 -58.5t59.5 -146.5q0 -97 -63 -160t-164 -63q-103 0 -161 60t-58 153zM535 1391q0 -33 16.5 -52.5t48.5 -19.5q31 0 48.5 20t17.5 52q0 71 -66 71q-65 0 -65 -71z" />
    <glyph glyph-name="ae" unicode="&#xe6;" horiz-adv-x="1542" 
d="M1141 1092q175 0 278 -87t103 -260q0 -58 -17.5 -108t-46 -86t-70 -65t-85 -48t-96 -33t-97.5 -21.5t-94 -12.5q6 -45 50.5 -73t111.5 -28q119 0 249 84l103 -270q-109 -73 -264 -103q-75 -14 -150 -14q-256 0 -385 129q-61 -61 -130 -96t-173 -35q-90 0 -159 29t-111 77
t-69 116.5t-37.5 139.5t-10.5 154q0 181 63 317t194 215t316 79q137 0 283 -52q110 52 244 52zM573 807q-45 0 -73.5 -44t-39.5 -106.5t-11 -142.5q0 -122 22 -188t80 -66q50 0 63 43q-20 84 -20 193q0 164 65 297q-58 14 -86 14zM1169 750q0 25 -14 40t-39 15
q-47 0 -82.5 -48t-38.5 -143q78 7 126 48t48 88z" />
    <glyph glyph-name="ccedilla" unicode="&#xe7;" horiz-adv-x="952" 
d="M614 287q49 0 92 17.5t109 60.5l141 -279q-149 -112 -372 -121l-19 -71q94 -9 152.5 -60t58.5 -127q0 -57 -20 -100t-50 -67t-71.5 -38.5t-77 -19t-74.5 -4.5q-120 0 -217 37l45 159q75 -26 140 -26q100 0 100 53q0 22 -16 37t-46.5 21t-58.5 8t-68 2l66 206
q-186 33 -290.5 170t-104.5 367q0 117 29.5 214t79.5 164t118 113t144 67.5t157 21.5q282 0 420 -226l-248 -213q-27 38 -43.5 57.5t-46 38.5t-61.5 19q-68 0 -102 -62.5t-34 -175.5q0 -119 44 -181t124 -62z" />
    <glyph glyph-name="egrave" unicode="&#xe8;" horiz-adv-x="991" 
d="M588 1092q175 0 278 -87t103 -260q0 -68 -22 -123.5t-62.5 -94t-88.5 -67t-108.5 -46.5t-113 -27.5t-111.5 -15.5q12 -47 54.5 -74t107.5 -27q119 0 249 84l105 -270l-46 -27q-171 -90 -372 -90q-137 0 -238.5 38.5t-162.5 110t-90 166t-29 214.5q0 114 34.5 219
t100.5 190t172.5 136t239.5 51zM616 750q0 25 -14 40t-39 15q-47 0 -82 -48t-39 -143q79 7 126.5 47.5t47.5 88.5zM465 1690l268 -441l-112 -94q-48 27 -138 94t-153 127q-76 76 -76 131q0 37 21.5 69.5t56.5 54.5t67.5 36t65.5 23z" />
    <glyph glyph-name="eacute" unicode="&#xe9;" horiz-adv-x="991" 
d="M588 1092q175 0 278 -87t103 -260q0 -68 -22 -123.5t-62.5 -94t-88.5 -67t-108.5 -46.5t-113 -27.5t-111.5 -15.5q12 -47 54.5 -74t107.5 -27q119 0 249 84l105 -270l-46 -27q-171 -90 -372 -90q-137 0 -238.5 38.5t-162.5 110t-90 166t-29 214.5q0 114 34.5 219
t100.5 190t172.5 136t239.5 51zM616 750q0 25 -14 40t-39 15q-47 0 -82 -48t-39 -143q79 7 126.5 47.5t47.5 88.5zM340 1249l266 441q33 -9 65.5 -23t67.5 -36t56.5 -54.5t21.5 -69.5q0 -55 -76 -131q-63 -61 -152.5 -127.5t-137.5 -93.5z" />
    <glyph glyph-name="ecircumflex" unicode="&#xea;" horiz-adv-x="991" 
d="M588 1092q175 0 278 -87t103 -260q0 -68 -22 -123.5t-62.5 -94t-88.5 -67t-108.5 -46.5t-113 -27.5t-111.5 -15.5q12 -47 54.5 -74t107.5 -27q119 0 249 84l105 -270l-46 -27q-171 -90 -372 -90q-137 0 -238.5 38.5t-162.5 110t-90 166t-29 214.5q0 114 34.5 219
t100.5 190t172.5 136t239.5 51zM616 750q0 25 -14 40t-39 15q-47 0 -82 -48t-39 -143q79 7 126.5 47.5t47.5 88.5zM295 1153l-127 102q40 61 110 154.5t125 155.5q50 56 77.5 73t74.5 17q50 0 75.5 -16.5t76.5 -73.5q109 -123 241 -308l-127 -104l-266 219z" />
    <glyph glyph-name="edieresis" unicode="&#xeb;" horiz-adv-x="991" 
d="M588 1092q175 0 278 -87t103 -260q0 -68 -22 -123.5t-62.5 -94t-88.5 -67t-108.5 -46.5t-113 -27.5t-111.5 -15.5q12 -47 54.5 -74t107.5 -27q119 0 249 84l105 -270l-46 -27q-171 -90 -372 -90q-137 0 -238.5 38.5t-162.5 110t-90 166t-29 214.5q0 114 34.5 219
t100.5 190t172.5 136t239.5 51zM616 750q0 25 -14 40t-39 15q-47 0 -82 -48t-39 -143q79 7 126.5 47.5t47.5 88.5zM600 1376q0 70 48.5 117t129.5 47q80 0 129 -47.5t49 -116.5q0 -71 -49 -117.5t-129 -46.5q-81 0 -129.5 46.5t-48.5 117.5zM143 1376q0 70 49 117t130 47
q80 0 129 -47.5t49 -116.5q0 -71 -49 -117.5t-129 -46.5q-81 0 -130 46.5t-49 117.5z" />
    <glyph glyph-name="igrave" unicode="&#xec;" horiz-adv-x="579" 
d="M508 0h-416v1059h416v-1059zM260 1690l268 -441l-112 -94q-48 27 -138 94t-153 127q-76 76 -76 131q0 37 21.5 69.5t56.5 54.5t67.5 36t65.5 23z" />
    <glyph glyph-name="iacute" unicode="&#xed;" horiz-adv-x="579" 
d="M508 0h-416v1059h416v-1059zM53 1249l266 441q33 -9 65.5 -23t67.5 -36t56.5 -54.5t21.5 -69.5q0 -56 -75 -131q-63 -60 -153 -127t-138 -94z" />
    <glyph glyph-name="icircumflex" unicode="&#xee;" horiz-adv-x="579" 
d="M508 0h-416v1059h416v-1059zM27 1153l-127 102q40 61 110 154.5t125 155.5q50 56 77.5 73t74.5 17q50 0 75 -16.5t76 -73.5q114 -128 242 -308l-127 -104l-266 219z" />
    <glyph glyph-name="idieresis" unicode="&#xef;" horiz-adv-x="579" 
d="M508 0h-416v1059h416v-1059zM338 1376q0 70 48.5 117t129.5 47q80 0 129 -47.5t49 -116.5q0 -71 -49 -117.5t-129 -46.5q-81 0 -129.5 46.5t-48.5 117.5zM-119 1376q0 70 48.5 117t129.5 47q80 0 129.5 -47.5t49.5 -116.5q0 -70 -49.5 -117t-129.5 -47q-81 0 -129.5 46.5
t-48.5 117.5z" />
    <glyph glyph-name="eth" unicode="&#xf0;" horiz-adv-x="1073" 
d="M662 1354l188 135l158 -225l-136 -93q160 -227 160 -575q0 -297 -123 -464t-374 -167q-239 0 -366.5 119t-127.5 350q0 217 109.5 346t285.5 129q54 0 113 -15t94 -38l12 6q-58 263 -469 322l90 291q222 -23 386 -121zM438 430q0 -92 23.5 -133t73.5 -41q52 0 77 61.5
t25 190.5v100q-53 21 -90 21q-109 0 -109 -199z" />
    <glyph glyph-name="ntilde" unicode="&#xf1;" horiz-adv-x="1114" 
d="M502 0h-410v827l-29 232h340l23 -96q98 129 287 129q154 0 240.5 -89.5t86.5 -275.5v-727h-413v664q0 61 -9 86.5t-40 25.5q-76 0 -76 -112v-664zM274 1249l-26 217q91 68 184 68q59 0 154 -28.5t143 -28.5q66 0 137 41l21 -232q-68 -41 -148 -41q-49 0 -154 24.5
t-147 24.5q-84 0 -164 -45z" />
    <glyph glyph-name="ograve" unicode="&#xf2;" horiz-adv-x="1093" 
d="M551 264q47 0 66.5 58t19.5 202q0 150 -19 212.5t-69 62.5q-84 0 -84 -238q0 -148 16.5 -222.5t69.5 -74.5zM41 516q0 125 32.5 225.5t84.5 164.5t121.5 107t140 61t143.5 18q42 0 81.5 -4t91.5 -18t95.5 -36.5t87.5 -64t75 -96.5t50 -137t19 -183q0 -139 -41 -251
t-113 -184.5t-167.5 -111.5t-206.5 -39q-233 0 -363.5 138t-130.5 411zM514 1690l268 -441l-112 -94q-48 27 -138 94t-153 127q-76 76 -76 131q0 37 21.5 69.5t56.5 54.5t67.5 36t65.5 23z" />
    <glyph glyph-name="oacute" unicode="&#xf3;" horiz-adv-x="1093" 
d="M551 264q47 0 66.5 58t19.5 202q0 150 -19 212.5t-69 62.5q-84 0 -84 -238q0 -148 16.5 -222.5t69.5 -74.5zM41 516q0 125 32.5 225.5t84.5 164.5t121.5 107t140 61t143.5 18q42 0 81.5 -4t91.5 -18t95.5 -36.5t87.5 -64t75 -96.5t50 -137t19 -183q0 -139 -41 -251
t-113 -184.5t-167.5 -111.5t-206.5 -39q-233 0 -363.5 138t-130.5 411zM373 1249l266 441q33 -9 65.5 -23t67.5 -36t56.5 -54.5t21.5 -69.5q0 -55 -76 -131q-63 -60 -153 -127t-138 -94z" />
    <glyph glyph-name="ocircumflex" unicode="&#xf4;" horiz-adv-x="1093" 
d="M551 264q47 0 66.5 58t19.5 202q0 150 -19 212.5t-69 62.5q-84 0 -84 -238q0 -148 16.5 -222.5t69.5 -74.5zM41 516q0 125 32.5 225.5t84.5 164.5t121.5 107t140 61t143.5 18q42 0 81.5 -4t91.5 -18t95.5 -36.5t87.5 -64t75 -96.5t50 -137t19 -183q0 -139 -41 -251
t-113 -184.5t-167.5 -111.5t-206.5 -39q-233 0 -363.5 138t-130.5 411zM311 1153l-127 102q39 60 109.5 153.5t126.5 156.5q50 56 77 73t74 17q50 0 75.5 -16.5t76.5 -73.5q114 -128 242 -308l-127 -104l-267 219z" />
    <glyph glyph-name="otilde" unicode="&#xf5;" horiz-adv-x="1093" 
d="M551 264q47 0 66.5 58t19.5 202q0 150 -19 212.5t-69 62.5q-84 0 -84 -238q0 -148 16.5 -222.5t69.5 -74.5zM41 516q0 125 32.5 225.5t84.5 164.5t121.5 107t140 61t143.5 18q42 0 81.5 -4t91.5 -18t95.5 -36.5t87.5 -64t75 -96.5t50 -137t19 -183q0 -139 -41 -251
t-113 -184.5t-167.5 -111.5t-206.5 -39q-233 0 -363.5 138t-130.5 411zM268 1249l-26 217q91 68 184 68q59 0 154 -28.5t143 -28.5q66 0 137 41l21 -232q-68 -41 -148 -41q-49 0 -154 24.5t-147 24.5q-84 0 -164 -45z" />
    <glyph glyph-name="odieresis" unicode="&#xf6;" horiz-adv-x="1093" 
d="M551 264q47 0 66.5 58t19.5 202q0 150 -19 212.5t-69 62.5q-84 0 -84 -238q0 -148 16.5 -222.5t69.5 -74.5zM41 516q0 125 32.5 225.5t84.5 164.5t121.5 107t140 61t143.5 18q42 0 81.5 -4t91.5 -18t95.5 -36.5t87.5 -64t75 -96.5t50 -137t19 -183q0 -139 -41 -251
t-113 -184.5t-167.5 -111.5t-206.5 -39q-233 0 -363.5 138t-130.5 411zM606 1376q0 70 48.5 117t129.5 47q80 0 129.5 -47.5t49.5 -116.5q0 -70 -49.5 -117t-129.5 -47q-81 0 -129.5 46.5t-48.5 117.5zM150 1376q0 70 48.5 117t129.5 47q80 0 129 -47.5t49 -116.5
q0 -71 -49 -117.5t-129 -46.5q-81 0 -129.5 46.5t-48.5 117.5z" />
    <glyph glyph-name="divide" unicode="&#xf7;" 
d="M381 217q0 73 44 126.5t124 53.5t125 -49.5t45 -128.5q0 -76 -47.5 -128t-124.5 -52q-79 0 -122.5 49.5t-43.5 128.5zM381 1055q0 72 44 125t124 53t125 -49.5t45 -126.5t-47.5 -130t-124.5 -53q-79 0 -122.5 50t-43.5 131zM963 791v-328h-830v328h830z" />
    <glyph glyph-name="oslash" unicode="&#xf8;" horiz-adv-x="1093" 
d="M434 -250l-323 117l82 215q-152 143 -152 434q0 123 31.5 222.5t82.5 163.5t119 107.5t137.5 62.5t141.5 20l80 208l328 -112l-74 -191q176 -136 176 -444q0 -139 -41 -251t-113 -184.5t-167.5 -111.5t-206.5 -39h-17zM551 264q47 0 66.5 58t19.5 202q0 150 -19 212.5
t-69 62.5q-84 0 -84 -238q0 -148 16.5 -222.5t69.5 -74.5z" />
    <glyph glyph-name="ugrave" unicode="&#xf9;" horiz-adv-x="1122" 
d="M621 1059h413v-842l25 -217h-346l-15 84h-12q-88 -111 -246 -111q-356 0 -356 381v705h414v-660q0 -62 10 -88t45 -26q31 0 49.5 27.5t18.5 70.5v676zM539 1690l268 -441l-113 -94q-48 27 -138 94t-153 127q-75 75 -75 131q0 37 21.5 69.5t56.5 54.5t67.5 36t65.5 23z
" />
    <glyph glyph-name="uacute" unicode="&#xfa;" horiz-adv-x="1122" 
d="M621 1059h413v-842l25 -217h-346l-15 84h-12q-88 -111 -246 -111q-356 0 -356 381v705h414v-660q0 -62 10 -88t45 -26q31 0 49.5 27.5t18.5 70.5v676zM332 1249l266 441q33 -9 65.5 -23t67.5 -36t56.5 -54.5t21.5 -69.5q0 -55 -76 -131q-63 -60 -153 -127t-138 -94z" />
    <glyph glyph-name="ucircumflex" unicode="&#xfb;" horiz-adv-x="1122" 
d="M621 1059h413v-842l25 -217h-346l-15 84h-12q-88 -111 -246 -111q-356 0 -356 381v705h414v-660q0 -62 10 -88t45 -26q31 0 49.5 27.5t18.5 70.5v676zM305 1153l-127 102q39 60 109.5 153.5t126.5 156.5q50 56 77 73t74 17q50 0 75.5 -16.5t76.5 -73.5q109 -123 241 -308
l-127 -104l-266 219z" />
    <glyph glyph-name="udieresis" unicode="&#xfc;" horiz-adv-x="1122" 
d="M621 1059h413v-842l25 -217h-346l-15 84h-12q-88 -111 -246 -111q-356 0 -356 381v705h414v-660q0 -62 10 -88t45 -26q31 0 49.5 27.5t18.5 70.5v676zM616 1376q0 70 49 117t130 47q80 0 129 -47.5t49 -116.5q0 -71 -49 -117.5t-129 -46.5q-81 0 -130 46.5t-49 117.5z
M160 1376q0 70 48.5 117t129.5 47q80 0 129 -47.5t49 -116.5q0 -71 -49 -117.5t-129 -46.5q-81 0 -129.5 46.5t-48.5 117.5z" />
    <glyph glyph-name="yacute" unicode="&#xfd;" horiz-adv-x="1107" 
d="M1036 303q0 -230 -2 -287q-12 -274 -144 -417.5t-382 -143.5q-180 0 -276.5 78t-96.5 215q0 199 193 346q-130 28 -187 108t-57 216v641h414v-633q0 -58 10.5 -82.5t46.5 -24.5q24 0 45 27.5t21 73.5v639h415v-756zM489 -172q0 -80 68 -80q41 0 57.5 29.5t16.5 97.5v205
q-53 -41 -97.5 -107.5t-44.5 -144.5zM356 1249l267 441q33 -9 65.5 -23t67.5 -36t56.5 -54.5t21.5 -69.5q0 -55 -76 -131q-63 -60 -153 -127t-138 -94z" />
    <glyph glyph-name="thorn" unicode="&#xfe;" 
d="M487 -25v-405h-413v1853h413v-356q98 25 175 25q197 0 304 -145t107 -412q0 -273 -127 -420.5t-350 -147.5q-70 0 -109 8zM657 522q0 132 -27 199t-98 67q-25 0 -45 -4v-508q32 -12 58 -12q36 0 60 23t34.5 65.5t14 81t3.5 88.5z" />
    <glyph glyph-name="ydieresis" unicode="&#xff;" horiz-adv-x="1107" 
d="M1036 303q0 -230 -2 -287q-12 -274 -144 -417.5t-382 -143.5q-180 0 -276.5 78t-96.5 215q0 199 193 346q-130 28 -187 108t-57 216v641h414v-633q0 -58 10.5 -82.5t46.5 -24.5q24 0 45 27.5t21 73.5v639h415v-756zM489 -172q0 -80 68 -80q41 0 57.5 29.5t16.5 97.5v205
q-53 -41 -97.5 -107.5t-44.5 -144.5zM610 1376q0 70 48.5 117t129.5 47q80 0 129.5 -47.5t49.5 -116.5q0 -70 -49.5 -117t-129.5 -47q-81 0 -129.5 46.5t-48.5 117.5zM154 1376q0 70 48.5 117t129.5 47q80 0 129 -47.5t49 -116.5q0 -71 -49 -117.5t-129 -46.5
q-81 0 -129.5 46.5t-48.5 117.5z" />
    <glyph glyph-name="Amacron" unicode="&#x100;" horiz-adv-x="1355" 
d="M408 0h-414l434 1362h469l465 -1362h-451l-71 242h-359zM653 963l-104 -414h223l-106 414h-13zM324 1473v268h696v-268h-696z" />
    <glyph glyph-name="amacron" unicode="&#x101;" horiz-adv-x="1118" 
d="M1030 1004v-766l27 -238h-346l-19 86l-12 2q-81 -123 -238 -123q-93 0 -164 29t-115 77t-72 116.5t-39 140t-11 155.5q0 277 148 443t423 166q74 0 187 -20.5t231 -67.5zM623 332v467q-24 8 -52 8q-44 0 -72.5 -44t-39 -106t-10.5 -139q0 -124 22.5 -191t79.5 -67
q31 0 51.5 21.5t20.5 50.5zM260 1241v266h696v-266h-696z" />
    <glyph glyph-name="Abreve" unicode="&#x102;" horiz-adv-x="1355" 
d="M408 0h-414l434 1362h469l465 -1362h-451l-71 242h-359zM653 963l-104 -414h223l-106 414h-13zM854 1864l211 -99q-16 -40 -36 -76t-54.5 -77t-75.5 -70.5t-101.5 -49t-129.5 -19.5q-73 0 -135.5 20t-104.5 50t-75.5 70.5t-51.5 75.5t-29 70l217 105q36 -78 77 -118
t110 -40q65 0 101 36t77 122z" />
    <glyph glyph-name="abreve" unicode="&#x103;" horiz-adv-x="1118" 
d="M1030 1004v-766l27 -238h-346l-19 86l-12 2q-81 -123 -238 -123q-93 0 -164 29t-115 77t-72 116.5t-39 140t-11 155.5q0 277 148 443t423 166q74 0 187 -20.5t231 -67.5zM623 332v467q-24 8 -52 8q-44 0 -72.5 -44t-39 -106t-10.5 -139q0 -124 22.5 -191t79.5 -67
q31 0 51.5 21.5t20.5 50.5zM788 1585l203 -57q-20 -68 -50 -123.5t-75.5 -104.5t-113.5 -76.5t-152 -27.5q-73 0 -134.5 20.5t-102.5 52.5t-73.5 77.5t-50.5 89t-30 92.5l211 57q36 -86 76.5 -120.5t111.5 -34.5q64 0 104 35.5t76 119.5z" />
    <glyph glyph-name="Aogonek" unicode="&#x104;" horiz-adv-x="1355" 
d="M408 0h-414l434 1362h469l465 -1362q-103 -40 -162 -106.5t-59 -122.5q0 -64 67 -64q47 0 97 23l67 -197q-35 -21 -96.5 -35t-126.5 -14q-136 0 -203 61.5t-67 155.5q0 49 17 97.5t44.5 88t51 65.5t48.5 48h-129l-71 242h-359zM653 963l-104 -414h223l-106 414h-13z" />
    <glyph glyph-name="aogonek" unicode="&#x105;" horiz-adv-x="1118" 
d="M1030 1004v-766l27 -238q-65 -43 -112.5 -110.5t-47.5 -118.5q0 -64 68 -64q46 0 96 23l67 -197q-35 -21 -96.5 -35t-126.5 -14q-136 0 -203 61.5t-67 155.5q0 49 17 97.5t45 88t51.5 65.5t48.5 48h-86l-19 86l-12 2q-81 -123 -238 -123q-93 0 -164 29t-115 77t-72 116.5
t-39 140t-11 155.5q0 277 148 443t423 166q74 0 187 -20.5t231 -67.5zM623 332v467q-24 8 -52 8q-44 0 -72.5 -44t-39 -106t-10.5 -139q0 -124 22.5 -191t79.5 -67q31 0 51.5 21.5t20.5 50.5z" />
    <glyph glyph-name="Cacute" unicode="&#x106;" horiz-adv-x="1218" 
d="M725 322q123 0 262 129l213 -275q-120 -107 -236 -154t-264 -47q-300 0 -472.5 179.5t-172.5 511.5q0 132 25.5 241.5t72 187t106.5 135t134 91t149.5 49.5t157.5 16q171 0 305 -75.5t220 -227.5l-297 -213q-116 164 -238 164q-89 0 -143.5 -86.5t-54.5 -257.5
q0 -173 57 -270.5t176 -97.5zM457 1540l372 358q67 -38 112.5 -89.5t45.5 -100.5q0 -43 -23 -74.5t-87 -66.5q-76 -41 -176.5 -83.5t-157.5 -60.5z" />
    <glyph glyph-name="cacute" unicode="&#x107;" horiz-adv-x="978" 
d="M623 287q49 0 91.5 17t108.5 61l142 -279q-161 -121 -406 -121q-239 0 -378.5 140.5t-139.5 406.5q0 117 29.5 214t79.5 164t118 113t144 67.5t157 21.5q282 0 420 -226l-248 -213q-27 38 -43.5 57.5t-46 38.5t-61.5 19q-67 0 -101 -62.5t-34 -175.5q0 -119 44 -181
t124 -62zM360 1249l267 441q33 -9 65.5 -23t67.5 -36t56.5 -54.5t21.5 -69.5q0 -55 -76 -131q-63 -60 -153 -127t-138 -94z" />
    <glyph glyph-name="Ccircumflex" unicode="&#x108;" horiz-adv-x="1218" 
d="M725 322q123 0 262 129l213 -275q-120 -107 -236 -154t-264 -47q-300 0 -472.5 179.5t-172.5 511.5q0 132 25.5 241.5t72 187t106.5 135t134 91t149.5 49.5t157.5 16q171 0 305 -75.5t220 -227.5l-297 -213q-116 164 -238 164q-89 0 -143.5 -86.5t-54.5 -257.5
q0 -173 57 -270.5t176 -97.5zM715 1591l-236 -174l-121 113q93 113 203 225q87 90 154 90q65 0 151 -86q130 -130 209 -227l-119 -115z" />
    <glyph glyph-name="ccircumflex" unicode="&#x109;" horiz-adv-x="978" 
d="M623 287q49 0 91.5 17t108.5 61l142 -279q-161 -121 -406 -121q-239 0 -378.5 140.5t-139.5 406.5q0 117 29.5 214t79.5 164t118 113t144 67.5t157 21.5q282 0 420 -226l-248 -213q-27 38 -43.5 57.5t-46 38.5t-61.5 19q-67 0 -101 -62.5t-34 -175.5q0 -119 44 -181
t124 -62zM297 1153l-127 102q39 60 109.5 153.5t126.5 156.5q50 56 77 73t74 17q50 0 75.5 -16.5t76.5 -73.5q109 -123 241 -308l-127 -104l-266 219z" />
    <glyph glyph-name="Cdotaccent" unicode="&#x10a;" horiz-adv-x="1218" 
d="M725 322q123 0 262 129l213 -275q-120 -107 -236 -154t-264 -47q-300 0 -472.5 179.5t-172.5 511.5q0 132 25.5 241.5t72 187t106.5 135t134 91t149.5 49.5t157.5 16q171 0 305 -75.5t220 -227.5l-297 -213q-116 164 -238 164q-89 0 -143.5 -86.5t-54.5 -257.5
q0 -173 57 -270.5t176 -97.5zM485 1655q0 82 57.5 139t151.5 57t153.5 -57t59.5 -139q0 -84 -58.5 -139.5t-152.5 -55.5q-96 0 -153.5 55t-57.5 140z" />
    <glyph glyph-name="cdotaccent" unicode="&#x10b;" horiz-adv-x="978" 
d="M623 287q49 0 91.5 17t108.5 61l142 -279q-161 -121 -406 -121q-239 0 -378.5 140.5t-139.5 406.5q0 117 29.5 214t79.5 164t118 113t144 67.5t157 21.5q282 0 420 -226l-248 -213q-27 38 -43.5 57.5t-46 38.5t-61.5 19q-67 0 -101 -62.5t-34 -175.5q0 -119 44 -181
t124 -62zM352 1362q0 82 57.5 139.5t151.5 57.5t153.5 -57.5t59.5 -139.5q0 -84 -58.5 -139.5t-152.5 -55.5q-96 0 -153.5 55t-57.5 140z" />
    <glyph glyph-name="Ccaron" unicode="&#x10c;" horiz-adv-x="1218" 
d="M725 322q123 0 262 129l213 -275q-120 -107 -236 -154t-264 -47q-300 0 -472.5 179.5t-172.5 511.5q0 132 25.5 241.5t72 187t106.5 135t134 91t149.5 49.5t157.5 16q171 0 305 -75.5t220 -227.5l-297 -213q-116 164 -238 164q-89 0 -143.5 -86.5t-54.5 -257.5
q0 -173 57 -270.5t176 -97.5zM457 1845l235 -174l242 174l119 -114q-83 -102 -209 -228q-86 -86 -152 -86t-153 90q-104 107 -203 226z" />
    <glyph glyph-name="ccaron" unicode="&#x10d;" horiz-adv-x="978" 
d="M623 287q49 0 91.5 17t108.5 61l142 -279q-161 -121 -406 -121q-239 0 -378.5 140.5t-139.5 406.5q0 117 29.5 214t79.5 164t118 113t144 67.5t157 21.5q282 0 420 -226l-248 -213q-27 38 -43.5 57.5t-46 38.5t-61.5 19q-67 0 -101 -62.5t-34 -175.5q0 -119 44 -181
t124 -62zM821 1655l129 -103q-39 -60 -109 -153t-126 -156q-50 -56 -77.5 -73t-74.5 -17q-51 0 -77.5 16.5t-75.5 73.5q-131 151 -242 307l129 105l266 -219z" />
    <glyph glyph-name="Dcaron" unicode="&#x10e;" horiz-adv-x="1327" 
d="M94 0v1362h502q323 0 499.5 -157.5t176.5 -479.5q0 -154 -36.5 -277.5t-98.5 -206t-148.5 -138t-182.5 -79.5t-204 -24h-508zM520 1032v-704h86q115 0 177.5 91t62.5 273q0 340 -260 340h-66zM334 1845l235 -174l242 174l119 -114q-83 -102 -209 -228q-86 -86 -152 -86
t-153 90q-104 107 -203 226z" />
    <glyph glyph-name="dcaron" unicode="&#x10f;" horiz-adv-x="1343" 
d="M569 1092q17 0 36 -1t20 -1v333h407v-1185l27 -238h-342l-23 88h-12q-21 -47 -83 -85t-146 -38q-75 0 -136 16.5t-103 44t-74 68.5t-50.5 83.5t-29.5 95t-15 98.5t-4 98q0 181 59 320t179.5 221t289.5 82zM625 332v469q-38 6 -67 -3.5t-47.5 -32.5t-31 -51.5t-18.5 -67.5
t-8 -72.5t-2 -73.5q0 -55 4.5 -96t15 -75t30.5 -51.5t48 -17.5q31 0 53.5 22.5t22.5 49.5zM1122 1407v-477l146 -31q40 79 88.5 209.5t48.5 200.5q0 114 -150 114q-55 0 -133 -16z" />
    <glyph glyph-name="Dcroat" unicode="&#x110;" horiz-adv-x="1359" 
d="M20 557v252h123v553h492q319 0 494.5 -158.5t175.5 -478.5q0 -154 -36 -277.5t-97 -206t-146.5 -138t-180.5 -79.5t-202 -24h-500v557h-123zM541 1055v-246h200v-252h-200v-252h106q124 0 193 98t69 289q0 105 -22.5 179t-64 112.5t-89 55t-108.5 16.5h-84z" />
    <glyph glyph-name="dcroat" unicode="&#x111;" horiz-adv-x="1126" 
d="M569 1030q17 0 36 -1t20 -1v68h-236v245h236v82h407v-82h94v-245h-94v-858l27 -238h-342l-23 88h-12q-22 -48 -86 -85.5t-156 -37.5q-97 0 -171 32.5t-116 81.5t-68.5 117.5t-35 129.5t-8.5 129q0 272 136 423.5t392 151.5zM625 332v407q-45 7 -78 -4t-51 -32.5
t-28.5 -59t-13.5 -73t-3 -83.5q0 -112 21.5 -169.5t76.5 -57.5q31 0 53.5 22.5t22.5 49.5z" />
    <glyph glyph-name="Emacron" unicode="&#x112;" horiz-adv-x="1107" 
d="M94 0v1362h940v-373h-514v-110h441v-369h-441v-137h529v-373h-955zM201 1473v268h696v-268h-696z" />
    <glyph glyph-name="emacron" unicode="&#x113;" horiz-adv-x="991" 
d="M588 1092q175 0 278 -87t103 -260q0 -68 -22 -123.5t-62.5 -94t-88.5 -67t-108.5 -46.5t-113 -27.5t-111.5 -15.5q12 -47 54.5 -74t107.5 -27q119 0 249 84l105 -270l-46 -27q-171 -90 -372 -90q-137 0 -238.5 38.5t-162.5 110t-90 166t-29 214.5q0 114 34.5 219
t100.5 190t172.5 136t239.5 51zM616 750q0 25 -14 40t-39 15q-47 0 -82 -48t-39 -143q79 7 126.5 47.5t47.5 88.5zM215 1241v266h696v-266h-696z" />
    <glyph glyph-name="Ebreve" unicode="&#x114;" horiz-adv-x="1107" 
d="M94 0v1362h940v-373h-514v-110h441v-369h-441v-137h529v-373h-955zM750 1864l211 -99q-16 -40 -36 -76t-55 -77t-76 -70.5t-101.5 -49t-129.5 -19.5q-90 0 -163 29t-118.5 76t-72.5 91.5t-41 89.5l217 105q36 -78 76.5 -118t109.5 -40q65 0 102 36t77 122z" />
    <glyph glyph-name="ebreve" unicode="&#x115;" horiz-adv-x="991" 
d="M588 1092q175 0 278 -87t103 -260q0 -68 -22 -123.5t-62.5 -94t-88.5 -67t-108.5 -46.5t-113 -27.5t-111.5 -15.5q12 -47 54.5 -74t107.5 -27q119 0 249 84l105 -270l-46 -27q-171 -90 -372 -90q-137 0 -238.5 38.5t-162.5 110t-90 166t-29 214.5q0 114 34.5 219
t100.5 190t172.5 136t239.5 51zM616 750q0 25 -14 40t-39 15q-47 0 -82 -48t-39 -143q79 7 126.5 47.5t47.5 88.5zM754 1585l202 -57q-20 -68 -50 -123.5t-75.5 -104.5t-113.5 -76.5t-152 -27.5q-73 0 -134.5 20.5t-102.5 52.5t-73.5 77.5t-50.5 89t-30 92.5l211 57
q36 -86 76.5 -120.5t111.5 -34.5q64 0 104.5 35.5t76.5 119.5z" />
    <glyph glyph-name="Edotaccent" unicode="&#x116;" horiz-adv-x="1107" 
d="M94 0v1362h940v-373h-514v-110h441v-369h-441v-137h529v-373h-955zM358 1655q0 82 57.5 139t151.5 57t153.5 -57t59.5 -139q0 -84 -58.5 -139.5t-152.5 -55.5q-96 0 -153.5 55t-57.5 140z" />
    <glyph glyph-name="edotaccent" unicode="&#x117;" horiz-adv-x="991" 
d="M588 1092q175 0 278 -87t103 -260q0 -68 -22 -123.5t-62.5 -94t-88.5 -67t-108.5 -46.5t-113 -27.5t-111.5 -15.5q12 -47 54.5 -74t107.5 -27q119 0 249 84l105 -270l-46 -27q-171 -90 -372 -90q-137 0 -238.5 38.5t-162.5 110t-90 166t-29 214.5q0 114 34.5 219
t100.5 190t172.5 136t239.5 51zM616 750q0 25 -14 40t-39 15q-47 0 -82 -48t-39 -143q79 7 126.5 47.5t47.5 88.5zM358 1362q0 82 57.5 139.5t151.5 57.5t153.5 -57.5t59.5 -139.5q0 -84 -58.5 -139.5t-152.5 -55.5q-96 0 -153.5 55t-57.5 140z" />
    <glyph glyph-name="Eogonek" unicode="&#x118;" horiz-adv-x="1107" 
d="M94 0v1362h940v-373h-514v-110h441v-369h-441v-137h529v-373q-121 -41 -182.5 -103t-61.5 -126t67 -64q47 0 97 23l67 -197q-35 -21 -96.5 -35t-126.5 -14q-136 0 -203 61.5t-67 155.5q0 95 54.5 170.5t133.5 128.5h-637z" />
    <glyph glyph-name="eogonek" unicode="&#x119;" horiz-adv-x="991" 
d="M807 -10q-61 -34 -108.5 -96t-47.5 -117q0 -70 68 -70q46 0 96 23l68 -197q-35 -21 -96.5 -35t-127.5 -14q-136 0 -203 61.5t-67 155.5q0 134 129 268q-246 12 -361.5 151.5t-115.5 375.5q0 114 34.5 219t100.5 190t172.5 136t239.5 51q175 0 278 -87t103 -260
q0 -68 -22 -123.5t-62.5 -94t-88.5 -67t-108.5 -46.5t-113 -27.5t-111.5 -15.5q12 -47 54.5 -74t107.5 -27q119 0 249 84l105 -270q3 0 -172 -94zM616 750q0 25 -14 40t-39 15q-47 0 -82 -48t-39 -143q79 7 126.5 47.5t47.5 88.5z" />
    <glyph glyph-name="Ecaron" unicode="&#x11a;" horiz-adv-x="1107" 
d="M94 0v1362h940v-373h-514v-110h441v-369h-441v-137h529v-373h-955zM309 1845l236 -174l241 174l119 -114q-83 -102 -209 -228q-86 -86 -151 -86q-67 0 -154 90q-104 107 -203 226z" />
    <glyph glyph-name="ecaron" unicode="&#x11b;" horiz-adv-x="991" 
d="M588 1092q175 0 278 -87t103 -260q0 -68 -22 -123.5t-62.5 -94t-88.5 -67t-108.5 -46.5t-113 -27.5t-111.5 -15.5q12 -47 54.5 -74t107.5 -27q119 0 249 84l105 -270l-46 -27q-171 -90 -372 -90q-137 0 -238.5 38.5t-162.5 110t-90 166t-29 214.5q0 114 34.5 219
t100.5 190t172.5 136t239.5 51zM616 750q0 25 -14 40t-39 15q-47 0 -82 -48t-39 -143q79 7 126.5 47.5t47.5 88.5zM840 1655l129 -103q-39 -59 -109.5 -152.5t-126.5 -156.5q-50 -56 -77 -73t-74 -17q-51 0 -78 17t-76 73q-131 151 -242 307l129 105l267 -219z" />
    <glyph glyph-name="Gcircumflex" unicode="&#x11c;" horiz-adv-x="1308" 
d="M1231 692v-571q-89 -65 -230 -105.5t-299 -40.5q-303 0 -475 178.5t-172 524.5q0 111 20 206t54.5 166.5t83.5 128.5t105 95.5t120.5 64t128.5 36.5t131 11q371 0 539 -290l-307 -219q-65 88 -120.5 121.5t-115.5 33.5q-94 0 -148 -83.5t-54 -248.5q0 -385 225 -385
q56 0 125 17v360h389zM709 1591l-236 -174l-121 113q93 113 203 225q87 90 154 90q65 0 151 -86q130 -130 209 -227l-119 -115z" />
    <glyph glyph-name="gcircumflex" unicode="&#x11d;" horiz-adv-x="1099" 
d="M514 -543q-189 0 -288 78.5t-99 214.5q0 210 203 367q-128 23 -214.5 138.5t-86.5 291.5q0 173 72 297.5t197.5 186t291.5 61.5q103 0 226.5 -21t209.5 -57v-817q0 -157 -6 -222q-18 -249 -144 -383.5t-362 -134.5zM614 414v387q-50 7 -86 -12.5t-53.5 -59.5t-25 -84
t-7.5 -98q0 -40 2 -70.5t7.5 -63t16 -53t28.5 -34t43 -13.5q32 0 53.5 25t21.5 76zM481 -172q0 -80 68 -80q42 0 58 31.5t16 111.5v189q-53 -41 -97.5 -107.5t-44.5 -144.5zM311 1153l-127 102q39 60 109.5 153.5t126.5 156.5q50 56 77 73t74 17q50 0 75.5 -16.5t76.5 -73.5
q114 -128 242 -308l-127 -104l-267 219z" />
    <glyph glyph-name="Gbreve" unicode="&#x11e;" horiz-adv-x="1308" 
d="M1231 692v-571q-89 -65 -230 -105.5t-299 -40.5q-303 0 -475 178.5t-172 524.5q0 111 20 206t54.5 166.5t83.5 128.5t105 95.5t120.5 64t128.5 36.5t131 11q371 0 539 -290l-307 -219q-65 88 -120.5 121.5t-115.5 33.5q-94 0 -148 -83.5t-54 -248.5q0 -385 225 -385
q56 0 125 17v360h389zM879 1864l211 -99q-16 -40 -36 -76t-55 -77t-76 -70.5t-101.5 -49t-129.5 -19.5q-90 0 -163 29t-118.5 76t-72.5 91.5t-41 89.5l217 105q36 -78 76.5 -118t109.5 -40q65 0 102 36t77 122z" />
    <glyph glyph-name="gbreve" unicode="&#x11f;" horiz-adv-x="1099" 
d="M514 -543q-189 0 -288 78.5t-99 214.5q0 210 203 367q-128 23 -214.5 138.5t-86.5 291.5q0 173 72 297.5t197.5 186t291.5 61.5q103 0 226.5 -21t209.5 -57v-817q0 -157 -6 -222q-18 -249 -144 -383.5t-362 -134.5zM614 414v387q-50 7 -86 -12.5t-53.5 -59.5t-25 -84
t-7.5 -98q0 -40 2 -70.5t7.5 -63t16 -53t28.5 -34t43 -13.5q32 0 53.5 25t21.5 76zM481 -172q0 -80 68 -80q42 0 58 31.5t16 111.5v189q-53 -41 -97.5 -107.5t-44.5 -144.5zM772 1585l203 -57q-20 -68 -50 -123.5t-75.5 -104.5t-113.5 -76.5t-152 -27.5q-73 0 -134.5 20.5
t-102.5 52.5t-73.5 77.5t-50.5 89t-30 92.5l210 57q36 -86 77 -120.5t112 -34.5q64 0 104 35.5t76 119.5z" />
    <glyph glyph-name="Gdotaccent" unicode="&#x120;" horiz-adv-x="1308" 
d="M1231 692v-571q-89 -65 -230 -105.5t-299 -40.5q-303 0 -475 178.5t-172 524.5q0 111 20 206t54.5 166.5t83.5 128.5t105 95.5t120.5 64t128.5 36.5t131 11q371 0 539 -290l-307 -219q-65 88 -120.5 121.5t-115.5 33.5q-94 0 -148 -83.5t-54 -248.5q0 -385 225 -385
q56 0 125 17v360h389zM489 1655q0 82 57.5 139t151.5 57t153.5 -57t59.5 -139q0 -84 -58.5 -139.5t-152.5 -55.5q-96 0 -153.5 55t-57.5 140z" />
    <glyph glyph-name="gdotaccent" unicode="&#x121;" horiz-adv-x="1099" 
d="M514 -543q-189 0 -288 78.5t-99 214.5q0 210 203 367q-128 23 -214.5 138.5t-86.5 291.5q0 173 72 297.5t197.5 186t291.5 61.5q103 0 226.5 -21t209.5 -57v-817q0 -157 -6 -222q-18 -249 -144 -383.5t-362 -134.5zM614 414v387q-50 7 -86 -12.5t-53.5 -59.5t-25 -84
t-7.5 -98q0 -40 2 -70.5t7.5 -63t16 -53t28.5 -34t43 -13.5q32 0 53.5 25t21.5 76zM481 -172q0 -80 68 -80q42 0 58 31.5t16 111.5v189q-53 -41 -97.5 -107.5t-44.5 -144.5zM385 1362q0 82 57.5 139.5t151.5 57.5t153.5 -57.5t59.5 -139.5q0 -84 -58.5 -139.5t-152.5 -55.5
q-96 0 -153.5 55t-57.5 140z" />
    <glyph glyph-name="Gcommaaccent" unicode="&#x122;" horiz-adv-x="1308" 
d="M1231 692v-571q-89 -65 -230 -105.5t-299 -40.5q-303 0 -475 178.5t-172 524.5q0 111 20 206t54.5 166.5t83.5 128.5t105 95.5t120.5 64t128.5 36.5t131 11q371 0 539 -290l-307 -219q-65 88 -120.5 121.5t-115.5 33.5q-94 0 -148 -83.5t-54 -248.5q0 -385 225 -385
q56 0 125 17v360h389zM543 -88l-127 -449l137 -65q122 134 195 260q45 74 45 127q0 33 -18 57t-41.5 36.5t-63 20t-64 9.5t-63.5 4z" />
    <glyph glyph-name="gcommaaccent" unicode="&#x123;" horiz-adv-x="1099" 
d="M514 -543q-189 0 -288 78.5t-99 214.5q0 210 203 367q-128 23 -214.5 138.5t-86.5 291.5q0 173 72 297.5t197.5 186t291.5 61.5q103 0 226.5 -21t209.5 -57v-817q0 -157 -6 -222q-18 -249 -144 -383.5t-362 -134.5zM614 414v387q-50 7 -86 -12.5t-53.5 -59.5t-25 -84
t-7.5 -98q0 -40 2 -70.5t7.5 -63t16 -53t28.5 -34t43 -13.5q32 0 53.5 25t21.5 76zM481 -172q0 -80 68 -80q42 0 58 31.5t16 111.5v189q-53 -41 -97.5 -107.5t-44.5 -144.5zM793 1602l-125 -453q-32 2 -52.5 4t-54 7.5t-55.5 14.5t-44.5 22.5t-34 35t-11.5 49.5q0 53 45 127
q93 149 194 260z" />
    <glyph glyph-name="Hcircumflex" unicode="&#x124;" horiz-adv-x="1366" 
d="M842 1362h430v-1362h-430v485h-322v-485h-426v1362h426v-504h322v504zM678 1591l-236 -174l-120 113q99 119 202 225q87 90 154 90q65 0 151 -86q130 -130 209 -227l-118 -115z" />
    <glyph glyph-name="hcircumflex" unicode="&#x125;" 
d="M487 0h-413v1423h413v-381q87 50 199 50q165 0 250.5 -93.5t85.5 -281.5v-717h-414v672q0 55 -11 79.5t-38 24.5q-72 0 -72 -102v-674zM440 1651l-235 -174l-121 112q99 119 203 226q87 90 153 90t152 -86q126 -126 209 -228l-119 -114z" />
    <glyph glyph-name="Hbar" unicode="&#x126;" horiz-adv-x="1390" 
d="M854 1362h430v-133h96v-246h-96v-983h-430v485h-319v-485h-429v983h-96v246h96v133h429v-133h319v133zM535 858h319v125h-319v-125z" />
    <glyph glyph-name="hbar" unicode="&#x127;" 
d="M-12 1079v246h86v98h413v-98h250v-246h-250v-123q87 50 201 50q163 0 248.5 -94.5t85.5 -282.5v-629h-414v584q0 55 -11 79.5t-38 24.5q-72 0 -72 -102v-586h-413v1079h-86z" />
    <glyph glyph-name="Itilde" unicode="&#x128;" horiz-adv-x="634" 
d="M530 0h-426v1362h426v-1362zM12 1477l-28 217q87 65 184 65q59 0 154 -27.5t143 -27.5q64 0 137 39l23 -230q-67 -40 -148 -40q-49 0 -154 24.5t-147 24.5q-84 0 -164 -45z" />
    <glyph glyph-name="itilde" unicode="&#x129;" horiz-adv-x="579" 
d="M508 0h-416v1059h416v-1059zM-6 1249l-27 217q91 68 185 68q59 0 154 -28.5t143 -28.5q66 0 137 41l20 -232q-68 -41 -147 -41q-49 0 -154 24.5t-147 24.5q-84 0 -164 -45z" />
    <glyph glyph-name="Imacron" unicode="&#x12a;" horiz-adv-x="634" 
d="M530 0h-426v1362h426v-1362zM-39 1473v268h696v-268h-696z" />
    <glyph glyph-name="imacron" unicode="&#x12b;" horiz-adv-x="579" 
d="M508 0h-416v1059h416v-1059zM-57 1241v266h696v-266h-696z" />
    <glyph glyph-name="Ibreve" unicode="&#x12c;" horiz-adv-x="634" 
d="M530 0h-426v1362h426v-1362zM492 1864l210 -99q-16 -40 -36 -76t-54.5 -77t-75.5 -70.5t-101.5 -49t-129.5 -19.5q-90 0 -163 29t-118.5 76t-72.5 91.5t-41 89.5l217 105q36 -78 76.5 -118t109.5 -40q65 0 102 36t77 122z" />
    <glyph glyph-name="ibreve" unicode="&#x12d;" horiz-adv-x="579" 
d="M508 0h-416v1059h416v-1059zM475 1585l203 -57q-20 -68 -50 -123.5t-75.5 -104.5t-113.5 -76.5t-152 -27.5q-73 0 -134.5 20.5t-102.5 52.5t-73.5 77.5t-50.5 89t-30 92.5l210 57q36 -86 77 -120.5t112 -34.5q64 0 104 35.5t76 119.5z" />
    <glyph glyph-name="Iogonek" unicode="&#x12e;" horiz-adv-x="634" 
d="M530 0q-72 -42 -122 -109.5t-50 -119.5q0 -64 68 -64q46 0 96 23l68 -197q-35 -21 -96.5 -35t-126.5 -14q-136 0 -203.5 61.5t-67.5 155.5q0 49 17 97.5t45 88t51.5 65.5t48.5 48h-154v1362h426v-1362z" />
    <glyph glyph-name="iogonek" unicode="&#x12f;" horiz-adv-x="579" 
d="M508 0q-65 -43 -112.5 -110.5t-47.5 -118.5q0 -64 68 -64q46 0 96 23l68 -197q-35 -21 -96.5 -35t-127.5 -14q-136 0 -203 61.5t-67 155.5q0 49 17 97.5t45 88t51.5 65.5t48.5 48h-156v1059h416v-1059zM88 1362q0 82 57.5 139.5t151.5 57.5t153.5 -57.5t59.5 -139.5
q0 -84 -58.5 -139.5t-152.5 -55.5q-96 0 -153.5 55t-57.5 140z" />
    <glyph glyph-name="Idotaccent" unicode="&#x130;" horiz-adv-x="634" 
d="M530 0h-426v1362h426v-1362zM98 1655q0 82 57.5 139t151.5 57t153.5 -57t59.5 -139q0 -84 -58.5 -139.5t-152.5 -55.5q-96 0 -153.5 55t-57.5 140z" />
    <glyph glyph-name="dotlessi" unicode="&#x131;" horiz-adv-x="579" 
d="M508 0h-416v1059h416v-1059z" />
    <glyph glyph-name="IJ" unicode="&#x132;" horiz-adv-x="1540" 
d="M530 0h-426v1362h426v-1362zM616 70l111 315q100 -53 186 -53q61 0 93 32.5t32 108.5v889h426v-920q0 -126 -18 -188q-35 -126 -156 -202.5t-278 -76.5q-100 0 -210 27t-186 68z" />
    <glyph glyph-name="ij" unicode="&#x133;" horiz-adv-x="1093" 
d="M508 0h-416v1059h416v-1059zM88 1362q0 82 57.5 139.5t151.5 57.5t153.5 -57.5t59.5 -139.5q0 -84 -58.5 -139.5t-152.5 -55.5q-96 0 -153.5 55t-57.5 140zM621 8v1051h411v-1092q0 -51 -2 -87.5t-10.5 -84t-23.5 -81t-42.5 -68.5t-66 -56.5t-95.5 -35t-130 -13.5
q-85 0 -181.5 23.5t-165.5 62.5l103 281q71 -31 114 -31q89 0 89 131zM623 1362q0 82 58 139.5t153 57.5q93 0 151.5 -57.5t58.5 -139.5q0 -84 -58 -139.5t-152 -55.5q-96 0 -153.5 55t-57.5 140z" />
    <glyph glyph-name="Jcircumflex" unicode="&#x134;" horiz-adv-x="927" 
d="M-4 70l110 315q100 -53 187 -53q61 0 93 32.5t32 108.5v889h426v-920q0 -123 -19 -188q-35 -126 -156 -202.5t-278 -76.5q-100 0 -209.5 27t-185.5 68zM627 1591l-236 -174l-121 113q93 113 203 225q87 90 154 90q65 0 151 -86q130 -130 209 -227l-119 -115z" />
    <glyph glyph-name="jcircumflex" unicode="&#x135;" horiz-adv-x="577" 
d="M92 8v1051h412v-1092q0 -50 -2 -87t-10.5 -84.5t-23.5 -81t-43 -68.5t-66.5 -56.5t-95.5 -35t-130 -13.5q-85 0 -181 23.5t-165 62.5l102 281q71 -31 115 -31q88 0 88 131zM39 1153l-127 102q40 61 110 154.5t125 155.5q50 56 77.5 73t74.5 17q50 0 75.5 -16.5
t76.5 -73.5q109 -123 241 -308l-127 -104l-266 219z" />
    <glyph glyph-name="Kcommaaccent" unicode="&#x136;" horiz-adv-x="1245" 
d="M1249 1362l-383 -592l404 -770h-484l-202 432l-66 -98v-334h-424v1362h424v-430h6l262 430h463zM500 -88l-127 -449l137 -65q122 134 195 260q45 74 45 127q0 33 -18 57t-41.5 36.5t-63 20t-64 9.5t-63.5 4z" />
    <glyph glyph-name="kcommaaccent" unicode="&#x137;" horiz-adv-x="1130" 
d="M680 0l-170 457h-10v-457h-416v1423h416v-555h12q57 110 137.5 167t198.5 57q109 0 183.5 -65t74.5 -193q0 -74 -33.5 -140.5t-74.5 -106.5t-91 -71l250 -516h-477zM696 741q0 26 -16 42t-41 16q-49 0 -87 -55.5t-44 -131.5q73 5 130.5 43t57.5 86zM461 -88l-127 -449
l137 -65q122 134 195 260q45 74 45 127q0 33 -18 57t-41.5 36.5t-63 20t-64 9.5t-63.5 4z" />
    <glyph glyph-name="kgreenlandic" unicode="&#x138;" horiz-adv-x="1101" 
d="M678 0l-197 440h-12v-440h-387v1059h387v-236h10q117 232 338 232q109 0 182.5 -64t73.5 -190q0 -107 -61 -190t-146 -132l256 -479h-444zM690 715q0 31 -17 48t-46 17q-56 0 -100 -65t-52 -150q85 6 150 50t65 100z" />
    <glyph glyph-name="Lacute" unicode="&#x139;" horiz-adv-x="1077" 
d="M94 0v1362h426v-987h518v-375h-944zM25 1536l372 358q67 -38 112.5 -89.5t45.5 -100.5q0 -43 -23.5 -74t-87.5 -67q-76 -42 -176 -84t-157 -60z" />
    <glyph glyph-name="lacute" unicode="&#x13a;" horiz-adv-x="747" 
d="M84 1423h414v-1028q0 -106 71 -106q31 0 115 33l86 -271q-58 -42 -146.5 -63t-168.5 -21q-73 0 -130 13.5t-95.5 35t-66.5 57t-43 69t-23.5 81.5t-10.5 86t-2 90v1024zM4 1583l373 359q67 -38 112.5 -90t45.5 -101q0 -43 -23.5 -74t-87.5 -67q-76 -41 -176.5 -83.5
t-157.5 -60.5z" />
    <glyph glyph-name="Lcommaaccent" unicode="&#x13b;" horiz-adv-x="1077" 
d="M94 0v1362h426v-987h518v-375h-944zM418 -88l-127 -449l137 -65q122 134 195 260q45 74 45 127q0 33 -18 57t-41.5 36.5t-63 20t-64 9.5t-63.5 4z" />
    <glyph glyph-name="lcommaaccent" unicode="&#x13c;" horiz-adv-x="747" 
d="M84 1423h414v-1028q0 -106 71 -106q31 0 115 33l86 -271q-58 -42 -146.5 -63t-168.5 -21q-73 0 -130 13.5t-95.5 35t-66.5 57t-43 69t-23.5 81.5t-10.5 86t-2 90v1024zM254 -88l-127 -449l137 -65q122 134 195 260q45 74 45 127q0 33 -18 57t-41.5 36.5t-63 20t-64 9.5
t-63.5 4z" />
    <glyph glyph-name="Lcaron" unicode="&#x13d;" horiz-adv-x="1077" 
d="M94 0v1362h426v-987h518v-375h-944zM702 1346v-478l146 -30q41 79 89 209t48 200q0 115 -149 115q-56 0 -134 -16z" />
    <glyph glyph-name="lcaron" unicode="&#x13e;" horiz-adv-x="827" 
d="M84 1423h414v-1028q0 -106 71 -106q31 0 115 33l86 -271q-58 -42 -146.5 -63t-168.5 -21q-73 0 -130 13.5t-95.5 35t-66.5 57t-43 69t-23.5 81.5t-10.5 86t-2 90v1024zM606 1407v-477l146 -31q40 79 88.5 209.5t48.5 200.5q0 114 -150 114q-55 0 -133 -16z" />
    <glyph glyph-name="Ldot" unicode="&#x13f;" horiz-adv-x="1077" 
d="M94 0v1362h426v-987h518v-375h-944zM631 762q0 82 57.5 139t151.5 57t153.5 -57t59.5 -139q0 -84 -58.5 -139.5t-152.5 -55.5q-96 0 -153.5 55t-57.5 140z" />
    <glyph glyph-name="ldot" unicode="&#x140;" horiz-adv-x="964" 
d="M84 1423h414v-1028q0 -106 71 -106q31 0 115 33l86 -271q-58 -42 -146.5 -63t-168.5 -21q-73 0 -130 13.5t-95.5 35t-66.5 57t-43 69t-23.5 81.5t-10.5 86t-2 90v1024zM569 758q0 82 57.5 139t151.5 57t153.5 -57t59.5 -139q0 -84 -58.5 -139.5t-152.5 -55.5
q-96 0 -153.5 55t-57.5 140z" />
    <glyph glyph-name="Lslash" unicode="&#x141;" horiz-adv-x="1069" 
d="M4 463l-106 248l196 90v561h426v-408l225 103l107 -248l-332 -152v-282h518v-375h-944v504z" />
    <glyph glyph-name="lslash" unicode="&#x142;" horiz-adv-x="905" 
d="M219 1423h414v-454l143 78l117 -228l-260 -137v-287q0 -106 72 -106q30 0 114 33l86 -271q-58 -42 -146.5 -63t-168.5 -21q-73 0 -130 13.5t-95.5 35t-66.5 57t-43 69t-23.5 81.5t-10.5 86t-2 90v127l-102 -53l-117 227l219 115v608z" />
    <glyph glyph-name="Nacute" unicode="&#x143;" horiz-adv-x="1353" 
d="M838 1362h422v-1362h-363l-375 608h-8v-608h-420v1362h377l360 -594h7v594zM430 1540l373 358q67 -38 112.5 -89.5t45.5 -100.5q0 -43 -23.5 -74t-87.5 -67q-76 -41 -176.5 -83.5t-157.5 -60.5z" />
    <glyph glyph-name="nacute" unicode="&#x144;" horiz-adv-x="1114" 
d="M502 0h-410v827l-29 232h340l23 -96q98 129 287 129q154 0 240.5 -89.5t86.5 -275.5v-727h-413v664q0 61 -9 86.5t-40 25.5q-76 0 -76 -112v-664zM356 1249l267 441q33 -9 65.5 -23t67.5 -36t56.5 -54.5t21.5 -69.5q0 -55 -76 -131q-63 -60 -153 -127t-138 -94z" />
    <glyph glyph-name="Ncommaaccent" unicode="&#x145;" horiz-adv-x="1353" 
d="M838 1362h422v-1362h-363l-375 608h-8v-608h-420v1362h377l360 -594h7v594zM604 -88l-127 -449l137 -65q122 134 195 260q45 74 45 127q0 33 -18 57t-41.5 36.5t-63 20t-64 9.5t-63.5 4z" />
    <glyph glyph-name="ncommaaccent" unicode="&#x146;" horiz-adv-x="1114" 
d="M502 0h-410v827l-29 232h340l23 -96q98 129 287 129q154 0 240.5 -89.5t86.5 -275.5v-727h-413v664q0 61 -9 86.5t-40 25.5q-76 0 -76 -112v-664zM469 -88l-127 -449l137 -65q122 134 195 260q45 74 45 127q0 33 -18 57t-41.5 36.5t-63 20t-64 9.5t-63.5 4z" />
    <glyph glyph-name="Ncaron" unicode="&#x147;" horiz-adv-x="1353" 
d="M838 1362h422v-1362h-363l-375 608h-8v-608h-420v1362h377l360 -594h7v594zM438 1845l236 -174l241 174l119 -114q-83 -102 -209 -228q-86 -86 -151 -86q-67 0 -154 90q-104 107 -203 226z" />
    <glyph glyph-name="ncaron" unicode="&#x148;" horiz-adv-x="1114" 
d="M502 0h-410v827l-29 232h340l23 -96q98 129 287 129q154 0 240.5 -89.5t86.5 -275.5v-727h-413v664q0 61 -9 86.5t-40 25.5q-76 0 -76 -112v-664zM829 1655l129 -103q-39 -60 -109 -153t-126 -156q-50 -56 -77.5 -73t-74.5 -17q-51 0 -77.5 16.5t-75.5 73.5
q-131 151 -242 307l129 105l266 -219z" />
    <glyph glyph-name="napostrophe" unicode="&#x149;" horiz-adv-x="1169" 
d="M557 0h-410v827l-28 232h340l22 -96q98 129 287 129q154 0 241 -90t87 -275v-727h-414v664q0 61 -9 86.5t-40 25.5q-76 0 -76 -112v-664zM-61 1055l67 475q58 8 88 8q148 0 148 -113q0 -67 -58.5 -187.5t-122.5 -221.5z" />
    <glyph glyph-name="Eng" unicode="&#x14a;" horiz-adv-x="1355" 
d="M838 1362h424v-1393q0 -51 -2 -87t-10 -84.5t-22.5 -82t-41.5 -69.5t-65 -57.5t-95.5 -35.5t-130.5 -14q-79 0 -172.5 21.5t-163.5 58.5l100 281q61 -25 107 -25q82 0 82 131v76l-324 526h-8v-608h-422v1362h379l358 -594h7v594z" />
    <glyph glyph-name="eng" unicode="&#x14b;" horiz-adv-x="1116" 
d="M504 0h-410v827l-28 232h340l22 -96q99 131 285 131q155 0 242 -90.5t87 -276.5v-758q0 -51 -2 -88.5t-11 -84.5t-24 -81t-42.5 -69t-66 -56.5t-96 -35t-130.5 -13.5q-83 0 -179 24t-165 62l102 281q67 -31 113 -31q88 0 88 133v654q0 61 -8.5 86.5t-38.5 25.5
q-78 0 -78 -112v-664z" />
    <glyph glyph-name="Omacron" unicode="&#x14c;" horiz-adv-x="1368" 
d="M1313 678q0 -341 -172 -522t-465 -181q-297 0 -459 179.5t-162 523.5q0 152 39 274.5t102.5 202t149.5 133t176 76t185 22.5q127 0 232.5 -38.5t191 -119.5t134 -221.5t48.5 -328.5zM492 696q0 -372 198 -372q53 0 91 28.5t59 79t30 109.5t9 131q0 63 -8 119.5t-28 114.5
t-61.5 93t-101.5 35q-66 0 -110 -49.5t-61 -122.5t-17 -166zM352 1473v268h697v-268h-697z" />
    <glyph glyph-name="omacron" unicode="&#x14d;" horiz-adv-x="1093" 
d="M551 264q47 0 66.5 58t19.5 202q0 150 -19 212.5t-69 62.5q-84 0 -84 -238q0 -148 16.5 -222.5t69.5 -74.5zM41 516q0 125 32.5 225.5t84.5 164.5t121.5 107t140 61t143.5 18q42 0 81.5 -4t91.5 -18t95.5 -36.5t87.5 -64t75 -96.5t50 -137t19 -183q0 -139 -41 -251
t-113 -184.5t-167.5 -111.5t-206.5 -39q-233 0 -363.5 138t-130.5 411zM223 1241v266h697v-266h-697z" />
    <glyph glyph-name="Obreve" unicode="&#x14e;" horiz-adv-x="1368" 
d="M1313 678q0 -341 -172 -522t-465 -181q-297 0 -459 179.5t-162 523.5q0 152 39 274.5t102.5 202t149.5 133t176 76t185 22.5q127 0 232.5 -38.5t191 -119.5t134 -221.5t48.5 -328.5zM492 696q0 -372 198 -372q53 0 91 28.5t59 79t30 109.5t9 131q0 63 -8 119.5t-28 114.5
t-61.5 93t-101.5 35q-66 0 -110 -49.5t-61 -122.5t-17 -166zM864 1864l211 -99q-16 -40 -36 -76t-54.5 -77t-75.5 -70.5t-101.5 -49t-129.5 -19.5q-90 0 -163 29t-118.5 76t-72.5 91.5t-41 89.5l217 105q36 -78 76.5 -118t109.5 -40q65 0 101 36t77 122z" />
    <glyph glyph-name="obreve" unicode="&#x14f;" horiz-adv-x="1093" 
d="M551 264q47 0 66.5 58t19.5 202q0 150 -19 212.5t-69 62.5q-84 0 -84 -238q0 -148 16.5 -222.5t69.5 -74.5zM41 516q0 125 32.5 225.5t84.5 164.5t121.5 107t140 61t143.5 18q42 0 81.5 -4t91.5 -18t95.5 -36.5t87.5 -64t75 -96.5t50 -137t19 -183q0 -139 -41 -251
t-113 -184.5t-167.5 -111.5t-206.5 -39q-233 0 -363.5 138t-130.5 411zM754 1585l202 -57q-20 -68 -50 -123.5t-75.5 -104.5t-113.5 -76.5t-152 -27.5q-73 0 -134.5 20.5t-102.5 52.5t-73.5 77.5t-50.5 89t-30 92.5l211 57q36 -86 76.5 -120.5t111.5 -34.5q64 0 104.5 35.5
t76.5 119.5z" />
    <glyph glyph-name="Ohungarumlaut" unicode="&#x150;" horiz-adv-x="1368" 
d="M1313 678q0 -341 -172 -522t-465 -181q-297 0 -459 179.5t-162 523.5q0 152 39 274.5t102.5 202t149.5 133t176 76t185 22.5q127 0 232.5 -38.5t191 -119.5t134 -221.5t48.5 -328.5zM492 696q0 -372 198 -372q53 0 91 28.5t59 79t30 109.5t9 131q0 63 -8 119.5t-28 114.5
t-61.5 93t-101.5 35q-66 0 -110 -49.5t-61 -122.5t-17 -166zM276 1544l379 359q152 -109 152 -191q0 -42 -24.5 -74t-88.5 -69q-76 -42 -179.5 -86t-152.5 -58zM791 1544l378 354q152 -98 152 -186q0 -43 -24 -75t-87 -68q-76 -43 -179.5 -86.5t-153.5 -57.5z" />
    <glyph glyph-name="ohungarumlaut" unicode="&#x151;" horiz-adv-x="1093" 
d="M551 264q47 0 66.5 58t19.5 202q0 150 -19 212.5t-69 62.5q-84 0 -84 -238q0 -148 16.5 -222.5t69.5 -74.5zM41 516q0 125 32.5 225.5t84.5 164.5t121.5 107t140 61t143.5 18q42 0 81.5 -4t91.5 -18t95.5 -36.5t87.5 -64t75 -96.5t50 -137t19 -183q0 -139 -41 -251
t-113 -184.5t-167.5 -111.5t-206.5 -39q-233 0 -363.5 138t-130.5 411zM174 1249l266 441q213 -65 213 -183q0 -56 -78 -131q-62 -60 -151 -127t-137 -94zM612 1249l271 441q33 -9 65.5 -23t66.5 -36.5t55.5 -54.5t21.5 -69q0 -56 -78 -131q-62 -60 -151 -127t-138 -94z" />
    <glyph glyph-name="OE" unicode="&#x152;" horiz-adv-x="1878" 
d="M702 1384q109 0 216 -22h884v-373h-512v-110h439v-369h-439v-137h527v-373h-893q-147 -33 -260 -33q-293 0 -451 182.5t-158 528.5q0 152 38.5 274t101.5 201.5t148.5 132.5t174.5 75.5t184 22.5zM492 696q0 -49 3 -89.5t11 -86.5t23.5 -80.5t39 -64t59.5 -45t83 -15.5
q96 0 151 35v641q-74 41 -160 41q-59 0 -101.5 -27.5t-65.5 -76t-33 -105.5t-10 -127z" />
    <glyph glyph-name="oe" unicode="&#x153;" horiz-adv-x="1576" 
d="M1176 1092q173 0 275.5 -87t102.5 -260q0 -68 -22 -123.5t-62.5 -94t-88.5 -67t-108 -46.5t-112.5 -27.5t-111.5 -15.5q6 -46 50.5 -73.5t110.5 -27.5q122 0 252 84l103 -270l-46 -27q-171 -90 -372 -90q-197 0 -332 117q-55 -54 -137.5 -85.5t-167.5 -31.5
q-219 0 -344 138.5t-125 410.5q0 125 31 226t81 165t116.5 107t132.5 60.5t133 17.5q98 0 180.5 -34t136.5 -102q149 136 324 136zM551 264q47 0 66.5 58t19.5 202q0 150 -19 212.5t-69 62.5q-84 0 -84 -238q0 -148 16.5 -222.5t69.5 -74.5zM1202 750q0 25 -13.5 40
t-37.5 15q-47 0 -83 -48t-40 -143q79 7 126.5 47.5t47.5 88.5z" />
    <glyph glyph-name="Racute" unicode="&#x154;" horiz-adv-x="1261" 
d="M520 502v-502h-426v1362h508q128 0 225 -20t172.5 -64t114.5 -122t39 -187q0 -110 -58.5 -202.5t-146.5 -133.5q51 -28 94 -123l226 -510h-459l-178 446q-23 56 -92 56h-19zM520 797h82q56 0 86.5 32.5t30.5 92.5q0 59 -29 84.5t-92 25.5h-78v-235zM379 1540l373 358
q67 -38 112 -89.5t45 -100.5q0 -43 -23 -74.5t-87 -66.5q-76 -41 -176.5 -83.5t-157.5 -60.5z" />
    <glyph glyph-name="racute" unicode="&#x155;" horiz-adv-x="831" 
d="M508 635v-635h-414v838l-31 221h330l33 -141q28 65 71 106t82 54.5t80 13.5q104 0 170 -39l-51 -346q-81 36 -149 36q-121 0 -121 -108zM266 1249l266 441q33 -9 65.5 -23t67.5 -36t56.5 -54.5t21.5 -69.5q0 -56 -75 -131q-63 -60 -153 -127t-138 -94z" />
    <glyph glyph-name="Rcommaaccent" unicode="&#x156;" horiz-adv-x="1261" 
d="M520 502v-502h-426v1362h508q128 0 225 -20t172.5 -64t114.5 -122t39 -187q0 -110 -58.5 -202.5t-146.5 -133.5q51 -28 94 -123l226 -510h-459l-178 446q-23 56 -92 56h-19zM520 797h82q56 0 86.5 32.5t30.5 92.5q0 59 -29 84.5t-92 25.5h-78v-235zM510 -88l-127 -449
l137 -65q122 134 195 260q45 74 45 127q0 33 -18 57t-41.5 36.5t-63 20t-64 9.5t-63.5 4z" />
    <glyph glyph-name="rcommaaccent" unicode="&#x157;" horiz-adv-x="831" 
d="M508 635v-635h-414v838l-31 221h330l33 -141q28 65 71 106t82 54.5t80 13.5q104 0 170 -39l-51 -346q-81 36 -149 36q-121 0 -121 -108zM207 -88l-127 -449l137 -65q122 134 195 260q45 74 45 127q0 33 -18 57t-41.5 36.5t-63 20t-64 9.5t-63.5 4z" />
    <glyph glyph-name="Rcaron" unicode="&#x158;" horiz-adv-x="1261" 
d="M520 502v-502h-426v1362h508q128 0 225 -20t172.5 -64t114.5 -122t39 -187q0 -110 -58.5 -202.5t-146.5 -133.5q51 -28 94 -123l226 -510h-459l-178 446q-23 56 -92 56h-19zM520 797h82q56 0 86.5 32.5t30.5 92.5q0 59 -29 84.5t-92 25.5h-78v-235zM317 1845l236 -174
l242 174l118 -114q-88 -108 -208 -228q-86 -86 -152 -86q-67 0 -154 90q-98 100 -202 226z" />
    <glyph glyph-name="rcaron" unicode="&#x159;" horiz-adv-x="831" 
d="M508 635v-635h-414v838l-31 221h330l33 -141q28 65 71 106t82 54.5t80 13.5q104 0 170 -39l-51 -346q-81 36 -149 36q-121 0 -121 -108zM694 1655l129 -103q-39 -60 -109 -153t-126 -156q-50 -56 -77.5 -73t-74.5 -17q-51 0 -77.5 16.5t-75.5 73.5q-131 151 -242 307
l129 105l266 -219z" />
    <glyph glyph-name="Sacute" unicode="&#x15a;" horiz-adv-x="1120" 
d="M0 123l139 348q80 -48 201 -88.5t192 -40.5q86 0 86 68q0 16 -8.5 29.5t-19.5 22.5t-36 19.5t-44 16.5l-57 18q-61 18 -107.5 36t-103.5 52.5t-94.5 77t-63 109t-25.5 147.5q0 142 69.5 245t185 153t264.5 50q150 0 288 -55t236 -155l-219 -279q-191 133 -301 133
q-78 0 -78 -59q0 -39 43.5 -63.5t140.5 -55.5q67 -22 112.5 -41t102.5 -54.5t91.5 -76.5t58.5 -106.5t24 -145.5q0 -145 -72 -248.5t-193.5 -154t-279.5 -50.5q-144 0 -297 46t-235 102zM328 1540l372 358q67 -38 112.5 -89.5t45.5 -100.5q0 -43 -23 -74.5t-87 -66.5
q-76 -41 -176.5 -83.5t-157.5 -60.5z" />
    <glyph glyph-name="sacute" unicode="&#x15b;" horiz-adv-x="907" 
d="M4 86l100 289q71 -41 165.5 -76t154.5 -35q53 0 53 41q0 14 -6.5 24.5t-24 20t-30 14.5t-41.5 15q-38 13 -52.5 18t-50 18.5t-51.5 22.5t-45.5 26.5t-44 33t-34 39t-29 48.5t-16.5 58t-7 70q0 114 60 202t158.5 132.5t217.5 44.5q126 0 239.5 -42t197.5 -118l-181 -234
q-147 103 -229 103q-31 0 -45 -13.5t-14 -33.5q0 -27 26.5 -44.5t85.5 -39.5q44 -16 67 -25t63.5 -27.5t63.5 -35t52 -43t44.5 -55t26.5 -67.5t11 -85q0 -176 -119.5 -270.5t-325.5 -94.5q-135 0 -254.5 37t-185.5 82zM276 1249l267 441q33 -9 65.5 -23t67.5 -36t56.5 -54.5
t21.5 -69.5q0 -55 -76 -131q-63 -60 -153 -127t-138 -94z" />
    <glyph glyph-name="Scircumflex" unicode="&#x15c;" horiz-adv-x="1120" 
d="M0 123l139 348q80 -48 201 -88.5t192 -40.5q86 0 86 68q0 16 -8.5 29.5t-19.5 22.5t-36 19.5t-44 16.5l-57 18q-61 18 -107.5 36t-103.5 52.5t-94.5 77t-63 109t-25.5 147.5q0 142 69.5 245t185 153t264.5 50q150 0 288 -55t236 -155l-219 -279q-191 133 -301 133
q-78 0 -78 -59q0 -39 43.5 -63.5t140.5 -55.5q67 -22 112.5 -41t102.5 -54.5t91.5 -76.5t58.5 -106.5t24 -145.5q0 -145 -72 -248.5t-193.5 -154t-279.5 -50.5q-144 0 -297 46t-235 102zM582 1591l-236 -174l-121 113q93 113 203 225q87 90 154 90q65 0 151 -86
q130 -130 209 -227l-119 -115z" />
    <glyph glyph-name="scircumflex" unicode="&#x15d;" horiz-adv-x="907" 
d="M4 86l100 289q71 -41 165.5 -76t154.5 -35q53 0 53 41q0 14 -6.5 24.5t-24 20t-30 14.5t-41.5 15q-38 13 -52.5 18t-50 18.5t-51.5 22.5t-45.5 26.5t-44 33t-34 39t-29 48.5t-16.5 58t-7 70q0 114 60 202t158.5 132.5t217.5 44.5q126 0 239.5 -42t197.5 -118l-181 -234
q-147 103 -229 103q-31 0 -45 -13.5t-14 -33.5q0 -27 26.5 -44.5t85.5 -39.5q44 -16 67 -25t63.5 -27.5t63.5 -35t52 -43t44.5 -55t26.5 -67.5t11 -85q0 -176 -119.5 -270.5t-325.5 -94.5q-135 0 -254.5 37t-185.5 82zM213 1153l-127 102q39 60 109.5 153.5t126.5 156.5
q50 56 77 73t74 17q50 0 75.5 -16.5t76.5 -73.5q109 -123 241 -308l-127 -104l-266 219z" />
    <glyph glyph-name="Scedilla" unicode="&#x15e;" horiz-adv-x="1120" 
d="M0 123l139 348q80 -48 201 -88.5t192 -40.5q86 0 86 68q0 16 -8.5 29.5t-19.5 22.5t-36 19.5t-44 16.5l-57 18q-61 18 -107.5 36t-103.5 52.5t-94.5 77t-63 109t-25.5 147.5q0 142 69.5 245t185 153t264.5 50q150 0 288 -55t236 -155l-219 -279q-191 133 -301 133
q-78 0 -78 -59q0 -39 43.5 -63.5t140.5 -55.5q67 -22 112.5 -41t102.5 -54.5t91.5 -76.5t58.5 -106.5t24 -145.5q0 -192 -122 -307t-324 -139l-23 -88q94 -9 152.5 -60t58.5 -127q0 -57 -20 -100t-50 -67t-71.5 -38.5t-77 -19t-74.5 -4.5q-120 0 -217 37l45 159
q75 -26 140 -26q100 0 100 53q0 22 -16 37t-46.5 21t-58 8t-67.5 2l65 208q-132 10 -265.5 53.5t-205.5 92.5z" />
    <glyph glyph-name="scedilla" unicode="&#x15f;" horiz-adv-x="907" 
d="M4 86l100 289q71 -41 165.5 -76t154.5 -35q53 0 53 41q0 14 -6.5 24.5t-24 20t-30 14.5t-41.5 15q-38 13 -52.5 18t-50 18.5t-51.5 22.5t-45.5 26.5t-44 33t-34 39t-29 48.5t-16.5 58t-7 70q0 114 60 202t158.5 132.5t217.5 44.5q126 0 239.5 -42t197.5 -118l-181 -234
q-147 103 -229 103q-31 0 -45 -13.5t-14 -33.5q0 -27 26.5 -44.5t85.5 -39.5q44 -16 67 -25t63.5 -27.5t63.5 -35t52 -43t44.5 -55t26.5 -67.5t11 -85q0 -156 -95.5 -248t-265.5 -111l-20 -79q94 -9 152.5 -60t58.5 -127q0 -57 -20 -100t-50 -67t-71.5 -38.5t-77 -19
t-74.5 -4.5q-120 0 -217 37l45 159q75 -26 139 -26q101 0 101 53q0 22 -16 37t-46.5 21t-58.5 8t-68 2l64 202q-114 10 -213 44t-152 71z" />
    <glyph glyph-name="Scaron" unicode="&#x160;" horiz-adv-x="1120" 
d="M0 123l139 348q80 -48 201 -88.5t192 -40.5q86 0 86 68q0 16 -8.5 29.5t-19.5 22.5t-36 19.5t-44 16.5l-57 18q-61 18 -107.5 36t-103.5 52.5t-94.5 77t-63 109t-25.5 147.5q0 142 69.5 245t185 153t264.5 50q150 0 288 -55t236 -155l-219 -279q-191 133 -301 133
q-78 0 -78 -59q0 -39 43.5 -63.5t140.5 -55.5q67 -22 112.5 -41t102.5 -54.5t91.5 -76.5t58.5 -106.5t24 -145.5q0 -145 -72 -248.5t-193.5 -154t-279.5 -50.5q-144 0 -297 46t-235 102zM336 1845l235 -174l242 174l119 -114q-83 -102 -209 -228q-86 -86 -152 -86t-153 90
q-104 107 -203 226z" />
    <glyph glyph-name="scaron" unicode="&#x161;" horiz-adv-x="907" 
d="M4 86l100 289q71 -41 165.5 -76t154.5 -35q53 0 53 41q0 14 -6.5 24.5t-24 20t-30 14.5t-41.5 15q-38 13 -52.5 18t-50 18.5t-51.5 22.5t-45.5 26.5t-44 33t-34 39t-29 48.5t-16.5 58t-7 70q0 114 60 202t158.5 132.5t217.5 44.5q126 0 239.5 -42t197.5 -118l-181 -234
q-147 103 -229 103q-31 0 -45 -13.5t-14 -33.5q0 -27 26.5 -44.5t85.5 -39.5q44 -16 67 -25t63.5 -27.5t63.5 -35t52 -43t44.5 -55t26.5 -67.5t11 -85q0 -176 -119.5 -270.5t-325.5 -94.5q-135 0 -254.5 37t-185.5 82zM737 1655l129 -103q-39 -60 -109 -153t-126 -156
q-50 -56 -77.5 -73t-74.5 -17q-51 0 -77.5 16.5t-75.5 73.5q-131 151 -242 307l129 105l266 -219z" />
    <glyph glyph-name="uni0162" unicode="&#x162;" horiz-adv-x="1030" 
d="M29 1362h1132v-373h-360v-989h-144l-28 -106q94 -9 152.5 -60t58.5 -127q0 -57 -20 -100t-50 -67t-71.5 -38.5t-77 -19t-74.5 -4.5q-120 0 -217 37l45 159q75 -26 139 -26q100 0 100 53q0 22 -16 37t-46.5 21t-58 8t-67.5 2l74 231h-125v989h-346v373z" />
    <glyph glyph-name="uni0163" unicode="&#x163;" horiz-adv-x="657" 
d="M88 1423h416v-364h244v-320h-244v-327q0 -71 31.5 -103.5t80.5 -32.5q42 0 95 29l86 -262q-52 -32 -138.5 -54t-177.5 -22h-4l-20 -73q94 -9 152.5 -60t58.5 -127q0 -57 -20 -100t-50 -67t-71.5 -38.5t-77 -19t-74.5 -4.5q-120 0 -217 37l45 159q75 -26 139 -26
q100 0 100 53q0 22 -16 37t-46.5 21t-58 8t-67.5 2l68 217q-53 13 -93 36.5t-65 56t-41 66t-23 79t-9.5 81.5t-2.5 86v1032z" />
    <glyph glyph-name="Tcaron" unicode="&#x164;" horiz-adv-x="1189" 
d="M29 1362h1132v-373h-360v-989h-426v989h-346v373zM348 1845l236 -174l241 174l119 -114q-83 -102 -209 -228q-86 -86 -151 -86q-67 0 -154 90q-104 107 -203 226z" />
    <glyph glyph-name="tcaron" unicode="&#x165;" horiz-adv-x="794" 
d="M88 1423h416v-364h244v-320h-244v-327q0 -71 31.5 -103.5t80.5 -32.5q42 0 95 29l86 -262q-52 -32 -138.5 -54t-177.5 -22q-77 0 -138.5 13.5t-102 34.5t-70 55.5t-45 67.5t-24.5 80.5t-11 84.5t-2 88v1032zM602 1176v477q78 16 133 16q150 0 150 -115q0 -70 -48 -200
t-89 -209z" />
    <glyph glyph-name="Tbar" unicode="&#x166;" horiz-adv-x="1187" 
d="M29 1362h1130v-373h-360v-313h170v-248h-170v-428h-426v428h-166v248h166v313h-344v373z" />
    <glyph glyph-name="tbar" unicode="&#x167;" horiz-adv-x="794" 
d="M88 1423h416v-364h244v-320h-244v-84h244v-252h-244q1 -67 32.5 -97t79.5 -30q42 0 95 29l86 -262q-52 -32 -138.5 -54t-177.5 -22q-77 0 -138.5 13.5t-102 34.5t-70 55.5t-45 67.5t-24.5 80.5t-11 84.5t-2 88v1032z" />
    <glyph glyph-name="Utilde" unicode="&#x168;" horiz-adv-x="1288" 
d="M84 1362h424v-875q0 -86 37 -121.5t104 -35.5q59 0 95 38t36 109v885h424v-928q0 -210 -155 -334.5t-408 -124.5q-280 0 -418.5 118.5t-138.5 367.5v901zM346 1477l-29 217q87 65 185 65q59 0 154 -27.5t143 -27.5q64 0 137 39l22 -230q-67 -40 -147 -40q-49 0 -154 24.5
t-147 24.5q-84 0 -164 -45z" />
    <glyph glyph-name="utilde" unicode="&#x169;" horiz-adv-x="1122" 
d="M621 1059h413v-842l25 -217h-346l-15 84h-12q-88 -111 -246 -111q-356 0 -356 381v705h414v-660q0 -62 10 -88t45 -26q31 0 49.5 27.5t18.5 70.5v676zM272 1249l-26 217q91 68 184 68q59 0 154 -28.5t143 -28.5q66 0 137 41l21 -232q-68 -41 -148 -41q-49 0 -154 24.5
t-147 24.5q-84 0 -164 -45z" />
    <glyph glyph-name="Umacron" unicode="&#x16a;" horiz-adv-x="1288" 
d="M84 1362h424v-875q0 -86 37 -121.5t104 -35.5q59 0 95 38t36 109v885h424v-928q0 -210 -155 -334.5t-408 -124.5q-280 0 -418.5 118.5t-138.5 367.5v901zM295 1473v268h696v-268h-696z" />
    <glyph glyph-name="umacron" unicode="&#x16b;" horiz-adv-x="1122" 
d="M621 1059h413v-842l25 -217h-346l-15 84h-12q-88 -111 -246 -111q-356 0 -356 381v705h414v-660q0 -62 10 -88t45 -26q31 0 49.5 27.5t18.5 70.5v676zM221 1241v266h697v-266h-697z" />
    <glyph glyph-name="Ubreve" unicode="&#x16c;" horiz-adv-x="1288" 
d="M84 1362h424v-875q0 -86 37 -121.5t104 -35.5q59 0 95 38t36 109v885h424v-928q0 -210 -155 -334.5t-408 -124.5q-280 0 -418.5 118.5t-138.5 367.5v901zM825 1864l211 -99q-16 -40 -36 -76t-54.5 -77t-75.5 -70.5t-101.5 -49t-129.5 -19.5q-90 0 -163 29t-118.5 76
t-72.5 91.5t-41 89.5l217 105q36 -78 76.5 -118t109.5 -40q65 0 101 36t77 122z" />
    <glyph glyph-name="ubreve" unicode="&#x16d;" horiz-adv-x="1122" 
d="M621 1059h413v-842l25 -217h-346l-15 84h-12q-88 -111 -246 -111q-356 0 -356 381v705h414v-660q0 -62 10 -88t45 -26q31 0 49.5 27.5t18.5 70.5v676zM754 1585l202 -57q-20 -68 -50 -123.5t-75.5 -104.5t-113.5 -76.5t-152 -27.5q-73 0 -134.5 20.5t-102.5 52.5
t-73.5 77.5t-50.5 89t-30 92.5l211 57q36 -86 76.5 -120.5t111.5 -34.5q64 0 104.5 35.5t76.5 119.5z" />
    <glyph glyph-name="Uring" unicode="&#x16e;" horiz-adv-x="1288" 
d="M84 1362h424v-875q0 -86 37 -121.5t104 -35.5q59 0 95 38t36 109v885h424v-928q0 -210 -155 -334.5t-408 -124.5q-280 0 -418.5 118.5t-138.5 367.5v901zM420 1651q0 102 70.5 170.5t175.5 68.5q114 0 179.5 -65.5t65.5 -163.5q0 -106 -69.5 -175t-179.5 -69
q-113 0 -177.5 66t-64.5 168zM594 1651q0 -36 18.5 -57t53.5 -21q34 0 52.5 21.5t18.5 56.5q0 82 -71 82q-72 0 -72 -82z" />
    <glyph glyph-name="uring" unicode="&#x16f;" horiz-adv-x="1122" 
d="M621 1059h413v-842l25 -217h-346l-15 84h-12q-88 -111 -246 -111q-356 0 -356 381v705h414v-660q0 -62 10 -88t45 -26q31 0 49.5 27.5t18.5 70.5v676zM346 1391q0 93 63.5 154t159.5 61q104 0 164 -58.5t60 -146.5q0 -97 -63.5 -160t-164.5 -63q-103 0 -161 60t-58 153z
M504 1391q0 -33 16.5 -52.5t48.5 -19.5q31 0 48.5 20t17.5 52q0 71 -66 71q-65 0 -65 -71z" />
    <glyph glyph-name="Uhungarumlaut" unicode="&#x170;" horiz-adv-x="1288" 
d="M84 1362h424v-875q0 -86 37 -121.5t104 -35.5q59 0 95 38t36 109v885h424v-928q0 -210 -155 -334.5t-408 -124.5q-280 0 -418.5 118.5t-138.5 367.5v901zM180 1544l379 359q152 -109 152 -191q0 -42 -24.5 -74t-88.5 -69q-76 -42 -179.5 -86t-152.5 -58zM694 1544
l379 354q152 -98 152 -186q0 -43 -24 -75t-87 -68q-76 -43 -179.5 -86.5t-154.5 -57.5z" />
    <glyph glyph-name="uhungarumlaut" unicode="&#x171;" horiz-adv-x="1122" 
d="M621 1059h413v-842l25 -217h-346l-15 84h-12q-88 -111 -246 -111q-356 0 -356 381v705h414v-660q0 -62 10 -88t45 -26q31 0 49.5 27.5t18.5 70.5v676zM186 1249l267 441q213 -65 213 -183q0 -56 -78 -131q-62 -60 -151 -127t-138 -94zM625 1249l270 441q33 -9 65.5 -23
t66.5 -36.5t55.5 -54.5t21.5 -69q0 -56 -78 -131q-62 -60 -151 -127t-138 -94z" />
    <glyph glyph-name="Uogonek" unicode="&#x172;" horiz-adv-x="1288" 
d="M84 1362h424v-875q0 -86 37 -121.5t104 -35.5q59 0 95 38t36 109v885h424v-928q0 -154 -84 -257.5t-241 -184.5q-62 -32 -114 -101t-52 -120q0 -64 67 -64q47 0 97 23l67 -197q-35 -21 -96.5 -35t-126.5 -14q-136 0 -203 61.5t-67 155.5q0 139 137 276q-253 9 -378.5 128
t-125.5 356v901z" />
    <glyph glyph-name="uogonek" unicode="&#x173;" horiz-adv-x="1122" 
d="M621 1059h413v-842l25 -217q-69 -42 -117.5 -110t-48.5 -119q0 -64 68 -64q46 0 96 23l67 -197q-35 -21 -96.5 -35t-126.5 -14q-136 0 -203 61.5t-67 155.5q0 49 17 97.5t45 88t51.5 65.5t48.5 48h-80l-15 84h-12q-88 -111 -246 -111q-356 0 -356 381v705h414v-660
q0 -62 10 -88t45 -26q31 0 49.5 27.5t18.5 70.5v676z" />
    <glyph glyph-name="Wcircumflex" unicode="&#x174;" horiz-adv-x="1685" 
d="M997 0l-127 627h-12l-135 -627h-442l-281 1362h426l121 -758h6l117 660h403l98 -623h11l80 721h424l-256 -1362h-433zM838 1591l-236 -174l-121 113q93 113 203 225q87 90 154 90q65 0 151 -86q130 -130 209 -227l-119 -115z" />
    <glyph glyph-name="wcircumflex" unicode="&#x175;" horiz-adv-x="1585" 
d="M1067 1059h408q29 -103 47 -239t18 -247q0 -290 -121.5 -445t-353.5 -155q-103 0 -167.5 31t-115.5 88q-122 -119 -309 -119q-189 0 -289 96t-100 285v705h414v-703q0 -38 9.5 -53.5t35.5 -15.5q53 0 53 84v688h410v-697q0 -29 1.5 -41.5t10.5 -23t29 -10.5q43 0 64.5 77
t21.5 203q0 103 -19 240t-47 252zM530 1153l-127 102q39 60 109.5 153.5t126.5 156.5q50 56 77.5 73t74.5 17q50 0 75 -16.5t76 -73.5q114 -128 242 -308l-127 -104l-266 219z" />
    <glyph glyph-name="Ycircumflex" unicode="&#x176;" horiz-adv-x="1280" 
d="M858 1362h442l-458 -836v-526h-426v524l-436 838h464l191 -444h8zM625 1591l-236 -174l-121 113q93 113 203 225q87 90 154 90q65 0 151 -86q130 -130 209 -227l-119 -115z" />
    <glyph glyph-name="ycircumflex" unicode="&#x177;" horiz-adv-x="1107" 
d="M1036 303q0 -230 -2 -287q-12 -274 -144 -417.5t-382 -143.5q-180 0 -276.5 78t-96.5 215q0 199 193 346q-130 28 -187 108t-57 216v641h414v-633q0 -58 10.5 -82.5t46.5 -24.5q24 0 45 27.5t21 73.5v639h415v-756zM489 -172q0 -80 68 -80q41 0 57.5 29.5t16.5 97.5v205
q-53 -41 -97.5 -107.5t-44.5 -144.5zM299 1153l-127 102q39 60 109.5 153.5t126.5 156.5q50 56 77 73t74 17q50 0 75.5 -16.5t76.5 -73.5q109 -123 241 -308l-127 -104l-266 219z" />
    <glyph glyph-name="Ydieresis" unicode="&#x178;" horiz-adv-x="1280" 
d="M858 1362h442l-458 -836v-526h-426v524l-436 838h464l191 -444h8zM686 1608q0 70 48.5 118t129.5 48q80 0 129 -48t49 -118q0 -71 -49 -117.5t-129 -46.5q-81 0 -129.5 46.5t-48.5 117.5zM211 1608q0 70 48.5 118t129.5 48q80 0 129 -48t49 -118q0 -71 -49 -117.5
t-129 -46.5q-81 0 -129.5 46.5t-48.5 117.5z" />
    <glyph glyph-name="Zacute" unicode="&#x179;" horiz-adv-x="1103" 
d="M1055 1130l-518 -806h538v-324h-1038v250l504 790h-496v322h1010v-232zM317 1540l373 358q67 -38 112.5 -89.5t45.5 -100.5q0 -43 -23.5 -74t-87.5 -67q-76 -41 -176.5 -83.5t-157.5 -60.5z" />
    <glyph glyph-name="zacute" unicode="&#x17a;" horiz-adv-x="923" 
d="M358 -156q0 -86 78 -86q49 0 78 49.5t29 124.5q0 96 -45 138q-140 -108 -140 -226zM911 1059v-215l-395 -383l100 -41q154 -61 231 -179t77 -272q0 -224 -147.5 -368t-373.5 -144q-200 0 -302.5 90t-102.5 250q0 266 287 426q-67 41 -172 74v199l270 247h-354v316h882z
M274 1249l267 441q33 -9 65.5 -23t67.5 -36t56.5 -54.5t21.5 -69.5q0 -55 -76 -131q-63 -60 -153 -127t-138 -94z" />
    <glyph glyph-name="Zdotaccent" unicode="&#x17b;" horiz-adv-x="1103" 
d="M1055 1130l-518 -806h538v-324h-1038v250l504 790h-496v322h1010v-232zM334 1655q0 82 57.5 139t151.5 57t153.5 -57t59.5 -139q0 -84 -58.5 -139.5t-152.5 -55.5q-96 0 -153.5 55t-57.5 140z" />
    <glyph glyph-name="zdotaccent" unicode="&#x17c;" horiz-adv-x="923" 
d="M358 -156q0 -86 78 -86q49 0 78 49.5t29 124.5q0 96 -45 138q-140 -108 -140 -226zM911 1059v-215l-395 -383l100 -41q154 -61 231 -179t77 -272q0 -224 -147.5 -368t-373.5 -144q-200 0 -302.5 90t-102.5 250q0 266 287 426q-67 41 -172 74v199l270 247h-354v316h882z
M236 1362q0 82 57 139.5t151 57.5t153.5 -57.5t59.5 -139.5q0 -84 -58.5 -139.5t-152.5 -55.5q-96 0 -153 55t-57 140z" />
    <glyph glyph-name="Zcaron" unicode="&#x17d;" horiz-adv-x="1103" 
d="M1055 1130l-518 -806h538v-324h-1038v250l504 790h-496v322h1010v-232zM305 1845l236 -174l241 174l119 -114q-83 -102 -209 -228q-86 -86 -151 -86q-67 0 -154 90q-104 107 -203 226z" />
    <glyph glyph-name="zcaron" unicode="&#x17e;" horiz-adv-x="923" 
d="M358 -156q0 -86 78 -86q49 0 78 49.5t29 124.5q0 96 -45 138q-140 -108 -140 -226zM911 1059v-215l-395 -383l100 -41q154 -61 231 -179t77 -272q0 -224 -147.5 -368t-373.5 -144q-200 0 -302.5 90t-102.5 250q0 266 287 426q-67 41 -172 74v199l270 247h-354v316h882z
M707 1655l129 -103q-39 -59 -109.5 -152.5t-126.5 -156.5q-50 -56 -77 -73t-74 -17q-51 0 -78 17t-76 73q-131 151 -242 307l129 105l267 -219z" />
    <glyph glyph-name="longs" unicode="&#x17f;" horiz-adv-x="772" 
d="M506 1143v-1573h-412v1526q0 50 3 89.5t13.5 86t28 81t48 69t72.5 56t103 35t138 13.5q78 0 178 -27.5t174 -68.5l-88 -261q-52 27 -103 42.5t-79 15.5q-36 0 -56 -17.5t-20 -66.5z" />
    <glyph glyph-name="florin" unicode="&#x192;" horiz-adv-x="1261" 
d="M121 473l49 324h252l20 125q10 58 23 104t35 97.5t55.5 89t78.5 69t110.5 48t146.5 16.5q102 0 202 -28t167 -71l-130 -250q-72 41 -151 41q-102 0 -121 -96l-27 -145h269l-56 -324h-266l-84 -487q-8 -46 -18.5 -84t-29 -82.5t-42.5 -78.5t-61 -67.5t-83 -55t-109.5 -35
t-139.5 -13.5q-79 0 -175 27.5t-159 68.5l125 256q30 -19 75.5 -32t84.5 -13q49 0 76 21.5t36 72.5l91 502h-244z" />
    <glyph glyph-name="Scommaaccent" unicode="&#x218;" horiz-adv-x="1120" 
d="M0 123l139 348q80 -48 201 -88.5t192 -40.5q86 0 86 68q0 16 -8.5 29.5t-19.5 22.5t-36 19.5t-44 16.5l-57 18q-61 18 -107.5 36t-103.5 52.5t-94.5 77t-63 109t-25.5 147.5q0 142 69.5 245t185 153t264.5 50q150 0 288 -55t236 -155l-219 -279q-191 133 -301 133
q-78 0 -78 -59q0 -39 43.5 -63.5t140.5 -55.5q67 -22 112.5 -41t102.5 -54.5t91.5 -76.5t58.5 -106.5t24 -145.5q0 -145 -72 -248.5t-193.5 -154t-279.5 -50.5q-144 0 -297 46t-235 102zM442 -88l-127 -449l138 -65q120 131 194 260q45 74 45 127q0 33 -18 57t-41.5 36.5
t-63 20t-64 9.5t-63.5 4z" />
    <glyph glyph-name="scommaaccent" unicode="&#x219;" horiz-adv-x="907" 
d="M4 86l100 289q71 -41 165.5 -76t154.5 -35q53 0 53 41q0 14 -6.5 24.5t-24 20t-30 14.5t-41.5 15q-38 13 -52.5 18t-50 18.5t-51.5 22.5t-45.5 26.5t-44 33t-34 39t-29 48.5t-16.5 58t-7 70q0 114 60 202t158.5 132.5t217.5 44.5q126 0 239.5 -42t197.5 -118l-181 -234
q-147 103 -229 103q-31 0 -45 -13.5t-14 -33.5q0 -27 26.5 -44.5t85.5 -39.5q44 -16 67 -25t63.5 -27.5t63.5 -35t52 -43t44.5 -55t26.5 -67.5t11 -85q0 -176 -119.5 -270.5t-325.5 -94.5q-135 0 -254.5 37t-185.5 82zM342 -88l-127 -449l137 -65q122 134 195 260
q45 74 45 127q0 33 -18 57t-41.5 36.5t-63 20t-64 9.5t-63.5 4z" />
    <glyph glyph-name="uni021A" unicode="&#x21a;" horiz-adv-x="1030" 
d="M29 1362h1132v-373h-360v-989h-426v989h-346v373zM469 -88l-127 -449l137 -65q122 134 195 260q45 74 45 127q0 33 -18 57t-41.5 36.5t-63 20t-64 9.5t-63.5 4z" />
    <glyph glyph-name="uni021B" unicode="&#x21b;" horiz-adv-x="657" 
d="M88 1423h416v-364h244v-320h-244v-327q0 -71 31.5 -103.5t80.5 -32.5q42 0 95 29l86 -262q-52 -32 -138.5 -54t-177.5 -22q-77 0 -138.5 13.5t-102 34.5t-70 55.5t-45 67.5t-24.5 80.5t-11 84.5t-2 88v1032zM313 -88l-127 -449l138 -65q120 131 194 260q45 74 45 127
q0 33 -18 57t-41.5 36.5t-63 20t-64 9.5t-63.5 4z" />
    <glyph glyph-name="dotlessj" unicode="&#x237;" horiz-adv-x="577" 
d="M92 8v1051h412v-1092q0 -50 -2 -87t-10.5 -84.5t-23.5 -81t-43 -68.5t-66.5 -56.5t-95.5 -35t-130 -13.5q-85 0 -181 23.5t-165 62.5l102 281q71 -31 115 -31q88 0 88 131z" />
    <glyph glyph-name="apostrophe" unicode="&#x2bc;" horiz-adv-x="516" 
d="M139 973l68 475q58 8 88 8q147 0 147 -113q0 -68 -58 -188.5t-122 -220.5z" />
    <glyph glyph-name="circumflex" unicode="&#x2c6;" horiz-adv-x="1024" 
d="M248 1153l-127 102q40 61 110 154.5t125 155.5q50 56 77.5 73t74.5 17q50 0 75 -16.5t76 -73.5q114 -128 242 -308l-127 -104l-266 219z" />
    <glyph glyph-name="caron" unicode="&#x2c7;" horiz-adv-x="1024" 
d="M772 1655l129 -103q-39 -60 -109 -153t-126 -156q-50 -56 -77.5 -73t-74.5 -17q-51 0 -78 17t-76 73q-125 145 -241 307l129 105l266 -219z" />
    <glyph glyph-name="uni02C9" unicode="&#x2c9;" horiz-adv-x="1024" 
d="M164 1241v266h696v-266h-696z" />
    <glyph glyph-name="breve" unicode="&#x2d8;" horiz-adv-x="1024" 
d="M696 1585l203 -57q-20 -68 -50 -123.5t-75.5 -104.5t-113.5 -76.5t-152 -27.5q-73 0 -134.5 20.5t-102.5 52.5t-73.5 77.5t-50.5 89t-30 92.5l211 57q36 -86 76.5 -120.5t111.5 -34.5q64 0 104 35.5t76 119.5z" />
    <glyph glyph-name="dotaccent" unicode="&#x2d9;" horiz-adv-x="1024" 
d="M301 1362q0 82 57.5 139.5t151.5 57.5t153.5 -57.5t59.5 -139.5q0 -84 -58.5 -139.5t-152.5 -55.5q-96 0 -153.5 55t-57.5 140z" />
    <glyph glyph-name="ring" unicode="&#x2da;" horiz-adv-x="1024" 
d="M289 1391q0 93 63.5 154t159.5 61q104 0 163.5 -58.5t59.5 -146.5q0 -97 -63 -160t-164 -63q-103 0 -161 60t-58 153zM446 1391q0 -33 17 -52.5t49 -19.5q31 0 48.5 20t17.5 52q0 71 -66 71t-66 -71z" />
    <glyph glyph-name="ogonek" unicode="&#x2db;" horiz-adv-x="1024" 
d="M432 4l242 -2q-57 -45 -102.5 -113.5t-45.5 -117.5q0 -64 68 -64q46 0 96 23l68 -197q-35 -21 -96.5 -35t-126.5 -14q-136 0 -203.5 61.5t-67.5 155.5q0 155 168 303z" />
    <glyph glyph-name="tilde" unicode="&#x2dc;" horiz-adv-x="1024" 
d="M215 1249l-27 217q91 68 185 68q59 0 154 -28.5t143 -28.5q66 0 137 41l20 -232q-68 -41 -147 -41q-49 0 -154 24.5t-147 24.5q-84 0 -164 -45z" />
    <glyph glyph-name="hungarumlaut" unicode="&#x2dd;" horiz-adv-x="1024" 
d="M47 1249l266 441q213 -65 213 -183q0 -57 -77 -131q-62 -60 -151 -127t-138 -94zM485 1249l271 441q33 -9 65.5 -23t66.5 -36.5t55.5 -54.5t21.5 -69q0 -56 -78 -131q-62 -60 -151 -127t-138 -94z" />
    <glyph glyph-name="uni0394" unicode="&#x394;" horiz-adv-x="1388" 
d="M1389 0h-1389l492 1346h409zM881 311l-183 590h-12l-178 -590h373z" />
    <glyph glyph-name="uni03A9" unicode="&#x3a9;" horiz-adv-x="1552" 
d="M528 678q0 -268 183 -397v-281h-650v371h218q-91 79 -137 169t-46 203q0 140 52.5 255t144 191t215.5 117.5t268 41.5q327 0 507.5 -146t180.5 -424q0 -115 -57 -225.5t-137 -181.5h221v-371h-614v281q73 67 115 156.5t42 228.5q0 152 -66 241.5t-184 89.5
q-52 0 -94.5 -15t-80.5 -49t-59.5 -99t-21.5 -156z" />
    <glyph glyph-name="uni03BC" unicode="&#x3bc;" horiz-adv-x="1177" 
d="M1069 1059v-758q0 -32 11 -47.5t38 -15.5q19 0 43 6l29 -221q-103 -50 -219 -50q-145 0 -201 129q-18 -66 -62 -101.5t-102 -35.5q-14 0 -26 1.5t-23 5t-19.5 6.5t-17.5 9t-14 9.5t-12 10.5l-9.5 9.5t-8.5 9.5l-7 7v-475h-360v1501h380v-666q0 -73 22.5 -108t74.5 -35
q42 0 70 46.5t28 129.5v633h385z" />
    <glyph glyph-name="pi" unicode="&#x3c0;" horiz-adv-x="1316" 
d="M1257 739h-141v-401q0 -47 11.5 -65.5t39.5 -18.5q19 0 64 10l45 -229q-110 -58 -262 -58q-79 0 -135.5 23t-86.5 64.5t-43.5 89t-13.5 104.5v481h-131v-739h-381v739h-141v320h1175v-320z" />
    <glyph glyph-name="Wgrave" unicode="&#x1e80;" horiz-adv-x="1685" 
d="M997 0l-127 627h-12l-135 -627h-442l-281 1362h426l121 -758h6l117 660h403l98 -623h11l80 721h424l-256 -1362h-433zM752 1894l372 -356l-86 -117q-58 19 -158 61t-175 83q-64 36 -87.5 67t-23.5 74q0 49 45 99t113 89z" />
    <glyph glyph-name="wgrave" unicode="&#x1e81;" horiz-adv-x="1585" 
d="M1067 1059h408q29 -103 47 -239t18 -247q0 -290 -121.5 -445t-353.5 -155q-103 0 -167.5 31t-115.5 88q-122 -119 -309 -119q-189 0 -289 96t-100 285v705h414v-703q0 -38 9.5 -53.5t35.5 -15.5q53 0 53 84v688h410v-697q0 -29 1.5 -41.5t10.5 -23t29 -10.5q43 0 64.5 77
t21.5 203q0 103 -19 240t-47 252zM764 1690l268 -441l-112 -94q-48 27 -138 94t-153 127q-76 76 -76 131q0 37 21.5 69.5t56.5 54.5t67.5 36t65.5 23z" />
    <glyph glyph-name="Wacute" unicode="&#x1e82;" horiz-adv-x="1685" 
d="M997 0l-127 627h-12l-135 -627h-442l-281 1362h426l121 -758h6l117 660h403l98 -623h11l80 721h424l-256 -1362h-433zM594 1540l373 358q67 -38 112 -89.5t45 -100.5q0 -43 -23 -74.5t-87 -66.5q-76 -41 -176.5 -83.5t-157.5 -60.5z" />
    <glyph glyph-name="wacute" unicode="&#x1e83;" horiz-adv-x="1585" 
d="M1067 1059h408q29 -103 47 -239t18 -247q0 -290 -121.5 -445t-353.5 -155q-103 0 -167.5 31t-115.5 88q-122 -119 -309 -119q-189 0 -289 96t-100 285v705h414v-703q0 -38 9.5 -53.5t35.5 -15.5q53 0 53 84v688h410v-697q0 -29 1.5 -41.5t10.5 -23t29 -10.5q43 0 64.5 77
t21.5 203q0 103 -19 240t-47 252zM557 1249l266 441q33 -9 65.5 -23t67.5 -36t56.5 -54.5t21.5 -69.5q0 -55 -76 -131q-63 -61 -152.5 -127.5t-137.5 -93.5z" />
    <glyph glyph-name="Wdieresis" unicode="&#x1e84;" horiz-adv-x="1685" 
d="M997 0l-127 627h-12l-135 -627h-442l-281 1362h426l121 -758h6l117 660h403l98 -623h11l80 721h424l-256 -1362h-433zM899 1608q0 70 48.5 118t129.5 48q80 0 129 -48t49 -118q0 -71 -49 -117.5t-129 -46.5q-81 0 -129.5 46.5t-48.5 117.5zM424 1608q0 70 48.5 118
t129.5 48q80 0 129 -48t49 -118q0 -71 -49 -117.5t-129 -46.5q-81 0 -129.5 46.5t-48.5 117.5z" />
    <glyph glyph-name="wdieresis" unicode="&#x1e85;" horiz-adv-x="1585" 
d="M1067 1059h408q29 -103 47 -239t18 -247q0 -290 -121.5 -445t-353.5 -155q-103 0 -167.5 31t-115.5 88q-122 -119 -309 -119q-189 0 -289 96t-100 285v705h414v-703q0 -38 9.5 -53.5t35.5 -15.5q53 0 53 84v688h410v-697q0 -29 1.5 -41.5t10.5 -23t29 -10.5q43 0 64.5 77
t21.5 203q0 103 -19 240t-47 252zM842 1376q0 70 48.5 117t129.5 47q80 0 129 -47.5t49 -116.5q0 -71 -49 -117.5t-129 -46.5q-81 0 -129.5 46.5t-48.5 117.5zM385 1376q0 70 48.5 117t129.5 47q80 0 129 -47.5t49 -116.5q0 -71 -49 -117.5t-129 -46.5q-81 0 -129.5 46.5
t-48.5 117.5z" />
    <glyph glyph-name="Ygrave" unicode="&#x1ef2;" horiz-adv-x="1280" 
d="M858 1362h442l-458 -836v-526h-426v524l-436 838h464l191 -444h8zM539 1894l372 -356l-86 -117q-58 19 -158 61t-175 83q-64 36 -87.5 67t-23.5 74q0 49 45 99t113 89z" />
    <glyph glyph-name="ygrave" unicode="&#x1ef3;" horiz-adv-x="1107" 
d="M1036 303q0 -230 -2 -287q-12 -274 -144 -417.5t-382 -143.5q-180 0 -276.5 78t-96.5 215q0 199 193 346q-130 28 -187 108t-57 216v641h414v-633q0 -58 10.5 -82.5t46.5 -24.5q24 0 45 27.5t21 73.5v639h415v-756zM489 -172q0 -80 68 -80q41 0 57.5 29.5t16.5 97.5v205
q-53 -41 -97.5 -107.5t-44.5 -144.5zM532 1690l269 -441l-113 -94q-48 27 -138 94t-153 127q-75 75 -75 131q0 37 21.5 69.5t56 54.5t67 36t65.5 23z" />
    <glyph glyph-name="endash" unicode="&#x2013;" horiz-adv-x="1024" 
d="M0 424v254h1024v-254h-1024z" />
    <glyph glyph-name="emdash" unicode="&#x2014;" horiz-adv-x="2048" 
d="M0 424v254h2048v-254h-2048z" />
    <glyph glyph-name="quoteleft" unicode="&#x2018;" horiz-adv-x="542" 
d="M403 913q-62 -10 -120 -10q-39 0 -73.5 7t-67 22.5t-51.5 46t-19 72.5q0 97 74.5 234t156.5 239l205 -76z" />
    <glyph glyph-name="quoteright" unicode="&#x2019;" horiz-adv-x="546" 
d="M152 1491q50 12 139 12q90 2 147.5 -31t57.5 -112q0 -90 -74.5 -237.5t-140.5 -239.5l-209 65z" />
    <glyph glyph-name="quotesinglbase" unicode="&#x201a;" horiz-adv-x="489" 
d="M467 145l-234 -507l-210 67q34 328 71 459q23 102 137 102q63 0 129.5 -39.5t106.5 -81.5z" />
    <glyph glyph-name="quotedblleft" unicode="&#x201c;" horiz-adv-x="983" 
d="M403 913q-62 -10 -120 -10q-39 0 -73.5 7t-67 22.5t-51.5 46t-19 72.5q0 97 74.5 234t156.5 239l205 -76zM844 913q-62 -10 -121 -10q-39 0 -73.5 7t-67 22.5t-51.5 46t-19 72.5q0 97 74.5 234t156.5 239l205 -76z" />
    <glyph glyph-name="quotedblright" unicode="&#x201d;" horiz-adv-x="987" 
d="M152 1491q50 12 139 12q90 2 147.5 -31t57.5 -112q0 -90 -74.5 -237.5t-140.5 -239.5l-209 65zM592 1491q50 12 139 12q90 2 147.5 -31t57.5 -112q0 -90 -74.5 -237.5t-140.5 -239.5l-209 65z" />
    <glyph glyph-name="quotedblbase" unicode="&#x201e;" horiz-adv-x="929" 
d="M467 145l-234 -507l-210 67q34 328 71 459q23 102 137 102q63 0 129.5 -39.5t106.5 -81.5zM907 145l-233 -507l-211 67q33 322 72 459q23 102 137 102q62 0 128.5 -39.5t106.5 -81.5z" />
    <glyph glyph-name="dagger" unicode="&#x2020;" horiz-adv-x="1013" 
d="M516 920h-18q-63 -63 -97 -127.5t-34 -116.5v-682q0 -90 36.5 -188t92.5 -160h20q60 65 94.5 162.5t34.5 185.5v682q0 53 -34 118t-95 126zM518 979h-20q-63 62 -97 129.5t-34 120.5q0 81 32 121.5t103 40.5q143 0 143 -162q0 -51 -33 -119t-94 -131zM537 936v20
q61 61 129.5 94t121.5 33q162 0 162 -143q0 -135 -162 -135q-52 0 -120 34t-131 97zM475 956v-20q-62 -63 -129.5 -97t-120.5 -34q-162 0 -162 135q0 143 162 143q51 0 120 -33t130 -94z" />
    <glyph glyph-name="daggerdbl" unicode="&#x2021;" horiz-adv-x="1013" 
d="M518 20h-20q-63 -62 -97 -129.5t-34 -119.5q0 -81 32 -121.5t103 -40.5q143 0 143 162q0 51 -33 118.5t-94 130.5zM537 63v-20q61 -61 129.5 -94t121.5 -33q162 0 162 143q0 136 -162 136q-52 0 -120 -34.5t-131 -97.5zM475 43v20q-62 63 -130 97.5t-120 34.5
q-162 0 -162 -136q0 -143 162 -143q51 0 120 33t130 94zM516 920h-18q-63 -63 -97 -127.5t-34 -116.5v-342q0 -54 34 -119.5t95 -126.5h20q62 59 95.5 125.5t33.5 120.5v342q0 53 -34 118t-95 126zM518 979h-20q-63 62 -97 129.5t-34 120.5q0 81 32 121.5t103 40.5
q143 0 143 -162q0 -51 -33 -119t-94 -131zM537 936v20q61 61 129.5 94t121.5 33q162 0 162 -143q0 -135 -162 -135q-52 0 -120 34t-131 97zM475 956v-20q-62 -63 -129.5 -97t-120.5 -34q-162 0 -162 135q0 143 162 143q51 0 120 -33t130 -94z" />
    <glyph glyph-name="bullet" unicode="&#x2022;" horiz-adv-x="1024" 
d="M229 649q0 133 80.5 217t202.5 84q124 0 203.5 -84t79.5 -217t-79.5 -216t-203.5 -83t-203.5 81.5t-79.5 217.5z" />
    <glyph glyph-name="ellipsis" unicode="&#x2026;" horiz-adv-x="1744" 
d="M688 143q0 77 49.5 128t136.5 51q94 0 143.5 -47.5t49.5 -129.5q0 -79 -48 -130.5t-138 -51.5q-94 0 -143.5 50t-49.5 130zM1264 143q0 77 49.5 128t136.5 51q94 0 143 -47.5t49 -129.5q0 -79 -48 -130.5t-138 -51.5q-94 0 -143 50t-49 130zM102 143q0 77 49.5 128
t137.5 51q94 0 143 -47.5t49 -129.5q0 -79 -48 -130.5t-138 -51.5q-94 0 -143.5 50t-49.5 130z" />
    <glyph glyph-name="perthousand" unicode="&#x2030;" horiz-adv-x="2013" 
d="M1659 590q130 0 211.5 -77t81.5 -232q0 -163 -82.5 -240.5t-220.5 -77.5q-139 0 -214 78t-75 238q0 156 84.5 233.5t214.5 77.5zM1651 127q30 0 44.5 31.5t14.5 120.5q0 86 -12.5 115.5t-42.5 29.5q-29 0 -41 -31.5t-12 -124.5q0 -79 11.5 -110t37.5 -31zM1026 590
q130 0 211.5 -77t81.5 -232q0 -163 -82 -240.5t-219 -77.5q-140 0 -215.5 78t-75.5 238q0 156 84.5 233.5t214.5 77.5zM1018 127q30 0 44.5 31.5t14.5 120.5q0 86 -12.5 115.5t-42.5 29.5q-29 0 -41 -31.5t-12 -124.5q0 -79 11.5 -110t37.5 -31zM360 1346q129 0 210 -78.5
t81 -233.5q0 -162 -81.5 -238.5t-219.5 -76.5q-289 0 -289 315q0 157 84 234.5t215 77.5zM352 881q31 0 45.5 31t14.5 120q0 85 -13.5 115.5t-42.5 30.5q-30 0 -42.5 -31.5t-12.5 -124.5q0 -77 12.5 -109t38.5 -32zM305 166l-170 207l903 751l174 -206z" />
    <glyph glyph-name="guilsinglleft" unicode="&#x2039;" horiz-adv-x="741" 
d="M682 840l-209 -305l195 -320l-146 -135q-105 71 -237.5 192.5t-175.5 200.5q-19 36 -19 76q0 37 18.5 67.5t55.5 65.5q188 176 366 305z" />
    <glyph glyph-name="guilsinglright" unicode="&#x203a;" horiz-adv-x="741" 
d="M268 535l-209 305l152 147q182 -132 367 -305q73 -70 73 -133q0 -42 -18 -76q-43 -79 -175.5 -200t-238.5 -193l-145 135z" />
    <glyph glyph-name="fraction" unicode="&#x2044;" horiz-adv-x="389" 
d="M14 -39l-245 107l598 1280l249 -103z" />
    <glyph glyph-name="zerosuperior" unicode="&#x2070;" horiz-adv-x="772" 
d="M391 1509q73 0 133.5 -22t109.5 -68t76 -126t27 -189q0 -206 -96 -311t-260 -105q-162 0 -255 100.5t-93 309.5q0 202 99.5 306.5t258.5 104.5zM385 897q86 0 86 205q0 201 -86 201q-88 0 -88 -211q0 -100 20.5 -147.5t67.5 -47.5z" />
    <glyph glyph-name="foursuperior" unicode="&#x2074;" horiz-adv-x="772" 
d="M475 1237h156v-193h96v-190h-98v-156h-271v160h-311v139l248 533l221 -105l-194 -381h73z" />
    <glyph glyph-name="fivesuperior" unicode="&#x2075;" horiz-adv-x="772" 
d="M150 1057l57 440h444v-201h-268l-10 -75q157 -10 241 -69.5t84 -186.5q0 -43 -10 -81t-34 -74.5t-61 -63t-95.5 -42.5t-132.5 -16q-83 0 -165.5 25t-107.5 47l72 192q36 -21 89.5 -38t96.5 -17q78 0 78 61q0 28 -19.5 47.5t-58.5 30.5t-86.5 15.5t-113.5 5.5z" />
    <glyph glyph-name="sixsuperior" unicode="&#x2076;" horiz-adv-x="772" 
d="M530 1538l54 -190q-119 -16 -180 -49.5t-87 -112.5q71 47 166 47q103 0 168.5 -66t65.5 -186q0 -130 -85.5 -211.5t-240.5 -81.5q-153 0 -238 94.5t-85 268.5q0 70 13.5 133t47 125t84.5 109t132.5 79.5t184.5 40.5zM473 963q0 92 -76 92q-33 0 -75 -25q-1 -36 4.5 -66
t26 -54.5t55.5 -24.5q30 0 47.5 20.5t17.5 57.5z" />
    <glyph glyph-name="sevensuperior" unicode="&#x2077;" horiz-adv-x="772" 
d="M117 1296v201h606v-162q-126 -104 -185 -249t-59 -345v-43h-262v54q0 166 42 299t140 245h-282z" />
    <glyph glyph-name="eightsuperior" unicode="&#x2078;" horiz-adv-x="772" 
d="M86 905q0 83 42.5 136t104.5 81q-47 19 -83.5 62.5t-36.5 113.5q0 85 72.5 148t209.5 63q80 0 137.5 -18t86 -48.5t41 -62t12.5 -65.5q0 -45 -17.5 -81.5t-36.5 -55t-51 -41.5q135 -82 135 -211q0 -44 -16 -84.5t-50.5 -76t-97 -56.5t-147.5 -21q-84 0 -145.5 18.5
t-95 50.5t-49 69t-15.5 79zM457 922q0 23 -20 45t-46 34q-59 -36 -59 -83q0 -25 14 -42.5t45 -17.5q33 0 49.5 19t16.5 45zM391 1356q-51 0 -51 -51q0 -17 16.5 -41t42.5 -35q17 11 30 33.5t13 44.5q0 19 -11 34t-40 15z" />
    <glyph glyph-name="ninesuperior" unicode="&#x2079;" horiz-adv-x="772" 
d="M229 653l-53 197q107 15 183 56t92 108q-73 -49 -175 -49t-166.5 66t-64.5 186q0 130 84.5 211t239.5 81q154 0 239.5 -94.5t85.5 -267.5q0 -71 -12 -132.5t-44.5 -123.5t-83.5 -108.5t-134 -81.5t-191 -48zM287 1237q0 -96 75 -96q10 0 18.5 1t18 4t13.5 4.5t15 6.5
t13 6q0 25 -3.5 48t-12 47.5t-27 39.5t-43.5 15q-30 0 -48.5 -20t-18.5 -56z" />
    <glyph glyph-name="zeroinferior" unicode="&#x2080;" horiz-adv-x="772" 
d="M391 647q73 0 133.5 -22t109.5 -68t76 -126t27 -189q0 -206 -96 -311t-260 -105q-162 0 -255 100.5t-93 309.5q0 202 99.5 306.5t258.5 104.5zM385 35q86 0 86 205q0 200 -86 200q-88 0 -88 -211q0 -100 20.5 -147t67.5 -47z" />
    <glyph glyph-name="oneinferior" unicode="&#x2081;" horiz-adv-x="772" 
d="M135 49h141v303l-135 -51l-84 170l283 164h227l-16 -178v-408h127v-213h-543v213z" />
    <glyph glyph-name="twoinferior" unicode="&#x2082;" horiz-adv-x="772" 
d="M201 330l-148 168q159 149 342 149q144 0 219.5 -62.5t75.5 -170.5q0 -74 -33 -134.5t-100 -127.5l-90 -93h240v-223h-617v164l246 268q30 33 41.5 54t11.5 45q0 23 -12 35t-31 12q-51 0 -145 -84z" />
    <glyph glyph-name="threeinferior" unicode="&#x2083;" horiz-adv-x="772" 
d="M188 362l-118 158q46 42 141.5 84.5t210.5 42.5q121 0 191.5 -56.5t70.5 -146.5q0 -48 -25 -93.5t-73 -76.5q108 -79 108 -190q0 -110 -81.5 -184t-241.5 -74q-142 0 -293 72l69 190q102 -57 201 -57q68 0 68 43q0 20 -31 80q-41 -13 -152 -29l-51 162q123 25 168 43
q53 21 53 61q0 39 -45 39q-57 0 -170 -68z" />
    <glyph glyph-name="fourinferior" unicode="&#x2084;" horiz-adv-x="772" 
d="M475 375h156v-193h96v-190h-98v-156h-271v160h-311v139l248 533l221 -105l-194 -381h73z" />
    <glyph glyph-name="fiveinferior" unicode="&#x2085;" horiz-adv-x="772" 
d="M150 195l57 440h444v-201h-268l-10 -76q157 -10 241 -69.5t84 -186.5q0 -54 -16.5 -100.5t-53 -87.5t-104 -64.5t-159.5 -23.5q-83 0 -165.5 25t-107.5 47l72 192q36 -21 89.5 -38t96.5 -17q78 0 78 61q0 28 -19.5 47.5t-58.5 30.5t-86.5 15.5t-113.5 5.5z" />
    <glyph glyph-name="sixinferior" unicode="&#x2086;" horiz-adv-x="772" 
d="M530 676l54 -191q-120 -16 -180.5 -49t-86.5 -112q71 47 166 47q103 0 168.5 -66t65.5 -186q0 -130 -85.5 -211.5t-240.5 -81.5q-153 0 -238 94t-85 268q0 70 13.5 133t47 125.5t84.5 109t132.5 79.5t184.5 41zM473 100q0 93 -76 93q-33 0 -75 -25q-1 -36 4.5 -66
t26 -54.5t55.5 -24.5q30 0 47.5 20t17.5 57z" />
    <glyph glyph-name="seveninferior" unicode="&#x2087;" horiz-adv-x="772" 
d="M117 434v201h606v-162q-126 -104 -185 -249t-59 -345v-43h-262v53q0 166 42 299.5t140 245.5h-282z" />
    <glyph glyph-name="eightinferior" unicode="&#x2088;" horiz-adv-x="772" 
d="M86 43q0 83 42.5 136t104.5 81q-47 19 -83.5 62.5t-36.5 113.5q0 85 72.5 148t209.5 63q80 0 137.5 -18t86 -48.5t41 -62t12.5 -65.5q0 -45 -17 -81.5t-36.5 -55.5t-51.5 -42q135 -82 135 -211q0 -44 -16 -84t-50.5 -75.5t-97 -56.5t-147.5 -21q-84 0 -145.5 18.5
t-95 50.5t-49 69t-15.5 79zM457 59q0 23 -20 45.5t-46 34.5q-59 -36 -59 -84q0 -25 14 -42t45 -17q33 0 49.5 18.5t16.5 44.5zM391 494q-26 0 -38.5 -15t-12.5 -37q0 -17 16.5 -40.5t42.5 -34.5q18 11 30.5 33.5t12.5 43.5q0 19 -11.5 34.5t-39.5 15.5z" />
    <glyph glyph-name="nineinferior" unicode="&#x2089;" horiz-adv-x="772" 
d="M229 -209l-53 197q107 15 183 56t92 108q-74 -50 -175 -50q-102 0 -166.5 66t-64.5 186q0 131 84.5 212t239.5 81q154 0 239.5 -94.5t85.5 -267.5q0 -71 -12 -132.5t-44.5 -123.5t-83.5 -108.5t-134 -81.5t-191 -48zM287 375q0 -96 75 -96q10 0 18.5 1t18 4t13.5 4.5
t15 6.5t13 6q0 25 -3.5 48t-12 47.5t-27 39.5t-43.5 15q-30 0 -48.5 -20t-18.5 -56z" />
    <glyph glyph-name="Euro" unicode="&#x20ac;" 
d="M51 512v301h180q-79 75 -79 178q0 164 120.5 259.5t345.5 95.5q117 0 242.5 -51t222.5 -158l-202 -228q-77 62 -129 87.5t-119 25.5q-55 0 -88 -24.5t-33 -77.5q0 -48 37 -77.5t117 -29.5h249v-301h-243q-164 0 -164 -117q0 -110 149 -110q70 0 134 22.5t155 83.5
l148 -266q-217 -160 -496 -160q-235 0 -346 91.5t-111 248.5q0 117 82 207h-172z" />
    <glyph glyph-name="trademark" unicode="&#x2122;" horiz-adv-x="1454" 
d="M43 1362h586v-205h-176v-483h-242v483h-168v205zM1145 1362h239l33 -688h-215l-8 289h-8l-62 -224h-168l-67 224l-6 2l-11 -291h-213l37 688h242l100 -350h6z" />
    <glyph glyph-name="Omega" unicode="&#x2126;" horiz-adv-x="1552" 
d="M528 678q0 -268 183 -397v-281h-650v371h218q-91 79 -137 169t-46 203q0 140 52.5 255t144 191t215.5 117.5t268 41.5q327 0 507.5 -146t180.5 -424q0 -115 -57 -225.5t-137 -181.5h221v-371h-614v281q73 67 115 156.5t42 228.5q0 152 -66 241.5t-184 89.5
q-52 0 -94.5 -15t-80.5 -49t-59.5 -99t-21.5 -156z" />
    <glyph glyph-name="onethird" unicode="&#x2153;" horiz-adv-x="1792" 
d="M113 748h141v303l-135 -52l-84 170l282 164h228l-17 -178v-407h127v-213h-542v213zM727 -39l-246 107l598 1280l250 -103zM1251 526l-118 158q46 42 141.5 84.5t210.5 42.5q121 0 191.5 -56.5t70.5 -146.5q0 -48 -25 -93.5t-73 -76.5q108 -79 108 -190q0 -110 -81.5 -184
t-241.5 -74q-144 0 -293 71l69 191q102 -57 201 -57q68 0 68 43q0 19 -31 79q-35 -11 -152 -28l-51 162q123 25 168 43q53 21 53 61q0 39 -45 39q-57 0 -170 -68z" />
    <glyph glyph-name="twothirds" unicode="&#x2154;" horiz-adv-x="1792" 
d="M147 1028l-147 168q160 150 342 150q144 0 219.5 -62.5t75.5 -171.5q0 -74 -33 -134.5t-100 -127.5l-90 -92h239v-223h-616v163l246 269q30 33 41.5 53.5t11.5 44.5q0 23 -12 35t-31 12q-23 0 -63 -22.5t-83 -61.5zM739 -39l-245 107l598 1280l249 -103zM1253 526
l-118 158q46 42 141.5 84.5t210.5 42.5q121 0 191.5 -56.5t70.5 -146.5q0 -48 -25 -93.5t-73 -76.5q108 -79 108 -190q0 -110 -81.5 -184t-241.5 -74q-144 0 -293 71l69 191q102 -57 201 -57q68 0 68 43q0 19 -31 79q-35 -11 -152 -28l-51 162q123 25 168 43q53 21 53 61
q0 39 -45 39q-57 0 -170 -68z" />
    <glyph glyph-name="oneeighth" unicode="&#x215b;" horiz-adv-x="1792" 
d="M102 748h142v303l-135 -52l-84 170l282 164h228l-17 -178v-407h127v-213h-543v213zM735 -39l-246 107l598 1280l250 -103zM1139 207q0 83 42.5 136t104.5 81q-47 19 -84 62.5t-37 113.5q0 85 73 148t210 63q80 0 137.5 -18.5t86 -49t40.5 -62t12 -65.5q0 -45 -17 -81
t-36 -55t-51 -42q135 -82 135 -211q0 -44 -16 -84t-50.5 -75.5t-97 -56.5t-147.5 -21q-84 0 -145.5 18.5t-95 50.5t-49 69t-15.5 79zM1509 223q0 23 -20 46t-45 34q-60 -36 -60 -84q0 -25 14.5 -42t45.5 -17q33 0 49 18.5t16 44.5zM1444 657q-51 0 -51 -51q0 -17 16.5 -41
t42.5 -35q17 11 30 33.5t13 44.5q0 19 -11 34t-40 15z" />
    <glyph glyph-name="threeeighths" unicode="&#x215c;" horiz-adv-x="1792" 
d="M150 1061l-119 158q46 42 141.5 84.5t210.5 42.5q121 0 191.5 -56.5t70.5 -146.5q0 -48 -25 -93.5t-73 -76.5q108 -79 108 -191q0 -110 -81.5 -184t-241.5 -74q-142 0 -293 72l70 190q102 -57 200 -57q68 0 68 43q0 20 -31 80q-42 -13 -151 -29l-52 162q123 25 168 43
q54 21 54 62q0 38 -46 38q-57 0 -169 -67zM711 -39l-246 107l598 1280l250 -103zM1133 207q0 83 42.5 136t104.5 81q-47 19 -84 62.5t-37 113.5q0 85 73 148t210 63q80 0 137.5 -18.5t86 -49t40.5 -62t12 -65.5q0 -45 -17 -81t-36 -55t-51 -42q135 -82 135 -211
q0 -44 -16 -84t-50.5 -75.5t-97 -56.5t-147.5 -21q-84 0 -145.5 18.5t-95 50.5t-49 69t-15.5 79zM1503 223q0 23 -20 46t-45 34q-60 -36 -60 -84q0 -25 14.5 -42t45.5 -17q33 0 49 18.5t16 44.5zM1438 657q-26 0 -39 -14.5t-13 -36.5q0 -17 17 -41t43 -35q17 11 30 33.5
t13 44.5q0 19 -11 34t-40 15z" />
    <glyph glyph-name="fiveeighths" unicode="&#x215d;" horiz-adv-x="1792" 
d="M115 893l57 440h444v-200h-268l-10 -76q158 -10 242 -69.5t84 -186.5q0 -54 -17 -101t-53.5 -88t-104 -64.5t-159.5 -23.5q-83 0 -165.5 25t-107.5 47l72 192q36 -21 89.5 -38t96.5 -17q78 0 78 62q0 28 -19.5 47.5t-58.5 30t-86.5 15t-113.5 5.5zM709 -39l-246 107
l598 1280l250 -103zM1102 207q0 83 42.5 136t104.5 81q-47 19 -84 62.5t-37 113.5q0 85 73 148t210 63q80 0 137.5 -18.5t86 -49t41 -62t12.5 -65.5q0 -45 -17.5 -81.5t-36.5 -55t-51 -41.5q135 -82 135 -211q0 -44 -16 -84t-50.5 -75.5t-97 -56.5t-147.5 -21
q-84 0 -145.5 18.5t-95 50.5t-49 69t-15.5 79zM1473 223q0 23 -20 45.5t-46 34.5q-59 -36 -59 -84q0 -25 14 -42t45 -17q33 0 49.5 18.5t16.5 44.5zM1407 657q-51 0 -51 -51q0 -17 16.5 -41t42.5 -35q17 11 30 33.5t13 44.5q0 19 -11 34t-40 15z" />
    <glyph glyph-name="seveneighths" unicode="&#x215e;" horiz-adv-x="1792" 
d="M90 1133v200h606v-162q-125 -104 -184 -248.5t-59 -344.5v-43h-263v53q0 165 42 299t141 246h-283zM641 -39l-246 107l598 1280l250 -103zM1071 207q0 83 42.5 136t105.5 81q-47 19 -84 62.5t-37 113.5q0 85 72.5 148t209.5 63q80 0 137.5 -18.5t86 -49t41 -62
t12.5 -65.5q0 -45 -17.5 -81.5t-36.5 -55t-51 -41.5q136 -83 136 -211q0 -44 -16 -84t-50.5 -75.5t-97.5 -56.5t-148 -21q-84 0 -145.5 18.5t-95 50.5t-49 69t-15.5 79zM1442 223q0 23 -20 45.5t-46 34.5q-59 -36 -59 -84q0 -25 14 -42t45 -17q33 0 49.5 18.5t16.5 44.5z
M1376 657q-51 0 -51 -51q0 -17 16.5 -41t42.5 -35q17 11 30 33.5t13 44.5q0 19 -11 34t-40 15z" />
    <glyph glyph-name="partialdiff" unicode="&#x2202;" horiz-adv-x="1161" 
d="M223 1092l80 284q211 -35 359 -107.5t233.5 -179.5t123.5 -236.5t38 -295.5q0 -99 -15 -183.5t-51 -161.5t-91.5 -130.5t-140.5 -85t-194 -31.5q-127 0 -221.5 36t-150 100.5t-82.5 146t-27 180.5q0 201 114.5 326t295.5 125q81 0 184 -43l4 8q-27 57 -106.5 110.5
t-172 88t-180.5 49.5zM567 250q105 0 105 248q0 46 -2 73q-54 29 -95 29q-100 0 -100 -178q0 -172 92 -172z" />
    <glyph glyph-name="Delta" unicode="&#x2206;" horiz-adv-x="1388" 
d="M1389 0h-1389l492 1346h409zM881 311l-183 590h-12l-178 -590h373z" />
    <glyph glyph-name="product" unicode="&#x220f;" horiz-adv-x="1427" 
d="M1325 -270h-430v1243h-363v-1243h-430v1616h1223v-1616z" />
    <glyph glyph-name="summation" unicode="&#x2211;" horiz-adv-x="1161" 
d="M1149 -270h-1135v305l463 504l-446 501v306h1079v-373h-500l355 -438l-373 -433h557v-372z" />
    <glyph glyph-name="minus" unicode="&#x2212;" 
d="M963 791v-328h-830v328h830z" />
    <glyph glyph-name="uni2215" unicode="&#x2215;" horiz-adv-x="974" 
d="M381 -254l-346 125l583 1724l351 -120z" />
    <glyph glyph-name="uni2219" unicode="&#x2219;" horiz-adv-x="645" 
d="M131 741q0 78 49 128.5t137 50.5q94 0 143.5 -47.5t49.5 -129.5q0 -79 -48 -129.5t-138 -50.5q-95 0 -144 49t-49 129z" />
    <glyph glyph-name="radical" unicode="&#x221a;" horiz-adv-x="1419" 
d="M1511 1497l-538 -1526h-369l-242 695l-176 -86l-112 276l514 248l198 -602l328 995h397z" />
    <glyph glyph-name="infinity" unicode="&#x221e;" horiz-adv-x="1564" 
d="M1503 731q0 -157 -94 -257.5t-246 -100.5q-205 0 -377 176q-89 -91 -175 -135.5t-183 -44.5q-176 0 -271.5 95.5t-95.5 242.5q0 91 42.5 170t127 130.5t193.5 51.5q116 0 198 -46t166 -151q102 107 187.5 153t200.5 46q82 0 146.5 -28.5t103 -76t58 -105t19.5 -120.5z
M1180 715q0 30 -15.5 47.5t-44.5 17.5q-27 0 -48.5 -16.5t-49.5 -50.5q48 -66 98 -66q28 0 44 20t16 48zM547 711q-44 67 -94 67q-34 0 -52 -18.5t-18 -46.5q0 -30 18 -48t50 -18q52 0 96 64z" />
    <glyph glyph-name="integral" unicode="&#x222b;" horiz-adv-x="798" 
d="M811 1354l-37 -219q-101 24 -133 24q-43 0 -57.5 -31t-10.5 -110l54 -905q4 -70 4 -109q0 -161 -91 -241t-235 -80q-153 0 -299 51l37 219q105 -25 133 -25q42 0 57 31t11 107l-54 909q-4 70 -4 108q0 161 91 241.5t235 80.5q153 0 299 -51z" />
    <glyph glyph-name="approxequal" unicode="&#x2248;" horiz-adv-x="1478" 
d="M997 152q-71 0 -145 22.5t-124.5 49t-105.5 49t-92 22.5q-55 0 -104.5 -37t-116.5 -111l-231 201q37 50 61 80t66 72t79 66t88 41.5t105 17.5q60 0 127.5 -24t118.5 -53t115 -53t116 -24q105 0 215 150l236 -197q-68 -126 -171 -199t-237 -73zM997 727q-70 0 -144 22.5
t-124.5 50t-106 50t-92.5 22.5q-54 0 -103.5 -37t-115.5 -110l-233 199q40 53 62 80.5t65.5 71.5t79.5 67t87.5 41t106.5 18q59 0 126.5 -24t118.5 -52.5t115.5 -52.5t116.5 -24q107 0 215 147l234 -197q-67 -125 -170.5 -198.5t-237.5 -73.5z" />
    <glyph glyph-name="notequal" unicode="&#x2260;" 
d="M963 541v-328h-373l-29 -115h-323l28 115h-133v328h223l39 137h-262v328h352l37 129h307l-32 -129h166v-328h-252l-35 -137h287z" />
    <glyph glyph-name="lessequal" unicode="&#x2264;" 
d="M965 328v-328h-836v328h836zM997 1053l-397 -187l401 -198l-139 -306l-727 367v252l725 373z" />
    <glyph glyph-name="greaterequal" unicode="&#x2265;" 
d="M129 0v328h836v-328h-836zM494 866l-398 187l137 301l725 -373v-252l-727 -367l-139 306z" />
    <glyph glyph-name="lozenge" unicode="&#x25ca;" horiz-adv-x="1193" 
d="M1135 674l-379 -674h-305l-379 670l381 676h301zM737 676l-135 268l-131 -274l137 -275z" />
    <glyph glyph-name="onefifth" unicode="&#xf500;" horiz-adv-x="1792" 
d="M111 748h141v303l-135 -52l-84 170l282 164h228l-17 -178v-407h127v-213h-542v213zM756 -39l-246 107l598 1280l250 -103zM1182 358l57 441h444v-201h-268l-10 -76q158 -10 242 -69.5t84 -186.5q0 -54 -17 -100.5t-53.5 -87.5t-104 -64.5t-159.5 -23.5q-83 0 -165.5 24.5
t-107.5 46.5l72 193q36 -21 89.5 -38t96.5 -17q78 0 78 61q0 28 -19.5 47.5t-58.5 30t-86.5 15t-113.5 5.5z" />
    <glyph glyph-name="twofifths" unicode="&#xf501;" horiz-adv-x="1792" 
d="M178 1028l-147 168q160 150 342 150q144 0 219.5 -62.5t75.5 -171.5q0 -74 -33 -134.5t-100 -127.5l-91 -92h240v-223h-616v163l245 269q31 34 42.5 54t11.5 44q0 23 -12 35t-31 12q-23 0 -63 -22.5t-83 -61.5zM782 -39l-245 107l598 1280l249 -103zM1198 358l57 441h445
v-201h-268l-11 -76q158 -10 242 -69.5t84 -186.5q0 -54 -17 -100.5t-53.5 -87.5t-104 -64.5t-159.5 -23.5q-83 0 -165 24.5t-107 46.5l71 193q36 -21 90 -38t97 -17q78 0 78 61q0 55 -71 75.5t-208 22.5z" />
    <glyph glyph-name="threefifths" unicode="&#xf502;" horiz-adv-x="1792" 
d="M166 1061l-119 158q46 42 141.5 84.5t210.5 42.5q121 0 192 -57t71 -146q0 -47 -25.5 -93t-73.5 -77q52 -38 80.5 -88t28.5 -103q0 -110 -81.5 -184t-242.5 -74q-142 0 -293 72l70 190q102 -57 201 -57q67 0 67 43q0 20 -31 80q-42 -13 -151 -29l-51 162q123 25 168 43
q53 21 53 62q0 38 -45 38q-58 0 -170 -67zM743 -39l-245 107l598 1280l250 -103zM1194 358l57 441h445v-201h-269l-10 -76q158 -10 242 -69.5t84 -186.5q0 -54 -17 -100.5t-53.5 -87.5t-104 -64.5t-159.5 -23.5q-83 0 -165 24.5t-107 46.5l71 193q36 -21 90 -38t97 -17
q78 0 78 61q0 55 -71 75.5t-208 22.5z" />
    <glyph glyph-name="fourfifths" unicode="&#xf503;" horiz-adv-x="1792" 
d="M455 1073h155v-192h97v-191h-99v-155h-270v159h-311v140l247 532l222 -104l-195 -381h74zM766 -39l-246 107l598 1280l250 -103zM1214 358l58 441h444v-201h-268l-10 -76q157 -10 241 -69.5t84 -186.5q0 -54 -16.5 -100.5t-53 -87.5t-104 -64.5t-159.5 -23.5
q-83 0 -165.5 24.5t-107.5 46.5l72 193q36 -21 89.5 -38t96.5 -17q78 0 78 61q0 55 -71 75.5t-208 22.5z" />
    <glyph glyph-name="onesixth" unicode="&#xf504;" horiz-adv-x="1792" 
d="M100 748h142v303l-136 -52l-83 170l282 164h227l-16 -178v-407h127v-213h-543v213zM725 -39l-246 107l598 1280l250 -103zM1581 840l53 -191q-119 -16 -179.5 -49.5t-86.5 -112.5q73 48 166 48q102 0 167.5 -66t65.5 -186q0 -130 -85 -211.5t-240 -81.5q-153 0 -238.5 94
t-85.5 268q0 70 13.5 133t47 125.5t85 109t133 79.5t184.5 41zM1524 264q0 92 -76 92q-36 0 -76 -24q-1 -37 4.5 -67t26.5 -54.5t55 -24.5q30 0 48 20.5t18 57.5z" />
    <glyph glyph-name="fivesixths" unicode="&#xf505;" horiz-adv-x="1792" 
d="M733 -39l-246 107l598 1280l250 -103zM1581 840l53 -191q-119 -16 -179.5 -49.5t-86.5 -112.5q73 48 166 48q102 0 167.5 -66t65.5 -186q0 -130 -85 -211.5t-240 -81.5q-153 0 -238.5 94t-85.5 268q0 70 13.5 133t47 125.5t85 109t133 79.5t184.5 41zM1524 264
q0 92 -76 92q-36 0 -76 -24q-1 -37 4.5 -67t26.5 -54.5t55 -24.5q30 0 48 20.5t18 57.5zM115 893l57 440h444v-200h-268l-10 -76q158 -10 242 -69.5t84 -186.5q0 -54 -17 -101t-53.5 -88t-104 -64.5t-159.5 -23.5q-83 0 -165.5 25t-107.5 47l72 192q36 -21 89.5 -38
t96.5 -17q78 0 78 62q0 28 -19.5 47.5t-58.5 30t-86.5 15t-113.5 5.5z" />
    <glyph glyph-name="oneseventh" unicode="&#xf506;" horiz-adv-x="1792" 
d="M98 748h142v303l-136 -52l-84 170l283 164h227l-16 -178v-407h127v-213h-543v213zM713 -39l-246 107l598 1280l250 -103zM1176 598v201h606v-162q-126 -104 -185 -249t-59 -345v-43h-262v53q0 166 42 299.5t140 245.5h-282z" />
    <glyph glyph-name="twosevenths" unicode="&#xf507;" horiz-adv-x="1792" 
d="M166 1028l-148 168q160 150 342 150q144 0 219.5 -62.5t75.5 -171.5q0 -74 -33 -134.5t-100 -127.5l-90 -92h240v-223h-617v163l246 269q30 33 41.5 53.5t11.5 44.5q0 23 -12 35t-31 12q-51 0 -145 -84zM729 -39l-246 107l598 1280l250 -103zM1180 598v201h606v-162
q-126 -104 -185 -249t-59 -345v-43h-262v53q0 166 42 299.5t140 245.5h-282z" />
    <glyph glyph-name="threesevenths" unicode="&#xf508;" horiz-adv-x="1792" 
d="M166 1061l-119 158q46 42 141.5 84.5t210.5 42.5q121 0 192 -57t71 -146q0 -47 -25.5 -93t-73.5 -77q52 -38 80.5 -88t28.5 -103q0 -110 -81.5 -184t-242.5 -74q-142 0 -293 72l70 190q102 -57 201 -57q67 0 67 43q0 20 -31 80q-42 -13 -151 -29l-51 162q123 25 168 43
q53 21 53 62q0 38 -45 38q-58 0 -170 -67zM711 -39l-246 107l598 1280l250 -103zM1169 598v201h607v-162q-126 -104 -185 -249t-59 -345v-43h-262v53q0 166 42 299.5t140 245.5h-283z" />
    <glyph glyph-name="foursevenths" unicode="&#xf509;" horiz-adv-x="1792" 
d="M442 1073h156v-192h96v-191h-98v-155h-270v159h-312v140l248 532l221 -104l-194 -381h73zM735 -39l-246 107l598 1280l250 -103zM1178 598v201h606v-162q-126 -104 -185 -249t-59 -345v-43h-262v53q0 166 42 299.5t140 245.5h-282z" />
    <glyph glyph-name="fivesevenths" unicode="&#xf50a;" horiz-adv-x="1792" 
d="M111 893l57 440h444v-200h-268l-10 -76q157 -10 241 -69.5t84 -186.5q0 -43 -10 -81t-34 -74.5t-61 -63t-95.5 -42.5t-132.5 -16q-83 0 -165.5 25t-107.5 47l72 192q36 -21 89.5 -38t96.5 -17q78 0 78 62q0 28 -19.5 47.5t-58.5 30t-86.5 15t-113.5 5.5zM705 -39
l-246 107l598 1280l250 -103zM1163 598v201h606v-162q-125 -104 -184 -248.5t-59 -345.5v-43h-262v53q0 166 42 299.5t140 245.5h-283z" />
    <glyph glyph-name="sixsevenths" unicode="&#xf50b;" horiz-adv-x="1792" 
d="M506 1374l53 -190q-119 -16 -179.5 -49.5t-86.5 -112.5q71 47 166 47q102 0 167.5 -66t65.5 -186q0 -130 -85 -211.5t-240 -81.5q-153 0 -238.5 94.5t-85.5 268.5q0 70 13.5 133t47 125t85 109t133 79.5t184.5 40.5zM449 799q0 92 -76 92q-34 0 -76 -25q-1 -36 4.5 -66
t26 -54.5t55.5 -24.5q30 0 48 20.5t18 57.5zM719 -39l-246 107l598 1280l250 -103zM1171 598v201h607v-162q-126 -104 -185 -249t-59 -345v-43h-262v53q0 166 42 299.5t140 245.5h-283z" />
    <glyph glyph-name="oneninth" unicode="&#xf50c;" horiz-adv-x="1792" 
d="M113 748h141v303l-135 -52l-84 170l282 164h228l-17 -178v-407h127v-213h-542v213zM733 -39l-246 107l598 1280l250 -103zM1303 -45l-54 197q107 15 183 55.5t92 107.5q-73 -49 -174 -49q-102 0 -167 66t-65 186q0 131 84.5 212t239.5 81q154 0 239.5 -94.5t85.5 -267.5
q0 -438 -464 -494zM1360 539q0 -97 76 -97q12 0 24 2.5t18 5t19 8.5t16 7q0 25 -3.5 48t-12 47.5t-27 39t-43.5 14.5q-30 0 -48.5 -19.5t-18.5 -55.5z" />
    <glyph glyph-name="twoninths" unicode="&#xf50d;" horiz-adv-x="1792" 
d="M176 1028l-147 168q160 150 342 150q144 0 219.5 -62.5t75.5 -171.5q0 -73 -33.5 -134t-100.5 -128l-90 -92h240v-223h-616v163l245 269q31 34 42.5 54t11.5 44q0 23 -12 35t-31 12q-23 0 -63 -22.5t-83 -61.5zM754 -39l-246 107l598 1280l250 -103zM1305 -45l-54 197
q107 15 183 55.5t92 107.5q-73 -49 -174 -49q-102 0 -167 66t-65 186q0 131 84.5 212t239.5 81q154 0 239.5 -94.5t85.5 -267.5q0 -438 -464 -494zM1362 539q0 -97 76 -97q12 0 24.5 2.5t18 4.5t19.5 8.5t16 7.5q0 25 -3.5 48t-12 47.5t-27 39t-43.5 14.5q-30 0 -49 -19.5
t-19 -55.5z" />
    <glyph glyph-name="fourninths" unicode="&#xf50e;" horiz-adv-x="1792" 
d="M457 1073h155v-192h97v-191h-99v-155h-270v159h-311v140l247 532l222 -104l-195 -381h74zM743 -39l-245 107l598 1280l250 -103zM1296 -45l-53 197q107 15 183 55.5t92 107.5q-73 -49 -175 -49t-166.5 66t-64.5 186q0 131 84.5 212t239.5 81q154 0 239.5 -94.5
t85.5 -267.5q0 -71 -12 -132.5t-44.5 -123.5t-83.5 -108.5t-134 -81.5t-191 -48zM1354 539q0 -97 76 -97q12 0 24 2.5t18 5t19 8.5t16 7q0 25 -3.5 48t-12 47.5t-27 39t-43.5 14.5q-30 0 -48.5 -19.5t-18.5 -55.5z" />
    <glyph glyph-name="fiveninths" unicode="&#xf50f;" horiz-adv-x="1792" 
d="M109 893l57 440h444v-200h-268l-10 -76q157 -10 241 -69.5t84 -186.5q0 -43 -10 -81t-34 -74.5t-61 -63t-95.5 -42.5t-132.5 -16q-83 0 -165.5 25t-107.5 47l72 192q36 -21 89.5 -38t96.5 -17q78 0 78 62q0 28 -19.5 47.5t-58.5 30t-86.5 15t-113.5 5.5zM700 -39
l-245 107l598 1280l250 -103zM1274 -45l-53 197q107 15 182.5 55.5t91.5 107.5q-73 -49 -174 -49q-102 0 -166.5 66t-64.5 186q0 131 84 212t239 81q154 0 240 -94.5t86 -267.5q0 -71 -12 -132.5t-44.5 -123.5t-83.5 -108.5t-134 -81.5t-191 -48zM1331 539q0 -97 76 -97
q12 0 24.5 2.5t18 4.5t19.5 8.5t16 7.5q0 25 -3.5 48t-12 47.5t-27 39t-43.5 14.5q-30 0 -49 -19.5t-19 -55.5z" />
    <glyph glyph-name="sevenninths" unicode="&#xf510;" horiz-adv-x="1792" 
d="M86 1133v200h606v-162q-125 -104 -184 -248.5t-59 -344.5v-43h-263v53q0 165 42 299t141 246h-283zM655 -39l-245 107l598 1280l249 -103zM1262 -45l-54 197q107 15 183 55.5t92 107.5q-73 -49 -174 -49q-102 0 -167 66t-65 186q0 131 84.5 212t239.5 81
q154 0 239.5 -94.5t85.5 -267.5q0 -438 -464 -494zM1319 539q0 -97 76 -97q12 0 24.5 2.5t18 4.5t19.5 8.5t16 7.5q0 25 -3.5 48t-12.5 47.5t-27.5 39t-43.5 14.5q-30 0 -48.5 -19.5t-18.5 -55.5z" />
    <glyph glyph-name="eightninths" unicode="&#xf511;" horiz-adv-x="1792" 
d="M53 741q0 83 42.5 136t105.5 81q-47 19 -84 63t-37 114q0 85 72.5 148t209.5 63q80 0 137.5 -18.5t86 -49t41 -62t12.5 -65.5q0 -45 -17 -81t-36 -55t-51 -42q135 -82 135 -211q0 -44 -16 -84.5t-50.5 -76t-97.5 -56.5t-148 -21q-84 0 -145.5 18.5t-95 50.5t-49 69
t-15.5 79zM424 758q0 23 -20 45.5t-46 34.5q-59 -36 -59 -84q0 -25 14 -42.5t45 -17.5q33 0 49.5 19t16.5 45zM358 1192q-51 0 -51 -51q0 -17 17 -41t43 -35q17 11 30 33.5t13 44.5q0 18 -11.5 33.5t-40.5 15.5zM715 -39l-246 107l598 1280l250 -103zM1290 -45l-53 197
q107 15 182.5 55.5t91.5 107.5q-73 -49 -174 -49q-102 0 -166.5 66t-64.5 186q0 131 84.5 212t239.5 81q154 0 239.5 -94.5t85.5 -267.5q0 -71 -12 -132.5t-44.5 -123.5t-83.5 -108.5t-134 -81.5t-191 -48zM1348 539q0 -97 75 -97q12 0 24.5 2.5t18 4.5t19.5 8.5t16 7.5
q0 25 -3.5 48t-12 47.5t-27 39t-43.5 14.5q-30 0 -48.5 -19.5t-18.5 -55.5z" />
    <glyph glyph-name="commaaccent" unicode="&#xf6c3;" horiz-adv-x="1024" 
d="M268 -537l127 449q39 -2 63.5 -4t64 -9.5t63 -20t41.5 -36.5t18 -57q0 -53 -45 -127q-74 -129 -194 -260z" />
    <glyph glyph-name="zero.tosf" unicode="&#xf81e;" 
d="M559 1092q243 0 383.5 -143.5t140.5 -407.5q0 -273 -142 -424.5t-394 -151.5q-170 0 -291 72.5t-178.5 195t-57.5 283.5q0 267 150 421.5t389 154.5zM551 266q113 0 113 271q0 247 -109 247q-115 0 -115 -272q0 -124 29.5 -185t81.5 -61z" />
    <glyph glyph-name="one.tosf" unicode="&#xf81f;" 
d="M166 309h231v297l-174 -86l-151 275l432 264h336l-27 -293v-457h225v-309h-872v309z" />
    <glyph glyph-name="two.tosf" unicode="&#xf820;" 
d="M258 608l-213 246q109 115 243.5 176.5t278.5 61.5q206 0 324.5 -96t118.5 -261q0 -118 -60 -204.5t-186 -176.5l-57 -41h354v-313h-1010v227l393 289q129 93 129 174q0 64 -69 64q-83 0 -246 -146z" />
    <glyph glyph-name="three.tosf" unicode="&#xf821;" 
d="M831 465q166 -175 166 -330q0 -70 -18.5 -128.5t-71 -120t-139 -108t-231.5 -85.5t-338 -60l-72 312q135 19 227.5 42.5t140 50t66.5 52t19 55.5q0 39 -50 117q-88 -24 -219 -47l-96 287q182 29 269 69t87 105q0 67 -69 67t-260 -102l-185 260q38 29 83 56t115 60.5
t158 54t177 20.5q180 0 286.5 -91t106.5 -235q0 -92 -34 -166t-118 -135z" />
    <glyph glyph-name="four.tosf" unicode="&#xf822;" 
d="M698 606h242v-282h158v-324h-160v-336h-412v342h-520v250l387 846l348 -162l-284 -616h108z" />
    <glyph glyph-name="five.tosf" unicode="&#xf823;" 
d="M141 313l95 746h759v-316h-417l-17 -143q443 -39 443 -397q0 -481 -840 -580l-82 318q142 22 238.5 48.5t151 58.5t77 66.5t22.5 78.5q0 133 -254 133q-87 0 -176 -13z" />
    <glyph glyph-name="six.tosf" unicode="&#xf824;" 
d="M817 1389l80 -306q-159 -21 -259.5 -81t-133.5 -181q29 15 87 27t99 12q170 0 260 -104.5t90 -296.5q0 -227 -121 -352t-358 -125q-246 0 -364.5 154.5t-118.5 438.5q0 76 9 148.5t32.5 151.5t59.5 147.5t94.5 133t133.5 112t180 80t230 41.5zM641 438q0 73 -19.5 109.5
t-52.5 36.5q-46 0 -90 -21q2 -149 20 -209.5t62 -60.5q80 0 80 145z" />
    <glyph glyph-name="seven.tosf" unicode="&#xf825;" 
d="M66 721v338h995v-266l-574 -1129h-436l541 1057h-526z" />
    <glyph glyph-name="eight.tosf" unicode="&#xf826;" 
d="M47 350q0 100 55 187t134 153q-66 51 -110 124t-44 157q0 168 126.5 271.5t350.5 103.5q114 0 199.5 -26.5t134.5 -73t72.5 -104t23.5 -126.5q0 -145 -145 -293q103 -78 154 -160.5t51 -185.5q0 -82 -31.5 -152.5t-93.5 -125.5t-163.5 -86t-232.5 -31q-112 0 -199 22.5
t-139 58t-85.5 85t-45.5 98.5t-12 104zM612 358q0 46 -28.5 82t-87.5 84q-66 -85 -66 -153q0 -42 24 -71.5t68 -29.5q43 0 66.5 25t23.5 63zM547 1079q-27 0 -51.5 -19.5t-24.5 -58.5q0 -58 90 -129q68 68 68 129q0 78 -82 78z" />
    <glyph glyph-name="nine.tosf" unicode="&#xf827;" 
d="M293 -283l-82 306q83 11 139.5 24t113.5 38.5t93 68.5t53 104q-88 -43 -192 -43q-170 0 -259 103.5t-89 295.5q0 226 125.5 352t363.5 126q473 0 473 -592q0 -77 -8 -148t-30 -149t-57 -143.5t-92.5 -127.5t-133 -106.5t-182.5 -73.5t-236 -35zM469 635
q0 -73 19.5 -109.5t52.5 -36.5q14 0 43.5 6.5t46.5 14.5q-2 147 -20 208.5t-62 61.5q-80 0 -80 -145z" />
    <glyph glyph-name="hyphen.case" horiz-adv-x="659" 
d="M61 489v299h537v-299h-537z" />
    <glyph glyph-name="zero.num" horiz-adv-x="772" 
d="M391 1346q73 0 133.5 -22t109.5 -68.5t76 -126.5t27 -189q0 -206 -96 -311t-260 -105q-162 0 -255 100.5t-93 309.5q0 202 99.5 307t258.5 105zM385 733q86 0 86 205q0 201 -86 201q-88 0 -88 -211q0 -100 20.5 -147.5t67.5 -47.5z" />
    <glyph glyph-name="one.num" horiz-adv-x="772" 
d="M135 748h141v303l-135 -52l-84 170l283 164h227l-16 -178v-407h127v-213h-543v213z" />
    <glyph glyph-name="two.num" horiz-adv-x="772" 
d="M201 1028l-148 168q160 150 342 150q144 0 219.5 -62.5t75.5 -171.5q0 -74 -33 -134.5t-100 -127.5l-90 -92h240v-223h-617v163l246 269q30 33 41.5 53.5t11.5 44.5q0 23 -12 35t-31 12q-51 0 -145 -84z" />
    <glyph glyph-name="three.num" horiz-adv-x="772" 
d="M188 1061l-118 158q46 42 141.5 84.5t210.5 42.5q121 0 191.5 -56.5t70.5 -146.5q0 -48 -25 -93.5t-73 -76.5q108 -79 108 -191q0 -110 -81.5 -184t-241.5 -74q-142 0 -293 72l69 190q102 -57 201 -57q68 0 68 43q0 20 -31 80q-41 -13 -152 -29l-51 162q123 25 168 43
q53 21 53 62q0 38 -45 38q-58 0 -170 -67z" />
    <glyph glyph-name="four.num" horiz-adv-x="772" 
d="M475 1073h156v-192h96v-191h-98v-155h-271v159h-311v140l248 532l221 -104l-194 -381h73z" />
    <glyph glyph-name="five.num" horiz-adv-x="772" 
d="M150 893l57 440h444v-200h-268l-10 -76q157 -10 241 -69.5t84 -186.5q0 -43 -10 -81t-34 -74.5t-61 -63t-95.5 -42.5t-132.5 -16q-83 0 -165.5 25t-107.5 47l72 192q36 -21 89.5 -38t96.5 -17q78 0 78 62q0 28 -19.5 47.5t-58.5 30t-86.5 15t-113.5 5.5z" />
    <glyph glyph-name="six.num" horiz-adv-x="772" 
d="M530 1374l54 -190q-119 -16 -180 -49.5t-87 -112.5q71 47 166 47q103 0 168.5 -66t65.5 -186q0 -130 -85.5 -211.5t-240.5 -81.5q-153 0 -238 94.5t-85 268.5q0 70 13.5 133t47 125t84.5 109t132.5 79.5t184.5 40.5zM473 799q0 92 -76 92q-33 0 -75 -25q-1 -36 4.5 -66
t26 -54.5t55.5 -24.5q30 0 47.5 20.5t17.5 57.5z" />
    <glyph glyph-name="seven.num" horiz-adv-x="772" 
d="M117 1133v200h606v-162q-126 -104 -185 -248.5t-59 -344.5v-43h-262v53q0 166 42 299.5t140 245.5h-282z" />
    <glyph glyph-name="eight.num" horiz-adv-x="772" 
d="M86 741q0 83 42.5 136t104.5 81q-47 19 -83.5 63t-36.5 114q0 85 72.5 148t209.5 63q80 0 137.5 -18.5t86 -49t41 -62t12.5 -65.5q0 -45 -17.5 -81.5t-36.5 -55t-51 -41.5q135 -82 135 -211q0 -44 -16 -84.5t-50.5 -76t-97 -56.5t-147.5 -21q-84 0 -145.5 18.5t-95 50.5
t-49 69t-15.5 79zM457 758q0 23 -20 45.5t-46 34.5q-59 -36 -59 -84q0 -25 14 -42.5t45 -17.5q33 0 49.5 19t16.5 45zM391 1192q-51 0 -51 -51q0 -17 16.5 -41t42.5 -35q17 11 30 33.5t13 44.5q0 19 -11 34t-40 15z" />
    <glyph glyph-name="nine.num" horiz-adv-x="772" 
d="M229 489l-53 197q107 15 183 56t92 108q-73 -49 -175 -49t-166.5 66t-64.5 186q0 131 84.5 212t239.5 81q154 0 239.5 -95t85.5 -268q0 -71 -12 -132.5t-44.5 -123.5t-83.5 -108.5t-134 -81.5t-191 -48zM287 1073q0 -96 75 -96q10 0 18.5 1t18 4t13.5 4.5t15 6.5t13 6
q0 25 -3.5 48t-12 47.5t-27 39.5t-43.5 15q-30 0 -48.5 -20t-18.5 -56z" />
    <glyph glyph-name="zero.denom" horiz-adv-x="772" 
d="M391 811q73 0 133.5 -22t109.5 -68t76 -126t27 -189q0 -206 -96 -311t-260 -105q-162 0 -255 100t-93 309q0 202 99.5 307t258.5 105zM385 199q86 0 86 204q0 201 -86 201q-88 0 -88 -211q0 -100 20.5 -147t67.5 -47z" />
    <glyph glyph-name="one.denom" horiz-adv-x="772" 
d="M156 213h141v303l-135 -51l-84 170l282 164h228l-17 -178v-408h127v-213h-542v213z" />
    <glyph glyph-name="two.denom" horiz-adv-x="772" 
d="M201 494l-148 168q159 149 342 149q144 0 219.5 -62.5t75.5 -170.5q0 -74 -33 -135t-100 -128l-90 -92h240v-223h-617v164l246 268q30 33 41.5 53.5t11.5 44.5q0 23 -12 35.5t-31 12.5q-51 0 -145 -84z" />
    <glyph glyph-name="three.denom" horiz-adv-x="772" 
d="M188 526l-118 158q46 42 141.5 84.5t210.5 42.5q121 0 191.5 -56.5t70.5 -146.5q0 -48 -25 -93.5t-73 -76.5q108 -79 108 -190q0 -110 -81.5 -184t-241.5 -74q-144 0 -293 71l69 191q102 -57 201 -57q68 0 68 43q0 19 -31 79q-35 -11 -152 -28l-51 162q123 25 168 43
q53 21 53 61q0 39 -45 39q-57 0 -170 -68z" />
    <glyph glyph-name="four.denom" horiz-adv-x="772" 
d="M475 539h156v-193h96v-190h-98v-156h-271v160h-311v139l248 532l221 -104l-194 -381h73z" />
    <glyph glyph-name="five.denom" horiz-adv-x="772" 
d="M150 358l57 441h444v-201h-268l-10 -76q157 -10 241 -69.5t84 -186.5q0 -54 -16.5 -100.5t-53 -87.5t-104 -64.5t-159.5 -23.5q-83 0 -165.5 24.5t-107.5 46.5l72 193q36 -21 89.5 -38t96.5 -17q78 0 78 61q0 28 -19.5 47.5t-58.5 30t-86.5 15t-113.5 5.5z" />
    <glyph glyph-name="six.denom" horiz-adv-x="772" 
d="M530 840l54 -191q-119 -16 -180 -49.5t-87 -112.5q73 48 166 48q103 0 168.5 -66t65.5 -186q0 -130 -85.5 -211.5t-240.5 -81.5q-153 0 -238 94t-85 268q0 70 13.5 133t47 125.5t84.5 109t132.5 79.5t184.5 41zM473 264q0 92 -76 92q-35 0 -75 -24q-1 -37 4.5 -67
t26.5 -54.5t55 -24.5q30 0 47.5 20t17.5 58z" />
    <glyph glyph-name="seven.denom" horiz-adv-x="772" 
d="M117 598v201h606v-162q-126 -104 -185 -249t-59 -345v-43h-262v53q0 166 42 299.5t140 245.5h-282z" />
    <glyph glyph-name="eight.denom" horiz-adv-x="772" 
d="M86 207q0 83 42.5 136t104.5 81q-47 19 -83.5 62.5t-36.5 113.5q0 85 72.5 148t209.5 63q80 0 137.5 -18.5t86 -49t41 -62t12.5 -65.5q0 -45 -17.5 -81.5t-36.5 -55t-51 -41.5q135 -82 135 -211q0 -44 -16 -84t-50.5 -75.5t-97 -56.5t-147.5 -21q-84 0 -145.5 18.5
t-95 50.5t-49 69t-15.5 79zM457 223q0 23 -20 45.5t-46 34.5q-59 -36 -59 -84q0 -25 14 -42t45 -17q33 0 49.5 18.5t16.5 44.5zM391 657q-51 0 -51 -51q0 -17 16.5 -41t42.5 -35q17 11 30 33.5t13 44.5q0 19 -11 34t-40 15z" />
    <glyph glyph-name="nine.denom" horiz-adv-x="772" 
d="M229 -45l-53 197q107 15 183 55.5t92 107.5q-73 -49 -175 -49t-166.5 66t-64.5 186q0 131 84.5 212t239.5 81q154 0 239.5 -94.5t85.5 -267.5q0 -71 -12 -132.5t-44.5 -123.5t-83.5 -108.5t-134 -81.5t-191 -48zM287 539q0 -97 75 -97q12 0 24.5 2.5t18 4.5t19.5 8.5
t16 7.5q0 25 -3.5 48t-12 47.5t-27 39t-43.5 14.5q-30 0 -48.5 -19.5t-18.5 -55.5z" />
    <glyph glyph-name="revcommaaccent" horiz-adv-x="1024" 
d="M694 1602l-125 -453q-32 2 -52.5 4t-54 7.5t-55.5 14.5t-44.5 22.5t-34 35t-11.5 49.5q0 53 45 127q90 145 195 260z" />
    <glyph glyph-name="tilde.cap" horiz-adv-x="1024" 
d="M215 1477l-29 217q87 65 185 65q59 0 154 -27.5t143 -27.5q64 0 137 39l22 -230q-67 -40 -147 -40q-49 0 -154 24.5t-147 24.5q-84 0 -164 -45z" />
    <glyph glyph-name="ring.cap" horiz-adv-x="1024" 
d="M266 1573q0 102 70.5 170.5t175.5 68.5q114 0 180 -65.5t66 -163.5q0 -106 -70 -175t-180 -69q-113 0 -177.5 66t-64.5 168zM440 1573q0 -36 18.5 -57t53.5 -21q34 0 53 21.5t19 56.5q0 38 -18 60t-54 22q-72 0 -72 -82z" />
    <glyph glyph-name="circumflex.cap" horiz-adv-x="1024" 
d="M508 1591l-236 -174l-120 113q99 119 202 225q87 90 154 90q65 0 151 -86q130 -130 209 -227l-118 -115z" />
    <glyph glyph-name="acute.cap" horiz-adv-x="1024" 
d="M264 1540l373 358q67 -38 112.5 -89.5t45.5 -100.5q0 -43 -23.5 -74t-87.5 -67q-76 -41 -176.5 -83.5t-157.5 -60.5z" />
    <glyph glyph-name="grave.cap" horiz-adv-x="1024" 
d="M422 1894l373 -356l-86 -117q-59 19 -159 61t-175 83q-64 36 -87.5 67t-23.5 74q0 49 45 99t113 89z" />
    <glyph glyph-name="dieresis.cap" horiz-adv-x="1024" 
d="M569 1608q0 70 49 118t130 48q80 0 129 -48t49 -118q0 -71 -49 -117.5t-129 -46.5q-81 0 -130 46.5t-49 117.5zM94 1608q0 70 48.5 118t129.5 48q80 0 129.5 -48.5t49.5 -117.5q0 -70 -49.5 -117t-129.5 -47q-81 0 -129.5 46.5t-48.5 117.5z" />
    <glyph glyph-name="caron.cap" horiz-adv-x="1024" 
d="M272 1845l236 -174l242 174l118 -114q-83 -102 -209 -228q-86 -86 -151 -86q-67 0 -154 90q-98 100 -202 226z" />
    <glyph glyph-name="macron.cap" horiz-adv-x="1024" 
d="M164 1473v268h696v-268h-696z" />
    <glyph glyph-name="dotaccent.cap" horiz-adv-x="1024" 
d="M301 1655q0 82 57.5 139t151.5 57t153.5 -57t59.5 -139q0 -84 -58.5 -139.5t-152.5 -55.5q-96 0 -153.5 55t-57.5 140z" />
    <glyph glyph-name="cedilla.cap" horiz-adv-x="1024" 
d="M434 6h158l-31 -112q94 -9 152.5 -60t58.5 -127q0 -57 -20 -100t-50 -67t-71.5 -38.5t-77 -19t-74.5 -4.5q-120 0 -217 37l45 159q75 -26 139 -26q101 0 101 53q0 22 -16 37t-46.5 21t-58.5 8t-68 2z" />
    <glyph glyph-name="hungarumlaut.cap" horiz-adv-x="1024" 
d="M49 1544l379 359q152 -109 152 -191q0 -42 -24.5 -74t-88.5 -69q-76 -42 -179.5 -86t-152.5 -58zM563 1544l379 354q152 -98 152 -186q0 -43 -24 -75t-87 -68q-76 -43 -179.5 -86.5t-154.5 -57.5z" />
    <glyph glyph-name="commaaccent.cap" horiz-adv-x="1024" 
d="M268 -537l127 449q39 -2 63.5 -4t64 -9.5t63 -20t41.5 -36.5t18 -57q0 -53 -45 -127q-74 -129 -194 -260z" />
    <glyph glyph-name="breve.cap" horiz-adv-x="1024" 
d="M694 1864l211 -99q-16 -40 -36 -76t-54.5 -77t-75.5 -70.5t-101.5 -49t-129.5 -19.5q-90 0 -163 29t-118.5 76t-72.5 91.5t-41 89.5l217 105q36 -78 76.5 -118t109.5 -40q65 0 101 36t77 122z" />
    <glyph glyph-name="caron.alt" horiz-adv-x="516" 
d="M143 930v477q78 16 133 16q150 0 150 -114q0 -70 -48.5 -200.5t-88.5 -209.5z" />
    <glyph glyph-name="ogonek.cap" horiz-adv-x="1024" 
d="M432 4l242 -2q-57 -45 -102.5 -113.5t-45.5 -117.5q0 -64 68 -64q46 0 96 23l68 -197q-35 -21 -96.5 -35t-126.5 -14q-136 0 -203.5 61.5t-67.5 155.5q0 155 168 303z" />
    <glyph glyph-name="zero.tf" 
d="M555 1346q244 0 376 -166t132 -508q0 -361 -132.5 -525.5t-387.5 -164.5q-260 0 -385 167.5t-125 518.5q0 175 38 306.5t108.5 212t164.5 120t211 39.5zM547 307q33 0 55 29t36.5 111.5t14.5 220.5q0 129 -13 207t-35 107.5t-54 29.5q-53 0 -79 -81t-26 -286
q0 -338 101 -338z" />
    <glyph glyph-name="one.tf" 
d="M203 309h209v557l-174 -86l-152 273l432 266h336l-27 -293v-717h203v-309h-827v309z" />
    <glyph glyph-name="two.tf" 
d="M258 831l-223 275q112 111 248 175.5t278 64.5q219 0 334 -111.5t115 -296.5q0 -94 -44.5 -197.5t-136.5 -201.5l-192 -207h403v-332h-989v242l410 454q59 64 83.5 104.5t24.5 88.5q0 42 -20 62t-53 20q-50 0 -106.5 -35t-131.5 -105z" />
    <glyph glyph-name="three.tf" 
d="M231 885l-190 262q28 24 72.5 52.5t116 64.5t167.5 59t193 23q180 0 287.5 -92t107.5 -234q0 -84 -41 -158.5t-117 -128.5q83 -81 128.5 -161.5t45.5 -180.5q0 -81 -29 -152.5t-86.5 -130t-155 -92.5t-224.5 -34q-122 0 -245.5 31.5t-215.5 80.5l109 326
q71 -38 171.5 -64t155.5 -26q32 0 52 2.5t36.5 15.5t16.5 37q0 9 -1 17.5t-4.5 18.5t-6 17t-8.5 20t-9 18.5t-11 22t-11 21.5q-121 -33 -224 -49l-92 287q61 12 106 22.5t93 25.5t78 31.5t49.5 38.5t19.5 48q0 65 -71 65q-77 0 -263 -104z" />
    <glyph glyph-name="four.tf" 
d="M682 872h236v-286h157v-324h-160v-262h-413v268h-473v258l385 840l327 -162l-282 -618h92z" />
    <glyph glyph-name="five.tf" 
d="M154 569l90 750h743v-338h-414l-18 -164q94 -11 171.5 -38.5t139 -75t95.5 -121.5t34 -168q0 -64 -18.5 -124.5t-59.5 -116.5t-99.5 -98.5t-144 -67.5t-188.5 -25q-117 0 -238 30.5t-218 77.5l114 324q74 -37 165 -66t149 -29q108 0 108 99q0 151 -411 151z" />
    <glyph glyph-name="six.tf" 
d="M813 1389l80 -306q-159 -21 -259.5 -81t-133.5 -181q29 15 87 27t99 12q170 0 260 -104.5t90 -296.5q0 -227 -121 -352t-358 -125q-246 0 -364.5 154.5t-118.5 438.5q0 76 9 148.5t32.5 151.5t59.5 147.5t94.5 133t133.5 112t180 80t230 41.5zM637 438q0 73 -19.5 109.5
t-52.5 36.5q-46 0 -90 -21q2 -149 20 -209.5t62 -60.5q80 0 80 145z" />
    <glyph glyph-name="seven.tf" 
d="M88 981v338h973v-266q-64 -50 -117.5 -108t-91 -112t-68 -118t-49 -114t-32.5 -112t-20 -101t-9.5 -92t-3.5 -73.5v-57.5v-15v-150h-437v166q0 76 3 132t19 150.5t45 173.5t87 176t139 183h-438z" />
    <glyph glyph-name="eight.tf" 
d="M47 350q0 100 55 187t134 153q-66 51 -110 124t-44 157q0 168 126.5 271.5t350.5 103.5q114 0 199.5 -26.5t134.5 -73t72.5 -104t23.5 -126.5q0 -145 -145 -293q103 -78 154 -160.5t51 -185.5q0 -82 -31.5 -152.5t-93.5 -125.5t-163.5 -86t-232.5 -31q-112 0 -199 22.5
t-139 58t-85.5 85t-45.5 98.5t-12 104zM612 358q0 46 -28.5 82t-87.5 84q-66 -85 -66 -153q0 -42 24 -71.5t68 -29.5q43 0 66.5 25t23.5 63zM547 1079q-27 0 -51.5 -19.5t-24.5 -58.5q0 -58 90 -129q68 68 68 129q0 78 -82 78z" />
    <glyph glyph-name="nine.tf" 
d="M293 -29l-82 305q83 11 140 24.5t113.5 39t92.5 68.5t53 104q-88 -43 -192 -43q-170 0 -259 103.5t-89 295.5q0 226 125.5 352t363.5 126q473 0 473 -592q0 -77 -8 -148t-30 -149t-57 -143.5t-92.5 -127.5t-133 -106.5t-182.5 -73.5t-236 -35zM469 889q0 -73 19.5 -109.5
t52.5 -36.5q14 0 43.5 6.5t46.5 14.5q-2 147 -20 208.5t-62 61.5q-80 0 -80 -145z" />
    <glyph glyph-name="dollar.tf" 
d="M10 137l129 318q76 -49 189.5 -90t181.5 -41q92 0 92 65q0 29 -19.5 48.5t-41.5 28t-85 28.5q-4 2 -6 2.5t-5.5 1.5t-6.5 2q-48 15 -73.5 23.5t-71 28t-72 38.5t-60 50.5t-51.5 67t-31 86.5t-13 111q0 153 85 256t232 142v227h332v-230q96 -23 182.5 -72t146.5 -112
l-204 -250q-169 127 -283 127q-35 0 -60.5 -16.5t-25.5 -48.5q0 -21 11 -37.5t37.5 -31.5t50.5 -24.5t71 -25.5l60 -21t57.5 -22.5t58 -27.5t51.5 -32t49 -39.5t39 -47.5t32 -58t18.5 -69.5t7.5 -83.5q0 -148 -80.5 -248.5t-218.5 -143.5v-237h-332v221q-110 16 -211.5 55
t-161.5 82z" />
    <glyph glyph-name="Euro.tf" 
d="M59 512v301h181q-80 76 -80 178q0 164 121 259.5t346 95.5q117 0 242.5 -51t222.5 -158l-203 -228q-77 62 -129 87.5t-119 25.5q-55 0 -88 -24.5t-33 -77.5q0 -48 37 -77.5t117 -29.5h250v-301h-244q-164 0 -164 -117q0 -110 150 -110q70 0 133.5 22.5t154.5 83.5
l148 -266q-217 -160 -496 -160q-235 0 -345.5 91.5t-110.5 248.5q0 118 81 207h-172z" />
    <glyph glyph-name="cent.tf" 
d="M449 -123v252q-156 42 -252.5 167t-96.5 337q0 222 97.5 354.5t251.5 175.5v240h331v-238q162 -56 258 -207l-245 -206q-40 56 -75.5 87t-80.5 31q-139 0 -139 -221q0 -117 34.5 -171t104.5 -54q45 0 81 31t75 88l245 -207q-106 -163 -258 -207v-252h-331z" />
    <glyph glyph-name="sterling.tf" 
d="M18 240v272h158l78 379q49 239 165 347t320 108q80 0 153 -20t126.5 -52.5t89 -62t61.5 -60.5l-202 -233q-52 52 -98 81t-95 29q-56 0 -82 -34t-45 -126l-74 -356h252v-270h-303l-12 -49q-38 -160 -162 -265l4 -6q109 41 193 41q65 0 178.5 -19.5t167.5 -19.5
q82 0 145 31l-41 -332q-72 -14 -131 -14q-96 0 -310 39t-323 39q-164 0 -321 -80v315q73 25 119 70.5t69 138.5l29 109h-109z" />
    <glyph glyph-name="yen.tf" 
d="M356 225h-247v234h247v108h-247v234h120l-239 518h422l168 -447h10l186 447h408l-264 -518h118v-234h-256v-108h256v-234h-256v-225h-426v225z" />
    <glyph glyph-name="florin.tf" 
d="M55 473l49 324h252l21 125q13 71 28.5 124.5t49 113t79 98t120 63.5t171.5 25q102 0 202 -28t167 -71l-129 -250q-72 41 -152 41q-101 0 -120 -96l-27 -145h268l-55 -324h-266l-84 -487q-8 -46 -18.5 -84t-29 -82.5t-42.5 -78.5t-61.5 -67.5t-83 -55t-109.5 -35
t-140 -13.5q-78 0 -174 27.5t-159 68.5l125 256q30 -19 75 -32t84 -13q49 0 76.5 21.5t36.5 72.5l90 502h-244z" />
    <glyph glyph-name="zero.osf" horiz-adv-x="1140" 
d="M578 1092q243 0 383.5 -143.5t140.5 -407.5q0 -273 -142.5 -424.5t-394.5 -151.5q-128 0 -229 41.5t-165.5 115.5t-98 174t-33.5 220q0 267 150 421.5t389 154.5zM569 266q113 0 113 271q0 247 -109 247q-114 0 -114 -272q0 -125 29 -185.5t81 -60.5z" />
    <glyph glyph-name="one.osf" horiz-adv-x="1067" 
d="M154 309h231v297l-174 -86l-152 275l433 264h335l-26 -293v-457h225v-309h-872v309z" />
    <glyph glyph-name="two.osf" horiz-adv-x="1069" 
d="M229 608l-213 246q109 115 244 176.5t279 61.5q206 0 324 -96t118 -261q0 -118 -60 -204.5t-186 -176.5l-57 -41h354v-313h-1009v227l393 289q129 93 129 174q0 64 -70 64q-83 0 -246 -146z" />
    <glyph glyph-name="three.osf" horiz-adv-x="1013" 
d="M778 465q166 -175 166 -330q0 -70 -18.5 -128.5t-71.5 -120t-139.5 -108t-231.5 -85.5t-338 -60l-71 312q135 19 227 42.5t139.5 50t66.5 52t19 55.5q0 41 -49 117q-88 -24 -219 -47l-96 287q182 29 269 69t87 105q0 67 -69 67q-70 0 -261 -102l-184 260q38 29 83 56
t115 60.5t158 54t177 20.5q180 0 286.5 -91t106.5 -235q0 -92 -34 -166t-118 -135z" />
    <glyph glyph-name="four.osf" horiz-adv-x="1175" 
d="M729 606h242v-282h157v-324h-159v-336h-412v342h-520v250l387 846l348 -162l-285 -616h109z" />
    <glyph glyph-name="five.osf" horiz-adv-x="1015" 
d="M82 313l94 746h760v-316h-418l-16 -143q442 -39 442 -397q0 -481 -840 -580l-81 318q142 22 238.5 48.5t151 58.5t77 66.5t22.5 78.5q0 133 -254 133q-87 0 -176 -13z" />
    <glyph glyph-name="six.osf" horiz-adv-x="1146" 
d="M829 1389l80 -306q-159 -21 -259.5 -81t-133.5 -181q29 15 87 27t99 12q171 0 261 -104.5t90 -296.5q0 -227 -121.5 -352t-358.5 -125q-246 0 -364.5 154.5t-118.5 438.5q0 76 9 148.5t32.5 151.5t59.5 147.5t94.5 133t133.5 112t180 80t230 41.5zM653 438q0 146 -71 146
q-46 0 -90 -21q2 -149 19.5 -209.5t61.5 -60.5q80 0 80 145z" />
    <glyph glyph-name="seven.osf" horiz-adv-x="1116" 
d="M70 721v338h995v-266l-573 -1129h-437l541 1057h-526z" />
    <glyph glyph-name="eight.osf" horiz-adv-x="1144" 
d="M70 350q0 100 55 187.5t133 152.5q-66 51 -110 124t-44 157q0 168 127 271.5t351 103.5q114 0 199.5 -26.5t134.5 -73t72.5 -104t23.5 -126.5q0 -144 -146 -293q103 -78 154 -160.5t51 -185.5q0 -82 -31.5 -152.5t-93 -125.5t-163 -86t-232.5 -31q-112 0 -199 22.5
t-139 58t-85.5 85t-45.5 98.5t-12 104zM635 358q0 46 -28.5 82t-88.5 84q-65 -84 -65 -153q0 -42 24 -71.5t68 -29.5q43 0 66.5 25t23.5 63zM569 1079q-27 0 -51 -19.5t-24 -58.5q0 -58 90 -129q67 67 67 129q0 78 -82 78z" />
    <glyph glyph-name="nine.osf" horiz-adv-x="1146" 
d="M313 -283l-82 306q83 11 140 24t114 38.5t93 68.5t53 104q-88 -43 -193 -43q-170 0 -259 103.5t-89 295.5q0 226 126 352t364 126q473 0 473 -592q0 -77 -8 -148t-30 -149t-57 -143.5t-93 -127.5t-133.5 -106.5t-182.5 -73.5t-236 -35zM489 635q0 -73 19.5 -109.5
t52.5 -36.5q14 0 43.5 6.5t46.5 14.5q-2 147 -20 208.5t-62 61.5q-80 0 -80 -145z" />
    <glyph glyph-name="dollar.osf" 
d="M27 137l129 318q77 -49 189.5 -90t180.5 -41q92 0 92 65q0 41 -30 60t-117 46q-10 3 -16 5q-33 10 -50.5 16t-50.5 18t-52 21.5t-48.5 25.5t-47 32.5t-40 38.5t-35.5 48t-25.5 56.5t-18 68.5t-5.5 80q0 153 85 256t232 142v227h332v-230q96 -23 183 -72t147 -112
l-205 -250q-169 127 -283 127q-35 0 -60.5 -16.5t-25.5 -48.5q0 -21 11 -37.5t37.5 -31.5t50.5 -24.5t71 -25.5l60 -21t57.5 -22.5t58 -27.5t51.5 -32t49 -39.5t39 -47.5t32 -58t18.5 -69.5t7.5 -83.5q0 -148 -80.5 -248.5t-218.5 -143.5v-237h-332v221q-109 16 -210.5 55
t-161.5 82z" />
    <glyph glyph-name="Euro.osf" 
d="M51 512v301h180q-79 75 -79 178q0 164 120.5 259.5t345.5 95.5q117 0 242.5 -51t222.5 -158l-202 -228q-77 62 -129 87.5t-119 25.5q-55 0 -88 -24.5t-33 -77.5q0 -48 37 -77.5t117 -29.5h249v-301h-243q-164 0 -164 -117q0 -110 149 -110q70 0 134 22.5t155 83.5
l148 -266q-217 -160 -496 -160q-235 0 -346 91.5t-111 248.5q0 117 82 207h-172z" />
    <glyph glyph-name="cent.osf" 
d="M449 -246v252q-156 42 -252.5 167t-96.5 337q0 222 97.5 354.5t251.5 175.5v240h331v-238q162 -56 258 -206l-245 -207q-40 57 -75.5 88t-80.5 31q-139 0 -139 -222q0 -117 34.5 -171t104.5 -54q45 0 81 31t75 88l245 -207q-106 -163 -258 -207v-252h-331z" />
    <glyph glyph-name="sterling.osf" horiz-adv-x="1208" 
d="M145 240v272h158l78 379q49 239 165 347t320 108q80 0 153 -20t126.5 -52.5t89 -62t61.5 -60.5l-202 -233q-52 52 -98 81t-95 29q-56 0 -82 -34t-45 -126l-74 -356h252v-270h-303l-12 -49q-38 -160 -162 -265l4 -6q109 41 193 41q66 0 179 -19.5t167 -19.5q82 0 145 31
l-41 -332q-72 -14 -131 -14q-96 0 -310.5 39t-322.5 39q-164 0 -321 -80v315q73 25 119 70.5t69 138.5l29 109h-109z" />
    <glyph glyph-name="yen.osf" horiz-adv-x="1163" 
d="M350 225h-248v234h248v108h-248v234h121l-239 518h422l167 -447h11l186 447h408l-265 -518h119v-234h-256v-108h256v-234h-256v-225h-426v225z" />
    <glyph glyph-name="florin.osf" horiz-adv-x="1239" 
d="M121 473l49 324h252l20 125q10 58 23 104t35 97.5t55.5 89t78.5 69t110.5 48t146.5 16.5q102 0 202 -28t167 -71l-130 -250q-72 41 -151 41q-102 0 -121 -96l-27 -145h269l-56 -324h-266l-84 -487q-8 -46 -18.5 -84t-29 -82.5t-42.5 -78.5t-61 -67.5t-83 -55t-109.5 -35
t-139.5 -13.5q-79 0 -175 27.5t-159 68.5l125 256q30 -19 75.5 -32t84.5 -13q49 0 76 21.5t36 72.5l91 502h-244z" />
    <glyph glyph-name="dollar.tosf" 
d="M-6 137l129 318q76 -49 189.5 -90t181.5 -41q92 0 92 65q0 29 -19.5 48.5t-41.5 28t-85 28.5q-4 2 -6 2.5t-5.5 1.5t-6.5 2q-33 10 -50.5 16t-50.5 18t-52 21.5t-48.5 25.5t-47 32.5t-40 38.5t-35.5 48t-25.5 56.5t-18 68.5t-5.5 80q0 153 85.5 256t232.5 142v227h331
v-230q96 -23 183 -72t147 -112l-205 -250q-169 127 -282 127q-35 0 -60.5 -16.5t-25.5 -48.5q0 -21 11 -37.5t37.5 -31.5t50.5 -24.5t71 -25.5q71 -25 108.5 -39.5t96.5 -49t89 -72t54 -100t24 -140.5q0 -148 -80.5 -248.5t-218.5 -143.5v-237h-331v221q-110 16 -211.5 55
t-161.5 82z" />
    <glyph glyph-name="Euro.tosf" 
d="M63 512v301h181q-80 76 -80 178q0 164 121 259.5t346 95.5q117 0 242.5 -51t222.5 -158l-203 -228q-77 62 -129 87.5t-119 25.5q-55 0 -88 -24.5t-33 -77.5q0 -48 37 -77.5t117 -29.5h250v-301h-244q-164 0 -164 -117q0 -110 150 -110q70 0 133.5 22.5t154.5 83.5
l148 -266q-217 -160 -496 -160q-235 0 -345.5 91.5t-110.5 248.5q0 117 82 207h-173z" />
    <glyph glyph-name="cent.tosf" 
d="M469 -242v252q-155 42 -251.5 166.5t-96.5 337.5q0 222 97 354.5t251 175.5v240h332v-237q162 -56 258 -207l-246 -207q-40 57 -75.5 88t-80.5 31q-139 0 -139 -222q0 -117 34.5 -171t104.5 -54q45 0 81 31t75 88l246 -207q-106 -163 -258 -207v-252h-332z" />
    <glyph glyph-name="sterling.tosf" 
d="M106 240v272h158l78 379q49 239 165 347t320 108q80 0 153 -20t126.5 -52.5t89 -62t61.5 -60.5l-202 -233q-52 52 -98 81t-95 29q-56 0 -82 -34t-45 -126l-73 -356h251v-270h-303l-12 -49q-38 -160 -162 -265l4 -6q109 41 193 41q65 0 178.5 -19.5t167.5 -19.5
q82 0 145 31l-41 -332q-72 -14 -131 -14q-96 0 -310 39t-323 39q-164 0 -321 -80v315q73 25 119 70.5t69 138.5l29 109h-109z" />
    <glyph glyph-name="yen.tosf" 
d="M346 225h-248v234h248v108h-248v234h121l-239 518h421l168 -447h11l186 447h408l-265 -518h119v-234h-256v-108h256v-234h-256v-225h-426v225z" />
    <glyph glyph-name="florin.tosf" 
d="M59 473l50 324h251l21 125q13 71 28.5 124.5t49 113t79 98t120 63.5t171.5 25q102 0 202 -28t167 -71l-129 -250q-72 41 -151 41q-102 0 -121 -96l-27 -145h268l-55 -324h-266l-84 -487q-8 -46 -18.5 -84t-29 -82.5t-42.5 -78.5t-61 -67.5t-83 -55t-109.5 -35
t-139.5 -13.5q-79 0 -175 27.5t-159 68.5l125 256q30 -19 75 -32t84 -13q49 0 76.5 21.5t36.5 72.5l90 502h-244z" />
    <glyph glyph-name="a.alt" 
d="M170 715l-70 293q79 32 206 58t243 26q117 0 194 -19t131 -67t77.5 -129t23.5 -205v-363q0 -36 10.5 -53.5t38.5 -17.5q19 0 43 6l29 -221q-103 -50 -219 -50q-79 0 -135 36t-80 97q-57 -61 -141 -97t-169 -36q-167 0 -242 91t-75 245q0 78 22.5 137.5t61 97t96.5 60.5
t122 32t144 9l94 -4v49q0 56 -21.5 77t-66.5 21q-50 0 -143 -21.5t-174 -51.5zM575 279v147q-28 4 -55 4q-40 0 -66 -21.5t-26 -70.5q0 -90 64 -90q32 0 83 31z" />
    <glyph glyph-name="e.alt" horiz-adv-x="1005" 
d="M575 1092q183 0 299.5 -100.5t116.5 -289.5q0 -119 -43 -266h-514q1 -89 53.5 -127.5t133.5 -38.5q127 0 256 84l112 -272q-2 -2 -19.5 -12.5t-56.5 -28.5t-86.5 -34t-116 -28t-137.5 -12q-143 0 -250 42t-170 117.5t-93.5 173.5t-30.5 218q0 91 20.5 174t64 156.5
t107 127.5t154.5 85t200 31zM553 805q-49 0 -84.5 -40.5t-38.5 -123.5h197q6 43 6 78q-3 86 -80 86z" />
    <glyph glyph-name="g.alt" horiz-adv-x="1079" 
d="M942 672q0 -161 -110.5 -251.5t-284.5 -90.5q-42 0 -88 6l-21 -66l228 -37q92 -15 153 -29.5t117.5 -39.5t88.5 -58t50.5 -83t18.5 -117q0 -75 -35.5 -140.5t-104 -116t-178 -79.5t-248.5 -29q-491 0 -491 262q0 71 34.5 119t108.5 105q-69 33 -69 104q0 43 41 127
l61 125q-170 107 -170 326q0 177 117 280t321 103q142 0 248 -50l348 41v-268l-176 31l-8 -15q49 -63 49 -159zM586 -66l-162 27q-47 -50 -47 -86q0 -14 4.5 -24.5t20 -25t54 -22.5t97.5 -8q143 0 143 72q0 11 -2 19t-4.5 14t-9.5 10.5t-11 7t-16 5t-18 3.5t-23.5 4t-25.5 4
zM504 555q67 0 67 145q0 95 -17 133.5t-54 38.5q-34 0 -53 -31t-19 -114q0 -172 76 -172z" />
    <glyph glyph-name="k.alt" horiz-adv-x="1130" 
d="M498 1423v-796h6l207 432h436l-277 -514l252 -545h-442l-115 272l-164 -272h-309v1423h406z" />
    <glyph glyph-name="v.alt" horiz-adv-x="1177" 
d="M692 1059h467l-278 -1059h-555l-308 1059h482l94 -668h12z" />
    <glyph glyph-name="w.alt" horiz-adv-x="1550" 
d="M1085 1059h457l-217 -1059h-475l-72 449h-6l-88 -449h-451l-227 1059h473l62 -533h10l74 533h319l92 -539h8z" />
    <glyph glyph-name="y.alt" horiz-adv-x="1105" 
d="M672 1059h436l-336 -1055q-77 -242 -201 -352.5t-319 -110.5q-85 0 -173 25t-147 61l88 287q101 -43 168 -43q60 0 91.5 23.5t52.5 70.5l22 53l-348 1041h438l109 -539h8z" />
    <glyph glyph-name="z.alt" horiz-adv-x="985" 
d="M940 0h-889v258l375 481h-358v320h854v-250l-379 -483h397v-326z" />
    <glyph glyph-name="ae.alt" horiz-adv-x="1542" 
d="M494 260q51 0 104 35q-20 57 -29 131q-32 0 -52.5 -2.5t-43 -10.5t-34 -27t-11.5 -48q0 -78 66 -78zM1090 805q-49 0 -85 -40.5t-40 -123.5h196q8 39 8 78q-3 86 -79 86zM1141 1092q78 0 146.5 -24.5t123 -71.5t86 -123t31.5 -171q0 -70 -15 -146t-30 -120h-512
q1 -88 52.5 -127t131.5 -39q129 0 258 84l113 -276q-2 -2 -19.5 -12.5t-56.5 -27.5t-86.5 -32.5t-116 -27t-137.5 -11.5q-270 0 -410 146q-51 -41 -90 -66.5t-111.5 -49.5t-152.5 -24q-162 0 -236.5 91t-74.5 245q0 99 30.5 166t93 105t144.5 53.5t197 15.5q25 0 75 -4v45
q0 55 -22 76.5t-66 21.5q-57 0 -152 -20t-169 -53l-66 293q79 32 206 58t243 26q96 0 161.5 -24.5t116.5 -78.5q136 103 314 103z" />
    <glyph glyph-name="oe.alt" horiz-adv-x="1593" 
d="M1163 1092q183 0 299.5 -100.5t116.5 -289.5q0 -119 -43 -266h-514q1 -89 53.5 -127.5t132.5 -38.5q127 0 256 84l113 -276q-2 -2 -19.5 -12.5t-56.5 -27.5t-86.5 -32.5t-116 -27t-137.5 -11.5q-225 0 -334 109q-118 -109 -305 -109q-233 0 -363 138t-130 411
q0 125 32.5 225.5t84.5 164.5t121.5 107t140 61t143.5 18q194 0 301 -107q113 107 311 107zM539 264q47 0 66.5 58t19.5 202q0 150 -19 212.5t-69 62.5q-84 0 -84 -238q0 -148 16.5 -222.5t69.5 -74.5zM1141 805q-49 0 -84.5 -40.5t-38.5 -123.5h196q7 51 7 78q-3 86 -80 86
z" />
    <glyph glyph-name="Q.alt" horiz-adv-x="1370" 
d="M1313 678q0 -238 -86 -399t-242 -238q27 -11 110 -54.5t148 -64t141 -20.5q51 0 95 8l-45 -316q-58 -4 -82 -4q-89 0 -172 21t-147 50.5t-125 59.5t-131 51t-140 21q-59 0 -119 -14l31 207q-238 36 -366 211.5t-128 480.5q0 152 39 274.5t102.5 202t149.5 133t176 76
t185 22.5q127 0 232.5 -38.5t191 -119.5t134 -221.5t48.5 -328.5zM492 684q0 -44 3 -84t10.5 -85.5t22 -81.5t35.5 -66.5t53.5 -47t73.5 -16.5q53 0 91.5 31.5t58.5 86.5t29.5 117t9.5 134q0 63 -8 119.5t-28 114.5t-61.5 93t-101.5 35q-50 0 -87.5 -29.5t-59 -80.5
t-31.5 -111t-10 -129z" />
    <glyph glyph-name="ampersand.alt" horiz-adv-x="1497" 
d="M637 991q0 -40 29.5 -90.5t85.5 -107.5t93.5 -91t96.5 -84q11 79 -8 213h350q10 -64 10 -149q0 -173 -57 -307q132 -106 240 -180l-228 -306q-106 72 -256 193q-156 -117 -405 -117q-111 0 -199.5 25t-144.5 66t-93.5 97t-53 115t-15.5 123q0 245 217 408q-59 83 -59 207
q0 168 125 273t337 105q155 0 258.5 -57.5t182.5 -173.5l-291 -201q-39 65 -70 96t-65 31q-37 0 -58.5 -24.5t-21.5 -63.5zM592 281q72 0 117 30q-103 90 -215 211q-13 -21 -18.5 -31t-12 -32t-6.5 -47q0 -59 33 -95t102 -36z" />
    <glyph glyph-name="Euro.alt" horiz-adv-x="1177" 
d="M768 309q104 0 223 92l162 -256q-188 -170 -426 -170q-243 0 -385.5 134.5t-169.5 402.5h-131v301h135q16 117 55.5 209.5t92 152.5t120.5 99t138 55.5t147 16.5q83 0 157 -22.5t129.5 -61.5t93.5 -76t69 -80l-224 -227q-38 38 -62 58.5t-61.5 38t-76.5 17.5
q-129 0 -164 -180h254v-301h-258q14 -102 57.5 -152.5t124.5 -50.5z" />
    <glyph glyph-name="Euro_tf.alt" 
d="M705 309q104 0 223 92l162 -256q-188 -170 -426 -170q-240 0 -377.5 137t-157.5 400h-111v301h115q18 150 69 257t125.5 165.5t157.5 84.5t181 26q67 0 129 -16t108.5 -40t89 -57.5t70 -63.5t51.5 -63l-223 -227q-37 37 -62 58t-62.5 38.5t-76.5 17.5q-123 0 -143 -180
h233v-301h-237q8 -98 45.5 -150.5t116.5 -52.5z" />
    <glyph glyph-name="agrave.alt" 
d="M170 715l-70 293q79 32 206 58t243 26q117 0 194 -19t131 -67t77.5 -129t23.5 -205v-363q0 -36 10.5 -53.5t38.5 -17.5q19 0 43 6l29 -221q-103 -50 -219 -50q-79 0 -135 36t-80 97q-57 -61 -141 -97t-169 -36q-167 0 -242 91t-75 245q0 78 22.5 137.5t61 97t96.5 60.5
t122 32t144 9l94 -4v49q0 56 -21.5 77t-66.5 21q-50 0 -143 -21.5t-174 -51.5zM575 279v147q-28 4 -55 4q-40 0 -66 -21.5t-26 -70.5q0 -90 64 -90q32 0 83 31zM428 1690l268 -441l-112 -94q-48 27 -138 94t-153 127q-76 76 -76 131q0 37 21.5 69.5t56.5 54.5t67.5 36
t65.5 23z" />
    <glyph glyph-name="aacute.alt" 
d="M170 715l-70 293q79 32 206 58t243 26q117 0 194 -19t131 -67t77.5 -129t23.5 -205v-363q0 -36 10.5 -53.5t38.5 -17.5q19 0 43 6l29 -221q-103 -50 -219 -50q-79 0 -135 36t-80 97q-57 -61 -141 -97t-169 -36q-167 0 -242 91t-75 245q0 78 22.5 137.5t61 97t96.5 60.5
t122 32t144 9l94 -4v49q0 56 -21.5 77t-66.5 21q-50 0 -143 -21.5t-174 -51.5zM575 279v147q-28 4 -55 4q-40 0 -66 -21.5t-26 -70.5q0 -90 64 -90q32 0 83 31zM299 1249l266 441q33 -9 65.5 -23t67.5 -36t56.5 -54.5t21.5 -69.5q0 -55 -76 -131q-63 -61 -152.5 -127.5
t-137.5 -93.5z" />
    <glyph glyph-name="acircumflex.alt" 
d="M170 715l-70 293q79 32 206 58t243 26q117 0 194 -19t131 -67t77.5 -129t23.5 -205v-363q0 -36 10.5 -53.5t38.5 -17.5q19 0 43 6l29 -221q-103 -50 -219 -50q-79 0 -135 36t-80 97q-57 -61 -141 -97t-169 -36q-167 0 -242 91t-75 245q0 78 22.5 137.5t61 97t96.5 60.5
t122 32t144 9l94 -4v49q0 56 -21.5 77t-66.5 21q-50 0 -143 -21.5t-174 -51.5zM575 279v147q-28 4 -55 4q-40 0 -66 -21.5t-26 -70.5q0 -90 64 -90q32 0 83 31zM268 1153l-127 102q39 60 109.5 153.5t126.5 156.5q50 56 77 73t74 17q50 0 75.5 -16.5t76.5 -73.5
q114 -128 242 -308l-127 -104l-267 219z" />
    <glyph glyph-name="atilde.alt" 
d="M170 715l-70 293q79 32 206 58t243 26q117 0 194 -19t131 -67t77.5 -129t23.5 -205v-363q0 -36 10.5 -53.5t38.5 -17.5q19 0 43 6l29 -221q-103 -50 -219 -50q-79 0 -135 36t-80 97q-57 -61 -141 -97t-169 -36q-167 0 -242 91t-75 245q0 78 22.5 137.5t61 97t96.5 60.5
t122 32t144 9l94 -4v49q0 56 -21.5 77t-66.5 21q-50 0 -143 -21.5t-174 -51.5zM575 279v147q-28 4 -55 4q-40 0 -66 -21.5t-26 -70.5q0 -90 64 -90q32 0 83 31zM225 1249l-26 217q91 68 184 68q59 0 154 -28.5t143 -28.5q66 0 137 41l21 -232q-68 -41 -148 -41
q-49 0 -154 24.5t-147 24.5q-84 0 -164 -45z" />
    <glyph glyph-name="adieresis.alt" 
d="M170 715l-70 293q79 32 206 58t243 26q117 0 194 -19t131 -67t77.5 -129t23.5 -205v-363q0 -36 10.5 -53.5t38.5 -17.5q19 0 43 6l29 -221q-103 -50 -219 -50q-79 0 -135 36t-80 97q-57 -61 -141 -97t-169 -36q-167 0 -242 91t-75 245q0 78 22.5 137.5t61 97t96.5 60.5
t122 32t144 9l94 -4v49q0 56 -21.5 77t-66.5 21q-50 0 -143 -21.5t-174 -51.5zM575 279v147q-28 4 -55 4q-40 0 -66 -21.5t-26 -70.5q0 -90 64 -90q32 0 83 31zM573 1376q0 70 49 117t130 47q80 0 129 -47.5t49 -116.5q0 -71 -49 -117.5t-129 -46.5q-81 0 -130 46.5
t-49 117.5zM117 1376q0 70 48.5 117t129.5 47q80 0 129 -47.5t49 -116.5q0 -71 -49 -117.5t-129 -46.5q-81 0 -129.5 46.5t-48.5 117.5z" />
    <glyph glyph-name="aring.alt" 
d="M170 715l-70 293q79 32 206 58t243 26q117 0 194 -19t131 -67t77.5 -129t23.5 -205v-363q0 -36 10.5 -53.5t38.5 -17.5q19 0 43 6l29 -221q-103 -50 -219 -50q-79 0 -135 36t-80 97q-57 -61 -141 -97t-169 -36q-167 0 -242 91t-75 245q0 78 22.5 137.5t61 97t96.5 60.5
t122 32t144 9l94 -4v49q0 56 -21.5 77t-66.5 21q-50 0 -143 -21.5t-174 -51.5zM575 279v147q-28 4 -55 4q-40 0 -66 -21.5t-26 -70.5q0 -90 64 -90q32 0 83 31zM303 1391q0 93 63.5 154t159.5 61q104 0 164 -58.5t60 -146.5q0 -97 -63.5 -160t-164.5 -63q-103 0 -161 60
t-58 153zM461 1391q0 -33 16.5 -52.5t48.5 -19.5q31 0 48.5 20t17.5 52q0 71 -66 71q-65 0 -65 -71z" />
    <glyph glyph-name="egrave.alt" horiz-adv-x="1005" 
d="M575 1092q183 0 299.5 -100.5t116.5 -289.5q0 -119 -43 -266h-514q1 -89 53.5 -127.5t133.5 -38.5q127 0 256 84l112 -272q-2 -2 -19.5 -12.5t-56.5 -28.5t-86.5 -34t-116 -28t-137.5 -12q-143 0 -250 42t-170 117.5t-93.5 173.5t-30.5 218q0 91 20.5 174t64 156.5
t107 127.5t154.5 85t200 31zM553 805q-49 0 -84.5 -40.5t-38.5 -123.5h197q6 43 6 78q-3 86 -80 86zM481 1690l269 -441l-113 -94q-48 27 -138 94t-153 127q-76 76 -76 131q0 37 21.5 69.5t56.5 54.5t67.5 36t65.5 23z" />
    <glyph glyph-name="eacute.alt" horiz-adv-x="1005" 
d="M575 1092q183 0 299.5 -100.5t116.5 -289.5q0 -119 -43 -266h-514q1 -89 53.5 -127.5t133.5 -38.5q127 0 256 84l112 -272q-2 -2 -19.5 -12.5t-56.5 -28.5t-86.5 -34t-116 -28t-137.5 -12q-143 0 -250 42t-170 117.5t-93.5 173.5t-30.5 218q0 91 20.5 174t64 156.5
t107 127.5t154.5 85t200 31zM553 805q-49 0 -84.5 -40.5t-38.5 -123.5h197q6 43 6 78q-3 86 -80 86zM356 1249l267 441q33 -9 65.5 -23t67.5 -36t56.5 -54.5t21.5 -69.5q0 -55 -76 -131q-63 -60 -153 -127t-138 -94z" />
    <glyph glyph-name="ecircumflex.alt" horiz-adv-x="1005" 
d="M575 1092q183 0 299.5 -100.5t116.5 -289.5q0 -119 -43 -266h-514q1 -89 53.5 -127.5t133.5 -38.5q127 0 256 84l112 -272q-2 -2 -19.5 -12.5t-56.5 -28.5t-86.5 -34t-116 -28t-137.5 -12q-143 0 -250 42t-170 117.5t-93.5 173.5t-30.5 218q0 91 20.5 174t64 156.5
t107 127.5t154.5 85t200 31zM553 805q-49 0 -84.5 -40.5t-38.5 -123.5h197q6 43 6 78q-3 86 -80 86zM295 1153l-127 102q40 61 110 154.5t125 155.5q50 56 77.5 73t74.5 17q50 0 75.5 -16.5t76.5 -73.5q109 -123 241 -308l-127 -104l-266 219z" />
    <glyph glyph-name="edieresis.alt" horiz-adv-x="1005" 
d="M575 1092q183 0 299.5 -100.5t116.5 -289.5q0 -119 -43 -266h-514q1 -89 53.5 -127.5t133.5 -38.5q127 0 256 84l112 -272q-2 -2 -19.5 -12.5t-56.5 -28.5t-86.5 -34t-116 -28t-137.5 -12q-143 0 -250 42t-170 117.5t-93.5 173.5t-30.5 218q0 91 20.5 174t64 156.5
t107 127.5t154.5 85t200 31zM553 805q-49 0 -84.5 -40.5t-38.5 -123.5h197q6 43 6 78q-3 86 -80 86zM606 1376q0 70 48.5 117t129.5 47q80 0 129.5 -47.5t49.5 -116.5q0 -70 -49.5 -117t-129.5 -47q-81 0 -129.5 46.5t-48.5 117.5zM150 1376q0 70 48.5 117t129.5 47
q80 0 129 -47.5t49 -116.5q0 -71 -49 -117.5t-129 -46.5q-81 0 -129.5 46.5t-48.5 117.5z" />
    <glyph glyph-name="yacute.alt" horiz-adv-x="1105" 
d="M672 1059h436l-336 -1055q-77 -242 -201 -352.5t-319 -110.5q-85 0 -173 25t-147 61l88 287q101 -43 168 -43q60 0 91.5 23.5t52.5 70.5l22 53l-348 1041h438l109 -539h8zM356 1249l267 441q33 -9 65.5 -23t67.5 -36t56.5 -54.5t21.5 -69.5q0 -55 -76 -131
q-63 -60 -153 -127t-138 -94z" />
    <glyph glyph-name="ydieresis.alt" horiz-adv-x="1105" 
d="M672 1059h436l-336 -1055q-77 -242 -201 -352.5t-319 -110.5q-85 0 -173 25t-147 61l88 287q101 -43 168 -43q60 0 91.5 23.5t52.5 70.5l22 53l-348 1041h438l109 -539h8zM616 1376q0 70 49 117t130 47q80 0 129 -47.5t49 -116.5q0 -71 -49 -117.5t-129 -46.5
q-81 0 -130 46.5t-49 117.5zM160 1376q0 70 48.5 117t129.5 47q80 0 129 -47.5t49 -116.5q0 -71 -49 -117.5t-129 -46.5q-81 0 -129.5 46.5t-48.5 117.5z" />
    <glyph glyph-name="amacron.alt" 
d="M170 715l-70 293q79 32 206 58t243 26q117 0 194 -19t131 -67t77.5 -129t23.5 -205v-363q0 -36 10.5 -53.5t38.5 -17.5q19 0 43 6l29 -221q-103 -50 -219 -50q-79 0 -135 36t-80 97q-57 -61 -141 -97t-169 -36q-167 0 -242 91t-75 245q0 78 22.5 137.5t61 97t96.5 60.5
t122 32t144 9l94 -4v49q0 56 -21.5 77t-66.5 21q-50 0 -143 -21.5t-174 -51.5zM575 279v147q-28 4 -55 4q-40 0 -66 -21.5t-26 -70.5q0 -90 64 -90q32 0 83 31zM160 1241v266h696v-266h-696z" />
    <glyph glyph-name="abreve.alt" 
d="M170 715l-70 293q79 32 206 58t243 26q117 0 194 -19t131 -67t77.5 -129t23.5 -205v-363q0 -36 10.5 -53.5t38.5 -17.5q19 0 43 6l29 -221q-103 -50 -219 -50q-79 0 -135 36t-80 97q-57 -61 -141 -97t-169 -36q-167 0 -242 91t-75 245q0 78 22.5 137.5t61 97t96.5 60.5
t122 32t144 9l94 -4v49q0 56 -21.5 77t-66.5 21q-50 0 -143 -21.5t-174 -51.5zM575 279v147q-28 4 -55 4q-40 0 -66 -21.5t-26 -70.5q0 -90 64 -90q32 0 83 31zM702 1585l203 -57q-20 -68 -50 -123.5t-75.5 -104.5t-113.5 -76.5t-152 -27.5q-73 0 -134.5 20.5t-102.5 52.5
t-73.5 77.5t-50.5 89t-30 92.5l211 57q36 -86 76.5 -120.5t111.5 -34.5q64 0 104 35.5t76 119.5z" />
    <glyph glyph-name="aogonek.alt" 
d="M170 715l-70 293q79 32 206 58t243 26q117 0 194 -19t131 -67t77.5 -129t23.5 -205v-363q0 -36 10.5 -53.5t38.5 -17.5q19 0 43 6l29 -221q-82 -42 -139.5 -117t-57.5 -135q0 -64 68 -64q46 0 96 23l67 -197q-35 -21 -96.5 -35t-126.5 -14q-136 0 -203 61.5t-67 155.5
q0 148 149 287q-92 30 -124 118q-57 -61 -141 -97t-169 -36q-167 0 -242 91t-75 245q0 78 22.5 137.5t61 97t96.5 60.5t122 32t144 9l94 -4v49q0 56 -21.5 77t-66.5 21q-50 0 -143 -21.5t-174 -51.5zM575 279v147q-28 4 -55 4q-40 0 -66 -21.5t-26 -70.5q0 -90 64 -90
q32 0 83 31z" />
    <glyph glyph-name="emacron.alt" horiz-adv-x="1005" 
d="M575 1092q183 0 299.5 -100.5t116.5 -289.5q0 -119 -43 -266h-514q1 -89 53.5 -127.5t133.5 -38.5q127 0 256 84l112 -272q-2 -2 -19.5 -12.5t-56.5 -28.5t-86.5 -34t-116 -28t-137.5 -12q-143 0 -250 42t-170 117.5t-93.5 173.5t-30.5 218q0 91 20.5 174t64 156.5
t107 127.5t154.5 85t200 31zM553 805q-49 0 -84.5 -40.5t-38.5 -123.5h197q6 43 6 78q-3 86 -80 86zM205 1241v266h696v-266h-696z" />
    <glyph glyph-name="ebreve.alt" horiz-adv-x="1005" 
d="M575 1092q183 0 299.5 -100.5t116.5 -289.5q0 -119 -43 -266h-514q1 -89 53.5 -127.5t133.5 -38.5q127 0 256 84l112 -272q-2 -2 -19.5 -12.5t-56.5 -28.5t-86.5 -34t-116 -28t-137.5 -12q-143 0 -250 42t-170 117.5t-93.5 173.5t-30.5 218q0 91 20.5 174t64 156.5
t107 127.5t154.5 85t200 31zM553 805q-49 0 -84.5 -40.5t-38.5 -123.5h197q6 43 6 78q-3 86 -80 86zM756 1585l202 -57q-20 -68 -50 -123.5t-75.5 -104.5t-113.5 -76.5t-152 -27.5q-73 0 -134.5 20.5t-102.5 52.5t-73.5 77.5t-50.5 89t-30 92.5l211 57q36 -86 76.5 -120.5
t111.5 -34.5q64 0 104.5 35.5t76.5 119.5z" />
    <glyph glyph-name="edotaccent.alt" horiz-adv-x="1005" 
d="M575 1092q183 0 299.5 -100.5t116.5 -289.5q0 -119 -43 -266h-514q1 -89 53.5 -127.5t133.5 -38.5q127 0 256 84l112 -272q-2 -2 -19.5 -12.5t-56.5 -28.5t-86.5 -34t-116 -28t-137.5 -12q-143 0 -250 42t-170 117.5t-93.5 173.5t-30.5 218q0 91 20.5 174t64 156.5
t107 127.5t154.5 85t200 31zM553 805q-49 0 -84.5 -40.5t-38.5 -123.5h197q6 43 6 78q-3 86 -80 86zM352 1362q0 82 57.5 139.5t151.5 57.5t153.5 -57.5t59.5 -139.5q0 -84 -58.5 -139.5t-152.5 -55.5q-96 0 -153.5 55t-57.5 140z" />
    <glyph glyph-name="eogonek.alt" horiz-adv-x="991" 
d="M588 1092q175 0 278 -87t103 -260q0 -68 -22 -123.5t-62.5 -94t-88.5 -67t-108.5 -46.5t-113 -27.5t-111.5 -15.5q12 -47 54.5 -74t107.5 -27q119 0 249 84l105 -270l-4 -2q-4 -2 -13.5 -6t-21.5 -9.5t-28.5 -14t-34 -18t-39.5 -22.5t-43 -26q-66 -40 -107 -101.5
t-41 -113.5q0 -64 68 -64q46 0 96 23l68 -197q-35 -21 -96.5 -35t-127.5 -14q-136 0 -203 61.5t-67 155.5q0 134 129 268q-244 12 -358.5 151t-114.5 376q0 114 34.5 219t100.5 190t172.5 136t239.5 51zM616 750q0 25 -14 40t-39 15q-47 0 -82 -48t-39 -143q79 7 126.5 47.5
t47.5 88.5z" />
    <glyph glyph-name="ecaron.alt" horiz-adv-x="1005" 
d="M575 1092q183 0 299.5 -100.5t116.5 -289.5q0 -119 -43 -266h-514q1 -89 53.5 -127.5t133.5 -38.5q127 0 256 84l112 -272q-2 -2 -19.5 -12.5t-56.5 -28.5t-86.5 -34t-116 -28t-137.5 -12q-143 0 -250 42t-170 117.5t-93.5 173.5t-30.5 218q0 91 20.5 174t64 156.5
t107 127.5t154.5 85t200 31zM553 805q-49 0 -84.5 -40.5t-38.5 -123.5h197q6 43 6 78q-3 86 -80 86zM813 1655l129 -103q-39 -60 -109 -153t-126 -156q-50 -56 -77.5 -73t-74.5 -17q-51 0 -78 17t-76 73q-125 145 -241 307l129 105l266 -219z" />
    <glyph glyph-name="gcircumflex.alt" horiz-adv-x="1079" 
d="M942 672q0 -161 -110.5 -251.5t-284.5 -90.5q-42 0 -88 6l-21 -66l228 -37q92 -15 153 -29.5t117.5 -39.5t88.5 -58t50.5 -83t18.5 -117q0 -75 -35.5 -140.5t-104 -116t-178 -79.5t-248.5 -29q-491 0 -491 262q0 71 34.5 119t108.5 105q-69 33 -69 104q0 43 41 127
l61 125q-170 107 -170 326q0 177 117 280t321 103q142 0 248 -50l348 41v-268l-176 31l-8 -15q49 -63 49 -159zM586 -66l-162 27q-47 -50 -47 -86q0 -14 4.5 -24.5t20 -25t54 -22.5t97.5 -8q143 0 143 72q0 11 -2 19t-4.5 14t-9.5 10.5t-11 7t-16 5t-18 3.5t-23.5 4t-25.5 4
zM504 555q67 0 67 145q0 95 -17 133.5t-54 38.5q-34 0 -53 -31t-19 -114q0 -172 76 -172zM236 1153l-127 102q40 61 110 154.5t125 155.5q50 56 77.5 73t74.5 17q50 0 75 -16.5t76 -73.5q114 -128 242 -308l-127 -104l-266 219z" />
    <glyph glyph-name="gbreve.alt" horiz-adv-x="1079" 
d="M942 672q0 -161 -110.5 -251.5t-284.5 -90.5q-42 0 -88 6l-21 -66l228 -37q92 -15 153 -29.5t117.5 -39.5t88.5 -58t50.5 -83t18.5 -117q0 -75 -35.5 -140.5t-104 -116t-178 -79.5t-248.5 -29q-491 0 -491 262q0 71 34.5 119t108.5 105q-69 33 -69 104q0 43 41 127
l61 125q-170 107 -170 326q0 177 117 280t321 103q142 0 248 -50l348 41v-268l-176 31l-8 -15q49 -63 49 -159zM586 -66l-162 27q-47 -50 -47 -86q0 -14 4.5 -24.5t20 -25t54 -22.5t97.5 -8q143 0 143 72q0 11 -2 19t-4.5 14t-9.5 10.5t-11 7t-16 5t-18 3.5t-23.5 4t-25.5 4
zM504 555q67 0 67 145q0 95 -17 133.5t-54 38.5q-34 0 -53 -31t-19 -114q0 -172 76 -172zM678 1585l203 -57q-20 -68 -50 -123.5t-76 -104.5t-114 -76.5t-152 -27.5q-73 0 -134.5 20.5t-102.5 52.5t-73.5 77.5t-50.5 89t-30 92.5l211 57q36 -86 77 -120.5t112 -34.5
q64 0 104 35.5t76 119.5z" />
    <glyph glyph-name="gdotaccent.alt" horiz-adv-x="1079" 
d="M942 672q0 -161 -110.5 -251.5t-284.5 -90.5q-42 0 -88 6l-21 -66l228 -37q92 -15 153 -29.5t117.5 -39.5t88.5 -58t50.5 -83t18.5 -117q0 -75 -35.5 -140.5t-104 -116t-178 -79.5t-248.5 -29q-491 0 -491 262q0 71 34.5 119t108.5 105q-69 33 -69 104q0 43 41 127
l61 125q-170 107 -170 326q0 177 117 280t321 103q142 0 248 -50l348 41v-268l-176 31l-8 -15q49 -63 49 -159zM586 -66l-162 27q-47 -50 -47 -86q0 -14 4.5 -24.5t20 -25t54 -22.5t97.5 -8q143 0 143 72q0 11 -2 19t-4.5 14t-9.5 10.5t-11 7t-16 5t-18 3.5t-23.5 4t-25.5 4
zM504 555q67 0 67 145q0 95 -17 133.5t-54 38.5q-34 0 -53 -31t-19 -114q0 -172 76 -172zM287 1362q0 82 57.5 139.5t151.5 57.5t153.5 -57.5t59.5 -139.5q0 -84 -58.5 -139.5t-152.5 -55.5q-96 0 -153.5 55t-57.5 140z" />
    <glyph glyph-name="gcommaaccent.alt" horiz-adv-x="1079" 
d="M942 672q0 -161 -110.5 -251.5t-284.5 -90.5q-42 0 -88 6l-21 -66l228 -37q92 -15 153 -29.5t117.5 -39.5t88.5 -58t50.5 -83t18.5 -117q0 -75 -35.5 -140.5t-104 -116t-178 -79.5t-248.5 -29q-491 0 -491 262q0 71 34.5 119t108.5 105q-69 33 -69 104q0 43 41 127
l61 125q-170 107 -170 326q0 177 117 280t321 103q142 0 248 -50l348 41v-268l-176 31l-8 -15q49 -63 49 -159zM586 -66l-162 27q-47 -50 -47 -86q0 -14 4.5 -24.5t20 -25t54 -22.5t97.5 -8q143 0 143 72q0 11 -2 19t-4.5 14t-9.5 10.5t-11 7t-16 5t-18 3.5t-23.5 4t-25.5 4
zM504 555q67 0 67 145q0 95 -17 133.5t-54 38.5q-34 0 -53 -31t-19 -114q0 -172 76 -172zM711 1602l-125 -453q-32 2 -52.5 4t-54 7.5t-55.5 14.5t-44.5 22.5t-34 35t-11.5 49.5q0 53 45 127q93 149 194 260z" />
    <glyph glyph-name="kcommaaccent.alt" horiz-adv-x="1130" 
d="M498 1423v-796h6l207 432h436l-277 -514l252 -545h-442l-115 272l-164 -272h-309v1423h406zM416 -88l-127 -449l137 -65q122 134 195 260q45 74 45 127q0 33 -18 57t-41.5 36.5t-63 20t-64 9.5t-63.5 4z" />
    <glyph glyph-name="wcircumflex.alt" horiz-adv-x="1550" 
d="M1085 1059h457l-217 -1059h-475l-72 449h-6l-88 -449h-451l-227 1059h473l62 -533h10l74 533h319l92 -539h8zM522 1153l-127 102q39 60 109.5 153.5t126.5 156.5q50 56 77 73t74 17q50 0 75.5 -16.5t76.5 -73.5q114 -128 242 -308l-127 -104l-267 219z" />
    <glyph glyph-name="wgrave.alt" horiz-adv-x="1550" 
d="M1085 1059h457l-217 -1059h-475l-72 449h-6l-88 -449h-451l-227 1059h473l62 -533h10l74 533h319l92 -539h8zM717 1690l268 -441l-113 -94q-48 27 -137.5 93.5t-152.5 127.5q-76 76 -76 131q0 37 21.5 69.5t56.5 54.5t67.5 36t65.5 23z" />
    <glyph glyph-name="wacute.alt" horiz-adv-x="1550" 
d="M1085 1059h457l-217 -1059h-475l-72 449h-6l-88 -449h-451l-227 1059h473l62 -533h10l74 533h319l92 -539h8zM526 1249l267 441q33 -9 65.5 -23t67.5 -36t56.5 -54.5t21.5 -69.5q0 -55 -76 -131q-63 -60 -153 -127t-138 -94z" />
    <glyph glyph-name="wdieresis.alt" horiz-adv-x="1550" 
d="M1085 1059h457l-217 -1059h-475l-72 449h-6l-88 -449h-451l-227 1059h473l62 -533h10l74 533h319l92 -539h8zM840 1376q0 70 48.5 117t129.5 47q80 0 129 -47.5t49 -116.5q0 -71 -49 -117.5t-129 -46.5q-81 0 -129.5 46.5t-48.5 117.5zM383 1376q0 70 48.5 117t129.5 47
q80 0 129 -47.5t49 -116.5q0 -71 -49 -117.5t-129 -46.5q-81 0 -129.5 46.5t-48.5 117.5z" />
    <glyph glyph-name="ygrave.alt" horiz-adv-x="1105" 
d="M672 1059h436l-336 -1055q-77 -242 -201 -352.5t-319 -110.5q-85 0 -173 25t-147 61l88 287q101 -43 168 -43q60 0 91.5 23.5t52.5 70.5l22 53l-348 1041h438l109 -539h8zM500 1690l268 -441l-113 -94q-48 27 -137.5 93.5t-152.5 127.5q-76 76 -76 131q0 37 21.5 69.5
t56.5 54.5t67.5 36t65.5 23z" />
    <glyph glyph-name="ycircumflex.alt" horiz-adv-x="1105" 
d="M672 1059h436l-336 -1055q-77 -242 -201 -352.5t-319 -110.5q-85 0 -173 25t-147 61l88 287q101 -43 168 -43q60 0 91.5 23.5t52.5 70.5l22 53l-348 1041h438l109 -539h8zM297 1153l-127 102q39 60 109.5 153.5t126.5 156.5q50 56 77 73t74 17q50 0 75.5 -16.5
t76.5 -73.5q109 -123 241 -308l-127 -104l-266 219z" />
    <glyph glyph-name="zacute.alt" horiz-adv-x="985" 
d="M940 0h-889v258l375 481h-358v320h854v-250l-379 -483h397v-326zM315 1249l267 441q33 -9 65.5 -23t67.5 -36t56.5 -54.5t21.5 -69.5q0 -55 -76 -131q-63 -60 -153 -127t-138 -94z" />
    <glyph glyph-name="zdotaccent.alt" horiz-adv-x="985" 
d="M940 0h-889v258l375 481h-358v320h854v-250l-379 -483h397v-326zM281 1362q0 82 57 139.5t151 57.5t153.5 -57.5t59.5 -139.5q0 -84 -58 -139.5t-152 -55.5q-96 0 -153.5 55t-57.5 140z" />
    <glyph glyph-name="zcaron.alt" horiz-adv-x="985" 
d="M940 0h-889v258l375 481h-358v320h854v-250l-379 -483h397v-326zM750 1655l129 -103q-39 -59 -109.5 -152.5t-126.5 -156.5q-50 -56 -77 -73t-74 -17q-51 0 -78 17t-76 73q-131 151 -242 307l129 105l267 -219z" />
    </font>
</defs>
</svg>
