<?xml version="1.0" standalone="no"?>
<!DOCTYPE svg PUBLIC "-//W3C//DTD SVG 1.1//EN" "http://www.w3.org/Graphics/SVG/1.1/DTD/svg11.dtd" >
<svg xmlns="http://www.w3.org/2000/svg" xmlns:xlink="http://www.w3.org/1999/xlink" version="1.1">
<metadata>
Created by FontForge 20170731 at Tue Dec  7 19:59:59 2021
 By Aleksey,,,
Copyright (c) 2008 by TypeTogether. All rights reserved.
</metadata>
<defs>
<font id="Bree-BoldOblique" horiz-adv-x="1095" >
  <font-face 
    font-family="Bree Rg"
    font-weight="700"
    font-style="oblique"
    font-stretch="normal"
    units-per-em="2048"
    panose-1="2 0 8 6 0 0 0 9 0 4"
    ascent="1475"
    descent="-573"
    x-height="1047"
    cap-height="1362"
    bbox="-276 -592 2167 1892"
    underline-thickness="102"
    underline-position="-307"
    slope="-10"
    unicode-range="U+000D-FB04"
  />
<missing-glyph horiz-adv-x="1024" 
 />
    <glyph glyph-name="ff" unicode="ff" horiz-adv-x="1310" 
d="M586 780l-211 -1210h-342l266 1499q11 61 23.5 106.5t35 95.5t55.5 84t79.5 63t113.5 43t152 14q68 0 149.5 -21t145.5 -53q104 74 278 74q72 0 160.5 -25.5t148.5 -63.5l-114 -217q-94 54 -174 54q-53 0 -83.5 -27.5t-43.5 -91.5l-13 -55h283l-47 -269h-283l-213 -1210
h-342l213 1210h-237zM645 1104l-10 -55h235q20 100 35 145q-71 29 -129 29q-55 0 -87 -27t-44 -92z" />
    <glyph glyph-name="fi" unicode="fi" horiz-adv-x="1112" 
d="M586 780l-211 -1210h-342l264 1501q13 74 29.5 128t50 109.5t81 90t124.5 56.5t178 22q106 0 213 -31.5t174 -71.5l-115 -219q-51 30 -120.5 50t-116.5 20q-61 0 -98 -27.5t-50 -91.5l-12 -57h567l-184 -1049h-344l137 780h-225z" />
    <glyph glyph-name="fl" unicode="fl" horiz-adv-x="1290" 
d="M586 780l-211 -1210h-342l266 1501q7 42 15 75t21 72t31 69t42 61t57.5 53t74.5 40t95.5 27t118.5 9q165 0 354 -84h162l-180 -1024q-7 -40 -7 -58q0 -75 70 -75q51 0 127 30l33 -225q-58 -36 -140.5 -55t-156.5 -19q-84 0 -141.5 18t-88 52.5t-43 75t-12.5 94.5
q0 52 21 184l67 389h-233zM645 1106l-10 -57h233l27 153q-62 23 -119 23q-55 0 -87 -27t-44 -92z" />
    <glyph glyph-name="ffi" unicode="ffi" horiz-adv-x="1687" 
d="M1161 780l-211 -1210h-342l213 1210h-235l-211 -1210h-342l266 1499q11 61 23.5 106.5t35 95.5t55.5 84t79.5 63t113.5 43t152 14q137 0 284 -70q109 72 293 72q106 0 213 -31.5t174 -71.5l-114 -219q-51 30 -121 50t-117 20q-60 0 -97 -27t-50 -92l-13 -57h568
l-185 -1049h-344l137 780h-225zM645 1104l-10 -55h233l4 22q7 50 29 125q-71 27 -125 27q-55 0 -87 -27t-44 -92z" />
    <glyph glyph-name="ffl" unicode="ffl" horiz-adv-x="1865" 
d="M1161 780l-211 -1210h-342l215 1210h-237l-211 -1210h-342l266 1499q11 61 23.5 106.5t35 95.5t55.5 84t79.5 63t113.5 43t152 14q65 0 143 -20.5t143 -51.5q109 74 285 74q165 0 354 -84h162l-180 -1024q-6 -35 -6 -58q0 -75 70 -75q49 0 126 30l33 -225
q-58 -36 -140.5 -55t-156.5 -19q-84 0 -141.5 18t-87.5 52.5t-42.5 75t-12.5 94.5q0 58 20 184l68 389h-234zM1221 1106l-11 -57h234l26 153q-62 23 -118 23q-55 0 -87 -27t-44 -92zM645 1104l-10 -55h235q12 78 33 145q-71 29 -127 29q-55 0 -87 -27t-44 -92z" />
    <glyph glyph-name="tt" unicode="tt" horiz-adv-x="1370" 
d="M961 1423h346l-66 -374h256l-47 -269h-256l-74 -413q-6 -34 -6 -60q0 -46 22.5 -64t73.5 -18q46 0 117 33l47 -219q-54 -31 -138.5 -51.5t-168.5 -20.5q-91 0 -154 19.5t-95.5 55.5t-46 78t-13.5 97q0 43 18 158l72 405h-256l-76 -430q-6 -34 -6 -61q0 -70 59 -70
q45 0 107 25l37 -215q-50 -26 -126.5 -44t-142.5 -18q-84 0 -142 18t-89 52.5t-44 76t-13 95.5q0 63 18 166l184 1048h347l-66 -374h256z" />
    <glyph glyph-name=".notdef" horiz-adv-x="1024" 
 />
    <glyph glyph-name=".null" horiz-adv-x="0" 
 />
    <glyph glyph-name=".null" horiz-adv-x="0" 
 />
    <glyph glyph-name="nonmarkingreturn" horiz-adv-x="682" 
 />
    <glyph glyph-name="CR" unicode="&#xd;" horiz-adv-x="450" 
 />
    <glyph glyph-name="space" unicode=" " horiz-adv-x="403" 
 />
    <glyph glyph-name="exclam" unicode="!" horiz-adv-x="546" 
d="M317 1083l39 217q10 55 52.5 89t119.5 34t107 -35t20 -92l-39 -213l-170 -682h-198zM121 102q0 75 59 131t142 56q70 0 108.5 -37t38.5 -96q0 -75 -57 -133t-144 -58q-72 0 -109.5 38.5t-37.5 98.5z" />
    <glyph glyph-name="quotedbl" unicode="&#x22;" horiz-adv-x="712" 
d="M332 1362h227l-104 -483h-187zM629 1362h231l-106 -483h-189z" />
    <glyph glyph-name="numbersign" unicode="#" horiz-adv-x="1083" 
d="M575 0l80 311h-192l-82 -311h-176l82 311h-183l29 162h195l78 289h-181l27 162h194l86 315h177l-86 -315h194l86 315h176l-86 -315h187l-29 -162h-199l-75 -289h184l-29 -162h-201l-79 -311h-177zM582 762l-78 -289h194l78 289h-194z" />
    <glyph glyph-name="dollar" unicode="$" 
d="M72 141l155 265q66 -46 167.5 -85.5t178.5 -39.5q69 0 112.5 28.5t43.5 91.5q0 14 -3.5 27t-12 24.5t-16.5 20t-24 18.5t-26.5 16t-32 15t-33.5 14t-37.5 14.5t-37.5 14.5q-56 21 -97 45t-81 63t-61 97.5t-21 134.5q0 179 107.5 287t293.5 133l33 205h317l-36 -232
q161 -54 262 -170l-199 -206q-157 133 -285 133q-61 0 -98 -25.5t-37 -75.5q0 -20 4 -36.5t16 -30.5t22.5 -23.5t34 -22t39 -19.5t50.5 -22t55 -24q58 -25 99 -49.5t84 -64t65.5 -96t22.5 -128.5q0 -163 -99 -275t-268 -153l-37 -211h-317l35 205q-109 19 -200.5 58.5
t-137.5 78.5z" />
    <glyph glyph-name="percent" unicode="%" horiz-adv-x="1693" 
d="M1468 711q123 0 196 -75t73 -204q0 -55 -8 -104q-34 -188 -136.5 -275.5t-255.5 -87.5q-138 0 -209 72.5t-71 200.5q0 70 10 124q32 182 138.5 265.5t262.5 83.5zM1356 125q51 0 85 41.5t54 159.5q10 56 10 114q0 109 -69 109q-51 0 -84.5 -44t-55.5 -165q-8 -52 -8 -111
q0 -104 68 -104zM616 1346q123 0 196 -75t73 -204q0 -55 -8 -104q-34 -188 -136.5 -275.5t-255.5 -87.5q-138 0 -209 72t-71 200q0 71 10 125q32 182 138.5 265.5t262.5 83.5zM504 760q51 0 85 41.5t54 159.5q10 56 10 114q0 109 -69 109q-51 0 -84.5 -44t-55.5 -165
q-8 -52 -8 -111q0 -104 68 -104zM655 -29l-194 90l823 1282l201 -88z" />
    <glyph glyph-name="ampersand" unicode="&#x26;" horiz-adv-x="1701" 
d="M1843 1219q-101 -216 -225 -365.5t-291 -241.5h375l-45 -258h-201q-60 -95 -124.5 -162.5t-150.5 -119.5t-196.5 -77.5t-249.5 -25.5t-244.5 41t-168 112.5t-93 161.5t-30.5 195q0 134 42 255t119.5 216.5t200.5 152t273 56.5q148 0 232.5 -63t84.5 -164q0 -60 -28 -117
t-72 -98q156 92 285 252.5t216 341.5zM813 254q52 0 111.5 18t120 53.5t112.5 98t78 141.5q-267 -115 -680 -112q7 -199 258 -199zM782 909q-66 0 -126.5 -72t-80.5 -186q106 7 184 57t89 115q16 86 -66 86z" />
    <glyph glyph-name="quotesingle" unicode="'" horiz-adv-x="413" 
d="M332 1362h227l-104 -483h-187z" />
    <glyph glyph-name="parenleft" unicode="(" horiz-adv-x="681" 
d="M170 324q0 588 475 1204l266 -144q-208 -304 -305.5 -547t-97.5 -507q0 -297 102 -615l-284 -123q-75 161 -115.5 354.5t-40.5 377.5z" />
    <glyph glyph-name="parenright" unicode=")" horiz-adv-x="681" 
d="M680 770q0 -319 -118 -604t-365 -580l-252 162q145 214 225 363.5t127 321.5t47 364q0 143 -27 305t-73 303l297 106q67 -157 103 -354t36 -387z" />
    <glyph glyph-name="asterisk" unicode="*" horiz-adv-x="917" 
d="M692 1110q34 -5 71.5 -18t78 -34.5t66.5 -57t26 -78.5q0 -52 -35 -83.5t-88 -31.5q-68 0 -99.5 52t-31.5 120q0 79 12 131zM715 1161q46 77 117.5 134t142.5 57q50 0 74 -28.5t24 -74.5q0 -64 -53 -98.5t-125 -34.5q-94 0 -180 45zM618 1110q-5 -46 -18.5 -93.5
t-36.5 -94t-61 -76t-84 -29.5q-40 0 -70.5 29t-30.5 74q0 43 33.5 79.5t83 59t98 36t86.5 15.5zM608 1161q-83 -33 -178 -33q-58 0 -104.5 30t-46.5 89q0 40 31 72.5t85 32.5q78 0 134.5 -58.5t78.5 -132.5zM668 1204q-36 45 -56 97t-20 96q0 71 37.5 116.5t97.5 45.5
q98 0 98 -95q0 -138 -157 -260z" />
    <glyph glyph-name="plus" unicode="+" 
d="M543 772l53 303h281l-54 -303h277l-47 -274h-277l-53 -295h-281l54 295h-277l47 274h277z" />
    <glyph glyph-name="comma" unicode="," horiz-adv-x="499" 
d="M477 154l-330 -519l-170 60q93 330 154 459q26 56 60.5 83t89.5 27q58 0 113 -36t83 -74z" />
    <glyph glyph-name="hyphen" unicode="-" horiz-adv-x="659" 
d="M139 455l45 252h537l-45 -252h-537z" />
    <glyph glyph-name="period" unicode="." horiz-adv-x="475" 
d="M88 98q0 80 55.5 136.5t143.5 56.5q70 0 107.5 -35.5t37.5 -95.5q0 -81 -53 -138t-143 -57q-73 0 -110.5 36.5t-37.5 96.5z" />
    <glyph glyph-name="slash" unicode="/" horiz-adv-x="944" 
d="M233 -272l-258 139l951 1669l266 -133z" />
    <glyph glyph-name="zero" unicode="0" 
d="M778 1346q197 0 302.5 -118.5t105.5 -340.5q0 -111 -19 -230q-29 -186 -84 -317.5t-135.5 -209.5t-178 -113t-222.5 -35q-198 0 -302 117t-104 339q0 142 19 254q31 174 91 302t142 204t177.5 112t207.5 36zM590 252q40 0 71 15.5t62 57t56.5 123t45.5 203.5
q21 138 21 226q0 190 -109 190q-53 0 -92.5 -31t-77.5 -122.5t-65 -249.5q-19 -117 -19 -220q0 -99 26.5 -145.5t80.5 -46.5z" />
    <glyph glyph-name="one" unicode="1" horiz-adv-x="1005" 
d="M213 258h223l121 688l-235 -110l-84 225l464 258h287l-69 -252l-142 -809h217l-47 -258h-782z" />
    <glyph glyph-name="two" unicode="2" horiz-adv-x="1064" 
d="M389 895l-147 227q267 224 528 224q177 0 275 -92.5t98 -237.5q0 -130 -58.5 -239t-191.5 -228l-303 -273h469l-51 -276h-955l37 207l516 471q89 80 125.5 136.5t36.5 123.5q0 47 -29.5 72.5t-72.5 25.5q-61 0 -125 -35.5t-152 -105.5z" />
    <glyph glyph-name="three" unicode="3" horiz-adv-x="1056" 
d="M373 932l-123 215q36 29 88 60t123.5 64t159.5 54t172 21q172 0 259 -79.5t87 -203.5q0 -204 -217 -334q125 -169 125 -321q0 -85 -30 -160t-90 -137.5t-163 -99t-238 -36.5q-128 0 -251 34t-203 81l137 260q63 -37 156.5 -63.5t156.5 -26.5q77 0 127.5 35.5t50.5 103.5
q0 64 -55 156q-125 -38 -235 -55l-45 239q75 16 129.5 30t110.5 34.5t91 43t57.5 54t22.5 68.5q0 42 -26.5 62t-67.5 20q-102 0 -309 -119z" />
    <glyph glyph-name="four" unicode="4" horiz-adv-x="1138" 
d="M881 881h196l-57 -326h168l-47 -270h-170l-49 -285h-344l49 285h-504l49 282l537 793l270 -148l-459 -657h168z" />
    <glyph glyph-name="five" unicode="5" horiz-adv-x="1071" 
d="M260 596l217 723h715l-51 -281h-443l-69 -233q89 -8 161 -32t130 -67t90 -112t32 -160q0 -70 -17 -133t-58 -122.5t-103 -103t-157 -69.5t-215 -26q-119 0 -245 35t-192 81l142 260q65 -38 150 -66t153 -28q90 0 137 41.5t47 116.5q0 38 -19 68t-54.5 48.5t-74.5 30.5
t-92.5 18t-93 8t-90.5 3z" />
    <glyph glyph-name="six" unicode="6" horiz-adv-x="1093" 
d="M1034 1382l31 -264q-87 -11 -163.5 -34.5t-148 -63t-125.5 -101.5t-81 -141q51 32 126.5 54t139.5 22q136 0 213.5 -85.5t77.5 -229.5q0 -122 -34 -223.5t-99.5 -176.5t-167.5 -117t-232 -42q-205 0 -307 119t-102 329q0 7 1 21.5t1 21.5q4 79 15.5 153.5t39.5 162
t69.5 163t109 150.5t154.5 130.5t210.5 96t271.5 55.5zM766 487q0 64 -25 99t-71 35q-33 0 -80.5 -15.5t-79.5 -34.5q-12 -102 -12 -176q0 -77 23 -116t77 -39q70 0 119 64.5t49 182.5z" />
    <glyph glyph-name="seven" unicode="7" horiz-adv-x="1007" 
d="M225 1038l51 281h934l-41 -225q-486 -343 -585 -967l-21 -127h-360l24 143q12 63 21.5 109t30 119.5t43.5 132t60.5 133.5t82.5 138.5t109.5 133t140.5 129.5h-490z" />
    <glyph glyph-name="eight" unicode="8" horiz-adv-x="1101" 
d="M129 289q0 72 24 134.5t69 113t87 84.5t101 73q-129 109 -129 250q0 172 134.5 287t364.5 115q100 0 175 -23.5t118 -64t63.5 -89t20.5 -104.5q0 -104 -63 -194t-166 -158q168 -132 168 -297q0 -91 -33 -168t-98 -138t-174 -95.5t-250 -34.5q-112 0 -195.5 27t-129 73
t-66.5 98t-21 111zM733 377q0 29 -9.5 54t-30 48.5t-38 39t-47.5 38.5q-47 -37 -75.5 -63.5t-53 -69.5t-24.5 -88q0 -49 30 -81t93 -32q70 0 112.5 44.5t42.5 109.5zM750 1120q-59 0 -97.5 -34.5t-38.5 -92.5q0 -75 105 -151q131 91 131 190q0 46 -29 67t-71 21z" />
    <glyph glyph-name="nine" unicode="9" 
d="M291 -33l-25 256q394 49 490 312q-105 -62 -240 -62q-146 0 -223.5 87t-77.5 235q0 248 144 399.5t395 151.5q136 0 228 -57.5t132.5 -152.5t40.5 -223q0 -407 -217 -655.5t-647 -290.5zM553 836q0 -62 25.5 -96.5t74.5 -34.5q32 0 77 14t75 35q18 88 18 180
q0 75 -24.5 113t-79.5 38q-69 0 -117.5 -65t-48.5 -184z" />
    <glyph glyph-name="colon" unicode=":" horiz-adv-x="475" 
d="M88 98q0 80 55.5 136.5t143.5 56.5q70 0 107.5 -35.5t37.5 -95.5q0 -81 -53 -138t-143 -57q-73 0 -110.5 36.5t-37.5 96.5zM219 852q0 79 56 134.5t143 55.5q73 0 111 -35.5t38 -95.5q0 -80 -54.5 -136t-145.5 -56q-73 0 -110.5 36t-37.5 97z" />
    <glyph glyph-name="semicolon" unicode=";" horiz-adv-x="499" 
d="M475 154l-328 -519l-170 60q93 330 154 459q26 56 60 83t90 27q58 0 113 -36.5t81 -73.5zM262 852q0 79 55.5 134.5t143.5 55.5q73 0 110 -35t37 -96q0 -80 -54 -136t-144 -56q-73 0 -110.5 36t-37.5 97z" />
    <glyph glyph-name="less" unicode="&#x3c;" 
d="M1073 1133l88 -252l-551 -232l463 -246l-155 -245l-699 393l35 201z" />
    <glyph glyph-name="equal" unicode="=" 
d="M1133 971l-50 -275h-829l49 275h830zM1059 537l-49 -273h-830l49 273h830z" />
    <glyph glyph-name="greater" unicode="&#x3e;" 
d="M717 672l-447 235l146 232l700 -387l-37 -201l-811 -381l-98 256z" />
    <glyph glyph-name="question" unicode="?" horiz-adv-x="829" 
d="M612 1096q0 84 -102 84q-60 0 -182 -31l-6 225q46 19 131.5 34t162.5 15q342 0 342 -270q0 -62 -16.5 -114t-42 -91t-74.5 -82t-95 -75t-124 -80q-52 -32 -78.5 -70t-35.5 -94l-27 -146h-256q5 152 20 228q5 27 12.5 51t14.5 43t20 38.5t21 32t25 29t25.5 24.5t29 23
t28.5 20t31.5 20.5t30.5 19.5q85 55 107 77q38 38 38 89zM117 102q0 75 58.5 131t141.5 56q70 0 109 -37t39 -96q0 -75 -57 -133t-144 -58q-72 0 -109.5 38.5t-37.5 98.5z" />
    <glyph glyph-name="at" unicode="@" horiz-adv-x="1945" 
d="M1698 680q0 204 -122 320t-364 116q-153 0 -281 -42.5t-219 -117t-154 -176t-93.5 -219t-30.5 -246.5q0 -110 28 -202t83 -162t144 -109t204 -39q151 0 297 56l29 -193q-166 -63 -369 -63q-139 0 -252 38t-188.5 103t-126.5 154.5t-74 188.5t-23 208q0 196 54 364.5
t150 291t226 209.5t284.5 130t324.5 43q153 0 283.5 -41.5t226.5 -119.5t150 -197t54 -266q0 -167 -46.5 -302t-129.5 -223.5t-196 -136t-248 -47.5h-166v102q-2 0 -5 1t-5 1q-32 -33 -56.5 -52.5t-71 -36.5t-104.5 -17q-70 0 -122 26t-80.5 71t-42 98t-13.5 116
q0 260 145 420t398 160q55 0 139 -16t168 -50l-110 -635q60 2 113.5 33t97 88.5t69 153t25.5 217.5zM1145 326l63 362q-27 10 -63 10q-71 0 -122.5 -58.5t-74 -138t-22.5 -163.5q0 -135 106 -135q44 0 74 32.5t39 90.5z" />
    <glyph glyph-name="A" unicode="A" horiz-adv-x="1325" 
d="M373 0h-367l680 1362h408l223 -1362h-350l-41 291h-408zM840 1034l-224 -485h287l-51 485h-12z" />
    <glyph glyph-name="B" unicode="B" horiz-adv-x="1214" 
d="M354 1362h520q406 0 406 -285q0 -206 -209 -344q174 -75 174 -258q0 -223 -166.5 -349t-470.5 -126h-493zM569 578l-55 -312h133q221 0 221 189q0 61 -40.5 92t-116.5 31h-142zM662 1106l-50 -281h99q99 0 150.5 49t51.5 123q0 109 -139 109h-112z" />
    <glyph glyph-name="C" unicode="C" horiz-adv-x="1214" 
d="M766 262q135 0 311 135l137 -227q-129 -101 -253 -148t-265 -47q-247 0 -385.5 145t-138.5 408q0 186 43.5 335t115 244.5t168 159.5t196.5 90.5t208 26.5q315 0 473 -299l-254 -157q-91 166 -243 166q-148 0 -244 -141t-96 -380q0 -149 56 -230t171 -81z" />
    <glyph glyph-name="D" unicode="D" horiz-adv-x="1323" 
d="M115 0l239 1362h477q268 0 417 -135t149 -389q0 -177 -42 -319.5t-114.5 -238t-174.5 -159.5t-218 -92.5t-248 -28.5h-485zM659 1087l-145 -815h137q177 0 281 143t104 386q0 286 -262 286h-115z" />
    <glyph glyph-name="E" unicode="E" horiz-adv-x="1079" 
d="M115 0l239 1362h891l-55 -307h-537l-37 -209h461l-53 -303h-461l-43 -236h553l-53 -307h-905z" />
    <glyph glyph-name="F" unicode="F" horiz-adv-x="1101" 
d="M354 1362h940l-55 -307h-586l-41 -224h488l-53 -307h-488l-92 -524h-352z" />
    <glyph glyph-name="G" unicode="G" horiz-adv-x="1296" 
d="M1329 700l-102 -585q-102 -61 -243.5 -100.5t-289.5 -39.5q-250 0 -386 141t-136 421q0 181 43.5 327.5t115.5 241.5t169.5 159t200 91.5t212.5 27.5q74 0 143 -15.5t134.5 -48t119.5 -89.5t87 -133l-275 -166q-52 88 -108.5 124t-128.5 36q-154 0 -250 -142.5
t-96 -392.5q0 -299 219 -299q89 0 149 35l72 407h350z" />
    <glyph glyph-name="H" unicode="H" horiz-adv-x="1366" 
d="M1137 1362h354l-240 -1362h-354l94 528h-432l-92 -528h-352l239 1362h353l-93 -526h430z" />
    <glyph glyph-name="I" unicode="I" horiz-adv-x="598" 
d="M475 0h-352l239 1362h353z" />
    <glyph glyph-name="J" unicode="J" horiz-adv-x="907" 
d="M23 80l137 256q92 -66 192 -66q76 0 115.5 34t56.5 126l164 932h352l-157 -899q-26 -138 -49 -201q-53 -153 -160.5 -220t-284.5 -67q-106 0 -203.5 30.5t-162.5 74.5z" />
    <glyph glyph-name="K" unicode="K" horiz-adv-x="1220" 
d="M1446 1362l-488 -576l273 -786h-385l-162 514l-160 -176l-59 -338h-350l239 1362h351l-97 -528l8 -3l445 531h385z" />
    <glyph glyph-name="L" unicode="L" horiz-adv-x="1054" 
d="M117 0l239 1362h351l-185 -1053h543l-55 -309h-893z" />
    <glyph glyph-name="M" unicode="M" horiz-adv-x="1622" 
d="M920 596l417 766h365l-170 -1362h-332l86 711h-8l-320 -574h-247l-119 563h-6l-164 -700h-332l318 1362h364l139 -766h9z" />
    <glyph glyph-name="N" unicode="N" horiz-adv-x="1357" 
d="M1135 1362h348l-240 -1362h-311l-330 758h-8l-133 -758h-346l239 1362h324l317 -741h9z" />
    <glyph glyph-name="O" unicode="O" horiz-adv-x="1363" 
d="M1417 653q-58 -343 -254 -510.5t-493 -167.5q-240 0 -370 139t-130 388q0 112 16 211q27 152 84.5 271t131 193t165.5 122.5t182 67.5t187 19q103 0 191 -31.5t157 -94t108.5 -165t39.5 -235.5q0 -112 -15 -207zM553 705q-16 -85 -16 -170q0 -269 198 -269
q68 0 123.5 31.5t93.5 88t62.5 124.5t38.5 149q12 71 12 160q0 44 -5.5 81.5t-19 74t-34.5 62.5t-54.5 41.5t-77.5 15.5q-54 0 -100.5 -21t-81.5 -57t-63 -86.5t-46.5 -106t-29.5 -118.5z" />
    <glyph glyph-name="P" unicode="P" horiz-adv-x="1171" 
d="M545 451l-78 -451h-352l239 1362h496q216 0 334.5 -94.5t118.5 -274.5q0 -257 -176 -399.5t-474 -142.5h-108zM596 725h80q121 0 189.5 51.5t68.5 175.5q0 81 -47.5 107t-145.5 26h-82z" />
    <glyph glyph-name="Q" unicode="Q" horiz-adv-x="1372" 
d="M735 778l-30 -213q-51 -12 -105.5 -9t-106 14t-97.5 39t-81 66t-55 94.5t-20 125.5q0 216 159.5 352.5t440.5 136.5q165 0 287.5 -58.5t194 -180.5t71.5 -297q0 -340 -236 -645q44 -53 70.5 -83t72.5 -74t86 -69.5t96 -48.5t117 -32l-112 -258q-163 22 -310 118t-251 236
q-106 -86 -205 -118t-219 -32q-182 0 -276.5 81t-94.5 212q0 145 94.5 239.5t282.5 94.5q95 0 195.5 -29t177.5 -69q62 98 102.5 214.5t40.5 227.5q0 127 -58 206t-182 79q-97 0 -148.5 -46.5t-51.5 -123.5q0 -62 33 -101t118 -49zM723 170q-96 63 -182 63q-41 0 -66.5 -19
t-25.5 -58q0 -33 25 -52.5t73 -19.5t97 24.5t79 61.5z" />
    <glyph glyph-name="R" unicode="R" horiz-adv-x="1243" 
d="M557 518l-90 -518h-352l239 1362h488q224 0 344.5 -82t120.5 -252q0 -152 -81 -253t-208 -146q32 -17 50 -45.5t34 -83.5l135 -500h-379l-106 442q-20 76 -97 76h-98zM602 766h133q93 0 148 55.5t55 151.5q0 65 -42 89.5t-132 24.5h-105z" />
    <glyph glyph-name="S" unicode="S" horiz-adv-x="1114" 
d="M66 129l163 279q70 -49 174.5 -90.5t184.5 -41.5q73 0 118.5 30.5t45.5 96.5q0 17 -6 32t-14 26.5t-25 24t-29 20t-37.5 19t-39.5 16.5t-45 17t-44 17q-47 18 -83 36.5t-74.5 49t-64 67t-41.5 89.5t-16 117q0 216 146.5 333t390.5 117q148 0 281 -62.5t211 -152.5
l-209 -217q-165 140 -299 140q-65 0 -104.5 -27t-39.5 -80q0 -15 3 -28t7 -23.5t14 -21.5t16.5 -18t23 -17t25.5 -15t32 -15t34 -14.5t40 -16t43 -17.5q49 -20 86 -39.5t77.5 -51t67 -67t43.5 -87t17 -112.5q0 -213 -157.5 -342t-408.5 -129q-157 0 -295 50t-212 108z" />
    <glyph glyph-name="T" unicode="T" horiz-adv-x="1153" 
d="M270 1362h1092l-55 -307h-375l-187 -1055h-350l185 1055h-363z" />
    <glyph glyph-name="U" unicode="U" horiz-adv-x="1288" 
d="M344 1362h350l-157 -893q-7 -35 -7 -57q0 -144 166 -144q93 0 146.5 46.5t70.5 144.5l160 903h350l-166 -942q-80 -449 -587 -449q-494 0 -494 369q0 56 12 121z" />
    <glyph glyph-name="V" unicode="V" horiz-adv-x="1271" 
d="M827 0h-381l-200 1362h342l106 -956h8l439 956h364z" />
    <glyph glyph-name="W" unicode="W" horiz-adv-x="1679" 
d="M1024 0l-33 735h-12l-299 -735h-375l-49 1362h340l6 -875h6l293 773h352l13 -744h8l276 846h351l-510 -1362h-367z" />
    <glyph glyph-name="X" unicode="X" horiz-adv-x="1333" 
d="M1153 1362h403l-552 -655l344 -707h-396l-198 438l-351 -438h-419l604 723l-309 639h393l168 -395z" />
    <glyph glyph-name="Y" unicode="Y" horiz-adv-x="1222" 
d="M1085 1362h388l-603 -838l-90 -524h-352l92 522l-291 840h363l147 -510h6z" />
    <glyph glyph-name="Z" unicode="Z" horiz-adv-x="1075" 
d="M1221 1159l-705 -889h569l-47 -270h-993l39 217l694 877h-530l47 268h962z" />
    <glyph glyph-name="bracketleft" unicode="[" horiz-adv-x="620" 
d="M57 -367l328 1856h487l-38 -215h-179l-252 -1426h179l-37 -215h-488z" />
    <glyph glyph-name="backslash" unicode="\" horiz-adv-x="944" 
d="M231 1466l314 74l381 -1663l-314 -74z" />
    <glyph glyph-name="bracketright" unicode="]" horiz-adv-x="620" 
d="M764 1489l-328 -1856h-487l37 215h176l252 1426h-176l38 215h488z" />
    <glyph glyph-name="asciicircum" unicode="^" horiz-adv-x="1177" 
d="M1200 604l-280 -41l-138 477l-303 -477l-274 43l530 797h219z" />
    <glyph glyph-name="underscore" unicode="_" horiz-adv-x="1024" 
d="M-59 -336l32 184h1024l-32 -184h-1024z" />
    <glyph glyph-name="grave" unicode="`" horiz-adv-x="1024" 
d="M735 1651l213 -422l-108 -74q-163 141 -238 227q-47 62 -47 107q0 35 16.5 63t47 47t56 30t60.5 22z" />
    <glyph glyph-name="a" unicode="a" horiz-adv-x="1112" 
d="M1182 997l-138 -776l-14 -221h-289v96l-10 2q-111 -129 -287 -129q-158 0 -237.5 104.5t-79.5 278.5q0 212 75 374.5t226 257.5t360 95q75 0 181.5 -20t212.5 -62zM729 330l86 493q-39 17 -92 17t-97.5 -30.5t-72.5 -79t-47.5 -109.5t-28 -119t-8.5 -111
q0 -83 26.5 -130.5t94.5 -47.5q52 0 88 31t51 86z" />
    <glyph glyph-name="b" unicode="b" horiz-adv-x="1101" 
d="M111 53l243 1370h342l-71 -407q90 63 217 63q156 0 240.5 -97t84.5 -286q0 -342 -168 -535.5t-473 -193.5q-113 0 -231 25t-184 61zM575 739l-90 -518q34 -14 97 -14q64 0 120 64.5t88.5 166.5t32.5 211q0 83 -29 136t-94 53q-45 0 -81.5 -27.5t-43.5 -71.5z" />
    <glyph glyph-name="c" unicode="c" horiz-adv-x="962" 
d="M649 233q97 0 228 84l81 -231q-170 -119 -407 -119q-197 0 -306.5 116t-109.5 329q0 138 34 252t90.5 189.5t132.5 127.5t158 75t169 23q128 0 231.5 -58.5t157.5 -178.5l-229 -152q-33 58 -69 88.5t-89 30.5q-111 0 -174.5 -102.5t-63.5 -260.5q0 -102 41.5 -157.5
t124.5 -55.5z" />
    <glyph glyph-name="d" unicode="d" horiz-adv-x="1114" 
d="M754 1079q60 0 106 -12l64 356h336l-213 -1200l-15 -223h-284l-5 98h-10q-105 -131 -272 -131q-76 0 -136 22.5t-97 59.5t-60.5 88.5t-33 103.5t-9.5 111q0 208 73 371t217 259.5t339 96.5zM729 326l88 497q-36 4 -51 4q-62 0 -112.5 -26t-84 -68.5t-57 -100
t-33.5 -118.5t-10 -125q0 -176 113 -176q59 0 99.5 35t47.5 78z" />
    <glyph glyph-name="e" unicode="e" horiz-adv-x="991" 
d="M782 772q0 32 -20.5 49t-50.5 17q-43 0 -80 -21.5t-63 -57.5t-43.5 -76t-28.5 -85q64 3 127 22t111 59.5t48 92.5zM760 1079q153 0 238 -69t85 -199q0 -71 -22.5 -130.5t-59 -101t-89.5 -74t-105.5 -52t-116 -33t-112.5 -20t-103 -9.5q-2 -75 40.5 -122.5t131.5 -47.5
q118 0 266 86l72 -219q-21 -15 -54.5 -32t-89 -39t-132 -36t-156.5 -14q-214 0 -318 114.5t-104 307.5q0 105 27 205.5t80.5 188t128 154t176 104.5t217.5 38z" />
    <glyph glyph-name="f" unicode="f" horiz-adv-x="733" 
d="M586 780l-211 -1210h-342l264 1499q14 79 29.5 133t47 109.5t75.5 88.5t115.5 54t166.5 21q87 0 178 -25.5t150 -63.5l-113 -217q-44 25 -93 39.5t-83 14.5q-54 0 -85.5 -26.5t-41.5 -92.5l-8 -55h280l-47 -269h-282z" />
    <glyph glyph-name="g" unicode="g" horiz-adv-x="1099" 
d="M428 -543q-163 0 -247.5 73t-84.5 194q0 123 72 213.5t225 168.5q-113 18 -185.5 110.5t-72.5 248.5q0 189 81 329t223 212.5t327 72.5q104 0 221 -20t195 -55l-142 -803q-28 -154 -47 -238q-59 -260 -198.5 -383t-366.5 -123zM739 420l72 405q-37 9 -70 9
q-68 0 -121.5 -35t-84.5 -92.5t-46.5 -122.5t-15.5 -133q0 -175 113 -175q57 0 98.5 34.5t54.5 109.5zM408 -211q0 -88 81 -88q80 0 117 66t64 223l20 119q-23 -22 -135 -103q-69 -50 -108 -101.5t-39 -115.5z" />
    <glyph glyph-name="h" unicode="h" horiz-adv-x="1097" 
d="M436 0h-342l252 1423h342l-74 -422q100 78 244 78q137 0 208 -64t71 -190q0 -59 -15 -139l-121 -686h-342l117 666q8 40 8 67q0 84 -71 84q-67 0 -107 -40t-51 -105z" />
    <glyph glyph-name="i" unicode="i" horiz-adv-x="557" 
d="M453 0h-342l184 1049h342zM334 1319q0 81 61 140t152 59q70 0 112.5 -42t42.5 -104q0 -82 -62 -138t-153 -56q-72 0 -112.5 39t-40.5 102z" />
    <glyph glyph-name="j" unicode="j" horiz-adv-x="544" 
d="M104 -29l191 1078h340l-195 -1098q-9 -54 -17.5 -90.5t-23.5 -83.5t-34 -77.5t-49 -63.5t-68.5 -52t-92.5 -31t-120 -12q-80 0 -167.5 22t-143.5 58l122 238q70 -39 129 -39q57 0 85.5 33t43.5 118zM340 1319q0 81 61 140t152 59q70 0 113 -42t43 -104q0 -82 -62 -138
t-153 -56q-72 0 -113 39t-41 102z" />
    <glyph glyph-name="k" unicode="k" horiz-adv-x="1089" 
d="M719 0l-129 403l-76 -14l-68 -389h-344l252 1423h344l-110 -569l8 -2q133 227 371 227q104 0 169.5 -59t65.5 -166q0 -132 -71.5 -216.5t-204.5 -143.5l170 -494h-377zM838 758q0 69 -68 69t-134 -77.5t-91 -184.5q119 19 206 71.5t87 121.5z" />
    <glyph glyph-name="l" unicode="l" horiz-adv-x="710" 
d="M354 1423h342l-186 -1052q-6 -37 -6 -68q1 -36 18 -51.5t53 -15.5q45 0 127 32l37 -227q-58 -34 -144 -54t-159 -20q-80 0 -135 17.5t-86.5 52.5t-45.5 80.5t-15 107.5q0 57 14 146z" />
    <glyph glyph-name="m" unicode="m" horiz-adv-x="1642" 
d="M449 0h-340l147 838l14 211h281l4 -111q64 69 136.5 105t168.5 36q191 0 248 -135q125 135 305 135q130 0 199 -64t69 -194q0 -46 -10 -108l-125 -713h-342l111 631q12 66 12 104q0 82 -67 82q-60 0 -97.5 -42.5t-48.5 -112.5l-117 -662h-342l111 623q14 82 14 108
q0 86 -69 86q-60 0 -96.5 -42t-49.5 -113z" />
    <glyph glyph-name="n" unicode="n" horiz-adv-x="1112" 
d="M449 0h-340l147 838l12 211h283l4 -113q130 143 324 143q271 0 274 -254q0 -47 -10 -112l-127 -713h-342l106 612q17 93 17 119q0 36 -18 61t-60 25q-64 0 -103.5 -41.5t-50.5 -109.5z" />
    <glyph glyph-name="o" unicode="o" horiz-adv-x="1087" 
d="M573 217q75 0 122 69t73 220q16 88 16 170q0 158 -102 158q-142 0 -190 -265q-19 -105 -19 -188q0 -164 100 -164zM137 543q22 124 69.5 220.5t107 154.5t134 95.5t145 51.5t146.5 14q50 0 98 -8t105.5 -33.5t99.5 -67t70.5 -115.5t28.5 -171q0 -78 -11 -154
q-23 -146 -80 -256.5t-139 -176t-179.5 -98t-209.5 -32.5q-190 0 -293.5 106.5t-103.5 303.5q0 98 12 166z" />
    <glyph glyph-name="p" unicode="p" horiz-adv-x="1120" 
d="M451 0l-76 -430h-342l252 1431q121 39 250 58.5t221 19.5q205 0 309 -108.5t104 -317.5q0 -314 -152.5 -500t-402.5 -186q-87 0 -163 33zM594 811l-102 -582q52 -18 96 -18q67 0 116.5 42.5t74.5 112t36.5 139t11.5 140.5q0 89 -27.5 135.5t-94.5 46.5q-71 0 -111 -16z
" />
    <glyph glyph-name="q" unicode="q" horiz-adv-x="1110" 
d="M1184 997l-254 -1427h-342l82 463h-6q-77 -66 -201 -66q-158 0 -246 106.5t-88 303.5q0 323 176.5 512.5t464.5 189.5q96 0 207.5 -21.5t206.5 -60.5zM723 324l88 501q-18 4 -53 4q-76 0 -134.5 -40.5t-91.5 -107t-49 -142.5t-16 -156q0 -170 119 -170q111 0 137 111z
" />
    <glyph glyph-name="r" unicode="r" horiz-adv-x="796" 
d="M567 641l-114 -641h-342l149 850l8 199h275l6 -146q53 91 125 133.5t143 42.5q102 0 164 -41l-98 -284q-72 37 -140 37q-67 0 -115 -39.5t-61 -110.5z" />
    <glyph glyph-name="s" unicode="s" horiz-adv-x="913" 
d="M53 90l127 232q60 -40 143.5 -72.5t149.5 -32.5q52 0 81.5 21t29.5 61q0 9 -3 17.5t-10 16.5t-13 14t-19 13t-21.5 11.5t-25 11.5t-25.5 10.5t-28 10.5t-27 10q-40 15 -68 28t-64 38t-58 54.5t-38 75.5t-16 103q0 174 124.5 270t321.5 96q119 0 228.5 -48.5t173.5 -121.5
l-174 -178q-120 105 -224 105q-51 0 -78.5 -22t-27.5 -56q0 -32 22.5 -56t49 -37t93.5 -39q16 -7 25 -10q48 -19 83 -39t71 -53t55 -81.5t19 -110.5q0 -174 -127 -269.5t-340 -95.5q-133 0 -244.5 39.5t-165.5 83.5z" />
    <glyph glyph-name="t" unicode="t" horiz-adv-x="763" 
d="M358 1423h344l-67 -374h256l-45 -269h-258l-74 -407q-4 -40 -4 -64q1 -50 27.5 -67t74.5 -17q52 0 117 37l45 -219q-56 -32 -142.5 -54t-168.5 -22q-89 0 -151 20t-94.5 56.5t-46.5 78.5t-15 95q0 55 18 154z" />
    <glyph glyph-name="u" unicode="u" horiz-adv-x="1116" 
d="M852 1049h342l-147 -850l-15 -199h-287v100l-12 2q-119 -129 -287 -129q-292 0 -292 267q0 46 10 108l123 701h342l-117 -660q-8 -58 -8 -78q0 -39 18 -59.5t64 -20.5q54 0 96.5 40.5t52.5 103.5z" />
    <glyph glyph-name="v" unicode="v" horiz-adv-x="1075" 
d="M793 1047h335q11 -101 11 -232q0 -432 -158.5 -637t-476.5 -205q-166 0 -254.5 71.5t-91.5 205.5q0 58 8 110l121 687h344l-117 -660q-10 -52 -10 -82q2 -35 17.5 -52t51.5 -17q67 0 120 85.5t80.5 215t27.5 272.5q0 128 -8 238z" />
    <glyph glyph-name="w" unicode="w" horiz-adv-x="1595" 
d="M1313 1047h336q10 -85 10 -226q0 -410 -145.5 -629t-432.5 -219q-209 0 -270 142q-136 -142 -342 -142q-153 0 -233.5 66.5t-81.5 200.5q0 39 10 104l123 703h342l-119 -678q-8 -46 -8 -64q0 -72 69 -72q51 0 86.5 37t44.5 95l121 682h340l-121 -670q-8 -46 -8 -74
q0 -34 14.5 -52t51.5 -18q68 0 118 79.5t75.5 212t25.5 298.5q0 147 -6 224z" />
    <glyph glyph-name="x" unicode="x" horiz-adv-x="1032" 
d="M862 1047h361l-422 -510l254 -537h-361l-123 279l-221 -279h-375l455 543l-235 504h344l112 -273z" />
    <glyph glyph-name="y" unicode="y" horiz-adv-x="1105" 
d="M1196 1047l-145 -818q-26 -140 -62 -284q-122 -490 -553 -490q-161 0 -246.5 69t-85.5 189q0 109 63.5 199t207.5 174q-106 20 -156.5 78t-50.5 158q0 46 8 90l111 635h342l-109 -619q-8 -50 -8 -70q0 -40 19.5 -61t68.5 -21q51 0 90 38t51 102l111 631h344zM416 -219
q0 -80 82 -80q66 0 102.5 48.5t56.5 148.5l37 206q-18 -15 -131 -94q-147 -107 -147 -229z" />
    <glyph glyph-name="z" unicode="z" horiz-adv-x="890" 
d="M272 -188q0 -48 23.5 -75.5t71.5 -27.5q83 0 133.5 76t50.5 180q0 93 -47 129q-108 -51 -170 -127t-62 -155zM1053 1049l-33 -191l-488 -414l103 -47q244 -115 244 -395q0 -169 -75.5 -294.5t-200.5 -188t-281 -62.5q-180 0 -270.5 75.5t-90.5 217.5q0 151 93 268
t288 207q-61 39 -166 80l31 176l366 303h-401l47 265h834z" />
    <glyph glyph-name="braceleft" unicode="{" horiz-adv-x="696" 
d="M463 575q57 -21 82.5 -59.5t25.5 -107.5q0 -57 -53 -244.5t-53 -233.5q0 -94 82 -94q24 0 82 10l-15 -206q-82 -19 -194 -19q-118 0 -193 56.5t-75 162.5q0 36 10.5 95.5t22 106.5t30.5 122t25 100q16 66 16 105q0 53 -26.5 80t-84.5 28l35 209q91 4 129.5 53.5
t52.5 175.5q34 299 37 316q18 144 104.5 204t241.5 60q113 0 203 -22l-61 -199q-47 8 -74 8q-65 0 -89.5 -31t-37.5 -118q-7 -43 -17 -149.5t-18 -158.5q-33 -185 -188 -250z" />
    <glyph glyph-name="bar" unicode="|" horiz-adv-x="677" 
d="M162 -180l303 1710h291l-303 -1710h-291z" />
    <glyph glyph-name="braceright" unicode="}" horiz-adv-x="696" 
d="M438 575q-108 51 -108 189q0 80 45 233t45 195q0 90 -82 90q-31 0 -80 -8l12 203q88 18 193 18q130 0 201 -48t71 -147q0 -53 -12 -116t-35.5 -154t-34.5 -141q-12 -55 -12 -94q0 -57 27 -85.5t86 -29.5l-35 -209q-88 -4 -126 -56.5t-50 -176.5q-4 -43 -12 -128
t-13.5 -145t-9.5 -84q-22 -146 -106.5 -203t-247.5 -57q-78 0 -191 29l51 196q58 -10 78 -10q64 0 89 34t38 120q5 33 15 163t20 187q20 107 60 158t124 77z" />
    <glyph glyph-name="asciitilde" unicode="~" horiz-adv-x="1277" 
d="M956 440q-66 0 -130.5 23t-107 50t-91.5 50t-86 23q-52 0 -107 -37t-125 -107l-166 166q49 56 89 94t92 77t108 59t115 20q58 0 118 -24t103 -52.5t98 -52.5t103 -24q103 0 225 143l168 -164q-173 -244 -406 -244z" />
    <glyph glyph-name="uni00A0" unicode="&#xa0;" horiz-adv-x="442" 
 />
    <glyph glyph-name="exclamdown" unicode="&#xa1;" horiz-adv-x="544" 
d="M430 -43l-39 -217q-10 -55 -52.5 -89t-119.5 -34t-107 35t-20 92l39 213l170 682h199zM627 938q0 -75 -58.5 -130.5t-142.5 -55.5q-70 0 -108.5 37t-38.5 96q0 75 56.5 132.5t143.5 57.5q72 0 110 -38.5t38 -98.5z" />
    <glyph glyph-name="cent" unicode="&#xa2;" 
d="M731 369q49 0 94.5 25.5t102.5 76.5l164 -201q-125 -125 -293 -157l-41 -236h-318l43 248q-118 41 -180.5 146t-62.5 264q0 139 34.5 252.5t95.5 188.5t135 122.5t161 68.5l43 236h317l-43 -246q140 -61 205 -203l-223 -147q-32 56 -67.5 86.5t-86.5 30.5
q-107 0 -169 -101t-62 -254q0 -101 35 -150.5t116 -49.5z" />
    <glyph glyph-name="sterling" unicode="&#xa3;" horiz-adv-x="1183" 
d="M125 262l41 230h178l172 446q90 235 199.5 321.5t308.5 86.5q71 0 135 -19t110.5 -50.5t76.5 -58.5t51 -55l-197 -184q-90 102 -178 102q-71 0 -112.5 -42t-82.5 -148l-153 -399h282l-38 -228h-328l-39 -96q-69 -166 -211 -266l2 -6q103 34 184 34q65 0 176 -20.5
t172 -20.5q96 0 173 29l-82 -276q-103 -15 -156 -15q-98 0 -285 36t-288 36q-153 0 -314 -72l45 267q81 29 137.5 79.5t96.5 145.5l61 143h-137z" />
    <glyph glyph-name="yen" unicode="&#xa5;" horiz-adv-x="1173" 
d="M444 256h-274l35 201h276l23 127h-277l37 200h166l-168 535h340l119 -477h8l299 477h352l-372 -535h161l-34 -200h-281l-23 -127h281l-37 -201h-278l-45 -256h-351z" />
    <glyph glyph-name="brokenbar" unicode="&#xa6;" horiz-adv-x="679" 
d="M162 -180l135 762h291l-135 -762h-291zM338 821l125 709h291l-125 -709h-291z" />
    <glyph glyph-name="section" unicode="&#xa7;" horiz-adv-x="1153" 
d="M1102 197l-262 -72q39 -70 39 -158q0 -174 -111.5 -278.5t-302.5 -104.5q-73 0 -153 17t-122 39l78 215q90 -33 160 -33q72 0 111 26.5t39 75.5q0 42 -39 88.5t-94 96.5t-110.5 111.5t-94.5 155.5t-39 206q0 82 20 172l262 69q-39 70 -39 160q0 175 113.5 279t312.5 104
q65 0 143.5 -17t119.5 -38l-78 -215q-87 32 -160 32q-72 0 -111 -26.5t-39 -75.5q0 -31 21 -64t54 -65t73.5 -68.5t80.5 -82.5t73 -98.5t54 -124.5t21 -154t-20 -172zM473 705q0 -87 27.5 -160t72.5 -125.5t92 -96t96.5 -95.5t76.5 -101q12 64 12 119q0 64 -15 119.5
t-40.5 98.5t-57 80t-67.5 71t-69.5 64.5t-65.5 67.5t-52 74q-10 -51 -10 -116z" />
    <glyph glyph-name="dieresis" unicode="&#xa8;" horiz-adv-x="1024" 
d="M819 1362q0 70 53.5 120t133.5 50q62 0 97.5 -35t35.5 -90q0 -70 -54 -120t-133 -50q-62 0 -97.5 35t-35.5 90zM373 1362q0 70 53 120t133 50q62 0 97.5 -35t35.5 -90q0 -70 -53.5 -120t-132.5 -50q-62 0 -97.5 35t-35.5 90z" />
    <glyph glyph-name="copyright" unicode="&#xa9;" horiz-adv-x="1669" 
d="M1274 934l-148 -117q-29 37 -75 66.5t-97 29.5q-75 0 -118 -65t-43 -174q0 -115 46.5 -179.5t123.5 -64.5q60 0 101.5 21t92.5 65l107 -135q-55 -59 -133 -97t-170 -38q-87 0 -156 26.5t-112.5 69t-72 99.5t-40 113t-11.5 114q0 206 108 320t284 114q103 0 188.5 -50
t124.5 -118zM1679 680q0 -156 -55 -290.5t-152.5 -229t-235 -148t-298.5 -53.5q-220 0 -385.5 92t-251.5 252t-86 365q0 153 54 285.5t148.5 227.5t229 149t291.5 54q161 0 299.5 -54t235 -148t151.5 -224t55 -278zM1507 668q0 165 -73 295t-202.5 202t-291.5 72
q-250 0 -400.5 -158t-150.5 -411q0 -249 154 -405.5t397 -156.5q251 0 409 154.5t158 407.5z" />
    <glyph glyph-name="ordfeminine" unicode="&#xaa;" horiz-adv-x="878" 
d="M979 1198l-88 -504l-10 -149h-213l4 78h-10q-86 -99 -199 -99q-62 0 -107 20.5t-70.5 57.5t-37.5 82.5t-12 101.5q0 204 119 334.5t319 130.5q168 0 305 -53zM653 764l56 307q-19 8 -60 8q-45 0 -78.5 -29.5t-50.5 -74t-25 -87t-8 -79.5q0 -113 76 -113q37 0 62 20t28 48
z" />
    <glyph glyph-name="guillemotleft" unicode="&#xab;" horiz-adv-x="1216" 
d="M801 825l-297 -303l162 -317l-142 -107q-86 71 -189.5 187t-131.5 188q-13 23 -13 55q0 39 23.5 71t69.5 67q177 147 405 297zM1307 825l-297 -303l161 -317l-141 -107q-86 71 -189.5 187t-131.5 188q-13 23 -13 55q0 40 23.5 71.5t68.5 66.5q174 144 406 297z" />
    <glyph glyph-name="logicalnot" unicode="&#xac;" 
d="M774 287l53 307h-616l49 270h879l-103 -577h-262z" />
    <glyph glyph-name="uni00AD" unicode="&#xad;" horiz-adv-x="659" 
d="M150 455l45 254h520l-45 -254h-520z" />
    <glyph glyph-name="registered" unicode="&#xae;" horiz-adv-x="948" 
d="M752 940l73 -166h-112l-64 144q-12 28 -33 28h-18v-172h-102v432h155q68 0 106 -29t38 -87q0 -87 -70 -119q18 -8 27 -31zM598 1024h12q38 0 56 12.5t18 44.5q0 29 -18 38t-56 9h-12v-104zM1051 989q0 -177 -117 -290t-301 -113q-186 0 -297 111.5t-111 287.5
q0 173 114.5 287t293.5 114q183 0 300.5 -113.5t117.5 -283.5zM934 985q0 129 -86 213t-215 84q-131 0 -211 -83.5t-80 -213.5q0 -131 82 -215t209 -84q132 0 216.5 82.5t84.5 216.5z" />
    <glyph glyph-name="macron" unicode="&#xaf;" horiz-adv-x="1024" 
d="M406 1266l40 231h650l-41 -231h-649z" />
    <glyph glyph-name="degree" unicode="&#xb0;" horiz-adv-x="610" 
d="M266 1182q0 125 88.5 213t212.5 88q99 0 155 -58.5t56 -148.5q0 -125 -89.5 -215t-217.5 -90q-98 0 -151.5 59t-53.5 152zM422 1202q0 -40 20 -66t58 -26q55 0 89 42t34 99q0 41 -21 65.5t-61 24.5q-58 0 -88.5 -39.5t-30.5 -99.5z" />
    <glyph glyph-name="plusminus" unicode="&#xb1;" 
d="M543 752l53 297h283l-54 -297h275l-47 -277h-277l-35 -203h275l-47 -272h-830l47 272h273l37 203h-273l47 277h273z" />
    <glyph glyph-name="twosuperior" unicode="&#xb2;" horiz-adv-x="772" 
d="M410 1227l-101 145q182 137 353 137q120 0 181.5 -54t61.5 -146q0 -85 -39 -147.5t-131 -137.5l-149 -133h264l-33 -193h-594l27 146l303 270q50 44 70 75.5t20 67.5q0 27 -15 40.5t-40 13.5q-64 0 -178 -84z" />
    <glyph glyph-name="threesuperior" unicode="&#xb3;" horiz-adv-x="772" 
d="M389 1257l-76 138q36 24 80 46t122 45t151 23q104 0 162.5 -48t58.5 -124q0 -124 -125 -198q67 -99 67 -189q0 -52 -18.5 -97.5t-56.5 -83t-104.5 -59.5t-155.5 -22q-75 0 -156 21.5t-129 50.5l86 162q89 -58 192 -58t103 76q0 32 -27 96q-64 -22 -160 -35l-20 142
q256 44 256 131q0 49 -57 49q-61 0 -193 -66z" />
    <glyph glyph-name="acute" unicode="&#xb4;" horiz-adv-x="1024" 
d="M508 1237l303 399q160 -47 160 -143q0 -31 -19.5 -59.5t-70.5 -69.5q-93 -78 -293 -209z" />
    <glyph glyph-name="mu" unicode="&#xb5;" horiz-adv-x="1185" 
d="M1239 1049l-137 -787q-6 -34 3 -49.5t36 -15.5q24 0 59 14l2 -191q-103 -47 -207 -47q-72 0 -117.5 33.5t-56.5 91.5q-44 -63 -95.5 -92t-129.5 -29q-43 0 -90 19t-68 55l-88 -493h-299l262 1491h316l-115 -656q-32 -186 109 -186q68 0 117.5 52.5t70.5 168.5l109 621
h319z" />
    <glyph glyph-name="paragraph" unicode="&#xb6;" horiz-adv-x="1157" 
d="M741 156l172 966h-141l-121 -690q-90 1 -166 22.5t-136 64t-94 115t-34 167.5q0 131 37 230.5t99.5 161.5t156 100.5t195.5 53.5t229 15h344l-203 -1161q-11 -65 -21.5 -112.5t-26.5 -100t-35.5 -90.5t-47.5 -78.5t-63 -70t-82 -58t-104.5 -49.5t-130.5 -38.5t-160 -29.5
l-39 283q106 18 173.5 42t108 61.5t59.5 82t31 113.5z" />
    <glyph glyph-name="periodcentered" unicode="&#xb7;" horiz-adv-x="645" 
d="M260 600q0 80 55 135.5t144 55.5q72 0 109.5 -36t37.5 -96q0 -80 -53 -136t-145 -56q-73 0 -110.5 36t-37.5 97z" />
    <glyph glyph-name="cedilla" unicode="&#xb8;" horiz-adv-x="1024" 
d="M436 6h142l-60 -125q80 -6 127 -50t47 -118q0 -52 -19.5 -92.5t-49.5 -64.5t-71.5 -39.5t-80 -21t-80.5 -5.5q-119 0 -207 41l64 137q76 -28 139 -28q109 0 109 67q0 68 -177 64z" />
    <glyph glyph-name="onesuperior" unicode="&#xb9;" horiz-adv-x="772" 
d="M307 883h146l67 372l-160 -61l-47 147l299 156h201l-43 -162l-82 -452h133l-30 -185h-517z" />
    <glyph glyph-name="ordmasculine" unicode="&#xba;" horiz-adv-x="845" 
d="M551 700q50 0 79 40t48 139q10 65 10 96q0 102 -72 102q-94 0 -122 -159q-11 -56 -11 -119q0 -99 68 -99zM233 907q13 82 47 145t76.5 99.5t96 60t99.5 31.5t93 8q39 0 77.5 -8t79 -28t71 -50.5t50 -80.5t19.5 -113q0 -39 -10 -97q-31 -178 -143 -264t-271 -86
q-133 0 -212 76t-79 207q0 67 6 100z" />
    <glyph glyph-name="guillemotright" unicode="&#xbb;" horiz-adv-x="1218" 
d="M399 547l-178 297l141 119q160 -134 304 -297q49 -52 49 -103q0 -44 -37 -90q-55 -72 -200 -188.5t-255 -186.5l-112 127zM905 547l-178 297l141 119q156 -131 303 -297q50 -53 50 -103q0 -44 -37 -90q-55 -72 -200 -188.5t-255 -186.5l-113 127z" />
    <glyph glyph-name="onequarter" unicode="&#xbc;" horiz-adv-x="1740" 
d="M240 719h145l68 373l-160 -62l-47 148l299 155h200l-43 -162l-81 -452h133l-31 -184h-516zM692 -45l-186 106l823 1282l191 -102zM1565 532h133l-35 -204h109l-29 -166h-111l-28 -164h-232l29 168h-320l23 127l342 534l172 -88l-275 -411h97z" />
    <glyph glyph-name="onehalf" unicode="&#xbd;" horiz-adv-x="1740" 
d="M217 719h145l68 373l-160 -62l-47 148l299 155h201l-43 -162l-82 -452h133l-31 -184h-516zM659 -45l-186 106l823 1282l191 -102zM1315 528l-101 146q182 137 353 137q119 0 181 -54.5t62 -146.5q0 -84 -39 -146t-131 -138l-149 -133h264l-33 -193h-594l27 145l303 271
q50 44 70 75.5t20 67.5q0 27 -15 40t-40 13q-64 0 -178 -84z" />
    <glyph glyph-name="threequarters" unicode="&#xbe;" horiz-adv-x="1740" 
d="M358 1094l-75 137q174 115 352 115q104 0 162.5 -48t58.5 -124q0 -125 -125 -199q68 -101 68 -189q0 -111 -82 -186.5t-254 -75.5q-75 0 -156 21.5t-129 50.5l86 162q42 -27 94.5 -42.5t98.5 -15.5q102 0 102 76q0 32 -27 96q-60 -21 -159 -34l-21 141q256 44 256 131
q0 49 -57 49q-63 0 -193 -65zM700 -45l-186 106l823 1282l191 -102zM1583 532h133l-35 -204h109l-29 -166h-110l-29 -164h-231l28 168h-319l22 127l342 534l172 -88l-274 -411h96z" />
    <glyph glyph-name="questiondown" unicode="&#xbf;" horiz-adv-x="798" 
d="M381 -55q0 27 8 47.5t30 41t38 32t55 36.5l4.5 3l4.5 3t5 3q7 4 30.5 19.5t31.5 20.5t28.5 20t29 23t25.5 24.5t25 29t21 32t20 38.5t14.5 43t12.5 51q15 76 20 227h-256l-26 -145q-9 -55 -35.5 -93.5t-79.5 -70.5q-77 -48 -123.5 -80t-95.5 -75t-74.5 -82.5t-42 -91.5
t-16.5 -114q0 -270 342 -270q77 0 163 15t132 34l-6 225q-118 -30 -183 -30q-102 0 -102 84zM877 938q0 -75 -58.5 -130.5t-142.5 -55.5q-70 0 -109 37t-39 96q0 75 57 132.5t144 57.5q72 0 110 -38.5t38 -98.5z" />
    <glyph glyph-name="Agrave" unicode="&#xc0;" horiz-adv-x="1325" 
d="M373 0h-367l680 1362h408l223 -1362h-350l-41 291h-408zM840 1034l-224 -485h287l-51 485h-12zM834 1862l319 -334l-86 -94q-2 1 -62 30t-86 42t-71.5 37.5t-75.5 43.5q-78 50 -78 107q0 50 37.5 89.5t102.5 78.5z" />
    <glyph glyph-name="Aacute" unicode="&#xc1;" horiz-adv-x="1325" 
d="M373 0h-367l680 1362h408l223 -1362h-350l-41 291h-408zM840 1034l-224 -485h287l-51 485h-12zM690 1534l377 319q48 -30 80.5 -70.5t32.5 -80.5t-24.5 -68t-84.5 -59q-86 -46 -319 -139z" />
    <glyph glyph-name="Acircumflex" unicode="&#xc2;" horiz-adv-x="1325" 
d="M373 0h-367l680 1362h408l223 -1362h-350l-41 291h-408zM840 1034l-224 -485h287l-51 485h-12zM668 1434l-101 94q120 120 260 239q44 38 72.5 53t65.5 15q27 0 50.5 -16.5t57.5 -51.5q72 -74 184 -239l-108 -92l-213 176z" />
    <glyph glyph-name="Atilde" unicode="&#xc3;" horiz-adv-x="1325" 
d="M373 0h-367l680 1362h408l223 -1362h-350l-41 291h-408zM840 1034l-224 -485h287l-51 485h-12zM621 1487l8 188q97 64 188 64q58 0 146 -26.5t135 -26.5q69 0 139 36l-14 -200q-76 -39 -152 -39q-47 0 -145.5 23.5t-139.5 23.5q-83 0 -165 -43z" />
    <glyph glyph-name="Adieresis" unicode="&#xc4;" horiz-adv-x="1325" 
d="M373 0h-367l680 1362h408l223 -1362h-350l-41 291h-408zM840 1034l-224 -485h287l-51 485h-12zM973 1583q0 70 53 120t133 50q62 0 97.5 -35t35.5 -90q0 -70 -53.5 -120t-132.5 -50q-62 0 -97.5 35t-35.5 90zM526 1583q0 70 53.5 120t133.5 50q62 0 97.5 -35t35.5 -90
q0 -70 -54 -120t-133 -50q-62 0 -97.5 35t-35.5 90z" />
    <glyph glyph-name="Aring" unicode="&#xc5;" horiz-adv-x="1325" 
d="M690 1360v22q0 108 65.5 175t172.5 67q87 0 131.5 -46.5t44.5 -117.5q0 -54 -19 -100l232 -1360h-350l-41 291h-410l-145 -291h-365zM840 1034l-226 -485h289l-51 485h-12zM907 1497q-36 0 -57 -25t-21 -67q0 -27 16.5 -43t43.5 -16q34 0 55 27.5t21 64.5q0 59 -58 59z
" />
    <glyph glyph-name="AE" unicode="&#xc6;" horiz-adv-x="1712" 
d="M950 0l-43 326h-391l-160 -326h-352l664 1362h1208l-53 -307h-649l34 -209h502l-55 -303h-422l39 -236h432l-53 -307h-701zM821 1022l-209 -438h269l-52 438h-8z" />
    <glyph glyph-name="Ccedilla" unicode="&#xc7;" horiz-adv-x="1214" 
d="M766 262q135 0 311 135l137 -227q-224 -176 -460 -193l-45 -96q80 -6 127 -50t47 -118q0 -52 -19.5 -92.5t-49.5 -64.5t-71.5 -39.5t-80 -21t-80.5 -5.5q-119 0 -207 41l63 137q76 -28 140 -28q108 0 108 67q0 68 -176 64l102 209q-209 23 -324.5 165.5t-115.5 382.5
q0 186 43.5 335t115 244.5t168 159.5t196.5 90.5t208 26.5q315 0 473 -299l-254 -157q-91 166 -243 166q-148 0 -244 -141t-96 -380q0 -149 56 -230t171 -81z" />
    <glyph glyph-name="Egrave" unicode="&#xc8;" horiz-adv-x="1081" 
d="M115 0l239 1362h891l-55 -307h-537l-37 -209h461l-53 -303h-461l-43 -236h553l-53 -307h-905zM715 1862l319 -334l-86 -94q-2 1 -62 30t-86 42t-71.5 37.5t-75.5 43.5q-78 50 -78 107q0 50 37.5 89.5t102.5 78.5z" />
    <glyph glyph-name="Eacute" unicode="&#xc9;" horiz-adv-x="1081" 
d="M115 0l239 1362h891l-55 -307h-537l-37 -209h461l-53 -303h-461l-43 -236h553l-53 -307h-905zM610 1534l377 319q48 -30 80.5 -70.5t32.5 -80.5t-24.5 -68t-84.5 -59q-86 -46 -319 -139z" />
    <glyph glyph-name="Ecircumflex" unicode="&#xca;" horiz-adv-x="1081" 
d="M115 0l239 1362h891l-55 -307h-537l-37 -209h461l-53 -303h-461l-43 -236h553l-53 -307h-905zM580 1434l-101 94q120 120 260 239q44 38 72.5 53t65.5 15q27 0 50.5 -16.5t57.5 -51.5q72 -74 184 -239l-108 -92l-213 176z" />
    <glyph glyph-name="Edieresis" unicode="&#xcb;" horiz-adv-x="1081" 
d="M115 0l239 1362h891l-55 -307h-537l-37 -209h461l-53 -303h-461l-43 -236h553l-53 -307h-905zM881 1583q0 70 53 120t133 50q62 0 97.5 -35t35.5 -90q0 -70 -53.5 -120t-132.5 -50q-62 0 -97.5 35t-35.5 90zM434 1583q0 70 53.5 120t133.5 50q62 0 97.5 -35t35.5 -90
q0 -70 -54 -120t-133 -50q-62 0 -97.5 35t-35.5 90z" />
    <glyph glyph-name="Igrave" unicode="&#xcc;" horiz-adv-x="598" 
d="M475 0h-352l239 1362h353zM465 1862l319 -334l-86 -94q-2 1 -62 30t-86 42t-71.5 37.5t-75.5 43.5q-77 49 -77 107q0 50 37 89.5t102 78.5z" />
    <glyph glyph-name="Iacute" unicode="&#xcd;" horiz-adv-x="598" 
d="M475 0h-352l239 1362h353zM340 1534l377 319q48 -30 80 -70.5t32 -80.5t-24 -68t-84 -59q-83 -45 -320 -139z" />
    <glyph glyph-name="Icircumflex" unicode="&#xce;" horiz-adv-x="598" 
d="M475 0h-352l239 1362h353zM324 1434l-101 94q120 120 260 239q44 38 72.5 53t65.5 15q27 0 50.5 -16.5t57.5 -51.5q72 -74 184 -239l-108 -92l-213 176z" />
    <glyph glyph-name="Idieresis" unicode="&#xcf;" horiz-adv-x="598" 
d="M475 0h-352l239 1362h353zM633 1583q0 70 53 120t133 50q62 0 97.5 -35t35.5 -90q0 -70 -53.5 -120t-132.5 -50q-62 0 -97.5 35t-35.5 90zM186 1583q0 70 53.5 120t133.5 50q62 0 97.5 -35t35.5 -90q0 -70 -54 -120t-133 -50q-62 0 -97.5 35t-35.5 90z" />
    <glyph glyph-name="Eth" unicode="&#xd0;" horiz-adv-x="1345" 
d="M137 0l99 561h-113l39 236h114l101 565h477q268 0 416.5 -135t148.5 -389q0 -177 -42 -319.5t-114.5 -238t-174 -159.5t-217.5 -92.5t-248 -28.5h-486zM682 1087l-53 -290h241l-39 -236h-243l-51 -289h137q177 0 281 143t104 386q0 286 -262 286h-115z" />
    <glyph glyph-name="Ntilde" unicode="&#xd1;" horiz-adv-x="1357" 
d="M1135 1362h348l-240 -1362h-311l-330 758h-8l-133 -758h-346l239 1362h324l317 -741h9zM662 1487l8 188q97 64 188 64q58 0 146 -26.5t135 -26.5q69 0 139 36l-14 -200q-76 -39 -152 -39q-47 0 -145.5 23.5t-139.5 23.5q-83 0 -165 -43z" />
    <glyph glyph-name="Ograve" unicode="&#xd2;" horiz-adv-x="1363" 
d="M1417 653q-58 -343 -254 -510.5t-493 -167.5q-240 0 -370 139t-130 388q0 112 16 211q27 152 84.5 271t131 193t165.5 122.5t182 67.5t187 19q103 0 191 -31.5t157 -94t108.5 -165t39.5 -235.5q0 -112 -15 -207zM553 705q-16 -85 -16 -170q0 -269 198 -269
q68 0 123.5 31.5t93.5 88t62.5 124.5t38.5 149q12 71 12 160q0 44 -5.5 81.5t-19 74t-34.5 62.5t-54.5 41.5t-77.5 15.5q-54 0 -100.5 -21t-81.5 -57t-63 -86.5t-46.5 -106t-29.5 -118.5zM854 1862l320 -334l-87 -94q-9 4 -49.5 23.5t-64 31.5t-60 30.5t-66.5 35t-54 32.5
q-78 50 -78 107q0 50 37 89.5t102 78.5z" />
    <glyph glyph-name="Oacute" unicode="&#xd3;" horiz-adv-x="1363" 
d="M1417 653q-58 -343 -254 -510.5t-493 -167.5q-240 0 -370 139t-130 388q0 112 16 211q27 152 84.5 271t131 193t165.5 122.5t182 67.5t187 19q103 0 191 -31.5t157 -94t108.5 -165t39.5 -235.5q0 -112 -15 -207zM553 705q-16 -85 -16 -170q0 -269 198 -269
q68 0 123.5 31.5t93.5 88t62.5 124.5t38.5 149q12 71 12 160q0 44 -5.5 81.5t-19 74t-34.5 62.5t-54.5 41.5t-77.5 15.5q-54 0 -100.5 -21t-81.5 -57t-63 -86.5t-46.5 -106t-29.5 -118.5zM731 1534l377 319q48 -30 80.5 -70.5t32.5 -80.5t-24.5 -68t-84.5 -59
q-86 -46 -319 -139z" />
    <glyph glyph-name="Ocircumflex" unicode="&#xd4;" horiz-adv-x="1363" 
d="M1417 653q-58 -343 -254 -510.5t-493 -167.5q-240 0 -370 139t-130 388q0 112 16 211q27 152 84.5 271t131 193t165.5 122.5t182 67.5t187 19q103 0 191 -31.5t157 -94t108.5 -165t39.5 -235.5q0 -112 -15 -207zM553 705q-16 -85 -16 -170q0 -269 198 -269
q68 0 123.5 31.5t93.5 88t62.5 124.5t38.5 149q12 71 12 160q0 44 -5.5 81.5t-19 74t-34.5 62.5t-54.5 41.5t-77.5 15.5q-54 0 -100.5 -21t-81.5 -57t-63 -86.5t-46.5 -106t-29.5 -118.5zM713 1434l-101 94q120 120 260 239q44 38 72.5 53t65.5 15q27 0 50.5 -16.5
t57.5 -51.5q75 -78 185 -239l-109 -92l-213 176z" />
    <glyph glyph-name="Otilde" unicode="&#xd5;" horiz-adv-x="1363" 
d="M1417 653q-58 -343 -254 -510.5t-493 -167.5q-240 0 -370 139t-130 388q0 112 16 211q27 152 84.5 271t131 193t165.5 122.5t182 67.5t187 19q103 0 191 -31.5t157 -94t108.5 -165t39.5 -235.5q0 -112 -15 -207zM553 705q-16 -85 -16 -170q0 -269 198 -269
q68 0 123.5 31.5t93.5 88t62.5 124.5t38.5 149q12 71 12 160q0 44 -5.5 81.5t-19 74t-34.5 62.5t-54.5 41.5t-77.5 15.5q-54 0 -100.5 -21t-81.5 -57t-63 -86.5t-46.5 -106t-29.5 -118.5zM655 1487l9 188q97 64 188 64q58 0 146 -26.5t135 -26.5q69 0 139 36l-15 -200
q-76 -39 -151 -39q-47 0 -145.5 23.5t-139.5 23.5q-84 0 -166 -43z" />
    <glyph glyph-name="Odieresis" unicode="&#xd6;" horiz-adv-x="1363" 
d="M1417 653q-58 -343 -254 -510.5t-493 -167.5q-240 0 -370 139t-130 388q0 112 16 211q27 152 84.5 271t131 193t165.5 122.5t182 67.5t187 19q103 0 191 -31.5t157 -94t108.5 -165t39.5 -235.5q0 -112 -15 -207zM553 705q-16 -85 -16 -170q0 -269 198 -269
q68 0 123.5 31.5t93.5 88t62.5 124.5t38.5 149q12 71 12 160q0 44 -5.5 81.5t-19 74t-34.5 62.5t-54.5 41.5t-77.5 15.5q-54 0 -100.5 -21t-81.5 -57t-63 -86.5t-46.5 -106t-29.5 -118.5zM1016 1583q0 70 53 120t133 50q62 0 97.5 -35t35.5 -90q0 -70 -53.5 -120t-132.5 -50
q-62 0 -97.5 35t-35.5 90zM569 1583q0 70 53.5 120t133.5 50q62 0 97.5 -35t35.5 -90q0 -70 -54 -120t-133 -50q-62 0 -97.5 35t-35.5 90z" />
    <glyph glyph-name="multiply" unicode="&#xd7;" 
d="M465 633l-176 215l233 196l176 -213l244 209l160 -196l-244 -209l172 -207l-233 -199l-172 207l-248 -211l-160 199z" />
    <glyph glyph-name="Oslash" unicode="&#xd8;" horiz-adv-x="1363" 
d="M1417 653q-58 -343 -254 -510.5t-493 -167.5q-44 0 -95 7l-118 -218l-260 125l112 215q-139 136 -139 398q0 112 16 211q27 152 84.5 271t131 193t165.5 122.5t182 67.5t187 19q53 0 94 -8v2l115 205l262 -123l-117 -209q142 -142 142 -393q0 -112 -15 -207zM553 705
q-16 -85 -16 -170q0 -269 198 -269q68 0 123.5 31.5t93.5 88t62.5 124.5t38.5 149q12 71 12 160q0 44 -5.5 81.5t-19 74t-34.5 62.5t-54.5 41.5t-77.5 15.5q-54 0 -100.5 -21t-81.5 -57t-63 -86.5t-46.5 -106t-29.5 -118.5z" />
    <glyph glyph-name="Ugrave" unicode="&#xd9;" horiz-adv-x="1288" 
d="M344 1362h350l-157 -893q-7 -35 -7 -57q0 -144 166 -144q93 0 146.5 46.5t70.5 144.5l160 903h350l-166 -942q-80 -449 -587 -449q-494 0 -494 369q0 56 12 121zM795 1862l319 -334l-86 -94q-2 1 -62 30t-86 42t-71.5 37.5t-75.5 43.5q-78 50 -78 107q0 50 37.5 89.5
t102.5 78.5z" />
    <glyph glyph-name="Uacute" unicode="&#xda;" horiz-adv-x="1288" 
d="M344 1362h350l-157 -893q-7 -35 -7 -57q0 -144 166 -144q93 0 146.5 46.5t70.5 144.5l160 903h350l-166 -942q-80 -449 -587 -449q-494 0 -494 369q0 56 12 121zM688 1534l377 319q48 -30 80.5 -70.5t32.5 -80.5t-24.5 -68t-84.5 -59q-86 -46 -319 -139z" />
    <glyph glyph-name="Ucircumflex" unicode="&#xdb;" horiz-adv-x="1288" 
d="M344 1362h350l-157 -893q-7 -35 -7 -57q0 -144 166 -144q93 0 146.5 46.5t70.5 144.5l160 903h350l-166 -942q-80 -449 -587 -449q-494 0 -494 369q0 56 12 121zM674 1434l-101 94q114 114 261 239q45 38 72.5 53t64.5 15q27 0 50.5 -16.5t57.5 -51.5q75 -78 185 -239
l-109 -92l-213 176z" />
    <glyph glyph-name="Udieresis" unicode="&#xdc;" horiz-adv-x="1288" 
d="M344 1362h350l-157 -893q-7 -35 -7 -57q0 -144 166 -144q93 0 146.5 46.5t70.5 144.5l160 903h350l-166 -942q-80 -449 -587 -449q-494 0 -494 369q0 56 12 121zM977 1583q0 70 53 120t133 50q62 0 97.5 -35t35.5 -90q0 -70 -53.5 -120t-132.5 -50q-62 0 -97.5 35
t-35.5 90zM530 1583q0 70 53.5 120t133.5 50q62 0 97.5 -35t35.5 -90q0 -70 -53.5 -120t-132.5 -50q-62 0 -98 35t-36 90z" />
    <glyph glyph-name="Yacute" unicode="&#xdd;" horiz-adv-x="1216" 
d="M1085 1362h388l-603 -838l-90 -524h-352l92 522l-291 840h363l147 -510h6zM664 1534l376 319q48 -30 80.5 -70.5t32.5 -80.5t-24.5 -68t-84.5 -59q-86 -46 -319 -139z" />
    <glyph glyph-name="Thorn" unicode="&#xde;" horiz-adv-x="1173" 
d="M510 248l-43 -248h-352l239 1362h353l-35 -205h149q212 0 328.5 -98t116.5 -275q0 -135 -47.5 -238.5t-133 -168t-201 -97t-255.5 -32.5h-119zM559 522h80q128 0 193 49.5t65 173.5q0 138 -162 138h-112z" />
    <glyph glyph-name="germandbls" unicode="&#xdf;" horiz-adv-x="1253" 
d="M844 -33q-85 0 -169 19.5t-132 46.5l104 233q96 -49 178 -49q115 0 115 98q0 33 -26 60.5t-62.5 50.5t-73 50t-62.5 72.5t-26 104.5q0 58 25 111.5t62.5 92t80.5 78t80 71t61.5 69.5t24.5 76q0 52 -45.5 78t-116.5 26q-99 0 -155 -53t-70 -141l-262 -1491h-342l266 1503
q13 70 32 125t61.5 115.5t103.5 100.5t162.5 66.5t232.5 26.5q220 0 340.5 -85.5t120.5 -217.5q0 -54 -18.5 -102.5t-47.5 -84t-64.5 -67t-71 -58t-64.5 -50.5t-47.5 -51t-18.5 -54t19.5 -53.5t49 -47.5t63.5 -50t63.5 -58.5t49 -76t19.5 -101.5q0 -182 -119.5 -282.5
t-320.5 -100.5z" />
    <glyph glyph-name="agrave" unicode="&#xe0;" horiz-adv-x="1112" 
d="M1182 997l-138 -776l-14 -221h-289v96l-10 2q-111 -129 -287 -129q-158 0 -237.5 104.5t-79.5 278.5q0 212 75 374.5t226 257.5t360 95q75 0 181.5 -20t212.5 -62zM729 330l86 493q-39 17 -92 17t-97.5 -30.5t-72.5 -79t-47.5 -109.5t-28 -119t-8.5 -111
q0 -83 26.5 -130.5t94.5 -47.5q52 0 88 31t51 86zM760 1651l213 -422l-109 -74q-159 137 -237 227q-47 62 -47 107q0 35 16.5 63t47 47t56 30t60.5 22z" />
    <glyph glyph-name="aacute" unicode="&#xe1;" horiz-adv-x="1112" 
d="M1182 997l-138 -776l-14 -221h-289v96l-10 2q-111 -129 -287 -129q-158 0 -237.5 104.5t-79.5 278.5q0 212 75 374.5t226 257.5t360 95q75 0 181.5 -20t212.5 -62zM729 330l86 493q-39 17 -92 17t-97.5 -30.5t-72.5 -79t-47.5 -109.5t-28 -119t-8.5 -111
q0 -83 26.5 -130.5t94.5 -47.5q52 0 88 31t51 86zM625 1237l303 399q159 -47 159 -143q0 -31 -19.5 -59.5t-70.5 -69.5q-97 -81 -292 -209z" />
    <glyph glyph-name="acircumflex" unicode="&#xe2;" horiz-adv-x="1112" 
d="M1182 997l-138 -776l-14 -221h-289v96l-10 2q-111 -129 -287 -129q-158 0 -237.5 104.5t-79.5 278.5q0 212 75 374.5t226 257.5t360 95q75 0 181.5 -20t212.5 -62zM729 330l86 493q-39 17 -92 17t-97.5 -30.5t-72.5 -79t-47.5 -109.5t-28 -119t-8.5 -111
q0 -83 26.5 -130.5t94.5 -47.5q52 0 88 31t51 86zM543 1163l-105 88q123 150 277 297q55 49 81.5 64.5t67.5 15.5q44 0 65.5 -15.5t57.5 -64.5q84 -123 176 -297l-112 -86l-220 217z" />
    <glyph glyph-name="atilde" unicode="&#xe3;" horiz-adv-x="1112" 
d="M1182 997l-138 -776l-14 -221h-289v96l-10 2q-111 -129 -287 -129q-158 0 -237.5 104.5t-79.5 278.5q0 212 75 374.5t226 257.5t360 95q75 0 181.5 -20t212.5 -62zM729 330l86 493q-39 17 -92 17t-97.5 -30.5t-72.5 -79t-47.5 -109.5t-28 -119t-8.5 -111
q0 -83 26.5 -130.5t94.5 -47.5q52 0 88 31t51 86zM508 1253l10 191q95 63 191 63q57 0 144 -27.5t134 -27.5q63 0 139 39l-16 -201q-74 -41 -152 -41q-48 0 -145.5 24.5t-138.5 24.5q-80 0 -166 -45z" />
    <glyph glyph-name="adieresis" unicode="&#xe4;" horiz-adv-x="1112" 
d="M1182 997l-138 -776l-14 -221h-289v96l-10 2q-111 -129 -287 -129q-158 0 -237.5 104.5t-79.5 278.5q0 212 75 374.5t226 257.5t360 95q75 0 181.5 -20t212.5 -62zM729 330l86 493q-39 17 -92 17t-97.5 -30.5t-72.5 -79t-47.5 -109.5t-28 -119t-8.5 -111
q0 -83 26.5 -130.5t94.5 -47.5q52 0 88 31t51 86zM883 1362q0 70 53 120t133 50q62 0 97.5 -35t35.5 -90q0 -70 -53.5 -120t-132.5 -50q-62 0 -97.5 35t-35.5 90zM436 1362q0 70 53.5 120t133.5 50q62 0 97.5 -35t35.5 -90q0 -70 -54 -120t-133 -50q-62 0 -97.5 35t-35.5 90
z" />
    <glyph glyph-name="aring" unicode="&#xe5;" horiz-adv-x="1112" 
d="M1182 997l-138 -776l-14 -221h-289v96l-10 2q-111 -129 -287 -129q-158 0 -237.5 104.5t-79.5 278.5q0 212 75 374.5t226 257.5t360 95q75 0 181.5 -20t212.5 -62zM729 330l86 493q-39 17 -92 17t-97.5 -30.5t-72.5 -79t-47.5 -109.5t-28 -119t-8.5 -111
q0 -83 26.5 -130.5t94.5 -47.5q52 0 88 31t51 86zM612 1303q0 101 63.5 161t170.5 60q89 0 134.5 -43.5t45.5 -116.5q0 -101 -62 -162t-163 -61q-90 0 -139.5 43.5t-49.5 118.5zM829 1399q-35 0 -54 -21t-19 -55q0 -26 15.5 -40.5t41.5 -14.5q33 0 51.5 21.5t18.5 56.5
q0 53 -54 53z" />
    <glyph glyph-name="ae" unicode="&#xe6;" horiz-adv-x="1531" 
d="M1333 1079q145 0 227 -67t82 -197q0 -71 -22.5 -131t-59 -101.5t-89 -74.5t-105.5 -53t-116 -34t-113 -20.5t-103 -9.5q-8 -74 36.5 -122t133.5 -48q117 0 258 82l72 -217q-6 -5 -26 -17t-60 -30t-86.5 -33.5t-112 -27t-131.5 -11.5q-248 0 -346 125q-155 -125 -323 -125
q-88 0 -153 30t-101 83.5t-53 119t-17 144.5q0 158 45.5 292t130 233t212.5 154.5t286 55.5q143 0 276 -59q121 59 258 59zM719 840q-62 0 -112 -45t-79 -114.5t-44 -144.5t-15 -143q0 -81 27.5 -130.5t87.5 -49.5q63 0 116 53q-12 46 -12 107q0 236 152 442q-65 25 -121 25
zM1341 772q0 30 -21 48t-50 18q-36 0 -69 -15.5t-56 -40.5t-42 -57.5t-30.5 -64t-17.5 -62.5q64 3 127 22t111 59.5t48 92.5z" />
    <glyph glyph-name="ccedilla" unicode="&#xe7;" horiz-adv-x="962" 
d="M649 233q97 0 228 84l81 -231q-144 -98 -327 -115l-43 -90q80 -6 127 -50t47 -118q0 -52 -19.5 -92.5t-49.5 -64.5t-71.5 -39.5t-80 -21t-80.5 -5.5q-119 0 -207 41l63 137q76 -28 140 -28q108 0 108 67q0 68 -176 64l98 200q-168 19 -260 132.5t-92 308.5q0 138 34 252
t90.5 189.5t132.5 127.5t158 75t169 23q128 0 231.5 -58.5t157.5 -178.5l-229 -152q-33 58 -69 88.5t-89 30.5q-111 0 -174.5 -102.5t-63.5 -260.5q0 -102 41.5 -157.5t124.5 -55.5z" />
    <glyph glyph-name="egrave" unicode="&#xe8;" horiz-adv-x="991" 
d="M782 772q0 32 -20.5 49t-50.5 17q-43 0 -80 -21.5t-63 -57.5t-43.5 -76t-28.5 -85q64 3 127 22t111 59.5t48 92.5zM760 1079q153 0 238 -69t85 -199q0 -71 -22.5 -130.5t-59 -101t-89.5 -74t-105.5 -52t-116 -33t-112.5 -20t-103 -9.5q-2 -75 40.5 -122.5t131.5 -47.5
q118 0 266 86l72 -219q-21 -15 -54.5 -32t-89 -39t-132 -36t-156.5 -14q-214 0 -318 114.5t-104 307.5q0 105 27 205.5t80.5 188t128 154t176 104.5t217.5 38zM705 1651l213 -422l-109 -74q-163 141 -238 227q-47 62 -47 107q0 28 12 52.5t29.5 40.5t44 30.5t47.5 22.5
t48 16z" />
    <glyph glyph-name="eacute" unicode="&#xe9;" horiz-adv-x="991" 
d="M782 772q0 32 -20.5 49t-50.5 17q-43 0 -80 -21.5t-63 -57.5t-43.5 -76t-28.5 -85q64 3 127 22t111 59.5t48 92.5zM760 1079q153 0 238 -69t85 -199q0 -71 -22.5 -130.5t-59 -101t-89.5 -74t-105.5 -52t-116 -33t-112.5 -20t-103 -9.5q-2 -75 40.5 -122.5t131.5 -47.5
q118 0 266 86l72 -219q-21 -15 -54.5 -32t-89 -39t-132 -36t-156.5 -14q-214 0 -318 114.5t-104 307.5q0 105 27 205.5t80.5 188t128 154t176 104.5t217.5 38zM559 1237l303 399q160 -47 160 -143q0 -31 -19.5 -59.5t-70.5 -69.5q-93 -78 -293 -209z" />
    <glyph glyph-name="ecircumflex" unicode="&#xea;" horiz-adv-x="991" 
d="M782 772q0 32 -20.5 49t-50.5 17q-43 0 -80 -21.5t-63 -57.5t-43.5 -76t-28.5 -85q64 3 127 22t111 59.5t48 92.5zM760 1079q153 0 238 -69t85 -199q0 -71 -22.5 -130.5t-59 -101t-89.5 -74t-105.5 -52t-116 -33t-112.5 -20t-103 -9.5q-2 -75 40.5 -122.5t131.5 -47.5
q118 0 266 86l72 -219q-21 -15 -54.5 -32t-89 -39t-132 -36t-156.5 -14q-214 0 -318 114.5t-104 307.5q0 105 27 205.5t80.5 188t128 154t176 104.5t217.5 38zM502 1163l-105 88q123 150 277 297q55 49 81.5 64.5t67.5 15.5q44 0 65.5 -15.5t57.5 -64.5q84 -123 176 -297
l-112 -86l-219 217z" />
    <glyph glyph-name="edieresis" unicode="&#xeb;" horiz-adv-x="991" 
d="M782 772q0 32 -20.5 49t-50.5 17q-43 0 -80 -21.5t-63 -57.5t-43.5 -76t-28.5 -85q64 3 127 22t111 59.5t48 92.5zM760 1079q153 0 238 -69t85 -199q0 -71 -22.5 -130.5t-59 -101t-89.5 -74t-105.5 -52t-116 -33t-112.5 -20t-103 -9.5q-2 -75 40.5 -122.5t131.5 -47.5
q118 0 266 86l72 -219q-21 -15 -54.5 -32t-89 -39t-132 -36t-156.5 -14q-214 0 -318 114.5t-104 307.5q0 105 27 205.5t80.5 188t128 154t176 104.5t217.5 38zM842 1362q0 70 53 120t133 50q62 0 97.5 -35t35.5 -90q0 -70 -53.5 -120t-132.5 -50q-62 0 -97.5 35t-35.5 90z
M395 1362q0 70 53.5 120t133.5 50q62 0 97.5 -35t35.5 -90q0 -70 -54 -120t-133 -50q-62 0 -97.5 35t-35.5 90z" />
    <glyph glyph-name="igrave" unicode="&#xec;" horiz-adv-x="557" 
d="M453 0h-342l184 1049h342zM485 1651l213 -422l-108 -74q-163 141 -238 227q-47 62 -47 107q0 35 16.5 63t47 47t56 30t60.5 22z" />
    <glyph glyph-name="iacute" unicode="&#xed;" horiz-adv-x="557" 
d="M453 0h-342l184 1049h342zM305 1237l303 399q160 -47 160 -143q0 -31 -19.5 -59.5t-70.5 -69.5q-93 -78 -293 -209z" />
    <glyph glyph-name="icircumflex" unicode="&#xee;" horiz-adv-x="557" 
d="M453 0h-342l184 1049h342zM244 1163l-105 88q123 150 277 297q55 49 81.5 64.5t67.5 15.5q44 0 65.5 -15.5t57.5 -64.5q84 -123 176 -297l-112 -86l-220 217z" />
    <glyph glyph-name="idieresis" unicode="&#xef;" horiz-adv-x="557" 
d="M453 0h-342l184 1049h342zM588 1362q0 70 53 120t133 50q62 0 97.5 -35t35.5 -90q0 -70 -53.5 -120t-132.5 -50q-62 0 -97.5 35t-35.5 90zM141 1362q0 70 53.5 120t133.5 50q62 0 97.5 -35t35.5 -90q0 -70 -54 -120t-133 -50q-62 0 -97.5 35t-35.5 90z" />
    <glyph glyph-name="eth" unicode="&#xf0;" horiz-adv-x="1101" 
d="M467 1217l113 256q202 -23 325 -111l207 129l113 -213l-154 -94q84 -158 84 -391q0 -129 -20 -252q-49 -273 -199.5 -422.5t-407.5 -149.5q-203 0 -303 101.5t-100 267.5q0 67 10 135q21 117 68 204t114 138t144 75.5t166 24.5q55 0 113.5 -17.5t90.5 -41.5
q0 155 -96 244.5t-268 116.5zM489 442q-8 -41 -8 -90q0 -119 101 -119q155 0 206 383q-65 39 -122 39q-141 0 -177 -213z" />
    <glyph glyph-name="ntilde" unicode="&#xf1;" horiz-adv-x="1110" 
d="M449 0h-340l147 838l12 211h283l4 -113q130 143 324 143q271 0 274 -254q0 -47 -10 -112l-127 -713h-342l106 612q17 93 17 119q0 36 -18 61t-60 25q-64 0 -103.5 -41.5t-50.5 -109.5zM496 1253l10 191q95 63 190 63q57 0 144.5 -27.5t134.5 -27.5q63 0 139 39l-16 -201
q-74 -41 -152 -41q-48 0 -145.5 24.5t-138.5 24.5q-80 0 -166 -45z" />
    <glyph glyph-name="ograve" unicode="&#xf2;" horiz-adv-x="1087" 
d="M573 217q-100 0 -100 164q0 83 19 188q48 265 190 265q102 0 102 -158q0 -82 -16 -170q-26 -151 -73 -220t-122 -69zM137 543q-12 -68 -12 -166q0 -197 103.5 -303.5t293.5 -106.5q112 0 209.5 32.5t179.5 98t139 176t80 256.5q11 76 11 154q0 97 -28.5 171t-70.5 115.5
t-99.5 67t-105.5 33.5t-98 8q-76 0 -146.5 -14t-145 -51.5t-134 -95.5t-107 -154.5t-69.5 -220.5zM735 1651l213 -422l-108 -74q-163 141 -238 227q-47 62 -47 107q0 35 16.5 63t47 47t56 30t60.5 22z" />
    <glyph glyph-name="oacute" unicode="&#xf3;" horiz-adv-x="1087" 
d="M573 217q75 0 122 69t73 220q16 88 16 170q0 158 -102 158q-142 0 -190 -265q-19 -105 -19 -188q0 -164 100 -164zM137 543q22 124 69.5 220.5t107 154.5t134 95.5t145 51.5t146.5 14q50 0 98 -8t105.5 -33.5t99.5 -67t70.5 -115.5t28.5 -171q0 -78 -11 -154
q-23 -146 -80 -256.5t-139 -176t-179.5 -98t-209.5 -32.5q-190 0 -293.5 106.5t-103.5 303.5q0 98 12 166zM573 1237l304 399q159 -47 159 -143q0 -31 -19.5 -59.5t-70.5 -69.5q-93 -78 -293 -209z" />
    <glyph glyph-name="ocircumflex" unicode="&#xf4;" horiz-adv-x="1087" 
d="M573 217q-100 0 -100 164q0 83 19 188q48 265 190 265q102 0 102 -158q0 -82 -16 -170q-26 -151 -73 -220t-122 -69zM137 543q-12 -68 -12 -166q0 -197 103.5 -303.5t293.5 -106.5q112 0 209.5 32.5t179.5 98t139 176t80 256.5q11 76 11 154q0 97 -28.5 171t-70.5 115.5
t-99.5 67t-105.5 33.5t-98 8q-76 0 -146.5 -14t-145 -51.5t-134 -95.5t-107 -154.5t-69.5 -220.5zM500 1163l-105 88q123 150 277 297q55 49 81.5 64.5t67.5 15.5q44 0 65.5 -15.5t57.5 -64.5q84 -123 176 -297l-112 -86l-220 217z" />
    <glyph glyph-name="otilde" unicode="&#xf5;" horiz-adv-x="1087" 
d="M573 217q75 0 122 69t73 220q16 88 16 170q0 158 -102 158q-142 0 -190 -265q-19 -105 -19 -188q0 -164 100 -164zM137 543q22 124 69.5 220.5t107 154.5t134 95.5t145 51.5t146.5 14q50 0 98 -8t105.5 -33.5t99.5 -67t70.5 -115.5t28.5 -171q0 -78 -11 -154
q-23 -146 -80 -256.5t-139 -176t-179.5 -98t-209.5 -32.5q-190 0 -293.5 106.5t-103.5 303.5q0 98 12 166zM469 1253l10 191q95 63 191 63q57 0 144 -27.5t134 -27.5q63 0 139 39l-16 -201q-74 -41 -151 -41q-48 0 -146 24.5t-139 24.5q-80 0 -166 -45z" />
    <glyph glyph-name="odieresis" unicode="&#xf6;" horiz-adv-x="1087" 
d="M573 217q-100 0 -100 164q0 83 19 188q48 265 190 265q102 0 102 -158q0 -82 -16 -170q-26 -151 -73 -220t-122 -69zM137 543q-12 -68 -12 -166q0 -197 103.5 -303.5t293.5 -106.5q112 0 209.5 32.5t179.5 98t139 176t80 256.5q11 76 11 154q0 97 -28.5 171t-70.5 115.5
t-99.5 67t-105.5 33.5t-98 8q-76 0 -146.5 -14t-145 -51.5t-134 -95.5t-107 -154.5t-69.5 -220.5zM850 1362q0 70 53 120t133 50q62 0 97.5 -35t35.5 -90q0 -70 -53.5 -120t-132.5 -50q-62 0 -97.5 35t-35.5 90zM403 1362q0 70 53.5 120t133.5 50q62 0 97.5 -35t35.5 -90
q0 -70 -53.5 -120t-132.5 -50q-62 0 -98 35t-36 90z" />
    <glyph glyph-name="divide" unicode="&#xf7;" 
d="M561 987q0 77 51 136t133 59q62 0 97 -36.5t35 -96.5q0 -78 -54.5 -135.5t-134.5 -57.5q-63 0 -95 35t-32 96zM434 209q0 77 51.5 135.5t132.5 58.5q63 0 97.5 -36t34.5 -95q0 -79 -54 -135.5t-135 -56.5q-61 0 -94 35t-33 94zM1098 770l-47 -272h-830l47 272h830z" />
    <glyph glyph-name="oslash" unicode="&#xf8;" horiz-adv-x="1087" 
d="M137 543q22 124 69.5 220.5t107 154.5t134 95.5t145 51.5t146.5 14q58 0 107 -10l115 182l227 -116l-123 -195q76 -96 76 -256q0 -78 -11 -154q-23 -146 -80 -256.5t-139 -176t-179.5 -98t-209.5 -32.5q-48 0 -100 10l-115 -190l-221 115l121 196q-82 105 -82 279
q0 98 12 166zM573 217q75 0 122 69t73 220q16 88 16 170q0 158 -102 158q-142 0 -190 -265q-19 -105 -19 -188q0 -164 100 -164z" />
    <glyph glyph-name="ugrave" unicode="&#xf9;" horiz-adv-x="1116" 
d="M852 1049h342l-147 -850l-15 -199h-287v100l-12 2q-119 -129 -287 -129q-292 0 -292 267q0 46 10 108l123 701h342l-117 -660q-8 -58 -8 -78q0 -39 18 -59.5t64 -20.5q54 0 96.5 40.5t52.5 103.5zM754 1651l213 -422l-109 -74q-159 137 -237 227q-48 63 -48 107
q0 28 12 52.5t29.5 40.5t44 30.5t47.5 22.5t48 16z" />
    <glyph glyph-name="uacute" unicode="&#xfa;" horiz-adv-x="1116" 
d="M852 1049h342l-147 -850l-15 -199h-287v100l-12 2q-119 -129 -287 -129q-292 0 -292 267q0 46 10 108l123 701h342l-117 -660q-8 -58 -8 -78q0 -39 18 -59.5t64 -20.5q54 0 96.5 40.5t52.5 103.5zM584 1237l303 399q160 -47 160 -143q0 -31 -20 -59.5t-71 -69.5
q-97 -81 -292 -209z" />
    <glyph glyph-name="ucircumflex" unicode="&#xfb;" horiz-adv-x="1116" 
d="M852 1049h342l-147 -850l-15 -199h-287v100l-12 2q-119 -129 -287 -129q-292 0 -292 267q0 46 10 108l123 701h342l-117 -660q-8 -58 -8 -78q0 -39 18 -59.5t64 -20.5q54 0 96.5 40.5t52.5 103.5zM512 1163l-104 88q127 155 276 297q55 49 82 64.5t68 15.5q44 0 65 -15.5
t57 -64.5q89 -129 177 -297l-113 -86l-219 217z" />
    <glyph glyph-name="udieresis" unicode="&#xfc;" horiz-adv-x="1116" 
d="M852 1049h342l-147 -850l-15 -199h-287v100l-12 2q-119 -129 -287 -129q-292 0 -292 267q0 46 10 108l123 701h342l-117 -660q-8 -58 -8 -78q0 -39 18 -59.5t64 -20.5q54 0 96.5 40.5t52.5 103.5zM858 1362q0 70 53 120t133 50q62 0 98 -35t36 -90q0 -70 -54 -120
t-133 -50q-62 0 -97.5 35t-35.5 90zM412 1362q0 70 53 120t133 50q62 0 97.5 -35t35.5 -90q0 -70 -53.5 -120t-132.5 -50q-62 0 -97.5 35t-35.5 90z" />
    <glyph glyph-name="yacute" unicode="&#xfd;" horiz-adv-x="1105" 
d="M1196 1047l-145 -818q-26 -140 -62 -284q-122 -490 -553 -490q-161 0 -246.5 69t-85.5 189q0 109 63.5 199t207.5 174q-106 20 -156.5 78t-50.5 158q0 46 8 90l111 635h342l-109 -619q-8 -50 -8 -70q0 -40 19.5 -61t68.5 -21q51 0 90 38t51 102l111 631h344zM416 -219
q0 -80 82 -80q66 0 102.5 48.5t56.5 148.5l37 206q-18 -15 -131 -94q-147 -107 -147 -229zM578 1237l303 399q159 -47 159 -143q0 -31 -19.5 -59.5t-70.5 -69.5q-93 -78 -293 -209z" />
    <glyph glyph-name="thorn" unicode="&#xfe;" horiz-adv-x="1091" 
d="M436 -2l-76 -428h-342l328 1853h342l-65 -370q108 24 194 24q167 0 253.5 -104.5t86.5 -298.5q0 -328 -151.5 -517.5t-409.5 -189.5q-39 0 -86 9.5t-74 21.5zM811 635q0 188 -137 188q-53 0 -94 -10l-101 -571q47 -23 105 -23q69 0 122.5 64t79 157.5t25.5 194.5z" />
    <glyph glyph-name="ydieresis" unicode="&#xff;" horiz-adv-x="1105" 
d="M1196 1047l-145 -818q-26 -140 -62 -284q-122 -490 -553 -490q-161 0 -246.5 69t-85.5 189q0 109 63.5 199t207.5 174q-106 20 -156.5 78t-50.5 158q0 46 8 90l111 635h342l-109 -619q-8 -50 -8 -70q0 -40 19.5 -61t68.5 -21q51 0 90 38t51 102l111 631h344zM416 -219
q0 -80 82 -80q66 0 102.5 48.5t56.5 148.5l37 206q-18 -15 -131 -94q-147 -107 -147 -229zM864 1362q0 70 53.5 120t133.5 50q62 0 97.5 -35t35.5 -90q0 -70 -54 -120t-133 -50q-62 0 -97.5 35t-35.5 90zM418 1362q0 70 53 120t133 50q62 0 97.5 -35t35.5 -90
q0 -70 -53.5 -120t-132.5 -50q-62 0 -97.5 35t-35.5 90z" />
    <glyph glyph-name="Amacron" unicode="&#x100;" horiz-adv-x="1325" 
d="M373 0h-367l680 1362h408l223 -1362h-350l-41 291h-408zM840 1034l-224 -485h287l-51 485h-12zM582 1485l41 231h651l-41 -231h-651z" />
    <glyph glyph-name="amacron" unicode="&#x101;" horiz-adv-x="1112" 
d="M1182 997l-138 -776l-14 -221h-289v96l-10 2q-111 -129 -287 -129q-158 0 -237.5 104.5t-79.5 278.5q0 212 75 374.5t226 257.5t360 95q75 0 181.5 -20t212.5 -62zM729 330l86 493q-39 17 -92 17t-97.5 -30.5t-72.5 -79t-47.5 -109.5t-28 -119t-8.5 -111
q0 -83 26.5 -130.5t94.5 -47.5q52 0 88 31t51 86zM469 1266l41 231h649l-41 -231h-649z" />
    <glyph glyph-name="Abreve" unicode="&#x102;" horiz-adv-x="1325" 
d="M373 0h-367l680 1362h408l223 -1362h-350l-41 291h-408zM840 1034l-224 -485h287l-51 485h-12zM1151 1835l178 -84q-53 -123 -156 -200.5t-262 -77.5q-83 0 -148 26t-103 68.5t-58.5 87.5t-26.5 92l195 80q20 -76 60.5 -114t113.5 -38q70 0 116.5 37.5t90.5 122.5z" />
    <glyph glyph-name="abreve" unicode="&#x103;" horiz-adv-x="1112" 
d="M1182 997l-138 -776l-14 -221h-289v96l-10 2q-111 -129 -287 -129q-158 0 -237.5 104.5t-79.5 278.5q0 212 75 374.5t226 257.5t360 95q75 0 181.5 -20t212.5 -62zM729 330l86 493q-39 17 -92 17t-97.5 -30.5t-72.5 -79t-47.5 -109.5t-28 -119t-8.5 -111
q0 -83 26.5 -130.5t94.5 -47.5q52 0 88 31t51 86zM1022 1579l184 -47q-55 -155 -153 -235t-258 -80q-84 0 -147.5 27.5t-100 74.5t-55.5 100t-23 113l182 47q18 -88 58.5 -125t113.5 -37q65 0 110.5 36t88.5 126z" />
    <glyph glyph-name="Aogonek" unicode="&#x104;" horiz-adv-x="1325" 
d="M371 0h-365l686 1362h393l232 -1362q-82 -47 -145.5 -124t-63.5 -134q0 -55 61 -55q45 0 103 22l28 -170q-85 -45 -217 -45q-110 0 -163.5 48.5t-53.5 123.5q0 164 215 334h-114l-41 291h-410zM840 1034l-226 -485h289l-51 485h-12z" />
    <glyph glyph-name="aogonek" unicode="&#x105;" horiz-adv-x="1112" 
d="M1182 997l-138 -776l-14 -221q-79 -47 -142 -124t-63 -134q0 -55 62 -55q44 0 102 22l29 -170q-85 -45 -217 -45q-110 0 -163.5 48.5t-53.5 123.5q0 164 215 334h-58v96l-10 2q-111 -129 -287 -129q-158 0 -237.5 104.5t-79.5 278.5q0 212 75 374.5t226 257.5t360 95
q75 0 181.5 -20t212.5 -62zM729 330l86 493q-39 17 -92 17t-97.5 -30.5t-72.5 -79t-47.5 -109.5t-28 -119t-8.5 -111q0 -83 26.5 -130.5t94.5 -47.5q52 0 88 31t51 86z" />
    <glyph glyph-name="Cacute" unicode="&#x106;" horiz-adv-x="1214" 
d="M766 262q135 0 311 135l137 -227q-129 -101 -253 -148t-265 -47q-247 0 -385.5 145t-138.5 408q0 186 43.5 335t115 244.5t168 159.5t196.5 90.5t208 26.5q315 0 473 -299l-254 -157q-91 166 -243 166q-148 0 -244 -141t-96 -380q0 -149 56 -230t171 -81zM735 1534
l377 319q48 -30 80.5 -70.5t32.5 -80.5t-24.5 -68t-84.5 -59q-86 -46 -319 -139z" />
    <glyph glyph-name="cacute" unicode="&#x107;" horiz-adv-x="962" 
d="M649 233q97 0 228 84l81 -231q-170 -119 -407 -119q-197 0 -306.5 116t-109.5 329q0 138 34 252t90.5 189.5t132.5 127.5t158 75t169 23q128 0 231.5 -58.5t157.5 -178.5l-229 -152q-33 58 -69 88.5t-89 30.5q-111 0 -174.5 -102.5t-63.5 -260.5q0 -102 41.5 -157.5
t124.5 -55.5zM586 1237l303 399q160 -47 160 -143q0 -31 -20 -59.5t-71 -69.5q-97 -81 -292 -209z" />
    <glyph glyph-name="Ccircumflex" unicode="&#x108;" horiz-adv-x="1214" 
d="M766 262q135 0 311 135l137 -227q-129 -101 -253 -148t-265 -47q-247 0 -385.5 145t-138.5 408q0 186 43.5 335t115 244.5t168 159.5t196.5 90.5t208 26.5q315 0 473 -299l-254 -157q-91 166 -243 166q-148 0 -244 -141t-96 -380q0 -149 56 -230t171 -81zM688 1434
l-100 94q120 120 260 239q45 38 72.5 53t64.5 15q27 0 51.5 -16.5t57.5 -51.5q72 -74 184 -239l-109 -92l-213 176z" />
    <glyph glyph-name="ccircumflex" unicode="&#x109;" horiz-adv-x="962" 
d="M649 233q97 0 228 84l81 -231q-170 -119 -407 -119q-197 0 -306.5 116t-109.5 329q0 138 34 252t90.5 189.5t132.5 127.5t158 75t169 23q128 0 231.5 -58.5t157.5 -178.5l-229 -152q-33 58 -69 88.5t-89 30.5q-111 0 -174.5 -102.5t-63.5 -260.5q0 -102 41.5 -157.5
t124.5 -55.5zM502 1163l-105 88q123 150 277 297q55 49 81.5 64.5t67.5 15.5q44 0 65.5 -15.5t57.5 -64.5q84 -123 176 -297l-112 -86l-219 217z" />
    <glyph glyph-name="Cdotaccent" unicode="&#x10a;" horiz-adv-x="1214" 
d="M766 262q135 0 311 135l137 -227q-129 -101 -253 -148t-265 -47q-247 0 -385.5 145t-138.5 408q0 186 43.5 335t115 244.5t168 159.5t196.5 90.5t208 26.5q315 0 473 -299l-254 -157q-91 166 -243 166q-148 0 -244 -141t-96 -380q0 -149 56 -230t171 -81zM784 1616
q0 81 61 140t152 59q71 0 113.5 -42.5t42.5 -105.5q0 -82 -62 -138t-151 -56q-74 0 -115 39.5t-41 103.5z" />
    <glyph glyph-name="cdotaccent" unicode="&#x10b;" horiz-adv-x="962" 
d="M649 233q97 0 228 84l81 -231q-170 -119 -407 -119q-197 0 -306.5 116t-109.5 329q0 138 34 252t90.5 189.5t132.5 127.5t158 75t169 23q128 0 231.5 -58.5t157.5 -178.5l-229 -152q-33 58 -69 88.5t-89 30.5q-111 0 -174.5 -102.5t-63.5 -260.5q0 -102 41.5 -157.5
t124.5 -55.5zM592 1319q0 81 61 140t152 59q70 0 113 -42t43 -104q0 -82 -62.5 -138t-153.5 -56q-72 0 -112.5 39t-40.5 102z" />
    <glyph glyph-name="Ccaron" unicode="&#x10c;" horiz-adv-x="1214" 
d="M766 262q135 0 311 135l137 -227q-129 -101 -253 -148t-265 -47q-247 0 -385.5 145t-138.5 408q0 186 43.5 335t115 244.5t168 159.5t196.5 90.5t208 26.5q315 0 473 -299l-254 -157q-91 166 -243 166q-148 0 -244 -141t-96 -380q0 -149 56 -230t171 -81zM750 1835
l206 -180l271 182l98 -98q-116 -119 -250 -230q-89 -77 -149 -77t-125 79q-85 106 -166 228z" />
    <glyph glyph-name="ccaron" unicode="&#x10d;" horiz-adv-x="962" 
d="M649 233q97 0 228 84l81 -231q-170 -119 -407 -119q-197 0 -306.5 116t-109.5 329q0 138 34 252t90.5 189.5t132.5 127.5t158 75t169 23q128 0 231.5 -58.5t157.5 -178.5l-229 -152q-33 58 -69 88.5t-89 30.5q-111 0 -174.5 -102.5t-63.5 -260.5q0 -102 41.5 -157.5
t124.5 -55.5zM1069 1628l105 -88q-162 -188 -279 -297q-51 -47 -79.5 -63.5t-70.5 -16.5q-44 0 -65 15.5t-57 64.5q-107 159 -179 297l119 86l217 -215z" />
    <glyph glyph-name="Dcaron" unicode="&#x10e;" horiz-adv-x="1323" 
d="M115 0l239 1362h477q268 0 417 -135t149 -389q0 -177 -42 -319.5t-114.5 -238t-174.5 -159.5t-218 -92.5t-248 -28.5h-485zM659 1087l-145 -815h137q177 0 281 143t104 386q0 286 -262 286h-115zM657 1835l207 -180l271 182l98 -98q-116 -119 -250 -230q-89 -77 -149 -77
t-125 79q-85 106 -166 228z" />
    <glyph glyph-name="dcaron" unicode="&#x10f;" horiz-adv-x="1294" 
d="M754 1079q60 0 106 -12l64 356h336l-213 -1200l-15 -223h-284l-5 98h-10q-105 -131 -272 -131q-76 0 -136 22.5t-97 59.5t-60.5 88.5t-33 103.5t-9.5 111q0 208 73 371t217 259.5t339 96.5zM729 326l88 497q-36 4 -51 4q-62 0 -112.5 -26t-84 -68.5t-57 -100
t-33.5 -118.5t-10 -125q0 -176 113 -176q59 0 99.5 35t47.5 78zM1374 1407l-80 -457l121 -24q73 116 129 235q62 128 62 180q0 82 -107 82q-47 0 -125 -16z" />
    <glyph glyph-name="Dcroat" unicode="&#x110;" horiz-adv-x="1345" 
d="M137 0l99 561h-113l39 236h114l101 565h477q268 0 416.5 -135t148.5 -389q0 -177 -42 -319.5t-114.5 -238t-174 -159.5t-217.5 -92.5t-248 -28.5h-486zM682 1087l-53 -290h241l-39 -236h-243l-51 -289h137q177 0 281 143t104 386q0 286 -262 286h-115z" />
    <glyph glyph-name="dcroat" unicode="&#x111;" horiz-adv-x="1114" 
d="M735 1016q67 0 113 -12l18 100h-270l37 211h270l21 108h336l-21 -108h107l-37 -211h-107l-155 -881l-15 -223h-284l-5 98h-10q-105 -131 -272 -131q-76 0 -136 22.5t-97 59.5t-60.5 88.5t-33 103.5t-9.5 111q0 313 157 488.5t453 175.5zM729 326l76 434q-36 4 -51 4
q-77 0 -134 -29t-89 -81.5t-47 -118t-15 -146.5q0 -176 113 -176q59 0 99.5 35t47.5 78z" />
    <glyph glyph-name="Emacron" unicode="&#x112;" horiz-adv-x="1081" 
d="M115 0l239 1362h891l-55 -307h-537l-37 -209h461l-53 -303h-461l-43 -236h553l-53 -307h-905zM485 1485l41 231h652l-41 -231h-652z" />
    <glyph glyph-name="emacron" unicode="&#x113;" horiz-adv-x="991" 
d="M782 772q0 32 -20.5 49t-50.5 17q-43 0 -80 -21.5t-63 -57.5t-43.5 -76t-28.5 -85q64 3 127 22t111 59.5t48 92.5zM760 1079q153 0 238 -69t85 -199q0 -71 -22.5 -130.5t-59 -101t-89.5 -74t-105.5 -52t-116 -33t-112.5 -20t-103 -9.5q-2 -75 40.5 -122.5t131.5 -47.5
q118 0 266 86l72 -219q-21 -15 -54.5 -32t-89 -39t-132 -36t-156.5 -14q-214 0 -318 114.5t-104 307.5q0 105 27 205.5t80.5 188t128 154t176 104.5t217.5 38zM444 1266l41 231h650l-41 -231h-650z" />
    <glyph glyph-name="Ebreve" unicode="&#x114;" horiz-adv-x="1081" 
d="M115 0l239 1362h891l-55 -307h-537l-37 -209h461l-53 -303h-461l-43 -236h553l-53 -307h-905zM1069 1835l178 -84q-53 -123 -156 -200.5t-262 -77.5q-83 0 -148 26t-102.5 68.5t-58 87.5t-26.5 92l194 80q20 -76 60.5 -114t113.5 -38q70 0 116.5 37.5t90.5 122.5z" />
    <glyph glyph-name="ebreve" unicode="&#x115;" horiz-adv-x="991" 
d="M782 772q0 32 -20.5 49t-50.5 17q-43 0 -80 -21.5t-63 -57.5t-43.5 -76t-28.5 -85q64 3 127 22t111 59.5t48 92.5zM760 1079q153 0 238 -69t85 -199q0 -71 -22.5 -130.5t-59 -101t-89.5 -74t-105.5 -52t-116 -33t-112.5 -20t-103 -9.5q-2 -75 40.5 -122.5t131.5 -47.5
q118 0 266 86l72 -219q-21 -15 -54.5 -32t-89 -39t-132 -36t-156.5 -14q-214 0 -318 114.5t-104 307.5q0 105 27 205.5t80.5 188t128 154t176 104.5t217.5 38zM1001 1579l185 -47q-55 -155 -153.5 -235t-258.5 -80q-84 0 -147 27.5t-99.5 74.5t-55.5 100t-23 113l182 47
q18 -88 58.5 -125t113.5 -37q64 0 109.5 36t88.5 126z" />
    <glyph glyph-name="Edotaccent" unicode="&#x116;" horiz-adv-x="1081" 
d="M115 0l239 1362h891l-55 -307h-537l-37 -209h461l-53 -303h-461l-43 -236h553l-53 -307h-905zM666 1616q0 81 61 140t152 59q71 0 113 -42t42 -106q0 -82 -62 -138t-151 -56q-73 0 -114 39t-41 104z" />
    <glyph glyph-name="edotaccent" unicode="&#x117;" horiz-adv-x="991" 
d="M782 772q0 32 -20.5 49t-50.5 17q-43 0 -80 -21.5t-63 -57.5t-43.5 -76t-28.5 -85q64 3 127 22t111 59.5t48 92.5zM760 1079q153 0 238 -69t85 -199q0 -71 -22.5 -130.5t-59 -101t-89.5 -74t-105.5 -52t-116 -33t-112.5 -20t-103 -9.5q-2 -75 40.5 -122.5t131.5 -47.5
q118 0 266 86l72 -219q-21 -15 -54.5 -32t-89 -39t-132 -36t-156.5 -14q-214 0 -318 114.5t-104 307.5q0 105 27 205.5t80.5 188t128 154t176 104.5t217.5 38zM614 1319q0 81 61 140t152 59q70 0 113 -42t43 -104q0 -82 -62 -138t-153 -56q-72 0 -113 39t-41 102z" />
    <glyph glyph-name="Eogonek" unicode="&#x118;" horiz-adv-x="1079" 
d="M115 0l239 1362h891l-55 -307h-537l-37 -209h461l-53 -303h-461l-43 -236h553l-53 -307q-90 -46 -156.5 -122.5t-66.5 -135.5q0 -55 61 -55q45 0 103 22l28 -170q-85 -45 -217 -45q-110 0 -163.5 48.5t-53.5 123.5q0 164 215 334h-655z" />
    <glyph glyph-name="eogonek" unicode="&#x119;" horiz-adv-x="991" 
d="M760 1079q153 0 238 -69t85 -199q0 -71 -22.5 -130.5t-59 -101t-89.5 -74t-105.5 -52t-116 -33t-112.5 -20t-103 -9.5q-2 -75 40.5 -122.5t131.5 -47.5q118 0 266 86l72 -219q-11 -8 -35.5 -21t-65.5 -34.5t-77 -42.5q-100 -58 -149.5 -122.5t-49.5 -125.5q0 -55 62 -55
q44 0 102 22l29 -170q-85 -45 -217 -45q-110 0 -163.5 48.5t-53.5 123.5q0 144 176 301q-210 3 -311 117t-101 305q0 105 27 205.5t80.5 188t128 154t176 104.5t217.5 38zM782 772q0 32 -20.5 49t-50.5 17q-43 0 -80 -21.5t-63 -57.5t-43.5 -76t-28.5 -85q64 3 127 22
t111 59.5t48 92.5z" />
    <glyph glyph-name="Ecaron" unicode="&#x11a;" horiz-adv-x="1081" 
d="M115 0l239 1362h891l-55 -307h-537l-37 -209h461l-53 -303h-461l-43 -236h553l-53 -307h-905zM623 1835l206 -180l271 182l98 -98q-116 -119 -250 -230q-89 -77 -149 -77t-125 79q-85 106 -166 228z" />
    <glyph glyph-name="ecaron" unicode="&#x11b;" horiz-adv-x="991" 
d="M782 772q0 32 -20.5 49t-50.5 17q-43 0 -80 -21.5t-63 -57.5t-43.5 -76t-28.5 -85q64 3 127 22t111 59.5t48 92.5zM760 1079q153 0 238 -69t85 -199q0 -71 -22.5 -130.5t-59 -101t-89.5 -74t-105.5 -52t-116 -33t-112.5 -20t-103 -9.5q-2 -75 40.5 -122.5t131.5 -47.5
q118 0 266 86l72 -219q-21 -15 -54.5 -32t-89 -39t-132 -36t-156.5 -14q-214 0 -318 114.5t-104 307.5q0 105 27 205.5t80.5 188t128 154t176 104.5t217.5 38zM1085 1628l105 -88q-162 -188 -279 -297q-51 -48 -79 -64t-70 -16q-44 0 -65.5 15.5t-57.5 64.5
q-102 152 -178 297l119 86l217 -215z" />
    <glyph glyph-name="Gcircumflex" unicode="&#x11c;" horiz-adv-x="1296" 
d="M1329 700l-102 -585q-102 -61 -243.5 -100.5t-289.5 -39.5q-250 0 -386 141t-136 421q0 181 43.5 327.5t115.5 241.5t169.5 159t200 91.5t212.5 27.5q74 0 143 -15.5t134.5 -48t119.5 -89.5t87 -133l-275 -166q-52 88 -108.5 124t-128.5 36q-154 0 -250 -142.5
t-96 -392.5q0 -299 219 -299q89 0 149 35l72 407h350zM725 1434l-100 94q120 120 260 239q45 38 72.5 53t64.5 15q27 0 50.5 -16.5t57.5 -51.5q75 -78 185 -239l-109 -92l-213 176z" />
    <glyph glyph-name="gcircumflex" unicode="&#x11d;" horiz-adv-x="1099" 
d="M428 -543q-163 0 -247.5 73t-84.5 194q0 123 72 213.5t225 168.5q-113 18 -185.5 110.5t-72.5 248.5q0 189 81 329t223 212.5t327 72.5q104 0 221 -20t195 -55l-142 -803q-28 -154 -47 -238q-59 -260 -198.5 -383t-366.5 -123zM739 420l72 405q-37 9 -70 9
q-68 0 -121.5 -35t-84.5 -92.5t-46.5 -122.5t-15.5 -133q0 -175 113 -175q57 0 98.5 34.5t54.5 109.5zM408 -211q0 -88 81 -88q80 0 117 66t64 223l20 119q-23 -22 -135 -103q-69 -50 -108 -101.5t-39 -115.5zM530 1163l-104 88q127 155 276 297q55 49 82 64.5t68 15.5
q44 0 65.5 -15.5t57.5 -64.5q84 -123 176 -297l-113 -86l-219 217z" />
    <glyph glyph-name="Gbreve" unicode="&#x11e;" horiz-adv-x="1296" 
d="M1329 700l-102 -585q-102 -61 -243.5 -100.5t-289.5 -39.5q-250 0 -386 141t-136 421q0 181 43.5 327.5t115.5 241.5t169.5 159t200 91.5t212.5 27.5q74 0 143 -15.5t134.5 -48t119.5 -89.5t87 -133l-275 -166q-52 88 -108.5 124t-128.5 36q-154 0 -250 -142.5
t-96 -392.5q0 -299 219 -299q89 0 149 35l72 407h350zM1200 1835l178 -84q-53 -123 -155.5 -200.5t-261.5 -77.5q-83 0 -148 26t-103 68.5t-58.5 87.5t-26.5 92l194 80q20 -76 60.5 -114t113.5 -38q70 0 116.5 37.5t90.5 122.5z" />
    <glyph glyph-name="gbreve" unicode="&#x11f;" horiz-adv-x="1099" 
d="M428 -543q-163 0 -247.5 73t-84.5 194q0 123 72 213.5t225 168.5q-113 18 -185.5 110.5t-72.5 248.5q0 189 81 329t223 212.5t327 72.5q104 0 221 -20t195 -55l-142 -803q-28 -154 -47 -238q-59 -260 -198.5 -383t-366.5 -123zM739 420l72 405q-37 9 -70 9
q-68 0 -121.5 -35t-84.5 -92.5t-46.5 -122.5t-15.5 -133q0 -175 113 -175q57 0 98.5 34.5t54.5 109.5zM408 -211q0 -88 81 -88q80 0 117 66t64 223l20 119q-23 -22 -135 -103q-69 -50 -108 -101.5t-39 -115.5zM1030 1579l184 -47q-55 -155 -153 -235t-258 -80
q-84 0 -147.5 27.5t-100 74.5t-55.5 100t-23 113l182 47q18 -88 58.5 -125t113.5 -37q65 0 110.5 36t88.5 126z" />
    <glyph glyph-name="Gdotaccent" unicode="&#x120;" horiz-adv-x="1296" 
d="M1329 700l-102 -585q-102 -61 -243.5 -100.5t-289.5 -39.5q-250 0 -386 141t-136 421q0 181 43.5 327.5t115.5 241.5t169.5 159t200 91.5t212.5 27.5q74 0 143 -15.5t134.5 -48t119.5 -89.5t87 -133l-275 -166q-52 88 -108.5 124t-128.5 36q-154 0 -250 -142.5
t-96 -392.5q0 -299 219 -299q89 0 149 35l72 407h350zM799 1616q0 81 61 140t152 59q71 0 113 -42t42 -106q0 -82 -62 -138t-151 -56q-73 0 -114 39t-41 104z" />
    <glyph glyph-name="gdotaccent" unicode="&#x121;" horiz-adv-x="1099" 
d="M428 -543q-163 0 -247.5 73t-84.5 194q0 123 72 213.5t225 168.5q-113 18 -185.5 110.5t-72.5 248.5q0 189 81 329t223 212.5t327 72.5q104 0 221 -20t195 -55l-142 -803q-28 -154 -47 -238q-59 -260 -198.5 -383t-366.5 -123zM739 420l72 405q-37 9 -70 9
q-68 0 -121.5 -35t-84.5 -92.5t-46.5 -122.5t-15.5 -133q0 -175 113 -175q57 0 98.5 34.5t54.5 109.5zM408 -211q0 -88 81 -88q80 0 117 66t64 223l20 119q-23 -22 -135 -103q-69 -50 -108 -101.5t-39 -115.5zM641 1319q0 81 61 140t152 59q70 0 113 -42t43 -104
q0 -82 -62 -138t-153 -56q-72 0 -113 39t-41 102z" />
    <glyph glyph-name="Gcommaaccent" unicode="&#x122;" horiz-adv-x="1296" 
d="M1329 700l-102 -585q-102 -61 -243.5 -100.5t-289.5 -39.5q-250 0 -386 141t-136 421q0 181 43.5 327.5t115.5 241.5t169.5 159t200 91.5t212.5 27.5q74 0 143 -15.5t134.5 -48t119.5 -89.5t87 -133l-275 -166q-52 88 -108.5 124t-128.5 36q-154 0 -250 -142.5
t-96 -392.5q0 -299 219 -299q89 0 149 35l72 407h350zM571 -104l-200 -431l106 -57q14 15 51.5 54.5t62.5 66.5t59.5 67t60.5 74q61 81 61 129q0 30 -19 50.5t-53 29.5t-62.5 12.5t-66.5 4.5z" />
    <glyph glyph-name="gcommaaccent" unicode="&#x123;" horiz-adv-x="1099" 
d="M428 -543q-163 0 -247.5 73t-84.5 194q0 123 72 213.5t225 168.5q-113 18 -185.5 110.5t-72.5 248.5q0 189 81 329t223 212.5t327 72.5q104 0 221 -20t195 -55l-142 -803q-28 -154 -47 -238q-59 -260 -198.5 -383t-366.5 -123zM739 420l72 405q-37 9 -70 9
q-68 0 -121.5 -35t-84.5 -92.5t-46.5 -122.5t-15.5 -133q0 -175 113 -175q57 0 98.5 34.5t54.5 109.5zM408 -211q0 -88 81 -88q80 0 117 66t64 223l20 119q-23 -22 -135 -103q-69 -50 -108 -101.5t-39 -115.5zM1036 1595l-200 -434q-28 2 -43.5 3.5t-43.5 6t-44.5 11.5
t-34.5 17.5t-26.5 27t-8.5 37.5q0 45 61 129q67 85 234 260z" />
    <glyph glyph-name="Hcircumflex" unicode="&#x124;" horiz-adv-x="1366" 
d="M1137 1362h354l-240 -1362h-354l94 528h-432l-92 -528h-352l239 1362h353l-93 -526h430zM700 1434l-100 94q120 120 260 239q45 38 72.5 53t64.5 15q27 0 51.5 -16.5t57.5 -51.5q72 -74 184 -239l-108 -92l-213 176z" />
    <glyph glyph-name="hcircumflex" unicode="&#x125;" 
d="M436 0h-342l252 1423h342l-74 -422q100 78 244 78q137 0 208 -64t71 -190q0 -59 -15 -139l-121 -686h-342l117 666q8 40 8 67q0 84 -71 84q-67 0 -107 -40t-51 -105zM459 1475l-101 94q120 120 260 239q44 38 72.5 53t65.5 15q27 0 50.5 -16.5t57.5 -51.5
q75 -78 185 -239l-109 -92l-213 176z" />
    <glyph glyph-name="Hbar" unicode="&#x126;" horiz-adv-x="1384" 
d="M1145 1362h354l-26 -164h108l-37 -209h-108l-176 -989h-355l94 528h-430l-92 -528h-354l176 989h-111l37 209h111l26 164h355l-29 -164h430zM625 836h428l28 153h-430z" />
    <glyph glyph-name="hbar" unicode="&#x127;" horiz-adv-x="1097" 
d="M436 0h-342l195 1104h-96l36 211h97l20 108h342l-18 -108h282l-37 -211h-282l-31 -174q100 78 244 78q137 0 207.5 -64t70.5 -190q0 -66 -14 -140l-109 -614h-342l105 594q8 40 8 68q0 83 -72 83q-67 0 -106.5 -39.5t-50.5 -105.5z" />
    <glyph glyph-name="Itilde" unicode="&#x128;" horiz-adv-x="598" 
d="M475 0h-352l239 1362h353zM276 1487l9 188q97 64 188 64q58 0 146 -26.5t135 -26.5q69 0 139 36l-14 -200q-76 -39 -152 -39q-47 0 -145.5 23.5t-139.5 23.5q-84 0 -166 -43z" />
    <glyph glyph-name="itilde" unicode="&#x129;" horiz-adv-x="557" 
d="M453 0h-342l184 1049h342zM213 1253l10 191q95 63 191 63q57 0 144 -27.5t134 -27.5q63 0 139 39l-16 -201q-74 -41 -151 -41q-48 0 -146 24.5t-139 24.5q-80 0 -166 -45z" />
    <glyph glyph-name="Imacron" unicode="&#x12a;" horiz-adv-x="598" 
d="M475 0h-352l239 1362h353zM233 1485l41 231h652l-41 -231h-652z" />
    <glyph glyph-name="imacron" unicode="&#x12b;" horiz-adv-x="557" 
d="M453 0h-342l184 1049h342zM174 1266l41 231h649l-41 -231h-649z" />
    <glyph glyph-name="Ibreve" unicode="&#x12c;" horiz-adv-x="598" 
d="M475 0h-352l239 1362h353zM803 1835l178 -84q-53 -123 -156 -200.5t-262 -77.5q-83 0 -148 26t-103 68.5t-58.5 87.5t-26.5 92l195 80q20 -76 60.5 -114t113.5 -38q70 0 116.5 37.5t90.5 122.5z" />
    <glyph glyph-name="ibreve" unicode="&#x12d;" horiz-adv-x="557" 
d="M453 0h-342l184 1049h342zM737 1579l185 -47q-55 -155 -153.5 -235t-258.5 -80q-84 0 -147.5 27.5t-100 74.5t-55.5 100t-23 113l183 47q18 -88 58.5 -125t113.5 -37q64 0 109.5 36t88.5 126z" />
    <glyph glyph-name="Iogonek" unicode="&#x12e;" horiz-adv-x="598" 
d="M475 0q-76 -48 -137.5 -125t-61.5 -133q0 -55 62 -55q44 0 102 22l29 -170q-85 -45 -217 -45q-110 0 -163.5 48.5t-53.5 123.5q0 164 215 334h-127l239 1362h353z" />
    <glyph glyph-name="iogonek" unicode="&#x12f;" horiz-adv-x="557" 
d="M453 0q-77 -48 -139 -125t-62 -133q0 -55 61 -55q45 0 103 22l28 -170q-85 -45 -217 -45q-110 0 -163.5 48.5t-53.5 123.5q0 164 215 334h-114l184 1049h342zM334 1319q0 81 61 140t152 59q70 0 112.5 -42t42.5 -104q0 -82 -62 -138t-153 -56q-72 0 -112.5 39t-40.5 102z
" />
    <glyph glyph-name="Idotaccent" unicode="&#x130;" horiz-adv-x="598" 
d="M475 0h-352l239 1362h353zM408 1616q0 81 61 140t152 59q71 0 113 -42t42 -106q0 -82 -62 -138t-151 -56q-73 0 -114 39t-41 104z" />
    <glyph glyph-name="dotlessi" unicode="&#x131;" horiz-adv-x="557" 
d="M453 0h-342l184 1049h342z" />
    <glyph glyph-name="IJ" unicode="&#x132;" horiz-adv-x="1505" 
d="M475 0h-352l239 1362h353zM621 80l137 256q92 -66 192 -66q76 0 115.5 34t56.5 126l164 932h352l-157 -899q-26 -138 -49 -201q-53 -153 -160.5 -220t-284.5 -67q-106 0 -203.5 30.5t-162.5 74.5z" />
    <glyph glyph-name="ij" unicode="&#x133;" horiz-adv-x="1091" 
d="M453 0h-342l184 1049h342zM334 1319q0 81 61 140t152 59q70 0 112.5 -42t42.5 -104q0 -82 -62 -138t-153 -56q-72 0 -112.5 39t-40.5 102zM651 -29l191 1078h340l-195 -1098q-9 -54 -17.5 -90.5t-23.5 -83.5t-34 -77.5t-49 -63.5t-68.5 -52t-92.5 -31t-120 -12
q-80 0 -168 22t-144 58l123 238q70 -39 129 -39q57 0 85.5 33t43.5 118zM887 1319q0 81 61 140t152 59q70 0 112.5 -42t42.5 -104q0 -82 -62 -138t-153 -56q-72 0 -112.5 39t-40.5 102z" />
    <glyph glyph-name="Jcircumflex" unicode="&#x134;" horiz-adv-x="907" 
d="M23 80l137 256q92 -66 192 -66q76 0 115.5 34t56.5 126l164 932h352l-157 -899q-26 -138 -49 -201q-53 -153 -160.5 -220t-284.5 -67q-106 0 -203.5 30.5t-162.5 74.5zM633 1434l-101 94q114 114 261 239q45 38 72.5 53t64.5 15q27 0 50.5 -16.5t57.5 -51.5
q75 -78 185 -239l-109 -92l-213 176z" />
    <glyph glyph-name="jcircumflex" unicode="&#x135;" horiz-adv-x="544" 
d="M104 -29l191 1078h340l-195 -1098q-9 -54 -17.5 -90.5t-23.5 -83.5t-34 -77.5t-49 -63.5t-68.5 -52t-92.5 -31t-120 -12q-80 0 -167.5 22t-143.5 58l122 238q70 -39 129 -39q57 0 85.5 33t43.5 118zM213 1163l-104 88q127 155 276 297q55 49 82 64.5t68 15.5
q44 0 65 -15.5t57 -64.5q89 -129 177 -297l-113 -86l-219 217z" />
    <glyph glyph-name="Kcommaaccent" unicode="&#x136;" horiz-adv-x="1220" 
d="M1446 1362l-488 -576l273 -786h-385l-162 514l-160 -176l-59 -338h-350l239 1362h351l-97 -528l8 -3l445 531h385zM549 -104l-201 -431l107 -57q13 14 51.5 54.5t62.5 67t58.5 66.5t60.5 74q62 82 62 129q0 30 -19 50.5t-53 29.5t-62.5 12.5t-66.5 4.5z" />
    <glyph glyph-name="kcommaaccent" unicode="&#x137;" horiz-adv-x="1089" 
d="M719 0l-129 403l-76 -14l-68 -389h-344l252 1423h344l-110 -569l8 -2q133 227 371 227q104 0 169.5 -59t65.5 -166q0 -132 -71.5 -216.5t-204.5 -143.5l170 -494h-377zM838 758q0 69 -68 69t-134 -77.5t-91 -184.5q119 19 206 71.5t87 121.5zM485 -104l-200 -431l106 -57
q14 15 51.5 54.5t62.5 66.5t59.5 67t60.5 74q61 81 61 129q0 30 -19 50.5t-53 29.5t-62.5 12.5t-66.5 4.5z" />
    <glyph glyph-name="kgreenlandic" unicode="&#x138;" horiz-adv-x="1089" 
d="M719 0l-133 430q-46 -10 -66 -12l-74 -418h-344l185 1049h342l-43 -211l8 -2q67 113 165 178t216 65q103 0 165 -58.5t62 -166.5q0 -128 -73 -218.5t-203 -137.5l170 -498h-377zM846 760q0 35 -16.5 54.5t-47.5 19.5q-67 0 -135 -81.5t-94 -181.5q121 8 207 62t86 127z
" />
    <glyph glyph-name="Lacute" unicode="&#x139;" horiz-adv-x="1054" 
d="M117 0l239 1362h351l-185 -1053h543l-55 -309h-893zM326 1534l376 319q48 -30 80.5 -70.5t32.5 -80.5t-24 -68t-84 -59q-83 -45 -320 -139z" />
    <glyph glyph-name="lacute" unicode="&#x13a;" horiz-adv-x="710" 
d="M354 1423h342l-186 -1052q-6 -37 -6 -68q1 -36 18 -51.5t53 -15.5q45 0 127 32l37 -227q-58 -34 -144 -54t-159 -20q-80 0 -135 17.5t-86.5 52.5t-45.5 80.5t-15 107.5q0 57 14 146zM319 1573l377 319q48 -30 80.5 -70.5t32.5 -80.5t-24.5 -68t-84.5 -59
q-86 -46 -319 -139z" />
    <glyph glyph-name="Lcommaaccent" unicode="&#x13b;" horiz-adv-x="1054" 
d="M117 0l239 1362h351l-185 -1053h543l-55 -309h-893zM418 -104l-201 -431l107 -57q13 14 51.5 54.5t62.5 67t58.5 66.5t60.5 74q61 81 61 129q0 30 -18.5 50.5t-52.5 29.5t-62.5 12.5t-66.5 4.5z" />
    <glyph glyph-name="lcommaaccent" unicode="&#x13c;" horiz-adv-x="710" 
d="M354 1423h342l-186 -1052q-6 -37 -6 -68q1 -36 18 -51.5t53 -15.5q45 0 127 32l37 -227q-58 -34 -144 -54t-159 -20q-80 0 -135 17.5t-86.5 52.5t-45.5 80.5t-15 107.5q0 57 14 146zM254 -104l-201 -431l107 -57q13 14 51.5 54.5t62.5 67t58.5 66.5t60.5 74q62 82 62 129
q0 30 -19 50.5t-53 29.5t-62.5 12.5t-66.5 4.5z" />
    <glyph glyph-name="Lcaron" unicode="&#x13d;" horiz-adv-x="1054" 
d="M117 0l239 1362h351l-185 -1053h543l-55 -309h-893zM936 1346l-80 -457l121 -25q72 113 129 236q61 125 61 180q0 82 -106 82q-47 0 -125 -16z" />
    <glyph glyph-name="lcaron" unicode="&#x13e;" horiz-adv-x="757" 
d="M354 1423h342l-186 -1052q-6 -37 -6 -68q1 -36 18 -51.5t53 -15.5q45 0 127 32l37 -227q-58 -34 -144 -54t-159 -20q-80 0 -135 17.5t-86.5 52.5t-45.5 80.5t-15 107.5q0 57 14 146zM803 1407l-80 -457l121 -24q73 116 129 235q61 125 61 180q0 82 -106 82
q-47 0 -125 -16z" />
    <glyph glyph-name="Ldot" unicode="&#x13f;" horiz-adv-x="1054" 
d="M117 0l239 1362h351l-185 -1053h543l-55 -309h-893zM762 723q0 81 61 140t152 59q71 0 113 -42t42 -106q0 -82 -61.5 -138t-150.5 -56q-74 0 -115 39.5t-41 103.5z" />
    <glyph glyph-name="ldot" unicode="&#x140;" horiz-adv-x="901" 
d="M354 1423h342l-186 -1052q-6 -37 -6 -68q1 -36 18 -51.5t53 -15.5q45 0 127 32l37 -227q-58 -34 -144 -54t-159 -20q-80 0 -135 17.5t-86.5 52.5t-45.5 80.5t-15 107.5q0 57 14 146zM672 723q0 81 61 140t152 59q71 0 113 -42t42 -106q0 -82 -62 -138t-151 -56
q-73 0 -114 39t-41 104z" />
    <glyph glyph-name="Lslash" unicode="&#x141;" horiz-adv-x="1048" 
d="M90 463l-70 205l232 102l104 592h351l-82 -465l278 123l72 -203l-393 -174l-60 -334h543l-55 -309h-893l90 516z" />
    <glyph glyph-name="lslash" unicode="&#x142;" horiz-adv-x="845" 
d="M471 1423h342l-86 -493l172 94l80 -184l-295 -158l-55 -311q-6 -35 -6 -58q0 -40 16.5 -58.5t52.5 -18.5q45 0 127 32l31 -225q-58 -37 -140.5 -56.5t-156.5 -19.5q-84 0 -141.5 18.5t-88 53.5t-43 76t-12.5 96q0 47 17 160l32 176l-127 -68l-81 185l251 131z" />
    <glyph glyph-name="Nacute" unicode="&#x143;" horiz-adv-x="1357" 
d="M1135 1362h348l-240 -1362h-311l-330 758h-8l-133 -758h-346l239 1362h324l317 -741h9zM727 1534l377 319q48 -30 80.5 -70.5t32.5 -80.5t-24.5 -68t-84.5 -59q-83 -45 -320 -139z" />
    <glyph glyph-name="nacute" unicode="&#x144;" horiz-adv-x="1110" 
d="M449 0h-340l147 838l12 211h283l4 -113q130 143 324 143q271 0 274 -254q0 -47 -10 -112l-127 -713h-342l106 612q17 93 17 119q0 36 -18 61t-60 25q-64 0 -103.5 -41.5t-50.5 -109.5zM594 1237l303 399q160 -47 160 -143q0 -31 -19.5 -59.5t-70.5 -69.5
q-93 -78 -293 -209z" />
    <glyph glyph-name="Ncommaaccent" unicode="&#x145;" horiz-adv-x="1357" 
d="M1135 1362h348l-240 -1362h-311l-330 758h-8l-133 -758h-346l239 1362h324l317 -741h9zM598 -104l-201 -431l107 -57q13 14 51.5 54.5t62.5 67t58.5 66.5t60.5 74q62 82 62 129q0 30 -19 50.5t-53 29.5t-62.5 12.5t-66.5 4.5z" />
    <glyph glyph-name="ncommaaccent" unicode="&#x146;" horiz-adv-x="1110" 
d="M449 0h-340l147 838l12 211h283l4 -113q130 143 324 143q271 0 274 -254q0 -47 -10 -112l-127 -713h-342l106 612q17 93 17 119q0 36 -18 61t-60 25q-64 0 -103.5 -41.5t-50.5 -109.5zM465 -104l-201 -431l107 -57q13 14 51.5 54.5t62.5 67t58.5 66.5t60.5 74
q62 82 62 129q0 30 -19 50.5t-53 29.5t-62.5 12.5t-66.5 4.5z" />
    <glyph glyph-name="Ncaron" unicode="&#x147;" horiz-adv-x="1357" 
d="M1135 1362h348l-240 -1362h-311l-330 758h-8l-133 -758h-346l239 1362h324l317 -741h9zM748 1835l206 -180l271 182l98 -98q-116 -119 -250 -230q-89 -77 -149 -77t-125 79q-85 106 -166 228z" />
    <glyph glyph-name="ncaron" unicode="&#x148;" horiz-adv-x="1110" 
d="M449 0h-340l147 838l12 211h283l4 -113q130 143 324 143q271 0 274 -254q0 -47 -10 -112l-127 -713h-342l106 612q17 93 17 119q0 36 -18 61t-60 25q-64 0 -103.5 -41.5t-50.5 -109.5zM1102 1628l104 -88q-166 -192 -278 -297q-51 -47 -79.5 -63.5t-70.5 -16.5
q-44 0 -65.5 15.5t-57.5 64.5q-102 152 -178 297l119 86l217 -215z" />
    <glyph glyph-name="napostrophe" unicode="&#x149;" horiz-adv-x="1202" 
d="M541 0h-340l147 838l12 211h283l4 -113q130 143 324 143q271 0 274 -254q0 -47 -10 -112l-127 -713h-342l106 612q17 93 17 119q0 36 -18 61t-60 25q-64 0 -103.5 -41.5t-50.5 -109.5zM160 1081l149 455q41 6 82 6q113 0 113 -80q0 -50 -64 -159q-56 -96 -176 -256z" />
    <glyph glyph-name="Eng" unicode="&#x14a;" horiz-adv-x="1355" 
d="M1133 1362h350l-250 -1411q-12 -70 -26.5 -120.5t-45.5 -108t-74 -93.5t-114.5 -60t-165.5 -24q-83 0 -169.5 25.5t-143.5 64.5l131 234q65 -43 135 -43q56 0 90 36.5t47 114.5l12 74l-309 707h-6l-133 -758h-348l239 1362h326l319 -741h4z" />
    <glyph glyph-name="eng" unicode="&#x14b;" horiz-adv-x="1112" 
d="M449 0h-340l147 838l12 211h283l4 -113q130 143 324 143q271 0 274 -254q0 -47 -10 -112l-135 -764q-9 -50 -17.5 -86.5t-24 -82t-35.5 -77t-51.5 -64.5t-70.5 -53t-94.5 -32.5t-122.5 -12.5q-77 0 -161 22t-140 58l127 234q68 -35 125 -35q50 0 81.5 34t45.5 115
l110 643q17 93 17 119q0 36 -18 61t-60 25q-64 0 -103.5 -41.5t-50.5 -109.5z" />
    <glyph glyph-name="Omacron" unicode="&#x14c;" horiz-adv-x="1363" 
d="M1417 653q-58 -343 -254 -510.5t-493 -167.5q-240 0 -370 139t-130 388q0 112 16 211q27 152 84.5 271t131 193t165.5 122.5t182 67.5t187 19q103 0 191 -31.5t157 -94t108.5 -165t39.5 -235.5q0 -112 -15 -207zM553 705q-16 -85 -16 -170q0 -269 198 -269
q68 0 123.5 31.5t93.5 88t62.5 124.5t38.5 149q12 71 12 160q0 44 -5.5 81.5t-19 74t-34.5 62.5t-54.5 41.5t-77.5 15.5q-54 0 -100.5 -21t-81.5 -57t-63 -86.5t-46.5 -106t-29.5 -118.5zM618 1485l41 231h652l-41 -231h-652z" />
    <glyph glyph-name="omacron" unicode="&#x14d;" horiz-adv-x="1087" 
d="M573 217q-100 0 -100 164q0 83 19 188q48 265 190 265q102 0 102 -158q0 -82 -16 -170q-26 -151 -73 -220t-122 -69zM137 543q-12 -68 -12 -166q0 -197 103.5 -303.5t293.5 -106.5q112 0 209.5 32.5t179.5 98t139 176t80 256.5q11 76 11 154q0 97 -28.5 171t-70.5 115.5
t-99.5 67t-105.5 33.5t-98 8q-76 0 -146.5 -14t-145 -51.5t-134 -95.5t-107 -154.5t-69.5 -220.5zM432 1266l41 231h649l-41 -231h-649z" />
    <glyph glyph-name="Obreve" unicode="&#x14e;" horiz-adv-x="1363" 
d="M1417 653q-58 -343 -254 -510.5t-493 -167.5q-240 0 -370 139t-130 388q0 112 16 211q27 152 84.5 271t131 193t165.5 122.5t182 67.5t187 19q103 0 191 -31.5t157 -94t108.5 -165t39.5 -235.5q0 -112 -15 -207zM553 705q-16 -85 -16 -170q0 -269 198 -269
q68 0 123.5 31.5t93.5 88t62.5 124.5t38.5 149q12 71 12 160q0 44 -5.5 81.5t-19 74t-34.5 62.5t-54.5 41.5t-77.5 15.5q-54 0 -100.5 -21t-81.5 -57t-63 -86.5t-46.5 -106t-29.5 -118.5zM1186 1835l178 -84q-53 -123 -156 -200.5t-262 -77.5q-83 0 -148 26t-103 68.5
t-58.5 87.5t-26.5 92l195 80q20 -76 60.5 -114t113.5 -38q70 0 116.5 37.5t90.5 122.5z" />
    <glyph glyph-name="obreve" unicode="&#x14f;" horiz-adv-x="1087" 
d="M573 217q-100 0 -100 164q0 83 19 188q48 265 190 265q102 0 102 -158q0 -82 -16 -170q-26 -151 -73 -220t-122 -69zM137 543q-12 -68 -12 -166q0 -197 103.5 -303.5t293.5 -106.5q112 0 209.5 32.5t179.5 98t139 176t80 256.5q11 76 11 154q0 97 -28.5 171t-70.5 115.5
t-99.5 67t-105.5 33.5t-98 8q-76 0 -146.5 -14t-145 -51.5t-134 -95.5t-107 -154.5t-69.5 -220.5zM987 1579l184 -47q-55 -155 -153 -235t-258 -80q-84 0 -147.5 27.5t-100 74.5t-55.5 100t-23 113l182 47q18 -88 58.5 -125t113.5 -37q65 0 110.5 36t88.5 126z" />
    <glyph glyph-name="Ohungarumlaut" unicode="&#x150;" horiz-adv-x="1363" 
d="M1417 653q-58 -343 -254 -510.5t-493 -167.5q-240 0 -370 139t-130 388q0 112 16 211q27 152 84.5 271t131 193t165.5 122.5t182 67.5t187 19q103 0 191 -31.5t157 -94t108.5 -165t39.5 -235.5q0 -112 -15 -207zM553 705q-16 -85 -16 -170q0 -269 198 -269
q68 0 123.5 31.5t93.5 88t62.5 124.5t38.5 149q12 71 12 160q0 44 -5.5 81.5t-19 74t-34.5 62.5t-54.5 41.5t-77.5 15.5q-54 0 -100.5 -21t-81.5 -57t-63 -86.5t-46.5 -106t-29.5 -118.5zM1028 1534l377 319q48 -30 80.5 -70.5t32.5 -80.5t-24.5 -68t-84.5 -59
q-86 -46 -319 -139zM561 1534l377 319q48 -30 80.5 -70.5t32.5 -80.5t-24.5 -68t-84.5 -59q-86 -46 -319 -139z" />
    <glyph glyph-name="ohungarumlaut" unicode="&#x151;" horiz-adv-x="1087" 
d="M573 217q75 0 122 69t73 220q16 88 16 170q0 158 -102 158q-142 0 -190 -265q-19 -105 -19 -188q0 -164 100 -164zM137 543q22 124 69.5 220.5t107 154.5t134 95.5t145 51.5t146.5 14q50 0 98 -8t105.5 -33.5t99.5 -67t70.5 -115.5t28.5 -171q0 -78 -11 -154
q-23 -146 -80 -256.5t-139 -176t-179.5 -98t-209.5 -32.5q-190 0 -293.5 106.5t-103.5 303.5q0 98 12 166zM428 1231l301 397q61 -18 105.5 -51.5t44.5 -81.5q0 -32 -20.5 -60.5t-72.5 -72.5q-117 -99 -282 -207zM825 1231l310 397q58 -17 102.5 -51t44.5 -84
q0 -31 -20.5 -59.5t-71.5 -71.5q-116 -101 -283 -207z" />
    <glyph glyph-name="OE" unicode="&#x152;" horiz-adv-x="1843" 
d="M920 1386q51 0 128.5 -7t122.5 -17h836l-55 -307h-537l-35 -209h459l-53 -303h-461l-41 -236h551l-53 -307h-860q-134 -31 -252 -31q-239 0 -368.5 149t-129.5 414q0 188 42 336.5t112.5 244t168.5 158.5t202.5 89t222.5 26zM537 555q0 -62 11 -112t35 -93.5t69 -67.5
t108 -24q103 0 168 33l135 764q-72 37 -164 37q-79 0 -143 -34.5t-104 -89.5t-66.5 -127.5t-37.5 -143t-11 -142.5z" />
    <glyph glyph-name="oe" unicode="&#x153;" horiz-adv-x="1595" 
d="M1376 1079q153 0 238.5 -69t85.5 -199q0 -71 -22.5 -130.5t-59 -101t-89.5 -74t-105.5 -52t-116 -33t-112.5 -20t-103 -9.5q-2 -75 40.5 -122.5t131.5 -47.5q118 0 266 86l72 -219q-30 -21 -79 -45t-149.5 -50t-204.5 -26q-203 0 -301 142q-136 -142 -346 -142
q-190 0 -293.5 106.5t-103.5 303.5q0 98 12 166q22 124 67.5 220t102.5 154.5t129 96t140.5 51.5t144.5 14q80 0 159.5 -34.5t125.5 -104.5q145 139 370 139zM573 217q75 0 122 69t73 220q16 88 16 170q0 158 -102 158q-142 0 -190 -265q-19 -105 -19 -188q0 -164 100 -164z
M1399 772q0 32 -21 49t-51 17q-43 0 -80 -21.5t-63 -57.5t-43.5 -76t-28.5 -85q64 3 127.5 22t111.5 59.5t48 92.5z" />
    <glyph glyph-name="Racute" unicode="&#x154;" horiz-adv-x="1243" 
d="M557 518l-90 -518h-352l239 1362h488q224 0 344.5 -82t120.5 -252q0 -152 -81 -253t-208 -146q32 -17 50 -45.5t34 -83.5l135 -500h-379l-106 442q-20 76 -97 76h-98zM602 766h133q93 0 148 55.5t55 151.5q0 65 -42 89.5t-132 24.5h-105zM657 1534l377 319
q48 -30 80.5 -70.5t32.5 -80.5t-24.5 -68t-84.5 -59q-86 -46 -319 -139z" />
    <glyph glyph-name="racute" unicode="&#x155;" horiz-adv-x="796" 
d="M567 641l-114 -641h-342l149 850l8 199h275l6 -146q53 91 125 133.5t143 42.5q102 0 164 -41l-98 -284q-72 37 -140 37q-67 0 -115 -39.5t-61 -110.5zM508 1237l303 399q160 -47 160 -143q0 -31 -19.5 -59.5t-70.5 -69.5q-93 -78 -293 -209z" />
    <glyph glyph-name="Rcommaaccent" unicode="&#x156;" horiz-adv-x="1243" 
d="M557 518l-90 -518h-352l239 1362h488q224 0 344.5 -82t120.5 -252q0 -152 -81 -253t-208 -146q32 -17 50 -45.5t34 -83.5l135 -500h-379l-106 442q-20 76 -97 76h-98zM602 766h133q93 0 148 55.5t55 151.5q0 65 -42 89.5t-132 24.5h-105zM555 -104l-201 -431l107 -57
q13 14 51.5 54.5t62.5 67t58.5 66.5t60.5 74q62 82 62 129q0 30 -19 50.5t-53 29.5t-62.5 12.5t-66.5 4.5z" />
    <glyph glyph-name="rcommaaccent" unicode="&#x157;" horiz-adv-x="796" 
d="M567 641l-114 -641h-342l149 850l8 199h275l6 -146q53 91 125 133.5t143 42.5q102 0 164 -41l-98 -284q-72 37 -140 37q-67 0 -115 -39.5t-61 -110.5zM168 -104l-201 -431l107 -57q13 14 51.5 54.5t62.5 67t58.5 66.5t60.5 74q62 82 62 129q0 30 -19 50.5t-53 29.5
t-62.5 12.5t-66.5 4.5z" />
    <glyph glyph-name="Rcaron" unicode="&#x158;" horiz-adv-x="1243" 
d="M557 518l-90 -518h-352l239 1362h488q224 0 344.5 -82t120.5 -252q0 -152 -81 -253t-208 -146q32 -17 50 -45.5t34 -83.5l135 -500h-379l-106 442q-20 76 -97 76h-98zM602 766h133q93 0 148 55.5t55 151.5q0 65 -42 89.5t-132 24.5h-105zM625 1835l206 -180l271 182
l98 -98q-116 -119 -250 -230q-89 -77 -149 -77t-125 79q-85 106 -166 228z" />
    <glyph glyph-name="rcaron" unicode="&#x159;" horiz-adv-x="796" 
d="M567 641l-114 -641h-342l149 850l8 199h275l6 -146q53 91 125 133.5t143 42.5q102 0 164 -41l-98 -284q-72 37 -140 37q-67 0 -115 -39.5t-61 -110.5zM956 1628l105 -88q-162 -188 -279 -297q-51 -48 -79 -64t-70 -16q-44 0 -65.5 15.5t-57.5 64.5q-102 152 -178 297
l119 86l217 -215z" />
    <glyph glyph-name="Sacute" unicode="&#x15a;" horiz-adv-x="1114" 
d="M66 129l163 279q70 -49 174.5 -90.5t184.5 -41.5q73 0 118.5 30.5t45.5 96.5q0 17 -6 32t-14 26.5t-25 24t-29 20t-37.5 19t-39.5 16.5t-45 17t-44 17q-47 18 -83 36.5t-74.5 49t-64 67t-41.5 89.5t-16 117q0 216 146.5 333t390.5 117q148 0 281 -62.5t211 -152.5
l-209 -217q-165 140 -299 140q-65 0 -104.5 -27t-39.5 -80q0 -15 3 -28t7 -23.5t14 -21.5t16.5 -18t23 -17t25.5 -15t32 -15t34 -14.5t40 -16t43 -17.5q49 -20 86 -39.5t77.5 -51t67 -67t43.5 -87t17 -112.5q0 -213 -157.5 -342t-408.5 -129q-157 0 -295 50t-212 108z
M606 1534l377 319q48 -30 80.5 -70.5t32.5 -80.5t-24.5 -68t-84.5 -59q-86 -46 -319 -139z" />
    <glyph glyph-name="sacute" unicode="&#x15b;" horiz-adv-x="913" 
d="M53 90l127 232q60 -40 143.5 -72.5t149.5 -32.5q52 0 81.5 21t29.5 61q0 9 -3 17.5t-10 16.5t-13 14t-19 13t-21.5 11.5t-25 11.5t-25.5 10.5t-28 10.5t-27 10q-40 15 -68 28t-64 38t-58 54.5t-38 75.5t-16 103q0 174 124.5 270t321.5 96q119 0 228.5 -48.5t173.5 -121.5
l-174 -178q-120 105 -224 105q-51 0 -78.5 -22t-27.5 -56q0 -32 22.5 -56t49 -37t93.5 -39q16 -7 25 -10q48 -19 83 -39t71 -53t55 -81.5t19 -110.5q0 -174 -127 -269.5t-340 -95.5q-133 0 -244.5 39.5t-165.5 83.5zM500 1237l303 399q160 -47 160 -143q0 -31 -20 -59.5
t-71 -69.5q-97 -81 -292 -209z" />
    <glyph glyph-name="Scircumflex" unicode="&#x15c;" horiz-adv-x="1114" 
d="M66 129l163 279q70 -49 174.5 -90.5t184.5 -41.5q73 0 118.5 30.5t45.5 96.5q0 17 -6 32t-14 26.5t-25 24t-29 20t-37.5 19t-39.5 16.5t-45 17t-44 17q-47 18 -83 36.5t-74.5 49t-64 67t-41.5 89.5t-16 117q0 216 146.5 333t390.5 117q148 0 281 -62.5t211 -152.5
l-209 -217q-165 140 -299 140q-65 0 -104.5 -27t-39.5 -80q0 -15 3 -28t7 -23.5t14 -21.5t16.5 -18t23 -17t25.5 -15t32 -15t34 -14.5t40 -16t43 -17.5q49 -20 86 -39.5t77.5 -51t67 -67t43.5 -87t17 -112.5q0 -213 -157.5 -342t-408.5 -129q-157 0 -295 50t-212 108z
M596 1434l-100 94q120 120 260 239q45 38 72.5 53t64.5 15q27 0 50.5 -16.5t57.5 -51.5q75 -78 185 -239l-109 -92l-213 176z" />
    <glyph glyph-name="scircumflex" unicode="&#x15d;" horiz-adv-x="913" 
d="M53 90l127 232q60 -40 143.5 -72.5t149.5 -32.5q52 0 81.5 21t29.5 61q0 9 -3 17.5t-10 16.5t-13 14t-19 13t-21.5 11.5t-25 11.5t-25.5 10.5t-28 10.5t-27 10q-40 15 -68 28t-64 38t-58 54.5t-38 75.5t-16 103q0 174 124.5 270t321.5 96q119 0 228.5 -48.5t173.5 -121.5
l-174 -178q-120 105 -224 105q-51 0 -78.5 -22t-27.5 -56q0 -32 22.5 -56t49 -37t93.5 -39q16 -7 25 -10q48 -19 83 -39t71 -53t55 -81.5t19 -110.5q0 -174 -127 -269.5t-340 -95.5q-133 0 -244.5 39.5t-165.5 83.5zM428 1163l-104 88q127 155 276 297q55 49 82 64.5
t68 15.5q44 0 65 -15.5t57 -64.5q89 -129 177 -297l-113 -86l-219 217z" />
    <glyph glyph-name="Scedilla" unicode="&#x15e;" horiz-adv-x="1114" 
d="M53 129l164 279q69 -48 177 -90t188 -42q72 0 117.5 30.5t45.5 96.5q0 15 -3.5 28.5t-12.5 25.5t-16.5 21t-25 19.5l-27.5 16.5t-34 16t-35 14.5t-39.5 15.5t-39.5 15q-59 23 -102.5 48.5t-85.5 67t-64 103t-22 140.5q0 216 147.5 333t392.5 117q148 0 279 -62.5
t209 -152.5l-209 -217q-164 140 -299 140q-65 0 -104.5 -27t-39.5 -80q0 -21 4.5 -38t17 -31.5t23.5 -24.5t36 -23t41.5 -20.5t53 -23t58.5 -25.5q48 -21 83 -40t75.5 -51t66 -67t43 -86.5t17.5 -112.5q0 -199 -138.5 -325.5t-365.5 -143.5l-43 -92q80 -6 127 -50t47 -118
q0 -52 -19.5 -92.5t-49.5 -64.5t-71.5 -39.5t-80 -21t-80.5 -5.5q-119 0 -207 41l63 137q76 -28 140 -28q108 0 108 67q0 68 -176 64l100 204q-136 12 -255 58.5t-179 95.5z" />
    <glyph glyph-name="scedilla" unicode="&#x15f;" horiz-adv-x="913" 
d="M53 90l127 232q60 -40 143.5 -72.5t149.5 -32.5q52 0 81.5 21t29.5 61q0 9 -3 17.5t-10 16.5t-13 14t-19 13t-21.5 11.5t-25 11.5t-25.5 10.5t-28 10.5t-27 10q-40 15 -68 28t-64 38t-58 54.5t-38 75.5t-16 103q0 174 124.5 270t321.5 96q119 0 228.5 -48.5t173.5 -121.5
l-174 -178q-120 105 -224 105q-51 0 -78.5 -22t-27.5 -56q0 -32 22.5 -56t49 -37t93.5 -39q16 -7 25 -10q48 -19 83 -39t71 -53t55 -81.5t19 -110.5q0 -152 -99 -245t-270 -114l-43 -92q80 -6 127 -50t47 -118q0 -52 -19.5 -92.5t-49.5 -64.5t-71.5 -39.5t-80 -21
t-80.5 -5.5q-119 0 -207 41l64 137q76 -28 139 -28q109 0 109 67q0 68 -177 64l99 198q-119 7 -217.5 44t-147.5 77z" />
    <glyph glyph-name="Scaron" unicode="&#x160;" horiz-adv-x="1114" 
d="M66 129l163 279q70 -49 174.5 -90.5t184.5 -41.5q73 0 118.5 30.5t45.5 96.5q0 17 -6 32t-14 26.5t-25 24t-29 20t-37.5 19t-39.5 16.5t-45 17t-44 17q-47 18 -83 36.5t-74.5 49t-64 67t-41.5 89.5t-16 117q0 216 146.5 333t390.5 117q148 0 281 -62.5t211 -152.5
l-209 -217q-165 140 -299 140q-65 0 -104.5 -27t-39.5 -80q0 -15 3 -28t7 -23.5t14 -21.5t16.5 -18t23 -17t25.5 -15t32 -15t34 -14.5t40 -16t43 -17.5q49 -20 86 -39.5t77.5 -51t67 -67t43.5 -87t17 -112.5q0 -213 -157.5 -342t-408.5 -129q-157 0 -295 50t-212 108z
M649 1835l207 -180l270 182l99 -98q-116 -119 -250 -230q-89 -77 -150 -77q-60 0 -125 79q-80 99 -165 228z" />
    <glyph glyph-name="scaron" unicode="&#x161;" horiz-adv-x="913" 
d="M53 90l127 232q60 -40 143.5 -72.5t149.5 -32.5q52 0 81.5 21t29.5 61q0 9 -3 17.5t-10 16.5t-13 14t-19 13t-21.5 11.5t-25 11.5t-25.5 10.5t-28 10.5t-27 10q-40 15 -68 28t-64 38t-58 54.5t-38 75.5t-16 103q0 174 124.5 270t321.5 96q119 0 228.5 -48.5t173.5 -121.5
l-174 -178q-120 105 -224 105q-51 0 -78.5 -22t-27.5 -56q0 -32 22.5 -56t49 -37t93.5 -39q16 -7 25 -10q48 -19 83 -39t71 -53t55 -81.5t19 -110.5q0 -174 -127 -269.5t-340 -95.5q-133 0 -244.5 39.5t-165.5 83.5zM995 1628l105 -88q-162 -188 -279 -297q-51 -48 -79 -64
t-70 -16q-44 0 -65.5 15.5t-57.5 64.5q-102 152 -178 297l118 86l218 -215z" />
    <glyph glyph-name="uni0162" unicode="&#x162;" horiz-adv-x="1153" 
d="M270 1362h1092l-55 -307h-375l-187 -1055h-135l-55 -119q80 -6 127 -50t47 -118q0 -52 -19.5 -92.5t-49.5 -64.5t-71.5 -39.5t-80 -21t-80.5 -5.5q-119 0 -207 41l64 137q76 -28 139 -28q108 0 108 67q0 68 -176 64l113 229h-74l185 1055h-363z" />
    <glyph glyph-name="uni0163" unicode="&#x163;" horiz-adv-x="763" 
d="M358 1423h344l-67 -374h256l-45 -269h-258l-74 -407q-4 -40 -4 -64q1 -50 27.5 -67t74.5 -17q52 0 117 37l45 -219q-52 -29 -128.5 -50t-151.5 -24l-41 -88q80 -6 127 -50t47 -118q0 -52 -19.5 -92.5t-49.5 -64.5t-71.5 -39.5t-80 -21t-80.5 -5.5q-119 0 -207 41l63 137
q76 -28 140 -28q108 0 108 67q0 68 -176 64l102 206q-110 20 -154 83t-46 157q0 55 18 154z" />
    <glyph glyph-name="Tcaron" unicode="&#x164;" horiz-adv-x="1153" 
d="M270 1362h1092l-55 -307h-375l-187 -1055h-350l185 1055h-363zM649 1835l207 -180l270 182l99 -98q-116 -119 -250 -230q-89 -77 -150 -77q-60 0 -125 79q-80 99 -165 228z" />
    <glyph glyph-name="tcaron" unicode="&#x165;" horiz-adv-x="763" 
d="M358 1423h344l-67 -374h256l-45 -269h-258l-74 -407q-4 -40 -4 -64q1 -50 27.5 -67t74.5 -17q52 0 117 37l45 -219q-56 -32 -142.5 -54t-168.5 -22q-89 0 -151 20t-94.5 56.5t-46.5 78.5t-15 95q0 55 18 154zM770 1178l80 456q83 17 125 17q106 0 106 -82q0 -55 -61 -180
q-57 -123 -129 -236z" />
    <glyph glyph-name="Tbar" unicode="&#x166;" horiz-adv-x="1153" 
d="M272 1362h1090l-55 -307h-375l-66 -371h201l-37 -211h-201l-84 -473h-350l84 473h-198l36 211h199l64 371h-361z" />
    <glyph glyph-name="tbar" unicode="&#x167;" horiz-adv-x="763" 
d="M358 1423h344l-67 -376h256l-45 -265h-258l-23 -116h256l-45 -252h-256l-6 -41q-4 -40 -4 -64q1 -50 27.5 -67t74.5 -17q52 0 117 37l45 -219q-56 -32 -142.5 -54t-168.5 -22q-89 0 -151 20t-94.5 56.5t-46.5 78.5t-15 95q0 55 18 154z" />
    <glyph glyph-name="Utilde" unicode="&#x168;" horiz-adv-x="1288" 
d="M344 1362h350l-157 -893q-7 -35 -7 -57q0 -144 166 -144q93 0 146.5 46.5t70.5 144.5l160 903h350l-166 -942q-80 -449 -587 -449q-494 0 -494 369q0 56 12 121zM614 1487l9 188q97 64 188 64q58 0 146 -26.5t135 -26.5q69 0 139 36l-14 -200q-76 -39 -152 -39
q-47 0 -145.5 23.5t-139.5 23.5q-84 0 -166 -43z" />
    <glyph glyph-name="utilde" unicode="&#x169;" horiz-adv-x="1116" 
d="M852 1049h342l-147 -850l-15 -199h-287v100l-12 2q-119 -129 -287 -129q-292 0 -292 267q0 46 10 108l123 701h342l-117 -660q-8 -58 -8 -78q0 -39 18 -59.5t64 -20.5q54 0 96.5 40.5t52.5 103.5zM500 1253l10 191q95 63 190 63q57 0 144.5 -27.5t134.5 -27.5
q63 0 139 39l-16 -201q-74 -41 -152 -41q-48 0 -145.5 24.5t-138.5 24.5q-80 0 -166 -45z" />
    <glyph glyph-name="Umacron" unicode="&#x16a;" horiz-adv-x="1288" 
d="M344 1362h350l-157 -893q-7 -35 -7 -57q0 -144 166 -144q93 0 146.5 46.5t70.5 144.5l160 903h350l-166 -942q-80 -449 -587 -449q-494 0 -494 369q0 56 12 121zM584 1485l41 231h651l-41 -231h-651z" />
    <glyph glyph-name="umacron" unicode="&#x16b;" horiz-adv-x="1116" 
d="M852 1049h342l-147 -850l-15 -199h-287v100l-12 2q-119 -129 -287 -129q-292 0 -292 267q0 46 10 108l123 701h342l-117 -660q-8 -58 -8 -78q0 -39 18 -59.5t64 -20.5q54 0 96.5 40.5t52.5 103.5zM455 1266l41 231h649l-41 -231h-649z" />
    <glyph glyph-name="Ubreve" unicode="&#x16c;" horiz-adv-x="1288" 
d="M344 1362h350l-157 -893q-7 -35 -7 -57q0 -144 166 -144q93 0 146.5 46.5t70.5 144.5l160 903h350l-166 -942q-80 -449 -587 -449q-494 0 -494 369q0 56 12 121zM1149 1835l178 -84q-53 -123 -156 -200.5t-262 -77.5q-83 0 -148 26t-103 68.5t-58.5 87.5t-26.5 92l195 80
q20 -76 60.5 -114t113.5 -38q70 0 116.5 37.5t90.5 122.5z" />
    <glyph glyph-name="ubreve" unicode="&#x16d;" horiz-adv-x="1116" 
d="M852 1049h342l-147 -850l-15 -199h-287v100l-12 2q-119 -129 -287 -129q-292 0 -292 267q0 46 10 108l123 701h342l-117 -660q-8 -58 -8 -78q0 -39 18 -59.5t64 -20.5q54 0 96.5 40.5t52.5 103.5zM1012 1579l184 -47q-55 -155 -153.5 -235t-258.5 -80q-84 0 -147 27.5
t-99.5 74.5t-55.5 100t-23 113l182 47q18 -88 58.5 -125t113.5 -37q65 0 110.5 36t88.5 126z" />
    <glyph glyph-name="Uring" unicode="&#x16e;" horiz-adv-x="1288" 
d="M344 1362h350l-157 -893q-7 -35 -7 -57q0 -144 166 -144q93 0 146.5 46.5t70.5 144.5l160 903h350l-166 -942q-80 -449 -587 -449q-494 0 -494 369q0 56 12 121zM705 1595q0 108 65 175t172 67q87 0 131.5 -46.5t44.5 -117.5q0 -106 -66.5 -173.5t-168.5 -67.5
q-87 0 -132.5 46t-45.5 117zM922 1710q-36 0 -57 -25t-21 -67q0 -27 16 -43t43 -16q34 0 55 27.5t21 64.5q0 59 -57 59z" />
    <glyph glyph-name="uring" unicode="&#x16f;" horiz-adv-x="1116" 
d="M852 1049h342l-147 -850l-15 -199h-287v100l-12 2q-119 -129 -287 -129q-292 0 -292 267q0 46 10 108l123 701h342l-117 -660q-8 -58 -8 -78q0 -39 18 -59.5t64 -20.5q54 0 96.5 40.5t52.5 103.5zM592 1303q0 101 63 161t170 60q89 0 135 -43.5t46 -116.5
q0 -101 -62 -162t-164 -61q-89 0 -138.5 43.5t-49.5 118.5zM809 1399q-35 0 -54.5 -21t-19.5 -55q0 -26 15.5 -40.5t42.5 -14.5q33 0 51 21.5t18 56.5q0 53 -53 53z" />
    <glyph glyph-name="Uhungarumlaut" unicode="&#x170;" horiz-adv-x="1288" 
d="M344 1362h350l-157 -893q-7 -35 -7 -57q0 -144 166 -144q93 0 146.5 46.5t70.5 144.5l160 903h350l-166 -942q-80 -449 -587 -449q-494 0 -494 369q0 56 12 121zM938 1534l377 319q48 -30 80 -70.5t32 -80.5t-24 -68t-84 -59q-83 -45 -320 -139zM471 1534l377 319
q48 -30 80.5 -70.5t32.5 -80.5t-24.5 -68t-84.5 -59q-83 -45 -320 -139z" />
    <glyph glyph-name="uhungarumlaut" unicode="&#x171;" horiz-adv-x="1116" 
d="M852 1049h342l-147 -850l-15 -199h-287v100l-12 2q-119 -129 -287 -129q-292 0 -292 267q0 46 10 108l123 701h342l-117 -660q-8 -58 -8 -78q0 -39 18 -59.5t64 -20.5q54 0 96.5 40.5t52.5 103.5zM432 1231l301 397q61 -18 105.5 -51.5t44.5 -81.5q0 -32 -20 -61t-72 -72
q-113 -96 -283 -207zM829 1231l310 397q58 -17 102.5 -51t44.5 -84q0 -31 -20.5 -59.5t-71.5 -71.5q-116 -101 -283 -207z" />
    <glyph glyph-name="Uogonek" unicode="&#x172;" horiz-adv-x="1288" 
d="M344 1362h350l-157 -893q-7 -35 -7 -57q0 -144 166 -144q93 0 146.5 46.5t70.5 144.5l160 903h350l-166 -942q-27 -153 -101 -249t-204 -163q-73 -38 -144 -123.5t-71 -142.5q0 -55 62 -55q44 0 102 22l29 -170q-85 -45 -217 -45q-110 0 -163.5 48.5t-53.5 123.5
q0 149 180 305h-6q-494 0 -494 369q0 56 12 121z" />
    <glyph glyph-name="uogonek" unicode="&#x173;" horiz-adv-x="1116" 
d="M852 1049h342l-147 -850l-15 -199q-77 -48 -139 -125t-62 -133q0 -55 62 -55q44 0 102 22l29 -170q-85 -45 -217 -45q-110 0 -163.5 48.5t-53.5 123.5q0 164 215 334h-60v100l-12 2q-119 -129 -287 -129q-292 0 -292 267q0 46 10 108l123 701h342l-117 -660
q-8 -58 -8 -78q0 -39 18 -59.5t64 -20.5q54 0 96.5 40.5t52.5 103.5z" />
    <glyph glyph-name="Wcircumflex" unicode="&#x174;" horiz-adv-x="1679" 
d="M1024 0l-33 735h-12l-299 -735h-375l-49 1362h340l6 -875h6l293 773h352l13 -744h8l276 846h351l-510 -1362h-367zM872 1434l-100 94q120 120 260 239q45 38 72.5 53t64.5 15q27 0 51.5 -16.5t57.5 -51.5q72 -74 184 -239l-108 -92l-213 176z" />
    <glyph glyph-name="wcircumflex" unicode="&#x175;" horiz-adv-x="1595" 
d="M1313 1047h336q10 -85 10 -226q0 -410 -145.5 -629t-432.5 -219q-209 0 -270 142q-136 -142 -342 -142q-153 0 -233.5 66.5t-81.5 200.5q0 39 10 104l123 703h342l-119 -678q-8 -46 -8 -64q0 -72 69 -72q51 0 86.5 37t44.5 95l121 682h340l-121 -670q-8 -46 -8 -74
q0 -34 14.5 -52t51.5 -18q68 0 118 79.5t75.5 212t25.5 298.5q0 147 -6 224zM762 1163l-105 88q123 150 277 297q55 49 81.5 64.5t67.5 15.5q44 0 65.5 -15.5t57.5 -64.5q84 -123 176 -297l-112 -86l-219 217z" />
    <glyph glyph-name="Ycircumflex" unicode="&#x176;" horiz-adv-x="1216" 
d="M1473 1362h-388l-340 -510h-6l-147 510h-363l291 -840l-92 -522h352l90 524zM633 1434l-101 94q114 114 261 239q45 38 72.5 53t64.5 15q27 0 50.5 -16.5t57.5 -51.5q75 -78 185 -239l-109 -92l-213 176z" />
    <glyph glyph-name="ycircumflex" unicode="&#x177;" horiz-adv-x="1105" 
d="M1196 1047l-145 -818q-26 -140 -62 -284q-122 -490 -553 -490q-161 0 -246.5 69t-85.5 189q0 109 63.5 199t207.5 174q-106 20 -156.5 78t-50.5 158q0 46 8 90l111 635h342l-109 -619q-8 -50 -8 -70q0 -40 19.5 -61t68.5 -21q51 0 90 38t51 102l111 631h344zM416 -219
q0 -80 82 -80q66 0 102.5 48.5t56.5 148.5l37 206q-18 -15 -131 -94q-147 -107 -147 -229zM524 1163l-104 88q127 155 276 297q55 49 82 64.5t68 15.5q44 0 65.5 -15.5t57.5 -64.5q84 -123 176 -297l-113 -86l-219 217z" />
    <glyph glyph-name="Ydieresis" unicode="&#x178;" horiz-adv-x="1216" 
d="M1473 1362h-388l-340 -510h-6l-147 510h-363l291 -840l-92 -522h352l90 524zM946 1583q0 70 53.5 120t133.5 50q62 0 97.5 -35t35.5 -90q0 -70 -54 -120t-133 -50q-62 0 -97.5 35t-35.5 90zM500 1583q0 70 53 120t133 50q62 0 97.5 -35t35.5 -90q0 -70 -53.5 -120
t-132.5 -50q-62 0 -97.5 35t-35.5 90z" />
    <glyph glyph-name="Zacute" unicode="&#x179;" horiz-adv-x="1075" 
d="M1221 1159l-705 -889h569l-47 -270h-993l39 217l694 877h-530l47 268h962zM604 1534l377 319q48 -30 80.5 -70.5t32.5 -80.5t-24.5 -68t-84.5 -59q-86 -46 -319 -139z" />
    <glyph glyph-name="zacute" unicode="&#x17a;" horiz-adv-x="890" 
d="M272 -188q0 -48 23.5 -75.5t71.5 -27.5q83 0 133.5 76t50.5 180q0 93 -47 129q-108 -51 -170 -127t-62 -155zM1053 1049l-33 -191l-488 -414l103 -47q244 -115 244 -395q0 -169 -75.5 -294.5t-200.5 -188t-281 -62.5q-180 0 -270.5 75.5t-90.5 217.5q0 151 93 268
t288 207q-61 39 -166 80l31 176l366 303h-401l47 265h834zM516 1237l303 399q160 -47 160 -143q0 -31 -19.5 -59.5t-70.5 -69.5q-93 -78 -293 -209z" />
    <glyph glyph-name="Zdotaccent" unicode="&#x17b;" horiz-adv-x="1075" 
d="M1221 1159l-705 -889h569l-47 -270h-993l39 217l694 877h-530l47 268h962zM629 1616q0 81 61 140t152 59q71 0 113 -42t42 -106q0 -82 -62 -138t-151 -56q-73 0 -114 39t-41 104z" />
    <glyph glyph-name="zdotaccent" unicode="&#x17c;" horiz-adv-x="890" 
d="M272 -188q0 79 62 155t170 127q47 -36 47 -129q0 -104 -50.5 -180t-133.5 -76q-48 0 -71.5 27.5t-23.5 75.5zM1020 858l33 191h-834l-47 -265h401l-366 -303l-31 -176q105 -41 166 -80q-195 -90 -288 -207t-93 -268q0 -142 90.5 -217.5t270.5 -75.5q156 0 281 62.5
t200.5 188t75.5 294.5q0 280 -244 395l-103 47zM496 1319q0 81 61 140t152 59q70 0 112.5 -42t42.5 -104q0 -82 -62 -138t-153 -56q-72 0 -112.5 39t-40.5 102z" />
    <glyph glyph-name="Zcaron" unicode="&#x17d;" horiz-adv-x="1075" 
d="M1221 1159l-705 -889h569l-47 -270h-993l39 217l694 877h-530l47 268h962zM596 1835l207 -180l270 182l98 -98q-121 -123 -249 -230q-89 -77 -150 -77q-60 0 -125 79q-85 106 -166 228z" />
    <glyph glyph-name="zcaron" unicode="&#x17e;" horiz-adv-x="890" 
d="M272 -188q0 79 62 155t170 127q47 -36 47 -129q0 -104 -50.5 -180t-133.5 -76q-48 0 -71.5 27.5t-23.5 75.5zM1020 858l33 191h-834l-47 -265h401l-366 -303l-31 -176q105 -41 166 -80q-195 -90 -288 -207t-93 -268q0 -142 90.5 -217.5t270.5 -75.5q156 0 281 62.5
t200.5 188t75.5 294.5q0 280 -244 395l-103 47zM979 1628l104 -88q-166 -192 -278 -297q-51 -47 -79.5 -63.5t-70.5 -16.5q-44 0 -65.5 15.5t-57.5 64.5q-102 152 -178 297l119 86l217 -215z" />
    <glyph glyph-name="longs" unicode="&#x17f;" horiz-adv-x="733" 
d="M649 1137l-274 -1567h-342l270 1532q11 61 23.5 106t33.5 94.5t52 84t74.5 63t106 43t140.5 14.5q90 0 181.5 -25t150.5 -63l-113 -217q-43 25 -92 39t-84 14q-54 0 -84 -26t-43 -92z" />
    <glyph glyph-name="florin" unicode="&#x192;" horiz-adv-x="1202" 
d="M229 528l90 269h240l53 168q24 73 46 123t59.5 103t83.5 84t116 51t160 20q92 0 185 -30t153 -71l-133 -198q-69 43 -158 43q-125 0 -176 -146l-51 -147h285l-95 -269h-282l-180 -553q-26 -81 -53 -139.5t-66 -111t-87 -85t-114.5 -51t-150.5 -18.5q-214 0 -336 88
l123 219q30 -21 78.5 -36t91.5 -15q64 0 104 30.5t64 104.5l184 567h-234z" />
    <glyph glyph-name="Scommaaccent" unicode="&#x218;" horiz-adv-x="1114" 
d="M66 129l163 279q70 -49 174.5 -90.5t184.5 -41.5q73 0 118.5 30.5t45.5 96.5q0 17 -6 32t-14 26.5t-25 24t-29 20t-37.5 19t-39.5 16.5t-45 17t-44 17q-47 18 -83 36.5t-74.5 49t-64 67t-41.5 89.5t-16 117q0 216 146.5 333t390.5 117q148 0 281 -62.5t211 -152.5
l-209 -217q-165 140 -299 140q-65 0 -104.5 -27t-39.5 -80q0 -15 3 -28t7 -23.5t14 -21.5t16.5 -18t23 -17t25.5 -15t32 -15t34 -14.5t40 -16t43 -17.5q49 -20 86 -39.5t77.5 -51t67 -67t43.5 -87t17 -112.5q0 -213 -157.5 -342t-408.5 -129q-157 0 -295 50t-212 108z
M432 -104l-201 -431l107 -57q13 14 51.5 54.5t62.5 67t58.5 66.5t60.5 74q62 82 62 129q0 30 -19 50.5t-53 29.5t-62.5 12.5t-66.5 4.5z" />
    <glyph glyph-name="scommaaccent" unicode="&#x219;" horiz-adv-x="913" 
d="M53 90l127 232q60 -40 143.5 -72.5t149.5 -32.5q52 0 81.5 21t29.5 61q0 9 -3 17.5t-10 16.5t-13 14t-19 13t-21.5 11.5t-25 11.5t-25.5 10.5t-28 10.5t-27 10q-40 15 -68 28t-64 38t-58 54.5t-38 75.5t-16 103q0 174 124.5 270t321.5 96q119 0 228.5 -48.5t173.5 -121.5
l-174 -178q-120 105 -224 105q-51 0 -78.5 -22t-27.5 -56q0 -32 22.5 -56t49 -37t93.5 -39q16 -7 25 -10q48 -19 83 -39t71 -53t55 -81.5t19 -110.5q0 -174 -127 -269.5t-340 -95.5q-133 0 -244.5 39.5t-165.5 83.5zM336 -104l-201 -431l107 -57q13 14 51.5 54.5t62.5 67
t58.5 66.5t60.5 74q62 82 62 129q0 30 -19 50.5t-53 29.5t-62.5 12.5t-66.5 4.5z" />
    <glyph glyph-name="uni021A" unicode="&#x21a;" horiz-adv-x="1153" 
d="M270 1362h1092l-55 -307h-375l-187 -1055h-350l185 1055h-363zM444 -104l-200 -431l106 -57q14 15 51.5 54.5t62.5 66.5t59.5 67t60.5 74q61 81 61 129q0 30 -19 50.5t-53 29.5t-62.5 12.5t-66.5 4.5z" />
    <glyph glyph-name="uni021B" unicode="&#x21b;" horiz-adv-x="763" 
d="M358 1423h344l-67 -374h256l-45 -269h-258l-74 -407q-4 -40 -4 -64q1 -50 27.5 -67t74.5 -17q52 0 117 37l45 -219q-56 -32 -142.5 -54t-168.5 -22q-89 0 -151 20t-94.5 56.5t-46.5 78.5t-15 95q0 55 18 154zM285 -104l-201 -431l106 -57q14 15 51.5 54.5t62.5 66.5
t59.5 67t60.5 74q61 81 61 129q0 30 -18.5 50.5t-52.5 29.5t-62.5 12.5t-66.5 4.5z" />
    <glyph glyph-name="dotlessj" unicode="&#x237;" horiz-adv-x="544" 
d="M104 -29l191 1078h340l-195 -1098q-9 -54 -17.5 -90.5t-23.5 -83.5t-34 -77.5t-49 -63.5t-68.5 -52t-92.5 -31t-120 -12q-80 0 -167.5 22t-143.5 58l122 238q70 -39 129 -39q57 0 85.5 33t43.5 118z" />
    <glyph glyph-name="apostrophe" unicode="&#x2bc;" horiz-adv-x="516" 
d="M332 1018l149 455q41 6 82 6q113 0 113 -80q0 -51 -64 -160q-56 -96 -176 -256z" />
    <glyph glyph-name="circumflex" unicode="&#x2c6;" horiz-adv-x="1024" 
d="M473 1163l-104 88q127 155 276 297q55 49 82 64.5t68 15.5q44 0 65.5 -15.5t57.5 -64.5q84 -123 176 -297l-113 -86l-219 217z" />
    <glyph glyph-name="caron" unicode="&#x2c7;" horiz-adv-x="1024" 
d="M1038 1628l105 -88q-162 -188 -279 -297q-51 -48 -79 -64t-70 -16q-44 0 -65.5 15.5t-57.5 64.5q-102 152 -178 297l118 86l218 -215z" />
    <glyph glyph-name="uni02C9" unicode="&#x2c9;" horiz-adv-x="1024" 
d="M406 1266l40 231h650l-41 -231h-649z" />
    <glyph glyph-name="breve" unicode="&#x2d8;" horiz-adv-x="1024" 
d="M963 1579l184 -47q-55 -155 -153.5 -235t-258.5 -80q-84 0 -147 27.5t-99.5 74.5t-55.5 100t-23 113l182 47q18 -88 58.5 -125t113.5 -37q65 0 110.5 36t88.5 126z" />
    <glyph glyph-name="dotaccent" unicode="&#x2d9;" horiz-adv-x="1024" 
d="M567 1319q0 81 61 140t152 59q70 0 113 -42t43 -104q0 -82 -62 -138t-153 -56q-72 0 -113 39t-41 102z" />
    <glyph glyph-name="ring" unicode="&#x2da;" horiz-adv-x="1024" 
d="M539 1303q0 101 63 161t170 60q89 0 134.5 -43.5t45.5 -116.5q0 -101 -62 -162t-163 -61q-89 0 -138.5 43.5t-49.5 118.5zM756 1399q-35 0 -54.5 -21t-19.5 -55q0 -26 15.5 -40.5t41.5 -14.5q33 0 51.5 21.5t18.5 56.5q0 53 -53 53z" />
    <glyph glyph-name="ogonek" unicode="&#x2db;" horiz-adv-x="1024" 
d="M446 4l211 -2q-70 -50 -130 -127.5t-60 -132.5t61 -55q45 0 103 22l28 -170q-85 -45 -217 -45q-110 0 -163.5 48.5t-53.5 123.5q0 164 221 338z" />
    <glyph glyph-name="tilde" unicode="&#x2dc;" horiz-adv-x="1024" 
d="M442 1253l11 191q95 63 190 63q57 0 144.5 -27.5t134.5 -27.5q63 0 139 39l-17 -201q-74 -41 -151 -41q-48 0 -146 24.5t-139 24.5q-80 0 -166 -45z" />
    <glyph glyph-name="hungarumlaut" unicode="&#x2dd;" horiz-adv-x="1024" 
d="M299 1231l301 397q61 -18 105.5 -51.5t44.5 -81.5q0 -32 -20.5 -60.5t-72.5 -72.5q-117 -99 -282 -207zM696 1231l310 397q58 -17 102.5 -51t44.5 -84q0 -31 -20.5 -59.5t-71.5 -71.5q-116 -101 -283 -207z" />
    <glyph glyph-name="uni0394" unicode="&#x394;" horiz-adv-x="1380" 
d="M1366 0h-1352l744 1346h344zM995 260l-121 719h-12l-368 -719h501z" />
    <glyph glyph-name="uni03A9" unicode="&#x3a9;" horiz-adv-x="1572" 
d="M584 600q0 -119 43 -215.5t114 -148.5l-41 -236h-620l55 305h271q-68 63 -117 172.5t-49 212.5q0 197 95 347.5t265 231.5t389 81q297 0 457 -132.5t160 -369.5q0 -321 -318 -543h258l-53 -305h-594l41 236q47 34 81 63t76.5 77.5t69 99.5t45.5 123.5t19 154.5
q0 142 -73 222.5t-206 80.5q-57 0 -108.5 -14t-99.5 -47.5t-83 -84t-56 -130.5t-21 -181z" />
    <glyph glyph-name="uni03BC" unicode="&#x3bc;" horiz-adv-x="1185" 
d="M1239 1049l-137 -787q-6 -34 3 -49.5t36 -15.5q24 0 59 14l2 -191q-103 -47 -207 -47q-72 0 -117.5 33.5t-56.5 91.5q-44 -63 -95.5 -92t-129.5 -29q-43 0 -90 19t-68 55l-88 -493h-299l262 1491h316l-115 -656q-32 -186 109 -186q68 0 117.5 52.5t70.5 168.5l109 621
h319z" />
    <glyph glyph-name="pi" unicode="&#x3c0;" horiz-adv-x="1304" 
d="M1378 778h-147l-86 -479q-9 -51 -1 -71.5t40 -20.5q22 0 76 12l8 -194q-103 -50 -246 -50q-251 0 -207 254l98 549h-223l-137 -778h-317l139 778h-150l45 271h1155z" />
    <glyph glyph-name="Wgrave" unicode="&#x1e80;" horiz-adv-x="1679" 
d="M1024 0l-33 735h-12l-299 -735h-375l-49 1362h340l6 -875h6l293 773h352l13 -744h8l276 846h351l-510 -1362h-367zM1008 1862l319 -334l-86 -94q-2 1 -62 30t-86 42t-71.5 37.5t-75.5 43.5q-78 50 -78 107q0 50 37.5 89.5t102.5 78.5z" />
    <glyph glyph-name="wgrave" unicode="&#x1e81;" horiz-adv-x="1595" 
d="M1313 1047h336q10 -85 10 -226q0 -410 -145.5 -629t-432.5 -219q-209 0 -270 142q-136 -142 -342 -142q-153 0 -233.5 66.5t-81.5 200.5q0 39 10 104l123 703h342l-119 -678q-8 -46 -8 -64q0 -72 69 -72q51 0 86.5 37t44.5 95l121 682h340l-121 -670q-8 -46 -8 -74
q0 -34 14.5 -52t51.5 -18q68 0 118 79.5t75.5 212t25.5 298.5q0 147 -6 224zM997 1651l213 -422l-108 -74q-163 141 -238 227q-47 62 -47 107q0 35 16.5 63t47 47t56 30t60.5 22z" />
    <glyph glyph-name="Wacute" unicode="&#x1e82;" horiz-adv-x="1679" 
d="M1024 0l-33 735h-12l-299 -735h-375l-49 1362h340l6 -875h6l293 773h352l13 -744h8l276 846h351l-510 -1362h-367zM893 1534l377 319q48 -30 80 -70.5t32 -80.5t-24 -68t-84 -59q-83 -45 -320 -139z" />
    <glyph glyph-name="wacute" unicode="&#x1e83;" horiz-adv-x="1595" 
d="M1313 1047h336q10 -85 10 -226q0 -410 -145.5 -629t-432.5 -219q-209 0 -270 142q-136 -142 -342 -142q-153 0 -233.5 66.5t-81.5 200.5q0 39 10 104l123 703h342l-119 -678q-8 -46 -8 -64q0 -72 69 -72q51 0 86.5 37t44.5 95l121 682h340l-121 -670q-8 -46 -8 -74
q0 -34 14.5 -52t51.5 -18q68 0 118 79.5t75.5 212t25.5 298.5q0 147 -6 224zM811 1237l303 399q160 -47 160 -143q0 -31 -19.5 -59.5t-70.5 -69.5q-93 -78 -293 -209z" />
    <glyph glyph-name="Wdieresis" unicode="&#x1e84;" horiz-adv-x="1679" 
d="M1024 0l-33 735h-12l-299 -735h-375l-49 1362h340l6 -875h6l293 773h352l13 -744h8l276 846h351l-510 -1362h-367zM1180 1583q0 70 53 120t133 50q62 0 97.5 -35t35.5 -90q0 -70 -53.5 -120t-132.5 -50q-62 0 -97.5 35t-35.5 90zM733 1583q0 70 53.5 120t133.5 50
q62 0 97.5 -35t35.5 -90q0 -70 -54 -120t-133 -50q-62 0 -97.5 35t-35.5 90z" />
    <glyph glyph-name="wdieresis" unicode="&#x1e85;" horiz-adv-x="1595" 
d="M1313 1047h336q10 -85 10 -226q0 -410 -145.5 -629t-432.5 -219q-209 0 -270 142q-136 -142 -342 -142q-153 0 -233.5 66.5t-81.5 200.5q0 39 10 104l123 703h342l-119 -678q-8 -46 -8 -64q0 -72 69 -72q51 0 86.5 37t44.5 95l121 682h340l-121 -670q-8 -46 -8 -74
q0 -34 14.5 -52t51.5 -18q68 0 118 79.5t75.5 212t25.5 298.5q0 147 -6 224zM1106 1343q0 70 53 120t133 50q62 0 97.5 -34.5t35.5 -89.5q0 -70 -53.5 -120t-132.5 -50q-62 0 -97.5 34.5t-35.5 89.5zM659 1343q0 70 53.5 120t133.5 50q62 0 97.5 -34.5t35.5 -89.5
q0 -70 -53.5 -120t-132.5 -50q-62 0 -98 34.5t-36 89.5z" />
    <glyph glyph-name="Ygrave" unicode="&#x1ef2;" horiz-adv-x="1216" 
d="M1473 1362h-388l-340 -510h-6l-147 510h-363l291 -840l-92 -522h352l90 524zM754 1862l319 -334l-86 -94q-2 1 -62 30t-86 42t-71.5 37.5t-75.5 43.5q-78 50 -78 107q0 50 37.5 89.5t102.5 78.5z" />
    <glyph glyph-name="ygrave" unicode="&#x1ef3;" horiz-adv-x="1105" 
d="M1196 1047l-145 -818q-26 -140 -62 -284q-122 -490 -553 -490q-161 0 -246.5 69t-85.5 189q0 109 63.5 199t207.5 174q-106 20 -156.5 78t-50.5 158q0 46 8 90l111 635h342l-109 -619q-8 -50 -8 -70q0 -40 19.5 -61t68.5 -21q51 0 90 38t51 102l111 631h344zM416 -219
q0 -80 82 -80q66 0 102.5 48.5t56.5 148.5l37 206q-18 -15 -131 -94q-147 -107 -147 -229zM735 1651l213 -422l-108 -74q-163 141 -238 227q-47 62 -47 107q0 35 16.5 63t47 47t56 30t60.5 22z" />
    <glyph glyph-name="endash" unicode="&#x2013;" horiz-adv-x="1024" 
d="M80 455l39 219h1024l-39 -219h-1024z" />
    <glyph glyph-name="emdash" unicode="&#x2014;" horiz-adv-x="2048" 
d="M80 455l39 219h2048l-39 -219h-2048z" />
    <glyph glyph-name="quoteleft" unicode="&#x2018;" horiz-adv-x="501" 
d="M524 940q-66 -8 -106 -8q-67 2 -113.5 27t-46.5 83q0 80 93.5 213t207.5 258l164 -63z" />
    <glyph glyph-name="quoteright" unicode="&#x2019;" horiz-adv-x="501" 
d="M422 1487q42 10 121 10q71 -2 112 -24.5t41 -79.5q0 -41 -30 -105.5t-78.5 -135.5t-91.5 -127t-88 -110l-166 56z" />
    <glyph glyph-name="quotesinglbase" unicode="&#x201a;" horiz-adv-x="475" 
d="M463 147l-309 -483l-168 57q95 316 145 424q43 105 143 105q53 0 106.5 -34t82.5 -69z" />
    <glyph glyph-name="quotedblleft" unicode="&#x201c;" horiz-adv-x="921" 
d="M516 940q-66 -8 -106 -8q-67 2 -113.5 27t-46.5 83q0 80 93.5 213t207.5 258l164 -63zM926 940q-66 -8 -107 -8q-67 2 -113.5 27t-46.5 83q0 43 30.5 106t80.5 131.5t96 124t95 109.5l163 -63z" />
    <glyph glyph-name="quotedblright" unicode="&#x201d;" horiz-adv-x="927" 
d="M422 1487q42 10 121 10q71 -2 112 -24.5t41 -79.5q0 -41 -30 -105.5t-78.5 -135.5t-91.5 -127t-88 -110l-166 56zM831 1487q42 10 121 10q154 -4 154 -104q0 -54 -55.5 -152.5t-112.5 -173.5t-121 -152l-166 56z" />
    <glyph glyph-name="quotedblbase" unicode="&#x201e;" horiz-adv-x="876" 
d="M463 147l-309 -483l-168 57q95 316 145 424q43 105 143 105q53 0 106.5 -34t82.5 -69zM872 147l-309 -483l-168 57q94 309 146 424q43 105 143 105q53 0 106 -33.5t82 -69.5z" />
    <glyph glyph-name="dagger" unicode="&#x2020;" horiz-adv-x="995" 
d="M657 909q-73 -45 -110.5 -100.5t-52.5 -142.5l-129 -732q-14 -79 5 -159t64 -125q60 40 105.5 103.5t58.5 140.5l131 745q12 75 -3 148.5t-69 121.5zM672 995q-34 32 -58 94t-24 117q0 72 35 123t108 51q52 0 79.5 -30.5t27.5 -81.5q0 -146 -168 -273zM705 952
q70 55 142.5 85t129.5 30q55 0 87 -27.5t32 -85.5q0 -63 -41.5 -94t-108.5 -31q-66 0 -141 39t-100 84zM623 952q-52 -57 -125.5 -90t-126.5 -33q-62 0 -98.5 28.5t-36.5 78.5q0 63 43.5 97t117.5 34q59 0 122 -29t104 -86z" />
    <glyph glyph-name="daggerdbl" unicode="&#x2021;" horiz-adv-x="995" 
d="M500 4q34 -32 58 -94t24 -117q0 -72 -35.5 -123t-108.5 -51q-52 0 -79 30.5t-27 82.5q0 145 168 272zM467 47q-70 -55 -142.5 -85t-129.5 -30q-55 0 -87 27.5t-32 85.5q0 63 41 94t108 31q66 0 141.5 -39t100.5 -84zM549 47q52 57 125.5 90t126.5 33q62 0 98.5 -28.5
t36.5 -78.5q0 -63 -44 -97t-118 -34q-59 0 -121.5 29t-103.5 86zM657 909q-73 -45 -110.5 -100.5t-52.5 -142.5l-52 -291q-14 -79 5.5 -159.5t64.5 -125.5q60 40 105.5 103.5t58.5 140.5l53 305q12 75 -3 148.5t-69 121.5zM672 995q-34 32 -58 94t-24 117q0 72 35 123
t108 51q52 0 79.5 -30.5t27.5 -81.5q0 -146 -168 -273zM705 952q70 55 142.5 85t129.5 30q55 0 87 -27.5t32 -85.5q0 -63 -41.5 -94t-108.5 -31q-66 0 -141 39t-100 84zM623 952q-52 -57 -125.5 -90t-126.5 -33q-62 0 -98.5 28.5t-36.5 78.5q0 63 43.5 97t117.5 34
q59 0 122 -29t104 -86z" />
    <glyph glyph-name="bullet" unicode="&#x2022;" horiz-adv-x="1024" 
d="M356 594q0 142 93.5 236t224.5 94q100 0 160.5 -64t60.5 -168q0 -143 -92.5 -236.5t-222.5 -93.5q-102 0 -163 63.5t-61 168.5z" />
    <glyph glyph-name="ellipsis" unicode="&#x2026;" horiz-adv-x="1632" 
d="M670 98q0 81 55 137t143 56q70 0 108 -35.5t38 -95.5q0 -80 -53.5 -137.5t-143.5 -57.5q-73 0 -110 36.5t-37 96.5zM1245 98q0 80 55.5 136.5t143.5 56.5q70 0 107.5 -35.5t37.5 -95.5q0 -81 -53 -138t-143 -57q-73 0 -110.5 36.5t-37.5 96.5zM88 98q0 80 55.5 136.5
t143.5 56.5q70 0 107.5 -35.5t37.5 -95.5q0 -81 -53 -138t-143 -57q-73 0 -110.5 36.5t-37.5 96.5z" />
    <glyph glyph-name="perthousand" unicode="&#x2030;" horiz-adv-x="1986" 
d="M1784 600q107 0 176.5 -66.5t69.5 -185.5q0 -183 -97 -281t-252 -98q-116 0 -180.5 67t-64.5 185q0 184 98.5 281.5t249.5 97.5zM1702 113q49 0 85.5 57.5t37.5 181.5q0 101 -66 101q-48 0 -83.5 -59.5t-35.5 -184.5q0 -96 62 -96zM1141 600q107 0 176 -66.5t69 -185.5
q0 -183 -96.5 -281t-251.5 -98q-116 0 -180.5 67t-64.5 185q0 184 98.5 281.5t249.5 97.5zM1059 113q49 0 85.5 57.5t37.5 181.5q0 101 -66 101q-48 0 -83.5 -59.5t-35.5 -184.5q0 -96 62 -96zM553 1346q107 0 176.5 -66.5t69.5 -185.5q0 -183 -96.5 -281t-251.5 -98
q-116 0 -181 67t-65 185q0 184 98.5 281.5t249.5 97.5zM471 858q49 0 85.5 58t37.5 182q0 54 -16.5 77t-49.5 23q-48 0 -83 -59.5t-35 -184.5q0 -96 61 -96zM324 190l-113 177l1036 753l117 -176z" />
    <glyph glyph-name="guilsinglleft" unicode="&#x2039;" horiz-adv-x="710" 
d="M801 825l-297 -303l162 -317l-142 -107q-86 71 -189.5 187t-131.5 188q-13 23 -13 55q0 39 23.5 71t69.5 67q177 147 405 297z" />
    <glyph glyph-name="guilsinglright" unicode="&#x203a;" horiz-adv-x="710" 
d="M397 547l-178 297l141 119q160 -134 304 -297q49 -52 49 -103q0 -44 -37 -90q-55 -72 -200 -188.5t-255 -186.5l-112 127z" />
    <glyph glyph-name="fraction" unicode="&#x2044;" horiz-adv-x="479" 
d="M23 -45l-187 106l823 1282l191 -102z" />
    <glyph glyph-name="zerosuperior" unicode="&#x2070;" horiz-adv-x="772" 
d="M649 1509q130 0 207.5 -75t77.5 -224q0 -64 -10 -120q-37 -205 -146 -303.5t-270 -98.5q-136 0 -210.5 76t-74.5 223q0 49 13 125q35 201 146 299t267 98zM537 870q56 0 94 49.5t59 170.5q10 51 10 108q0 64 -21.5 97.5t-60.5 33.5q-59 0 -96.5 -51.5t-60.5 -173.5
q-10 -68 -10 -111q0 -123 86 -123z" />
    <glyph glyph-name="foursuperior" unicode="&#x2074;" horiz-adv-x="772" 
d="M692 1231h133l-34 -205h108l-29 -166h-110l-29 -164h-231l28 168h-319l22 127l342 535l172 -88l-274 -412h96z" />
    <glyph glyph-name="fivesuperior" unicode="&#x2075;" horiz-adv-x="772" 
d="M330 1067l131 430h436l-31 -174h-282l-35 -113q143 -5 219 -57.5t76 -165.5q0 -54 -18 -103.5t-56.5 -95t-110 -73t-167.5 -27.5q-92 0 -164.5 24t-112.5 50l92 162q87 -56 182 -56q117 0 117 97q0 61 -68 81.5t-208 20.5z" />
    <glyph glyph-name="sixsuperior" unicode="&#x2076;" horiz-adv-x="772" 
d="M795 1538l18 -166q-123 -15 -203.5 -66.5t-111.5 -134.5q96 56 186 56t142.5 -55t52.5 -148q0 -23 -7 -63q-21 -124 -113 -198.5t-237 -74.5q-131 0 -200.5 74t-69.5 201q0 57 8 106q15 87 52 162.5t99.5 141t160.5 109t223 56.5zM555 860q51 0 80 36t29 93q0 80 -80 80
q-46 0 -107 -33q-6 -30 -6 -69q0 -107 84 -107z" />
    <glyph glyph-name="sevensuperior" unicode="&#x2077;" horiz-adv-x="772" 
d="M350 1323l31 174h590l-25 -143q-154 -114 -240.5 -264t-121.5 -349l-9 -43h-225l10 54q32 179 99.5 319.5t202.5 251.5h-312z" />
    <glyph glyph-name="eightsuperior" unicode="&#x2078;" horiz-adv-x="772" 
d="M246 877q0 165 200 245q-38 19 -69 60t-31 98q0 93 80.5 161t224.5 68q130 0 189 -49.5t59 -120.5q0 -40 -11.5 -71.5t-36.5 -56.5t-45 -39.5t-56 -36.5q110 -68 110 -181q0 -49 -19 -94t-57 -84.5t-106 -63.5t-156 -24q-145 0 -210.5 55t-65.5 134zM643 924
q0 32 -21.5 57.5t-52.5 38.5q-46 -21 -76 -51t-30 -66q0 -26 20 -44.5t62 -18.5q45 0 71.5 25t26.5 59zM631 1372q-40 0 -62 -21.5t-22 -47.5q0 -24 17.5 -49.5t47.5 -39.5q31 16 56.5 47.5t25.5 59.5q0 21 -15 36t-48 15z" />
    <glyph glyph-name="ninesuperior" unicode="&#x2079;" horiz-adv-x="772" 
d="M356 659l-18 166q123 15 203.5 66.5t111.5 134.5q-94 -55 -186 -55q-90 0 -142.5 55t-52.5 148q0 23 7 63q21 124 113 198t237 74q131 0 200.5 -73.5t69.5 -200.5q0 -58 -8 -107q-12 -70 -36 -130.5t-67 -119t-101 -102.5t-142.5 -75t-188.5 -42zM596 1337q-51 0 -80 -36
t-29 -93q0 -80 80 -80q47 0 107 33q6 30 6 70q0 106 -84 106z" />
    <glyph glyph-name="zeroinferior" unicode="&#x2080;" horiz-adv-x="772" 
d="M526 647q130 0 207.5 -75t77.5 -224q0 -65 -10 -121q-37 -204 -146 -302.5t-270 -98.5q-136 0 -210.5 76t-74.5 223q0 49 13 125q35 201 146 299t267 98zM414 8q57 0 94.5 49t58.5 170q11 56 11 109q0 64 -21.5 97.5t-60.5 33.5q-59 0 -97 -51.5t-61 -173.5
q-10 -68 -10 -111q0 -123 86 -123z" />
    <glyph glyph-name="oneinferior" unicode="&#x2081;" horiz-adv-x="772" 
d="M184 20h146l67 373l-159 -61l-48 147l299 156h201l-43 -162l-82 -453h133l-30 -184h-516z" />
    <glyph glyph-name="twoinferior" unicode="&#x2082;" horiz-adv-x="772" 
d="M287 365l-101 145q182 137 353 137q119 0 181 -54.5t62 -146.5q0 -84 -39 -146t-131 -138l-149 -133h264l-33 -193h-594l27 146l303 270q50 44 70 75.5t20 67.5q0 27 -15 40.5t-40 13.5q-64 0 -178 -84z" />
    <glyph glyph-name="threeinferior" unicode="&#x2083;" horiz-adv-x="772" 
d="M287 395l-76 137q174 115 352 115q104 0 162.5 -48t58.5 -124q0 -125 -125 -199q68 -101 68 -188q0 -111 -82 -186.5t-254 -75.5q-75 0 -156 21.5t-129 50.5l87 161q88 -57 192 -57q102 0 102 76q0 35 -26 96q-64 -22 -160 -35l-20 142q256 44 256 131q0 49 -58 49
q-60 0 -192 -66z" />
    <glyph glyph-name="fourinferior" unicode="&#x2084;" horiz-adv-x="772" 
d="M569 369h133l-34 -205h108l-28 -166h-111l-29 -164h-231l29 168h-320l23 127l342 535l172 -89l-275 -411h96z" />
    <glyph glyph-name="fiveinferior" unicode="&#x2085;" horiz-adv-x="772" 
d="M225 205l131 430h437l-31 -174h-283l-35 -113q143 -5 219 -57.5t76 -165.5q0 -54 -18 -103.5t-56.5 -95t-110 -73t-167.5 -27.5q-92 0 -164 24t-112 50l92 161q86 -55 182 -55q117 0 117 96q0 61 -68.5 82t-208.5 21z" />
    <glyph glyph-name="sixinferior" unicode="&#x2086;" horiz-adv-x="772" 
d="M672 676l18 -166q-123 -15 -203.5 -66.5t-111.5 -134.5q96 56 186 56t142.5 -55t52.5 -148q0 -30 -6 -64q-21 -124 -113.5 -198t-237.5 -74q-131 0 -200.5 73.5t-69.5 200.5q0 58 8 107q15 87 52 162.5t99.5 141t160.5 109t223 56.5zM432 -2q51 0 80 36t29 93
q0 80 -80 80q-47 0 -107 -33q-6 -30 -6 -70q0 -106 84 -106z" />
    <glyph glyph-name="seveninferior" unicode="&#x2087;" horiz-adv-x="772" 
d="M227 461l31 174h590l-25 -143q-154 -114 -240.5 -264t-121.5 -349l-8 -43h-226l11 53q32 180 99 320.5t202 251.5h-312z" />
    <glyph glyph-name="eightinferior" unicode="&#x2088;" horiz-adv-x="772" 
d="M123 14q0 166 201 246q-38 19 -69.5 60t-31.5 98q0 93 80.5 161t224.5 68q130 0 189 -49.5t59 -120.5q0 -40 -11.5 -71.5t-36.5 -56.5t-45.5 -40.5t-55.5 -36.5q110 -68 110 -180q0 -49 -19 -94t-57 -84.5t-106 -63.5t-156 -24q-145 0 -210.5 55t-65.5 133zM520 61
q0 32 -22 58t-52 39q-46 -21 -76 -51t-30 -66q0 -27 20 -45.5t62 -18.5q45 0 71.5 25t26.5 59zM508 510q-40 0 -62 -22t-22 -48q0 -23 17 -48.5t48 -39.5q31 16 56.5 47.5t25.5 59.5q0 21 -15 36t-48 15z" />
    <glyph glyph-name="nineinferior" unicode="&#x2089;" horiz-adv-x="772" 
d="M233 -203l-18 166q123 15 203.5 66.5t111.5 134.5q-94 -55 -186 -55q-90 0 -142 54.5t-52 147.5q0 29 6 64q21 124 113 198t237 74q131 0 200.5 -73.5t69.5 -200.5q0 -58 -8 -107q-12 -70 -36 -130.5t-67 -119t-101 -102.5t-142.5 -75t-188.5 -42zM473 475
q-51 0 -79.5 -36t-28.5 -93q0 -80 79 -80q46 0 107 33q6 30 6 70q0 106 -84 106z" />
    <glyph glyph-name="Euro" unicode="&#x20ac;" 
d="M152 539l45 254h213q-35 20 -56.5 67.5t-21.5 102.5q0 127 69 215t180.5 128t256.5 40q109 0 231.5 -47t194.5 -125l-189 -207q-111 102 -248 102q-81 0 -134.5 -36.5t-53.5 -112.5q0 -51 36.5 -89t117.5 -38h264l-45 -254h-258q-42 0 -78 -8t-68 -25.5t-50.5 -50
t-18.5 -76.5q0 -62 43.5 -101.5t122.5 -39.5q150 0 319 104l96 -229q-126 -82 -243.5 -115t-260.5 -33q-214 0 -316.5 81.5t-102.5 213.5q0 94 42 158t126 121h-213z" />
    <glyph glyph-name="trademark" unicode="&#x2122;" horiz-adv-x="1437" 
d="M213 1362h571v-178h-186v-510h-207v510h-178v178zM1321 1362h209l37 -688h-185l-14 346h-8l-90 -287h-150l-92 287h-6l-21 -346h-180l41 688h211l123 -404h6z" />
    <glyph glyph-name="Omega" unicode="&#x2126;" horiz-adv-x="1572" 
d="M584 600q0 -119 43 -215.5t114 -148.5l-41 -236h-620l55 305h271q-68 63 -117 172.5t-49 212.5q0 197 95 347.5t265 231.5t389 81q297 0 457 -132.5t160 -369.5q0 -321 -318 -543h258l-53 -305h-594l41 236q47 34 81 63t76.5 77.5t69 99.5t45.5 123.5t19 154.5
q0 142 -73 222.5t-206 80.5q-57 0 -108.5 -14t-99.5 -47.5t-83 -84t-56 -130.5t-21 -181z" />
    <glyph glyph-name="onethird" unicode="&#x2153;" horiz-adv-x="1740" 
d="M213 719h145l68 373l-160 -62l-47 148l299 155h201l-43 -162l-82 -452h133l-31 -184h-516zM670 -45l-187 106l824 1282l190 -102zM1315 559l-76 137q174 115 352 115q104 0 162.5 -48t58.5 -124q0 -125 -124 -199q67 -99 67 -188q0 -111 -82 -186.5t-254 -75.5
q-75 0 -155.5 21t-128.5 50l86 162q88 -57 192 -57q103 0 103 76q0 32 -27 96q-64 -22 -160 -35l-20 141q256 44 256 131q0 50 -58 50q-60 0 -192 -66z" />
    <glyph glyph-name="twothirds" unicode="&#x2154;" horiz-adv-x="1740" 
d="M338 1063l-100 145q183 138 352 138q120 0 182 -54.5t62 -146.5q0 -85 -39 -147.5t-131 -137.5l-150 -133h264l-33 -192h-593l26 145l303 270q50 44 70 76t20 68q0 27 -15 40t-40 13q-64 0 -178 -84zM705 -45l-187 106l823 1282l191 -102zM1321 559l-76 137
q174 115 352 115q104 0 163 -48t59 -124q0 -125 -125 -199q67 -99 67 -188q0 -111 -82 -186.5t-254 -75.5q-75 0 -155.5 21t-128.5 50l86 162q88 -57 192 -57q103 0 103 76q0 32 -27 96q-64 -22 -160 -35l-20 141q256 44 256 131q0 50 -58 50q-60 0 -192 -66z" />
    <glyph glyph-name="oneeighth" unicode="&#x215b;" horiz-adv-x="1740" 
d="M209 719h145l68 373l-160 -62l-47 148l299 155h201l-43 -162l-82 -452h133l-31 -184h-516zM653 -45l-186 106l823 1282l191 -102zM1130 178q0 166 201 246q-38 19 -69 60t-31 98q0 93 80.5 161t224.5 68q130 0 189 -49.5t59 -120.5q0 -40 -11.5 -71.5t-37 -57t-45.5 -40
t-56 -36.5q111 -68 111 -180q0 -49 -19 -94t-57 -84.5t-106 -63.5t-156 -24q-145 0 -211 55t-66 133zM1528 225q0 32 -22 58t-52 39q-46 -21 -76 -51t-30 -66q0 -27 20 -45.5t62 -18.5q45 0 71.5 25t26.5 59zM1516 674q-40 0 -62 -22t-22 -48q0 -23 17 -48.5t48 -39.5
q31 16 56.5 47.5t25.5 59.5q0 21 -15 36t-48 15z" />
    <glyph glyph-name="threeeighths" unicode="&#x215c;" horiz-adv-x="1740" 
d="M344 1094l-76 137q37 24 80 46.5t121.5 45.5t151.5 23q104 0 162.5 -48t58.5 -124q0 -125 -125 -199q67 -99 67 -189q0 -52 -18.5 -97.5t-56.5 -83t-104.5 -59.5t-155.5 -22q-75 0 -156 21.5t-129 50.5l86 162q89 -58 192 -58t103 76q0 32 -27 96q-60 -20 -160 -34
l-20 141q256 44 256 131q0 49 -57 49q-63 0 -193 -65zM676 -45l-187 106l824 1282l190 -102zM1143 178q0 166 200 246q-38 19 -69 60t-31 98q0 93 80.5 161t224.5 68q130 0 189 -49.5t59 -120.5q0 -40 -11.5 -71.5t-36.5 -56.5t-45.5 -40.5t-55.5 -36.5q110 -68 110 -180
q0 -49 -19 -94t-57 -84.5t-106 -63.5t-156 -24q-145 0 -210.5 55t-65.5 133zM1540 225q0 32 -22 58t-52 39q-46 -21 -76 -51t-30 -66q0 -27 20 -45.5t62 -18.5q45 0 71.5 25t26.5 59zM1528 674q-40 0 -62 -22t-22 -48q0 -23 17 -48.5t48 -39.5q31 16 56.5 47.5t25.5 59.5
q0 21 -15 36t-48 15z" />
    <glyph glyph-name="fiveeighths" unicode="&#x215d;" horiz-adv-x="1740" 
d="M289 903l131 430h436l-31 -174h-282l-35 -112q142 -5 218.5 -57.5t76.5 -166.5q0 -54 -18 -103.5t-56.5 -95t-110 -73t-167.5 -27.5q-92 0 -164.5 24t-112.5 50l92 162q86 -55 183 -55q116 0 116 96q0 61 -68 81.5t-208 20.5zM678 -45l-186 106l823 1282l190 -102z
M1137 178q0 166 200 246q-38 19 -69 60t-31 98q0 93 80.5 161t224.5 68q130 0 189 -49.5t59 -120.5q0 -40 -11.5 -71.5t-37 -57t-45.5 -40t-56 -36.5q111 -68 111 -180q0 -49 -19 -94t-57 -84.5t-106 -63.5t-156 -24q-145 0 -210.5 55t-65.5 133zM1534 225q0 32 -22 58
t-52 39q-46 -21 -76 -51t-30 -66q0 -27 20 -45.5t62 -18.5q45 0 71.5 25t26.5 59zM1522 674q-40 0 -62 -22t-22 -48q0 -23 17 -48.5t48 -39.5q31 16 56.5 47.5t25.5 59.5q0 21 -15 36t-48 15z" />
    <glyph glyph-name="seveneighths" unicode="&#x215e;" horiz-adv-x="1740" 
d="M258 1159l31 174h590l-25 -143q-155 -114 -241 -263.5t-121 -348.5l-9 -43h-225l10 53q32 180 99 320t202 251h-311zM584 -45l-187 106l824 1282l190 -102zM1135 178q0 166 200 246q-38 19 -69 60t-31 98q0 93 80.5 161t224.5 68q130 0 189 -49.5t59 -120.5
q0 -40 -11.5 -71.5t-37 -57t-45.5 -40t-56 -36.5q111 -68 111 -180q0 -49 -19 -94t-57 -84.5t-106 -63.5t-156 -24q-145 0 -210.5 55t-65.5 133zM1532 225q0 32 -22 58t-52 39q-46 -21 -76 -51t-30 -66q0 -27 20 -45.5t62 -18.5q45 0 71.5 25t26.5 59zM1520 674
q-40 0 -62 -22t-22 -48q0 -23 17 -48.5t48 -39.5q31 16 56.5 47.5t25.5 59.5q0 21 -15 36t-48 15z" />
    <glyph glyph-name="partialdiff" unicode="&#x2202;" horiz-adv-x="1150" 
d="M451 1135l106 239q314 -58 456 -223t142 -422q0 -112 -16.5 -214.5t-59 -204.5t-107 -176t-169.5 -120.5t-238 -46.5q-203 0 -303 104t-100 267q0 235 132.5 383.5t338.5 148.5q128 0 227 -61q1 1 1.5 2t1.5 2t3 2q-20 113 -140 202t-275 118zM600 207q153 0 207 299
q1 10 4 35.5t4 40.5q-62 55 -139 55q-90 0 -138.5 -84.5t-48.5 -196.5q0 -149 111 -149z" />
    <glyph glyph-name="Delta" unicode="&#x2206;" horiz-adv-x="1380" 
d="M1366 0h-1352l744 1346h344zM995 260l-121 719h-12l-368 -719h501z" />
    <glyph glyph-name="product" unicode="&#x220f;" horiz-adv-x="1445" 
d="M1278 -270h-356l231 1304h-494l-229 -1304h-356l284 1616h1205z" />
    <glyph glyph-name="summation" unicode="&#x2211;" horiz-adv-x="1161" 
d="M1096 -270h-1110l43 262l581 559l-368 532l45 263h1052l-55 -312h-600l332 -508l-498 -485h631z" />
    <glyph glyph-name="minus" unicode="&#x2212;" 
d="M1098 770l-47 -272h-830l47 272h830z" />
    <glyph glyph-name="uni2215" unicode="&#x2215;" horiz-adv-x="974" 
d="M281 -272l-267 116l871 1672l272 -115z" />
    <glyph glyph-name="uni2219" unicode="&#x2219;" horiz-adv-x="645" 
d="M272 598q0 80 55 135t144 55q72 0 109.5 -34.5t37.5 -94.5q0 -80 -53 -136t-145 -56q-73 0 -110.5 35.5t-37.5 95.5z" />
    <glyph glyph-name="radical" unicode="&#x221a;" horiz-adv-x="1396" 
d="M1726 1497l-806 -1526h-310l-131 752l-200 -92l-56 229l510 232l107 -680l555 1085h331z" />
    <glyph glyph-name="infinity" unicode="&#x221e;" horiz-adv-x="1564" 
d="M1606 731q0 -156 -91.5 -253t-238.5 -97q-203 0 -377 186q-177 -190 -362 -190q-167 0 -257 92t-90 238q0 91 40 168t121 126.5t186 49.5q115 0 197 -48.5t167 -158.5q102 110 187.5 159.5t199.5 49.5q79 0 141.5 -27t100 -73.5t57 -103t19.5 -118.5zM1331 715
q0 46 -22.5 72t-65.5 26q-40 0 -73 -25t-76 -75q74 -99 149 -99q41 0 64.5 30t23.5 71zM700 709q-67 102 -141 102q-49 0 -72.5 -27.5t-23.5 -70.5q0 -45 23.5 -72t68.5 -27q77 0 145 95z" />
    <glyph glyph-name="integral" unicode="&#x222b;" horiz-adv-x="798" 
d="M864 1169q-98 25 -135 25q-48 0 -66 -30.5t-14 -112.5q4 -116 8 -168l48 -768q6 -111 6 -138q5 -134 -76.5 -214t-226.5 -80q-143 0 -271 45l33 192q94 -24 133 -24q48 0 66 26.5t14 100.5q-5 96 -6 104l-49 846q-4 70 -4 135q0 137 78 217t223 80q144 0 272 -45z" />
    <glyph glyph-name="approxequal" unicode="&#x2248;" horiz-adv-x="1390" 
d="M971 209q-67 0 -132.5 22t-108.5 48.5t-92.5 48.5t-86.5 22q-53 0 -107 -36t-125 -105l-163 164q49 55 88.5 93t91.5 77.5t108 59.5t115 20q57 0 117.5 -23.5t104 -51.5t100 -51.5t106.5 -23.5q54 0 107.5 34.5t117.5 106.5l168 -163q-179 -242 -409 -242zM1061 719
q-67 0 -133 22.5t-109 49t-93 49t-87 22.5q-54 0 -108.5 -36.5t-122.5 -104.5l-164 164q51 57 89.5 94t91.5 77.5t109 60.5t115 20q57 0 117 -23.5t103.5 -51.5t99.5 -51.5t106 -23.5q106 0 230 139l163 -163q-183 -244 -407 -244z" />
    <glyph glyph-name="notequal" unicode="&#x2260;" 
d="M1059 537l-51 -273h-387l-70 -158h-272l69 158h-170l51 273h242l74 161h-289l49 273h365l75 164h261l-72 -164h201l-50 -273h-274l-70 -161h318z" />
    <glyph glyph-name="lessequal" unicode="&#x2264;" 
d="M1006 272l-48 -272h-821l47 272h822zM1143 997l-496 -213l424 -227l-147 -233l-664 358l39 217l760 354z" />
    <glyph glyph-name="greaterequal" unicode="&#x2265;" 
d="M164 0l47 272h821l-47 -272h-821zM748 819l-418 213l147 234l662 -367l-39 -217l-778 -354l-97 260z" />
    <glyph glyph-name="lozenge" unicode="&#x25ca;" horiz-adv-x="1191" 
d="M1227 676l-383 -676h-266l-383 672l385 674h264zM895 676l-184 342l-181 -346l187 -350z" />
    <glyph glyph-name="onefifth" unicode="&#xf500;" horiz-adv-x="1740" 
d="M221 719h146l67 373l-160 -62l-47 148l299 155h201l-43 -162l-82 -452h133l-30 -184h-517zM694 -45l-186 106l823 1282l191 -102zM1245 369l131 430h436l-30 -174h-283l-35 -113q143 -5 219 -57.5t76 -165.5q0 -54 -18 -103.5t-56.5 -95t-110 -73t-167.5 -27.5
q-93 0 -165.5 23.5t-111.5 49.5l93 162q86 -55 182 -55q117 0 117 96q0 61 -68.5 82t-208.5 21z" />
    <glyph glyph-name="twofifths" unicode="&#xf501;" horiz-adv-x="1740" 
d="M348 1063l-100 145q183 138 352 138q120 0 182 -54.5t62 -146.5q0 -85 -39 -147.5t-131 -137.5l-150 -133h264l-32 -192h-594l26 145l304 270q50 44 70 76t20 68q0 26 -15.5 39.5t-40.5 13.5q-64 0 -178 -84zM707 -45l-187 106l823 1282l191 -102zM1229 369l131 430h436
l-31 -174h-282l-35 -113q143 -5 219 -57.5t76 -165.5q0 -54 -18 -103.5t-56.5 -95t-110 -73t-167.5 -27.5q-93 0 -165.5 23.5t-111.5 49.5l92 162q86 -55 183 -55q116 0 116 96q0 61 -68 82t-208 21z" />
    <glyph glyph-name="threefifths" unicode="&#xf502;" horiz-adv-x="1740" 
d="M365 1094l-76 137q174 115 352 115q104 0 162.5 -48t58.5 -124q0 -125 -125 -199q68 -101 68 -189q0 -111 -82 -186.5t-254 -75.5q-75 0 -156 21.5t-129 50.5l86 162q42 -27 94.5 -42.5t98.5 -15.5q102 0 102 76q0 35 -26 96q-60 -20 -160 -34l-21 141q256 44 256 131
q0 49 -57 49q-62 0 -192 -65zM684 -45l-186 106l823 1282l190 -102zM1223 369l131 430h436l-31 -174h-282l-35 -113q143 -5 219 -57.5t76 -165.5q0 -42 -10.5 -82.5t-37 -80t-65.5 -69.5t-101 -48.5t-139 -18.5q-93 0 -165 23.5t-111 49.5l92 162q86 -55 182 -55
q117 0 117 96q0 61 -68 82t-208 21z" />
    <glyph glyph-name="fourfifths" unicode="&#xf503;" horiz-adv-x="1740" 
d="M668 1067h133l-35 -205h108l-28 -166h-111l-28 -164h-232l29 168h-320l23 127l342 535l172 -88l-275 -412h97zM709 -45l-187 106l824 1282l190 -102zM1229 369l131 430h436l-31 -174h-282l-35 -113q143 -5 219 -57.5t76 -165.5q0 -54 -18 -103.5t-56.5 -95t-110 -73
t-167.5 -27.5q-93 0 -165.5 23.5t-111.5 49.5l92 162q86 -55 183 -55q116 0 116 96q0 61 -68 82t-208 21z" />
    <glyph glyph-name="onesixth" unicode="&#xf504;" horiz-adv-x="1740" 
d="M219 719h146l67 373l-160 -62l-47 148l299 155h201l-43 -162l-82 -452h133l-31 -184h-516zM664 -45l-187 106l823 1282l191 -102zM1688 840l18 -166q-123 -15 -203.5 -66.5t-111.5 -134.5q94 55 186 55q90 0 142.5 -54.5t52.5 -147.5q0 -24 -7 -64q-21 -124 -113 -198
t-237 -74q-131 0 -200.5 73.5t-69.5 200.5q0 58 8 107q15 87 52 162.5t99.5 141t160.5 109t223 56.5zM1448 162q51 0 79.5 36t28.5 93q0 80 -79 80q-47 0 -107 -33q-6 -30 -6 -70q0 -106 84 -106z" />
    <glyph glyph-name="fivesixths" unicode="&#xf505;" horiz-adv-x="1740" 
d="M684 -45l-186 106l823 1282l190 -102zM1696 840l18 -166q-123 -15 -203.5 -66.5t-111.5 -134.5q94 55 186 55q90 0 142.5 -54.5t52.5 -147.5q0 -30 -6 -64q-21 -124 -113.5 -198t-237.5 -74q-131 0 -200.5 73.5t-69.5 200.5q0 58 8 107q15 87 52 162.5t99.5 141
t160.5 109t223 56.5zM1456 162q51 0 80 36t29 93q0 80 -80 80q-47 0 -107 -33q-6 -30 -6 -70q0 -106 84 -106zM291 903l131 430h436l-31 -174h-282l-35 -112q142 -5 218.5 -57.5t76.5 -166.5q0 -54 -18 -103.5t-56.5 -95t-110 -73t-167.5 -27.5q-92 0 -164.5 24t-112.5 50
l92 162q86 -55 183 -55q116 0 116 96q0 61 -68 81.5t-208 20.5z" />
    <glyph glyph-name="oneseventh" unicode="&#xf506;" horiz-adv-x="1740" 
d="M201 719h145l68 373l-160 -62l-47 148l299 155h201l-43 -162l-82 -452h133l-31 -184h-516zM651 -45l-186 106l823 1282l191 -102zM1233 625l31 174h589l-24 -144q-155 -114 -241.5 -264t-121.5 -348l-8 -43h-225l10 53q32 180 99 320.5t202 251.5h-311z" />
    <glyph glyph-name="twosevenths" unicode="&#xf507;" horiz-adv-x="1740" 
d="M340 1063l-100 145q183 138 352 138q120 0 182 -54.5t62 -146.5q0 -85 -39 -147.5t-131 -137.5l-150 -133h264l-32 -192h-594l26 145l303 270q50 44 70 76t20 68q0 27 -15 40t-40 13q-64 0 -178 -84zM682 -45l-186 106l823 1282l190 -102zM1241 625l31 174h590l-25 -144
q-155 -114 -241 -263.5t-121 -348.5l-9 -43h-225l10 53q32 180 99 320.5t202 251.5h-311z" />
    <glyph glyph-name="threesevenths" unicode="&#xf508;" horiz-adv-x="1740" 
d="M315 1094l-75 137q174 115 352 115q104 0 162.5 -48t58.5 -124q0 -125 -125 -199q68 -101 68 -189q0 -111 -82 -186.5t-254 -75.5q-75 0 -156 21.5t-129 50.5l86 162q42 -27 94.5 -42.5t98.5 -15.5q102 0 102 76q0 32 -27 96q-60 -21 -159 -34l-21 141q256 44 256 131
q0 49 -57 49q-63 0 -193 -65zM639 -45l-186 106l823 1282l190 -102zM1210 625l31 174h590l-25 -144q-155 -114 -241 -263.5t-121 -348.5l-8 -43h-226l11 53q32 180 99 320.5t202 251.5h-312z" />
    <glyph glyph-name="foursevenths" unicode="&#xf509;" horiz-adv-x="1740" 
d="M635 1067h133l-35 -205h109l-29 -166h-111l-28 -164h-232l29 168h-319l22 127l342 535l172 -88l-274 -412h96zM664 -45l-187 106l823 1282l191 -102zM1233 625l31 174h589l-24 -144q-155 -114 -241.5 -264t-121.5 -348l-8 -43h-225l10 53q32 180 99 320.5t202 251.5h-311
z" />
    <glyph glyph-name="fivesevenths" unicode="&#xf50a;" horiz-adv-x="1740" 
d="M252 903l131 430h436l-31 -174h-282l-35 -112q142 -5 218.5 -57.5t76.5 -166.5q0 -54 -18 -103.5t-56.5 -95t-110 -73t-167.5 -27.5q-92 0 -164.5 24t-112.5 50l92 162q86 -55 183 -55q116 0 116 96q0 61 -68 81.5t-208 20.5zM633 -45l-187 106l824 1282l190 -102z
M1212 625l31 174h590l-25 -144q-155 -114 -241 -263.5t-121 -348.5l-8 -43h-226l11 53q32 180 99 320.5t202 251.5h-312z" />
    <glyph glyph-name="sixsevenths" unicode="&#xf50b;" horiz-adv-x="1740" 
d="M737 1374l19 -166q-124 -15 -204.5 -66.5t-111.5 -133.5q94 55 187 55q90 0 142 -55t52 -148q0 -28 -6 -63q-21 -124 -113 -198.5t-237 -74.5q-131 0 -200.5 74t-69.5 201q0 57 8 106q15 87 52 162.5t99 141t160 109t223 56.5zM498 696q51 0 79.5 36t28.5 93q0 80 -80 80
q-46 0 -106 -33q-6 -30 -6 -69q0 -107 84 -107zM655 -45l-186 106l823 1282l191 -102zM1229 625l31 174h589l-24 -144q-155 -114 -241.5 -264t-121.5 -348l-8 -43h-225l10 53q32 180 99 320.5t202 251.5h-311z" />
    <glyph glyph-name="oneninth" unicode="&#xf50c;" horiz-adv-x="1740" 
d="M203 719h145l68 373l-160 -62l-47 148l299 155h201l-43 -162l-82 -452h133l-31 -184h-516zM639 -45l-186 106l823 1282l190 -102zM1231 -39l-19 166q124 15 204.5 67t111.5 134q-96 -56 -187 -56q-90 0 -142 55t-52 148q0 29 6 64q21 124 113 198t237 74q131 0 201 -73.5
t70 -200.5q0 -51 -9 -107q-12 -70 -36 -130.5t-66.5 -119t-100.5 -102.5t-142.5 -75t-188.5 -42zM1470 639q-51 0 -79.5 -36t-28.5 -93q0 -80 80 -80q46 0 106 33q6 30 6 69q0 107 -84 107z" />
    <glyph glyph-name="twoninths" unicode="&#xf50d;" horiz-adv-x="1740" 
d="M322 1063l-101 145q183 138 352 138q120 0 182 -54.5t62 -146.5q0 -85 -39 -147.5t-131 -137.5l-149 -133h264l-33 -192h-594l27 145l303 270q50 44 70 76t20 68q0 27 -15 40t-40 13q-64 0 -178 -84zM666 -45l-187 106l824 1282l190 -102zM1225 -39l-19 166
q124 15 204.5 67t111.5 134q-96 -56 -187 -56q-90 0 -142 55t-52 148q0 29 6 64q21 124 113 198t237 74q131 0 200.5 -73.5t69.5 -200.5q0 -58 -8 -107q-12 -70 -36 -130.5t-66.5 -119t-100.5 -102.5t-142.5 -75t-188.5 -42zM1464 639q-51 0 -79.5 -36t-28.5 -93
q0 -80 80 -80q46 0 106 33q6 30 6 69q0 107 -84 107z" />
    <glyph glyph-name="fourninths" unicode="&#xf50e;" horiz-adv-x="1740" 
d="M639 1067h133l-35 -205h109l-29 -166h-110l-29 -164h-232l29 168h-319l22 127l342 535l172 -88l-274 -412h96zM672 -45l-187 106l824 1282l190 -102zM1249 -39l-18 166q123 15 203.5 66.5t111.5 134.5q-96 -56 -186 -56t-142.5 55t-52.5 148q0 29 6 64q21 124 113.5 198
t237.5 74q131 0 200.5 -73.5t69.5 -200.5q0 -58 -8 -107q-12 -70 -36 -130.5t-67 -119t-101 -102.5t-142.5 -75t-188.5 -42zM1489 639q-51 0 -80 -36t-29 -93q0 -80 80 -80q46 0 107 33q6 30 6 69q0 107 -84 107z" />
    <glyph glyph-name="fiveninths" unicode="&#xf50f;" horiz-adv-x="1740" 
d="M262 903l131 430h436l-30 -174h-283l-35 -112q142 -5 218.5 -57.5t76.5 -166.5q0 -54 -18 -103.5t-56.5 -95t-110 -73t-167.5 -27.5q-92 0 -164.5 24t-112.5 50l93 162q86 -55 182 -55q117 0 117 96q0 32 -19 53t-58.5 31.5t-85 14t-114.5 3.5zM637 -45l-186 106
l823 1282l190 -102zM1239 -39l-18 166q123 15 203.5 66.5t111.5 134.5q-96 -56 -186 -56t-142.5 55t-52.5 148q0 29 6 64q21 124 113 198t237 74q131 0 201 -73.5t70 -200.5q0 -58 -8 -107q-12 -70 -36 -130.5t-67 -119t-101 -102.5t-142.5 -75t-188.5 -42zM1479 639
q-51 0 -80 -36t-29 -93q0 -80 80 -80q46 0 106 33q7 35 7 69q0 107 -84 107z" />
    <glyph glyph-name="sevenninths" unicode="&#xf510;" horiz-adv-x="1740" 
d="M266 1159l31 174h590l-25 -143q-155 -114 -241 -263.5t-121 -348.5l-8 -43h-226l10 53q32 179 99.5 319.5t202.5 251.5h-312zM561 -45l-186 106l823 1282l191 -102zM1247 -39l-18 166q123 15 203.5 66.5t111.5 134.5q-96 -56 -186 -56t-142.5 55t-52.5 148q0 29 6 64
q21 124 113.5 198t237.5 74q131 0 200.5 -73.5t69.5 -200.5q0 -58 -8 -107q-12 -70 -36 -130.5t-67 -119t-101 -102.5t-142.5 -75t-188.5 -42zM1487 639q-51 0 -80 -36t-29 -93q0 -80 80 -80q46 0 107 33q6 30 6 69q0 107 -84 107z" />
    <glyph glyph-name="eightninths" unicode="&#xf511;" horiz-adv-x="1740" 
d="M160 713q0 165 200 245q-38 19 -69 60t-31 98q0 93 80.5 161.5t224.5 68.5q130 0 189 -49.5t59 -120.5q0 -40 -11.5 -71.5t-36.5 -56.5t-45.5 -40.5t-55.5 -36.5q110 -68 110 -180q0 -49 -19 -94t-57 -85t-106 -64t-156 -24q-145 0 -210.5 55t-65.5 134zM557 760
q0 32 -21.5 57.5t-52.5 38.5q-46 -21 -76 -51t-30 -66q0 -26 20 -44.5t62 -18.5q45 0 71.5 25t26.5 59zM545 1208q-40 0 -62 -21.5t-22 -47.5q0 -23 17 -48.5t48 -39.5q31 16 56.5 47t25.5 59q0 21 -15 36t-48 15zM643 -45l-186 106l823 1282l190 -102zM1247 -39l-18 166
q123 15 203.5 66.5t111.5 134.5q-96 -56 -186 -56t-142.5 55t-52.5 148q0 29 6 64q21 124 113.5 198t237.5 74q131 0 200.5 -73.5t69.5 -200.5q0 -58 -8 -107q-12 -70 -36 -130.5t-67 -119t-101 -102.5t-142.5 -75t-188.5 -42zM1487 639q-51 0 -80 -36t-29 -93q0 -80 80 -80
q46 0 107 33q6 30 6 69q0 107 -84 107z" />
    <glyph glyph-name="zero.tosf" unicode="&#xf81e;" 
d="M715 1079q200 0 318 -118.5t118 -327.5q0 -312 -157 -489t-433 -177q-223 0 -334.5 119.5t-111.5 325.5q0 312 162 489.5t438 177.5zM584 219q54 0 94.5 30t63 74.5t37 105.5t18.5 111.5t4 104.5q0 178 -119 178q-66 0 -112.5 -43t-68 -114t-30 -137t-8.5 -138
q0 -172 121 -172z" />
    <glyph glyph-name="one.tosf" unicode="&#xf81f;" 
d="M274 258h240l72 414l-232 -107l-86 226l465 256h285l-66 -250l-94 -539h234l-48 -258h-815z" />
    <glyph glyph-name="two.tosf" unicode="&#xf820;" 
d="M348 647l-143 205q263 227 540 227q173 0 269 -79t96 -214q0 -141 -70 -236t-233 -198l-143 -90h407l-45 -262h-960l34 193l441 303q113 77 156.5 122t43.5 101q0 38 -23.5 59t-68.5 21q-59 0 -131.5 -39.5t-169.5 -112.5z" />
    <glyph glyph-name="three.tosf" unicode="&#xf821;" 
d="M858 459q125 -154 125 -293q0 -75 -21 -139t-80 -130t-153.5 -115.5t-252 -89.5t-365.5 -59l-13 261q284 37 408.5 95.5t124.5 157.5q0 72 -53 144q-105 -33 -232 -55l-43 239q402 78 402 242q0 32 -19.5 53t-60.5 21q-50 0 -133 -33t-166 -80l-117 217q61 43 128.5 79.5
t179.5 70.5t218 34q161 0 249.5 -82t88.5 -206q0 -209 -215 -332z" />
    <glyph glyph-name="four.tosf" unicode="&#xf822;" 
d="M821 596h197l-57 -326h167l-47 -270h-170l-55 -330h-344l55 330h-504l50 283l536 792l271 -147l-459 -658h168z" />
    <glyph glyph-name="five.tosf" unicode="&#xf823;" 
d="M207 336l217 711h719l-47 -263h-437l-63 -206q188 -14 300 -102t112 -247q0 -120 -51.5 -219t-159 -178.5t-285.5 -132t-418 -72.5l-22 264q309 39 441 113t132 195q0 42 -26.5 72.5t-72.5 45t-94.5 21t-105.5 6.5q-69 0 -139 -8z" />
    <glyph glyph-name="six.tosf" unicode="&#xf824;" 
d="M1028 1382l31 -264q-87 -11 -163.5 -34.5t-148 -63t-125.5 -101.5t-81 -141q51 32 126.5 54t139.5 22q136 0 213.5 -85.5t77.5 -229.5q0 -122 -34 -223.5t-99.5 -176.5t-167.5 -117t-232 -42q-205 0 -307 119t-102 329q0 7 1 21.5t1 21.5q4 79 15.5 153.5t39.5 162
t69.5 163t109 150.5t154.5 130.5t210.5 96t271.5 55.5zM760 487q0 64 -25 99t-71 35q-33 0 -80.5 -15.5t-79.5 -34.5q-12 -102 -12 -176q0 -77 23 -116t77 -39q70 0 119 64.5t49 182.5z" />
    <glyph glyph-name="seven.tosf" unicode="&#xf825;" 
d="M178 766l49 281h949l-39 -226l-787 -1151h-377l756 1096h-551z" />
    <glyph glyph-name="eight.tosf" unicode="&#xf826;" 
d="M113 289q0 72 24 134.5t68.5 113t86.5 85t101 72.5q-129 109 -129 250q0 172 135 287t365 115q100 0 175 -23.5t118 -64t63.5 -89t20.5 -104.5q0 -104 -63 -193.5t-167 -158.5q168 -132 168 -297q0 -91 -33 -168t-98 -138t-174 -95.5t-250 -34.5q-112 0 -195.5 27
t-128.5 73t-66 98t-21 111zM717 377q0 29 -9.5 54t-30 48.5t-38 39t-47.5 38.5q-48 -37 -76 -63.5t-53 -69.5t-25 -88q0 -49 30 -81t93 -32q70 0 113 44.5t43 109.5zM733 1120q-59 0 -97 -34t-38 -93q0 -76 104 -151q132 92 132 190q0 46 -29.5 67t-71.5 21z" />
    <glyph glyph-name="nine.tosf" unicode="&#xf827;" 
d="M242 -299l-25 256q394 49 490 311q-103 -61 -240 -61q-146 0 -223.5 86.5t-77.5 234.5q0 248 144 399.5t395 151.5q103 0 181 -32.5t125.5 -91t71 -136t23.5 -172.5q0 -407 -217 -655.5t-647 -290.5zM504 569q0 -62 25.5 -96.5t74.5 -34.5q32 0 77 14t75 35q18 88 18 181
q0 75 -24.5 113t-79.5 38q-69 0 -117.5 -65t-48.5 -185z" />
    <glyph glyph-name="hyphen.case" horiz-adv-x="659" 
d="M154 526l43 252h536l-43 -252h-536z" />
    <glyph glyph-name="zero.num" horiz-adv-x="772" 
d="M614 1346q130 0 207.5 -75t77.5 -224q0 -65 -10 -121q-37 -205 -146 -303.5t-270 -98.5q-136 0 -210.5 76t-74.5 223q0 49 13 125q35 201 146.5 299.5t266.5 98.5zM502 707q57 0 94.5 49t58.5 170q11 56 11 108q0 64 -21.5 97.5t-60.5 33.5q-59 0 -97 -51.5t-61 -173.5
q-10 -68 -10 -111q0 -122 86 -122z" />
    <glyph glyph-name="one.num" horiz-adv-x="772" 
d="M272 719h146l67 373l-159 -62l-47 148l299 155h200l-43 -162l-82 -452h133l-30 -184h-516z" />
    <glyph glyph-name="two.num" horiz-adv-x="772" 
d="M375 1063l-101 145q183 138 353 138q119 0 181 -54.5t62 -146.5q0 -85 -39 -147.5t-131 -137.5l-149 -133h264l-33 -192h-594l27 145l303 270q50 44 70 76t20 68q0 27 -15 40t-40 13q-64 0 -178 -84z" />
    <glyph glyph-name="three.num" horiz-adv-x="772" 
d="M375 1094l-76 137q174 115 352 115q104 0 162.5 -48t58.5 -124q0 -125 -124 -199q67 -99 67 -189q0 -111 -82 -186.5t-254 -75.5q-75 0 -155.5 21.5t-128.5 50.5l86 162q89 -58 192 -58q102 0 102 76q0 35 -26 96q-60 -20 -160 -34l-20 141q256 44 256 131q0 49 -58 49
q-62 0 -192 -65z" />
    <glyph glyph-name="four.num" horiz-adv-x="772" 
d="M657 1067h134l-35 -205h108l-28 -166h-111l-29 -164h-231l29 168h-320l23 127l342 535l172 -88l-275 -412h96z" />
    <glyph glyph-name="five.num" horiz-adv-x="772" 
d="M313 903l131 430h437l-31 -174h-283l-35 -112q142 -5 218.5 -57.5t76.5 -166.5q0 -54 -18 -103.5t-56.5 -95t-110 -73t-167.5 -27.5q-92 0 -164 24t-112 50l92 162q86 -55 182 -55q117 0 117 96q0 32 -19 53t-58.5 31.5t-85 14t-114.5 3.5z" />
    <glyph glyph-name="six.num" horiz-adv-x="772" 
d="M760 1374l18 -166q-124 -15 -204 -66.5t-111 -133.5q94 55 186 55q90 0 142.5 -55t52.5 -148q0 -28 -6 -63q-21 -124 -113.5 -198.5t-237.5 -74.5q-131 0 -200.5 74t-69.5 201q0 57 8 106q15 87 52 162.5t99.5 141t160.5 109t223 56.5zM520 696q51 0 80 36t29 93
q0 80 -80 80q-47 0 -107 -33q-6 -30 -6 -69q0 -107 84 -107z" />
    <glyph glyph-name="seven.num" horiz-adv-x="772" 
d="M315 1159l31 174h590l-25 -143q-155 -114 -241 -263.5t-121 -348.5l-8 -43h-226l11 53q32 180 99 320t202 251h-312z" />
    <glyph glyph-name="eight.num" horiz-adv-x="772" 
d="M211 713q0 165 201 245q-38 19 -69.5 60t-31.5 98q0 93 80.5 161.5t224.5 68.5q130 0 189 -49.5t59 -120.5q0 -40 -11.5 -71.5t-36.5 -56.5t-45.5 -40.5t-55.5 -36.5q110 -68 110 -180q0 -49 -19 -94t-57 -85t-106 -64t-156 -24q-145 0 -210.5 55t-65.5 134zM608 760
q0 32 -21.5 57.5t-51.5 38.5q-107 -49 -107 -117q0 -26 20 -44.5t62 -18.5q45 0 71.5 25t26.5 59zM596 1208q-40 0 -62 -21.5t-22 -47.5q0 -23 17.5 -48.5t48.5 -39.5q31 16 56 47t25 59q0 21 -15 36t-48 15z" />
    <glyph glyph-name="nine.num" horiz-adv-x="772" 
d="M322 496l-19 166q124 15 204 66.5t111 133.5q-94 -55 -186 -55q-90 0 -142 55t-52 148q0 28 6 63q21 124 113 198.5t237 74.5q131 0 200.5 -74t69.5 -201q0 -57 -8 -106q-12 -70 -36 -130.5t-66.5 -119t-100.5 -102.5t-142.5 -75t-188.5 -42zM561 1174q-51 0 -79.5 -36.5
t-28.5 -93.5q0 -79 79 -79q48 0 107 32q6 30 6 70q0 107 -84 107z" />
    <glyph glyph-name="zero.denom" horiz-adv-x="772" 
d="M532 811q130 0 207.5 -75t77.5 -224q0 -65 -10 -121q-37 -204 -146 -302.5t-270 -98.5q-136 0 -210.5 76t-74.5 223q0 49 13 125q35 201 146 299t267 98zM420 172q57 0 94.5 49t58.5 170q11 56 11 109q0 64 -21.5 97.5t-60.5 33.5q-59 0 -97 -51.5t-61 -173.5
q-10 -68 -10 -111q0 -123 86 -123z" />
    <glyph glyph-name="one.denom" horiz-adv-x="772" 
d="M184 184h146l67 373l-159 -61l-48 147l299 156h201l-43 -162l-82 -453h133l-30 -184h-516z" />
    <glyph glyph-name="two.denom" horiz-adv-x="772" 
d="M287 528l-101 146q182 137 353 137q119 0 181 -54.5t62 -146.5q0 -84 -39 -146t-131 -138l-149 -133h264l-33 -193h-594l27 145l303 271q50 44 70 75.5t20 67.5q0 27 -15 40t-40 13q-64 0 -178 -84z" />
    <glyph glyph-name="three.denom" horiz-adv-x="772" 
d="M287 559l-76 137q174 115 352 115q104 0 162.5 -48t58.5 -124q0 -125 -125 -199q68 -101 68 -188q0 -111 -82 -186.5t-254 -75.5q-75 0 -156 21t-129 50l87 162q88 -57 192 -57q102 0 102 76q0 35 -26 96q-64 -22 -160 -35l-20 141q256 44 256 131q0 50 -58 50
q-60 0 -192 -66z" />
    <glyph glyph-name="four.denom" horiz-adv-x="772" 
d="M569 532h133l-34 -204h108l-28 -166h-111l-29 -164h-231l29 168h-320l23 127l342 534l172 -88l-275 -411h96z" />
    <glyph glyph-name="five.denom" horiz-adv-x="772" 
d="M225 369l131 430h437l-31 -174h-283l-35 -113q143 -5 219 -57.5t76 -165.5q0 -54 -18 -103.5t-56.5 -95t-110 -73t-167.5 -27.5q-93 0 -165 23.5t-111 49.5l92 162q86 -55 182 -55q117 0 117 96q0 61 -68.5 82t-208.5 21z" />
    <glyph glyph-name="six.denom" horiz-adv-x="772" 
d="M672 840l18 -166q-123 -15 -203.5 -66.5t-111.5 -134.5q94 55 186 55q90 0 142.5 -54.5t52.5 -147.5q0 -30 -6 -64q-21 -124 -113.5 -198t-237.5 -74q-131 0 -200.5 73.5t-69.5 200.5q0 58 8 107q15 87 52 162.5t99.5 141t160.5 109t223 56.5zM432 162q51 0 80 36t29 93
q0 80 -80 80q-47 0 -107 -33q-6 -30 -6 -70q0 -106 84 -106z" />
    <glyph glyph-name="seven.denom" horiz-adv-x="772" 
d="M227 625l31 174h590l-25 -144q-155 -114 -241 -263.5t-121 -348.5l-8 -43h-226l11 53q32 180 99 320.5t202 251.5h-312z" />
    <glyph glyph-name="eight.denom" horiz-adv-x="772" 
d="M123 178q0 166 201 246q-38 19 -69.5 60t-31.5 98q0 93 80.5 161t224.5 68q130 0 189 -49.5t59 -120.5q0 -40 -11.5 -71.5t-36.5 -56.5t-45.5 -40.5t-55.5 -36.5q110 -68 110 -180q0 -49 -19 -94t-57 -84.5t-106 -63.5t-156 -24q-145 0 -210.5 55t-65.5 133zM520 225
q0 32 -22 58t-52 39q-46 -21 -76 -51t-30 -66q0 -27 20 -45.5t62 -18.5q45 0 71.5 25t26.5 59zM508 674q-40 0 -62 -22t-22 -48q0 -23 17 -48.5t48 -39.5q31 16 56.5 47.5t25.5 59.5q0 21 -15 36t-48 15z" />
    <glyph glyph-name="nine.denom" horiz-adv-x="772" 
d="M233 -39l-18 166q123 15 203.5 66.5t111.5 134.5q-96 -56 -186 -56t-142 55t-52 148q0 29 6 64q21 124 113 198t237 74q131 0 200.5 -73.5t69.5 -200.5q0 -58 -8 -107q-12 -70 -36 -130.5t-67 -119t-101 -102.5t-142.5 -75t-188.5 -42zM473 639q-51 0 -79.5 -36
t-28.5 -93q0 -80 79 -80q46 0 107 33q6 30 6 69q0 107 -84 107z" />
    <glyph glyph-name="commaaccent" horiz-adv-x="1024" 
d="M186 -535l201 431q38 -1 66.5 -4.5t62.5 -12.5t53 -29.5t19 -50.5q0 -47 -62 -129q-26 -34 -60.5 -74t-58.5 -66.5t-62.5 -67t-51.5 -54.5z" />
    <glyph glyph-name="revcommaaccent" horiz-adv-x="1024" 
d="M965 1595l-201 -434q-28 2 -43.5 3.5t-43.5 6t-44.5 11.5t-34.5 17.5t-26.5 27t-8.5 37.5q0 44 62 129q71 91 233 260z" />
    <glyph glyph-name="tilde.cap" horiz-adv-x="1024" 
d="M483 1487l9 188q97 64 188 64q58 0 146 -26.5t135 -26.5q69 0 139 36l-15 -200q-76 -39 -151 -39q-47 0 -145.5 23.5t-139.5 23.5q-84 0 -166 -43z" />
    <glyph glyph-name="ring.cap" horiz-adv-x="1024" 
d="M567 1520q0 108 65.5 174.5t172.5 66.5q87 0 131.5 -46.5t44.5 -117.5q0 -106 -67 -173.5t-169 -67.5q-87 0 -132.5 46t-45.5 118zM784 1634q-36 0 -56.5 -25t-20.5 -67q0 -27 16 -43t43 -16q34 0 55 27.5t21 64.5q0 59 -58 59z" />
    <glyph glyph-name="circumflex.cap" horiz-adv-x="1024" 
d="M535 1434l-101 94q120 120 260 239q45 38 72.5 53t64.5 15q27 0 51.5 -16.5t57.5 -51.5q72 -74 184 -239l-108 -92l-213 176z" />
    <glyph glyph-name="acute.cap" horiz-adv-x="1024" 
d="M549 1534l377 319q48 -30 80 -70.5t32 -80.5t-24 -68t-84 -59q-83 -45 -320 -139z" />
    <glyph glyph-name="grave.cap" horiz-adv-x="1024" 
d="M721 1862l319 -334l-86 -94q-2 1 -62 30t-86 42t-71.5 37.5t-75.5 43.5q-77 49 -77 107q0 50 37 89.5t102 78.5z" />
    <glyph glyph-name="dieresis.cap" horiz-adv-x="1024" 
d="M844 1583q0 70 53 120t133 50q62 0 97.5 -35t35.5 -90q0 -70 -53.5 -120t-132.5 -50q-62 0 -97.5 35t-35.5 90zM397 1583q0 70 53.5 120t133.5 50q62 0 97.5 -35t35.5 -90q0 -70 -54 -120t-133 -50q-62 0 -97.5 35t-35.5 90z" />
    <glyph glyph-name="caron.cap" horiz-adv-x="1024" 
d="M586 1835l207 -180l270 182l98 -98q-116 -119 -250 -230q-89 -77 -149 -77t-125 79q-85 106 -166 228z" />
    <glyph glyph-name="macron.cap" horiz-adv-x="1024" 
d="M446 1485l41 231h652l-41 -231h-652z" />
    <glyph glyph-name="dotaccent.cap" horiz-adv-x="1024" 
d="M618 1616q0 81 61 140t152 59q71 0 113.5 -42.5t42.5 -105.5q0 -82 -62 -138t-151 -56q-74 0 -115 39.5t-41 103.5z" />
    <glyph glyph-name="cedilla.cap" horiz-adv-x="1024" 
d="M436 6h142l-60 -125q80 -6 127 -50t47 -118q0 -52 -19.5 -92.5t-49.5 -64.5t-71.5 -39.5t-80 -21t-80.5 -5.5q-119 0 -207 41l64 137q76 -28 139 -28q109 0 109 67q0 68 -177 64z" />
    <glyph glyph-name="hungarumlaut.cap" horiz-adv-x="1024" 
d="M807 1534l377 319q48 -30 80 -70.5t32 -80.5t-24 -68t-84 -59q-83 -45 -320 -139zM340 1534l377 319q48 -30 80 -70.5t32 -80.5t-24 -68t-84 -59q-83 -45 -320 -139z" />
    <glyph glyph-name="commaaccent.cap" horiz-adv-x="1024" 
d="M186 -535l201 431q38 -1 66.5 -4.5t62.5 -12.5t53 -29.5t19 -50.5q0 -47 -62 -129q-26 -34 -60.5 -74t-58.5 -66.5t-62.5 -67t-51.5 -54.5z" />
    <glyph glyph-name="breve.cap" horiz-adv-x="1024" 
d="M1020 1835l178 -84q-53 -123 -156 -200.5t-262 -77.5q-83 0 -148 26t-103 68.5t-58.5 87.5t-26.5 92l195 80q20 -76 60.5 -114t113.5 -38q70 0 116.5 37.5t90.5 122.5z" />
    <glyph glyph-name="caron.alt" horiz-adv-x="516" 
d="M326 950l80 457q78 16 124 16q107 0 107 -82q0 -52 -62 -180q-56 -119 -129 -235z" />
    <glyph glyph-name="ogonek.cap" horiz-adv-x="1024" 
d="M446 4l211 -2q-70 -50 -130 -127.5t-60 -132.5t61 -55q45 0 103 22l28 -170q-85 -45 -217 -45q-110 0 -163.5 48.5t-53.5 123.5q0 164 221 338z" />
    <glyph glyph-name="zero.tf" 
d="M778 1346q197 0 302.5 -118.5t105.5 -340.5q0 -111 -19 -230q-29 -186 -84 -317.5t-135.5 -209.5t-178 -113t-222.5 -35q-198 0 -302 117t-104 339q0 142 19 254q31 174 91 302t142 204t177.5 112t207.5 36zM590 252q40 0 71 15.5t62 57t56.5 123t45.5 203.5
q21 138 21 226q0 190 -109 190q-53 0 -92.5 -31t-77.5 -122.5t-65 -249.5q-19 -117 -19 -220q0 -99 26.5 -145.5t80.5 -46.5z" />
    <glyph glyph-name="one.tf" 
d="M233 258h224l121 688l-236 -110l-84 225l465 258h287l-70 -252l-141 -809h217l-47 -258h-783z" />
    <glyph glyph-name="two.tf" 
d="M395 895l-147 227q267 224 528 224q177 0 275 -92.5t98 -237.5q0 -130 -58.5 -239t-191.5 -228l-303 -273h469l-51 -276h-955l37 207l516 471q89 80 125.5 136.5t36.5 123.5q0 47 -29.5 72.5t-72.5 25.5q-61 0 -125 -35.5t-152 -105.5z" />
    <glyph glyph-name="three.tf" 
d="M362 932l-122 215q86 69 235.5 134t306.5 65q172 0 259 -79.5t87 -203.5q0 -204 -217 -334q125 -169 125 -321q0 -67 -18 -128.5t-58 -117.5t-99.5 -97t-148 -65.5t-196.5 -24.5q-128 0 -252 34.5t-203 80.5l138 260q63 -37 156.5 -63.5t156.5 -26.5q77 0 127.5 35.5
t50.5 103.5q0 64 -55 156q-124 -38 -236 -55l-45 239q75 16 129.5 30t111 34.5t91.5 43t57.5 54t22.5 68.5q0 42 -26.5 62t-67.5 20q-103 0 -310 -119z" />
    <glyph glyph-name="four.tf" 
d="M842 881h196l-57 -326h168l-47 -270h-170l-49 -285h-344l49 285h-504l49 282l537 793l270 -148l-459 -657h168z" />
    <glyph glyph-name="five.tf" 
d="M266 596l217 723h715l-51 -281h-442l-70 -233q89 -8 161 -32t130.5 -67t90.5 -112t32 -160q0 -58 -12.5 -111.5t-38.5 -105t-70.5 -94t-103.5 -75t-142.5 -50.5t-183.5 -18q-119 0 -245 35t-192 81l142 260q65 -38 150 -66t153 -28q90 0 137 41.5t47 116.5q0 38 -19 68
t-54.5 48.5t-74.5 30.5t-92.5 18t-93 8t-90.5 3z" />
    <glyph glyph-name="six.tf" 
d="M1036 1382l31 -264q-87 -11 -163.5 -34.5t-148 -63t-125.5 -101.5t-81 -141q51 32 126.5 54t139.5 22q136 0 213.5 -85.5t77.5 -229.5q0 -122 -34 -223.5t-99.5 -176.5t-167.5 -117t-232 -42q-205 0 -307 119t-102 329q0 7 1 21.5t1 21.5q4 79 15.5 153.5t39.5 162
t69.5 163t109 150.5t154.5 130.5t210.5 96t271.5 55.5zM768 487q0 64 -25 99t-71 35q-33 0 -80.5 -15.5t-79.5 -34.5q-12 -102 -12 -176q0 -77 23 -116t77 -39q70 0 119 64.5t49 182.5z" />
    <glyph glyph-name="seven.tf" 
d="M285 1038l51 281h934l-41 -225q-487 -344 -586 -967l-20 -127h-361l25 143q12 64 21.5 109.5t29.5 119.5t43 132t61 133t82.5 138.5t109 133t140.5 129.5h-489z" />
    <glyph glyph-name="eight.tf" 
d="M121 289q0 72 24 134.5t68.5 113t86.5 85t101 72.5q-129 109 -129 250q0 172 135 287t365 115q100 0 175 -23.5t118 -64t63.5 -89t20.5 -104.5q0 -104 -63 -194t-166 -158q167 -132 167 -297q0 -91 -33 -168t-98 -138t-174 -95.5t-250 -34.5q-112 0 -195.5 27t-128.5 73
t-66 98t-21 111zM725 377q0 29 -9.5 54t-30 48.5t-38 39t-47.5 38.5q-48 -37 -76 -63.5t-53 -69.5t-25 -88q0 -49 30 -81t93 -32q70 0 113 44.5t43 109.5zM741 1120q-59 0 -97 -34t-38 -93q0 -75 105 -151q131 91 131 190q0 46 -29.5 67t-71.5 21z" />
    <glyph glyph-name="nine.tf" 
d="M291 -33l-25 256q394 49 490 312q-105 -62 -240 -62q-146 0 -223.5 87t-77.5 235q0 248 144 399.5t395 151.5q136 0 228 -57.5t132.5 -152.5t40.5 -223q0 -407 -217 -655.5t-647 -290.5zM553 836q0 -62 25.5 -96.5t74.5 -34.5q32 0 77 14t75 35q18 88 18 180
q0 75 -24.5 113t-79.5 38q-69 0 -117.5 -65t-48.5 -184z" />
    <glyph glyph-name="dollar.tf" 
d="M63 141l156 265q66 -46 167.5 -85.5t178.5 -39.5q69 0 112.5 28.5t43.5 91.5q0 14 -3.5 27t-12 24.5t-16.5 20t-24 18.5t-26.5 16t-32 15t-33.5 14t-37.5 14.5t-37.5 14.5q-56 21 -97 45t-81 63t-61 97.5t-21 134.5q0 179 107.5 287t293.5 133l33 205h317l-37 -232
q161 -54 262 -170l-198 -206q-158 133 -285 133q-61 0 -98 -25.5t-37 -75.5q0 -20 4 -36.5t16 -30.5t22.5 -23.5t34 -22t39 -19.5t50.5 -22t55 -24q46 -20 79.5 -38t71.5 -47.5t62.5 -63t40.5 -82.5t16 -107q0 -163 -98.5 -275.5t-267.5 -152.5l-37 -211h-317l34 205
q-109 19 -200.5 58.5t-137.5 78.5z" />
    <glyph glyph-name="Euro.tf" 
d="M168 539l45 254h213q-35 20 -56.5 67.5t-21.5 102.5q0 127 69 215t180.5 128t256.5 40q109 0 231.5 -47t194.5 -125l-188 -207q-110 102 -248 102q-81 0 -135 -36.5t-54 -112.5q0 -51 36.5 -89t117.5 -38h264l-45 -254h-258q-42 0 -78 -8t-68 -25.5t-50.5 -50
t-18.5 -76.5q0 -62 43.5 -101.5t122.5 -39.5q150 0 319 104l97 -229q-126 -82 -243.5 -115t-260.5 -33q-214 0 -317 81.5t-103 213.5q0 94 42 158t126 121h-213z" />
    <glyph glyph-name="cent.tf" 
d="M725 369q49 0 94.5 25.5t102.5 76.5l163 -201q-126 -126 -292 -157l-41 -236h-318l43 248q-118 42 -181 146.5t-63 263.5q0 139 34.5 252.5t95.5 188.5t135 122.5t161 68.5l43 236h318l-43 -246q140 -61 205 -203l-224 -147q-32 57 -67 87t-86 30q-107 0 -169.5 -101
t-62.5 -254q0 -101 35.5 -150.5t116.5 -49.5z" />
    <glyph glyph-name="sterling.tf" 
d="M70 262l41 230h178l172 446q90 235 199.5 321.5t308.5 86.5q71 0 135 -19t110 -50.5t75.5 -58.5t51.5 -55l-196 -184q-90 102 -178 102q-71 0 -112.5 -42t-82.5 -148l-154 -399h283l-39 -228h-327l-39 -96q-69 -166 -211 -266l2 -6q103 34 184 34q65 0 176 -20.5
t172 -20.5q95 0 172 29l-82 -276q-103 -15 -155 -15q-98 0 -285.5 36t-288.5 36q-152 0 -313 -72l45 267q81 29 137 79.5t96 145.5l62 143h-137z" />
    <glyph glyph-name="yen.tf" 
d="M420 256h-275l35 201h277l22 127h-276l37 200h166l-168 535h340l118 -477h9l299 477h352l-373 -535h162l-35 -200h-281l-22 -127h280l-36 -201h-279l-45 -256h-350z" />
    <glyph glyph-name="florin.tf" horiz-adv-x="991" 
d="M186 528l90 269h240l53 168q24 73 46 123t59.5 103t83.5 84t116 51t160 20q92 0 185 -30t153 -71l-133 -198q-69 43 -158 43q-125 0 -176 -146l-51 -147h285l-95 -269h-282l-180 -553q-26 -81 -53 -139.5t-66 -111t-87 -85t-114.5 -51t-150.5 -18.5q-214 0 -336 88
l123 219q30 -21 78.5 -36t91.5 -15q64 0 104 30.5t64 104.5l184 567h-234z" />
    <glyph glyph-name="zero.osf" horiz-adv-x="1112" 
d="M731 1079q201 0 324 -119t123 -327q0 -310 -161.5 -488t-438.5 -178q-224 0 -340.5 120t-116.5 325q0 311 166.5 489t443.5 178zM600 219q54 0 95.5 30t65.5 75t39.5 105t21 112t5.5 104q0 89 -34 133.5t-95 44.5q-66 0 -114 -43t-71.5 -113.5t-33.5 -138t-10 -137.5
q0 -84 34 -128t97 -44z" />
    <glyph glyph-name="one.osf" horiz-adv-x="1019" 
d="M211 258h240l71 414l-231 -107l-86 226l465 256h284l-65 -250l-94 -539h233l-47 -258h-815z" />
    <glyph glyph-name="two.osf" horiz-adv-x="1044" 
d="M319 647l-143 205q263 227 541 227q173 0 268.5 -79t95.5 -214q0 -141 -70 -236t-233 -198l-143 -90h407l-45 -262h-960l35 193l440 303q113 77 157 122t44 101q0 38 -23.5 59t-68.5 21q-59 0 -132.5 -39.5t-169.5 -112.5z" />
    <glyph glyph-name="three.osf" horiz-adv-x="997" 
d="M799 459q125 -154 125 -293q0 -75 -21.5 -139t-80 -130t-153.5 -115.5t-252.5 -89.5t-365.5 -59l-12 261q284 37 408 95.5t124 157.5q0 72 -53 144q-106 -34 -231 -55l-43 239q401 78 401 242q0 32 -19.5 53t-60.5 21q-50 0 -133 -33t-166 -80l-116 217q61 43 128.5 79.5
t179.5 70.5t218 34q161 0 249.5 -82t88.5 -206q0 -209 -215 -332z" />
    <glyph glyph-name="four.osf" horiz-adv-x="1128" 
d="M850 596h197l-58 -326h168l-47 -270h-170l-55 -330h-344l55 330h-504l49 283l537 792l270 -147l-459 -658h168z" />
    <glyph glyph-name="five.osf" horiz-adv-x="993" 
d="M156 336l217 711h719l-48 -263h-436l-63 -206q188 -14 299.5 -102t111.5 -247q0 -120 -51.5 -219t-158.5 -178.5t-285 -132t-418 -72.5l-23 264q310 39 442 113t132 195q0 42 -26.5 72.5t-72.5 45t-94.5 21t-105.5 6.5q-69 0 -139 -8z" />
    <glyph glyph-name="six.osf" horiz-adv-x="1126" 
d="M1057 1382l30 -264q-87 -11 -163.5 -34.5t-148 -63t-125.5 -101.5t-81 -141q51 32 127 54t140 22q136 0 213 -85.5t77 -229.5q0 -122 -34 -223.5t-99 -176.5t-167 -117t-232 -42q-205 0 -307.5 119t-102.5 329q0 7 1 21.5t1 21.5q4 79 15.5 153.5t39.5 162t69.5 163
t109.5 150.5t155 130.5t210.5 96t271.5 55.5zM788 487q0 64 -25 99t-71 35q-33 0 -80.5 -15.5t-79.5 -34.5q-12 -102 -12 -176q0 -155 101 -155q69 0 118 64.5t49 182.5z" />
    <glyph glyph-name="seven.osf" horiz-adv-x="1060" 
d="M160 766l49 281h948l-39 -226l-786 -1151h-377l756 1096h-551z" />
    <glyph glyph-name="eight.osf" horiz-adv-x="1122" 
d="M147 289q0 72 24 134.5t69 113t87 84.5t101 73q-129 109 -129 250q0 172 135 287t365 115q100 0 175 -23.5t118 -64t63.5 -89t20.5 -104.5q0 -104 -63 -193.5t-167 -158.5q168 -132 168 -297q0 -91 -33 -168t-98 -138t-174 -95.5t-250 -34.5q-112 0 -195.5 27t-129 73
t-66.5 98t-21 111zM752 377q0 29 -9.5 54t-30 48.5t-38 39t-47.5 38.5q-48 -37 -76 -63.5t-53 -69.5t-25 -88q0 -49 30 -81t93 -32q70 0 113 44.5t43 109.5zM768 1120q-59 0 -97 -34t-38 -93q0 -76 104 -151q131 91 131 190q0 46 -29 67t-71 21z" />
    <glyph glyph-name="nine.osf" horiz-adv-x="1126" 
d="M266 -299l-24 256q393 49 489 311q-103 -61 -239 -61q-146 0 -224 86.5t-78 234.5q0 248 144 399.5t395 151.5q103 0 181 -32.5t125.5 -91t71 -136t23.5 -172.5q0 -407 -217 -655.5t-647 -290.5zM528 569q0 -62 26 -96.5t75 -34.5q32 0 76.5 14t74.5 35q19 93 19 181
q0 151 -105 151q-69 0 -117.5 -65t-48.5 -185z" />
    <glyph glyph-name="dollar.osf" 
d="M51 141l156 265q66 -46 167.5 -85.5t178.5 -39.5q69 0 112.5 28.5t43.5 91.5q0 14 -3.5 27t-12 24t-16.5 20t-24 19t-27 16t-32.5 15t-33.5 14t-37.5 14.5t-37.5 14.5q-56 21 -97 45t-81 63t-61 97.5t-21 134.5q0 179 108 287t294 133l32 205h318l-37 -232
q161 -54 262 -170l-198 -206q-158 133 -285 133q-61 0 -98 -25.5t-37 -75.5q0 -20 4 -36.5t16 -30.5t22.5 -23.5t34 -22t39 -19.5t50.5 -22t55 -24q46 -20 79.5 -38t71.5 -47.5t62.5 -63t40.5 -82.5t16 -107q0 -163 -98.5 -275.5t-267.5 -152.5l-37 -211h-318l35 205
q-109 19 -200.5 58.5t-137.5 78.5z" />
    <glyph glyph-name="Euro.osf" horiz-adv-x="1124" 
d="M168 539l45 254h213q-35 20 -56.5 67.5t-21.5 102.5q0 127 69 215t180.5 128t256.5 40q109 0 231.5 -47t194.5 -125l-188 -207q-110 102 -248 102q-81 0 -135 -36.5t-54 -112.5q0 -51 36.5 -89t117.5 -38h264l-45 -254h-258q-42 0 -78 -8t-68 -25.5t-50.5 -50
t-18.5 -76.5q0 -62 43.5 -101.5t122.5 -39.5q150 0 319 104l97 -229q-126 -82 -243.5 -115t-260.5 -33q-214 0 -317 81.5t-103 213.5q0 94 42 158t126 121h-213z" />
    <glyph glyph-name="cent.osf" 
d="M705 225q49 0 93.5 25.5t102.5 77.5l164 -201q-127 -127 -293 -158l-41 -235h-317l43 248q-118 42 -181 146t-63 263q0 139 34.5 252.5t95.5 189t135 123t161 68.5l43 236h317l-43 -246q140 -61 205 -203l-223 -147q-31 56 -67 86t-87 30q-107 0 -169 -100.5t-62 -253.5
q0 -101 35.5 -151t116.5 -50z" />
    <glyph glyph-name="sterling.osf" horiz-adv-x="1114" 
d="M137 262l41 230h178l172 446q90 235 199.5 321.5t308.5 86.5q71 0 135 -19t110.5 -50.5t76.5 -58.5t51 -55l-197 -184q-90 102 -178 102q-71 0 -112 -42t-82 -148l-154 -399h283l-39 -228h-328l-39 -96q-69 -166 -211 -266l2 -6q103 34 185 34q65 0 176 -20.5t172 -20.5
q95 0 172 29l-82 -276q-103 -15 -156 -15q-98 0 -285 36t-288 36q-153 0 -314 -72l46 267q81 29 137 79.5t96 145.5l61 143h-137z" />
    <glyph glyph-name="yen.osf" horiz-adv-x="1058" 
d="M385 256h-274l34 201h277l22 127h-276l37 200h166l-168 535h340l119 -477h8l299 477h352l-373 -535h162l-35 -200h-280l-23 -127h281l-37 -201h-279l-45 -256h-350z" />
    <glyph glyph-name="florin.osf" horiz-adv-x="1054" 
d="M174 528l90 269h240l53 168q24 73 46 123t59.5 103t83.5 84t116 51t160 20q92 0 185 -30t153 -71l-133 -198q-69 43 -158 43q-125 0 -176 -146l-51 -147h284l-94 -269h-282l-181 -553q-26 -81 -53 -139.5t-66 -111t-87 -85t-114.5 -51t-150.5 -18.5q-214 0 -336 88
l123 219q30 -21 78.5 -36t91.5 -15q64 0 104 30.5t64 104.5l185 567h-234z" />
    <glyph glyph-name="dollar.tosf" 
d="M45 141l156 265q66 -46 167.5 -85.5t178.5 -39.5q68 0 111.5 28.5t43.5 91.5q0 14 -3.5 27t-12 24.5t-16.5 20t-24 18.5t-26.5 16t-32 15t-33.5 14t-37.5 14.5t-37.5 14.5q-56 21 -97 45t-81 63t-61 97.5t-21 134.5q0 179 108 287t294 133l32 205h318l-37 -232
q161 -54 262 -170l-199 -206q-158 133 -284 133q-61 0 -98 -25.5t-37 -75.5q0 -20 4 -36.5t16 -30.5t22.5 -23.5t34 -22t39 -19.5t50.5 -22t55 -24q46 -20 79.5 -38t71.5 -47.5t62.5 -63t40.5 -82.5t16 -107q0 -163 -99 -275t-268 -153l-36 -211h-318l35 205
q-109 19 -200.5 58.5t-137.5 78.5z" />
    <glyph glyph-name="Euro.tosf" 
d="M168 539l45 254h213q-35 20 -56.5 67.5t-21.5 102.5q0 127 69 215t180.5 128t256.5 40q109 0 231.5 -47t194.5 -125l-188 -207q-110 102 -248 102q-81 0 -135 -36.5t-54 -112.5q0 -51 36.5 -89t117.5 -38h264l-45 -254h-258q-42 0 -78 -8t-68 -25.5t-50.5 -50
t-18.5 -76.5q0 -62 43.5 -101.5t122.5 -39.5q150 0 319 104l97 -229q-126 -82 -243.5 -115t-260.5 -33q-214 0 -317 81.5t-103 213.5q0 94 42 158t126 121h-213z" />
    <glyph glyph-name="cent.tosf" 
d="M702 225q49 0 94.5 25.5t102.5 77.5l164 -201q-127 -127 -293 -158l-41 -235h-317l43 248q-118 42 -181 146t-63 263q0 139 34.5 252.5t95.5 189t135 123t161 68.5l43 236h317l-43 -246q140 -61 205 -203l-223 -147q-31 56 -67 86t-87 30q-107 0 -169 -100.5t-62 -253.5
q0 -102 35 -151.5t116 -49.5z" />
    <glyph glyph-name="sterling.tosf" 
d="M96 262l41 230h178l172 446q90 235 199.5 321.5t308.5 86.5q71 0 135 -19t110.5 -50.5t76.5 -58.5t51 -55l-197 -184q-90 102 -178 102q-71 0 -112 -42t-82 -148l-154 -399h283l-39 -228h-328l-39 -96q-69 -166 -211 -266l2 -6q103 34 185 34q65 0 176 -20.5t172 -20.5
q95 0 172 29l-82 -276q-103 -15 -156 -15q-98 0 -285 36t-288 36q-152 0 -313 -72l45 267q81 29 137 79.5t96 145.5l61 143h-137z" />
    <glyph glyph-name="yen.tosf" 
d="M397 256h-274l35 201h276l23 127h-277l37 200h166l-168 535h340l119 -477h8l299 477h352l-372 -535h161l-35 -200h-280l-23 -127h281l-37 -201h-278l-45 -256h-351z" />
    <glyph glyph-name="florin.tosf" 
d="M162 528l90 269h240l53 168q24 73 46 123t59.5 103t83.5 84t116 51t160 20q92 0 185 -30t153 -71l-134 -198q-69 43 -157 43q-125 0 -176 -146l-52 -147h285l-94 -269h-283l-180 -553q-26 -81 -53 -139.5t-66 -111t-87 -85t-114.5 -51t-150.5 -18.5q-214 0 -336 88
l123 219q30 -21 78.5 -36t91.5 -15q64 0 104 30.5t64 104.5l184 567h-233z" />
    <glyph glyph-name="a.alt" horiz-adv-x="1075" 
d="M311 776l-24 238q73 25 195.5 45t232.5 20q185 0 268.5 -62.5t83.5 -207.5q0 -57 -12 -131l-72 -410q-6 -37 2 -54t35 -17q17 0 61 14v-191q-103 -47 -217 -47q-74 0 -120 36t-52 97q-150 -133 -319 -133q-136 0 -207.5 77t-71.5 208q0 109 32.5 184.5t97 116.5t146 58.5
t193.5 17.5q80 0 152 -8l10 65q6 30 6 56q0 44 -24 60.5t-74 16.5q-62 0 -156 -13.5t-166 -35.5zM651 258l29 174q-36 6 -90 6q-75 0 -116.5 -27t-41.5 -108q0 -92 82 -92q73 0 137 47z" />
    <glyph glyph-name="e.alt" horiz-adv-x="1019" 
d="M729 1079q163 0 268 -87t105 -234q0 -83 -20.5 -171t-43.5 -143h-569q-3 -113 40.5 -164t141.5 -51q132 0 271 84l73 -233q-2 -2 -21 -12.5t-59 -28t-89 -33.5t-118.5 -27.5t-138.5 -11.5q-115 0 -201.5 35t-137 97.5t-75 142t-24.5 174.5q0 133 36 250t107 210.5
t188 148t267 54.5zM692 829q-77 0 -128 -49t-68 -145h280q21 56 21 104q0 42 -27 66t-78 24z" />
    <glyph glyph-name="g.alt" horiz-adv-x="1046" 
d="M1034 709q0 -170 -123 -273.5t-327 -103.5q-42 0 -92 8l-43 -86l180 -27q87 -13 146.5 -26t115 -35t88 -51.5t51.5 -72.5t19 -101q0 -176 -152.5 -288t-441.5 -112q-228 0 -336.5 60.5t-108.5 165.5q0 48 13.5 87t44.5 73t61 58t82 60q-110 55 -12 201l94 139
q-59 40 -92 117.5t-33 152.5q0 196 126.5 310t346.5 114q161 0 258 -53l330 41l-39 -231l-191 20l-10 -14q19 -24 32 -61t13 -72zM565 -45l-157 25q-53 -39 -77 -67.5t-24 -68.5q0 -86 193 -86q97 0 149.5 26.5t52.5 90.5q0 37 -30.5 53t-106.5 27zM586 537q67 0 105 59.5
t38 165.5q0 117 -90 117q-139 0 -139 -228q0 -114 86 -114z" />
    <glyph glyph-name="k.alt" horiz-adv-x="1089" 
d="M696 1423l-161 -897h6l370 523h363l-365 -498l162 -551h-364l-80 295l-224 -295h-294l251 1423h336z" />
    <glyph glyph-name="v.alt" horiz-adv-x="1114" 
d="M879 1049h401l-483 -1049h-457l-137 1049h377l20 -727h12z" />
    <glyph glyph-name="w.alt" horiz-adv-x="1519" 
d="M1313 1049h375l-418 -1049h-396l-16 557h-4l-215 -557h-383l-57 1049h372l-4 -623h8l224 623h288l21 -627h6z" />
    <glyph glyph-name="y.alt" horiz-adv-x="1038" 
d="M856 1049h365l-531 -1053q-129 -258 -247.5 -356.5t-311.5 -98.5q-80 0 -159.5 24.5t-129.5 57.5l119 240q88 -47 166 -47q63 0 102 26t76 92l47 80l-170 1035h359l45 -617h6z" />
    <glyph glyph-name="z.alt" horiz-adv-x="950" 
d="M911 0h-860l39 215l512 565h-387l45 269h819l-37 -209l-514 -570h430z" />
    <glyph glyph-name="ae.alt" horiz-adv-x="1560" 
d="M512 213q81 0 168 68q-10 64 -4 159q-20 2 -60 2t-70 -5t-57.5 -19t-42 -42.5t-14.5 -70.5q0 -92 80 -92zM1247 840q-75 0 -132 -59t-79 -158h281q24 60 24 112q0 105 -94 105zM1321 1079q141 0 231 -83t90 -228q0 -82 -23.5 -173.5t-49.5 -150.5h-559
q-17 -110 32 -166.5t150 -56.5q134 0 274 88l60 -229q-2 -2 -20.5 -12.5t-58.5 -28t-88 -33.5t-115 -27.5t-134 -11.5q-260 0 -369 154q-81 -70 -169 -109t-207 -39q-133 0 -202 74t-69 209q0 205 129 293t383 88q56 0 111 -6l8 61q14 74 -9.5 103.5t-84.5 29.5t-157 -19.5
t-171 -51.5l-14 245q230 80 426 80q199 0 270 -129q132 129 336 129z" />
    <glyph glyph-name="oe.alt" horiz-adv-x="1642" 
d="M1372 1079q157 0 254.5 -82.5t97.5 -228.5q0 -83 -24 -175t-51 -149h-557q-17 -111 32 -167t150 -56q131 0 270 84l68 -225q-2 -2 -20 -12.5t-57 -28t-85.5 -33.5t-111.5 -27.5t-130 -11.5q-220 0 -338 142q-148 -142 -348 -142q-190 0 -293.5 106.5t-103.5 303.5
q0 98 12 166q22 124 67.5 220t101 154.5t126 96t137 51.5t138.5 14q89 0 171.5 -36.5t127.5 -104.5q62 63 159.5 102t206.5 39zM573 217q75 0 122 69t73 220q16 88 16 170q0 158 -102 158q-142 0 -190 -265q-19 -105 -19 -188q0 -164 100 -164zM1329 840q-76 0 -132.5 -59
t-78.5 -158h281q24 63 24 116q0 101 -94 101z" />
    <glyph glyph-name="ampersand.alt" horiz-adv-x="1466" 
d="M766 985q0 -40 19.5 -89t46.5 -91.5t70 -94.5t74 -85.5t75 -77.5q44 91 59 252h293q-20 -256 -141 -453q123 -117 213 -186l-234 -252q-92 73 -223 194q-173 -135 -438 -135q-91 0 -165 21t-122 56t-80.5 82.5t-46.5 99t-14 108.5q0 167 81 278t232 193q-45 70 -45 174
q0 179 131 292t338 113q289 0 407 -237l-254 -148q-59 129 -151 129q-60 0 -92.5 -39.5t-32.5 -103.5zM629 229q109 0 186 66q-143 143 -229 280q-51 -33 -83 -84.5t-32 -115.5q0 -65 40.5 -105.5t117.5 -40.5z" />
    <glyph glyph-name="Q.alt" horiz-adv-x="1363" 
d="M1417 653q-45 -261 -171 -421t-318 -220q36 -11 81 -29.5t78 -34t78.5 -32t83 -24.5t91.5 -12t104 7l-82 -264q-20 -2 -62 -2q-78 0 -154 20t-137.5 49t-120.5 58.5t-124.5 50.5t-126.5 23q-84 0 -143 -12l65 176q-188 29 -288.5 163t-100.5 353q0 112 16 211
q27 152 84.5 271t131 193t165.5 122.5t182 67.5t187 19q103 0 191 -31.5t157 -94t108.5 -165t39.5 -235.5q0 -112 -15 -207zM553 705q-16 -85 -16 -170q0 -269 198 -269q68 0 123.5 31.5t93.5 88t62.5 124.5t38.5 149q12 71 12 160q0 44 -5.5 81.5t-19 74t-34.5 62.5
t-54.5 41.5t-77.5 15.5q-54 0 -100.5 -21t-81.5 -57t-63 -86.5t-46.5 -106t-29.5 -118.5z" />
    <glyph glyph-name="Euro.alt" 
d="M756 264q118 0 241 90l125 -223q-199 -156 -444 -156q-212 0 -321 117.5t-109 347.5q0 28 4 86h-150l45 262h140q24 126 73.5 225t110.5 160.5t136 101.5t145.5 55.5t144.5 15.5q129 0 235 -60.5t166 -175.5l-239 -170q-70 113 -185 113q-190 0 -243 -265h336l-45 -262
h-330q-4 -46 -4 -65q0 -197 168 -197z" />
    <glyph glyph-name="Euro_tf.alt" 
d="M756 264q118 0 241 90l125 -223q-199 -156 -444 -156q-212 0 -321 117.5t-109 347.5q0 28 4 86h-150l45 262h140q24 126 73.5 225t110.5 160.5t136 101.5t145.5 55.5t144.5 15.5q129 0 235 -60.5t166 -175.5l-239 -170q-70 113 -185 113q-190 0 -243 -265h336l-45 -262
h-330q-4 -46 -4 -65q0 -197 168 -197z" />
    <glyph glyph-name="amacron.alt" horiz-adv-x="1075" 
d="M311 776l-24 238q73 25 195.5 45t232.5 20q185 0 268.5 -62.5t83.5 -207.5q0 -57 -12 -131l-72 -410q-6 -37 2 -54t35 -17q17 0 61 14v-191q-103 -47 -217 -47q-74 0 -120 36t-52 97q-150 -133 -319 -133q-136 0 -207.5 77t-71.5 208q0 109 32.5 184.5t97 116.5t146 58.5
t193.5 17.5q80 0 152 -8l10 65q6 30 6 56q0 44 -24 60.5t-74 16.5q-62 0 -156 -13.5t-166 -35.5zM651 258l29 174q-36 6 -90 6q-75 0 -116.5 -27t-41.5 -108q0 -92 82 -92q73 0 137 47zM385 1266l41 231h649l-41 -231h-649z" />
    <glyph glyph-name="abreve.alt" horiz-adv-x="1075" 
d="M311 776l-24 238q73 25 195.5 45t232.5 20q185 0 268.5 -62.5t83.5 -207.5q0 -57 -12 -131l-72 -410q-6 -37 2 -54t35 -17q17 0 61 14v-191q-103 -47 -217 -47q-74 0 -120 36t-52 97q-150 -133 -319 -133q-136 0 -207.5 77t-71.5 208q0 109 32.5 184.5t97 116.5t146 58.5
t193.5 17.5q80 0 152 -8l10 65q6 30 6 56q0 44 -24 60.5t-74 16.5q-62 0 -156 -13.5t-166 -35.5zM651 258l29 174q-36 6 -90 6q-75 0 -116.5 -27t-41.5 -108q0 -92 82 -92q73 0 137 47zM934 1579l184 -47q-55 -155 -153 -235t-258 -80q-84 0 -147.5 27.5t-100 74.5
t-55.5 100t-23 113l182 47q18 -88 58.5 -125t113.5 -37q65 0 110.5 36t88.5 126z" />
    <glyph glyph-name="aogonek.alt" horiz-adv-x="1075" 
d="M307 754l-18 245q83 30 201 55t225 25q185 0 268.5 -62.5t83.5 -207.5q0 -57 -12 -131l-72 -410q-6 -37 2 -54t35 -17q17 0 61 14v-191q-85 -49 -153 -128.5t-68 -149.5q0 -55 62 -55q44 0 102 22l29 -170q-85 -45 -217 -45q-110 0 -164 48.5t-54 123.5q0 156 191 314
q-51 12 -81.5 45.5t-35.5 80.5q-150 -133 -319 -133q-137 0 -208 78t-71 213q0 85 25 150t68 106.5t107 67.5t136 36.5t162 10.5q51 0 123 -8l10 65q6 30 6 56q0 44 -24 60.5t-74 16.5q-55 0 -150 -21t-176 -50zM651 258l31 184q-42 7 -90 7q-160 0 -160 -146q0 -98 82 -98
q64 0 137 53z" />
    <glyph glyph-name="emacron.alt" horiz-adv-x="1019" 
d="M729 1079q-150 0 -267 -54.5t-188 -148t-107 -210.5t-36 -250q0 -95 24.5 -174.5t75 -142t137 -97.5t201.5 -35q69 0 138.5 11.5t118.5 27.5t89 33.5t59 28t21 12.5l-73 233q-139 -84 -271 -84q-98 0 -141.5 51t-40.5 164h569q23 55 43.5 143t20.5 171q0 147 -105 234
t-268 87zM692 829q51 0 78 -24t27 -66q0 -48 -21 -104h-280q17 96 68 145t128 49zM430 1266l41 231h649l-41 -231h-649z" />
    <glyph glyph-name="ebreve.alt" horiz-adv-x="1019" 
d="M729 1079q-150 0 -267 -54.5t-188 -148t-107 -210.5t-36 -250q0 -95 24.5 -174.5t75 -142t137 -97.5t201.5 -35q69 0 138.5 11.5t118.5 27.5t89 33.5t59 28t21 12.5l-73 233q-139 -84 -271 -84q-98 0 -141.5 51t-40.5 164h569q23 55 43.5 143t20.5 171q0 147 -105 234
t-268 87zM692 829q51 0 78 -24t27 -66q0 -48 -21 -104h-280q17 96 68 145t128 49zM993 1579l185 -47q-55 -155 -153.5 -235t-258.5 -80q-84 0 -147.5 27.5t-100 74.5t-55.5 100t-23 113l183 47q18 -88 58.5 -125t113.5 -37q64 0 109.5 36t88.5 126z" />
    <glyph glyph-name="edotaccent.alt" horiz-adv-x="1019" 
d="M729 1079q-150 0 -267 -54.5t-188 -148t-107 -210.5t-36 -250q0 -95 24.5 -174.5t75 -142t137 -97.5t201.5 -35q69 0 138.5 11.5t118.5 27.5t89 33.5t59 28t21 12.5l-73 233q-139 -84 -271 -84q-98 0 -141.5 51t-40.5 164h569q23 55 43.5 143t20.5 171q0 147 -105 234
t-268 87zM692 829q51 0 78 -24t27 -66q0 -48 -21 -104h-280q17 96 68 145t128 49zM594 1319q0 81 61 140t152 59q70 0 113 -42t43 -104q0 -82 -62 -138t-153 -56q-72 0 -113 39t-41 102z" />
    <glyph glyph-name="eogonek.alt" horiz-adv-x="1019" 
d="M729 1079q163 0 268 -87t105 -234q0 -83 -20.5 -171t-43.5 -143h-569q-3 -113 40.5 -164t141.5 -51q132 0 271 84l73 -233q-6 -6 -143 -78q-75 -39 -141 -118t-66 -142q0 -55 62 -55q44 0 102 22l29 -170q-85 -45 -217 -45q-110 0 -164 48.5t-54 123.5q0 143 177 301h-11
q-115 0 -201.5 35t-137 97.5t-75 142t-24.5 174.5q0 133 36 250t107 210.5t188 148t267 54.5zM692 829q-77 0 -128 -49t-68 -145h280q21 56 21 104q0 42 -27 66t-78 24z" />
    <glyph glyph-name="ecaron.alt" horiz-adv-x="1019" 
d="M729 1079q-150 0 -267 -54.5t-188 -148t-107 -210.5t-36 -250q0 -95 24.5 -174.5t75 -142t137 -97.5t201.5 -35q69 0 138.5 11.5t118.5 27.5t89 33.5t59 28t21 12.5l-73 233q-139 -84 -271 -84q-98 0 -141.5 51t-40.5 164h569q23 55 43.5 143t20.5 171q0 147 -105 234
t-268 87zM692 829q51 0 78 -24t27 -66q0 -48 -21 -104h-280q17 96 68 145t128 49zM1085 1628l105 -88q-162 -188 -279 -297q-51 -48 -79 -64t-70 -16q-44 0 -65.5 15.5t-57.5 64.5q-102 152 -178 297l119 86l217 -215z" />
    <glyph glyph-name="gcircumflex.alt" horiz-adv-x="1046" 
d="M1034 709q0 -170 -123 -273.5t-327 -103.5q-42 0 -92 8l-43 -86l180 -27q87 -13 146.5 -26t115 -35t88 -51.5t51.5 -72.5t19 -101q0 -176 -152.5 -288t-441.5 -112q-228 0 -336.5 60.5t-108.5 165.5q0 48 13.5 87t44.5 73t61 58t82 60q-110 55 -12 201l94 139
q-59 40 -92 117.5t-33 152.5q0 196 126.5 310t346.5 114q161 0 258 -53l330 41l-39 -231l-191 20l-10 -14q19 -24 32 -61t13 -72zM565 -45l-157 25q-53 -39 -77 -67.5t-24 -68.5q0 -86 193 -86q97 0 149.5 26.5t52.5 90.5q0 37 -30.5 53t-106.5 27zM586 537q67 0 105 59.5
t38 165.5q0 117 -90 117q-139 0 -139 -228q0 -114 86 -114zM444 1163l-104 88q127 155 276 297q55 49 82 64.5t68 15.5q44 0 65.5 -15.5t57.5 -64.5q84 -123 176 -297l-113 -86l-219 217z" />
    <glyph glyph-name="gbreve.alt" horiz-adv-x="1046" 
d="M1034 709q0 -170 -123 -273.5t-327 -103.5q-42 0 -92 8l-43 -86l180 -27q87 -13 146.5 -26t115 -35t88 -51.5t51.5 -72.5t19 -101q0 -176 -152.5 -288t-441.5 -112q-228 0 -336.5 60.5t-108.5 165.5q0 48 13.5 87t44.5 73t61 58t82 60q-110 55 -12 201l94 139
q-59 40 -92 117.5t-33 152.5q0 196 126.5 310t346.5 114q161 0 258 -53l330 41l-39 -231l-191 20l-10 -14q19 -24 32 -61t13 -72zM565 -45l-157 25q-53 -39 -77 -67.5t-24 -68.5q0 -86 193 -86q97 0 149.5 26.5t52.5 90.5q0 37 -30.5 53t-106.5 27zM586 537q67 0 105 59.5
t38 165.5q0 117 -90 117q-139 0 -139 -228q0 -114 86 -114zM922 1579l184 -47q-55 -155 -153.5 -235t-258.5 -80q-84 0 -147 27.5t-99.5 74.5t-55.5 100t-23 113l182 47q18 -88 58.5 -125t113.5 -37q65 0 110.5 36t88.5 126z" />
    <glyph glyph-name="gdotaccent.alt" horiz-adv-x="1046" 
d="M1034 709q0 -170 -123 -273.5t-327 -103.5q-42 0 -92 8l-43 -86l180 -27q87 -13 146.5 -26t115 -35t88 -51.5t51.5 -72.5t19 -101q0 -176 -152.5 -288t-441.5 -112q-228 0 -336.5 60.5t-108.5 165.5q0 48 13.5 87t44.5 73t61 58t82 60q-110 55 -12 201l94 139
q-59 40 -92 117.5t-33 152.5q0 196 126.5 310t346.5 114q161 0 258 -53l330 41l-39 -231l-191 20l-10 -14q19 -24 32 -61t13 -72zM565 -45l-157 25q-53 -39 -77 -67.5t-24 -68.5q0 -86 193 -86q97 0 149.5 26.5t52.5 90.5q0 37 -30.5 53t-106.5 27zM586 537q67 0 105 59.5
t38 165.5q0 117 -90 117q-139 0 -139 -228q0 -114 86 -114zM522 1319q0 81 61 140t152 59q70 0 113 -42t43 -104q0 -82 -62 -138t-153 -56q-72 0 -113 39t-41 102z" />
    <glyph glyph-name="gcommaaccent.alt" horiz-adv-x="1046" 
d="M1034 709q0 -170 -123 -273.5t-327 -103.5q-42 0 -92 8l-43 -86l180 -27q87 -13 146.5 -26t115 -35t88 -51.5t51.5 -72.5t19 -101q0 -176 -152.5 -288t-441.5 -112q-228 0 -336.5 60.5t-108.5 165.5q0 48 13.5 87t44.5 73t61 58t82 60q-110 55 -12 201l94 139
q-59 40 -92 117.5t-33 152.5q0 196 126.5 310t346.5 114q161 0 258 -53l330 41l-39 -231l-191 20l-10 -14q19 -24 32 -61t13 -72zM565 -45l-157 25q-53 -39 -77 -67.5t-24 -68.5q0 -86 193 -86q97 0 149.5 26.5t52.5 90.5q0 37 -30.5 53t-106.5 27zM586 537q67 0 105 59.5
t38 165.5q0 117 -90 117q-139 0 -139 -228q0 -114 86 -114zM948 1595l-200 -434q-28 2 -43.5 3.5t-43.5 6t-44.5 11.5t-34.5 17.5t-26.5 27t-8.5 37.5q0 45 61 129q67 85 234 260z" />
    <glyph glyph-name="kcommaaccent.alt" horiz-adv-x="1089" 
d="M696 1423l-161 -897h6l370 523h363l-365 -498l162 -551h-364l-80 295l-224 -295h-294l251 1423h336zM467 -104l-201 -431l107 -57q13 14 51.5 54.5t62.5 67t58.5 66.5t60.5 74q62 82 62 129q0 30 -19 50.5t-53 29.5t-62.5 12.5t-66.5 4.5z" />
    <glyph glyph-name="wcircumflex.alt" horiz-adv-x="1519" 
d="M1313 1049h375l-418 -1049h-396l-16 557h-4l-215 -557h-383l-57 1049h372l-4 -623h8l224 623h288l21 -627h6zM678 1163l-105 88q123 150 277 297q55 49 81.5 64.5t67.5 15.5q44 0 65.5 -15.5t57.5 -64.5q84 -123 176 -297l-112 -86l-219 217z" />
    <glyph glyph-name="wgrave.alt" horiz-adv-x="1519" 
d="M1313 1049h375l-418 -1049h-396l-16 557h-4l-215 -557h-383l-57 1049h372l-4 -623h8l224 623h288l21 -627h6zM899 1651l213 -422l-108 -74q-163 141 -238 227q-47 62 -47 107q0 35 16.5 63t47 47t56 30t60.5 22z" />
    <glyph glyph-name="wacute.alt" horiz-adv-x="1519" 
d="M1313 1049h375l-418 -1049h-396l-16 557h-4l-215 -557h-383l-57 1049h372l-4 -623h8l224 623h288l21 -627h6zM733 1237l303 399q160 -47 160 -143q0 -31 -19.5 -59.5t-70.5 -69.5q-93 -78 -293 -209z" />
    <glyph glyph-name="wdieresis.alt" horiz-adv-x="1519" 
d="M1313 1049h375l-418 -1049h-396l-16 557h-4l-215 -557h-383l-57 1049h372l-4 -623h8l224 623h288l21 -627h6zM1053 1362q0 70 53 120t133 50q62 0 97.5 -35t35.5 -90q0 -70 -53.5 -120t-132.5 -50q-62 0 -97.5 35t-35.5 90zM606 1362q0 70 53.5 120t133.5 50
q62 0 97.5 -35t35.5 -90q0 -70 -54 -120t-133 -50q-62 0 -97.5 35t-35.5 90z" />
    <glyph glyph-name="ygrave.alt" horiz-adv-x="1038" 
d="M856 1049h365l-531 -1053q-129 -258 -247.5 -356.5t-311.5 -98.5q-80 0 -159.5 24.5t-129.5 57.5l119 240q88 -47 166 -47q63 0 102 26t76 92l47 80l-170 1035h359l45 -617h6zM635 1651l213 -422l-109 -74q-159 137 -237 227q-47 62 -47 107q0 35 16.5 63t47 47t56 30
t60.5 22z" />
    <glyph glyph-name="ycircumflex.alt" horiz-adv-x="1038" 
d="M856 1049h365l-531 -1053q-129 -258 -247.5 -356.5t-311.5 -98.5q-80 0 -159.5 24.5t-129.5 57.5l119 240q88 -47 166 -47q63 0 102 26t76 92l47 80l-170 1035h359l45 -617h6zM449 1163l-105 88q123 150 277 297q55 49 81.5 64.5t67.5 15.5q44 0 65.5 -15.5t57.5 -64.5
q84 -123 176 -297l-113 -86l-219 217z" />
    <glyph glyph-name="zacute.alt" horiz-adv-x="950" 
d="M911 0h-860l39 215l512 565h-387l45 269h819l-37 -209l-514 -570h430zM549 1237l303 399q160 -47 160 -143q0 -31 -19.5 -59.5t-70.5 -69.5q-93 -78 -293 -209z" />
    <glyph glyph-name="zdotaccent.alt" horiz-adv-x="950" 
d="M911 0h-860l39 215l512 565h-387l45 269h819l-37 -209l-514 -570h430zM528 1319q0 81 61 140t152 59q70 0 113 -42t43 -104q0 -82 -62 -138t-153 -56q-72 0 -113 39t-41 102z" />
    <glyph glyph-name="zcaron.alt" horiz-adv-x="950" 
d="M911 0h-860l39 215l512 565h-387l45 269h819l-37 -209l-514 -570h430zM1012 1628l104 -88q-166 -192 -278 -297q-51 -47 -79.5 -63.5t-70.5 -16.5q-44 0 -65.5 15.5t-57.5 64.5q-102 152 -178 297l119 86l217 -215z" />
    <glyph glyph-name="yacute.alt" horiz-adv-x="1038" 
d="M856 1049h365l-531 -1053q-129 -258 -247.5 -356.5t-311.5 -98.5q-80 0 -159.5 24.5t-129.5 57.5l119 240q88 -47 166 -47q63 0 102 26t76 92l47 80l-170 1035h359l45 -617h6zM532 1237l304 399q159 -47 159 -143q0 -31 -19.5 -59.5t-70.5 -69.5q-93 -78 -293 -209z" />
    <glyph glyph-name="ydieresis.alt" horiz-adv-x="1038" 
d="M856 1049h365l-531 -1053q-129 -258 -247.5 -356.5t-311.5 -98.5q-80 0 -159.5 24.5t-129.5 57.5l119 240q88 -47 166 -47q63 0 102 26t76 92l47 80l-170 1035h359l45 -617h6zM823 1362q0 70 53.5 120t133.5 50q62 0 97.5 -35t35.5 -90q0 -70 -54 -120t-133 -50
q-62 0 -97.5 35t-35.5 90zM377 1362q0 70 53 120t133 50q62 0 97.5 -35t35.5 -90q0 -70 -53.5 -120t-132.5 -50q-62 0 -97.5 35t-35.5 90z" />
    <glyph glyph-name="agrave.alt" horiz-adv-x="1075" 
d="M311 776l-24 238q73 25 195.5 45t232.5 20q185 0 268.5 -62.5t83.5 -207.5q0 -57 -12 -131l-72 -410q-6 -37 2 -54t35 -17q17 0 61 14v-191q-103 -47 -217 -47q-74 0 -120 36t-52 97q-150 -133 -319 -133q-136 0 -207.5 77t-71.5 208q0 109 32.5 184.5t97 116.5t146 58.5
t193.5 17.5q80 0 152 -8l10 65q6 30 6 56q0 44 -24 60.5t-74 16.5q-62 0 -156 -13.5t-166 -35.5zM651 258l29 174q-36 6 -90 6q-75 0 -116.5 -27t-41.5 -108q0 -92 82 -92q73 0 137 47zM682 1651l213 -422l-109 -74q-159 137 -237 227q-47 62 -47 107q0 35 16.5 63t47 47
t56 30t60.5 22z" />
    <glyph glyph-name="aacute.alt" horiz-adv-x="1075" 
d="M311 776l-24 238q73 25 195.5 45t232.5 20q185 0 268.5 -62.5t83.5 -207.5q0 -57 -12 -131l-72 -410q-6 -37 2 -54t35 -17q17 0 61 14v-191q-103 -47 -217 -47q-74 0 -120 36t-52 97q-150 -133 -319 -133q-136 0 -207.5 77t-71.5 208q0 109 32.5 184.5t97 116.5t146 58.5
t193.5 17.5q80 0 152 -8l10 65q6 30 6 56q0 44 -24 60.5t-74 16.5q-62 0 -156 -13.5t-166 -35.5zM651 258l29 174q-36 6 -90 6q-75 0 -116.5 -27t-41.5 -108q0 -92 82 -92q73 0 137 47zM532 1237l304 399q159 -47 159 -143q0 -31 -19.5 -59.5t-70.5 -69.5q-93 -78 -293 -209
z" />
    <glyph glyph-name="acircumflex.alt" horiz-adv-x="1075" 
d="M311 776l-24 238q73 25 195.5 45t232.5 20q185 0 268.5 -62.5t83.5 -207.5q0 -57 -12 -131l-72 -410q-6 -37 2 -54t35 -17q17 0 61 14v-191q-103 -47 -217 -47q-74 0 -120 36t-52 97q-150 -133 -319 -133q-136 0 -207.5 77t-71.5 208q0 109 32.5 184.5t97 116.5t146 58.5
t193.5 17.5q80 0 152 -8l10 65q6 30 6 56q0 44 -24 60.5t-74 16.5q-62 0 -156 -13.5t-166 -35.5zM651 258l29 174q-36 6 -90 6q-75 0 -116.5 -27t-41.5 -108q0 -92 82 -92q73 0 137 47zM449 1163l-105 88q123 150 277 297q55 49 81.5 64.5t67.5 15.5q44 0 65.5 -15.5
t57.5 -64.5q84 -123 176 -297l-113 -86l-219 217z" />
    <glyph glyph-name="atilde.alt" horiz-adv-x="1075" 
d="M311 776l-24 238q73 25 195.5 45t232.5 20q185 0 268.5 -62.5t83.5 -207.5q0 -57 -12 -131l-72 -410q-6 -37 2 -54t35 -17q17 0 61 14v-191q-103 -47 -217 -47q-74 0 -120 36t-52 97q-150 -133 -319 -133q-136 0 -207.5 77t-71.5 208q0 109 32.5 184.5t97 116.5t146 58.5
t193.5 17.5q80 0 152 -8l10 65q6 30 6 56q0 44 -24 60.5t-74 16.5q-62 0 -156 -13.5t-166 -35.5zM651 258l29 174q-36 6 -90 6q-75 0 -116.5 -27t-41.5 -108q0 -92 82 -92q73 0 137 47zM418 1253l10 191q95 63 190 63q57 0 144.5 -27.5t134.5 -27.5q63 0 139 39l-16 -201
q-74 -41 -152 -41q-48 0 -145.5 24.5t-138.5 24.5q-80 0 -166 -45z" />
    <glyph glyph-name="adieresis.alt" horiz-adv-x="1075" 
d="M311 776l-24 238q73 25 195.5 45t232.5 20q185 0 268.5 -62.5t83.5 -207.5q0 -57 -12 -131l-72 -410q-6 -37 2 -54t35 -17q17 0 61 14v-191q-103 -47 -217 -47q-74 0 -120 36t-52 97q-150 -133 -319 -133q-136 0 -207.5 77t-71.5 208q0 109 32.5 184.5t97 116.5t146 58.5
t193.5 17.5q80 0 152 -8l10 65q6 30 6 56q0 44 -24 60.5t-74 16.5q-62 0 -156 -13.5t-166 -35.5zM651 258l29 174q-36 6 -90 6q-75 0 -116.5 -27t-41.5 -108q0 -92 82 -92q73 0 137 47zM774 1362q0 70 53.5 120t133.5 50q62 0 97.5 -35t35.5 -90q0 -70 -54 -120t-133 -50
q-62 0 -97.5 35t-35.5 90zM328 1362q0 70 53 120t133 50q62 0 97.5 -35t35.5 -90q0 -70 -53.5 -120t-132.5 -50q-62 0 -97.5 35t-35.5 90z" />
    <glyph glyph-name="aring.alt" horiz-adv-x="1075" 
d="M311 776l-24 238q73 25 195.5 45t232.5 20q185 0 268.5 -62.5t83.5 -207.5q0 -57 -12 -131l-72 -410q-6 -37 2 -54t35 -17q17 0 61 14v-191q-103 -47 -217 -47q-74 0 -120 36t-52 97q-150 -133 -319 -133q-136 0 -207.5 77t-71.5 208q0 109 32.5 184.5t97 116.5t146 58.5
t193.5 17.5q80 0 152 -8l10 65q6 30 6 56q0 44 -24 60.5t-74 16.5q-62 0 -156 -13.5t-166 -35.5zM651 258l29 174q-36 6 -90 6q-75 0 -116.5 -27t-41.5 -108q0 -92 82 -92q73 0 137 47zM514 1303q0 101 63.5 161t170.5 60q89 0 134.5 -43.5t45.5 -116.5q0 -101 -62 -162
t-164 -61q-89 0 -138.5 43.5t-49.5 118.5zM731 1399q-35 0 -54.5 -21t-19.5 -55q0 -26 15.5 -40.5t42.5 -14.5q33 0 51 21.5t18 56.5q0 53 -53 53z" />
    <glyph glyph-name="egrave.alt" horiz-adv-x="1019" 
d="M729 1079q-150 0 -267 -54.5t-188 -148t-107 -210.5t-36 -250q0 -95 24.5 -174.5t75 -142t137 -97.5t201.5 -35q69 0 138.5 11.5t118.5 27.5t89 33.5t59 28t21 12.5l-73 233q-139 -84 -271 -84q-98 0 -141.5 51t-40.5 164h569q23 55 43.5 143t20.5 171q0 147 -105 234
t-268 87zM692 829q51 0 78 -24t27 -66q0 -48 -21 -104h-280q17 96 68 145t128 49zM735 1651l213 -422l-108 -74q-163 141 -238 227q-47 62 -47 107q0 35 16.5 63t47 47t56 30t60.5 22z" />
    <glyph glyph-name="eacute.alt" horiz-adv-x="1019" 
d="M729 1079q163 0 268 -87t105 -234q0 -83 -20.5 -171t-43.5 -143h-569q-3 -113 40.5 -164t141.5 -51q132 0 271 84l73 -233q-2 -2 -21 -12.5t-59 -28t-89 -33.5t-118.5 -27.5t-138.5 -11.5q-115 0 -201.5 35t-137 97.5t-75 142t-24.5 174.5q0 133 36 250t107 210.5
t188 148t267 54.5zM692 829q-77 0 -128 -49t-68 -145h280q21 56 21 104q0 42 -27 66t-78 24zM590 1237l303 399q160 -47 160 -143q0 -31 -19.5 -59.5t-70.5 -69.5q-93 -78 -293 -209z" />
    </font>
</defs>
</svg>
